<?xml version="1.0" standalone="no"?>
<!DOCTYPE svg PUBLIC "-//W3C//DTD SVG 1.1//EN" "http://www.w3.org/Graphics/SVG/1.1/DTD/svg11.dtd" >
<svg xmlns="http://www.w3.org/2000/svg" xmlns:xlink="http://www.w3.org/1999/xlink" version="1.1">
<metadata>
Created by FontForge 20170731 at Tue May 12 04:40:24 2015
 By ,,,
Copyright (c) 2014 by Type Dynamic. All rights reserved.
</metadata>
<defs>
<font id="SailecHairline" horiz-adv-x="223" >
  <font-face 
    font-family="Sailec Hairline"
    font-weight="400"
    font-stretch="normal"
    units-per-em="1000"
    panose-1="0 0 3 0 0 0 0 0 0 0"
    ascent="748"
    descent="-252"
    x-height="500"
    cap-height="748"
    bbox="-200 -263 1218 1041"
    underline-thickness="50"
    underline-position="-200"
    unicode-range="U+000D-FB02"
  />
<missing-glyph horiz-adv-x="661" 
d="M561 748v-748h-461v748h461zM548 740h-434l217 -358zM108 734v-719l218 360zM553 732l-217 -357l217 -358v715zM331 367l-218 -359h436z" />
    <glyph glyph-name="fi" unicode="fi" horiz-adv-x="517" 
d="M262 779q8 0 22 -2v-8q-16 2 -22 2q-60 0 -93 -37t-33 -106v-128h144v-8h-144v-492h-8v492h-108v8h108v128q0 73 35 112t99 39zM405 689q-16 0 -16 16q0 11 10 15.5t18 -3.5t3.5 -18t-15.5 -10zM409 500v-500h-8v500h8z" />
    <glyph glyph-name="f_j" unicode="fj" horiz-adv-x="517" 
d="M262 779q8 0 22 -2v-8q-16 2 -22 2q-60 0 -93 -37t-33 -106v-128h144v-8h-144v-492h-8v492h-108v8h108v128q0 73 35 112t99 39zM405 689q-16 0 -16 16q0 11 10 15.5t18 -3.5t3.5 -18t-15.5 -10zM402 500h8v-609q0 -148 -122 -148q-2 0 -24 2v8q22 -2 24 -2q114 0 114 140
v609z" />
    <glyph glyph-name=".notdef" horiz-adv-x="661" 
d="M561 748v-748h-461v748h461zM548 740h-434l217 -358zM108 734v-719l218 360zM553 732l-217 -357l217 -358v715zM331 367l-218 -359h436z" />
    <glyph glyph-name=".null" horiz-adv-x="0" 
 />
    <glyph glyph-name="nonmarkingreturn" horiz-adv-x="333" 
 />
    <glyph glyph-name="CR.001" unicode="&#xd;" horiz-adv-x="600" 
 />
    <glyph glyph-name="space" unicode=" " horiz-adv-x="255" 
 />
    <glyph glyph-name="exclam" unicode="!" horiz-adv-x="221" 
d="M114 748v-580h-8v580h8zM110 33q9 0 15 -6t6 -15q0 -8 -6 -14t-15 -6q-8 0 -14 6t-6 14q0 9 6 15t14 6z" />
    <glyph glyph-name="quotedbl" unicode="&#x22;" horiz-adv-x="217" 
d="M76 725l-5 -161h-15l-5 161h25zM166 725l-5 -161h-15l-5 161h25z" />
    <glyph glyph-name="numbersign" unicode="#" horiz-adv-x="592" 
d="M495 748l-56 -235h142l-2 -8h-142l-62 -260h153l-2 -8h-153l-57 -237h-8l57 237h-204l-57 -237h-8l57 237h-142l2 8h142l62 260h-153l2 8h153l56 235h8l-56 -235h204l56 235h8zM429 505h-204l-62 -260h204z" />
    <glyph glyph-name="dollar" unicode="$" horiz-adv-x="645" 
d="M272 395l53 -12q80 -18 114 -28q44 -13 79 -34q37 -21 53 -52t16 -80q0 -97 -71 -147t-181 -50h-2v-110h-8v110q-102 1 -175 52q-71 51 -80 136l8 1q10 -83 81 -132q70 -49 176 -49q109 0 176 48q68 48 68 141q0 70 -42 110q-20 18 -53 31q-41 16 -65 22q-59 15 -82 20
l-14 3q-53 11 -76 18t-62 23q-36 15 -54 33q-43 45 -43 117q0 82 61 136q62 54 176 54v109h8v-109q95 -2 155.5 -49.5t68.5 -129.5l-8 -1q-8 81 -68 126.5t-156 45.5q-108 0 -168.5 -50.5t-60.5 -131.5q4 -83 51 -119q38 -27 78 -39z" />
    <glyph glyph-name="percent" unicode="%" horiz-adv-x="770" 
d="M194 756q65 0 105.5 -45t40.5 -120t-41 -120.5t-105 -45.5t-105 45.5t-41 120.5t41 120t105 45zM194 433q61 0 99.5 43t38.5 115t-39 114q-39 43 -99 43t-99 -43q-39 -42 -39 -114q0 -71 39 -114.5t99 -43.5zM677 748l-574 -748h-10l574 748h10zM575 323q65 0 105.5 -45
t40.5 -120t-41 -120.5t-105 -45.5t-105 45.5t-41 120.5t41 120t105 45zM575 0q61 0 99.5 43t38.5 115t-39 114q-39 43 -99 43t-99 -43q-39 -42 -39 -114q0 -71 39 -114.5t99 -43.5z" />
    <glyph glyph-name="ampersand" unicode="&#x26;" horiz-adv-x="667" 
d="M643 -1l-5 -6l-137 136q-98 -135 -238 -135q-100 0 -158 54.5t-58 145.5q0 142 151 235q-74 80 -74 164q0 77 44.5 120t120.5 43q66 0 109.5 -37.5t50.5 -100.5h-8q-7 60 -48 95t-104 35q-73 0 -115 -40.5t-42 -114.5q0 -68 39 -118q23 -30 39 -48l12.5 -12.5l20.5 -20.5
l23 -23l233 -230q62 87 103 229l7 -3q-41 -143 -104 -232zM263 2q136 0 232 132l-234 231l-58 58q-148 -91 -148 -229q0 -87 56 -139.5t152 -52.5z" />
    <glyph glyph-name="quotesingle" unicode="'" horiz-adv-x="127" 
d="M76 725l-5 -161h-15l-5 161h25z" />
    <glyph glyph-name="parenleft" unicode="(" horiz-adv-x="200" 
d="M168 718l7 -4q-56 -79 -89 -182t-33 -212q0 -110 33 -212t89 -181l-7 -4q-123 176 -123 397q0 110 33.5 213.5t89.5 184.5z" />
    <glyph glyph-name="parenright" unicode=")" horiz-adv-x="200" 
d="M25 714l7 4q56 -81 89.5 -184.5t33.5 -213.5q0 -221 -123 -397l-7 4q56 79 89 181t33 212q0 109 -33 212t-89 182z" />
    <glyph glyph-name="asterisk" unicode="*" horiz-adv-x="286" 
d="M147 748v-127l121 39l3 -8l-121 -39l75 -103l-7 -6l-75 103l-75 -103l-7 6l75 103l-121 39l3 8l121 -39v127h8z" />
    <glyph glyph-name="plus" unicode="+" horiz-adv-x="544" 
d="M276 600v-227h233v-8h-233v-236h-8v236h-233v8h233v227h8z" />
    <glyph glyph-name="comma" unicode="," horiz-adv-x="147" 
d="M73 31q20 0 20 -26q0 -91 -60 -137v9q49 46 44 117h-4q-7 0 -12.5 5.5t-5.5 12.5q0 8 5.5 13.5t12.5 5.5z" />
    <glyph glyph-name="hyphen" unicode="-" horiz-adv-x="398" 
d="M353 265v-8h-308v8h308z" />
    <glyph glyph-name="period" unicode="." horiz-adv-x="147" 
d="M73 33q9 0 15 -6t6 -15q0 -8 -6 -14t-15 -6q-8 0 -14 6t-6 14q0 9 6 15t14 6z" />
    <glyph glyph-name="slash" unicode="/" horiz-adv-x="293" 
d="M278 748l-254 -815h-9l256 815h7z" />
    <glyph glyph-name="zero" unicode="0" horiz-adv-x="636" 
d="M318 756q118 0 184 -100t66 -282t-66 -282t-184 -100q-119 0 -184.5 99.5t-65.5 282.5t65.5 282.5t184.5 99.5zM318 748q-115 0 -178.5 -97t-63.5 -277t63.5 -277t178.5 -97t178.5 97t63.5 277t-63.5 277t-178.5 97z" />
    <glyph glyph-name="one" unicode="1" horiz-adv-x="343" 
d="M233 748v-748h-8v735l-190 -164l-5 6l197 171h6z" />
    <glyph glyph-name="two" unicode="2" horiz-adv-x="528" 
d="M273 756q92 0 143 -55.5t51 -149.5q0 -91 -39 -161q-38 -69 -124 -155l-225 -227h403v-8h-416v6l233 235q84 86 121 152q39 69 39 158t-49 143t-137 54q-95 0 -148 -55.5t-55 -154.5h-8q2 103 57 160.5t154 57.5z" />
    <glyph glyph-name="three" unicode="3" horiz-adv-x="542" 
d="M268 756q88 0 140.5 -50t52.5 -136q0 -71 -44 -121q-43 -49 -108 -60q81 -8 129.5 -59t48.5 -133q0 -93 -59 -149t-155 -56t-153 54t-68 154h8q11 -97 65.5 -148.5t147.5 -51.5q94 0 150 53.5t56 143.5q0 89 -57.5 138t-155.5 49h-68v8h68q79 0 132 49q55 49 55 129
q0 83 -50 130.5t-135 47.5t-136.5 -50.5t-58.5 -139.5h-8q7 93 60.5 145.5t142.5 52.5z" />
    <glyph glyph-name="four" unicode="4" horiz-adv-x="586" 
d="M398 748v-502h161v-8h-161v-238h-8v238h-364v6l366 504h6zM390 731l-352 -485h352v485z" />
    <glyph glyph-name="five" unicode="5" horiz-adv-x="545" 
d="M274 438q97 0 156 -62q60 -62 60 -159t-57 -162q-57 -63 -159 -63q-96 0 -152 54t-67 154h8q11 -96 65 -148t146 -52q99 0 153 61q55 61 55 156q0 96 -58 154q-57 59 -150 59q-98 0 -184 -68h-8v386h380v-8h-372v-368q82 66 184 66z" />
    <glyph glyph-name="six" unicode="6" horiz-adv-x="571" 
d="M288 457q102 0 166 -64q66 -63 66 -169t-66 -169q-64 -63 -166 -63q-101 0 -167 63t-66 169q0 91 46 147l6 7l295 370h9l-266 -334q59 43 143 43zM512 224q0 102 -64 163q-64 62 -160 62q-114 0 -177 -78q-48 -59 -48 -147q0 -102 64 -163t161 -61q98 0 160 61
q64 61 64 163z" />
    <glyph glyph-name="seven" unicode="7" horiz-adv-x="538" 
d="M519 748v-7l-428 -741h-9l427 740h-482v8h492z" />
    <glyph glyph-name="eight" unicode="8" horiz-adv-x="578" 
d="M289 756q88 0 145 -51q58 -49 58 -136q0 -71 -42.5 -119.5t-113.5 -61.5q78 -12 125 -64.5t47 -131.5q0 -92 -62 -146t-157 -54t-157 54t-62 146q0 79 46.5 131t124.5 65q-71 13 -113.5 61.5t-42.5 119.5q0 87 57 136q58 51 147 51zM289 748q-86 0 -141 -49
q-55 -48 -55 -130q0 -81 55 -129q56 -48 141 -48q83 0 139 48t56 129q0 82 -56 130q-55 49 -139 49zM78 192q0 -88 60 -140q59 -52 151 -52t151 52q60 53 60 140q0 88 -60 140q-58 52 -151 52t-152 -52q-59 -53 -59 -140z" />
    <glyph glyph-name="nine" unicode="9" horiz-adv-x="571" 
d="M516 524q0 -91 -46 -147l-6 -7l-295 -370h-9l266 334q-59 -43 -143 -43q-101 0 -167 63q-65 65 -65 170q0 106 65 169q66 63 167 63t167 -63t66 -169zM283 299q114 0 177 78q48 59 48 147q0 101 -64 162q-65 62 -161 62t-161 -62q-63 -62 -63 -162q0 -102 63 -164
q64 -61 161 -61z" />
    <glyph glyph-name="colon" unicode=":" horiz-adv-x="147" 
d="M73 508q9 0 15 -6t6 -15q0 -8 -6 -14t-15 -6q-8 0 -14 6t-6 14q0 9 6 15t14 6zM73 33q9 0 15 -6t6 -15q0 -8 -6 -14t-15 -6q-8 0 -14 6t-6 14q0 9 6 15t14 6z" />
    <glyph glyph-name="semicolon" unicode=";" horiz-adv-x="147" 
d="M73 467q-8 0 -14 6t-6 14q0 9 6 15t14 6q9 0 15 -6t6 -15q0 -8 -6 -14t-15 -6zM73 31q20 0 20 -26q0 -91 -60 -137v9q49 46 44 117h-4q-7 0 -12.5 5.5t-5.5 12.5q0 8 5.5 13.5t12.5 5.5z" />
    <glyph glyph-name="less" unicode="&#x3c;" horiz-adv-x="492" 
d="M454 555l3 -7l-412 -179l412 -179l-3 -7l-429 186z" />
    <glyph glyph-name="equal" unicode="=" horiz-adv-x="544" 
d="M509 486v-8h-474v8h474zM509 253v-8h-474v8h474z" />
    <glyph glyph-name="greater" unicode="&#x3e;" horiz-adv-x="492" 
d="M38 555l429 -186l-429 -186l-3 7l412 179l-412 179z" />
    <glyph glyph-name="question" unicode="?" horiz-adv-x="458" 
d="M229 756q96 0 150 -57t54 -143q0 -66 -27 -106q-24 -37 -88 -83q-56 -44 -75 -79t-19 -96v-24h-8v24q0 60 18 98q20 40 78 83q61 41 87 81t26 102q0 84 -52 137q-51 55 -144 55q-177 0 -201 -166l-8 1q10 82 64.5 127.5t144.5 45.5zM218 33q9 0 15 -6t6 -15q0 -8 -6 -14
t-15 -6q-8 0 -14 6t-6 14q0 9 6 15t14 6z" />
    <glyph glyph-name="at" unicode="@" horiz-adv-x="787" 
d="M736 245q0 -91 -28.5 -142.5t-79.5 -51.5q-73 0 -73 85v28q-35 -117 -166 -117q-84 0 -134 54.5t-50 149.5t50.5 149.5t133.5 54.5q135 0 166 -120v113h8v-312q0 -77 65 -77q47 0 73.5 49.5t26.5 136.5q0 145 -95 240t-240 95t-240 -95q-94 -94 -94 -240t94 -240t240 -94
q108 0 193 58l4 -7q-89 -59 -197 -59q-149 0 -246 97q-96 96 -96 245t96 246q97 97 246 97t246 -97t97 -246zM389 55q78 0 122 46t44 134v32q0 88 -44 134t-122 46q-80 0 -128 -52t-48 -144t48 -144t128 -52z" />
    <glyph glyph-name="A" unicode="A" horiz-adv-x="663" 
d="M335 748l303 -748h-9l-103 256h-389l-103 -256h-9l302 748h8zM332 736l-192 -472h383z" />
    <glyph glyph-name="B" unicode="B" horiz-adv-x="660" 
d="M110 0v748h235q96 0 153 -49.5t57 -137.5q0 -151 -121 -176q73 -13 114.5 -62.5t41.5 -129.5q0 -97 -61 -145q-60 -48 -152 -48h-267zM345 740h-227v-351h273q74 0 115 42.5t41 129.5q0 85 -55 132t-147 47zM391 381h-273v-373h259q88 0 146 46q59 47 59 139
q0 95 -57 141q-58 47 -134 47z" />
    <glyph glyph-name="C" unicode="C" horiz-adv-x="785" 
d="M416 756q130 0 219 -73q90 -72 103 -193l-8 -1q-12 118 -100 188q-89 71 -214 71q-152 0 -246 -99q-95 -100 -95 -275t97 -275q98 -99 247 -99q123 0 209 63q84 64 104 175l8 -1q-19 -114 -107 -180q-86 -65 -214 -65q-154 0 -253 101q-99 102 -99 281q0 180 97 280
q98 102 252 102z" />
    <glyph glyph-name="D" unicode="D" horiz-adv-x="793" 
d="M110 0v748h271q151 0 248 -100q97 -98 97 -274q0 -173 -99 -274q-97 -100 -249 -100h-268zM381 740h-263v-732h260q148 0 244 98q96 97 96 268q0 170 -95 268t-242 98z" />
    <glyph glyph-name="E" unicode="E" horiz-adv-x="579" 
d="M549 748v-8h-431v-346h387v-8h-387v-378h431v-8h-439v748h439z" />
    <glyph glyph-name="F" unicode="F" horiz-adv-x="575" 
d="M550 748v-8h-432v-356h368v-8h-368v-376h-8v748h440z" />
    <glyph glyph-name="G" unicode="G" horiz-adv-x="803" 
d="M418 343h325v-8q0 -165 -89 -254t-241 -89q-151 0 -249 102q-97 101 -97 280q0 180 96 280q97 102 249 102q131 0 223 -74q93 -74 104 -200l-8 -1q-12 123 -102 195t-217 72q-149 0 -243 -100q-94 -98 -94 -274q0 -174 95 -275q96 -99 243 -99q150 0 235.5 87t86.5 248
h-317v8z" />
    <glyph glyph-name="H" unicode="H" horiz-adv-x="741" 
d="M631 748v-748h-8v389h-505v-389h-8v748h8v-351h505v351h8z" />
    <glyph glyph-name="I" unicode="I" horiz-adv-x="228" 
d="M118 748v-748h-8v748h8z" />
    <glyph glyph-name="J" unicode="J" horiz-adv-x="533" 
d="M422 748h8v-549q0 -99 -51.5 -153t-142.5 -54q-93 0 -147.5 56t-58.5 152h8q4 -94 57 -147t141 -53t137 52t49 147v549z" />
    <glyph glyph-name="K" unicode="K" horiz-adv-x="616" 
d="M535 748l-323 -330l374 -418h-11l-369 412l-88 -90v-322h-8v748h8v-416l406 416h11z" />
    <glyph glyph-name="L" unicode="L" horiz-adv-x="591" 
d="M118 748v-740h439v-8h-447v748h8z" />
    <glyph glyph-name="M" unicode="M" horiz-adv-x="991" 
d="M881 748v-748h-8v723l-374 -723h-6l-375 723v-723h-8v748h4l382 -736l381 736h4z" />
    <glyph glyph-name="N" unicode="N" horiz-adv-x="731" 
d="M621 748v-748h-6l-497 730v-730h-8v748h5l498 -730v730h8z" />
    <glyph glyph-name="O" unicode="O" horiz-adv-x="854" 
d="M170 653q103 103 257 103t257 -103t103 -279q0 -175 -104 -279q-103 -103 -256 -103q-154 0 -257 103t-103 279t103 279zM75 374q0 -172 101 -273t251 -101t251 101t101 273t-101 273t-251 101t-251 -101t-101 -273z" />
    <glyph glyph-name="P" unicode="P" horiz-adv-x="626" 
d="M110 0v748h253q90 0 152 -53q61 -52 61 -154q0 -103 -61 -155q-62 -53 -152 -53h-245v-333h-8zM363 740h-245v-399h245q87 0 146 50q59 51 59 150t-59 149t-146 50z" />
    <glyph glyph-name="Q" unicode="Q" horiz-adv-x="854" 
d="M831 -68l-5 -6l-156 156q-98 -90 -243 -90q-154 0 -257 103t-103 279t103 279t257 103t257 -103t103 -279q0 -179 -111 -287zM427 0q140 0 237 88l-191 191l5 6l192 -192q109 103 109 281q0 172 -101 273t-251 101t-251 -101t-101 -273t101 -273t251 -101z" />
    <glyph glyph-name="R" unicode="R" horiz-adv-x="659" 
d="M613 0h-9l-200 344q-17 -4 -46 -4h-240v-340h-8v748h248q91 0 152 -52q61 -51 61 -152q0 -83 -42.5 -133.5t-115.5 -65.5zM118 740v-392h240q88 0 146 49q59 50 59 147t-59 147q-58 49 -146 49h-240z" />
    <glyph glyph-name="S" unicode="S" horiz-adv-x="645" 
d="M325 756q97 0 160.5 -47.5t71.5 -131.5l-8 -1q-8 81 -68 126.5t-156 45.5q-108 0 -168.5 -50.5t-60.5 -131.5q4 -83 51 -119q38 -27 78 -39l47 -13l53 -12q80 -18 114 -28q44 -13 79 -34q37 -21 53 -52t16 -80q0 -97 -71 -147t-181 -50q-106 0 -182 50q-74 50 -83 138
l8 1q10 -83 81 -132q70 -49 176 -49q109 0 176 48q68 48 68 141q0 70 -42 110q-20 18 -53 31q-41 16 -65 22q-59 15 -82 20l-14 3q-53 11 -76 18t-62 23q-36 15 -54 33q-43 45 -43 117q0 82 61 136q62 54 176 54z" />
    <glyph glyph-name="T" unicode="T" horiz-adv-x="668" 
d="M653 748v-8h-315v-740h-8v740h-315v8h638z" />
    <glyph glyph-name="U" unicode="U" horiz-adv-x="747" 
d="M636 748h8v-498q0 -124 -72.5 -191t-199.5 -67q-126 0 -197.5 67t-71.5 191v498h8v-498q0 -121 69 -185.5t192 -64.5q124 0 194 64.5t70 185.5v498z" />
    <glyph glyph-name="V" unicode="V" horiz-adv-x="695" 
d="M664 748l-313 -748h-8l-312 748h9l307 -737l308 737h9z" />
    <glyph glyph-name="W" unicode="W" horiz-adv-x="1110" 
d="M1079 748l-262 -748h-7l-255 730l-255 -730h-7l-262 748h9l257 -734l255 734h6l256 -734l256 734h9z" />
    <glyph glyph-name="X" unicode="X" horiz-adv-x="644" 
d="M600 748l-273 -367l283 -381h-10l-278 374l-278 -374h-10l283 381l-273 367h10l268 -361l268 361h10z" />
    <glyph glyph-name="Y" unicode="Y" horiz-adv-x="624" 
d="M599 748l-283 -408v-340h-8v340l-283 408h10l277 -400l277 400h10z" />
    <glyph glyph-name="Z" unicode="Z" horiz-adv-x="607" 
d="M567 748v-6l-519 -734h525v-8h-536v6l519 734h-494v8h505z" />
    <glyph glyph-name="bracketleft" unicode="[" horiz-adv-x="209" 
d="M184 718v-8h-111v-779h111v-8h-119v795h119z" />
    <glyph glyph-name="backslash" unicode="\" horiz-adv-x="293" 
d="M22 748l256 -815h-9l-254 815h7z" />
    <glyph glyph-name="bracketright" unicode="]" horiz-adv-x="209" 
d="M144 718v-795h-119v8h111v779h-111v8h119z" />
    <glyph glyph-name="asciicircum" unicode="^" horiz-adv-x="500" 
d="M250 756l215 -380h-8l-207 364l-207 -364h-8z" />
    <glyph glyph-name="underscore" unicode="_" horiz-adv-x="680" 
d="M635 0v-8h-590v8h590z" />
    <glyph glyph-name="grave" unicode="`" horiz-adv-x="195" 
d="M40 781l127 -191h-9l-128 191h10z" />
    <glyph glyph-name="a" unicode="a" horiz-adv-x="522" 
d="M255 508q80 0 122 -49t42 -139v-320h-8v151q-17 -78 -70.5 -118.5t-126.5 -40.5q-70 0 -109.5 32.5t-39.5 94.5q0 130 182 141l164 10v50q0 88 -39.5 134t-116.5 46t-122 -49q-45 -48 -45 -112h-8q0 68 47 118q46 51 128 51zM411 230v32l-164 -10q-174 -11 -174 -133
q0 -59 37 -89t104 -30q85 0 140 55q57 55 57 175z" />
    <glyph glyph-name="b" unicode="b" horiz-adv-x="638" 
d="M107 777h8v-429q18 77 76.5 118.5t142.5 41.5q104 0 171 -69q68 -68 68 -189q0 -120 -68 -190q-68 -68 -171 -68q-84 0 -142.5 41.5t-76.5 118.5v-152h-8v777zM334 500q-100 0 -159.5 -60t-59.5 -170v-40q0 -110 59.5 -170t159.5 -60t165 66q66 67 66 184t-66 183
q-64 67 -165 67z" />
    <glyph glyph-name="c" unicode="c" horiz-adv-x="558" 
d="M296 508q86 0 144 -49q58 -48 67 -130h-8q-10 79 -65 125t-138 46q-98 0 -161 -67q-62 -67 -62 -183t63 -184q64 -66 162 -66q83 0 136.5 42t65.5 115l8 -1q-14 -78 -69 -121t-141 -43q-102 0 -168 68q-65 70 -65 190q0 122 64 189q65 69 167 69z" />
    <glyph glyph-name="d" unicode="d" horiz-adv-x="638" 
d="M531 777v-777h-8v152q-18 -77 -76.5 -118.5t-142.5 -41.5q-103 0 -171 68q-68 70 -68 190q0 121 68 189q67 69 171 69q84 0 142.5 -41.5t76.5 -118.5v429h8zM304 500q-100 0 -166 -67q-65 -67 -65 -183t65 -184q66 -66 166 -66t159.5 60t59.5 170v40q0 110 -59.5 170
t-159.5 60z" />
    <glyph glyph-name="e" unicode="e" horiz-adv-x="581" 
d="M518 267v-17h-445q0 -117 64 -184q65 -66 163 -66q80 0 134 38t71 105l8 -1q-19 -72 -74 -111t-139 -39q-100 0 -168 69q-67 68 -67 189q0 122 66 189q66 69 168 69q104 0 161 -67q58 -65 58 -174zM299 500q-96 0 -161 -65q-63 -63 -65 -177h438v9q0 103 -56 168t-156 65
z" />
    <glyph glyph-name="f" unicode="f" horiz-adv-x="294" 
d="M262 779q8 0 22 -2v-8q-16 2 -22 2q-60 0 -93 -37t-33 -106v-128h144v-8h-144v-492h-8v492h-108v8h108v128q0 73 35 112t99 39z" />
    <glyph glyph-name="g" unicode="g" horiz-adv-x="638" 
d="M304 508q84 0 142.5 -41.5t76.5 -118.5v152h8v-542q0 -104 -61 -162q-62 -59 -161 -59q-85 0 -144.5 43.5t-77.5 113.5h9q15 -68 75 -108q61 -41 138 -41q98 0 156 56.5t58 156.5v194q-18 -77 -76.5 -118.5t-142.5 -41.5q-103 0 -171 68q-68 70 -68 190q0 121 68 189
q67 69 171 69zM304 500q-100 0 -166 -67q-65 -67 -65 -183t65 -184q66 -66 166 -66t159.5 60t59.5 170v40q0 110 -59.5 170t-159.5 60z" />
    <glyph glyph-name="h" unicode="h" horiz-adv-x="585" 
d="M107 777h8v-409q14 57 65 98q52 42 124 42q83 0 135 -55q53 -56 53 -140v-313h-8v313q0 81 -51 134t-129 53q-82 0 -136 -56q-53 -56 -53 -131v-313h-8v777z" />
    <glyph glyph-name="i" unicode="i" 
d="M111 689q-16 0 -16 16q0 11 10 15.5t18 -3.5t3.5 -18t-15.5 -10zM115 500v-500h-8v500h8z" />
    <glyph glyph-name="j" unicode="j" 
d="M111 689q-16 0 -16 16q0 11 10 15.5t18 -3.5t3.5 -18t-15.5 -10zM108 500h8v-609q0 -148 -122 -148q-2 0 -24 2v8q22 -2 24 -2q114 0 114 140v609z" />
    <glyph glyph-name="k" unicode="k" horiz-adv-x="478" 
d="M115 777v-552l299 275h12l-240 -221l274 -279h-11l-269 274l-65 -60v-214h-8v777h8z" />
    <glyph glyph-name="l" unicode="l" horiz-adv-x="222" 
d="M115 777v-777h-8v777h8z" />
    <glyph glyph-name="m" unicode="m" horiz-adv-x="941" 
d="M658 508q81 0 130 -55q50 -55 50 -140v-313h-8v313q0 82 -47 135q-46 52 -125 52q-81 0 -132 -56q-50 -56 -50 -131v-313h-8v313q0 82 -47 135q-46 52 -125 52q-81 0 -131 -56t-50 -131v-313h-8v500h8v-132q14 58 61 98q50 42 120 42q69 0 116.5 -41t59.5 -110
q16 69 65.5 110t120.5 41z" />
    <glyph glyph-name="n" unicode="n" horiz-adv-x="595" 
d="M304 508q83 0 135 -55q53 -56 53 -140v-313h-8v313q0 81 -51 134t-129 53q-82 0 -136 -56q-53 -56 -53 -131v-313h-8v500h8v-132q14 57 65 98q52 42 124 42z" />
    <glyph glyph-name="o" unicode="o" horiz-adv-x="620" 
d="M135 438q70 70 175 70t175 -70t70 -188t-70 -188t-175 -70t-175 70t-70 188t70 188zM479 432q-68 68 -169 68q-102 0 -170 -68q-67 -67 -67 -182t67 -182q68 -68 170 -68q101 0 169 68t68 182t-68 182z" />
    <glyph glyph-name="p" unicode="p" horiz-adv-x="638" 
d="M334 508q104 0 171 -69q68 -68 68 -189q0 -120 -68 -190q-68 -68 -171 -68q-84 0 -142.5 41.5t-76.5 118.5v-407h-8v755h8v-152q18 77 76.5 118.5t142.5 41.5zM334 500q-100 0 -159.5 -60t-59.5 -170v-40q0 -110 59.5 -170t159.5 -60t165 66q66 67 66 184t-66 183
q-64 67 -165 67z" />
    <glyph glyph-name="q" unicode="q" horiz-adv-x="638" 
d="M304 508q84 0 142.5 -41.5t76.5 -118.5v152h8v-755h-8v407q-18 -77 -76.5 -118.5t-142.5 -41.5q-103 0 -171 68q-68 70 -68 190q0 121 68 189q67 69 171 69zM304 500q-100 0 -166 -67q-65 -67 -65 -183t65 -184q66 -66 166 -66t159.5 60t59.5 170v40q0 110 -59.5 170
t-159.5 60z" />
    <glyph glyph-name="r" unicode="r" horiz-adv-x="290" 
d="M275 508v-8q-72 0 -116 -50t-44 -117v-333h-8v500h8v-112q12 51 55.5 85.5t104.5 34.5z" />
    <glyph glyph-name="s" unicode="s" horiz-adv-x="490" 
d="M237 507q68 1 108 -31t50 -93l-8 -1q-8 56 -47 87t-103 30q-73 1 -112 -32.5t-39 -91.5q-1 -55 43 -80q22 -10 37 -14l21 -6q4 -1 24.5 -5t24.5 -5q96 -21 137 -48q40 -25 40 -87q0 -67 -46 -102.5t-123 -35.5q-73 0 -119.5 32.5t-58.5 94.5l8 1q11 -59 55.5 -89.5
t114.5 -30.5q75 0 118 33t43 97q0 57 -38 81q-37 25 -133 46l-27 6l-28 6l-23 6q-18 4 -23 8q-1 1 -16 10.5t-18 14.5q-24 34 -21 67q0 62 41 97.5t118 34.5z" />
    <glyph glyph-name="t" unicode="t" horiz-adv-x="295" 
d="M225 5q29 0 55 6v-9q-20 -5 -55 -5q-115 0 -115 142l1 353h-96v8h96l1 183h8l-1 -183h159v-8h-159l-1 -353q0 -134 107 -134z" />
    <glyph glyph-name="u" unicode="u" horiz-adv-x="576" 
d="M469 500v-500h-8v132q-14 -58 -61 -99q-49 -41 -119 -41q-81 0 -130 54q-48 56 -48 141v313h8v-313q0 -84 46.5 -135.5t123.5 -51.5q81 0 130 55q50 56 50 132v313h8z" />
    <glyph glyph-name="v" unicode="v" horiz-adv-x="475" 
d="M457 500l-216 -500h-6l-217 500h9l211 -486l210 486h9z" />
    <glyph glyph-name="w" unicode="w" horiz-adv-x="786" 
d="M768 500l-188 -500h-6l-181 485l-181 -485h-6l-188 500h9l182 -484l181 484h6l181 -484l182 484h9z" />
    <glyph glyph-name="x" unicode="x" horiz-adv-x="465" 
d="M423 500l-185 -239l202 -261h-11l-196 255l-197 -255h-11l203 261l-186 239h11l180 -233l179 233h11z" />
    <glyph glyph-name="y" unicode="y" horiz-adv-x="475" 
d="M447 500l-311 -755h-9l106 259l-205 496h9l201 -486l200 486h9z" />
    <glyph glyph-name="z" unicode="z" horiz-adv-x="438" 
d="M393 500v-6l-349 -486h366v-8h-378v6l350 486h-342v8h353z" />
    <glyph glyph-name="braceleft" unicode="{" horiz-adv-x="183" 
d="M158 717v-8h-6q-58 0 -76.5 -52.5t3.5 -150.5q18 -63 17 -118q0 -54 -36 -68q36 -14 36 -69q1 -54 -17 -117q-22 -98 -3.5 -150.5t76.5 -52.5h6v-8h-6q-63 0 -84 56.5t3 156.5q6 22 10 47q11 55 7 80q-4 27 -16 40t-39 13h-8v8h8q27 0 39 13t16 40q2 16 -1 37
q-3 35 -16 90q-24 100 -3 156.5t84 56.5h6z" />
    <glyph glyph-name="bar" unicode="|" horiz-adv-x="208" 
d="M108 748v-815h-8v815h8z" />
    <glyph glyph-name="braceright" unicode="}" horiz-adv-x="183" 
d="M25 709v8h6q63 0 84 -56.5t-3 -156.5q-2 -8 -4 -17l-4 -18t-3 -13q-9 -57 -6 -79q4 -27 16 -40t39 -13h8v-8h-8q-27 0 -39 -13t-16 -40q-2 -14 0 -38q4 -35 17 -89q24 -100 3 -156.5t-84 -56.5h-6v8h6q58 0 76.5 52.5t-3.5 150.5q-18 62 -18 117q2 56 37 69
q-36 13 -37 68q0 56 18 118q22 98 3.5 150.5t-76.5 52.5h-6z" />
    <glyph glyph-name="asciitilde" unicode="~" horiz-adv-x="525" 
d="M484 408l6 -5q-34 -40 -62.5 -56t-74.5 -16q-37 -1 -72 17t-64.5 35.5t-53.5 16.5q-38 0 -63 -14t-59 -52l-6 5q34 39 60.5 54t67.5 15q26 1 56 -16.5t64 -35.5t70 -17q43 0 70 15t61 54z" />
    <glyph glyph-name="exclamdown" unicode="&#xa1;" horiz-adv-x="221" 
d="M111 467q-9 0 -15 6t-6 15q0 8 6 14t15 6q8 0 14 -6t6 -14q0 -9 -6 -15t-14 -6zM107 -248v580h8v-580h-8z" />
    <glyph glyph-name="cent" unicode="&#xa2;" horiz-adv-x="558" 
d="M500 157l8 -1q-14 -76 -68.5 -119.5t-138.5 -44.5v-110h-8v110q-99 1 -164 70q-64 67 -64 188q0 120 63 188q64 68 165 70v119h8v-119q85 -2 141 -50.5t65 -128.5h-8q-10 79 -65 125t-138 46q-98 0 -161 -67q-62 -67 -62 -183t63 -184q64 -66 162 -66q83 0 136.5 42
t65.5 115z" />
    <glyph glyph-name="sterling" unicode="&#xa3;" horiz-adv-x="521" 
d="M58 8h428v-8h-441v8q63 45 91.5 97t22.5 125l-9 127h-121v8h121l-12 164q-8 110 34 169t134 59q80 0 122 -42.5t42 -113.5h-8q0 68 -40 108t-116 40q-172 0 -159 -219l11 -165h202v-8h-201l8 -126q5 -74 -23 -126.5t-86 -96.5z" />
    <glyph glyph-name="currency" unicode="&#xa4;" horiz-adv-x="570" 
d="M405 113l130 -130l-6 -5l-130 130q-44 -47 -114 -47t-114 47l-130 -130l-6 5l130 130q-47 53 -47 140t47 140l-130 130l6 5l129 -129q46 46 115 46q70 0 114 -47l130 130l6 -5l-130 -130q46 -53 46 -140t-46 -140zM126 253q0 -85 45 -134q47 -50 114 -50q68 0 113 49
q45 50 45 135t-45 134q-45 50 -113 50q-67 0 -114 -50q-45 -49 -45 -134z" />
    <glyph glyph-name="yen" unicode="&#xa5;" horiz-adv-x="624" 
d="M599 748l-282 -406h149v-8h-150v-124h150v-8h-150v-202h-8v202h-150v8h150v124h-150v8h149l-282 406h10l277 -400l277 400h10z" />
    <glyph glyph-name="brokenbar" unicode="&#xa6;" horiz-adv-x="208" 
d="M108 748v-319h-8v319h8zM108 252v-319h-8v319h8z" />
    <glyph glyph-name="section" unicode="&#xa7;" horiz-adv-x="499" 
d="M338 241q50 -18 72.5 -46t22.5 -76q0 -70 -49.5 -108.5t-131.5 -38.5q-80 0 -136 38q-54 39 -55 109h8q2 -64 53 -101q53 -38 130 -38q79 0 126 36t47 103q0 54 -35 85q-14 14 -42 24q-26 11 -105 29q-85 19 -122 47t-37 85q0 42 17 69t56 52q-73 31 -73 109
q0 65 43.5 101t114.5 36q75 0 122.5 -36.5t48.5 -100.5h-8q-1 58 -46.5 93.5t-116.5 35.5q-67 0 -108.5 -34t-41.5 -95q0 -48 31 -79q11 -11 36 -22q42 -17 92 -27q85 -19 122 -47t37 -85q0 -42 -16.5 -67.5t-55.5 -50.5zM92 389q0 -54 35 -80t118 -44q48 -11 84 -21
q40 25 56.5 49.5t16.5 65.5q0 54 -35 80t-118 44q-47 10 -83 24q-40 -26 -57 -52t-17 -66z" />
    <glyph glyph-name="dieresis" unicode="&#xa8;" horiz-adv-x="192" 
d="M66 683q0 -15 -16 -15t-16 15q0 16 16 16t16 -16zM143 699q15 0 15 -16q0 -15 -15 -15q-17 0 -17 15q0 7 5 11.5t12 4.5z" />
    <glyph glyph-name="copyright" unicode="&#xa9;" horiz-adv-x="566" 
d="M107 684q72 72 176 72t176 -72t72 -176t-72 -176t-176 -72t-176 72t-72 176t72 176zM453 678q-69 70 -170 70t-171 -70q-69 -70 -69 -170q0 -99 69 -170q70 -70 171 -70t170 70q70 70 70 170t-70 170zM285 663q52 0 89 -30t42 -78h-8q-5 45 -39.5 72.5t-83.5 27.5
q-59 0 -96.5 -40t-37.5 -108q0 -67 38.5 -107.5t96.5 -40.5q48 0 82 25t41 67h8q-8 -46 -43.5 -73t-87.5 -27q-62 0 -102.5 43.5t-40.5 112.5q0 71 40 113.5t102 42.5z" />
    <glyph glyph-name="ordfeminine" unicode="&#xaa;" horiz-adv-x="421" 
d="M208 755q131 0 131 -151v-256h-8v115q-15 -59 -57 -90t-99 -31t-88.5 25.5t-31.5 75.5q0 103 143 114l133 9v38q0 143 -123 143q-60 0 -96 -37t-36 -91h-8q0 56 37 96t103 40zM331 532v26l-132 -9q-136 -10 -136 -106q0 -93 112 -93q64 0 110 44q46 43 46 138z" />
    <glyph glyph-name="guillemotleft" unicode="&#xab;" horiz-adv-x="464" 
d="M215 447l5 -6l-192 -193l192 -193l-5 -6l-200 199zM434 447l5 -6l-192 -193l192 -193l-5 -6l-200 199z" />
    <glyph glyph-name="logicalnot" unicode="&#xac;" horiz-adv-x="495" 
d="M440 367v-178h-8v170h-387v8h395z" />
    <glyph glyph-name="registered" unicode="&#xae;" horiz-adv-x="566" 
d="M107 684q72 72 176 72t176 -72t72 -176t-72 -176t-176 -72t-176 72t-72 176t72 176zM112 338q70 -70 171 -70t170 70q70 70 70 170t-70 170q-69 70 -170 70t-171 -70q-69 -70 -69 -170q0 -99 69 -170zM382 575q0 -68 -63 -82l81 -140h-9l-81 138q-3 -1 -17 -1h-94v-137
h-8v306h102q40 0 64.5 -21.5t24.5 -62.5zM199 651v-153h94q37 0 59 19.5t22 57.5t-22 57t-59 19h-94z" />
    <glyph glyph-name="overscore" unicode="&#xaf;" horiz-adv-x="265" 
d="M240 664v-8h-215v8h215z" />
    <glyph glyph-name="degree" unicode="&#xb0;" horiz-adv-x="309" 
d="M274 630v-22q0 -59 -32.5 -92.5t-87.5 -33.5t-87 33t-32 93v22q0 60 32 93t87 33t87.5 -33.5t32.5 -92.5zM154 748q-52 0 -81.5 -31t-29.5 -87v-22q0 -56 30 -87t81 -31t81.5 31.5t30.5 86.5v22q0 55 -30.5 86.5t-81.5 31.5z" />
    <glyph glyph-name="plusminus" unicode="&#xb1;" horiz-adv-x="544" 
d="M276 685v-227h233v-8h-233v-236h-8v236h-233v8h233v227h8zM509 136v-8h-474v8h474z" />
    <glyph glyph-name="acute" unicode="&#xb4;" horiz-adv-x="195" 
d="M165 781l-128 -191h-9l127 191h10z" />
    <glyph glyph-name="paragraph" unicode="&#xb6;" horiz-adv-x="608" 
d="M583 748v-8h-68v-807h-8v807h-176v-807h-8v460h-71q-89 0 -142.5 46.5t-53.5 131.5q0 83 54 130t142 47h331z" />
    <glyph glyph-name="middot" unicode="&#xb7;" horiz-adv-x="147" 
d="M73 279q9 0 15 -6t6 -15q0 -8 -6 -14t-15 -6q-8 0 -14 6t-6 14q0 9 6 15t14 6z" />
    <glyph glyph-name="cedilla" unicode="&#xb8;" horiz-adv-x="274" 
d="M123 3h8l-15 -79q57 1 88 -20.5t31 -62.5q0 -35 -28.5 -56t-71.5 -21q-57 0 -100 28l4 7q42 -27 96 -27q39 0 65.5 19t26.5 50q0 75 -106 75q-12 0 -15 -1z" />
    <glyph glyph-name="ordmasculine" unicode="&#xba;" horiz-adv-x="497" 
d="M248 342q-85 0 -140 55q-56 56 -56 151t56 151t140 56t140 -56q57 -55 57 -151q0 -95 -56 -151q-55 -55 -141 -55zM383 693q-54 54 -135 54t-135 -54q-53 -55 -53 -145t53 -145q55 -53 135 -53t135 53q54 54 54 145t-54 145z" />
    <glyph glyph-name="guillemotright" unicode="&#xbb;" horiz-adv-x="464" 
d="M30 447l200 -199l-200 -199l-5 6l192 193l-192 193zM249 447l200 -199l-200 -199l-5 6l192 193l-192 193z" />
    <glyph glyph-name="onequarter" unicode="&#xbc;" horiz-adv-x="630" 
d="M571 748l-554 -748h-10l554 748h10zM139 733v-411h-8v399l-102 -87l-5 6l109 93h6zM520 411v-276h87v-8h-87v-127h-8v127h-198v6l200 278h6zM512 394l-187 -259h187v259z" />
    <glyph glyph-name="onehalf" unicode="&#xbd;" horiz-adv-x="658" 
d="M571 748l-554 -748h-10l554 748h10zM139 733v-411h-8v399l-102 -87l-5 6l109 93h6zM509 416q51 0 79.5 -30.5t28.5 -82.5q0 -49 -20.5 -87.5t-67.5 -85.5l-120 -122h216v-8h-229v6l126 129q47 48 67 84.5t20 82.5q0 49 -26.5 77.5t-73.5 28.5q-51 0 -79.5 -30t-29.5 -83
l-8 1q2 57 32.5 88.5t84.5 31.5z" />
    <glyph glyph-name="threequarters" unicode="&#xbe;" horiz-adv-x="738" 
d="M679 748l-554 -748h-10l554 748h10zM156 738q49 0 78 -28t29 -75q0 -37 -22.5 -65t-55.5 -34q41 -5 66.5 -33t25.5 -72q0 -52 -32.5 -82.5t-86.5 -30.5q-53 0 -84.5 29.5t-37.5 84.5l8 1q14 -107 114 -107q51 0 81 28.5t30 76.5t-31 74t-84 26h-37v8h37q43 0 72 27t29 69
q0 44 -27 69.5t-72 25.5q-46 0 -74 -27t-31 -75h-8q4 51 33.5 80.5t79.5 29.5zM628 411v-276h87v-8h-87v-127h-8v127h-198v6l200 278h6zM620 394l-187 -259h187v259z" />
    <glyph glyph-name="questiondown" unicode="&#xbf;" horiz-adv-x="458" 
d="M240 467q-9 0 -15 6t-6 15q0 8 6 14t15 6q8 0 14 -6t6 -14q0 -9 -6 -15t-14 -6zM229 -256q-96 0 -150 57t-54 143q0 65 26 106q25 38 89 83q56 44 75 79t19 96v24h8v-24q0 -61 -19 -99q-18 -38 -77 -82q-61 -41 -87 -81t-26 -102q0 -83 51 -137q52 -55 145 -55
q177 0 201 166l8 -1q-10 -82 -64.5 -127.5t-144.5 -45.5z" />
    <glyph glyph-name="Agrave" unicode="&#xc0;" horiz-adv-x="663" 
d="M164 919l175 -124h-14l-177 124h16zM335 748l303 -748h-9l-103 256h-389l-103 -256h-9l302 748h8zM332 736l-192 -472h383z" />
    <glyph glyph-name="Aacute" unicode="&#xc1;" horiz-adv-x="663" 
d="M515 919l-177 -124h-14l175 124h16zM335 748l303 -748h-9l-103 256h-389l-103 -256h-9l302 748h8zM332 736l-192 -472h383z" />
    <glyph glyph-name="Acircumflex" unicode="&#xc2;" horiz-adv-x="663" 
d="M334 916l123 -121h-11l-114 110l-114 -110h-11l123 121h4zM335 748l303 -748h-9l-103 256h-389l-103 -256h-9l302 748h8zM332 736l-192 -472h383z" />
    <glyph glyph-name="Atilde" unicode="&#xc3;" horiz-adv-x="663" 
d="M261 904q31 0 72 -35q43 -35 69 -35t42 18t17 45h8q-1 -31 -19.5 -51t-47.5 -20q-30 0 -73 35q-41 35 -68 35q-26 0 -42 -18t-17 -45h-8q1 31 19.5 51t47.5 20zM335 748l303 -748h-9l-103 256h-389l-103 -256h-9l302 748h8zM332 736l-192 -472h383z" />
    <glyph glyph-name="Adieresis" unicode="&#xc4;" horiz-adv-x="663" 
d="M303 855q0 -15 -16 -15t-16 15q0 16 16 16t16 -16zM380 871q15 0 15 -16q0 -15 -15 -15q-17 0 -17 15q0 7 5 11.5t12 4.5zM335 748l303 -748h-9l-103 256h-389l-103 -256h-9l302 748h8zM332 736l-192 -472h383z" />
    <glyph glyph-name="Aring" unicode="&#xc5;" horiz-adv-x="663" 
d="M269 939q26 24 63 24t62 -24q26 -24 26 -61t-26 -61q-25 -24 -62 -24t-63 24q-25 24 -25 61t25 61zM388 933q-23 22 -56 22t-57 -22q-23 -22 -23 -55t23 -55q24 -22 57 -22t56 22q24 22 24 55t-24 55zM335 748l303 -748h-9l-103 256h-389l-103 -256h-9l302 748h8z
M332 736l-192 -472h383z" />
    <glyph glyph-name="AE" unicode="&#xc6;" horiz-adv-x="975" 
d="M945 740h-431v-346h387v-8h-387v-378h431v-8h-439v256h-313l-168 -256h-10l491 748h439v-8zM198 264h308v469z" />
    <glyph glyph-name="Ccedilla" unicode="&#xc7;" horiz-adv-x="785" 
d="M732 238l8 -1q-19 -111 -104 -178q-85 -66 -208 -67l-14 -73q57 1 88 -20.5t31 -62.5q0 -35 -28.5 -56t-71.5 -21q-57 0 -100 28l4 7q42 -27 96 -27q39 0 65.5 19t26.5 50q0 75 -106 75q-12 0 -15 -1l15 82q-154 0 -253 101q-99 102 -99 281q0 180 97 280q98 102 252 102
q130 0 219 -73q90 -72 103 -193l-8 -1q-12 118 -100 188q-89 71 -214 71q-152 0 -246 -99q-95 -100 -95 -275t97 -275q98 -99 247 -99q123 0 209 63q84 64 104 175z" />
    <glyph glyph-name="Egrave" unicode="&#xc8;" horiz-adv-x="579" 
d="M166 919l175 -124h-14l-177 124h16zM549 748v-8h-431v-346h387v-8h-387v-378h431v-8h-439v748h439z" />
    <glyph glyph-name="Eacute" unicode="&#xc9;" horiz-adv-x="579" 
d="M517 919l-177 -124h-14l175 124h16zM549 748v-8h-431v-346h387v-8h-387v-378h431v-8h-439v748h439z" />
    <glyph glyph-name="Ecircumflex" unicode="&#xca;" horiz-adv-x="579" 
d="M336 916l123 -121h-11l-114 110l-114 -110h-11l123 121h4zM549 748v-8h-431v-346h387v-8h-387v-378h431v-8h-439v748h439z" />
    <glyph glyph-name="Edieresis" unicode="&#xcb;" horiz-adv-x="579" 
d="M305 855q0 -15 -16 -15t-16 15q0 16 16 16t16 -16zM382 871q15 0 15 -16q0 -15 -15 -15q-17 0 -17 15q0 7 5 11.5t12 4.5zM549 748v-8h-431v-346h387v-8h-387v-378h431v-8h-439v748h439z" />
    <glyph glyph-name="Igrave" unicode="&#xcc;" horiz-adv-x="228" 
d="M-54 919l175 -124h-14l-177 124h16zM118 748v-748h-8v748h8z" />
    <glyph glyph-name="Iacute" unicode="&#xcd;" horiz-adv-x="228" 
d="M297 919l-177 -124h-14l175 124h16zM118 748v-748h-8v748h8z" />
    <glyph glyph-name="Icircumflex" unicode="&#xce;" horiz-adv-x="228" 
d="M116 916l123 -121h-11l-114 110l-114 -110h-11l123 121h4zM118 748v-748h-8v748h8z" />
    <glyph glyph-name="Idieresis" unicode="&#xcf;" horiz-adv-x="228" 
d="M85 855q0 -15 -16 -15t-16 15q0 16 16 16t16 -16zM162 871q15 0 15 -16q0 -15 -15 -15q-17 0 -17 15q0 7 5 11.5t12 4.5zM118 748v-748h-8v748h8z" />
    <glyph glyph-name="Eth" unicode="&#xd0;" horiz-adv-x="778" 
d="M133 378v370h271q151 0 248 -100q97 -98 97 -274q0 -173 -99 -274q-97 -100 -249 -100h-268v370h-137v8h137zM141 370v-362h260q148 0 244 98q96 97 96 268q0 170 -95 268t-242 98h-263v-362h203v-8h-203z" />
    <glyph glyph-name="Ntilde" unicode="&#xd1;" horiz-adv-x="731" 
d="M295 904q31 0 72 -35q43 -35 69 -35t42 18t17 45h8q-1 -31 -19.5 -51t-47.5 -20q-30 0 -73 35q-41 35 -68 35q-26 0 -42 -18t-17 -45h-8q1 31 19.5 51t47.5 20zM621 748v-748h-6l-497 730v-730h-8v748h5l498 -730v730h8z" />
    <glyph glyph-name="Ograve" unicode="&#xd2;" horiz-adv-x="854" 
d="M241 919l175 -124h-14l-177 124h16zM170 653q103 103 257 103t257 -103t103 -279q0 -175 -104 -279q-103 -103 -256 -103q-154 0 -257 103t-103 279t103 279zM75 374q0 -172 101 -273t251 -101t251 101t101 273t-101 273t-251 101t-251 -101t-101 -273z" />
    <glyph glyph-name="Oacute" unicode="&#xd3;" horiz-adv-x="854" 
d="M592 919l-177 -124h-14l175 124h16zM170 653q103 103 257 103t257 -103t103 -279q0 -175 -104 -279q-103 -103 -256 -103q-154 0 -257 103t-103 279t103 279zM75 374q0 -172 101 -273t251 -101t251 101t101 273t-101 273t-251 101t-251 -101t-101 -273z" />
    <glyph glyph-name="Ocircumflex" unicode="&#xd4;" horiz-adv-x="854" 
d="M411 916l123 -121h-11l-114 110l-114 -110h-11l123 121h4zM170 653q103 103 257 103t257 -103t103 -279q0 -175 -104 -279q-103 -103 -256 -103q-154 0 -257 103t-103 279t103 279zM75 374q0 -172 101 -273t251 -101t251 101t101 273t-101 273t-251 101t-251 -101
t-101 -273z" />
    <glyph glyph-name="Otilde" unicode="&#xd5;" horiz-adv-x="854" 
d="M338 904q31 0 72 -35q43 -35 69 -35t42 18t17 45h8q-1 -31 -19.5 -51t-47.5 -20q-30 0 -73 35q-41 35 -68 35q-26 0 -42 -18t-17 -45h-8q1 31 19.5 51t47.5 20zM170 653q103 103 257 103t257 -103t103 -279q0 -175 -104 -279q-103 -103 -256 -103q-154 0 -257 103
t-103 279t103 279zM75 374q0 -172 101 -273t251 -101t251 101t101 273t-101 273t-251 101t-251 -101t-101 -273z" />
    <glyph glyph-name="Odieresis" unicode="&#xd6;" horiz-adv-x="854" 
d="M380 855q0 -15 -16 -15t-16 15q0 16 16 16t16 -16zM457 871q15 0 15 -16q0 -15 -15 -15q-17 0 -17 15q0 7 5 11.5t12 4.5zM170 653q103 103 257 103t257 -103t103 -279q0 -175 -104 -279q-103 -103 -256 -103q-154 0 -257 103t-103 279t103 279zM75 374q0 -172 101 -273
t251 -101t251 101t101 273t-101 273t-251 101t-251 -101t-101 -273z" />
    <glyph glyph-name="multiply" unicode="&#xd7;" horiz-adv-x="491" 
d="M421 548l5 -6l-174 -174l179 -179l-6 -6l-179 179l-181 -181l-5 6l181 181l-179 179l5 5l179 -179z" />
    <glyph glyph-name="Oslash" unicode="&#xd8;" horiz-adv-x="818" 
d="M702 767l6 -5l-59 -78q138 -105 138 -310q0 -175 -104 -279q-103 -103 -256 -103q-143 0 -240 87l-73 -96l-6 5l73 96q-114 106 -114 290q0 176 103 279t257 103q124 0 215 -67zM75 374q0 -180 111 -283l451 591q-91 66 -210 66q-150 0 -251 -101t-101 -273zM427 0
q150 0 251 101t101 273q0 200 -136 304l-451 -592q98 -86 235 -86z" />
    <glyph glyph-name="Ugrave" unicode="&#xd9;" horiz-adv-x="747" 
d="M204 919l175 -124h-14l-177 124h16zM636 748h8v-498q0 -124 -72.5 -191t-199.5 -67q-126 0 -197.5 67t-71.5 191v498h8v-498q0 -121 69 -185.5t192 -64.5q124 0 194 64.5t70 185.5v498z" />
    <glyph glyph-name="Uacute" unicode="&#xda;" horiz-adv-x="747" 
d="M555 919l-177 -124h-14l175 124h16zM636 748h8v-498q0 -124 -72.5 -191t-199.5 -67q-126 0 -197.5 67t-71.5 191v498h8v-498q0 -121 69 -185.5t192 -64.5q124 0 194 64.5t70 185.5v498z" />
    <glyph glyph-name="Ucircumflex" unicode="&#xdb;" horiz-adv-x="747" 
d="M374 916l123 -121h-11l-114 110l-114 -110h-11l123 121h4zM636 748h8v-498q0 -124 -72.5 -191t-199.5 -67q-126 0 -197.5 67t-71.5 191v498h8v-498q0 -121 69 -185.5t192 -64.5q124 0 194 64.5t70 185.5v498z" />
    <glyph glyph-name="Udieresis" unicode="&#xdc;" horiz-adv-x="747" 
d="M343 855q0 -15 -16 -15t-16 15q0 16 16 16t16 -16zM420 871q15 0 15 -16q0 -15 -15 -15q-17 0 -17 15q0 7 5 11.5t12 4.5zM636 748h8v-498q0 -124 -72.5 -191t-199.5 -67q-126 0 -197.5 67t-71.5 191v498h8v-498q0 -121 69 -185.5t192 -64.5q124 0 194 64.5t70 185.5v498
z" />
    <glyph glyph-name="Yacute" unicode="&#xdd;" horiz-adv-x="624" 
d="M495 919l-177 -124h-14l175 124h16zM599 748l-283 -408v-340h-8v340l-283 408h10l277 -400l277 400h10z" />
    <glyph glyph-name="Thorn" unicode="&#xde;" horiz-adv-x="606" 
d="M118 748v-117h224q89 0 151 -53t62 -150q0 -98 -62 -151t-151 -53h-224v-224h-8v748h8zM342 623h-224v-391h224q87 0 145 51q60 51 60 145t-60 144q-59 51 -145 51z" />
    <glyph glyph-name="germandbls" unicode="&#xdf;" horiz-adv-x="601" 
d="M277 785q75 0 118.5 -38t43.5 -102q0 -58 -48 -100t-48 -94q0 -48 70 -98q28 -20 45 -34.5t39 -39t33 -55.5t11 -67q0 -77 -50.5 -121t-137.5 -44q-56 0 -94 16l4 7q43 -15 90 -15q82 0 131 42.5t49 114.5q0 90 -70 146q-11 9 -36.5 28.5t-42 34t-29.5 29.5
q-40 51 -5 112q16 26 33 41q48 42 48 97q0 61 -41 96.5t-113 35.5q-73 0 -120 -41q-46 -40 -46 -104v-632h-8v632q0 66 48 110q49 43 126 43z" />
    <glyph glyph-name="agrave" unicode="&#xe0;" horiz-adv-x="522" 
d="M134 781l127 -191h-9l-128 191h10zM255 508q80 0 122 -49t42 -139v-320h-8v151q-17 -78 -70.5 -118.5t-126.5 -40.5q-70 0 -109.5 32.5t-39.5 94.5q0 130 182 141l164 10v50q0 88 -39.5 134t-116.5 46t-122 -49q-45 -48 -45 -112h-8q0 68 47 118q46 51 128 51zM411 230
v32l-164 -10q-174 -11 -174 -133q0 -59 37 -89t104 -30q85 0 140 55q57 55 57 175z" />
    <glyph glyph-name="aacute" unicode="&#xe1;" horiz-adv-x="522" 
d="M388 781l-128 -191h-9l127 191h10zM255 508q80 0 122 -49t42 -139v-320h-8v151q-17 -78 -70.5 -118.5t-126.5 -40.5q-70 0 -109.5 32.5t-39.5 94.5q0 130 182 141l164 10v50q0 88 -39.5 134t-116.5 46t-122 -49q-45 -48 -45 -112h-8q0 68 47 118q46 51 128 51zM411 230
v32l-164 -10q-174 -11 -174 -133q0 -59 37 -89t104 -30q85 0 140 55q57 55 57 175z" />
    <glyph glyph-name="acircumflex" unicode="&#xe2;" horiz-adv-x="522" 
d="M258 751l124 -159h-10l-116 148l-116 -148h-10l124 159h4zM255 508q80 0 122 -49t42 -139v-320h-8v151q-17 -78 -70.5 -118.5t-126.5 -40.5q-70 0 -109.5 32.5t-39.5 94.5q0 130 182 141l164 10v50q0 88 -39.5 134t-116.5 46t-122 -49q-45 -48 -45 -112h-8q0 68 47 118
q46 51 128 51zM411 230v32l-164 -10q-174 -11 -174 -133q0 -59 37 -89t104 -30q85 0 140 55q57 55 57 175z" />
    <glyph glyph-name="atilde" unicode="&#xe3;" horiz-adv-x="522" 
d="M183 703q31 0 72 -35q43 -35 69 -35t42 18t17 45h8q-1 -31 -19.5 -51t-47.5 -20q-30 0 -73 35q-41 35 -68 35q-26 0 -42 -18t-17 -45h-8q1 31 19.5 51t47.5 20zM255 508q80 0 122 -49t42 -139v-320h-8v151q-17 -78 -70.5 -118.5t-126.5 -40.5q-70 0 -109.5 32.5
t-39.5 94.5q0 130 182 141l164 10v50q0 88 -39.5 134t-116.5 46t-122 -49q-45 -48 -45 -112h-8q0 68 47 118q46 51 128 51zM411 230v32l-164 -10q-174 -11 -174 -133q0 -59 37 -89t104 -30q85 0 140 55q57 55 57 175z" />
    <glyph glyph-name="adieresis" unicode="&#xe4;" horiz-adv-x="522" 
d="M221 683q0 -15 -16 -15t-16 15q0 16 16 16t16 -16zM298 699q15 0 15 -16q0 -15 -15 -15q-17 0 -17 15q0 7 5 11.5t12 4.5zM255 508q80 0 122 -49t42 -139v-320h-8v151q-17 -78 -70.5 -118.5t-126.5 -40.5q-70 0 -109.5 32.5t-39.5 94.5q0 130 182 141l164 10v50
q0 88 -39.5 134t-116.5 46t-122 -49q-45 -48 -45 -112h-8q0 68 47 118q46 51 128 51zM411 230v32l-164 -10q-174 -11 -174 -133q0 -59 37 -89t104 -30q85 0 140 55q57 55 57 175z" />
    <glyph glyph-name="aring" unicode="&#xe5;" horiz-adv-x="522" 
d="M256 766q39 0 64.5 -24.5t25.5 -62.5q0 -37 -26 -61.5t-64 -24.5q-39 0 -65.5 24.5t-26.5 61.5q0 38 26.5 62.5t65.5 24.5zM256 758q-36 0 -60 -22.5t-24 -56.5t24 -56t60 -22q35 0 58.5 22t23.5 56t-23.5 56.5t-58.5 22.5zM255 508q80 0 122 -49t42 -139v-320h-8v151
q-17 -78 -70.5 -118.5t-126.5 -40.5q-70 0 -109.5 32.5t-39.5 94.5q0 130 182 141l164 10v50q0 88 -39.5 134t-116.5 46t-122 -49q-45 -48 -45 -112h-8q0 68 47 118q46 51 128 51zM411 230v32l-164 -10q-174 -11 -174 -133q0 -59 37 -89t104 -30q85 0 140 55q57 55 57 175z
" />
    <glyph glyph-name="ae" unicode="&#xe6;" horiz-adv-x="927" 
d="M864 267v-17h-445q0 -117 64 -184q64 -66 163 -66q80 0 134 38t71 105l8 -1q-19 -72 -74 -111t-139 -39q-88 0 -150 51.5t-79 142.5q-11 -96 -65 -145t-136 -49q-70 0 -110.5 32.5t-40.5 94.5q0 130 182 141l164 10v29q0 97 -39.5 149t-116.5 52t-122 -49
q-45 -48 -45 -112h-8q0 68 47 118q46 51 128 51q74 0 116 -48t47 -137q19 87 80 136t147 49q104 0 161 -67q58 -65 58 -174zM645 500q-96 0 -161 -65q-63 -63 -65 -177h438v9q0 103 -56 168t-156 65zM411 230v32l-164 -10q-174 -11 -174 -133q0 -59 38 -89t105 -30
q84 0 139 55q56 56 56 175z" />
    <glyph glyph-name="ccedilla" unicode="&#xe7;" horiz-adv-x="558" 
d="M500 157l8 -1q-14 -76 -66.5 -119t-135.5 -45l-14 -72q57 1 88 -20.5t31 -62.5q0 -35 -28.5 -56t-71.5 -21q-57 0 -100 28l4 7q42 -27 96 -27q39 0 65.5 19t26.5 50q0 75 -106 75q-12 0 -15 -1l16 81q-102 0 -168 68q-65 70 -65 190q0 122 64 189q65 69 167 69
q86 0 144 -49q58 -48 67 -130h-8q-10 79 -65 125t-138 46q-98 0 -161 -67q-62 -67 -62 -183t63 -184q64 -66 162 -66q83 0 136.5 42t65.5 115z" />
    <glyph glyph-name="egrave" unicode="&#xe8;" horiz-adv-x="581" 
d="M304 590h-9l-128 191h10zM518 267v-17h-445q0 -117 64 -184q65 -66 163 -66q80 0 134 38t71 105l8 -1q-19 -72 -74 -111t-139 -39q-100 0 -168 69q-67 68 -67 189q0 122 66 189q66 69 168 69q104 0 161 -67q58 -65 58 -174zM299 500q-96 0 -161 -65q-63 -63 -65 -177h438
v9q0 103 -56 168t-156 65z" />
    <glyph glyph-name="eacute" unicode="&#xe9;" horiz-adv-x="581" 
d="M431 781l-128 -191h-9l127 191h10zM518 267v-17h-445q0 -117 64 -184q65 -66 163 -66q80 0 134 38t71 105l8 -1q-19 -72 -74 -111t-139 -39q-100 0 -168 69q-67 68 -67 189q0 122 66 189q66 69 168 69q104 0 161 -67q58 -65 58 -174zM299 500q-96 0 -161 -65
q-63 -63 -65 -177h438v9q0 103 -56 168t-156 65z" />
    <glyph glyph-name="ecircumflex" unicode="&#xea;" horiz-adv-x="581" 
d="M299 740l-116 -148h-10l124 159h4l124 -159h-10zM518 267v-17h-445q0 -117 64 -184q65 -66 163 -66q80 0 134 38t71 105l8 -1q-19 -72 -74 -111t-139 -39q-100 0 -168 69q-67 68 -67 189q0 122 66 189q66 69 168 69q104 0 161 -67q58 -65 58 -174zM299 500
q-96 0 -161 -65q-63 -63 -65 -177h438v9q0 103 -56 168t-156 65z" />
    <glyph glyph-name="edieresis" unicode="&#xeb;" horiz-adv-x="581" 
d="M232 683q0 16 16 16t16 -16q0 -15 -16 -15t-16 15zM341 668q-17 0 -17 15q0 7 5 11.5t12 4.5q15 0 15 -16q0 -15 -15 -15zM518 267v-17h-445q0 -117 64 -184q65 -66 163 -66q80 0 134 38t71 105l8 -1q-19 -72 -74 -111t-139 -39q-100 0 -168 69q-67 68 -67 189
q0 122 66 189q66 69 168 69q104 0 161 -67q58 -65 58 -174zM299 500q-96 0 -161 -65q-63 -63 -65 -177h438v9q0 103 -56 168t-156 65z" />
    <glyph glyph-name="igrave" unicode="&#xec;" 
d="M-10 781l127 -191h-9l-128 191h10zM115 500v-500h-8v500h8z" />
    <glyph glyph-name="iacute" unicode="&#xed;" 
d="M244 781l-128 -191h-9l127 191h10zM115 500v-500h-8v500h8z" />
    <glyph glyph-name="icircumflex" unicode="&#xee;" 
d="M114 751l124 -159h-10l-116 148l-116 -148h-10l124 159h4zM115 500v-500h-8v500h8z" />
    <glyph glyph-name="idieresis" unicode="&#xef;" 
d="M77 683q0 -15 -16 -15t-16 15q0 16 16 16t16 -16zM154 699q15 0 15 -16q0 -15 -15 -15q-17 0 -17 15q0 7 5 11.5t12 4.5zM115 500v-500h-8v500h8z" />
    <glyph glyph-name="eth" unicode="&#xf0;" horiz-adv-x="600" 
d="M483 781l4 -6l-130 -81q78 -69 118.5 -186t40.5 -268q0 -119 -65 -184q-64 -64 -161 -64q-98 0 -163 66q-64 65 -64 178q0 111 64 178t163 67q78 0 135.5 -43.5t79.5 -116.5q-20 251 -156 368l-132 -82l-5 7l131 81q-92 74 -216 74v8q131 0 223 -78zM290 0q93 0 155 62
q63 61 63 178q0 105 -61 169t-157 64t-158 -65q-61 -64 -61 -172q0 -107 62 -172q61 -64 157 -64z" />
    <glyph glyph-name="ntilde" unicode="&#xf1;" horiz-adv-x="595" 
d="M232 703q31 0 72 -35q43 -35 69 -35t42 18t17 45h8q-1 -31 -19.5 -51t-47.5 -20q-30 0 -73 35q-41 35 -68 35q-26 0 -42 -18t-17 -45h-8q1 31 19.5 51t47.5 20zM304 508q83 0 135 -55q53 -56 53 -140v-313h-8v313q0 81 -51 134t-129 53q-82 0 -136 -56q-53 -56 -53 -131
v-313h-8v500h8v-132q14 57 65 98q52 42 124 42z" />
    <glyph glyph-name="ograve" unicode="&#xf2;" horiz-adv-x="620" 
d="M188 781l127 -191h-9l-128 191h10zM135 438q70 70 175 70t175 -70t70 -188t-70 -188t-175 -70t-175 70t-70 188t70 188zM479 432q-68 68 -169 68q-102 0 -170 -68q-67 -67 -67 -182t67 -182q68 -68 170 -68q101 0 169 68t68 182t-68 182z" />
    <glyph glyph-name="oacute" unicode="&#xf3;" horiz-adv-x="620" 
d="M442 781l-128 -191h-9l127 191h10zM135 438q70 70 175 70t175 -70t70 -188t-70 -188t-175 -70t-175 70t-70 188t70 188zM479 432q-68 68 -169 68q-102 0 -170 -68q-67 -67 -67 -182t67 -182q68 -68 170 -68q101 0 169 68t68 182t-68 182z" />
    <glyph glyph-name="ocircumflex" unicode="&#xf4;" horiz-adv-x="620" 
d="M312 751l124 -159h-10l-116 148l-116 -148h-10l124 159h4zM135 438q70 70 175 70t175 -70t70 -188t-70 -188t-175 -70t-175 70t-70 188t70 188zM479 432q-68 68 -169 68q-102 0 -170 -68q-67 -67 -67 -182t67 -182q68 -68 170 -68q101 0 169 68t68 182t-68 182z" />
    <glyph glyph-name="otilde" unicode="&#xf5;" horiz-adv-x="620" 
d="M237 703q31 0 72 -35q43 -35 69 -35t42 18t17 45h8q-1 -31 -19.5 -51t-47.5 -20q-30 0 -73 35q-41 35 -68 35q-26 0 -42 -18t-17 -45h-8q1 31 19.5 51t47.5 20zM135 438q70 70 175 70t175 -70t70 -188t-70 -188t-175 -70t-175 70t-70 188t70 188zM479 432q-68 68 -169 68
q-102 0 -170 -68q-67 -67 -67 -182t67 -182q68 -68 170 -68q101 0 169 68t68 182t-68 182z" />
    <glyph glyph-name="odieresis" unicode="&#xf6;" horiz-adv-x="620" 
d="M275 683q0 -15 -16 -15t-16 15q0 16 16 16t16 -16zM352 699q15 0 15 -16q0 -15 -15 -15q-17 0 -17 15q0 7 5 11.5t12 4.5zM135 438q70 70 175 70t175 -70t70 -188t-70 -188t-175 -70t-175 70t-70 188t70 188zM479 432q-68 68 -169 68q-102 0 -170 -68q-67 -67 -67 -182
t67 -182q68 -68 170 -68q101 0 169 68t68 182t-68 182z" />
    <glyph glyph-name="divide" unicode="&#xf7;" horiz-adv-x="544" 
d="M272 564q9 0 15 -6t6 -15q0 -8 -6 -14t-15 -6q-8 0 -14 6t-6 14q0 9 6 15t14 6zM509 373v-8h-474v8h474zM272 215q9 0 15 -6t6 -15q0 -8 -6 -14t-15 -6q-8 0 -14 6t-6 14q0 9 6 15t14 6z" />
    <glyph glyph-name="oslash" unicode="&#xf8;" horiz-adv-x="620" 
d="M510 516l6 -5l-45 -60q84 -72 84 -201q0 -118 -70 -188t-175 -70q-87 0 -152 50l-45 -59l-6 5l45 59q-87 72 -87 203q0 118 70 188t175 70q90 0 154 -52zM73 250q0 -128 84 -197l303 397q-62 50 -150 50q-102 0 -170 -68q-67 -67 -67 -182zM310 0q101 0 169 68t68 182
q0 124 -81 195l-303 -397q61 -48 147 -48z" />
    <glyph glyph-name="ugrave" unicode="&#xf9;" horiz-adv-x="576" 
d="M170 781l127 -191h-9l-128 191h10zM469 500v-500h-8v132q-14 -58 -61 -99q-49 -41 -119 -41q-81 0 -130 54q-48 56 -48 141v313h8v-313q0 -84 46.5 -135.5t123.5 -51.5q81 0 130 55q50 56 50 132v313h8z" />
    <glyph glyph-name="uacute" unicode="&#xfa;" horiz-adv-x="576" 
d="M424 781l-128 -191h-9l127 191h10zM469 500v-500h-8v132q-14 -58 -61 -99q-49 -41 -119 -41q-81 0 -130 54q-48 56 -48 141v313h8v-313q0 -84 46.5 -135.5t123.5 -51.5q81 0 130 55q50 56 50 132v313h8z" />
    <glyph glyph-name="ucircumflex" unicode="&#xfb;" horiz-adv-x="576" 
d="M294 751l124 -159h-10l-116 148l-116 -148h-10l124 159h4zM469 500v-500h-8v132q-14 -58 -61 -99q-49 -41 -119 -41q-81 0 -130 54q-48 56 -48 141v313h8v-313q0 -84 46.5 -135.5t123.5 -51.5q81 0 130 55q50 56 50 132v313h8z" />
    <glyph glyph-name="udieresis" unicode="&#xfc;" horiz-adv-x="576" 
d="M257 683q0 -15 -16 -15t-16 15q0 16 16 16t16 -16zM334 699q15 0 15 -16q0 -15 -15 -15q-17 0 -17 15q0 7 5 11.5t12 4.5zM469 500v-500h-8v132q-14 -58 -61 -99q-49 -41 -119 -41q-81 0 -130 54q-48 56 -48 141v313h8v-313q0 -84 46.5 -135.5t123.5 -51.5q81 0 130 55
q50 56 50 132v313h8z" />
    <glyph glyph-name="yacute" unicode="&#xfd;" horiz-adv-x="475" 
d="M368 781l-128 -191h-9l127 191h10zM447 500l-311 -755h-9l106 259l-205 496h9l201 -486l200 486h9z" />
    <glyph glyph-name="thorn" unicode="&#xfe;" horiz-adv-x="636" 
d="M107 777h8v-429q18 77 76.5 118.5t142.5 41.5q104 0 171 -69q68 -68 68 -189q0 -120 -68 -190q-68 -68 -171 -68q-84 0 -142.5 41.5t-76.5 118.5v-407h-8v1032zM334 500q-100 0 -159.5 -60t-59.5 -170v-40q0 -110 59.5 -170t159.5 -60t165 66q66 67 66 184t-66 183
q-64 67 -165 67z" />
    <glyph glyph-name="ydieresis" unicode="&#xff;" horiz-adv-x="475" 
d="M201 683q0 -15 -16 -15t-16 15q0 16 16 16t16 -16zM278 699q15 0 15 -16q0 -15 -15 -15q-17 0 -17 15q0 7 5 11.5t12 4.5zM447 500l-311 -755h-9l106 259l-205 496h9l201 -486l200 486h9z" />
    <glyph glyph-name="Amacron" unicode="&#x100;" horiz-adv-x="663" 
d="M439 868v-8h-215v8h215zM335 748l303 -748h-9l-103 256h-389l-103 -256h-9l302 748h8zM332 736l-192 -472h383z" />
    <glyph glyph-name="amacron" unicode="&#x101;" horiz-adv-x="522" 
d="M363 664v-8h-215v8h215zM255 508q80 0 122 -49t42 -139v-320h-8v151q-17 -78 -70.5 -118.5t-126.5 -40.5q-70 0 -109.5 32.5t-39.5 94.5q0 130 182 141l164 10v50q0 88 -39.5 134t-116.5 46t-122 -49q-45 -48 -45 -112h-8q0 68 47 118q46 51 128 51zM411 230v32l-164 -10
q-174 -11 -174 -133q0 -59 37 -89t104 -30q85 0 140 55q57 55 57 175z" />
    <glyph glyph-name="Abreve" unicode="&#x102;" horiz-adv-x="663" 
d="M442 907h8q0 -42 -32 -66.5t-86 -24.5t-86 24.5t-32 66.5h8q0 -38 30 -60.5t80 -22.5t80 22.5t30 60.5zM335 748l303 -748h-9l-103 256h-389l-103 -256h-9l302 748h8zM332 736l-192 -472h383z" />
    <glyph glyph-name="abreve" unicode="&#x103;" horiz-adv-x="522" 
d="M366 697h8q0 -42 -32 -66.5t-86 -24.5t-86 24.5t-32 66.5h8q0 -38 30 -60.5t80 -22.5t80 22.5t30 60.5zM255 508q80 0 122 -49t42 -139v-320h-8v151q-17 -78 -70.5 -118.5t-126.5 -40.5q-70 0 -109.5 32.5t-39.5 94.5q0 130 182 141l164 10v50q0 88 -39.5 134t-116.5 46
t-122 -49q-45 -48 -45 -112h-8q0 68 47 118q46 51 128 51zM411 230v32l-164 -10q-174 -11 -174 -133q0 -59 37 -89t104 -30q85 0 140 55q57 55 57 175z" />
    <glyph glyph-name="Aogonek" unicode="&#x104;" horiz-adv-x="663" 
d="M651 -161l3 -8q-30 -13 -68 -13q-37 0 -60 18t-23 50q0 36 29.5 64.5t93.5 56.5l-100 249h-389l-103 -256h-9l302 748h8l303 -748h-8q-62 -28 -90.5 -54.5t-28.5 -59.5q-3 -42 45 -55.5t95 8.5zM140 264h383l-191 472z" />
    <glyph glyph-name="aogonek" unicode="&#x105;" horiz-adv-x="522" 
d="M438 -160l3 -8q-32 -13 -68 -13q-37 0 -60 18t-23 50q0 36 29.5 64t91.5 56v144q-17 -78 -70.5 -118.5t-126.5 -40.5q-70 0 -109.5 32.5t-39.5 94.5q0 130 182 141l164 10v50q0 88 -39.5 134t-116.5 46t-122 -49q-45 -48 -45 -112h-8q0 68 47 118q46 51 128 51
q80 0 122 -49t42 -139v-320h-4q-61 -28 -89 -54t-28 -59q-3 -42 45 -55.5t95 8.5zM214 0q85 0 140 55q57 55 57 175v32l-164 -10q-174 -11 -174 -133q0 -59 37 -89t104 -30z" />
    <glyph glyph-name="Cacute" unicode="&#x106;" horiz-adv-x="785" 
d="M588 919l-177 -124h-14l175 124h16zM416 756q130 0 219 -73q90 -72 103 -193l-8 -1q-12 118 -100 188q-89 71 -214 71q-152 0 -246 -99q-95 -100 -95 -275t97 -275q98 -99 247 -99q123 0 209 63q84 64 104 175l8 -1q-19 -114 -107 -180q-86 -65 -214 -65q-154 0 -253 101
q-99 102 -99 281q0 180 97 280q98 102 252 102z" />
    <glyph glyph-name="cacute" unicode="&#x107;" horiz-adv-x="558" 
d="M420 781l-128 -191h-9l127 191h10zM296 508q86 0 144 -49q58 -48 67 -130h-8q-10 79 -65 125t-138 46q-98 0 -161 -67q-62 -67 -62 -183t63 -184q64 -66 162 -66q83 0 136.5 42t65.5 115l8 -1q-14 -78 -69 -121t-141 -43q-102 0 -168 68q-65 70 -65 190q0 122 64 189
q65 69 167 69z" />
    <glyph glyph-name="Ccircumflex" unicode="&#x108;" horiz-adv-x="785" 
d="M407 916l123 -121h-11l-114 110l-114 -110h-11l123 121h4zM416 756q130 0 219 -73q90 -72 103 -193l-8 -1q-12 118 -100 188q-89 71 -214 71q-152 0 -246 -99q-95 -100 -95 -275t97 -275q98 -99 247 -99q123 0 209 63q84 64 104 175l8 -1q-19 -114 -107 -180
q-86 -65 -214 -65q-154 0 -253 101q-99 102 -99 281q0 180 97 280q98 102 252 102z" />
    <glyph glyph-name="ccircumflex" unicode="&#x109;" horiz-adv-x="558" 
d="M290 751l124 -159h-10l-116 148l-116 -148h-10l124 159h4zM296 508q86 0 144 -49q58 -48 67 -130h-8q-10 79 -65 125t-138 46q-98 0 -161 -67q-62 -67 -62 -183t63 -184q64 -66 162 -66q83 0 136.5 42t65.5 115l8 -1q-14 -78 -69 -121t-141 -43q-102 0 -168 68
q-65 70 -65 190q0 122 64 189q65 69 167 69z" />
    <glyph glyph-name="Cdotaccent" unicode="&#x10a;" horiz-adv-x="785" 
d="M392 855q8 8 18.5 4.5t13 -12.5t-5.5 -19q-7 -8 -17.5 -4t-13.5 13t5 18zM416 756q130 0 219 -73q90 -72 103 -193l-8 -1q-12 118 -100 188q-89 71 -214 71q-152 0 -246 -99q-95 -100 -95 -275t97 -275q98 -99 247 -99q123 0 209 63q84 64 104 175l8 -1
q-19 -114 -107 -180q-86 -65 -214 -65q-154 0 -253 101q-99 102 -99 281q0 180 97 280q98 102 252 102z" />
    <glyph glyph-name="cdotaccent" unicode="&#x10b;" horiz-adv-x="558" 
d="M274 692q8 8 18.5 5t13 -12.5t-4.5 -18.5t-17.5 -5t-13.5 13.5t4 17.5zM296 508q86 0 144 -49q58 -48 67 -130h-8q-10 79 -65 125t-138 46q-98 0 -161 -67q-62 -67 -62 -183t63 -184q64 -66 162 -66q83 0 136.5 42t65.5 115l8 -1q-14 -78 -69 -121t-141 -43
q-102 0 -168 68q-65 70 -65 190q0 122 64 189q65 69 167 69z" />
    <glyph glyph-name="Ccaron" unicode="&#x10c;" horiz-adv-x="785" 
d="M530 916l-123 -121h-4l-123 121h11l114 -110l114 110h11zM416 756q130 0 219 -73q90 -72 103 -193l-8 -1q-12 118 -100 188q-89 71 -214 71q-152 0 -246 -99q-95 -100 -95 -275t97 -275q98 -99 247 -99q123 0 209 63q84 64 104 175l8 -1q-19 -114 -107 -180
q-86 -65 -214 -65q-154 0 -253 101q-99 102 -99 281q0 180 97 280q98 102 252 102z" />
    <glyph glyph-name="ccaron" unicode="&#x10d;" horiz-adv-x="558" 
d="M414 748l-124 -159h-4l-124 159h10l116 -148l116 148h10zM296 508q86 0 144 -49q58 -48 67 -130h-8q-10 79 -65 125t-138 46q-98 0 -161 -67q-62 -67 -62 -183t63 -184q64 -66 162 -66q83 0 136.5 42t65.5 115l8 -1q-14 -78 -69 -121t-141 -43q-102 0 -168 68
q-65 70 -65 190q0 122 64 189q65 69 167 69z" />
    <glyph glyph-name="Dcaron" unicode="&#x10e;" horiz-adv-x="793" 
d="M479 916l-123 -121h-4l-123 121h11l114 -110l114 110h11zM110 0v748h271q151 0 248 -100q97 -98 97 -274q0 -173 -99 -274q-97 -100 -249 -100h-268zM381 740h-263v-732h260q148 0 244 98q96 97 96 268q0 170 -95 268t-242 98z" />
    <glyph glyph-name="dcaron" unicode="&#x10f;" horiz-adv-x="674" 
d="M523 348v429h8v-777h-8v152q-18 -77 -76.5 -118.5t-142.5 -41.5q-103 0 -171 68q-68 70 -68 190q0 121 68 189q67 69 171 69q84 0 142.5 -41.5t76.5 -118.5zM639 715q20 0 20 -26q0 -91 -60 -137v9q49 46 44 117h-4q-7 0 -12.5 5.5t-5.5 12.5q0 8 5.5 13.5t12.5 5.5z
M523 230v40q0 110 -59.5 170t-159.5 60t-166 -67q-65 -67 -65 -183t65 -184q66 -66 166 -66t159.5 60t59.5 170z" />
    <glyph glyph-name="Dcroat" unicode="&#x110;" horiz-adv-x="778" 
d="M133 378v370h271q151 0 248 -100q97 -98 97 -274q0 -173 -99 -274q-97 -100 -249 -100h-268v370h-137v8h137zM141 370v-362h260q148 0 244 98q96 97 96 268q0 170 -95 268t-242 98h-263v-362h203v-8h-203z" />
    <glyph glyph-name="dslash" unicode="&#x111;" horiz-adv-x="626" 
d="M627 641v-8h-96v-633h-8v152q-18 -77 -76.5 -118.5t-142.5 -41.5q-103 0 -171 68q-68 70 -68 190q0 121 68 189q67 69 171 69q84 0 142.5 -41.5t76.5 -118.5v285h-111v8h111v136h8v-136h96zM523 230v40q0 110 -59.5 170t-159.5 60t-166 -67q-65 -67 -65 -183t65 -184
q66 -66 166 -66t159.5 60t59.5 170z" />
    <glyph glyph-name="Emacron" unicode="&#x112;" horiz-adv-x="579" 
d="M441 868v-8h-215v8h215zM549 748v-8h-431v-346h387v-8h-387v-378h431v-8h-439v748h439z" />
    <glyph glyph-name="emacron" unicode="&#x113;" horiz-adv-x="581" 
d="M406 664v-8h-215v8h215zM518 267v-17h-445q0 -117 64 -184q65 -66 163 -66q80 0 134 38t71 105l8 -1q-19 -72 -74 -111t-139 -39q-100 0 -168 69q-67 68 -67 189q0 122 66 189q66 69 168 69q104 0 161 -67q58 -65 58 -174zM299 500q-96 0 -161 -65q-63 -63 -65 -177h438
v9q0 103 -56 168t-156 65z" />
    <glyph glyph-name="Ebreve" unicode="&#x114;" horiz-adv-x="579" 
d="M444 907h8q0 -42 -32 -66.5t-86 -24.5t-86 24.5t-32 66.5h8q0 -38 30 -60.5t80 -22.5t80 22.5t30 60.5zM549 748v-8h-431v-346h387v-8h-387v-378h431v-8h-439v748h439z" />
    <glyph glyph-name="ebreve" unicode="&#x115;" horiz-adv-x="581" 
d="M181 697h8q0 -38 30 -60.5t80 -22.5t80 22.5t30 60.5h8q0 -42 -32 -66.5t-86 -24.5t-86 24.5t-32 66.5zM518 267v-17h-445q0 -117 64 -184q65 -66 163 -66q80 0 134 38t71 105l8 -1q-19 -72 -74 -111t-139 -39q-100 0 -168 69q-67 68 -67 189q0 122 66 189q66 69 168 69
q104 0 161 -67q58 -65 58 -174zM299 500q-96 0 -161 -65q-63 -63 -65 -177h438v9q0 103 -56 168t-156 65z" />
    <glyph glyph-name="Edotaccent" unicode="&#x116;" horiz-adv-x="579" 
d="M320 855q14 13 27 0t0 -27q-13 -13 -26.5 0.5t-0.5 26.5zM549 748v-8h-431v-346h387v-8h-387v-378h431v-8h-439v748h439z" />
    <glyph glyph-name="edotaccent" unicode="&#x117;" horiz-adv-x="581" 
d="M312 666q-13 -13 -26 0t0 26t26 0t0 -26zM518 267v-17h-445q0 -117 64 -184q65 -66 163 -66q80 0 134 38t71 105l8 -1q-19 -72 -74 -111t-139 -39q-100 0 -168 69q-67 68 -67 189q0 122 66 189q66 69 168 69q104 0 161 -67q58 -65 58 -174zM299 500q-96 0 -161 -65
q-63 -63 -65 -177h438v9q0 103 -56 168t-156 65z" />
    <glyph glyph-name="Eogonek" unicode="&#x118;" horiz-adv-x="579" 
d="M552 -161l3 -8q-32 -13 -68 -13q-37 0 -60 18t-23 50q0 64 108 114h-402v748h439v-8h-431v-346h387v-8h-387v-378h431v-8h-18q-62 -28 -90.5 -54.5t-28.5 -59.5q-3 -42 45 -55.5t95 8.5z" />
    <glyph glyph-name="eogonek" unicode="&#x119;" horiz-adv-x="581" 
d="M518 267v-17h-445q0 -117 64 -184q65 -66 163 -66q30 0 47 4q62 11 103 47t55 92l8 -1q-16 -60 -58.5 -98t-107.5 -48q-61 -28 -89.5 -54.5t-28.5 -59.5q-3 -42 45 -55.5t95 8.5l3 -8q-30 -13 -68 -13q-37 0 -60 18t-23 50q0 61 101 111l-22 -1q-100 0 -168 69
q-67 68 -67 189q0 122 66 189q66 69 168 69q104 0 161 -67q58 -65 58 -174zM299 500q-96 0 -161 -65q-63 -63 -65 -177h438v9q0 103 -56 168t-156 65z" />
    <glyph glyph-name="Ecaron" unicode="&#x11a;" horiz-adv-x="579" 
d="M459 916l-123 -121h-4l-123 121h11l114 -110l114 110h11zM549 748v-8h-431v-346h387v-8h-387v-378h431v-8h-439v748h439z" />
    <glyph glyph-name="ecaron" unicode="&#x11b;" horiz-adv-x="581" 
d="M301 589h-4l-124 159h10l116 -148l116 148h10zM518 267v-17h-445q0 -117 64 -184q65 -66 163 -66q80 0 134 38t71 105l8 -1q-19 -72 -74 -111t-139 -39q-100 0 -168 69q-67 68 -67 189q0 122 66 189q66 69 168 69q104 0 161 -67q58 -65 58 -174zM299 500q-96 0 -161 -65
q-63 -63 -65 -177h438v9q0 103 -56 168t-156 65z" />
    <glyph glyph-name="Gcircumflex" unicode="&#x11c;" horiz-adv-x="803" 
d="M409 905l-114 -110h-11l123 121h4l123 -121h-11zM418 343h325v-8q0 -165 -89 -254t-241 -89q-151 0 -249 102q-97 101 -97 280q0 180 96 280q97 102 249 102q131 0 223 -74q93 -74 104 -200l-8 -1q-12 123 -102 195t-217 72q-149 0 -243 -100q-94 -98 -94 -274
q0 -174 95 -275q96 -99 243 -99q150 0 235.5 87t86.5 248h-317v8z" />
    <glyph glyph-name="gcircumflex" unicode="&#x11d;" horiz-adv-x="638" 
d="M316 751l124 -159h-10l-116 148l-116 -148h-10l124 159h4zM304 508q84 0 142.5 -41.5t76.5 -118.5v152h8v-542q0 -104 -61 -162q-62 -59 -161 -59q-85 0 -144.5 43.5t-77.5 113.5h9q15 -68 75 -108q61 -41 138 -41q98 0 156 56.5t58 156.5v194q-18 -77 -76.5 -118.5
t-142.5 -41.5q-103 0 -171 68q-68 70 -68 190q0 121 68 189q67 69 171 69zM304 500q-100 0 -166 -67q-65 -67 -65 -183t65 -184q66 -66 166 -66t159.5 60t59.5 170v40q0 110 -59.5 170t-159.5 60z" />
    <glyph glyph-name="Gbreve" unicode="&#x11e;" horiz-adv-x="803" 
d="M291 907h8q0 -38 30 -60.5t80 -22.5t80 22.5t30 60.5h8q0 -42 -32 -66.5t-86 -24.5t-86 24.5t-32 66.5zM418 343h325v-8q0 -165 -89 -254t-241 -89q-151 0 -249 102q-97 101 -97 280q0 180 96 280q97 102 249 102q131 0 223 -74q93 -74 104 -200l-8 -1q-12 123 -102 195
t-217 72q-149 0 -243 -100q-94 -98 -94 -274q0 -174 95 -275q96 -99 243 -99q150 0 235.5 87t86.5 248h-317v8z" />
    <glyph glyph-name="gbreve" unicode="&#x11f;" horiz-adv-x="638" 
d="M424 697h8q0 -42 -32 -66.5t-86 -24.5t-86 24.5t-32 66.5h8q0 -38 30 -60.5t80 -22.5t80 22.5t30 60.5zM304 508q84 0 142.5 -41.5t76.5 -118.5v152h8v-542q0 -104 -61 -162q-62 -59 -161 -59q-85 0 -144.5 43.5t-77.5 113.5h9q15 -68 75 -108q61 -41 138 -41
q98 0 156 56.5t58 156.5v194q-18 -77 -76.5 -118.5t-142.5 -41.5q-103 0 -171 68q-68 70 -68 190q0 121 68 189q67 69 171 69zM304 500q-100 0 -166 -67q-65 -67 -65 -183t65 -184q66 -66 166 -66t159.5 60t59.5 170v40q0 110 -59.5 170t-159.5 60z" />
    <glyph glyph-name="Gdotaccent" unicode="&#x120;" horiz-adv-x="803" 
d="M422 828q-7 -8 -17.5 -4t-13.5 13t5 18q8 8 18.5 4.5t13 -12.5t-5.5 -19zM418 343h325v-8q0 -165 -89 -254t-241 -89q-151 0 -249 102q-97 101 -97 280q0 180 96 280q97 102 249 102q131 0 223 -74q93 -74 104 -200l-8 -1q-12 123 -102 195t-217 72q-149 0 -243 -100
q-94 -98 -94 -274q0 -174 95 -275q96 -99 243 -99q150 0 235.5 87t86.5 248h-317v8z" />
    <glyph glyph-name="gdotaccent" unicode="&#x121;" horiz-adv-x="638" 
d="M300 692q8 8 18.5 5t13 -12.5t-4.5 -18.5t-17.5 -5t-13.5 13.5t4 17.5zM304 508q84 0 142.5 -41.5t76.5 -118.5v152h8v-542q0 -104 -61 -162q-62 -59 -161 -59q-85 0 -144.5 43.5t-77.5 113.5h9q15 -68 75 -108q61 -41 138 -41q98 0 156 56.5t58 156.5v194
q-18 -77 -76.5 -118.5t-142.5 -41.5q-103 0 -171 68q-68 70 -68 190q0 121 68 189q67 69 171 69zM304 500q-100 0 -166 -67q-65 -67 -65 -183t65 -184q66 -66 166 -66t159.5 60t59.5 170v40q0 110 -59.5 170t-159.5 60z" />
    <glyph glyph-name="Gcommaaccent" unicode="&#x122;" horiz-adv-x="803" 
d="M418 343h325v-8q0 -165 -89 -254t-241 -89q-151 0 -249 102q-97 101 -97 280q0 180 96 280q97 102 249 102q131 0 223 -74q93 -74 104 -200l-8 -1q-12 123 -102 195t-217 72q-149 0 -243 -100q-94 -98 -94 -274q0 -174 95 -275q96 -99 243 -99q150 0 235.5 87t86.5 248
h-317v8zM409 -44q20 0 20 -26q0 -90 -60 -137v9q49 46 44 117h-4q-7 0 -12.5 5.5t-5.5 12.5q0 8 5.5 13.5t12.5 5.5z" />
    <glyph glyph-name="gcommaaccent" unicode="&#x123;" horiz-adv-x="638" 
d="M347 731q0 -91 -60 -137v9q49 46 44 117h-4q-7 0 -12.5 5.5t-5.5 12.5q0 8 5.5 13.5t12.5 5.5q20 0 20 -26zM523 500h8v-542q0 -104 -61 -162q-62 -59 -161 -59q-85 0 -144.5 43.5t-77.5 113.5h9q15 -68 75 -108q61 -41 138 -41q98 0 156 56.5t58 156.5v194
q-18 -77 -76.5 -118.5t-142.5 -41.5q-103 0 -171 68q-68 70 -68 190q0 121 68 189q67 69 171 69q84 0 142.5 -41.5t76.5 -118.5v152zM523 230v40q0 110 -59.5 170t-159.5 60t-166 -67q-65 -67 -65 -183t65 -184q66 -66 166 -66t159.5 60t59.5 170z" />
    <glyph glyph-name="Hcircumflex" unicode="&#x124;" horiz-adv-x="741" 
d="M372 916l123 -121h-11l-114 110l-114 -110h-11l123 121h4zM631 748v-748h-8v389h-505v-389h-8v748h8v-351h505v351h8z" />
    <glyph glyph-name="hcircumflex" unicode="&#x125;" horiz-adv-x="585" 
d="M113 914l123 -121h-11l-114 110l-114 -110h-11l123 121h4zM107 777h8v-409q14 57 65 98q52 42 124 42q83 0 135 -55q53 -56 53 -140v-313h-8v313q0 81 -51 134t-129 53q-82 0 -136 -56q-53 -56 -53 -131v-313h-8v777z" />
    <glyph glyph-name="Hbar" unicode="&#x126;" horiz-adv-x="741" 
d="M736 573v-8h-105v-565h-8v389h-505v-389h-8v565h-105v8h105v175h8v-175h505v175h8v-175h105zM623 397v168h-505v-168h505z" />
    <glyph glyph-name="hbar" unicode="&#x127;" horiz-adv-x="585" 
d="M304 508q83 0 135 -55q53 -56 53 -140v-313h-8v313q0 81 -51 134t-129 53q-82 0 -136 -56q-53 -56 -53 -131v-313h-8v633h-99v8h99v136h8v-136h108v-8h-108v-265q14 57 65 98q52 42 124 42z" />
    <glyph glyph-name="Itilde" unicode="&#x128;" horiz-adv-x="228" 
d="M43 904q31 0 72 -35q43 -35 69 -35t42 18t17 45h8q-1 -31 -19.5 -51t-47.5 -20q-30 0 -73 35q-41 35 -68 35q-26 0 -42 -18t-17 -45h-8q1 31 19.5 51t47.5 20zM118 748v-748h-8v748h8z" />
    <glyph glyph-name="itilde" unicode="&#x129;" 
d="M39 703q31 0 72 -35q43 -35 69 -35t42 18t17 45h8q-1 -31 -19.5 -51t-47.5 -20q-30 0 -73 35q-41 35 -68 35q-26 0 -42 -18t-17 -45h-8q1 31 19.5 51t47.5 20zM115 500v-500h-8v500h8z" />
    <glyph glyph-name="Imacron" unicode="&#x12a;" horiz-adv-x="228" 
d="M221 868v-8h-215v8h215zM118 748v-748h-8v748h8z" />
    <glyph glyph-name="imacron" unicode="&#x12b;" 
d="M219 664v-8h-215v8h215zM115 500v-500h-8v500h8z" />
    <glyph glyph-name="Ibreve" unicode="&#x12c;" horiz-adv-x="228" 
d="M224 907h8q0 -42 -32 -66.5t-86 -24.5t-86 24.5t-32 66.5h8q0 -38 30 -60.5t80 -22.5t80 22.5t30 60.5zM118 748v-748h-8v748h8z" />
    <glyph glyph-name="ibreve" unicode="&#x12d;" 
d="M222 697h8q0 -42 -32 -66.5t-86 -24.5t-86 24.5t-32 66.5h8q0 -38 30 -60.5t80 -22.5t80 22.5t30 60.5zM115 500v-500h-8v500h8z" />
    <glyph glyph-name="Iogonek" unicode="&#x12e;" horiz-adv-x="228" 
d="M136 -160l3 -8q-32 -13 -68 -13q-37 0 -60 18t-23 50q0 36 29.5 64t92.5 56v741h8v-748h-5q-61 -28 -89 -54t-28 -59q-3 -42 45 -55.5t95 8.5z" />
    <glyph glyph-name="iogonek" unicode="&#x12f;" 
d="M125 666q-7 -9 -17.5 -5t-13.5 13.5t4 17.5q8 8 18.5 5t13 -12.5t-4.5 -18.5zM134 -160l3 -8q-30 -13 -68 -13q-37 0 -60 18t-23 50q0 36 29.5 64t91.5 56v493h8v-500h-4q-61 -28 -89 -54t-28 -59q-3 -42 45 -55.5t95 8.5z" />
    <glyph glyph-name="Idot" unicode="&#x130;" horiz-adv-x="228" 
d="M100 855q14 13 27 0t0 -27q-13 -13 -26.5 0.5t-0.5 26.5zM118 748v-748h-8v748h8z" />
    <glyph glyph-name="dotlessi" unicode="&#x131;" 
d="M115 500v-500h-8v500h8z" />
    <glyph glyph-name="Jcircumflex" unicode="&#x134;" horiz-adv-x="533" 
d="M428 916l123 -121h-11l-114 110l-114 -110h-11l123 121h4zM422 748h8v-549q0 -99 -51.5 -153t-142.5 -54q-93 0 -147.5 56t-58.5 152h8q4 -94 57 -147t141 -53t137 52t49 147v549z" />
    <glyph glyph-name="jcircumflex" unicode="&#x135;" 
d="M114 751l124 -159h-10l-116 148l-116 -148h-10l124 159h4zM108 500h8v-609q0 -148 -122 -148q-2 0 -24 2v8q22 -2 24 -2q114 0 114 140v609z" />
    <glyph glyph-name="Kcommaaccent" unicode="&#x136;" horiz-adv-x="616" 
d="M212 418l374 -418h-11l-369 412l-88 -90v-322h-8v748h8v-416l406 416h11zM319 -39q20 0 20 -26q0 -91 -60 -137v9q49 46 44 117h-4q-7 0 -12.5 5.5t-5.5 12.5q0 8 5.5 13.5t12.5 5.5z" />
    <glyph glyph-name="kcommaaccent" unicode="&#x137;" horiz-adv-x="478" 
d="M186 279l274 -279h-11l-269 274l-65 -60v-214h-8v777h8v-552l299 275h12zM266 -39q20 0 20 -26q0 -91 -60 -137v9q49 46 44 117h-4q-7 0 -12.5 5.5t-5.5 12.5q0 8 5.5 13.5t12.5 5.5z" />
    <glyph glyph-name="Lacute" unicode="&#x139;" horiz-adv-x="591" 
d="M298 919l-177 -124h-14l175 124h16zM118 748v-740h439v-8h-447v748h8z" />
    <glyph glyph-name="lacute" unicode="&#x13a;" horiz-adv-x="222" 
d="M294 928l-177 -124h-14l175 124h16zM115 777v-777h-8v777h8z" />
    <glyph glyph-name="Lcommaaccent" unicode="&#x13b;" horiz-adv-x="591" 
d="M118 8h439v-8h-447v748h8v-740zM341 -39q20 0 20 -26q0 -91 -60 -137v9q49 46 44 117h-4q-7 0 -12.5 5.5t-5.5 12.5q0 8 5.5 13.5t12.5 5.5z" />
    <glyph glyph-name="lcommaaccent" unicode="&#x13c;" horiz-adv-x="222" 
d="M115 777v-777h-8v777h8zM110 -39q20 0 20 -26q0 -91 -60 -137v9q49 46 44 117h-4q-7 0 -12.5 5.5t-5.5 12.5q0 8 5.5 13.5t12.5 5.5z" />
    <glyph glyph-name="Lcaron" unicode="&#x13d;" horiz-adv-x="591" 
d="M118 8h439v-8h-447v748h8v-740zM543 689q0 -91 -60 -137v9q49 46 44 117h-4q-7 0 -12.5 5.5t-5.5 12.5q0 8 5.5 13.5t12.5 5.5q20 0 20 -26z" />
    <glyph glyph-name="lcaron" unicode="&#x13e;" horiz-adv-x="269" 
d="M107 0v777h8v-777h-8zM234 715q20 0 20 -26q0 -91 -60 -137v9q49 46 44 117h-4q-7 0 -12.5 5.5t-5.5 12.5q0 8 5.5 13.5t12.5 5.5z" />
    <glyph glyph-name="Ldot" unicode="&#x13f;" horiz-adv-x="591" 
d="M118 748v-740h439v-8h-447v748h8zM415 369q9 0 15 -6t6 -15q0 -8 -6 -14t-15 -6q-8 0 -14 6t-6 14q0 9 6 15t14 6z" />
    <glyph glyph-name="ldot" unicode="&#x140;" horiz-adv-x="287" 
d="M115 777v-777h-8v777h8zM241 279q9 0 15 -6t6 -15q0 -8 -6 -14t-15 -6q-8 0 -14 6t-6 14q0 9 6 15t14 6z" />
    <glyph glyph-name="Lslash" unicode="&#x141;" horiz-adv-x="601" 
d="M132 8h439v-8h-447v270l-124 -62l-3 7l127 63v470h8v-466l142 71l4 -7l-146 -72v-266z" />
    <glyph glyph-name="lslash" unicode="&#x142;" horiz-adv-x="241" 
d="M251 354l-126 -64v-290h-8v285l-124 -63l-3 7l127 65v483h8v-479l122 63z" />
    <glyph glyph-name="Nacute" unicode="&#x143;" horiz-adv-x="731" 
d="M549 919l-177 -124h-14l175 124h16zM621 748v-748h-6l-497 730v-730h-8v748h5l498 -730v730h8z" />
    <glyph glyph-name="nacute" unicode="&#x144;" horiz-adv-x="595" 
d="M437 781l-128 -191h-9l127 191h10zM304 508q83 0 135 -55q53 -56 53 -140v-313h-8v313q0 81 -51 134t-129 53q-82 0 -136 -56q-53 -56 -53 -131v-313h-8v500h8v-132q14 57 65 98q52 42 124 42z" />
    <glyph glyph-name="Ncommaaccent" unicode="&#x145;" horiz-adv-x="731" 
d="M613 748h8v-748h-6l-497 730v-730h-8v748h5l498 -730v730zM365 -39q20 0 20 -26q0 -91 -60 -137v9q49 46 44 117h-4q-7 0 -12.5 5.5t-5.5 12.5q0 8 5.5 13.5t12.5 5.5z" />
    <glyph glyph-name="ncommaaccent" unicode="&#x146;" horiz-adv-x="595" 
d="M304 508q83 0 135 -55q53 -56 53 -140v-313h-8v313q0 81 -51 134t-129 53q-82 0 -136 -56q-53 -56 -53 -131v-313h-8v500h8v-132q14 57 65 98q52 42 124 42zM306 -39q20 0 20 -26q0 -91 -60 -137v9q49 46 44 117h-4q-7 0 -12.5 5.5t-5.5 12.5q0 8 5.5 13.5t12.5 5.5z" />
    <glyph glyph-name="Ncaron" unicode="&#x147;" horiz-adv-x="731" 
d="M491 916l-123 -121h-4l-123 121h11l114 -110l114 110h11zM621 748v-748h-6l-497 730v-730h-8v748h5l498 -730v730h8z" />
    <glyph glyph-name="ncaron" unicode="&#x148;" horiz-adv-x="595" 
d="M431 748l-124 -159h-4l-124 159h10l116 -148l116 148h10zM304 508q83 0 135 -55q53 -56 53 -140v-313h-8v313q0 81 -51 134t-129 53q-82 0 -136 -56q-53 -56 -53 -131v-313h-8v500h8v-132q14 57 65 98q52 42 124 42z" />
    <glyph glyph-name="Eng" unicode="&#x14a;" horiz-adv-x="731" 
d="M613 748h8v-796q0 -99 -51.5 -153t-142.5 -54v8q88 0 137 52t49 147v51l-495 727v-730h-8v748h5l498 -730v730z" />
    <glyph glyph-name="eng" unicode="&#x14b;" horiz-adv-x="595" 
d="M304 508q83 0 135 -55q53 -56 53 -140v-422q0 -148 -122 -148v8q114 0 114 140v422q0 81 -51 134t-129 53q-82 0 -136 -56q-53 -56 -53 -131v-313h-8v500h8v-132q14 57 65 98q52 42 124 42z" />
    <glyph glyph-name="Omacron" unicode="&#x14c;" horiz-adv-x="854" 
d="M516 868v-8h-215v8h215zM170 653q103 103 257 103t257 -103t103 -279q0 -175 -104 -279q-103 -103 -256 -103q-154 0 -257 103t-103 279t103 279zM75 374q0 -172 101 -273t251 -101t251 101t101 273t-101 273t-251 101t-251 -101t-101 -273z" />
    <glyph glyph-name="omacron" unicode="&#x14d;" horiz-adv-x="620" 
d="M417 664v-8h-215v8h215zM135 438q70 70 175 70t175 -70t70 -188t-70 -188t-175 -70t-175 70t-70 188t70 188zM479 432q-68 68 -169 68q-102 0 -170 -68q-67 -67 -67 -182t67 -182q68 -68 170 -68q101 0 169 68t68 182t-68 182z" />
    <glyph glyph-name="Obreve" unicode="&#x14e;" horiz-adv-x="854" 
d="M519 907h8q0 -42 -32 -66.5t-86 -24.5t-86 24.5t-32 66.5h8q0 -38 30 -60.5t80 -22.5t80 22.5t30 60.5zM170 653q103 103 257 103t257 -103t103 -279q0 -175 -104 -279q-103 -103 -256 -103q-154 0 -257 103t-103 279t103 279zM75 374q0 -172 101 -273t251 -101t251 101
t101 273t-101 273t-251 101t-251 -101t-101 -273z" />
    <glyph glyph-name="obreve" unicode="&#x14f;" horiz-adv-x="620" 
d="M420 697h8q0 -42 -32 -66.5t-86 -24.5t-86 24.5t-32 66.5h8q0 -38 30 -60.5t80 -22.5t80 22.5t30 60.5zM135 438q70 70 175 70t175 -70t70 -188t-70 -188t-175 -70t-175 70t-70 188t70 188zM479 432q-68 68 -169 68q-102 0 -170 -68q-67 -67 -67 -182t67 -182
q68 -68 170 -68q101 0 169 68t68 182t-68 182z" />
    <glyph glyph-name="Ohungarumlaut" unicode="&#x150;" horiz-adv-x="854" 
d="M404 918l-59 -120h-9l58 120h10zM532 918l-59 -120h-9l58 120h10zM170 653q103 103 257 103t257 -103t103 -279q0 -175 -104 -279q-103 -103 -256 -103q-154 0 -257 103t-103 279t103 279zM75 374q0 -172 101 -273t251 -101t251 101t101 273t-101 273t-251 101t-251 -101
t-101 -273z" />
    <glyph glyph-name="ohungarumlaut" unicode="&#x151;" horiz-adv-x="620" 
d="M307 738l-63 -128h-9l63 128h9zM435 738l-63 -128h-9l63 128h9zM135 438q70 70 175 70t175 -70t70 -188t-70 -188t-175 -70t-175 70t-70 188t70 188zM479 432q-68 68 -169 68q-102 0 -170 -68q-67 -67 -67 -182t67 -182q68 -68 170 -68q101 0 169 68t68 182t-68 182z" />
    <glyph glyph-name="OE" unicode="&#x152;" horiz-adv-x="1248" 
d="M1218 740h-431v-346h387v-8h-387v-378h431v-8h-439v285q-26 -137 -123 -215q-98 -78 -229 -78q-154 0 -257 103t-103 279t103 279t257 103q131 0 229 -78q97 -76 123 -214v284h439v-8zM779 374q0 172 -101 273t-251 101t-251 -101t-101 -273t101 -273t251 -101t251 101
t101 273z" />
    <glyph glyph-name="oe" unicode="&#x153;" horiz-adv-x="1063" 
d="M1000 267v-17h-445q0 -117 64 -184q65 -66 163 -66q80 0 134 38t71 105l8 -1q-19 -72 -74 -111t-139 -39q-88 0 -153 54q-63 54 -78 151q-15 -95 -82 -150t-159 -55q-105 0 -175 70t-70 188t70 188t175 70q91 0 158 -55q66 -55 83 -150q14 96 76.5 150.5t153.5 54.5
q104 0 161 -67q58 -65 58 -174zM140 68q68 -68 170 -68q101 0 169 68t68 182t-68 182t-169 68q-102 0 -170 -68q-67 -67 -67 -182t67 -182zM781 500q-96 0 -161 -65q-63 -63 -65 -177h438v9q0 103 -56 168t-156 65z" />
    <glyph glyph-name="Racute" unicode="&#x154;" horiz-adv-x="659" 
d="M492 919l-177 -124h-14l175 124h16zM613 0h-9l-200 344q-17 -4 -46 -4h-240v-340h-8v748h248q91 0 152 -52q61 -51 61 -152q0 -83 -42.5 -133.5t-115.5 -65.5zM118 740v-392h240q88 0 146 49q59 50 59 147t-59 147q-58 49 -146 49h-240z" />
    <glyph glyph-name="racute" unicode="&#x155;" horiz-adv-x="290" 
d="M291 781l-128 -191h-9l127 191h10zM275 508v-8q-72 0 -116 -50t-44 -117v-333h-8v500h8v-112q12 51 55.5 85.5t104.5 34.5z" />
    <glyph glyph-name="Rcommaaccent" unicode="&#x156;" horiz-adv-x="659" 
d="M613 0h-9l-200 344q-17 -4 -46 -4h-240v-340h-8v748h248q91 0 152 -52q61 -51 61 -152q0 -83 -42.5 -133.5t-115.5 -65.5zM118 740v-392h240q88 0 146 49q59 50 59 147t-59 147q-58 49 -146 49h-240zM344 -39q20 0 20 -26q0 -91 -60 -137v9q49 46 44 117h-4
q-7 0 -12.5 5.5t-5.5 12.5q0 8 5.5 13.5t12.5 5.5z" />
    <glyph glyph-name="rcommaaccent" unicode="&#x157;" horiz-adv-x="290" 
d="M107 500h8v-112q12 51 55.5 85.5t104.5 34.5v-8q-72 0 -116 -50t-44 -117v-333h-8v500zM113 -39q20 0 20 -26q0 -91 -60 -137v9q49 46 44 117h-4q-7 0 -12.5 5.5t-5.5 12.5q0 8 5.5 13.5t12.5 5.5z" />
    <glyph glyph-name="Rcaron" unicode="&#x158;" horiz-adv-x="659" 
d="M311 795h-4l-123 121h11l114 -110l114 110h11zM613 0h-9l-200 344q-17 -4 -46 -4h-240v-340h-8v748h248q91 0 152 -52q61 -51 61 -152q0 -83 -42.5 -133.5t-115.5 -65.5zM118 740v-392h240q88 0 146 49q59 50 59 147t-59 147q-58 49 -146 49h-240z" />
    <glyph glyph-name="rcaron" unicode="&#x159;" horiz-adv-x="290" 
d="M285 748l-124 -159h-4l-124 159h10l116 -148l116 148h10zM275 508v-8q-72 0 -116 -50t-44 -117v-333h-8v500h8v-112q12 51 55.5 85.5t104.5 34.5z" />
    <glyph glyph-name="Sacute" unicode="&#x15a;" horiz-adv-x="645" 
d="M506 919l-177 -124h-14l175 124h16zM325 756q97 0 160.5 -47.5t71.5 -131.5l-8 -1q-8 81 -68 126.5t-156 45.5q-108 0 -168.5 -50.5t-60.5 -131.5q4 -83 51 -119q38 -27 78 -39l47 -13l53 -12q80 -18 114 -28q44 -13 79 -34q37 -21 53 -52t16 -80q0 -97 -71 -147
t-181 -50q-106 0 -182 50q-74 50 -83 138l8 1q10 -83 81 -132q70 -49 176 -49q109 0 176 48q68 48 68 141q0 70 -42 110q-20 18 -53 31q-41 16 -65 22q-59 15 -82 20l-14 3q-53 11 -76 18t-62 23q-36 15 -54 33q-43 45 -43 117q0 82 61 136q62 54 176 54z" />
    <glyph glyph-name="sacute" unicode="&#x15b;" horiz-adv-x="490" 
d="M369 781l-128 -191h-9l127 191h10zM237 507q68 1 108 -31t50 -93l-8 -1q-8 56 -47 87t-103 30q-73 1 -112 -32.5t-39 -91.5q-1 -55 43 -80q22 -10 37 -14l21 -6q4 -1 24.5 -5t24.5 -5q96 -21 137 -48q40 -25 40 -87q0 -67 -46 -102.5t-123 -35.5q-73 0 -119.5 32.5
t-58.5 94.5l8 1q11 -59 55.5 -89.5t114.5 -30.5q75 0 118 33t43 97q0 57 -38 81q-37 25 -133 46l-27 6l-28 6l-23 6q-18 4 -23 8q-1 1 -16 10.5t-18 14.5q-24 34 -21 67q0 62 41 97.5t118 34.5z" />
    <glyph glyph-name="Scircumflex" unicode="&#x15c;" horiz-adv-x="645" 
d="M325 916l123 -121h-11l-114 110l-114 -110h-11l123 121h4zM325 756q97 0 160.5 -47.5t71.5 -131.5l-8 -1q-8 81 -68 126.5t-156 45.5q-108 0 -168.5 -50.5t-60.5 -131.5q4 -83 51 -119q38 -27 78 -39l47 -13l53 -12q80 -18 114 -28q44 -13 79 -34q37 -21 53 -52t16 -80
q0 -97 -71 -147t-181 -50q-106 0 -182 50q-74 50 -83 138l8 1q10 -83 81 -132q70 -49 176 -49q109 0 176 48q68 48 68 141q0 70 -42 110q-20 18 -53 31q-41 16 -65 22q-59 15 -82 20l-14 3q-53 11 -76 18t-62 23q-36 15 -54 33q-43 45 -43 117q0 82 61 136q62 54 176 54z
" />
    <glyph glyph-name="scircumflex" unicode="&#x15d;" horiz-adv-x="490" 
d="M239 751l124 -159h-10l-116 148l-116 -148h-10l124 159h4zM237 507q68 1 108 -31t50 -93l-8 -1q-8 56 -47 87t-103 30q-73 1 -112 -32.5t-39 -91.5q-1 -55 43 -80q22 -10 37 -14l21 -6q4 -1 24.5 -5t24.5 -5q96 -21 137 -48q40 -25 40 -87q0 -67 -46 -102.5t-123 -35.5
q-73 0 -119.5 32.5t-58.5 94.5l8 1q11 -59 55.5 -89.5t114.5 -30.5q75 0 118 33t43 97q0 57 -38 81q-37 25 -133 46l-27 6l-28 6l-23 6q-18 4 -23 8q-1 1 -16 10.5t-18 14.5q-24 34 -21 67q0 62 41 97.5t118 34.5z" />
    <glyph glyph-name="Scedilla" unicode="&#x15e;" horiz-adv-x="645" 
d="M587 189q0 -97 -69 -146q-68 -49 -177 -51l-14 -73q57 1 88 -20.5t31 -62.5q0 -35 -28.5 -56t-71.5 -21q-57 0 -100 28l4 7q42 -27 96 -27q39 0 65.5 19t26.5 50q0 75 -106 75q-12 0 -15 -1l16 82q-107 2 -180 51q-74 50 -83 137l8 1q10 -83 81 -132q70 -49 176 -49
q109 0 176 48q68 48 68 141q0 70 -42 110q-20 18 -53 31q-41 16 -65 22q-59 15 -82 20l-14 3q-53 11 -76 18t-62 23q-36 15 -54 33q-43 45 -43 117q0 82 61 136q62 54 176 54q97 0 160.5 -47.5t71.5 -131.5l-8 -1q-8 81 -68 126.5t-156 45.5q-108 0 -168.5 -50.5
t-60.5 -131.5q4 -83 51 -119q38 -27 78 -39l47 -13l53 -12q80 -18 114 -28q44 -13 79 -34q37 -21 53 -52t16 -80z" />
    <glyph glyph-name="scedilla" unicode="&#x15f;" horiz-adv-x="490" 
d="M413 130q0 -65 -44.5 -101t-119.5 -37l-14 -73q57 1 88 -20.5t31 -62.5q0 -35 -28.5 -56t-71.5 -21q-57 0 -100 28l4 7q42 -27 96 -27q39 0 65.5 19t26.5 50q0 75 -106 75q-12 0 -15 -1l16 82q-71 1 -117 33.5t-58 93.5l8 1q11 -59 55.5 -89.5t114.5 -30.5q75 0 118 33
t43 97q0 57 -38 81q-37 25 -133 46l-27 6l-28 6l-23 6q-18 4 -23 8q-1 1 -16 10.5t-18 14.5q-24 34 -21 67q0 62 41 97.5t118 34.5q68 1 108 -31t50 -93l-8 -1q-8 56 -47 87t-103 30q-73 1 -112 -32.5t-39 -91.5q-1 -55 43 -80q22 -10 37 -14l21 -6q4 -1 24.5 -5t24.5 -5
q96 -21 137 -48q40 -25 40 -87z" />
    <glyph glyph-name="Scaron" unicode="&#x160;" horiz-adv-x="645" 
d="M448 916l-123 -121h-4l-123 121h11l114 -110l114 110h11zM325 756q97 0 160.5 -47.5t71.5 -131.5l-8 -1q-8 81 -68 126.5t-156 45.5q-108 0 -168.5 -50.5t-60.5 -131.5q4 -83 51 -119q38 -27 78 -39l47 -13l53 -12q80 -18 114 -28q44 -13 79 -34q37 -21 53 -52t16 -80
q0 -97 -71 -147t-181 -50q-106 0 -182 50q-74 50 -83 138l8 1q10 -83 81 -132q70 -49 176 -49q109 0 176 48q68 48 68 141q0 70 -42 110q-20 18 -53 31q-41 16 -65 22q-59 15 -82 20l-14 3q-53 11 -76 18t-62 23q-36 15 -54 33q-43 45 -43 117q0 82 61 136q62 54 176 54z
" />
    <glyph glyph-name="scaron" unicode="&#x161;" horiz-adv-x="490" 
d="M363 748l-124 -159h-4l-124 159h10l116 -148l116 148h10zM237 507q68 1 108 -31t50 -93l-8 -1q-8 56 -47 87t-103 30q-73 1 -112 -32.5t-39 -91.5q-1 -55 43 -80q22 -10 37 -14l21 -6q4 -1 24.5 -5t24.5 -5q96 -21 137 -48q40 -25 40 -87q0 -67 -46 -102.5t-123 -35.5
q-73 0 -119.5 32.5t-58.5 94.5l8 1q11 -59 55.5 -89.5t114.5 -30.5q75 0 118 33t43 97q0 57 -38 81q-37 25 -133 46l-27 6l-28 6l-23 6q-18 4 -23 8q-1 1 -16 10.5t-18 14.5q-24 34 -21 67q0 62 41 97.5t118 34.5z" />
    <glyph glyph-name="Tcaron" unicode="&#x164;" horiz-adv-x="668" 
d="M459 916l-123 -121h-4l-123 121h11l114 -110l114 110h11zM653 748v-8h-315v-740h-8v740h-315v8h638z" />
    <glyph glyph-name="tcaron" unicode="&#x165;" horiz-adv-x="416" 
d="M381 715q20 0 20 -26q0 -91 -60 -137v9q49 46 44 117h-4q-7 0 -12.5 5.5t-5.5 12.5q0 8 5.5 13.5t12.5 5.5zM278 492h-159l-1 -353q0 -134 107 -134q29 0 55 6v-9q-20 -5 -55 -5q-115 0 -115 142l1 353h-96v8h96l1 183h8l-1 -183h159v-8z" />
    <glyph glyph-name="Tbar" unicode="&#x166;" horiz-adv-x="668" 
d="M653 740h-315v-350h164v-8h-164v-382h-8v382h-164v8h164v350h-315v8h638v-8z" />
    <glyph glyph-name="tbar" unicode="&#x167;" horiz-adv-x="295" 
d="M225 5q29 0 55 6v-9q-20 -5 -55 -5q-115 0 -115 142v134h-95v8h96v211h-96v8h96l1 183h8l-1 -183h159v-8h-159v-211h159v-8h-160v-134q0 -134 107 -134z" />
    <glyph glyph-name="Utilde" unicode="&#x168;" horiz-adv-x="747" 
d="M301 904q31 0 72 -35q43 -35 69 -35t42 18t17 45h8q-1 -31 -19.5 -51t-47.5 -20q-30 0 -73 35q-41 35 -68 35q-26 0 -42 -18t-17 -45h-8q1 31 19.5 51t47.5 20zM636 748h8v-498q0 -124 -72.5 -191t-199.5 -67q-126 0 -197.5 67t-71.5 191v498h8v-498q0 -121 69 -185.5
t192 -64.5q124 0 194 64.5t70 185.5v498z" />
    <glyph glyph-name="utilde" unicode="&#x169;" horiz-adv-x="576" 
d="M219 703q31 0 72 -35q43 -35 69 -35t42 18t17 45h8q-1 -31 -19.5 -51t-47.5 -20q-30 0 -73 35q-41 35 -68 35q-26 0 -42 -18t-17 -45h-8q1 31 19.5 51t47.5 20zM469 500v-500h-8v132q-14 -58 -61 -99q-49 -41 -119 -41q-81 0 -130 54q-48 56 -48 141v313h8v-313
q0 -84 46.5 -135.5t123.5 -51.5q81 0 130 55q50 56 50 132v313h8z" />
    <glyph glyph-name="Umacron" unicode="&#x16a;" horiz-adv-x="747" 
d="M479 868v-8h-215v8h215zM636 748h8v-498q0 -124 -72.5 -191t-199.5 -67q-126 0 -197.5 67t-71.5 191v498h8v-498q0 -121 69 -185.5t192 -64.5q124 0 194 64.5t70 185.5v498z" />
    <glyph glyph-name="umacron" unicode="&#x16b;" horiz-adv-x="576" 
d="M399 664v-8h-215v8h215zM469 500v-500h-8v132q-14 -58 -61 -99q-49 -41 -119 -41q-81 0 -130 54q-48 56 -48 141v313h8v-313q0 -84 46.5 -135.5t123.5 -51.5q81 0 130 55q50 56 50 132v313h8z" />
    <glyph glyph-name="Ubreve" unicode="&#x16c;" horiz-adv-x="747" 
d="M482 907h8q0 -42 -32 -66.5t-86 -24.5t-86 24.5t-32 66.5h8q0 -38 30 -60.5t80 -22.5t80 22.5t30 60.5zM636 748h8v-498q0 -124 -72.5 -191t-199.5 -67q-126 0 -197.5 67t-71.5 191v498h8v-498q0 -121 69 -185.5t192 -64.5q124 0 194 64.5t70 185.5v498z" />
    <glyph glyph-name="ubreve" unicode="&#x16d;" horiz-adv-x="576" 
d="M402 697h8q0 -42 -32 -66.5t-86 -24.5t-86 24.5t-32 66.5h8q0 -38 30 -60.5t80 -22.5t80 22.5t30 60.5zM469 500v-500h-8v132q-14 -58 -61 -99q-49 -41 -119 -41q-81 0 -130 54q-48 56 -48 141v313h8v-313q0 -84 46.5 -135.5t123.5 -51.5q81 0 130 55q50 56 50 132v313h8
z" />
    <glyph glyph-name="Uring" unicode="&#x16e;" horiz-adv-x="747" 
d="M309 939q26 24 63 24t62 -24q26 -24 26 -61t-26 -61q-25 -24 -62 -24t-63 24q-25 24 -25 61t25 61zM428 933q-23 22 -56 22t-57 -22q-23 -22 -23 -55t23 -55q24 -22 57 -22t56 22q24 22 24 55t-24 55zM636 748h8v-498q0 -124 -72.5 -191t-199.5 -67q-126 0 -197.5 67
t-71.5 191v498h8v-498q0 -121 69 -185.5t192 -64.5q124 0 194 64.5t70 185.5v498z" />
    <glyph glyph-name="uring" unicode="&#x16f;" horiz-adv-x="576" 
d="M292 766q39 0 64.5 -24.5t25.5 -62.5q0 -37 -26 -61.5t-64 -24.5q-39 0 -65.5 24.5t-26.5 61.5q0 38 26.5 62.5t65.5 24.5zM292 758q-36 0 -60 -22.5t-24 -56.5t24 -56t60 -22q35 0 58.5 22t23.5 56t-23.5 56.5t-58.5 22.5zM469 500v-500h-8v132q-14 -58 -61 -99
q-49 -41 -119 -41q-81 0 -130 54q-48 56 -48 141v313h8v-313q0 -84 46.5 -135.5t123.5 -51.5q81 0 130 55q50 56 50 132v313h8z" />
    <glyph glyph-name="Uhungarumlaut" unicode="&#x170;" horiz-adv-x="747" 
d="M367 918l-59 -120h-9l58 120h10zM495 918l-59 -120h-9l58 120h10zM636 748h8v-498q0 -124 -72.5 -191t-199.5 -67q-126 0 -197.5 67t-71.5 191v498h8v-498q0 -121 69 -185.5t192 -64.5q124 0 194 64.5t70 185.5v498z" />
    <glyph glyph-name="uhungarumlaut" unicode="&#x171;" horiz-adv-x="576" 
d="M289 738l-63 -128h-9l63 128h9zM417 738l-63 -128h-9l63 128h9zM469 500v-500h-8v132q-14 -58 -61 -99q-49 -41 -119 -41q-81 0 -130 54q-48 56 -48 141v313h8v-313q0 -84 46.5 -135.5t123.5 -51.5q81 0 130 55q50 56 50 132v313h8z" />
    <glyph glyph-name="Uogonek" unicode="&#x172;" horiz-adv-x="747" 
d="M636 748h8v-498q0 -101 -49 -164.5t-138 -84.5q-62 -28 -90.5 -54.5t-28.5 -59.5q-3 -42 45 -55.5t95 8.5l3 -8q-32 -13 -68 -13q-37 0 -60 18t-23 50q0 62 97 108q-27 -3 -55 -3q-126 0 -197.5 67t-71.5 191v498h8v-498q0 -121 69 -185.5t192 -64.5q45 0 84 9
q86 19 133 80.5t47 160.5v498z" />
    <glyph glyph-name="uogonek" unicode="&#x173;" horiz-adv-x="576" 
d="M488 -161l3 -8q-32 -13 -68 -13q-37 0 -60 18t-23 50q0 36 29.5 64t91.5 56v126q-14 -58 -61 -99q-49 -41 -119 -41q-81 0 -130 54q-48 56 -48 141v313h8v-313q0 -84 46.5 -135.5t123.5 -51.5q81 0 130 55q50 56 50 132v313h8v-500h-2q-62 -28 -90.5 -54.5t-28.5 -59.5
q-3 -42 45 -55.5t95 8.5z" />
    <glyph glyph-name="Wcircumflex" unicode="&#x174;" horiz-adv-x="1110" 
d="M557 916l123 -121h-11l-114 110l-114 -110h-11l123 121h4zM1079 748l-262 -748h-7l-255 730l-255 -730h-7l-262 748h9l257 -734l255 734h6l256 -734l256 734h9z" />
    <glyph glyph-name="wcircumflex" unicode="&#x175;" horiz-adv-x="786" 
d="M395 751l124 -159h-10l-116 148l-116 -148h-10l124 159h4zM768 500l-188 -500h-6l-181 485l-181 -485h-6l-188 500h9l182 -484l181 484h6l181 -484l182 484h9z" />
    <glyph glyph-name="Ycircumflex" unicode="&#x176;" horiz-adv-x="624" 
d="M314 916l123 -121h-11l-114 110l-114 -110h-11l123 121h4zM599 748l-283 -408v-340h-8v340l-283 408h10l277 -400l277 400h10z" />
    <glyph glyph-name="ycircumflex" unicode="&#x177;" horiz-adv-x="475" 
d="M238 751l124 -159h-10l-116 148l-116 -148h-10l124 159h4zM447 500l-311 -755h-9l106 259l-205 496h9l201 -486l200 486h9z" />
    <glyph glyph-name="Ydieresis" unicode="&#x178;" horiz-adv-x="624" 
d="M283 855q0 -15 -16 -15t-16 15q0 16 16 16t16 -16zM360 871q15 0 15 -16q0 -15 -15 -15q-17 0 -17 15q0 7 5 11.5t12 4.5zM599 748l-283 -408v-340h-8v340l-283 408h10l277 -400l277 400h10z" />
    <glyph glyph-name="Zacute" unicode="&#x179;" horiz-adv-x="607" 
d="M487 919l-177 -124h-14l175 124h16zM567 748v-6l-519 -734h525v-8h-536v6l519 734h-494v8h505z" />
    <glyph glyph-name="zacute" unicode="&#x17a;" horiz-adv-x="438" 
d="M351 781l-128 -191h-9l127 191h10zM393 500v-6l-349 -486h366v-8h-378v6l350 486h-342v8h353z" />
    <glyph glyph-name="Zdotaccent" unicode="&#x17b;" horiz-adv-x="607" 
d="M290 855q14 13 27 0t0 -27q-13 -13 -26.5 0.5t-0.5 26.5zM567 748v-6l-519 -734h525v-8h-536v6l519 734h-494v8h505z" />
    <glyph glyph-name="zdotaccent" unicode="&#x17c;" horiz-adv-x="438" 
d="M206 692q13 13 26 0t0 -26t-26 0t0 26zM393 500v-6l-349 -486h366v-8h-378v6l350 486h-342v8h353z" />
    <glyph glyph-name="Zcaron" unicode="&#x17d;" horiz-adv-x="607" 
d="M429 916l-123 -121h-4l-123 121h11l114 -110l114 110h11zM567 748v-6l-519 -734h525v-8h-536v6l519 734h-494v8h505z" />
    <glyph glyph-name="zcaron" unicode="&#x17e;" horiz-adv-x="438" 
d="M345 748l-124 -159h-4l-124 159h10l116 -148l116 148h10zM393 500v-6l-349 -486h366v-8h-378v6l350 486h-342v8h353z" />
    <glyph glyph-name="florin" unicode="&#x192;" horiz-adv-x="415" 
d="M303 777q-48 0 -75.5 -29t-38.5 -93l-27 -155h186v-8h-188l-111 -634h-8l111 634h-127v8h129l27 156q12 68 41.5 98.5t80.5 30.5q66 0 116 -47l-6 -7q-47 46 -110 46z" />
    <glyph glyph-name="Aringacute" unicode="&#x1fa;" horiz-adv-x="663" 
d="M244 857q0 50 44 74l155 110h16l-143 -100q3 1 16 1q36 0 62 -24t26 -61t-26 -61q-18 -19 -45 -23t-51 5t-40 30.5t-14 48.5zM388 912q-23 22 -56 22t-57 -22q-23 -22 -23 -55t23 -55q24 -22 57 -22t56 22q24 22 24 55t-24 55zM335 748l303 -748h-9l-103 256h-389
l-103 -256h-9l302 748h8zM140 264h383l-191 472z" />
    <glyph glyph-name="aringacute" unicode="&#x1fb;" horiz-adv-x="522" 
d="M166 677q0 50 44 74l155 110h16l-143 -100q3 1 16 1q37 0 62 -24q26 -24 26 -61t-26 -61q-18 -19 -45 -23t-51 5t-40 30.5t-14 48.5zM310 732q-23 22 -56 22t-57 -22q-23 -22 -23 -55t23 -55q24 -22 57 -22t56 22q24 22 24 55t-24 55zM255 508q80 0 122 -49t42 -139v-320
h-8v151q-17 -78 -70.5 -118.5t-126.5 -40.5q-70 0 -109.5 32.5t-39.5 94.5q0 130 182 141l164 10v50q0 88 -39.5 134t-116.5 46t-122 -49q-45 -48 -45 -112h-8q0 68 47 118q46 51 128 51zM411 230v32l-164 -10q-174 -11 -174 -133q0 -59 37 -89t104 -30q85 0 140 55
q57 55 57 175z" />
    <glyph glyph-name="AEacute" unicode="&#x1fc;" horiz-adv-x="975" 
d="M818 919l-177 -124h-14l175 124h16zM945 740h-431v-346h387v-8h-387v-378h431v-8h-439v256h-313l-168 -256h-10l491 748h439v-8zM198 264h308v469z" />
    <glyph glyph-name="aeacute" unicode="&#x1fd;" horiz-adv-x="927" 
d="M578 781l-128 -191h-9l127 191h10zM864 267v-17h-445q0 -117 64 -184q64 -66 163 -66q80 0 134 38t71 105l8 -1q-19 -72 -74 -111t-139 -39q-88 0 -150 51.5t-79 142.5q-11 -96 -65 -145t-136 -49q-70 0 -110.5 32.5t-40.5 94.5q0 130 182 141l164 10v29q0 97 -39.5 149
t-116.5 52t-122 -49q-45 -48 -45 -112h-8q0 68 47 118q46 51 128 51q74 0 116 -48t47 -137q19 87 80 136t147 49q104 0 161 -67q58 -65 58 -174zM645 500q-96 0 -161 -65q-63 -63 -65 -177h438v9q0 103 -56 168t-156 65zM411 230v32l-164 -10q-174 -11 -174 -133
q0 -59 38 -89t105 -30q84 0 139 55q56 56 56 175z" />
    <glyph glyph-name="Oslashacute" unicode="&#x1fe;" horiz-adv-x="818" 
d="M592 919l-177 -124h-14l175 124h16zM702 767l6 -5l-59 -78q138 -105 138 -310q0 -175 -104 -279q-103 -103 -256 -103q-143 0 -240 87l-73 -96l-6 5l73 96q-114 106 -114 290q0 176 103 279t257 103q124 0 215 -67zM75 374q0 -180 111 -283l451 591q-91 66 -210 66
q-150 0 -251 -101t-101 -273zM427 0q150 0 251 101t101 273q0 200 -136 304l-451 -592q98 -86 235 -86z" />
    <glyph glyph-name="oslashacute" unicode="&#x1ff;" horiz-adv-x="620" 
d="M442 781l-128 -191h-9l127 191h10zM510 516l6 -5l-45 -60q84 -72 84 -201q0 -118 -70 -188t-175 -70q-87 0 -152 50l-45 -59l-6 5l45 59q-87 72 -87 203q0 118 70 188t175 70q90 0 154 -52zM73 250q0 -128 84 -197l303 397q-62 50 -150 50q-102 0 -170 -68
q-67 -67 -67 -182zM310 0q101 0 169 68t68 182q0 124 -81 195l-303 -397q61 -48 147 -48z" />
    <glyph glyph-name="Scommaaccent" unicode="&#x218;" horiz-adv-x="645" 
d="M272 395l53 -12q80 -18 114 -28q44 -13 79 -34q37 -21 53 -52t16 -80q0 -97 -71 -147t-181 -50q-106 0 -182 50q-74 50 -83 138l8 1q10 -83 81 -132q70 -49 176 -49q109 0 176 48q68 48 68 141q0 70 -42 110q-20 18 -53 31q-41 16 -65 22q-59 15 -82 20l-14 3
q-53 11 -76 18t-62 23q-36 15 -54 33q-43 45 -43 117q0 82 61 136q62 54 176 54q97 0 160.5 -47.5t71.5 -131.5l-8 -1q-8 81 -68 126.5t-156 45.5q-108 0 -168.5 -50.5t-60.5 -131.5q4 -83 51 -119q38 -27 78 -39zM335 -44q20 0 20 -26q0 -90 -60 -137v9q49 46 44 117h-4
q-7 0 -12.5 5.5t-5.5 12.5q0 8 5.5 13.5t12.5 5.5z" />
    <glyph glyph-name="scommaaccent" unicode="&#x219;" horiz-adv-x="490" 
d="M236 265q96 -21 137 -48q40 -25 40 -87q0 -67 -46 -102.5t-123 -35.5q-73 0 -119.5 32.5t-58.5 94.5l8 1q11 -59 55.5 -89.5t114.5 -30.5q75 0 118 33t43 97q0 57 -38 81q-37 25 -133 46l-27 6l-28 6l-23 6q-18 4 -23 8q-1 1 -16 10.5t-18 14.5q-24 34 -21 67
q0 62 41 97.5t118 34.5q68 1 108 -31t50 -93l-8 -1q-8 56 -47 87t-103 30q-73 1 -112 -32.5t-39 -91.5q-1 -55 43 -80q22 -10 37 -14l21 -6q4 -1 24.5 -5t24.5 -5zM243 -44q20 0 20 -26q0 -90 -60 -137v9q49 46 44 117h-4q-7 0 -12.5 5.5t-5.5 12.5q0 8 5.5 13.5t12.5 5.5z
" />
    <glyph glyph-name="uni021A" unicode="&#x21a;" horiz-adv-x="668" 
d="M15 748h638v-8h-315v-740h-8v740h-315v8zM333 -39q20 0 20 -26q0 -91 -60 -137v9q49 46 44 117h-4q-7 0 -12.5 5.5t-5.5 12.5q0 8 5.5 13.5t12.5 5.5z" />
    <glyph glyph-name="uni021B" unicode="&#x21b;" horiz-adv-x="295" 
d="M225 5q29 0 55 6v-9q-20 -5 -55 -5q-115 0 -115 142l1 353h-96v8h96l1 183h8l-1 -183h159v-8h-159l-1 -353q0 -134 107 -134zM183 -47q20 0 20 -26q0 -90 -60 -137v9q49 46 44 117h-4q-7 0 -12.5 5.5t-5.5 12.5q0 8 5.5 13.5t12.5 5.5z" />
    <glyph glyph-name="dotlessj" unicode="&#x237;" 
d="M108 500h8v-609q0 -148 -122 -148q-2 0 -24 2v8q22 -2 24 -2q114 0 114 140v609z" />
    <glyph glyph-name="circumflex" unicode="&#x2c6;" horiz-adv-x="304" 
d="M154 751l124 -159h-10l-116 148l-116 -148h-10l124 159h4z" />
    <glyph glyph-name="caron" unicode="&#x2c7;" horiz-adv-x="304" 
d="M278 748l-124 -159h-4l-124 159h10l116 -148l116 148h10z" />
    <glyph glyph-name="breve" unicode="&#x2d8;" horiz-adv-x="302" 
d="M261 697h8q0 -42 -32 -66.5t-86 -24.5t-86 24.5t-32 66.5h8q0 -38 30 -60.5t80 -22.5t80 22.5t30 60.5z" />
    <glyph glyph-name="dotaccent" unicode="&#x2d9;" horiz-adv-x="102" 
d="M38 692q13 13 26 0t0 -26t-26 0t0 26z" />
    <glyph glyph-name="ring" unicode="&#x2da;" horiz-adv-x="244" 
d="M123 766q39 0 64.5 -24.5t25.5 -62.5q0 -37 -26 -61.5t-64 -24.5q-39 0 -65.5 24.5t-26.5 61.5q0 38 26.5 62.5t65.5 24.5zM123 758q-36 0 -60 -22.5t-24 -56.5t24 -56t60 -22q35 0 58.5 22t23.5 56t-23.5 56.5t-58.5 22.5z" />
    <glyph glyph-name="ogonek" unicode="&#x2db;" horiz-adv-x="227" 
d="M173 11l1 -8q-62 -28 -90.5 -54.5t-28.5 -59.5q-3 -42 45 -55.5t95 8.5l3 -8q-32 -13 -68 -13q-37 0 -60 18t-23 50q0 36 30.5 65t95.5 57z" />
    <glyph glyph-name="tilde" unicode="&#x2dc;" horiz-adv-x="331" 
d="M95 703q31 0 72 -35q43 -35 69 -35t42 18t17 45h8q-1 -31 -19.5 -51t-47.5 -20q-30 0 -73 35q-41 35 -68 35q-26 0 -42 -18t-17 -45h-8q1 31 19.5 51t47.5 20z" />
    <glyph glyph-name="hungarumlaut" unicode="&#x2dd;" horiz-adv-x="254" 
d="M101 738l-63 -128h-9l63 128h9zM229 738l-63 -128h-9l63 128h9z" />
    <glyph glyph-name="uni0326" unicode="&#x326;" horiz-adv-x="0" 
d="M73 -39q20 0 20 -26q0 -91 -60 -137v9q49 46 44 117h-4q-7 0 -12.5 5.5t-5.5 12.5q0 8 5.5 13.5t12.5 5.5z" />
    <glyph glyph-name="Omega" unicode="&#x3a9;" horiz-adv-x="764" 
d="M696 368q0 -79 -34 -156q-31 -71 -65.5 -116t-82.5 -88h225v-8h-241v6q67 53 129 152q61 97 61 210q0 147 -81 240t-225 93t-225 -93t-81 -240q0 -113 61 -210q62 -99 129 -152v-6h-241v8h225q-57 48 -115 137q-67 102 -67 223q0 152 82 246q83 95 232 95q148 0 231 -95
t83 -246z" />
    <glyph glyph-name="mu" unicode="&#x3bc;" horiz-adv-x="580" 
d="M465 500h8v-500h-8v132q-14 -58 -61 -99q-49 -41 -119 -41q-63 0 -108.5 35.5t-61.5 95.5v-378h-8v755h8v-313q0 -84 46.5 -135.5t123.5 -51.5q81 0 130 55q50 56 50 132v313z" />
    <glyph glyph-name="pi" unicode="&#x3c0;" horiz-adv-x="579" 
d="M537 516l7 -5q-23 -34 -48.5 -50t-64.5 -16h-37l-45 -366q-5 -40 8 -58q11 -20 48 -19t72 29l5 -7q-39 -30 -77 -30q-75 0 -64 87l45 364h-165l-32 -252q-15 -113 -53 -193h-10q38 74 55 197l32 248h-64q-55 0 -105 -37l-5 6q54 39 109 39h284q66 0 105 63z" />
    <glyph glyph-name="Wgrave" unicode="&#x1e80;" horiz-adv-x="1110" 
d="M387 919l175 -124h-14l-177 124h16zM1079 748l-262 -748h-7l-255 730l-255 -730h-7l-262 748h9l257 -734l255 734h6l256 -734l256 734h9z" />
    <glyph glyph-name="wgrave" unicode="&#x1e81;" horiz-adv-x="786" 
d="M271 781l127 -191h-9l-128 191h10zM768 500l-188 -500h-6l-181 485l-181 -485h-6l-188 500h9l182 -484l181 484h6l181 -484l182 484h9z" />
    <glyph glyph-name="Wacute" unicode="&#x1e82;" horiz-adv-x="1110" 
d="M738 919l-177 -124h-14l175 124h16zM1079 748l-262 -748h-7l-255 730l-255 -730h-7l-262 748h9l257 -734l255 734h6l256 -734l256 734h9z" />
    <glyph glyph-name="wacute" unicode="&#x1e83;" horiz-adv-x="786" 
d="M525 781l-128 -191h-9l127 191h10zM768 500l-188 -500h-6l-181 485l-181 -485h-6l-188 500h9l182 -484l181 484h6l181 -484l182 484h9z" />
    <glyph glyph-name="Wdieresis" unicode="&#x1e84;" horiz-adv-x="1110" 
d="M526 855q0 -15 -16 -15t-16 15q0 16 16 16t16 -16zM603 871q15 0 15 -16q0 -15 -15 -15q-17 0 -17 15q0 7 5 11.5t12 4.5zM1079 748l-262 -748h-7l-255 730l-255 -730h-7l-262 748h9l257 -734l255 734h6l256 -734l256 734h9z" />
    <glyph glyph-name="wdieresis" unicode="&#x1e85;" horiz-adv-x="786" 
d="M358 683q0 -15 -16 -15t-16 15q0 16 16 16t16 -16zM435 699q15 0 15 -16q0 -15 -15 -15q-17 0 -17 15q0 7 5 11.5t12 4.5zM768 500l-188 -500h-6l-181 485l-181 -485h-6l-188 500h9l182 -484l181 484h6l181 -484l182 484h9z" />
    <glyph glyph-name="Ygrave" unicode="&#x1ef2;" horiz-adv-x="624" 
d="M144 919l175 -124h-14l-177 124h16zM599 748l-283 -408v-340h-8v340l-283 408h10l277 -400l277 400h10z" />
    <glyph glyph-name="ygrave" unicode="&#x1ef3;" horiz-adv-x="475" 
d="M114 781l127 -191h-9l-128 191h10zM447 500l-311 -755h-9l106 259l-205 496h9l201 -486l200 486h9z" />
    <glyph glyph-name="endash" unicode="&#x2013;" horiz-adv-x="558" 
d="M513 265v-8h-468v8h468z" />
    <glyph glyph-name="emdash" unicode="&#x2014;" horiz-adv-x="790" 
d="M745 265v-8h-700v8h700z" />
    <glyph glyph-name="quoteleft" unicode="&#x2018;" horiz-adv-x="127" 
d="M44 578q0 90 60 137v-9q-49 -46 -44 -117h4q7 0 12.5 -5.5t5.5 -12.5q0 -8 -5.5 -13.5t-12.5 -5.5q-20 0 -20 26z" />
    <glyph glyph-name="quoteright" unicode="&#x2019;" horiz-adv-x="127" 
d="M63 715q20 0 20 -26q0 -91 -60 -137v9q49 46 44 117h-4q-7 0 -12.5 5.5t-5.5 12.5q0 8 5.5 13.5t12.5 5.5z" />
    <glyph glyph-name="quotesinglbase" unicode="&#x201a;" horiz-adv-x="127" 
d="M63 31q20 0 20 -26q0 -91 -60 -137v9q49 46 44 117h-4q-7 0 -12.5 5.5t-5.5 12.5q0 8 5.5 13.5t12.5 5.5z" />
    <glyph glyph-name="quotedblleft" unicode="&#x201c;" horiz-adv-x="238" 
d="M34 578q0 90 60 137v-9q-49 -46 -44 -117h4q7 0 12.5 -5.5t5.5 -12.5q0 -8 -5.5 -13.5t-12.5 -5.5q-20 0 -20 26zM145 578q0 90 60 137v-9q-49 -46 -44 -117h4q7 0 12.5 -5.5t5.5 -12.5q0 -8 -5.5 -13.5t-12.5 -5.5q-20 0 -20 26z" />
    <glyph glyph-name="quotedblright" unicode="&#x201d;" horiz-adv-x="238" 
d="M53 715q20 0 20 -26q0 -91 -60 -137v9q49 46 44 117h-4q-7 0 -12.5 5.5t-5.5 12.5q0 8 5.5 13.5t12.5 5.5zM164 715q20 0 20 -26q0 -91 -60 -137v9q49 46 44 117h-4q-7 0 -12.5 5.5t-5.5 12.5q0 8 5.5 13.5t12.5 5.5z" />
    <glyph glyph-name="quotedblbase" unicode="&#x201e;" horiz-adv-x="238" 
d="M63 31q20 0 20 -26q0 -91 -60 -137v9q49 46 44 117h-4q-7 0 -12.5 5.5t-5.5 12.5q0 8 5.5 13.5t12.5 5.5zM174 31q20 0 20 -26q0 -91 -60 -137v9q49 46 44 117h-4q-7 0 -12.5 5.5t-5.5 12.5q0 8 5.5 13.5t12.5 5.5z" />
    <glyph glyph-name="dagger" unicode="&#x2020;" horiz-adv-x="438" 
d="M223 748v-226h190v-8h-190v-581h-8v581h-190v8h190v226h8z" />
    <glyph glyph-name="daggerdbl" unicode="&#x2021;" horiz-adv-x="438" 
d="M223 748v-226h190v-8h-190v-347h190v-8h-190v-226h-8v226h-190v8h190v347h-190v8h190v226h8z" />
    <glyph glyph-name="bullet" unicode="&#x2022;" horiz-adv-x="349" 
d="M95 334q33 33 80 33q48 0 79 -33q33 -32 33 -79t-33 -80q-31 -33 -79 -33q-47 0 -80 33t-33 80t33 79z" />
    <glyph glyph-name="ellipsis" unicode="&#x2026;" horiz-adv-x="421" 
d="M73 33q9 0 15 -6t6 -15q0 -8 -6 -14t-15 -6q-8 0 -14 6t-6 14q0 9 6 15t14 6zM210 33q9 0 15 -6t6 -15q0 -8 -6 -14t-15 -6q-8 0 -14 6t-6 14q0 9 6 15t14 6zM347 33q9 0 15 -6t6 -15q0 -8 -6 -14t-15 -6q-8 0 -14 6t-6 14q0 9 6 15t14 6z" />
    <glyph glyph-name="perthousand" unicode="&#x2030;" horiz-adv-x="1143" 
d="M194 756q65 0 105.5 -45t40.5 -120t-41 -120.5t-105 -45.5t-105 45.5t-41 120.5t41 120t105 45zM194 433q61 0 99.5 43t38.5 115t-39 114q-39 43 -99 43t-99 -43q-39 -42 -39 -114q0 -71 39 -114.5t99 -43.5zM677 748l-574 -748h-10l574 748h10zM575 323q65 0 105.5 -45
t40.5 -120t-41 -120.5t-105 -45.5t-105 45.5t-41 120.5t41 120t105 45zM948 323q65 0 105.5 -45t40.5 -120t-41 -120.5t-105 -45.5t-105 45.5t-41 120.5t41 120t105 45zM575 0q61 0 99.5 43t38.5 115t-39 114q-39 43 -99 43t-99 -43q-39 -42 -39 -114q0 -71 39 -114.5
t99 -43.5zM948 0q61 0 99.5 43t38.5 115t-39 114q-39 43 -99 43t-99 -43q-39 -42 -39 -114q0 -71 39 -114.5t99 -43.5z" />
    <glyph glyph-name="guilsinglleft" unicode="&#x2039;" horiz-adv-x="266" 
d="M235 447l6 -6l-213 -193l213 -193l-6 -6l-220 199z" />
    <glyph glyph-name="guilsinglright" unicode="&#x203a;" horiz-adv-x="266" 
d="M31 447l220 -199l-220 -199l-6 6l213 193l-213 193z" />
    <glyph glyph-name="fraction" unicode="&#x2044;" horiz-adv-x="164" 
d="M364 748l-554 -748h-10l554 748h10z" />
    <glyph glyph-name="Euro" unicode="&#x20ac;" horiz-adv-x="706" 
d="M636 73l5 -6q-83 -75 -217 -75q-122 0 -208 77t-110 211h-101l3 8h97q-7 35 -7 85q0 52 7 88h-100l3 8h98q24 134 109 210q86 77 209 77q126 0 207 -66l-4 -8q-79 66 -203 66q-120 0 -203 -75q-83 -76 -107 -204h421l-3 -8h-419q-7 -36 -7 -88q0 -50 7 -85h345l-3 -8
h-341q24 -130 108 -205t202 -75q129 0 212 73z" />
    <glyph glyph-name="trademark" unicode="&#x2122;" horiz-adv-x="864" 
d="M353 748v-8h-150v-351h-8v351h-149v8h307zM786 748v-359h-8v335l-178 -335h-4l-177 335v-335h-8v359h4l183 -346l184 346h4z" />
    <glyph glyph-name="estimated" unicode="&#x212e;" horiz-adv-x="627" 
d="M328 533q103 0 176 -68q72 -67 72 -179h-448v-170q0 -29 16 -42q80 -74 184 -74q74 0 136 35.5t100 94.5l7 -5q-42 -63 -105.5 -98t-137.5 -35q-115 0 -194 76t-79 191q0 120 79 196q80 78 194 78zM328 525q-104 0 -183 -70q-17 -14 -17 -38v-123h375v129q0 20 -4 29
t-17 21q-67 52 -154 52z" />
    <glyph glyph-name="partialdiff" unicode="&#x2202;" horiz-adv-x="611" 
d="M297 756q142 -4 195 -136q34 -77 45 -185q9 -86 9 -201q0 -110 -70 -177q-68 -67 -174 -67q-108 0 -176 67q-69 67 -69 177t69 178q71 68 176 68q87 0 150.5 -47t84.5 -127q-2 59 -6 107q-10 124 -42 194q-60 141 -192 141q-61 0 -107.5 -21t-91.5 -66l-6 5q88 90 205 90
zM538 234v8q-3 100 -71 165t-165 65q-103 0 -170 -67q-67 -66 -67 -171q0 -107 67 -171q68 -65 170 -65t169 64t67 172z" />
    <glyph glyph-name="product" unicode="&#x220f;" horiz-adv-x="620" 
d="M585 748v-8h-112v-904h-8v904h-310v-904h-8v904h-112v8h550z" />
    <glyph glyph-name="summation" unicode="&#x2211;" horiz-adv-x="600" 
d="M546 748v-8h-483l277 -366l-277 -366h483v-8h-495v6l279 368l-279 368v6h495z" />
    <glyph glyph-name="minus" unicode="&#x2212;" horiz-adv-x="544" 
d="M509 373v-8h-474v8h474z" />
    <glyph glyph-name="radical" unicode="&#x221a;" horiz-adv-x="578" 
d="M525 695l8 -2l-231 -770l-132 369l-123 -83l-5 7l132 90l128 -356z" />
    <glyph glyph-name="infinity" unicode="&#x221e;" horiz-adv-x="801" 
d="M605 480q72 0 117 -50q46 -49 46 -122q0 -74 -46 -123q-45 -50 -117 -50q-107 0 -195 123l-31 42l-33 -42q-81 -105 -169 -105q-64 0 -104 43.5t-40 110.5t39 110q40 45 105 45q94 0 170 -106l32 -44l26 35q51 68 97 100.5t103 32.5zM605 472q-54 0 -98 -31t-96 -99
l-27 -36l32 -43q90 -120 189 -120q67 0 111 48q44 49 44 117q0 69 -44 116q-44 48 -111 48zM177 454q-62 0 -99 -43q-37 -41 -37 -104t37 -104q38 -42 99 -42q82 0 163 102l34 43l-33 45q-76 103 -164 103z" />
    <glyph glyph-name="integral" unicode="&#x222b;" horiz-adv-x="344" 
d="M276 756q28 0 57 -7l-3 -8q-27 7 -54 7q-56 0 -76 -30t-20 -111v-622q0 -88 -24 -122t-87 -34q-29 0 -58 7l2 8q28 -7 56 -7q59 0 81 32t22 116v622q0 85 21 116q23 33 83 33z" />
    <glyph glyph-name="approxequal" unicode="&#x2248;" horiz-adv-x="525" 
d="M484 518l6 -5q-34 -40 -62.5 -56t-74.5 -16q-37 -1 -72 17t-64.5 35.5t-53.5 16.5q-38 0 -63 -14t-59 -52l-6 5q34 39 60.5 54t67.5 15q26 1 56 -16.5t64 -35.5t70 -17q43 0 70 15t61 54zM484 298l6 -5q-34 -40 -62.5 -56t-74.5 -16q-61 0 -106 34q-41 35 -84 35
q-38 0 -63 -14t-59 -52l-6 5q34 39 60.5 54t67.5 15q26 1 56 -16.5t64 -35.5t70 -17q43 0 70 15t61 54z" />
    <glyph glyph-name="notequal" unicode="&#x2260;" horiz-adv-x="544" 
d="M509 478h-190l-104 -225h294v-8h-298l-67 -146l-8 3l66 143h-167v8h171l103 225h-274v8h278l68 147l8 -4l-66 -143h186v-8z" />
    <glyph glyph-name="lessequal" unicode="&#x2264;" horiz-adv-x="492" 
d="M454 610l3 -7l-412 -179l412 -179l-3 -7l-429 186zM457 162v-8h-432v8h432z" />
    <glyph glyph-name="greaterequal" unicode="&#x2265;" horiz-adv-x="492" 
d="M38 610l429 -186l-429 -186l-3 7l412 179l-412 179zM467 162v-8h-432v8h432z" />
    <glyph glyph-name="lozenge" unicode="&#x25ca;" horiz-adv-x="507" 
d="M256 748l206 -402l-206 -401h-4l-207 401l207 402h4zM254 733l-200 -387l200 -386l199 386z" />
    <glyph glyph-name="fl" unicode="&#xfb02;" horiz-adv-x="516" 
d="M262 779q8 0 22 -2v-8q-16 2 -22 2q-60 0 -93 -37t-33 -106v-128h144v-8h-144v-492h-8v492h-108v8h108v128q0 73 35 112t99 39zM409 777v-777h-8v777h8z" />
    <glyph glyph-name="NULL" horiz-adv-x="0" 
 />
    <glyph glyph-name="CR" horiz-adv-x="333" 
 />
    <glyph glyph-name="n.001" horiz-adv-x="595" 
d="M304 508q83 0 135 -55q53 -56 53 -140v-313h-8v313q0 81 -51 134t-129 53q-82 0 -136 -56q-53 -56 -53 -131v-313h-8v500h8v-132q14 57 65 98q52 42 124 42z" />
    <glyph glyph-name="germandbls.cap" horiz-adv-x="671" 
d="M316 756q133 0 230 -114l-155 -206q231 -38 231 -226q0 -101 -71 -160q-70 -58 -186 -58q-44 0 -71 6l2 8q27 -6 69 -6q112 0 180 56q69 56 69 154q0 185 -237 221l158 211q-94 106 -219 106q-86 0 -146 -51q-59 -51 -59 -129v-568h-8v568q0 83 61 135q62 53 152 53z" />
    <glyph glyph-name="a.sups" horiz-adv-x="421" 
d="M208 755q131 0 131 -151v-256h-8v115q-15 -59 -57 -90t-99 -31t-88.5 25.5t-31.5 75.5q0 103 143 114l133 9v38q0 143 -123 143q-60 0 -96 -37t-36 -91h-8q0 56 37 96t103 40zM331 532v26l-132 -9q-136 -10 -136 -106q0 -93 112 -93q64 0 110 44q46 43 46 138z" />
    <glyph glyph-name="b.sups" horiz-adv-x="511" 
d="M85 970h8v-342q14 61 60.5 94t113.5 33q83 0 137 -55q55 -55 55 -152q0 -96 -55 -151q-54 -55 -137 -55q-67 0 -113.5 32.5t-60.5 93.5v-120h-8v622zM267 747q-79 0 -126.5 -47.5t-47.5 -135.5v-32q0 -88 47 -135t127 -47t132 52t52 146t-52 146q-53 53 -132 53z" />
    <glyph glyph-name="c.sups" horiz-adv-x="447" 
d="M237 755q70 0 116 -39t53 -105h-8q-7 63 -50.5 99.5t-110.5 36.5q-79 0 -128 -53.5t-49 -145.5q0 -91 50 -144.5t129 -53.5q65 0 107.5 33t52.5 91l8 -1q-11 -62 -55 -96.5t-113 -34.5q-83 0 -135 55.5t-52 150.5q0 96 51 151.5t134 55.5z" />
    <glyph glyph-name="d.sups" horiz-adv-x="511" 
d="M426 970v-622h-8v120q-14 -61 -60.5 -93.5t-114.5 -32.5q-82 0 -137 55q-54 55 -54 151t54 152q55 55 137 55q67 0 114 -33t61 -94v342h8zM244 747q-79 0 -132 -53q-52 -52 -52 -146t52 -146t132 -52q79 0 126.5 47t47.5 135v32q0 88 -47.5 135.5t-126.5 47.5z" />
    <glyph glyph-name="e.sups" horiz-adv-x="465" 
d="M415 562v-14h-355q0 -94 51 -146q52 -52 129 -52q63 0 106 30t57 83l8 -1q-15 -57 -59 -88.5t-112 -31.5q-81 0 -135 55q-53 56 -53 151t52.5 151t135.5 56q82 0 128.5 -52.5t46.5 -140.5zM240 747q-79 0 -129 -51.5t-51 -140.5h348v7q0 83 -44.5 134t-123.5 51z" />
    <glyph glyph-name="f.sups" horiz-adv-x="236" 
d="M210 971q3 0 7.5 -0.5t7.5 -0.5h3v-8q-3 1 -17 1q-48 0 -74.5 -29.5t-26.5 -83.5v-102h115v-8h-115v-392h-8v392h-86v8h86v102q0 59 28.5 90t79.5 31z" />
    <glyph glyph-name="g.sups" horiz-adv-x="511" 
d="M243 755q67 0 114 -33t61 -94v120h8v-433q0 -83 -48.5 -130t-129.5 -47q-68 0 -116.5 34.5t-62.5 91.5h9q12 -53 59.5 -86t110.5 -33q78 0 124 45t46 125v153q-14 -61 -60.5 -93.5t-114.5 -32.5q-82 0 -137 55q-54 55 -54 151t54 152q55 55 137 55zM244 747
q-79 0 -132 -53q-52 -52 -52 -146t52 -146t132 -52q79 0 126.5 47t47.5 135v32q0 88 -47.5 135.5t-126.5 47.5z" />
    <glyph glyph-name="h.sups" horiz-adv-x="468" 
d="M85 970h8v-326q11 44 51 77q41 34 100 34q65 0 107 -44q43 -43 43 -112v-251h-8v250q0 66 -40 107.5t-103 41.5q-65 0 -108 -45q-42 -44 -42 -104v-250h-8v622z" />
    <glyph glyph-name="i.sups" horiz-adv-x="180" 
d="M90 926q5 0 9.5 -4.5t4.5 -9.5q0 -6 -4.5 -10t-9.5 -4q-14 0 -14 14q0 5 4 9.5t10 4.5zM94 748v-400h-8v400h8z" />
    <glyph glyph-name="j.sups" horiz-adv-x="180" 
d="M89 926q6 0 10.5 -4.5t4.5 -9.5q0 -14 -15 -14q-13 0 -13 14q0 5 4 9.5t9 4.5zM86 748h8v-486q0 -120 -98 -120q-4 0 -20 2v8q16 -2 19 -2q91 0 91 111v487z" />
    <glyph glyph-name="k.sups" horiz-adv-x="383" 
d="M93 970v-441l238 219h11l-191 -177l218 -223h-11l-213 218l-52 -48v-170h-8v622h8z" />
    <glyph glyph-name="l.sups" horiz-adv-x="178" 
d="M93 970v-622h-8v622h8z" />
    <glyph glyph-name="m.sups" horiz-adv-x="753" 
d="M526 755q65 0 105 -43.5t40 -112.5v-251h-9v250q0 66 -37.5 107.5t-98.5 41.5q-64 0 -105 -45q-40 -43 -40 -104v-250h-8v250q0 66 -37.5 107.5t-98.5 41.5q-63 0 -104 -45q-40 -43 -40 -104v-250h-8v400h8v-104q12 47 51 79t93 32q56 0 93.5 -32.5t47.5 -87.5
q13 54 53 87t95 33z" />
    <glyph glyph-name="n.sups" horiz-adv-x="476" 
d="M244 755q65 0 107 -44q43 -43 43 -112v-251h-8v250q0 66 -40 107.5t-103 41.5q-65 0 -108 -45q-42 -44 -42 -104v-250h-8v400h8v-104q11 44 51 77q41 34 100 34z" />
    <glyph glyph-name="o.sups" horiz-adv-x="497" 
d="M248 342q-85 0 -140 55q-56 56 -56 151t56 151t140 56t140 -56q57 -55 57 -151q0 -95 -56 -151q-55 -55 -141 -55zM383 693q-54 54 -135 54t-135 -54q-53 -55 -53 -145t53 -145q55 -53 135 -53t135 53q54 54 54 145t-54 145z" />
    <glyph glyph-name="p.sups" horiz-adv-x="511" 
d="M267 755q83 0 137 -55q55 -55 55 -152q0 -96 -55 -151q-54 -55 -137 -55q-67 0 -113.5 32.5t-60.5 93.5v-324h-8v604h8v-120q14 61 60.5 94t113.5 33zM267 747q-79 0 -126.5 -47.5t-47.5 -135.5v-32q0 -88 47 -135t127 -47t132 52t52 146t-52 146q-53 53 -132 53z" />
    <glyph glyph-name="q.sups" horiz-adv-x="511" 
d="M243 755q67 0 114 -33t61 -94v120h8v-604h-8v324q-14 -61 -60.5 -93.5t-114.5 -32.5q-82 0 -137 55q-54 55 -54 151t54 152q55 55 137 55zM244 747q-79 0 -132 -53q-52 -52 -52 -146t52 -146t132 -52q79 0 126.5 47t47.5 135v32q0 88 -47.5 135.5t-126.5 47.5z" />
    <glyph glyph-name="r.sups" horiz-adv-x="233" 
d="M221 755v-8q-59 0 -93 -40q-35 -40 -35 -93v-266h-8v400h8v-89q9 41 44 68.5t84 27.5z" />
    <glyph glyph-name="s.sups" horiz-adv-x="392" 
d="M189 754q111 0 127 -100l-8 -1q-6 44 -37 69t-82 25q-58 0 -88.5 -26.5t-30.5 -72.5q0 -44 29 -61q21 -11 75 -23l15 -3q78 -17 109 -39q33 -21 33 -70q0 -53 -37 -81.5t-99 -28.5q-58 0 -96 26.5t-47 75.5l8 1q18 -96 135 -96q59 0 93.5 26.5t34.5 76.5q0 44 -30 64
q-33 21 -106 37l-40 9q-1 0 -17 4q-8 2 -12.5 4l-9 4t-9.5 4q-4 2 -23 19q-14 17 -14 51q0 50 32.5 78t94.5 28z" />
    <glyph glyph-name="t.sups" horiz-adv-x="229" 
d="M173 353q16 0 44 5v-8q-11 -4 -44 -4q-93 0 -93 114l1 280h-77v8h77l1 146h8l-1 -146h127v-8h-127l-1 -280q0 -107 85 -107z" />
    <glyph glyph-name="u.sups" horiz-adv-x="461" 
d="M376 748v-400h-8v105q-12 -48 -50 -79.5t-93 -31.5q-65 0 -104 43t-39 113v250h8v-250q0 -67 36.5 -107.5t98.5 -40.5q64 0 103 44q40 43 40 104v250h8z" />
    <glyph glyph-name="v.sups" horiz-adv-x="381" 
d="M367 748l-173 -400h-6l-174 400h9l168 -386l167 386h9z" />
    <glyph glyph-name="w.sups" horiz-adv-x="629" 
d="M615 748l-152 -400h-4l-144 385l-145 -385h-4l-152 400h9l145 -384l144 384h6l143 -384l145 384h9z" />
    <glyph glyph-name="x.sups" horiz-adv-x="373" 
d="M340 748l-148 -191l161 -209h-10l-156 203l-156 -203h-11l162 209l-149 191h11l143 -185l142 185h11z" />
    <glyph glyph-name="y.sups" horiz-adv-x="381" 
d="M359 748l-250 -604h-9l86 209l-164 395h9l160 -386l159 386h9z" />
    <glyph glyph-name="z.sups" horiz-adv-x="351" 
d="M312 748v-6l-276 -386h290v-8h-302v6l277 386h-271v8h282z" />
    <glyph glyph-name="zero.onum" horiz-adv-x="636" 
d="M318 601q117 0 183 -81.5t66 -223.5t-66 -223t-183 -81t-183 81t-66 223q0 143 65.5 224t183.5 81zM318 593q-114 0 -177.5 -79t-63.5 -218q0 -138 64 -217t177 -79t177 79t64 217t-64 217.5t-177 79.5z" />
    <glyph glyph-name="one.onum" horiz-adv-x="343" 
d="M233 590v-590h-8v577l-190 -164l-5 6l197 171h6z" />
    <glyph glyph-name="two.onum" horiz-adv-x="528" 
d="M273 598q95 0 144.5 -47.5t49.5 -137.5q0 -55 -33 -111q-11 -18 -39 -46q-31 -29 -41 -37l-48 -38l-223 -173h399v-8h-413v7l232 180l47 36q20 18 40 38q28 28 38 44q33 52 33 108q0 86 -47.5 131.5t-138.5 45.5q-95 0 -148 -55t-55 -155h-8q2 103 57 160.5t154 57.5z
" />
    <glyph glyph-name="three.onum" horiz-adv-x="542" 
d="M268 598q88 0 140.5 -50t52.5 -136q0 -71 -44 -121q-43 -49 -108 -60q81 -8 129.5 -59t48.5 -133q0 -93 -59 -149t-155 -56t-153 54t-68 154h8q11 -97 65.5 -148.5t147.5 -51.5q94 0 150 53.5t56 143.5q0 89 -57.5 138t-155.5 49h-68v8h68q79 0 132 49q55 49 55 129
q0 83 -50 130.5t-135 47.5t-136.5 -50.5t-58.5 -139.5h-8q7 93 60.5 145.5t142.5 52.5z" />
    <glyph glyph-name="four.onum" horiz-adv-x="586" 
d="M398 590v-502h161v-8h-161v-238h-8v238h-364v6l366 504h6zM390 573l-352 -485h352v485z" />
    <glyph glyph-name="five.onum" horiz-adv-x="545" 
d="M274 280q97 0 156 -62q60 -62 60 -159q0 -98 -57 -161q-57 -64 -159 -64q-96 0 -152 54t-67 154h8q11 -96 65 -148t146 -52q99 0 153 61q55 61 55 156q0 96 -58 154q-57 59 -150 59q-98 0 -184 -68h-8v386h380v-8h-372v-368q82 66 184 66z" />
    <glyph glyph-name="six.onum" horiz-adv-x="571" 
d="M288 457q102 0 166 -64q66 -63 66 -169t-66 -169q-64 -63 -166 -63q-101 0 -167 63t-66 169q0 91 46 147l6 7l295 370h9l-266 -334q59 43 143 43zM512 224q0 102 -64 163q-64 62 -160 62q-114 0 -177 -78q-48 -59 -48 -147q0 -102 64 -163t161 -61q98 0 160 61
q64 61 64 163z" />
    <glyph glyph-name="seven.onum" horiz-adv-x="538" 
d="M519 590v-7l-428 -741h-9l427 740h-482v8h492z" />
    <glyph glyph-name="eight.onum" horiz-adv-x="578" 
d="M289 756q88 0 145 -51q58 -49 58 -136q0 -71 -42.5 -119.5t-113.5 -61.5q78 -12 125 -64.5t47 -131.5q0 -92 -62 -146t-157 -54t-157 54t-62 146q0 79 46.5 131t124.5 65q-71 13 -113.5 61.5t-42.5 119.5q0 87 57 136q58 51 147 51zM289 748q-86 0 -141 -49
q-55 -48 -55 -130q0 -81 55 -129q56 -48 141 -48q83 0 139 48t56 129q0 82 -56 130q-55 49 -139 49zM78 192q0 -88 60 -140q59 -52 151 -52t151 52q60 53 60 140q0 88 -60 140q-58 52 -151 52t-152 -52q-59 -53 -59 -140z" />
    <glyph glyph-name="nine.onum" horiz-adv-x="571" 
d="M516 366q0 -91 -46 -147l-6 -7l-295 -370h-9l266 334q-59 -43 -143 -43q-101 0 -167 63q-65 65 -65 170q0 106 65 169q66 63 167 63t167 -63t66 -169zM283 141q114 0 177 78q48 59 48 147q0 101 -64 162q-65 62 -161 62t-161 -62q-63 -62 -63 -162q0 -102 63 -164
q64 -61 161 -61z" />
    <glyph glyph-name="zero.slash" horiz-adv-x="636" 
d="M318 756q118 0 184 -100t66 -282t-66 -282t-184 -100q-119 0 -184.5 99.5t-65.5 282.5t65.5 282.5t184.5 99.5zM318 748q-115 0 -178.5 -97t-63.5 -277q0 -203 79 -298l323 600q-62 72 -160 72zM318 0q115 0 178.5 97t63.5 277q0 198 -77 296l-322 -601q60 -69 157 -69z
" />
    <glyph glyph-name="zero.subs" horiz-adv-x="367" 
d="M81 281q36 55 102 55t102 -55q37 -53 37 -155t-37 -155q-36 -55 -102 -55t-102 55q-36 54 -36 155t36 155zM183 328q-61 0 -95.5 -52.5t-34.5 -149.5t34.5 -149.5t95.5 -52.5q63 0 97 52t34 150t-34 150t-97 52z" />
    <glyph glyph-name="one.subs" horiz-adv-x="207" 
d="M139 331v-411h-8v399l-102 -87l-5 6l109 93h6z" />
    <glyph glyph-name="two.subs" horiz-adv-x="307" 
d="M158 336q51 0 79.5 -30.5t28.5 -82.5q0 -49 -20.5 -87.5t-67.5 -85.5l-120 -122h216v-8h-229v6l126 129q47 48 67 84.5t20 82.5q0 49 -26.5 77.5t-73.5 28.5q-51 0 -79.5 -30t-29.5 -83l-8 1q2 57 32.5 88.5t84.5 31.5z" />
    <glyph glyph-name="three.subs" horiz-adv-x="315" 
d="M156 336q49 0 78 -28t29 -75q0 -37 -22.5 -65t-55.5 -34q41 -5 66.5 -33t25.5 -72q0 -52 -32.5 -82.5t-86.5 -30.5q-53 0 -84.5 29.5t-37.5 84.5l8 1q14 -107 114 -107q51 0 81 28.5t30 76.5t-31 74t-84 26h-37v8h37q43 0 72 27t29 69q0 44 -27 69.5t-72 25.5
q-46 0 -74 -27t-31 -75h-8q4 51 33.5 80.5t79.5 29.5z" />
    <glyph glyph-name="four.subs" horiz-adv-x="339" 
d="M229 331v-276h87v-8h-87v-127h-8v127h-198v6l200 278h6zM221 314l-187 -259h187v259z" />
    <glyph glyph-name="five.subs" horiz-adv-x="317" 
d="M160 162q53 0 86 -33.5t33 -88.5t-32 -89.5t-88 -34.5q-53 0 -84 29.5t-37 84.5h8q6 -51 35.5 -78.5t77.5 -27.5q52 0 82 32t30 84q0 51 -31 82.5t-81 31.5q-53 0 -98 -36h-8v213h210v-8h-202v-196q46 35 99 35z" />
    <glyph glyph-name="six.subs" horiz-adv-x="332" 
d="M167 173q55 0 92 -35q37 -34 37 -94q0 -59 -37 -93q-37 -35 -92 -35q-57 0 -93 35t-36 93q0 48 25 80l8 9l157 198h10l-140 -175q29 17 69 17zM288 44q0 54 -33.5 87.5t-87.5 33.5q-60 0 -95 -42q-26 -34 -26 -79q0 -53 34.5 -86.5t86.5 -33.5t86.5 33.5t34.5 86.5z" />
    <glyph glyph-name="seven.subs" horiz-adv-x="313" 
d="M294 331v-5l-233 -406h-9l231 403h-260v8h271z" />
    <glyph glyph-name="eight.subs" horiz-adv-x="335" 
d="M168 336q49 0 80.5 -28.5t31.5 -75.5q0 -36 -20.5 -62t-52.5 -36q37 -10 59.5 -38t22.5 -70q0 -50 -33.5 -80t-87.5 -30t-88 30t-34 80q0 43 22 70.5t60 37.5q-74 26 -74 98q0 47 31.5 75.5t82.5 28.5zM168 328q-47 0 -76.5 -26t-29.5 -70t29 -69t77 -25q46 0 75 25.5
t29 68.5q0 44 -29 70t-75 26zM168 130q-51 0 -82.5 -28t-31.5 -75t31.5 -75t82.5 -28t82 28t31 75t-31.5 75t-81.5 28z" />
    <glyph glyph-name="nine.subs" horiz-adv-x="332" 
d="M271 127l-8 -9l-157 -198h-10l140 175q-29 -17 -69 -17q-55 0 -93 35q-36 35 -36 94t36 93q38 35 93 35q57 0 93 -35t36 -93q0 -48 -25 -80zM167 86q61 0 95 42q26 32 26 79q0 53 -34.5 86.5t-86.5 33.5t-86.5 -33.5t-34.5 -86.5q0 -54 33.5 -87.5t87.5 -33.5z" />
    <glyph glyph-name="zero.sups" horiz-adv-x="367" 
d="M81 763q36 55 102 55t102 -55q37 -53 37 -155q0 -101 -37 -156q-36 -54 -102 -54t-102 54q-36 56 -36 156q0 101 36 155zM183 810q-61 0 -95.5 -52.5t-34.5 -149.5t34.5 -149.5t95.5 -52.5q63 0 97 52t34 150t-34 150t-97 52z" />
    <glyph glyph-name="one.sups" horiz-adv-x="207" 
d="M139 813v-411h-8v399l-102 -87l-5 6l109 93h6z" />
    <glyph glyph-name="two.sups" horiz-adv-x="307" 
d="M158 818q51 0 79.5 -30.5t28.5 -82.5q0 -49 -20.5 -87.5t-67.5 -85.5l-120 -122h216v-8h-229v6l126 129q47 48 67 84.5t20 82.5q0 49 -26.5 77.5t-73.5 28.5q-51 0 -79.5 -30t-29.5 -83l-8 1q2 57 32.5 88.5t84.5 31.5z" />
    <glyph glyph-name="three.sups" horiz-adv-x="315" 
d="M156 818q49 0 78 -28t29 -75q0 -37 -22.5 -65t-55.5 -34q41 -5 66.5 -33t25.5 -72q0 -52 -32.5 -82.5t-86.5 -30.5q-53 0 -84.5 29.5t-37.5 84.5l8 1q14 -107 114 -107q51 0 81 28.5t30 76.5t-31 74t-84 26h-37v8h37q43 0 72 27t29 69q0 44 -27 69.5t-72 25.5
q-46 0 -74 -27t-31 -75h-8q4 51 33.5 80.5t79.5 29.5z" />
    <glyph glyph-name="four.sups" horiz-adv-x="339" 
d="M229 813v-276h87v-8h-87v-127h-8v127h-198v6l200 278h6zM221 796l-187 -259h187v259z" />
    <glyph glyph-name="five.sups" horiz-adv-x="317" 
d="M160 644q53 0 86 -33.5t33 -88.5t-32 -89.5t-88 -34.5q-53 0 -84 29.5t-37 84.5h8q6 -51 35.5 -78.5t77.5 -27.5q52 0 82 32t30 84q0 51 -31 82.5t-81 31.5q-53 0 -98 -36h-8v213h210v-8h-202v-196q46 35 99 35z" />
    <glyph glyph-name="six.sups" horiz-adv-x="332" 
d="M167 655q55 0 92 -35q37 -34 37 -94t-37 -94q-35 -34 -92 -34t-93 35t-36 93q0 48 25 80l8 9l157 198h10l-140 -175q29 17 69 17zM288 526q0 54 -33.5 87.5t-87.5 33.5q-60 0 -95 -42q-26 -34 -26 -79q0 -53 34.5 -86.5t86.5 -33.5t86.5 33.5t34.5 86.5z" />
    <glyph glyph-name="seven.sups" horiz-adv-x="313" 
d="M294 813v-5l-233 -406h-9l231 403h-260v8h271z" />
    <glyph glyph-name="eight.sups" horiz-adv-x="335" 
d="M168 818q49 0 80.5 -28.5t31.5 -75.5q0 -36 -20.5 -62t-52.5 -36q37 -10 59.5 -38t22.5 -70q0 -50 -33.5 -80t-87.5 -30t-88 30t-34 80q0 43 22 70.5t60 37.5q-74 26 -74 98q0 47 31.5 75.5t82.5 28.5zM168 810q-47 0 -76.5 -26t-29.5 -70t29 -69t77 -25q46 0 75 25.5
t29 68.5q0 44 -29 70t-75 26zM168 612q-51 0 -82.5 -28t-31.5 -75t31.5 -75t82.5 -28t82 28t31 75t-31.5 75t-81.5 28z" />
    <glyph glyph-name="nine.sups" horiz-adv-x="332" 
d="M271 609l-8 -9l-157 -198h-10l140 175q-29 -17 -69 -17q-55 0 -93 35q-36 35 -36 94t36 93q38 35 93 35q57 0 93 -35t36 -93q0 -48 -25 -80zM167 568q61 0 95 42q26 32 26 79q0 53 -34.5 86.5t-86.5 33.5t-86.5 -33.5t-34.5 -86.5q0 -54 33.5 -87.5t87.5 -33.5z" />
    <glyph glyph-name="zero.tnum" horiz-adv-x="650" 
d="M325 756q118 0 184 -100t66 -282t-66 -282t-184 -100q-119 0 -184.5 99.5t-65.5 282.5t65.5 282.5t184.5 99.5zM325 748q-115 0 -178.5 -97t-63.5 -277t63.5 -277t178.5 -97t178.5 97t63.5 277t-63.5 277t-178.5 97z" />
    <glyph glyph-name="one.tnum" horiz-adv-x="650" 
d="M365 748v-740h190v-8h-398v8h200v727l-208 -181l-5 6l215 188h6z" />
    <glyph glyph-name="two.tnum" horiz-adv-x="650" 
d="M326 756q92 0 143 -55.5t51 -149.5q0 -91 -39 -161q-38 -69 -124 -155l-225 -227h403v-8h-416v6l233 235q84 86 121 152q39 69 39 158t-49 143t-137 54q-95 0 -148 -55.5t-55 -154.5h-8q2 103 57 160.5t154 57.5z" />
    <glyph glyph-name="three.tnum" horiz-adv-x="650" 
d="M321 756q88 0 140.5 -50t52.5 -136q0 -71 -44 -121q-44 -49 -108 -60q81 -8 129.5 -59t48.5 -133q0 -93 -59 -149t-155 -56t-153 54t-68 154h8q11 -97 65.5 -148.5t147.5 -51.5q94 0 150 53.5t56 143.5q0 89 -57.5 138t-155.5 49h-68v8h68q79 0 132 49q55 49 55 129
q0 83 -50 130.5t-135 47.5t-136.5 -50.5t-58.5 -139.5h-8q7 93 60.5 145.5t142.5 52.5z" />
    <glyph glyph-name="four.tnum" horiz-adv-x="650" 
d="M429 748v-502h161v-8h-161v-238h-8v238h-364v6l366 504h6zM421 731l-352 -485h352v485z" />
    <glyph glyph-name="five.tnum" horiz-adv-x="650" 
d="M322 438q97 0 156 -62q60 -62 60 -159t-57 -162q-57 -63 -159 -63q-96 0 -152 54t-67 154h8q11 -96 65 -148t146 -52q99 0 153 61q55 61 55 156q0 96 -58 154q-57 59 -150 59q-98 0 -184 -68h-8v386h380v-8h-372v-368q82 66 184 66z" />
    <glyph glyph-name="six.tnum" horiz-adv-x="650" 
d="M320 457q102 0 166 -64q66 -63 66 -169t-66 -169q-64 -63 -166 -63q-101 0 -167 63t-66 169q0 91 46 147l6 7l295 370h9l-266 -334q59 43 143 43zM544 224q0 102 -64 163q-64 62 -160 62q-114 0 -177 -78q-48 -59 -48 -147q0 -102 64 -163t161 -61q98 0 160 61
q64 61 64 163z" />
    <glyph glyph-name="seven.tnum" horiz-adv-x="650" 
d="M576 747v-7l-428 -741h-9l427 740h-482v8h492z" />
    <glyph glyph-name="eight.tnum" horiz-adv-x="650" 
d="M325 756q88 0 145 -51q58 -49 58 -136q0 -71 -42.5 -119.5t-113.5 -61.5q78 -12 125 -64.5t47 -131.5q0 -92 -62 -146q-61 -54 -157 -54q-95 0 -157 54t-62 146q0 79 46.5 131t124.5 65q-71 13 -113.5 61.5t-42.5 119.5q0 87 57 136q58 51 147 51zM325 748
q-86 0 -141 -49q-55 -48 -55 -130q0 -81 55 -129q56 -48 141 -48q83 0 139 48t56 129q0 82 -56 130q-55 49 -139 49zM114 192q0 -88 60 -140q59 -52 151 -52t151 52q60 53 60 140q0 88 -60 140q-58 52 -151 52t-152 -52q-59 -53 -59 -140z" />
    <glyph glyph-name="nine.tnum" horiz-adv-x="650" 
d="M563 524q0 -91 -46 -147l-6 -7l-295 -370h-9l266 334q-59 -43 -143 -43q-101 0 -167 63q-65 65 -65 170q0 106 65 169q66 63 167 63t167 -63t66 -169zM330 299q114 0 177 78q48 59 48 147q0 101 -64 162q-65 62 -161 62t-161 -62q-63 -62 -63 -162q0 -102 63 -164
q64 -61 161 -61z" />
    <glyph glyph-name="zero.dnom" horiz-adv-x="367" 
d="M81 361q36 55 102 55t102 -55q37 -53 37 -155q0 -101 -37 -156q-36 -54 -102 -54t-102 54q-36 56 -36 156q0 101 36 155zM183 408q-61 0 -95.5 -52.5t-34.5 -149.5t34.5 -149.5t95.5 -52.5q63 0 97 52t34 150t-34 150t-97 52z" />
    <glyph glyph-name="one.dnom" horiz-adv-x="207" 
d="M139 411v-411h-8v399l-102 -87l-5 6l109 93h6z" />
    <glyph glyph-name="two.dnom" horiz-adv-x="307" 
d="M158 416q51 0 79.5 -30.5t28.5 -82.5q0 -49 -20.5 -87.5t-67.5 -85.5l-120 -122h216v-8h-229v6l126 129q47 48 67 84.5t20 82.5q0 49 -26.5 77.5t-73.5 28.5q-51 0 -79.5 -30t-29.5 -83l-8 1q2 57 32.5 88.5t84.5 31.5z" />
    <glyph glyph-name="three.dnom" horiz-adv-x="315" 
d="M156 416q49 0 78 -28t29 -75q0 -37 -22.5 -65t-55.5 -34q41 -5 66.5 -33t25.5 -72q0 -52 -32.5 -82.5t-86.5 -30.5q-53 0 -84.5 29.5t-37.5 84.5l8 1q14 -107 114 -107q51 0 81 28.5t30 76.5t-31 74t-84 26h-37v8h37q43 0 72 27t29 69q0 44 -27 69.5t-72 25.5
q-46 0 -74 -27t-31 -75h-8q4 51 33.5 80.5t79.5 29.5z" />
    <glyph glyph-name="four.dnom" horiz-adv-x="339" 
d="M229 411v-276h87v-8h-87v-127h-8v127h-198v6l200 278h6zM221 394l-187 -259h187v259z" />
    <glyph glyph-name="five.dnom" horiz-adv-x="317" 
d="M160 242q53 0 86 -33.5t33 -88.5t-32 -89.5t-88 -34.5q-53 0 -84 29.5t-37 84.5h8q6 -51 35.5 -78.5t77.5 -27.5q52 0 82 32t30 84q0 51 -31 82.5t-81 31.5q-53 0 -98 -36h-8v213h210v-8h-202v-196q46 35 99 35z" />
    <glyph glyph-name="six.dnom" horiz-adv-x="332" 
d="M167 253q55 0 92 -35q37 -34 37 -94t-37 -94q-35 -34 -92 -34t-93 35t-36 93q0 48 25 80l8 9l157 198h10l-140 -175q29 17 69 17zM288 124q0 54 -33.5 87.5t-87.5 33.5q-60 0 -95 -42q-26 -34 -26 -79q0 -53 34.5 -86.5t86.5 -33.5t86.5 33.5t34.5 86.5z" />
    <glyph glyph-name="seven.dnom" horiz-adv-x="313" 
d="M294 411v-5l-233 -406h-9l231 403h-260v8h271z" />
    <glyph glyph-name="eight.dnom" horiz-adv-x="335" 
d="M168 416q49 0 80.5 -28.5t31.5 -75.5q0 -36 -20.5 -62t-52.5 -36q37 -10 59.5 -38t22.5 -70q0 -50 -33.5 -80t-87.5 -30t-88 30t-34 80q0 43 22 70.5t60 37.5q-74 26 -74 98q0 47 31.5 75.5t82.5 28.5zM168 408q-47 0 -76.5 -26t-29.5 -70t29 -69t77 -25q46 0 75 25.5
t29 68.5q0 44 -29 70t-75 26zM168 210q-51 0 -82.5 -28t-31.5 -75t31.5 -75t82.5 -28t82 28t31 75t-31.5 75t-81.5 28z" />
    <glyph glyph-name="nine.dnom" horiz-adv-x="332" 
d="M271 207l-8 -9l-157 -198h-10l140 175q-29 -17 -69 -17q-55 0 -93 35q-36 35 -36 94t36 93q38 35 93 35q57 0 93 -35t36 -93q0 -48 -25 -80zM167 166q61 0 95 42q26 32 26 79q0 53 -34.5 86.5t-86.5 33.5t-86.5 -33.5t-34.5 -86.5q0 -54 33.5 -87.5t87.5 -33.5z" />
    <glyph glyph-name="zero.numr" horiz-adv-x="367" 
d="M81 682q36 55 102 55t102 -55q37 -53 37 -155q0 -101 -37 -156q-36 -54 -102 -54t-102 54q-36 55 -36 156t36 155zM183 729q-61 0 -95.5 -52.5t-34.5 -149.5t34.5 -149.5t95.5 -52.5q63 0 97 52t34 150t-34 150t-97 52z" />
    <glyph glyph-name="one.numr" horiz-adv-x="207" 
d="M139 733v-411h-8v399l-102 -87l-5 6l109 93h6z" />
    <glyph glyph-name="two.numr" horiz-adv-x="307" 
d="M158 738q51 0 79.5 -30.5t28.5 -82.5q0 -49 -20.5 -87.5t-67.5 -85.5l-120 -122h216v-8h-229v6l126 129q47 48 67 84.5t20 82.5q0 49 -26.5 77.5t-73.5 28.5q-51 0 -79.5 -30t-29.5 -83l-8 1q2 57 32.5 88.5t84.5 31.5z" />
    <glyph glyph-name="three.numr" horiz-adv-x="315" 
d="M156 738q49 0 78 -28t29 -75q0 -37 -22.5 -65t-55.5 -34q41 -5 66.5 -33t25.5 -72q0 -52 -32.5 -82.5t-86.5 -30.5q-53 0 -84.5 29.5t-37.5 84.5l8 1q14 -107 114 -107q51 0 81 28.5t30 76.5t-31 74t-84 26h-37v8h37q43 0 72 27t29 69q0 44 -27 69.5t-72 25.5
q-46 0 -74 -27t-31 -75h-8q4 51 33.5 80.5t79.5 29.5z" />
    <glyph glyph-name="four.numr" horiz-adv-x="339" 
d="M229 733v-276h87v-8h-87v-127h-8v127h-198v6l200 278h6zM221 716l-187 -259h187v259z" />
    <glyph glyph-name="five.numr" horiz-adv-x="317" 
d="M160 564q53 0 86 -33.5t33 -88.5t-32 -89.5t-88 -34.5q-53 0 -84 29.5t-37 84.5h8q6 -51 35.5 -78.5t77.5 -27.5q52 0 82 32t30 84q0 51 -31 82.5t-81 31.5q-53 0 -98 -36h-8v213h210v-8h-202v-196q46 35 99 35z" />
    <glyph glyph-name="six.numr" horiz-adv-x="332" 
d="M167 575q55 0 92 -35q37 -34 37 -94t-37 -94q-35 -34 -92 -34t-93 35t-36 93q0 48 25 80l8 9l157 198h10l-140 -175q29 17 69 17zM288 446q0 54 -33.5 87.5t-87.5 33.5q-60 0 -95 -42q-26 -34 -26 -79q0 -53 34.5 -86.5t86.5 -33.5t86.5 33.5t34.5 86.5z" />
    <glyph glyph-name="seven.numr" horiz-adv-x="313" 
d="M294 733v-5l-233 -406h-9l231 403h-260v8h271z" />
    <glyph glyph-name="eight.numr" horiz-adv-x="335" 
d="M168 738q49 0 80.5 -28.5t31.5 -75.5q0 -36 -20.5 -62t-52.5 -36q37 -10 59.5 -38t22.5 -70q0 -50 -33.5 -80t-87.5 -30t-88 30t-34 80q0 43 22 70.5t60 37.5q-74 26 -74 98q0 47 31.5 75.5t82.5 28.5zM168 730q-47 0 -76.5 -26t-29.5 -70t29 -69t77 -25q46 0 75 25.5
t29 68.5q0 44 -29 70t-75 26zM168 532q-51 0 -82.5 -28t-31.5 -75t31.5 -75t82.5 -28t82 28t31 75t-31.5 75t-81.5 28z" />
    <glyph glyph-name="nine.numr" horiz-adv-x="332" 
d="M271 529l-8 -9l-157 -198h-10l140 175q-29 -17 -69 -17q-55 0 -93 35q-36 35 -36 94t36 93q38 35 93 35q57 0 93 -35t36 -93q0 -48 -25 -80zM167 488q61 0 95 42q26 32 26 79q0 53 -34.5 86.5t-86.5 33.5t-86.5 -33.5t-34.5 -86.5q0 -54 33.5 -87.5t87.5 -33.5z" />
    <glyph glyph-name="periodcentered.cap" horiz-adv-x="147" 
d="M73 396q9 0 15 -6t6 -15q0 -8 -6 -14t-15 -6q-8 0 -14 6t-6 14q0 9 6 15t14 6z" />
    <glyph glyph-name="exclamdown.cap" horiz-adv-x="221" 
d="M111 715q-9 0 -15 6t-6 15q0 8 6 14t15 6q8 0 14 -6t6 -14q0 -9 -6 -15t-14 -6zM107 0v580h8v-580h-8z" />
    <glyph glyph-name="questiondown.cap" horiz-adv-x="458" 
d="M240 715q-9 0 -15 6t-6 15q0 8 6 14t15 6q8 0 14 -6t6 -14q0 -9 -6 -15t-14 -6zM229 -8q-96 0 -150 57t-54 143q0 65 26 106q25 38 89 83q56 44 75 79t19 96v24h8v-24q0 -61 -19 -99q-18 -38 -77 -82q-61 -41 -87 -81t-26 -102q0 -82 51 -138q52 -54 145 -54
q177 0 201 166l8 -1q-10 -82 -64.5 -127.5t-144.5 -45.5z" />
    <glyph glyph-name="braceleft.cap" horiz-adv-x="183" 
d="M158 769v-8h-6q-58 0 -76.5 -52.5t3.5 -150.5q18 -63 17 -118q0 -54 -36 -68q36 -14 36 -69q1 -54 -17 -117q-22 -98 -3.5 -150.5t76.5 -52.5h6v-8h-6q-63 0 -84 56.5t3 156.5q6 22 10 47q11 55 7 80q-4 27 -16 40t-39 13h-8v8h8q27 0 39 13t16 40q2 16 -1 37
q-3 35 -16 90q-24 100 -3 156.5t84 56.5h6z" />
    <glyph glyph-name="braceright.cap" horiz-adv-x="183" 
d="M25 761v8h6q63 0 84 -56.5t-3 -156.5q-2 -8 -4 -17l-4 -18t-3 -13q-9 -57 -6 -79q4 -27 16 -40t39 -13h8v-8h-8q-27 0 -39 -13t-16 -40q-2 -14 0 -38q4 -35 17 -89q24 -100 3 -156.5t-84 -56.5h-6v8h6q58 0 76.5 52.5t-3.5 150.5q-18 62 -18 117q2 56 37 69
q-36 13 -37 68q0 56 18 118q22 98 3.5 150.5t-76.5 52.5h-6z" />
    <glyph glyph-name="bracketleft.cap" horiz-adv-x="209" 
d="M184 770v-8h-111v-779h111v-8h-119v795h119z" />
    <glyph glyph-name="bracketright.cap" horiz-adv-x="209" 
d="M144 770v-795h-119v8h111v779h-111v8h119z" />
    <glyph glyph-name="parenleft.cap" horiz-adv-x="200" 
d="M168 760l7 -4q-56 -79 -89 -182t-33 -212q0 -110 33 -212t89 -181l-7 -4q-123 176 -123 397q0 110 33.5 213.5t89.5 184.5z" />
    <glyph glyph-name="parenright.cap" horiz-adv-x="200" 
d="M25 756l7 4q56 -81 89.5 -184.5t33.5 -213.5q0 -221 -123 -397l-7 4q56 79 89 181t33 212q0 109 -33 212t-89 182z" />
    <glyph glyph-name="emdash.cap" horiz-adv-x="790" 
d="M745 380v-8h-700v8h700z" />
    <glyph glyph-name="endash.cap" horiz-adv-x="558" 
d="M513 380v-8h-468v8h468z" />
    <glyph glyph-name="hyphen.cap" horiz-adv-x="398" 
d="M353 380v-8h-308v8h308z" />
    <glyph glyph-name="guillemotleft.cap" horiz-adv-x="464" 
d="M215 576l5 -6l-192 -193l192 -193l-5 -6l-200 199zM434 576l5 -6l-192 -193l192 -193l-5 -6l-200 199z" />
    <glyph glyph-name="guillemotright.cap" horiz-adv-x="464" 
d="M30 576l200 -199l-200 -199l-5 6l192 193l-192 193zM249 576l200 -199l-200 -199l-5 6l192 193l-192 193z" />
    <glyph glyph-name="guilsinglleft.cap" horiz-adv-x="266" 
d="M235 576l6 -6l-213 -193l213 -193l-6 -6l-220 199z" />
    <glyph glyph-name="guilsinglright.cap" horiz-adv-x="266" 
d="M31 576l220 -199l-220 -199l-6 6l213 193l-213 193z" />
    <glyph glyph-name="emdash_guilsinglright" horiz-adv-x="809" 
d="M554 455l220 -199l-220 -199l-6 6l209 189h-712v8h712l-209 189z" />
    <glyph glyph-name="endash_guilsinglright" horiz-adv-x="559" 
d="M304 455l220 -199l-220 -199l-6 6l209 189h-462v8h462l-209 189z" />
    <glyph glyph-name="guilsinglleft_emdash" horiz-adv-x="809" 
d="M255 455l6 -6l-209 -189h712v-8h-712l209 -189l-6 -6l-220 199z" />
    <glyph glyph-name="guilsinglleft_endash" horiz-adv-x="559" 
d="M255 455l6 -6l-209 -189h462v-8h-462l209 -189l-6 -6l-220 199z" />
    <glyph glyph-name="at.cap" horiz-adv-x="787" 
d="M736 372q0 -91 -28.5 -142.5t-79.5 -51.5q-73 0 -73 85v28q-35 -117 -166 -117q-84 0 -134 54.5t-50 149.5t50.5 149.5t133.5 54.5q135 0 166 -120v113h8v-312q0 -77 65 -77q47 0 73.5 49.5t26.5 136.5q0 145 -95 240t-240 95t-240 -95q-94 -94 -94 -240t94 -240t240 -94
q108 0 193 58l4 -7q-89 -59 -197 -59q-149 0 -246 97q-96 97 -96 245t96 246q97 97 246 97q148 0 246 -98q97 -97 97 -245zM389 182q78 0 122 46t44 134v32q0 88 -44 134t-122 46q-80 0 -128 -52t-48 -144t48 -144t128 -52z" />
    <glyph glyph-name="acute.case" horiz-adv-x="253" 
d="M219 921l-177 -124h-14l175 124h16z" />
    <glyph glyph-name="breve.case" horiz-adv-x="302" 
d="M261 909h8q0 -42 -32 -66.5t-86 -24.5t-86 24.5t-32 66.5h8q0 -38 30 -60.5t80 -22.5t80 22.5t30 60.5z" />
    <glyph glyph-name="caron.case" horiz-adv-x="308" 
d="M279 918l-123 -121h-4l-123 121h11l114 -110l114 110h11z" />
    <glyph glyph-name="circumflex.case" horiz-adv-x="308" 
d="M156 918l123 -121h-11l-114 110l-114 -110h-11l123 121h4z" />
    <glyph glyph-name="dieresis.case" horiz-adv-x="192" 
d="M66 857q0 -15 -16 -15t-16 15q0 16 16 16t16 -16zM143 873q15 0 15 -16q0 -15 -15 -15q-17 0 -17 15q0 7 5 11.5t12 4.5z" />
    <glyph glyph-name="dotaccent.case" horiz-adv-x="102" 
d="M38 857q8 8 18.5 4.5t13 -12.5t-5.5 -19q-7 -8 -17.5 -4t-13.5 13t5 18z" />
    <glyph glyph-name="grave.case" horiz-adv-x="253" 
d="M48 921l175 -124h-14l-177 124h16z" />
    <glyph glyph-name="hungarumlaut.case" horiz-adv-x="250" 
d="M95 920l-59 -120h-9l58 120h10zM223 920l-59 -120h-9l58 120h10z" />
    <glyph glyph-name="macron.case" horiz-adv-x="265" 
d="M240 870v-8h-215v8h215z" />
    <glyph glyph-name="ring.case" horiz-adv-x="244" 
d="M60 941q26 24 63 24t62 -24q26 -24 26 -61t-26 -61q-25 -24 -62 -24t-63 24q-25 24 -25 61t25 61zM179 935q-23 22 -56 22t-57 -22q-23 -22 -23 -55t23 -55q24 -22 57 -22t56 22q24 22 24 55t-24 55z" />
    <glyph glyph-name="tilde.case" horiz-adv-x="331" 
d="M95 906q31 0 72 -35q43 -35 69 -35t42 18t17 45h8q-1 -31 -19.5 -51t-47.5 -20q-30 0 -73 35q-41 35 -68 35q-26 0 -42 -18t-17 -45h-8q1 31 19.5 51t47.5 20z" />
    <glyph glyph-name="anneau" horiz-adv-x="566" 
d="M107 684q72 72 176 72t176 -72t72 -176t-72 -176t-176 -72t-176 72t-72 176t72 176zM453 678q-69 70 -170 70t-171 -70q-69 -70 -69 -170q0 -99 69 -170q70 -70 171 -70t170 70q70 70 70 170t-70 170z" />
    <glyph glyph-name="_498" horiz-adv-x="600" 
 />
    </font>
</defs>
</svg>
