<?xml version="1.0" standalone="no"?>
<!DOCTYPE svg PUBLIC "-//W3C//DTD SVG 1.1//EN" "http://www.w3.org/Graphics/SVG/1.1/DTD/svg11.dtd" >
<svg xmlns="http://www.w3.org/2000/svg" xmlns:xlink="http://www.w3.org/1999/xlink" version="1.1">
<metadata>
Created by FontForge 20170731 at Tue May 12 04:41:11 2015
 By ,,,
Copyright (c) 2014 by Type Dynamic. All rights reserved.
</metadata>
<defs>
<font id="SailecHairline-Italic" horiz-adv-x="223" >
  <font-face 
    font-family="Sailec Hairline Italic"
    font-weight="400"
    font-style="italic"
    font-stretch="normal"
    units-per-em="1000"
    panose-1="0 0 3 0 0 0 0 0 0 0"
    ascent="748"
    descent="-252"
    x-height="500"
    cap-height="748"
    bbox="-244 -263 1328 1041"
    underline-thickness="50"
    underline-position="-200"
    slope="-10"
    unicode-range="U+000D-FB02"
  />
<missing-glyph horiz-adv-x="661" 
d="M649 748l-132 -748h-461l132 748h461zM634 740h-434l154 -358zM194 736l-127 -721l281 360zM638 732l-280 -358l154 -357zM352 367l-281 -359h436z" />
    <glyph glyph-name="fi" unicode="fi" horiz-adv-x="517" 
d="M354 779q9 0 23 -2l-1 -8q-16 2 -21 2q-61 0 -100.5 -37t-51.5 -106l-23 -128h144l-1 -8h-144l-87 -492h-8l87 492h-108l1 8h108l23 128q12 73 54 112t105 39zM501 705q-1 -16 -18 -16q-16 0 -14 17q1 16 18 16q16 0 14 -17zM453 500l-88 -500h-8l88 500h8z" />
    <glyph glyph-name="f_j" unicode="fj" horiz-adv-x="517" 
d="M354 779q9 0 23 -2l-1 -8q-16 2 -21 2q-61 0 -100.5 -37t-51.5 -106l-23 -128h144l-1 -8h-144l-87 -492h-8l87 492h-108l1 8h108l23 128q12 73 54 112t105 39zM501 705q-1 -16 -18 -16q-16 0 -14 17q1 16 18 16q16 0 14 -17zM446 500h8l-107 -609q-25 -148 -147 -148
q-3 0 -25 2l1 8q22 -2 23 -2q114 0 140 140z" />
    <glyph glyph-name=".notdef" horiz-adv-x="661" 
d="M649 748l-132 -748h-461l132 748h461zM634 740h-434l154 -358zM194 736l-127 -721l281 360zM638 732l-280 -358l154 -357zM352 367l-281 -359h436z" />
    <glyph glyph-name=".null" horiz-adv-x="0" 
 />
    <glyph glyph-name="nonmarkingreturn" horiz-adv-x="333" 
 />
    <glyph glyph-name="CR.001" unicode="&#xd;" horiz-adv-x="600" 
 />
    <glyph glyph-name="space" unicode=" " horiz-adv-x="255" 
 />
    <glyph glyph-name="exclam" unicode="!" horiz-adv-x="221" 
d="M203 748l-102 -580h-8l102 580h8zM72 33q21 0 18 -22q-4 -19 -23 -19q-20 0 -18 21q1 8 8 14t15 6z" />
    <glyph glyph-name="quotedbl" unicode="&#x22;" horiz-adv-x="217" 
d="M156 725l-34 -161h-15l24 161h25zM246 725l-34 -161h-15l24 161h25z" />
    <glyph glyph-name="numbersign" unicode="#" horiz-adv-x="592" 
d="M583 748l-98 -235h142l-3 -8h-142l-108 -260h153l-3 -8h-153l-99 -237h-8l99 237h-204l-99 -237h-8l99 237h-142l3 8h142l108 260h-153l3 8h153l98 235h8l-98 -235h204l98 235h8zM474 505h-204l-108 -260h204z" />
    <glyph glyph-name="dollar" unicode="$" horiz-adv-x="645" 
d="M437 865h8l-19 -110q89 -5 139 -52t47 -126l-9 -1q4 81 -49.5 126.5t-148.5 45.5q-109 0 -176.5 -51t-79.5 -132q-10 -71 27 -113q19 -19 46 -31q47 -20 128 -38h1q62 -13 91 -22q34 -9 67 -25q49 -21 65.5 -54t11.5 -94q-13 -97 -91 -147q-76 -49 -187 -49h-17l-19 -110
h-8l19 111q-97 4 -158 55q-60 50 -56 132l8 1q-4 -82 61 -132q64 -49 169 -49q112 0 185.5 49t85.5 141q13 91 -49 126q-36 20 -68 30q-44 13 -97 26l-14 3q-50 11 -75 18q-19 6 -59 23q-33 15 -48 33q-38 46 -27 118q12 82 80 135q69 54 183 54h14z" />
    <glyph glyph-name="percent" unicode="%" horiz-adv-x="770" 
d="M282 756q66 0 98.5 -44.5t19.5 -121.5q-13 -75 -61.5 -120t-112.5 -45q-65 0 -98 45.5t-20 121.5q13 74 61.5 119t112.5 45zM765 748l-706 -748h-10l706 748h10zM283 748q-61 0 -108 -43.5t-59 -114.5t18.5 -114t90.5 -43q61 0 108 44t59 115q13 71 -18 113.5t-91 42.5z
M587 323q66 0 98.5 -44.5t19.5 -121.5q-14 -75 -62 -120t-112 -45q-65 0 -98.5 45.5t-19.5 121.5q13 74 61.5 119t112.5 45zM587 315q-61 0 -107.5 -43t-58.5 -115q-13 -71 18 -114t91 -43q61 0 107.5 43.5t59.5 115.5q12 71 -19 113.5t-91 42.5z" />
    <glyph glyph-name="ampersand" unicode="&#x26;" horiz-adv-x="667" 
d="M639 370l7 -3q-69 -146 -145 -232l114 -136l-6 -6l-114 135q-122 -134 -260 -134q-100 0 -149 55t-33 146q25 143 192 234q-59 83 -44 165q14 77 65.5 119.5t126.5 42.5q67 0 104 -37t33 -101h-8q3 60 -32 95t-96 35q-73 0 -122.5 -40.5t-63.5 -115.5q-6 -36 -1 -63
q9 -35 19 -53q4 -6 8.5 -15t5.5 -10q4 -6 19 -26l20 -25l24 -29l193 -230q78 89 143 229zM234 2q138 0 256 133l-193 230l-47 58q-84 -46 -130.5 -100.5t-58.5 -129.5q-15 -87 31.5 -139t141.5 -52z" />
    <glyph glyph-name="quotesingle" unicode="'" horiz-adv-x="127" 
d="M160 725l-34 -161h-15l24 161h25z" />
    <glyph glyph-name="parenleft" unicode="(" horiz-adv-x="200" 
d="M290 718l6 -4q-70 -79 -121 -182t-71 -213q-33 -230 53 -392l-8 -4q-91 176 -52 398q19 111 73 217q52 104 120 180z" />
    <glyph glyph-name="parenright" unicode=")" horiz-adv-x="200" 
d="M107 714l8 4q91 -176 52 -399q-20 -110 -71 -213t-122 -183l-6 4q151 172 192 394q33 231 -53 393z" />
    <glyph glyph-name="asterisk" unicode="*" horiz-adv-x="286" 
d="M235 748l-23 -127l128 39l2 -8l-128 -39l57 -103l-8 -6l-57 103l-93 -103l-6 6l93 103l-114 39l4 8l114 -39l23 127h8z" />
    <glyph glyph-name="plus" unicode="+" horiz-adv-x="544" 
d="M338 600l-40 -227h233l-2 -8h-233l-41 -236h-8l41 236h-233l2 8h233l40 227h8z" />
    <glyph glyph-name="comma" unicode="," horiz-adv-x="147" 
d="M33 31q21 0 17 -27q-17 -90 -84 -136l1 9q57 47 66 117h-4q-18 0 -16 19q6 18 20 18z" />
    <glyph glyph-name="hyphen" unicode="-" horiz-adv-x="398" 
d="M356 265l-2 -8h-308l2 8h308z" />
    <glyph glyph-name="period" unicode="." horiz-adv-x="147" 
d="M35 33q21 0 18 -22q-4 -19 -23 -19q-20 0 -18 21q1 8 8 14t15 6z" />
    <glyph glyph-name="slash" unicode="/" horiz-adv-x="293" 
d="M366 748l-398 -815h-9l400 815h7z" />
    <glyph glyph-name="zero" unicode="0" horiz-adv-x="636" 
d="M428 756q120 0 170 -100t21 -283q-29 -182 -110 -281.5t-199 -99.5q-120 0 -170 100t-21 283q29 182 110 281.5t199 99.5zM429 748q-115 0 -194 -97t-108 -278q-29 -179 19 -276t163 -97t194 97t108 278q29 179 -19.5 276t-162.5 97z" />
    <glyph glyph-name="one" unicode="1" horiz-adv-x="343" 
d="M321 748l-132 -748h-8l130 736l-219 -162l-4 6l226 168h7z" />
    <glyph glyph-name="two" unicode="2" horiz-adv-x="528" 
d="M361 756q92 0 133.5 -56t25.5 -150q-17 -92 -68 -161q-51 -70 -151 -154l-265 -227h403l-1 -8h-416l1 6l274 235q100 85 149 153q51 69 66 158q16 89 -23 142.5t-127 53.5q-95 0 -158 -55t-83 -155h-8q20 103 85 160.5t163 57.5z" />
    <glyph glyph-name="three" unicode="3" horiz-adv-x="542" 
d="M519 569q-12 -72 -63 -121q-50 -48 -117 -59q80 -8 120 -59.5t26 -133.5q-14 -93 -81 -148q-67 -56 -163 -56q-98 0 -146.5 54t-43.5 154h8q-4 -97 42 -148.5t139 -51.5q95 0 159.5 54t78.5 144q15 88 -35 137t-148 49h-68l1 8h68q78 0 140 50q62 49 76 129
q13 81 -30 129t-127 48q-86 0 -145.5 -50t-80.5 -140h-8q22 93 83 145.5t150 52.5q90 0 134.5 -50.5t30.5 -136.5z" />
    <glyph glyph-name="four" unicode="4" horiz-adv-x="586" 
d="M486 748l-89 -502h161l-1 -8h-161l-42 -238h-8l42 238h-364l1 6l455 504h6zM475 731l-438 -485h352z" />
    <glyph glyph-name="five" unicode="5" horiz-adv-x="545" 
d="M552 740h-372l-64 -368q93 66 190 66q98 0 148 -62q51 -61 34 -160t-83 -161q-66 -63 -167 -63q-96 0 -144 54t-44 154h8q-4 -96 42 -148t137 -52q99 0 163 61q65 62 80 157q17 95 -32 153q-48 59 -141 59q-96 0 -193 -68h-8l68 386h380z" />
    <glyph glyph-name="six" unicode="6" horiz-adv-x="571" 
d="M336 457q101 0 156 -64q57 -63 40 -170q-17 -106 -92 -168q-76 -63 -175 -63q-101 0 -158 63q-55 64 -39 170q13 88 68 146l11 11l360 366h11l-326 -331q65 40 144 40zM525 225q16 100 -38 162t-150 62q-112 0 -191 -79q-56 -56 -71 -147q-16 -100 38 -162
q54 -61 151 -61t170 61q75 62 91 164z" />
    <glyph glyph-name="seven" unicode="7" horiz-adv-x="538" 
d="M607 748l-1 -7l-558 -741h-10l557 740h-482l2 8h492z" />
    <glyph glyph-name="eight" unicode="8" horiz-adv-x="578" 
d="M384 756q90 0 139 -51q50 -50 36 -137q-12 -72 -62 -119.5t-123 -60.5q75 -12 114 -65t27 -132q-15 -91 -85 -145t-164 -54q-95 0 -149 54q-54 55 -40 147q12 79 66.5 130.5t135.5 64.5q-68 13 -103.5 62t-23.5 120q14 86 79 136t153 50zM385 748q-86 0 -150 -49
q-63 -48 -75 -131q-12 -80 34.5 -128t132.5 -48q85 0 148 48q64 49 76 130q13 80 -34 129q-46 49 -132 49zM328 384q-93 0 -161 -52q-69 -53 -82 -141q-14 -87 37 -139q52 -52 143 -52q93 0 160 52q69 53 82 141q13 89 -37 139q-51 52 -142 52z" />
    <glyph glyph-name="nine" unicode="9" horiz-adv-x="571" 
d="M386 756q102 0 157 -64q57 -62 40 -169q-13 -88 -68 -146l-11 -11l-360 -366h-11l326 331q-65 -40 -144 -40q-100 0 -157 63q-56 64 -39 171q17 106 92 168q77 63 175 63zM576 525q16 100 -38 162q-54 61 -151 61t-171 -62t-90 -163q-17 -101 38 -163q54 -61 150 -61
q112 0 191 79q56 56 71 147z" />
    <glyph glyph-name="colon" unicode=":" horiz-adv-x="147" 
d="M119 508q21 0 18 -22q-4 -19 -23 -19q-20 0 -18 21q1 8 8 14t15 6zM35 33q21 0 18 -22q-4 -19 -23 -19q-20 0 -18 21q1 8 8 14t15 6z" />
    <glyph glyph-name="semicolon" unicode=";" horiz-adv-x="147" 
d="M118 508q21 0 18 -22q-4 -19 -23 -19q-20 0 -18 21q1 8 8 14t15 6zM33 31q21 0 17 -27q-17 -90 -84 -136l1 9q57 47 66 117h-4q-18 0 -16 19q6 18 20 18z" />
    <glyph glyph-name="less" unicode="&#x3c;" horiz-adv-x="492" 
d="M508 555l2 -7l-444 -179l380 -179l-4 -7l-396 186z" />
    <glyph glyph-name="equal" unicode="=" horiz-adv-x="544" 
d="M551 486l-2 -8h-474l2 8h474zM510 253l-2 -8h-474l2 8h474z" />
    <glyph glyph-name="greater" unicode="&#x3e;" horiz-adv-x="492" 
d="M92 555l396 -186l-462 -186l-2 7l444 179l-380 179z" />
    <glyph glyph-name="question" unicode="?" horiz-adv-x="458" 
d="M317 756q97 0 141 -57q44 -58 29 -144q-11 -65 -45 -105q-32 -39 -103 -83q-63 -41 -89 -79q-26 -36 -36 -96l-4 -24h-8l4 24q11 61 36 98q27 41 92 83q64 39 100 80q34 39 45 104q15 82 -27 136q-42 55 -134 55q-179 0 -231 -166l-8 1q24 82 86 127.5t152 45.5zM179 33
q21 0 18 -22q-4 -19 -23 -19q-20 0 -18 21q1 8 8 14t15 6z" />
    <glyph glyph-name="at" unicode="@" horiz-adv-x="787" 
d="M461 588q149 0 232 -98q84 -98 63 -246q-13 -89 -51 -141t-90 -52q-76 0 -59 85l5 26q-52 -115 -179 -115q-85 0 -127.5 54.5t-28.5 150.5q13 95 71 149t141 54q65 0 104.5 -31.5t47.5 -88.5l20 113h8l-54 -312q-14 -77 51 -77q49 0 85 50t48 137q19 145 -61 239
q-80 95 -226 95q-145 0 -254 -95q-108 -95 -128 -241q-19 -145 60 -239t226 -94q111 0 202 58l3 -8q-94 -58 -204 -58q-149 0 -233 97q-83 98 -62 246q21 147 131 245q110 97 259 97zM382 55q77 0 126.5 45.5t64.5 134.5l5 30q15 88 -23 135t-116 47q-81 0 -136.5 -52
t-68.5 -145q-13 -92 27.5 -143.5t120.5 -51.5z" />
    <glyph glyph-name="A" unicode="A" horiz-adv-x="663" 
d="M423 748l171 -748h-8l-58 256h-389l-148 -256h-10l434 748h8zM418 736l-275 -472h383z" />
    <glyph glyph-name="B" unicode="B" horiz-adv-x="660" 
d="M66 0l132 748h235q93 0 143 -50t34 -138q-29 -153 -152 -175q71 -15 103.5 -64.5t18.5 -128.5q-16 -96 -86 -144q-69 -48 -161 -48h-267zM431 740h-227l-61 -351h273q156 0 186 173q15 84 -31.5 131t-139.5 47zM414 381h-273l-66 -373h259q89 0 154 46q68 47 84 140
q17 94 -32 140.5t-126 46.5z" />
    <glyph glyph-name="C" unicode="C" horiz-adv-x="785" 
d="M506 756q130 0 210 -73q82 -71 80 -193l-8 -1q3 117 -77 188t-204 71q-153 0 -260 -100q-107 -99 -128 -275q-21 -174 63 -274q84 -99 234 -99q126 0 217 63q93 63 126 175l8 -1q-35 -115 -129 -180q-95 -65 -221 -65q-154 0 -241 102q-87 103 -65 281q23 180 131 279
q110 102 264 102z" />
    <glyph glyph-name="D" unicode="D" horiz-adv-x="793" 
d="M66 0l132 748h251q151 0 235 -100q85 -100 64 -275q-21 -173 -132 -273q-110 -100 -262 -100h-288zM448 740h-244l-129 -732h279q147 0 256 98q109 97 130 269q21 169 -62 267t-230 98z" />
    <glyph glyph-name="E" unicode="E" horiz-adv-x="579" 
d="M637 748l-2 -8h-431l-61 -346h387l-1 -8h-387l-67 -378h431l-1 -8h-439l132 748h439z" />
    <glyph glyph-name="F" unicode="F" horiz-adv-x="575" 
d="M638 748l-2 -8h-432l-62 -356h368l-2 -8h-368l-66 -376h-8l132 748h440z" />
    <glyph glyph-name="G" unicode="G" horiz-adv-x="803" 
d="M502 756q131 0 214 -74q85 -74 80 -200l-8 -1q4 124 -77 195q-81 72 -208 72q-150 0 -256 -100q-107 -99 -128 -275q-21 -174 61 -274q82 -99 230 -99t246 86q97 85 118 249h-317l1 8h325l-1 -8q-21 -164 -119 -253.5t-252 -89.5q-151 0 -237 102t-63 281q23 180 131 279
q110 102 260 102z" />
    <glyph glyph-name="H" unicode="H" horiz-adv-x="741" 
d="M719 748l-132 -748h-8l69 389h-505l-69 -389h-8l132 748h8l-62 -351h505l62 351h8z" />
    <glyph glyph-name="I" unicode="I" horiz-adv-x="228" 
d="M206 748l-132 -748h-8l132 748h8z" />
    <glyph glyph-name="J" unicode="J" horiz-adv-x="533" 
d="M523 748h8l-97 -549q-18 -99 -78 -153t-151 -54q-93 0 -138.5 55.5t-32.5 152.5h8q-13 -94 31 -147t131 -53q88 0 146.5 52t75.5 147z" />
    <glyph glyph-name="K" unicode="K" horiz-adv-x="616" 
d="M623 748l-381 -330l300 -418h-10l-295 412l-106 -90l-57 -322h-8l132 748h8l-74 -416l480 416h11z" />
    <glyph glyph-name="L" unicode="L" horiz-adv-x="591" 
d="M206 748l-131 -740h439l-1 -8h-447l132 748h8z" />
    <glyph glyph-name="M" unicode="M" horiz-adv-x="991" 
d="M969 748l-132 -748h-8l127 722l-499 -722h-8l-248 724l-127 -724h-8l131 748h5l252 -737l510 737h5z" />
    <glyph glyph-name="N" unicode="N" horiz-adv-x="731" 
d="M709 748l-132 -748h-6l-368 730l-129 -730h-8l132 748h5l369 -730l129 730h8z" />
    <glyph glyph-name="O" unicode="O" horiz-adv-x="854" 
d="M517 756q154 0 245 -103t69 -280q-22 -174 -138 -278q-115 -103 -268 -103q-154 0 -245 103t-69 280q23 177 137 278q115 103 269 103zM518 748q-149 0 -264 -101q-113 -101 -135 -274q-22 -170 67 -272q89 -101 238 -101q150 0 263 101q113 100 136 274q22 171 -67 272
t-238 101z" />
    <glyph glyph-name="P" unicode="P" horiz-adv-x="626" 
d="M66 0l132 748h239q90 0 146 -53q54 -52 44 -155q-11 -102 -78 -154q-67 -53 -157 -53h-259l-59 -333h-8zM435 740h-231l-70 -399h259q87 0 151 51t75 150t-43 148q-55 50 -141 50z" />
    <glyph glyph-name="Q" unicode="Q" horiz-adv-x="854" 
d="M831 373q-23 -187 -156 -293l122 -148l-6 -6l-122 148q-107 -82 -244 -82q-154 0 -245 103t-69 280q23 177 137 278q115 103 269 103t245 -103t69 -280zM500 279l6 6l164 -199q130 103 153 289q22 171 -67 272t-238 101t-264 -101q-113 -101 -135 -274q-22 -170 67 -272
q89 -101 238 -101q136 0 239 81z" />
    <glyph glyph-name="R" unicode="R" horiz-adv-x="659" 
d="M623 543q-15 -87 -66 -137.5t-128 -62.5l140 -343h-9l-139 342q-26 -2 -33 -2h-254l-60 -340h-8l132 748h234q91 0 146 -52q56 -51 45 -153zM204 740l-69 -392h254q88 0 148.5 50t77.5 147q10 96 -44 146q-53 49 -141 49h-226z" />
    <glyph glyph-name="S" unicode="S" horiz-adv-x="645" 
d="M404 756q98 0 155 -47.5t53 -131.5l-9 -1q4 81 -49.5 126.5t-148.5 45.5q-109 0 -176.5 -51t-79.5 -132q-10 -71 27 -113q19 -19 46 -31q47 -20 128 -38h1q62 -13 91 -22q34 -9 67 -25q49 -21 65.5 -54t11.5 -94q-13 -97 -91 -147q-76 -49 -187 -49q-108 0 -176 50
t-63 138l8 1q-4 -82 61 -132q64 -49 169 -49q112 0 185.5 49t85.5 141q13 91 -49 126q-36 20 -68 30q-44 13 -97 26l-14 3q-50 11 -75 18q-19 6 -59 23q-33 15 -48 33q-38 46 -27 118q12 82 80 135q69 54 183 54z" />
    <glyph glyph-name="T" unicode="T" horiz-adv-x="668" 
d="M741 748l-2 -8h-315l-130 -740h-8l130 740h-315l2 8h638z" />
    <glyph glyph-name="U" unicode="U" horiz-adv-x="747" 
d="M747 748h8l-88 -498q-23 -125 -106 -191.5t-210 -66.5q-126 0 -187 67t-38 191l88 498h8l-88 -498q-21 -121 36.5 -185.5t179.5 -64.5q124 0 206 64.5t103 185.5z" />
    <glyph glyph-name="V" unicode="V" horiz-adv-x="695" 
d="M752 748l-445 -748h-8l-180 748h8l177 -737l439 737h9z" />
    <glyph glyph-name="W" unicode="W" horiz-adv-x="1110" 
d="M1167 748l-395 -748h-7l-125 730l-384 -730h-7l-130 748h8l127 -734l386 734h5l125 -734l388 734h9z" />
    <glyph glyph-name="X" unicode="X" horiz-adv-x="644" 
d="M688 748l-338 -369l216 -379h-9l-213 373l-343 -373h-11l350 381l-208 367h9l205 -361l331 361h11z" />
    <glyph glyph-name="Y" unicode="Y" horiz-adv-x="624" 
d="M687 748l-355 -408l-60 -340h-8l60 340l-211 408h9l207 -400l348 400h10z" />
    <glyph glyph-name="Z" unicode="Z" horiz-adv-x="607" 
d="M656 748l-2 -6l-647 -734h523l-1 -8h-537l1 5l648 735h-493l2 8h506z" />
    <glyph glyph-name="bracketleft" unicode="[" horiz-adv-x="209" 
d="M267 718l-2 -8h-111l-137 -779h111l-2 -8h-119l141 795h119z" />
    <glyph glyph-name="backslash" unicode="\" horiz-adv-x="293" 
d="M110 748l112 -815h-9l-110 815h7z" />
    <glyph glyph-name="bracketright" unicode="]" horiz-adv-x="209" 
d="M227 718l-141 -795h-119l2 8h111l137 779h-111l2 8h119z" />
    <glyph glyph-name="asciicircum" unicode="^" horiz-adv-x="500" 
d="M339 756l148 -380h-7l-143 364l-271 -364h-9z" />
    <glyph glyph-name="underscore" unicode="_" horiz-adv-x="680" 
d="M591 0l-1 -8h-590l1 8h590z" />
    <glyph glyph-name="grave" unicode="`" horiz-adv-x="195" 
d="M134 781l93 -191h-9l-94 191h10z" />
    <glyph glyph-name="a" unicode="a" horiz-adv-x="521" 
d="M308 508q80 0 113.5 -54.5t15.5 -153.5l-53 -300h-8l26 149q-31 -78 -89.5 -117.5t-131.5 -39.5q-69 0 -103.5 34.5t-25.5 97.5q18 124 203 136l169 10l5 29q17 97 -13.5 149t-106.5 52q-79 0 -132 -49q-54 -49 -64 -112h-8q12 69 67 118q56 51 136 51zM416 230l6 32
l-166 -10q-178 -10 -196 -130q-9 -57 23.5 -89.5t96.5 -32.5q88 0 152 58t84 172z" />
    <glyph glyph-name="b" unicode="b" horiz-adv-x="638" 
d="M200 777h8l-76 -429q32 79 93.5 119.5t143.5 40.5q103 0 162 -69q59 -68 42 -190q-16 -119 -95 -189q-77 -68 -179 -68q-85 0 -139 41.5t-62 118.5l-27 -152h-8zM370 500q-99 0 -165 -59t-86 -171l-9 -51q-20 -105 36 -162t152 -57q102 0 175 66q76 68 92 185
q17 117 -40 183q-55 66 -155 66z" />
    <glyph glyph-name="c" unicode="c" horiz-adv-x="558" 
d="M348 508q87 0 138.5 -49t48.5 -130h-8q1 80 -46.5 125.5t-131.5 45.5q-100 0 -171 -67q-72 -66 -88 -184q-16 -116 37 -183q54 -66 152 -66q83 0 142 41.5t82 115.5l9 -1q-24 -77 -85 -120.5t-147 -43.5q-102 0 -159 68q-56 69 -39 191q16 120 91 188q73 69 175 69z" />
    <glyph glyph-name="d" unicode="d" horiz-adv-x="638" 
d="M641 777l-137 -777h-8l27 152q-32 -79 -93.5 -119.5t-143.5 -40.5q-104 0 -163 68q-58 68 -41 191q16 120 94 188q78 69 180 69q85 0 139 -41.5t62 -118.5l76 429h8zM357 500q-102 0 -176 -67q-75 -67 -91 -184t39 -183q57 -66 156 -66t165 59t86 171l9 51
q19 105 -36 162t-152 57z" />
    <glyph glyph-name="e" unicode="e" horiz-adv-x="581" 
d="M351 508q104 0 153 -67q50 -67 33 -174l-2 -17h-445q-16 -117 39 -184q55 -66 152 -66q80 0 139.5 38t86.5 105l8 -1q-29 -72 -89.5 -111t-143.5 -39q-100 0 -159 69q-58 68 -41 190q17 120 92 188q75 69 177 69zM91 258h438l1 9q15 103 -32 168t-146 65q-98 0 -171 -64
q-72 -65 -90 -178z" />
    <glyph glyph-name="f" unicode="f" horiz-adv-x="294" 
d="M354 779q9 0 23 -2l-1 -8q-16 2 -21 2q-61 0 -100.5 -37t-51.5 -106l-23 -128h144l-1 -8h-144l-87 -492h-8l87 492h-108l1 8h108l23 128q12 73 54 112t105 39z" />
    <glyph glyph-name="g" unicode="g" horiz-adv-x="638" 
d="M339 508q85 0 139 -41.5t62 -118.5l27 152h8l-95 -542q-18 -104 -90 -162q-71 -59 -170 -59q-86 0 -138.5 43.5t-57.5 113.5h9q3 -67 56 -108t130 -41q97 0 166 57q71 56 87 156l34 194q-32 -79 -93.5 -119.5t-143.5 -40.5q-104 0 -163 68q-58 68 -41 191q16 120 94 188
q78 69 180 69zM340 500q-102 0 -176 -67q-75 -67 -91 -184q-17 -117 39 -183q57 -66 156 -66t165 59t86 171l9 51q20 105 -36 162t-152 57z" />
    <glyph glyph-name="h" unicode="h" horiz-adv-x="585" 
d="M200 777h8l-72 -409q23 56 81 98q60 42 131 42q83 0 126 -55q44 -56 29 -140l-55 -313h-8l55 313q15 82 -27 134q-41 53 -119 53q-81 0 -146 -56q-63 -54 -77 -131l-55 -313h-8z" />
    <glyph glyph-name="i" unicode="i" 
d="M207 705q-1 -16 -18 -16q-16 0 -14 17q1 16 18 16q16 0 14 -17zM159 500l-88 -500h-8l88 500h8z" />
    <glyph glyph-name="j" unicode="j" 
d="M207 705q-1 -16 -18 -16q-16 0 -14 17q1 16 18 16q16 0 14 -17zM152 500h8l-107 -609q-25 -148 -147 -148q-3 0 -25 2l1 8q22 -2 23 -2q114 0 140 140z" />
    <glyph glyph-name="k" unicode="k" horiz-adv-x="478" 
d="M208 777l-97 -552l347 275h13l-281 -222l226 -278h-10l-222 273l-75 -60l-38 -213h-8l137 777h8z" />
    <glyph glyph-name="l" unicode="l" horiz-adv-x="222" 
d="M208 777l-137 -777h-8l137 777h8z" />
    <glyph glyph-name="m" unicode="m" horiz-adv-x="941" 
d="M702 508q82 0 122 -55q40 -54 25 -140l-55 -313h-8l55 313q15 83 -23 135t-115 52q-81 0 -143 -56q-60 -55 -73 -131l-55 -313h-8l55 313q15 83 -23 135t-115 52q-81 0 -142 -56q-60 -55 -73 -131l-55 -313h-8l88 500h8l-23 -132q23 58 78 98q56 42 126 42
q69 0 110 -41.5t41 -110.5q28 69 84.5 110.5t126.5 41.5z" />
    <glyph glyph-name="n" unicode="n" horiz-adv-x="595" 
d="M345 508q83 0 128 -55t30 -140l-55 -313h-8l55 313q14 83 -29 134q-42 53 -120 53q-82 0 -144 -56q-61 -55 -75 -131l-56 -313h-8l88 500h8l-22 -132q23 57 80 98q57 42 128 42z" />
    <glyph glyph-name="o" unicode="o" horiz-adv-x="620" 
d="M362 508q105 0 166 -70t44 -189q-16 -115 -97 -187q-79 -70 -183 -70q-105 0 -166 70t-44 189q16 116 96 187q79 70 184 70zM363 500q-102 0 -179 -68q-78 -69 -94 -183q-17 -115 41 -182t160 -67t179 68q78 69 94 183t-42 181q-59 68 -159 68z" />
    <glyph glyph-name="p" unicode="p" horiz-adv-x="638" 
d="M369 508q103 0 162 -69q59 -68 42 -190q-16 -119 -95 -189q-77 -68 -179 -68q-85 0 -139 41.5t-62 118.5l-72 -407h-8l133 755h8l-27 -152q32 79 93.5 119.5t143.5 40.5zM370 500q-99 0 -165 -59t-86 -171l-9 -51q-20 -105 36 -162t152 -57q102 0 175 66q76 68 92 185
q17 117 -40 183q-55 66 -155 66z" />
    <glyph glyph-name="q" unicode="q" horiz-adv-x="638" 
d="M356 508q85 0 139 -41.5t62 -118.5l27 152h8l-133 -755h-8l72 407q-32 -79 -93.5 -119.5t-143.5 -40.5q-104 0 -163 68q-58 68 -41 191q16 120 94 188q78 69 180 69zM357 500q-102 0 -176 -67q-75 -67 -91 -184t39 -183q57 -66 156 -66t165 59t86 171l9 51
q19 105 -36 162t-152 57z" />
    <glyph glyph-name="r" unicode="r" horiz-adv-x="290" 
d="M320 508l-1 -8q-72 0 -125 -50q-52 -49 -64 -117l-59 -333h-8l88 500h8l-20 -112q21 51 70.5 85.5t110.5 34.5z" />
    <glyph glyph-name="s" unicode="s" horiz-adv-x="490" 
d="M277 507q68 1 103 -31t36 -93l-8 -1q0 57 -33.5 87.5t-96.5 29.5q-74 1 -118.5 -32.5t-53.5 -92.5q-10 -62 39 -84q21 -9 93 -25q94 -21 130 -48q37 -26 26 -88q-11 -66 -62 -101.5t-128 -35.5q-73 0 -115 32.5t-44 94.5l8 1q2 -59 41.5 -89.5t108.5 -30.5
q76 0 124.5 33.5t58.5 97.5q9 57 -25 81q-33 24 -125 45q-82 19 -98 28q-50 25 -40 91q9 61 55.5 96.5t123.5 34.5z" />
    <glyph glyph-name="t" unicode="t" horiz-adv-x="295" 
d="M321 492h-159l-64 -353q-23 -134 83 -134q29 0 57 6l-2 -9q-20 -5 -55 -5q-116 0 -91 142l64 353h-96l1 8h96l33 183h8l-33 -183h159z" />
    <glyph glyph-name="u" unicode="u" horiz-adv-x="576" 
d="M528 500l-88 -500h-8l23 132q-23 -57 -78 -99q-55 -41 -125 -41q-81 0 -120.5 53.5t-24.5 141.5l55 313h8l-55 -313q-15 -84 22 -135.5t114 -51.5q83 0 141 55q59 55 73 132l55 313h8z" />
    <glyph glyph-name="v" unicode="v" horiz-adv-x="475" 
d="M501 500l-304 -500h-6l-129 500h8l126 -486l296 486h9z" />
    <glyph glyph-name="w" unicode="w" horiz-adv-x="786" 
d="M812 500l-276 -500h-6l-96 485l-265 -485h-6l-101 500h8l98 -484l265 484h6l96 -484l268 484h9z" />
    <glyph glyph-name="x" unicode="x" horiz-adv-x="465" 
d="M467 500l-227 -240l156 -260h-10l-152 255l-241 -255h-12l249 262l-143 238h10l139 -233l220 233h11z" />
    <glyph glyph-name="y" unicode="y" horiz-adv-x="475" 
d="M491 500l-444 -755h-9l152 259l-118 496h8l116 -486l286 486h9z" />
    <glyph glyph-name="z" unicode="z" horiz-adv-x="438" 
d="M437 500l-1 -6l-434 -486h365l-1 -8h-378l1 6l434 486h-340l1 8h353z" />
    <glyph glyph-name="braceleft" unicode="{" horiz-adv-x="183" 
d="M250 717l-1 -8h-6q-58 0 -86 -52.5t-23 -151.5q0 -44 0.5 -81t-12.5 -66t-40 -38q37 -14 25 -70q-10 -44 -39 -117q-39 -97 -29.5 -149.5t67.5 -52.5h6l-2 -8h-6q-63 0 -74 56.5t31 157.5q11 27 18 47q21 56 21 79q3 53 -45 53h-8l1 8h8q36 0 53 25t17.5 65.5t-0.5 90.5
q-5 102 25 157t93 55h6z" />
    <glyph glyph-name="bar" unicode="|" horiz-adv-x="208" 
d="M196 748l-144 -815h-8l144 815h8z" />
    <glyph glyph-name="braceright" unicode="}" horiz-adv-x="183" 
d="M106 709l1 8h6q63 0 74 -56.5t-30 -157.5l-19 -47q-20 -60 -21 -79q0 -27 9.5 -40t36.5 -13h8l-1 -8h-8q-36 0 -53 -25t-17.5 -65.5t0.5 -90.5q5 -102 -25.5 -157t-93.5 -55h-6l2 8h6q58 0 86 52.5t23 151.5q-2 31 -1.5 61.5t4 55t15.5 43t33 25.5q-36 13 -24 70
q9 44 38 117q26 64 30.5 109.5t-12.5 69t-55 23.5h-6z" />
    <glyph glyph-name="asciitilde" unicode="~" horiz-adv-x="525" 
d="M512 408l5 -5q-39 -39 -72 -55.5t-77 -16.5q-64 0 -100 34q-35 35 -78 35q-40 0 -67 -14t-67 -52l-5 5q40 39 69.5 54t69.5 15q47 0 82 -35q40 -34 96 -34q47 0 75 16q32 18 69 53z" />
    <glyph glyph-name="exclamdown" unicode="&#xa1;" horiz-adv-x="221" 
d="M148 467q-21 0 -18 22q4 19 23 19q20 0 18 -21q-1 -8 -8 -14t-15 -6zM17 -248l102 580h8l-102 -580h-8z" />
    <glyph glyph-name="cent" unicode="&#xa2;" horiz-adv-x="558" 
d="M375 627h8l-20 -119q81 -5 127.5 -53t43.5 -126h-8q1 80 -46.5 125.5t-131.5 45.5q-100 0 -171 -67q-72 -66 -88 -184q-16 -116 37 -183q54 -66 152 -66q83 0 142 41.5t82 115.5l9 -1q-24 -77 -85 -120.5t-147 -43.5h-7l-20 -110h-8l20 110q-95 4 -148 73q-51 70 -35 186
q16 120 91 188q74 69 175 69h8z" />
    <glyph glyph-name="sterling" unicode="&#xa3;" horiz-adv-x="521" 
d="M394 757q79 1 114.5 -42t23.5 -114h-8q12 68 -20.5 108t-108.5 40q-175 0 -199 -219l-18 -165h202l-1 -8h-202l-13 -126q-8 -74 -44.5 -126.5t-102.5 -96.5h426l-1 -8h-441l1 8q70 45 107.5 97t45.5 125l14 127h-121l1 8h120l18 164q24 227 207 228z" />
    <glyph glyph-name="currency" unicode="&#xa4;" horiz-adv-x="570" 
d="M451 252q-15 -86 -71 -139l108 -130l-7 -5l-107 129q-53 -46 -121 -46q-70 0 -108 47l-152 -130l-5 5l153 131q-38 54 -22 140q15 86 71 139l-107 130l7 5l107 -129q53 46 121 46q71 0 107 -47l153 130l5 -5l-153 -131q37 -52 21 -140zM252 69q67 0 122 50q55 49 70 135
q15 83 -21 133t-104 50t-124 -50q-54 -49 -69 -135q-15 -85 22 -134t104 -49z" />
    <glyph glyph-name="yen" unicode="&#xa5;" horiz-adv-x="624" 
d="M687 748l-353 -406h148l-1 -8h-150l-22 -124h150l-1 -8h-150l-36 -202h-8l36 202h-150l1 8h150l22 124h-150l1 8h149l-210 406h9l207 -400l348 400h10z" />
    <glyph glyph-name="brokenbar" unicode="&#xa6;" horiz-adv-x="208" 
d="M196 748l-56 -319h-8l56 319h8zM108 252l-56 -319h-8l56 319h8z" />
    <glyph glyph-name="section" unicode="&#xa7;" horiz-adv-x="499" 
d="M332 756q76 0 118 -36.5t33 -100.5h-8q9 60 -30.5 94.5t-111.5 34.5q-68 0 -115 -34.5t-56 -95.5q-7 -47 18 -78q10 -12 32 -22q40 -17 87 -27q73 -17 106 -40q44 -28 33 -93q-7 -43 -27 -68.5t-64 -49.5q47 -18 65.5 -46.5t10.5 -75.5q-12 -70 -67 -108t-136 -38
q-83 0 -130.5 39.5t-38.5 107.5h8q-9 -65 35.5 -102t124.5 -37q79 0 132 36.5t64 103.5q10 51 -21 84q-12 13 -38 24q-29 12 -100 29q-77 18 -113 45q-35 28 -25 88q6 41 27 68t64 52q-36 18 -49 43t-6 67q11 65 59.5 100.5t118.5 35.5zM430 360q11 60 -32 85
q-34 23 -100 38q-48 11 -81 24q-43 -26 -64 -52t-28 -67q-10 -57 32 -86q37 -22 101 -37q56 -13 80 -22q45 26 65.5 51t26.5 66z" />
    <glyph glyph-name="dieresis" unicode="&#xa8;" horiz-adv-x="192" 
d="M131 699q17 0 14 -17q-2 -14 -17 -14q-17 0 -14 16q2 15 17 15zM224 699q16 0 13 -17q-2 -14 -16 -14q-18 0 -15 16q1 6 6.5 10.5t11.5 4.5z" />
    <glyph glyph-name="copyright" unicode="&#xa9;" horiz-adv-x="566" 
d="M377 756q105 0 167 -72q62 -73 47 -177q-14 -104 -96 -176q-83 -71 -185 -71q-106 0 -167 72q-62 73 -47 177q14 105 96 175q82 72 185 72zM379 748q-100 0 -182 -71q-81 -72 -94 -170q-13 -100 45 -170q60 -69 160 -69q102 0 181 70q82 71 95 171q14 101 -46 169
q-58 70 -159 70zM372 663q54 0 85.5 -30t27.5 -78h-8q3 45 -26.5 72.5t-78.5 27.5q-60 0 -104.5 -40.5t-56.5 -108.5q-12 -66 19 -106.5t89 -40.5q48 0 86.5 25t53.5 67h8q-16 -46 -56 -73t-91 -27q-63 0 -96 43t-21 114q13 70 60.5 112.5t108.5 42.5z" />
    <glyph glyph-name="ordfeminine" unicode="&#xaa;" horiz-adv-x="422" 
d="M302 755q65 0 92.5 -39t14.5 -112l-45 -256h-8l20 115q-24 -59 -71 -90t-104 -31q-56 0 -85 26.5t-22 76.5q15 101 164 112l136 9l7 38q26 143 -99 143q-62 0 -103 -38q-42 -39 -49 -90h-8q9 55 51 96q43 40 109 40zM388 532l5 26l-134 -9q-142 -10 -157 -104
q-6 -47 20.5 -71t78.5 -24q69 0 119.5 46t67.5 136z" />
    <glyph glyph-name="guillemotleft" unicode="&#xab;" horiz-adv-x="464" 
d="M250 447l4 -6l-226 -193l158 -193l-6 -6l-165 199zM469 447l4 -6l-226 -193l158 -193l-6 -6l-165 199z" />
    <glyph glyph-name="logicalnot" unicode="&#xac;" horiz-adv-x="495" 
d="M461 367l-32 -178h-8l30 170h-387l2 8h395z" />
    <glyph glyph-name="registered" unicode="&#xae;" horiz-adv-x="566" 
d="M377 756q105 0 167 -72q62 -73 47 -177q-14 -104 -96 -176q-83 -71 -185 -71q-106 0 -167 72q-62 73 -47 177q14 105 96 175q82 72 185 72zM379 748q-100 0 -182 -71q-81 -72 -94 -170q-13 -100 45 -170q60 -69 160 -69q102 0 181 70q82 71 95 171q14 101 -46 169
q-58 70 -159 70zM224 353l54 306h102q41 0 61.5 -22t12.5 -63q-12 -68 -78 -81l57 -140h-9l-56 138q-4 -1 -18 -1h-94l-24 -137h-8zM446 576q7 38 -11.5 56.5t-55.5 18.5h-94l-27 -153h94q37 0 62 20t32 58z" />
    <glyph glyph-name="overscore" unicode="&#xaf;" horiz-adv-x="265" 
d="M313 664l-1 -8h-215l1 8h215z" />
    <glyph glyph-name="degree" unicode="&#xb0;" horiz-adv-x="309" 
d="M252 756q56 0 82.5 -33t16.5 -93l-4 -22q-10 -59 -48 -92.5t-93 -33.5t-81.5 33t-16.5 93l4 22q10 59 47.5 92.5t92.5 33.5zM253 748q-52 0 -87.5 -31t-45.5 -87l-4 -22q-10 -56 14 -87t75 -31q52 0 88 31.5t46 86.5l4 22q10 54 -14.5 86t-75.5 32z" />
    <glyph glyph-name="plusminus" unicode="&#xb1;" horiz-adv-x="544" 
d="M353 685l-40 -227h233l-2 -8h-233l-41 -236h-8l41 236h-233l2 8h233l40 227h8zM489 136l-2 -8h-474l2 8h474z" />
    <glyph glyph-name="acute" unicode="&#xb4;" horiz-adv-x="195" 
d="M259 781l-162 -191h-9l161 191h10z" />
    <glyph glyph-name="paragraph" unicode="&#xb6;" horiz-adv-x="608" 
d="M683 748l-2 -8h-68l-142 -807h-8l142 807h-176l-142 -807h-8l81 460h-65q-89 0 -135.5 47t-34.5 132q12 83 72 129.5t149 46.5h337z" />
    <glyph glyph-name="middot" unicode="&#xb7;" horiz-adv-x="147" 
d="M79 279q21 0 18 -22q-4 -19 -23 -19q-20 0 -18 21q1 8 8 14t15 6z" />
    <glyph glyph-name="cedilla" unicode="&#xb8;" horiz-adv-x="274" 
d="M79 3h8l-28 -79q57 1 84 -20.5t20 -63.5q-6 -34 -38.5 -55t-74.5 -21q-56 0 -96 28l5 7q39 -27 91 -27q40 0 69.5 19t35.5 51q6 35 -17.5 54.5t-74.5 19.5q-13 0 -16 -1z" />
    <glyph glyph-name="ordmasculine" unicode="&#xba;" horiz-adv-x="497" 
d="M342 755q85 0 133 -56t35 -152q-12 -94 -77 -150q-64 -55 -148 -55t-132 55q-48 56 -35 152q12 95 76 150q65 56 148 56zM343 747q-81 0 -143 -54q-61 -54 -75 -146q-12 -91 34 -144q47 -53 126 -53q81 0 143 53q61 54 75 146q13 89 -34 144q-47 54 -126 54z" />
    <glyph glyph-name="guillemotright" unicode="&#xbb;" horiz-adv-x="464" 
d="M65 447l165 -199l-235 -199l-4 6l226 193l-158 193zM284 447l165 -199l-235 -199l-4 6l226 193l-158 193z" />
    <glyph glyph-name="onequarter" unicode="&#xbc;" horiz-adv-x="630" 
d="M659 748l-686 -748h-10l686 748h10zM220 733l-72 -411h-8l70 398l-117 -86l-4 6l125 93h6zM548 411l-48 -276h87l-2 -8h-87l-22 -127h-8l22 127h-197l1 7l250 277h4zM537 391l-231 -256h186z" />
    <glyph glyph-name="onehalf" unicode="&#xbd;" horiz-adv-x="658" 
d="M659 748l-686 -748h-10l686 748h10zM220 733l-72 -411h-8l70 398l-117 -86l-4 6l125 93h6zM538 416q50 0 73.5 -31.5t14.5 -82.5q-8 -47 -35 -86t-82 -86l-142 -122h215l-1 -8h-229l1 6l149 129q55 48 81.5 85t34.5 83q8 48 -12.5 76.5t-67.5 28.5q-52 0 -86 -30t-44 -83
l-8 1q11 57 47.5 88.5t90.5 31.5z" />
    <glyph glyph-name="threequarters" unicode="&#xbe;" horiz-adv-x="738" 
d="M773 748l-686 -748h-10l686 748h10zM243 738q50 0 74 -28t16 -76q-6 -36 -34 -64t-61 -34q40 -5 60.5 -33t12.5 -73q-9 -51 -47 -81.5t-91 -30.5q-109 0 -103 114l8 1q-2 -52 22 -79.5t73 -27.5q52 0 87 28.5t43 77.5q9 47 -17.5 73t-79.5 26h-37l1 8h37q43 0 77 27.5
t41 69.5q8 44 -14 69t-67 25q-47 0 -80 -27t-44 -75h-8q13 51 47.5 80.5t83.5 29.5zM662 411l-48 -276h87l-2 -8h-87l-22 -127h-8l22 127h-197l1 7l250 277h4zM651 391l-231 -256h186z" />
    <glyph glyph-name="questiondown" unicode="&#xbf;" horiz-adv-x="458" 
d="M293 467q-21 0 -18 22q4 19 23 19q20 0 18 -21q-1 -8 -8 -14t-15 -6zM155 -256q-97 0 -141 57q-44 58 -29 144q10 64 44 105q34 40 104 83q63 41 89 78q26 38 36 97l4 24h8l-4 -24q-10 -60 -36 -99q-27 -40 -92 -82q-64 -39 -100 -80q-34 -39 -45 -104q-15 -82 27 -136
q42 -55 134 -55q179 0 231 166l8 -1q-24 -82 -86 -127.5t-152 -45.5z" />
    <glyph glyph-name="Agrave" unicode="&#xc0;" horiz-adv-x="663" 
d="M282 919l153 -124h-14l-155 124h16zM423 748l171 -748h-8l-58 256h-389l-148 -256h-10l434 748h8zM418 736l-275 -472h383z" />
    <glyph glyph-name="Aacute" unicode="&#xc1;" horiz-adv-x="663" 
d="M633 919l-199 -124h-14l197 124h16zM423 748l171 -748h-8l-58 256h-389l-148 -256h-10l434 748h8zM418 736l-275 -472h383z" />
    <glyph glyph-name="Acircumflex" unicode="&#xc2;" horiz-adv-x="663" 
d="M452 916l101 -121h-11l-94 110l-134 -110h-11l145 121h4zM423 748l171 -748h-8l-58 256h-389l-148 -256h-10l434 748h8zM418 736l-275 -472h383z" />
    <glyph glyph-name="Atilde" unicode="&#xc3;" horiz-adv-x="663" 
d="M376 904q31 0 66 -35t62 -35t46.5 18t24.5 45h8q-6 -31 -27.5 -51t-50.5 -20q-32 0 -67 35t-62 35t-46.5 -18t-24.5 -45h-8q6 30 28 50.5t51 20.5zM423 748l171 -748h-8l-58 256h-389l-148 -256h-10l434 748h8zM418 736l-275 -472h383z" />
    <glyph glyph-name="Adieresis" unicode="&#xc4;" horiz-adv-x="663" 
d="M396 871q17 0 14 -17q-5 -14 -18 -14q-17 0 -14 16q4 15 18 15zM489 871q16 0 13 -17q-5 -14 -17 -14q-18 0 -15 16q4 15 19 15zM423 748l171 -748h-8l-58 256h-389l-148 -256h-10l434 748h8zM418 736l-275 -472h383z" />
    <glyph glyph-name="Aring" unicode="&#xc5;" horiz-adv-x="663" 
d="M457 963q39 0 60 -24t14 -62q-7 -36 -36.5 -60t-65.5 -24q-39 0 -60 24t-14 62q7 36 36.5 60t65.5 24zM458 955q-34 0 -61.5 -22.5t-33.5 -55.5q-6 -32 13.5 -54t52.5 -22q34 0 61 22t33 56q6 33 -13 54.5t-52 21.5zM423 748l171 -748h-8l-58 256h-389l-148 -256h-10
l434 748h8zM418 736l-275 -472h383z" />
    <glyph glyph-name="AE" unicode="&#xc6;" horiz-adv-x="975" 
d="M1031 740h-431l-61 -346h387l-1 -8h-387l-67 -378h431l-1 -8h-439l45 256h-313l-213 -256h-10l623 748h439zM509 264l82 469l-391 -469h309z" />
    <glyph glyph-name="Ccedilla" unicode="&#xc7;" horiz-adv-x="785" 
d="M506 756q130 0 210 -73q82 -71 80 -193l-8 -1q3 117 -77 188t-204 71q-153 0 -260 -100q-107 -99 -128 -275q-21 -174 63 -274q84 -99 234 -99q126 0 217 63q93 63 126 175l8 -1q-33 -114 -126 -178q-93 -66 -217 -67l-26 -73q57 1 84 -20.5t20 -63.5q-6 -34 -38.5 -55
t-74.5 -21q-56 0 -96 28l5 7q39 -27 91 -27q40 0 69.5 19t35.5 51q6 35 -17.5 54.5t-74.5 19.5q-13 0 -16 -1l30 82q-154 1 -241 102q-86 103 -64 281q23 180 131 279q110 102 264 102z" />
    <glyph glyph-name="Egrave" unicode="&#xc8;" horiz-adv-x="579" 
d="M284 919l153 -124h-14l-155 124h16zM637 748l-2 -8h-431l-61 -346h387l-1 -8h-387l-67 -378h431l-1 -8h-439l132 748h439z" />
    <glyph glyph-name="Eacute" unicode="&#xc9;" horiz-adv-x="579" 
d="M635 919l-199 -124h-14l197 124h16zM637 748l-2 -8h-431l-61 -346h387l-1 -8h-387l-67 -378h431l-1 -8h-439l132 748h439z" />
    <glyph glyph-name="Ecircumflex" unicode="&#xca;" horiz-adv-x="579" 
d="M454 916l101 -121h-11l-94 110l-134 -110h-11l145 121h4zM637 748l-2 -8h-431l-61 -346h387l-1 -8h-387l-67 -378h431l-1 -8h-439l132 748h439z" />
    <glyph glyph-name="Edieresis" unicode="&#xcb;" horiz-adv-x="579" 
d="M398 871q17 0 14 -17q-5 -14 -18 -14q-17 0 -14 16q4 15 18 15zM491 871q16 0 13 -17q-5 -14 -17 -14q-18 0 -15 16q4 15 19 15zM637 748l-2 -8h-431l-61 -346h387l-1 -8h-387l-67 -378h431l-1 -8h-439l132 748h439z" />
    <glyph glyph-name="Igrave" unicode="&#xcc;" horiz-adv-x="228" 
d="M64 919l153 -124h-14l-155 124h16zM206 748l-132 -748h-8l132 748h8z" />
    <glyph glyph-name="Iacute" unicode="&#xcd;" horiz-adv-x="228" 
d="M415 919l-199 -124h-14l197 124h16zM206 748l-132 -748h-8l132 748h8z" />
    <glyph glyph-name="Icircumflex" unicode="&#xce;" horiz-adv-x="228" 
d="M234 916l101 -121h-11l-94 110l-134 -110h-11l145 121h4zM206 748l-132 -748h-8l132 748h8z" />
    <glyph glyph-name="Idieresis" unicode="&#xcf;" horiz-adv-x="228" 
d="M178 871q17 0 14 -17q-5 -14 -18 -14q-17 0 -14 16q4 15 18 15zM271 871q16 0 13 -17q-5 -14 -17 -14q-18 0 -15 16q4 15 19 15zM206 748l-132 -748h-8l132 748h8z" />
    <glyph glyph-name="Eth" unicode="&#xd0;" horiz-adv-x="778" 
d="M133 378l65 370h251q151 0 235 -100q85 -100 64 -275q-21 -173 -132 -273q-110 -100 -262 -100h-288l65 370h-114l2 8h114zM740 375q21 169 -62 267t-230 98h-244l-64 -362h227l-2 -8h-226l-64 -362h279q147 0 256 98q109 97 130 269z" />
    <glyph glyph-name="Ntilde" unicode="&#xd1;" horiz-adv-x="731" 
d="M410 904q31 0 66 -35t62 -35t46.5 18t24.5 45h8q-6 -31 -27.5 -51t-50.5 -20q-32 0 -67 35t-62 35t-46.5 -18t-24.5 -45h-8q6 30 28 50.5t51 20.5zM709 748l-132 -748h-6l-368 730l-129 -730h-8l132 748h5l369 -730l129 730h8z" />
    <glyph glyph-name="Ograve" unicode="&#xd2;" horiz-adv-x="854" 
d="M374 919l153 -124h-14l-155 124h16zM517 756q154 0 245 -103t69 -280q-22 -174 -138 -278q-115 -103 -268 -103q-154 0 -245 103t-69 280q23 177 137 278q115 103 269 103zM518 748q-149 0 -264 -101q-113 -101 -135 -274q-22 -170 67 -272q89 -101 238 -101
q150 0 263 101q113 100 136 274q22 171 -67 272t-238 101z" />
    <glyph glyph-name="Oacute" unicode="&#xd3;" horiz-adv-x="854" 
d="M725 919l-199 -124h-14l197 124h16zM517 756q154 0 245 -103t69 -280q-22 -174 -138 -278q-115 -103 -268 -103q-154 0 -245 103t-69 280q23 177 137 278q115 103 269 103zM518 748q-149 0 -264 -101q-113 -101 -135 -274q-22 -170 67 -272q89 -101 238 -101
q150 0 263 101q113 100 136 274q22 171 -67 272t-238 101z" />
    <glyph glyph-name="Ocircumflex" unicode="&#xd4;" horiz-adv-x="854" 
d="M544 916l101 -121h-11l-94 110l-134 -110h-11l145 121h4zM517 756q154 0 245 -103t69 -280q-22 -174 -138 -278q-115 -103 -268 -103q-154 0 -245 103t-69 280q23 177 137 278q115 103 269 103zM518 748q-149 0 -264 -101q-113 -101 -135 -274q-22 -170 67 -272
q89 -101 238 -101q150 0 263 101q113 100 136 274q22 171 -67 272t-238 101z" />
    <glyph glyph-name="Otilde" unicode="&#xd5;" horiz-adv-x="854" 
d="M468 904q31 0 66 -35t62 -35t46.5 18t24.5 45h8q-6 -31 -27.5 -51t-50.5 -20q-32 0 -67 35t-62 35t-46.5 -18t-24.5 -45h-8q6 30 28 50.5t51 20.5zM517 756q154 0 245 -103t69 -280q-22 -174 -138 -278q-115 -103 -268 -103q-154 0 -245 103t-69 280q23 177 137 278
q115 103 269 103zM518 748q-149 0 -264 -101q-113 -101 -135 -274q-22 -170 67 -272q89 -101 238 -101q150 0 263 101q113 100 136 274q22 171 -67 272t-238 101z" />
    <glyph glyph-name="Odieresis" unicode="&#xd6;" horiz-adv-x="854" 
d="M488 871q17 0 14 -17q-5 -14 -18 -14q-17 0 -14 16q4 15 18 15zM581 871q16 0 13 -17q-5 -14 -17 -14q-18 0 -15 16q4 15 19 15zM517 756q154 0 245 -103t69 -280q-22 -174 -138 -278q-115 -103 -268 -103q-154 0 -245 103t-69 280q23 177 137 278q115 103 269 103z
M518 748q-149 0 -264 -101q-113 -101 -135 -274q-22 -170 67 -272q89 -101 238 -101q150 0 263 101q113 100 136 274q22 171 -67 272t-238 101z" />
    <glyph glyph-name="multiply" unicode="&#xd7;" horiz-adv-x="491" 
d="M474 548l4 -7l-205 -174l147 -178l-6 -5l-147 179l-214 -182l-5 7l214 181l-148 178l6 5l148 -179z" />
    <glyph glyph-name="Oslash" unicode="&#xd8;" horiz-adv-x="854" 
d="M793 767l5 -5l-80 -86q116 -107 91 -303q-22 -174 -138 -278q-115 -103 -268 -103q-151 0 -238 95l-98 -104l-5 5l98 105q-93 107 -71 282q23 177 137 278q115 103 269 103q131 0 217 -75zM97 373q-23 -170 69 -274l541 576q-83 73 -211 73q-149 0 -264 -101
q-113 -101 -135 -274zM801 375q26 191 -89 295l-541 -577q87 -93 231 -93q150 0 263 101q113 100 136 274z" />
    <glyph glyph-name="Ugrave" unicode="&#xd9;" horiz-adv-x="747" 
d="M345 919l153 -124h-14l-155 124h16zM747 748h8l-88 -498q-23 -125 -106 -191.5t-210 -66.5q-126 0 -187 67t-38 191l88 498h8l-88 -498q-21 -121 36.5 -185.5t179.5 -64.5q124 0 206 64.5t103 185.5z" />
    <glyph glyph-name="Uacute" unicode="&#xda;" horiz-adv-x="747" 
d="M696 919l-199 -124h-14l197 124h16zM747 748h8l-88 -498q-23 -125 -106 -191.5t-210 -66.5q-126 0 -187 67t-38 191l88 498h8l-88 -498q-21 -121 36.5 -185.5t179.5 -64.5q124 0 206 64.5t103 185.5z" />
    <glyph glyph-name="Ucircumflex" unicode="&#xdb;" horiz-adv-x="747" 
d="M515 916l101 -121h-11l-94 110l-134 -110h-11l145 121h4zM747 748h8l-88 -498q-23 -125 -106 -191.5t-210 -66.5q-126 0 -187 67t-38 191l88 498h8l-88 -498q-21 -121 36.5 -185.5t179.5 -64.5q124 0 206 64.5t103 185.5z" />
    <glyph glyph-name="Udieresis" unicode="&#xdc;" horiz-adv-x="747" 
d="M459 871q17 0 14 -17q-5 -14 -18 -14q-17 0 -14 16q5 15 18 15zM552 871q16 0 13 -17q-5 -14 -17 -14q-18 0 -15 16q5 15 19 15zM747 748h8l-88 -498q-23 -125 -106 -191.5t-210 -66.5q-126 0 -187 67t-38 191l88 498h8l-88 -498q-21 -121 36.5 -185.5t179.5 -64.5
q124 0 206 64.5t103 185.5z" />
    <glyph glyph-name="Yacute" unicode="&#xdd;" horiz-adv-x="624" 
d="M613 919l-199 -124h-14l197 124h16zM687 748l-355 -408l-60 -340h-8l60 340l-211 408h9l207 -400l348 400h10z" />
    <glyph glyph-name="Thorn" unicode="&#xde;" horiz-adv-x="606" 
d="M206 748l-21 -117h224q89 0 142 -53t35 -151q-16 -97 -88 -150q-71 -53 -161 -53h-224l-39 -224h-8l132 748h8zM408 623h-224l-69 -391h224q87 0 154 51q69 51 86 146q16 94 -35 144q-50 50 -136 50z" />
    <glyph glyph-name="germandbls" unicode="&#xdf;" horiz-adv-x="601" 
d="M370 785q76 0 112.5 -38t25.5 -103q-10 -58 -65 -99q-55 -42 -65 -95q-5 -28 11.5 -52.5t41.5 -45.5t49.5 -45t38 -63t5.5 -88q-13 -75 -71.5 -119.5t-143.5 -44.5q-57 0 -93 16l6 7q39 -15 86 -15q84 0 140 42t69 116q8 47 -6 84.5t-39 61.5t-50 45t-41 47t-10 56
q10 56 64 96q56 42 66 98q11 60 -24 95.5t-106 35.5q-73 0 -128 -41q-54 -41 -65 -104l-111 -632h-8l111 632q12 67 67 110t133 43z" />
    <glyph glyph-name="agrave" unicode="&#xe0;" horiz-adv-x="521" 
d="M237 781l93 -191h-9l-94 191h10zM308 508q80 0 113.5 -54.5t15.5 -153.5l-53 -300h-8l26 149q-31 -78 -89.5 -117.5t-131.5 -39.5q-69 0 -103.5 34.5t-25.5 97.5q18 124 203 136l169 10l5 29q17 97 -13.5 149t-106.5 52q-79 0 -132 -49q-54 -49 -64 -112h-8q12 69 67 118
q56 51 136 51zM416 230l6 32l-166 -10q-178 -10 -196 -130q-9 -57 23.5 -89.5t96.5 -32.5q88 0 152 58t84 172z" />
    <glyph glyph-name="aacute" unicode="&#xe1;" horiz-adv-x="521" 
d="M491 781l-162 -191h-9l161 191h10zM308 508q80 0 113.5 -54.5t15.5 -153.5l-53 -300h-8l26 149q-31 -78 -89.5 -117.5t-131.5 -39.5q-69 0 -103.5 34.5t-25.5 97.5q18 124 203 136l169 10l5 29q17 97 -13.5 149t-106.5 52q-79 0 -132 -49q-54 -49 -64 -112h-8
q12 69 67 118q56 51 136 51zM416 230l6 32l-166 -10q-178 -10 -196 -130q-9 -57 23.5 -89.5t96.5 -32.5q88 0 152 58t84 172z" />
    <glyph glyph-name="acircumflex" unicode="&#xe2;" horiz-adv-x="521" 
d="M355 751l96 -159h-10l-90 148l-142 -148h-10l152 159h4zM308 508q80 0 113.5 -54.5t15.5 -153.5l-53 -300h-8l26 149q-31 -78 -89.5 -117.5t-131.5 -39.5q-69 0 -103.5 34.5t-25.5 97.5q18 124 203 136l169 10l5 29q17 97 -13.5 149t-106.5 52q-79 0 -132 -49
q-54 -49 -64 -112h-8q12 69 67 118q56 51 136 51zM416 230l6 32l-166 -10q-178 -10 -196 -130q-9 -57 23.5 -89.5t96.5 -32.5q88 0 152 58t84 172z" />
    <glyph glyph-name="atilde" unicode="&#xe3;" horiz-adv-x="521" 
d="M271 703q32 0 67 -35t62 -35q26 0 45.5 17.5t25.5 45.5h8q-6 -30 -28 -50.5t-51 -20.5q-32 0 -67 35t-62 35q-26 0 -45.5 -17.5t-25.5 -45.5h-8q6 30 28 50.5t51 20.5zM308 508q80 0 113.5 -54.5t15.5 -153.5l-53 -300h-8l26 149q-31 -78 -89.5 -117.5t-131.5 -39.5
q-69 0 -103.5 34.5t-25.5 97.5q18 124 203 136l169 10l5 29q17 97 -13.5 149t-106.5 52q-79 0 -132 -49q-54 -49 -64 -112h-8q12 69 67 118q56 51 136 51zM416 230l6 32l-166 -10q-178 -10 -196 -130q-9 -57 23.5 -89.5t96.5 -32.5q88 0 152 58t84 172z" />
    <glyph glyph-name="adieresis" unicode="&#xe4;" horiz-adv-x="521" 
d="M292 699q17 0 14 -17q-2 -14 -17 -14q-17 0 -14 16q1 15 17 15zM385 699q16 0 13 -17q-2 -14 -16 -14q-18 0 -15 16q1 6 6.5 10.5t11.5 4.5zM308 508q80 0 113.5 -54.5t15.5 -153.5l-53 -300h-8l26 149q-31 -78 -89.5 -117.5t-131.5 -39.5q-69 0 -103.5 34.5t-25.5 97.5
q18 124 203 136l169 10l5 29q17 97 -13.5 149t-106.5 52q-79 0 -132 -49q-54 -49 -64 -112h-8q12 69 67 118q56 51 136 51zM416 230l6 32l-166 -10q-178 -10 -196 -130q-9 -57 23.5 -89.5t96.5 -32.5q88 0 152 58t84 172z" />
    <glyph glyph-name="aring" unicode="&#xe5;" horiz-adv-x="521" 
d="M355 766q39 0 60.5 -25t14.5 -63q-6 -36 -36.5 -60.5t-67.5 -24.5q-40 0 -62 24.5t-15 62.5q7 37 37.5 61.5t68.5 24.5zM356 758q-37 0 -65 -22.5t-35 -57.5q-5 -33 15 -55t55 -22q36 0 63.5 22.5t33.5 56.5q6 33 -13.5 55.5t-53.5 22.5zM308 508q80 0 113.5 -54.5
t15.5 -153.5l-53 -300h-8l26 149q-31 -78 -89.5 -117.5t-131.5 -39.5q-69 0 -103.5 34.5t-25.5 97.5q18 124 203 136l169 10l5 29q17 97 -13.5 149t-106.5 52q-79 0 -132 -49q-54 -49 -64 -112h-8q12 69 67 118q56 51 136 51zM416 230l6 32l-166 -10q-178 -10 -196 -130
q-9 -57 23.5 -89.5t96.5 -32.5q88 0 152 58t84 172z" />
    <glyph glyph-name="ae" unicode="&#xe6;" horiz-adv-x="927" 
d="M690 508q104 0 153 -67t33 -174l-2 -17h-445q-16 -117 39 -184q56 -66 152 -66q80 0 139.5 38t86.5 105l8 -1q-29 -72 -89.5 -111t-143.5 -39q-90 0 -146 55t-57 150q-26 -101 -89.5 -153t-147.5 -52q-69 0 -103.5 34.5t-25.5 97.5q18 124 203 136l169 10l5 29
q17 97 -13.5 149t-106.5 52q-79 0 -132 -49q-54 -49 -64 -112h-8q12 69 67 118q56 51 136 51q74 0 107.5 -45.5t25.5 -130.5q32 83 98.5 129.5t150.5 46.5zM430 258h438l1 9q15 103 -32 168t-146 65q-98 0 -171 -64q-72 -65 -90 -178zM180 0q88 0 152 58t84 172l6 32
l-166 -10q-178 -10 -196 -130q-9 -57 23.5 -89.5t96.5 -32.5z" />
    <glyph glyph-name="ccedilla" unicode="&#xe7;" horiz-adv-x="558" 
d="M347 508q87 0 138.5 -49t48.5 -130h-8q1 80 -46.5 125.5t-131.5 45.5q-100 0 -171 -67q-72 -66 -88 -184q-16 -116 37 -183q54 -66 152 -66q83 0 142 41.5t82 115.5l9 -1q-24 -77 -85 -120.5t-147 -43.5h-5l-26 -72q57 1 84 -20.5t20 -63.5q-6 -34 -38.5 -55t-74.5 -21
q-56 0 -96 28l5 7q39 -27 91 -27q40 0 69.5 19t35.5 51q6 35 -17.5 54.5t-74.5 19.5q-13 0 -16 -1l30 81q-96 4 -149 73t-36 186q16 120 91 188q74 69 175 69z" />
    <glyph glyph-name="egrave" unicode="&#xe8;" horiz-adv-x="581" 
d="M372 590h-9l-94 191h10zM351 508q104 0 153 -67q50 -67 33 -174l-2 -17h-445q-16 -117 39 -184q55 -66 152 -66q80 0 139.5 38t86.5 105l8 -1q-29 -72 -89.5 -111t-143.5 -39q-100 0 -159 69q-58 68 -41 190q17 120 92 188q75 69 177 69zM91 258h438l1 9q15 103 -32 168
t-146 65q-98 0 -171 -64q-72 -65 -90 -178z" />
    <glyph glyph-name="eacute" unicode="&#xe9;" horiz-adv-x="581" 
d="M533 781l-162 -191h-9l161 191h10zM351 508q104 0 153 -67q50 -67 33 -174l-2 -17h-445q-16 -117 39 -184q55 -66 152 -66q80 0 139.5 38t86.5 105l8 -1q-29 -72 -89.5 -111t-143.5 -39q-100 0 -159 69q-58 68 -41 190q17 120 92 188q75 69 177 69zM91 258h438l1 9
q15 103 -32 168t-146 65q-98 0 -171 -64q-72 -65 -90 -178z" />
    <glyph glyph-name="ecircumflex" unicode="&#xea;" horiz-adv-x="581" 
d="M393 740l-142 -148h-10l152 159h4l96 -159h-10zM351 508q104 0 153 -67q50 -67 33 -174l-2 -17h-445q-16 -117 39 -184q55 -66 152 -66q80 0 139.5 38t86.5 105l8 -1q-29 -72 -89.5 -111t-143.5 -39q-100 0 -159 69q-58 68 -41 190q17 120 92 188q75 69 177 69zM91 258
h438l1 9q15 103 -32 168t-146 65q-98 0 -171 -64q-72 -65 -90 -178z" />
    <glyph glyph-name="edieresis" unicode="&#xeb;" horiz-adv-x="581" 
d="M331 668q-17 0 -14 16q1 15 17 15q17 0 14 -17q-2 -14 -17 -14zM424 668q-18 0 -15 16q1 6 6.5 10.5t11.5 4.5q16 0 13 -17q-2 -14 -16 -14zM351 508q104 0 153 -67q50 -67 33 -174l-2 -17h-445q-16 -117 39 -184q55 -66 152 -66q80 0 139.5 38t86.5 105l8 -1
q-29 -72 -89.5 -111t-143.5 -39q-100 0 -159 69q-58 68 -41 190q17 120 92 188q75 69 177 69zM91 258h438l1 9q15 103 -32 168t-146 65q-98 0 -171 -64q-72 -65 -90 -178z" />
    <glyph glyph-name="igrave" unicode="&#xec;" 
d="M84 781l93 -191h-9l-94 191h10zM159 500l-88 -500h-8l88 500h8z" />
    <glyph glyph-name="iacute" unicode="&#xed;" 
d="M338 781l-162 -191h-9l161 191h10zM159 500l-88 -500h-8l88 500h8z" />
    <glyph glyph-name="icircumflex" unicode="&#xee;" 
d="M202 751l96 -159h-10l-90 148l-142 -148h-10l152 159h4zM159 500l-88 -500h-8l88 500h8z" />
    <glyph glyph-name="idieresis" unicode="&#xef;" 
d="M139 699q17 0 14 -17q-2 -14 -17 -14q-17 0 -14 16q2 15 17 15zM232 699q16 0 13 -17q-2 -14 -16 -14q-18 0 -15 16q1 6 6.5 10.5t11.5 4.5zM159 500l-88 -500h-8l88 500h8z" />
    <glyph glyph-name="eth" unicode="&#xf0;" horiz-adv-x="600" 
d="M597 781l3 -6l-146 -82q66 -68 87 -189t-7 -268q-21 -119 -93 -182q-71 -62 -165 -62q-101 0 -158 68q-57 67 -37 180q20 112 90 176q71 65 169 65q81 0 134 -45.5t63 -121.5q25 253 -91 375l-146 -82l-4 7l145 80q-77 75 -202 75l1 8q131 0 209 -78zM275 0q93 0 162 60
q70 62 89 178l2 11q13 99 -41 161q-54 63 -147 63q-96 0 -165 -63q-68 -63 -87 -172q-20 -107 36 -173q56 -65 151 -65z" />
    <glyph glyph-name="ntilde" unicode="&#xf1;" horiz-adv-x="595" 
d="M311 703q32 0 67 -35t62 -35q26 0 45.5 17.5t25.5 45.5h8q-6 -30 -28 -50.5t-51 -20.5q-32 0 -67 35t-62 35q-26 0 -45.5 -17.5t-25.5 -45.5h-8q6 30 28 50.5t51 20.5zM345 508q83 0 128 -55t30 -140l-55 -313h-8l55 313q14 83 -29 134q-42 53 -120 53q-82 0 -144 -56
q-61 -55 -75 -131l-56 -313h-8l88 500h8l-22 -132q23 57 80 98q57 42 128 42z" />
    <glyph glyph-name="ograve" unicode="&#xf2;" horiz-adv-x="620" 
d="M290 781l93 -191h-9l-94 191h10zM362 508q105 0 166 -70t44 -189q-16 -115 -97 -187q-79 -70 -183 -70q-105 0 -166 70t-44 189q16 116 96 187q79 70 184 70zM363 500q-102 0 -179 -68q-78 -69 -94 -183q-17 -115 41 -182t160 -67t179 68q78 69 94 183t-42 181
q-59 68 -159 68z" />
    <glyph glyph-name="oacute" unicode="&#xf3;" horiz-adv-x="620" 
d="M544 781l-162 -191h-9l161 191h10zM362 508q105 0 166 -70t44 -189q-16 -115 -97 -187q-79 -70 -183 -70q-105 0 -166 70t-44 189q16 116 96 187q79 70 184 70zM363 500q-102 0 -179 -68q-78 -69 -94 -183q-17 -115 41 -182t160 -67t179 68q78 69 94 183t-42 181
q-59 68 -159 68z" />
    <glyph glyph-name="ocircumflex" unicode="&#xf4;" horiz-adv-x="620" 
d="M408 751l96 -159h-10l-90 148l-142 -148h-10l152 159h4zM362 508q105 0 166 -70t44 -189q-16 -115 -97 -187q-79 -70 -183 -70q-105 0 -166 70t-44 189q16 116 96 187q79 70 184 70zM363 500q-102 0 -179 -68q-78 -69 -94 -183q-17 -115 41 -182t160 -67t179 68
q78 69 94 183t-42 181q-59 68 -159 68z" />
    <glyph glyph-name="otilde" unicode="&#xf5;" horiz-adv-x="620" 
d="M324 703q32 0 67 -35t62 -35q26 0 45.5 17.5t25.5 45.5h8q-6 -30 -28 -50.5t-51 -20.5q-32 0 -67 35t-62 35q-26 0 -45.5 -17.5t-25.5 -45.5h-8q6 30 28 50.5t51 20.5zM362 508q105 0 166 -70t44 -189q-16 -115 -97 -187q-79 -70 -183 -70q-105 0 -166 70t-44 189
q16 116 96 187q79 70 184 70zM363 500q-102 0 -179 -68q-78 -69 -94 -183q-17 -115 41 -182t160 -67t179 68q78 69 94 183t-42 181q-59 68 -159 68z" />
    <glyph glyph-name="odieresis" unicode="&#xf6;" horiz-adv-x="620" 
d="M345 699q17 0 14 -17q-2 -14 -17 -14q-17 0 -14 16q2 15 17 15zM438 699q16 0 13 -17q-2 -14 -16 -14q-18 0 -15 16q1 6 6.5 10.5t11.5 4.5zM362 508q105 0 166 -70t44 -189q-16 -115 -97 -187q-79 -70 -183 -70q-105 0 -166 70t-44 189q16 116 96 187q79 70 184 70z
M363 500q-102 0 -179 -68q-78 -69 -94 -183q-17 -115 41 -182t160 -67t179 68q78 69 94 183t-42 181q-59 68 -159 68z" />
    <glyph glyph-name="divide" unicode="&#xf7;" horiz-adv-x="544" 
d="M326 564q10 0 15 -6t3 -16q-1 -7 -8 -13t-15 -6q-9 0 -14 6t-3 15q5 20 22 20zM531 373l-2 -8h-474l2 8h474zM265 215q21 0 18 -22q-4 -19 -23 -19q-20 0 -18 21q1 8 8 14t15 6z" />
    <glyph glyph-name="oslash" unicode="&#xf8;" horiz-adv-x="620" 
d="M571 516l5 -5l-59 -63q71 -75 52 -199q-16 -115 -97 -187q-79 -70 -183 -70q-91 0 -150 54l-59 -63l-5 5l59 62q-73 73 -55 201q16 116 96 187q79 70 184 70q94 0 153 -56zM87 249q-17 -123 53 -193l366 391q-56 53 -146 53q-102 0 -179 -68q-78 -69 -94 -183zM561 251
q17 121 -50 191l-367 -391q56 -51 144 -51q102 0 179 68q78 69 94 183z" />
    <glyph glyph-name="ugrave" unicode="&#xf9;" horiz-adv-x="576" 
d="M279 781l93 -191h-9l-94 191h10zM528 500l-88 -500h-8l23 132q-23 -57 -78 -99q-55 -41 -125 -41q-81 0 -120.5 53.5t-24.5 141.5l55 313h8l-55 -313q-15 -84 22 -135.5t114 -51.5q83 0 141 55q59 55 73 132l55 313h8z" />
    <glyph glyph-name="uacute" unicode="&#xfa;" horiz-adv-x="576" 
d="M533 781l-162 -191h-9l161 191h10zM528 500l-88 -500h-8l23 132q-23 -57 -78 -99q-55 -41 -125 -41q-81 0 -120.5 53.5t-24.5 141.5l55 313h8l-55 -313q-15 -84 22 -135.5t114 -51.5q83 0 141 55q59 55 73 132l55 313h8z" />
    <glyph glyph-name="ucircumflex" unicode="&#xfb;" horiz-adv-x="576" 
d="M397 751l96 -159h-10l-90 148l-142 -148h-10l152 159h4zM528 500l-88 -500h-8l23 132q-23 -57 -78 -99q-55 -41 -125 -41q-81 0 -120.5 53.5t-24.5 141.5l55 313h8l-55 -313q-15 -84 22 -135.5t114 -51.5q83 0 141 55q59 55 73 132l55 313h8z" />
    <glyph glyph-name="udieresis" unicode="&#xfc;" horiz-adv-x="576" 
d="M334 699q17 0 14 -17q-2 -14 -17 -14q-17 0 -14 16q1 15 17 15zM427 699q16 0 13 -17q-2 -14 -16 -14q-18 0 -15 16q1 6 6.5 10.5t11.5 4.5zM528 500l-88 -500h-8l23 132q-23 -57 -78 -99q-55 -41 -125 -41q-81 0 -120.5 53.5t-24.5 141.5l55 313h8l-55 -313
q-15 -84 22 -135.5t114 -51.5q83 0 141 55q59 55 73 132l55 313h8z" />
    <glyph glyph-name="yacute" unicode="&#xfd;" horiz-adv-x="475" 
d="M462 781l-162 -191h-9l161 191h10zM491 500l-444 -755h-9l152 259l-118 496h8l116 -486l286 486h9z" />
    <glyph glyph-name="thorn" unicode="&#xfe;" horiz-adv-x="636" 
d="M200 777h8l-76 -429q32 79 93.5 119.5t143.5 40.5q103 0 162 -69q59 -68 42 -190q-16 -119 -95 -189q-77 -68 -179 -68q-85 0 -139 41.5t-62 118.5l-72 -407h-8zM370 500q-99 0 -165 -59t-86 -171l-9 -51q-20 -105 36 -162t152 -57q102 0 175 66q76 68 92 185
q17 117 -40 183q-55 66 -155 66z" />
    <glyph glyph-name="ydieresis" unicode="&#xff;" horiz-adv-x="475" 
d="M263 699q17 0 14 -17q-2 -14 -17 -14q-17 0 -14 16q2 15 17 15zM356 699q16 0 13 -17q-2 -14 -16 -14q-18 0 -15 16q1 6 6.5 10.5t11.5 4.5zM491 500l-444 -755h-9l152 259l-118 496h8l116 -486l286 486h9z" />
    <glyph glyph-name="Amacron" unicode="&#x100;" horiz-adv-x="663" 
d="M548 868l-1 -8h-215l1 8h215zM423 748l171 -748h-8l-58 256h-389l-148 -256h-10l434 748h8zM418 736l-275 -472h383z" />
    <glyph glyph-name="amacron" unicode="&#x101;" horiz-adv-x="521" 
d="M445 664l-1 -8h-215l1 8h215zM308 508q80 0 113.5 -54.5t15.5 -153.5l-53 -300h-8l26 149q-31 -78 -89.5 -117.5t-131.5 -39.5q-69 0 -103.5 34.5t-25.5 97.5q18 124 203 136l169 10l5 29q17 97 -13.5 149t-106.5 52q-79 0 -132 -49q-54 -49 -64 -112h-8q12 69 67 118
q56 51 136 51zM416 230l6 32l-166 -10q-178 -10 -196 -130q-9 -57 23.5 -89.5t96.5 -32.5q88 0 152 58t84 172z" />
    <glyph glyph-name="Abreve" unicode="&#x102;" horiz-adv-x="663" 
d="M558 907h8q-7 -42 -43 -66.5t-90 -24.5q-55 0 -82.5 24.5t-20.5 66.5h8q-7 -38 19 -60.5t76 -22.5q51 0 84.5 22.5t40.5 60.5zM423 748l171 -748h-8l-58 256h-389l-148 -256h-10l434 748h8zM418 736l-275 -472h383z" />
    <glyph glyph-name="abreve" unicode="&#x103;" horiz-adv-x="521" 
d="M454 697h8q-7 -42 -43 -66.5t-90 -24.5q-55 0 -82.5 24.5t-20.5 66.5h8q-7 -38 18.5 -60.5t75.5 -22.5q51 0 85 22.5t41 60.5zM308 508q80 0 113.5 -54.5t15.5 -153.5l-53 -300h-8l26 149q-31 -78 -89.5 -117.5t-131.5 -39.5q-69 0 -103.5 34.5t-25.5 97.5
q18 124 203 136l169 10l5 29q17 97 -13.5 149t-106.5 52q-79 0 -132 -49q-54 -49 -64 -112h-8q12 69 67 118q56 51 136 51zM416 230l6 32l-166 -10q-178 -10 -196 -130q-9 -57 23.5 -89.5t96.5 -32.5q88 0 152 58t84 172z" />
    <glyph glyph-name="Aogonek" unicode="&#x104;" horiz-adv-x="663" 
d="M594 0h-8l-1 3v-3q-67 -28 -100 -54.5t-39 -60.5q-5 -27 12.5 -43t51.5 -16q38 0 68 13l2 -8q-35 -13 -70 -13q-39 0 -58 18t-13 51q7 36 41.5 64t103.5 56l-56 249h-389l-148 -256h-10l434 748h8zM143 264h383l-108 472z" />
    <glyph glyph-name="aogonek" unicode="&#x105;" horiz-adv-x="521" 
d="M308 508q80 0 113.5 -54.5t15.5 -153.5l-53 -300h-4q-65 -28 -98 -54.5t-39 -59.5q-5 -27 12.5 -43t51.5 -16q38 0 68 13l2 -8q-35 -13 -70 -13q-39 0 -58 18t-13 51q6 35 39.5 62.5t101.5 56.5l25 142q-31 -78 -89.5 -117.5t-131.5 -39.5q-69 0 -103.5 34.5t-25.5 97.5
q18 124 203 136l169 10l5 29q17 97 -13.5 149t-106.5 52q-79 0 -132 -49q-54 -49 -64 -112h-8q12 69 67 118q56 51 136 51zM416 230l6 32l-166 -10q-178 -10 -196 -130q-9 -57 23.5 -89.5t96.5 -32.5q88 0 152 58t84 172z" />
    <glyph glyph-name="Cacute" unicode="&#x106;" horiz-adv-x="785" 
d="M708 919l-199 -124h-14l197 124h16zM506 756q130 0 210 -73q82 -71 80 -193l-8 -1q3 117 -77 188t-204 71q-153 0 -260 -100q-107 -99 -128 -275q-21 -174 63 -274q84 -99 234 -99q126 0 217 63q93 63 126 175l8 -1q-35 -115 -129 -180q-95 -65 -221 -65q-154 0 -241 102
q-87 103 -65 281q23 180 131 279q110 102 264 102z" />
    <glyph glyph-name="cacute" unicode="&#x107;" horiz-adv-x="558" 
d="M522 781l-162 -191h-9l161 191h10zM348 508q87 0 138.5 -49t48.5 -130h-8q1 80 -46.5 125.5t-131.5 45.5q-100 0 -171 -67q-72 -66 -88 -184q-16 -116 37 -183q54 -66 152 -66q83 0 142 41.5t82 115.5l9 -1q-24 -77 -85 -120.5t-147 -43.5q-102 0 -159 68q-56 69 -39 191
q16 120 91 188q73 69 175 69z" />
    <glyph glyph-name="Ccircumflex" unicode="&#x108;" horiz-adv-x="785" 
d="M527 916l101 -121h-11l-94 110l-134 -110h-11l145 121h4zM506 756q130 0 210 -73q82 -71 80 -193l-8 -1q3 117 -77 188t-204 71q-153 0 -260 -100q-107 -99 -128 -275q-21 -174 63 -274q84 -99 234 -99q126 0 217 63q93 63 126 175l8 -1q-35 -115 -129 -180
q-95 -65 -221 -65q-154 0 -241 102q-87 103 -65 281q23 180 131 279q110 102 264 102z" />
    <glyph glyph-name="ccircumflex" unicode="&#x109;" horiz-adv-x="558" 
d="M386 751l96 -159h-10l-90 148l-142 -148h-10l152 159h4zM348 508q87 0 138.5 -49t48.5 -130h-8q1 80 -46.5 125.5t-131.5 45.5q-100 0 -171 -67q-72 -66 -88 -184q-16 -116 37 -183q54 -66 152 -66q83 0 142 41.5t82 115.5l9 -1q-24 -77 -85 -120.5t-147 -43.5
q-102 0 -159 68q-56 69 -39 191q16 120 91 188q73 69 175 69z" />
    <glyph glyph-name="Cdotaccent" unicode="&#x10a;" horiz-adv-x="785" 
d="M514 861q8 0 13 -6t4 -14q-1 -7 -8 -12.5t-14 -5.5q-8 0 -13 6t-3 14q6 18 21 18zM506 756q130 0 210 -73q82 -71 80 -193l-8 -1q3 117 -77 188t-204 71q-153 0 -260 -100q-107 -99 -128 -275q-21 -174 63 -274q84 -99 234 -99q126 0 217 63q93 63 126 175l8 -1
q-35 -115 -129 -180q-95 -65 -221 -65q-154 0 -241 102q-87 103 -65 281q23 180 131 279q110 102 264 102z" />
    <glyph glyph-name="cdotaccent" unicode="&#x10b;" horiz-adv-x="558" 
d="M374 698q8 0 13 -6t3 -14q-1 -7 -7.5 -12.5t-13.5 -5.5q-8 0 -13 6t-3 14q1 7 7.5 12.5t13.5 5.5zM348 508q87 0 138.5 -49t48.5 -130h-8q1 80 -46.5 125.5t-131.5 45.5q-100 0 -171 -67q-72 -66 -88 -184q-16 -116 37 -183q54 -66 152 -66q83 0 142 41.5t82 115.5l9 -1
q-24 -77 -85 -120.5t-147 -43.5q-102 0 -159 68q-56 69 -39 191q16 120 91 188q73 69 175 69z" />
    <glyph glyph-name="Ccaron" unicode="&#x10c;" horiz-adv-x="785" 
d="M650 916l-145 -121h-4l-101 121h11l94 -110l134 110h11zM506 756q130 0 210 -73q82 -71 80 -193l-8 -1q3 117 -77 188t-204 71q-153 0 -260 -100q-107 -99 -128 -275q-21 -174 63 -274q84 -99 234 -99q126 0 217 63q93 63 126 175l8 -1q-35 -115 -129 -180
q-95 -65 -221 -65q-154 0 -241 102q-87 103 -65 281q23 180 131 279q110 102 264 102z" />
    <glyph glyph-name="ccaron" unicode="&#x10d;" horiz-adv-x="558" 
d="M510 748l-152 -159h-4l-96 159h10l90 -148l142 148h10zM348 508q87 0 138.5 -49t48.5 -130h-8q1 80 -46.5 125.5t-131.5 45.5q-100 0 -171 -67q-72 -66 -88 -184q-16 -116 37 -183q54 -66 152 -66q83 0 142 41.5t82 115.5l9 -1q-24 -77 -85 -120.5t-147 -43.5
q-102 0 -159 68q-56 69 -39 191q16 120 91 188q73 69 175 69z" />
    <glyph glyph-name="Dcaron" unicode="&#x10e;" horiz-adv-x="793" 
d="M597 916l-145 -121h-4l-101 121h11l94 -110l134 110h11zM66 0l132 748h251q151 0 235 -100q85 -100 64 -275q-21 -173 -132 -273q-110 -100 -262 -100h-288zM448 740h-244l-129 -732h279q147 0 256 98q109 97 130 269q21 169 -62 267t-230 98z" />
    <glyph glyph-name="dcaron" unicode="&#x10f;" horiz-adv-x="674" 
d="M557 348l76 429h8l-137 -777h-8l27 152q-32 -79 -93.5 -119.5t-143.5 -40.5q-104 0 -163 68q-58 68 -41 191q16 120 94 188q78 69 180 69q85 0 139 -41.5t62 -118.5zM740 715q22 0 17 -27q-17 -90 -84 -136l1 9q57 47 66 117h-4q-18 0 -16 19q6 18 20 18zM536 230l9 51
q19 105 -36 162t-152 57q-102 0 -176 -67q-75 -67 -91 -184t39 -183q57 -66 156 -66t165 59t86 171z" />
    <glyph glyph-name="Dcroat" unicode="&#x110;" horiz-adv-x="778" 
d="M133 378l65 370h251q151 0 235 -100q85 -100 64 -275q-21 -173 -132 -273q-110 -100 -262 -100h-288l65 370h-114l2 8h114zM740 375q21 169 -62 267t-230 98h-244l-64 -362h227l-2 -8h-226l-64 -362h279q147 0 256 98q109 97 130 269z" />
    <glyph glyph-name="dslash" unicode="&#x111;" horiz-adv-x="626" 
d="M713 641l-1 -8h-96l-112 -633h-8l27 152q-32 -79 -93.5 -119.5t-143.5 -40.5q-104 0 -163 68q-58 68 -41 191q16 120 94 188q78 69 180 69q85 0 139 -41.5t62 -118.5l50 285h-110l1 8h111l24 136h8l-24 -136h96zM536 230l9 51q19 105 -36 162t-152 57q-102 0 -176 -67
q-75 -67 -91 -184t39 -183q57 -66 156 -66t165 59t86 171z" />
    <glyph glyph-name="Emacron" unicode="&#x112;" horiz-adv-x="579" 
d="M550 868l-1 -8h-215l1 8h215zM637 748l-2 -8h-431l-61 -346h387l-1 -8h-387l-67 -378h431l-1 -8h-439l132 748h439z" />
    <glyph glyph-name="emacron" unicode="&#x113;" horiz-adv-x="581" 
d="M487 664l-1 -8h-215l1 8h215zM351 508q104 0 153 -67q50 -67 33 -174l-2 -17h-445q-16 -117 39 -184q55 -66 152 -66q80 0 139.5 38t86.5 105l8 -1q-29 -72 -89.5 -111t-143.5 -39q-100 0 -159 69q-58 68 -41 190q17 120 92 188q75 69 177 69zM91 258h438l1 9
q15 103 -32 168t-146 65q-98 0 -171 -64q-72 -65 -90 -178z" />
    <glyph glyph-name="Ebreve" unicode="&#x114;" horiz-adv-x="579" 
d="M560 907h8q-7 -42 -43 -66.5t-90 -24.5q-55 0 -82.5 24.5t-20.5 66.5h8q-7 -38 19 -60.5t76 -22.5q51 0 84.5 22.5t40.5 60.5zM637 748l-2 -8h-431l-61 -346h387l-1 -8h-387l-67 -378h431l-1 -8h-439l132 748h439z" />
    <glyph glyph-name="ebreve" unicode="&#x115;" horiz-adv-x="581" 
d="M371 606q-55 0 -82.5 24.5t-20.5 66.5h8q-7 -38 18.5 -60.5t75.5 -22.5q51 0 85 22.5t41 60.5h8q-7 -42 -43 -66.5t-90 -24.5zM351 508q104 0 153 -67q50 -67 33 -174l-2 -17h-445q-16 -117 39 -184q55 -66 152 -66q80 0 139.5 38t86.5 105l8 -1q-29 -72 -89.5 -111
t-143.5 -39q-100 0 -159 69q-58 68 -41 190q17 120 92 188q75 69 177 69zM91 258h438l1 9q15 103 -32 168t-146 65q-98 0 -171 -64q-72 -65 -90 -178z" />
    <glyph glyph-name="Edotaccent" unicode="&#x116;" horiz-adv-x="579" 
d="M441 861q8 0 13 -6t4 -14q-6 -18 -22 -18q-8 0 -13 6t-3 14q6 18 21 18zM637 748l-2 -8h-431l-61 -346h387l-1 -8h-387l-67 -378h431l-1 -8h-439l132 748h439z" />
    <glyph glyph-name="edotaccent" unicode="&#x117;" horiz-adv-x="581" 
d="M380 660q-8 0 -13 6t-3 14q1 7 7.5 12.5t13.5 5.5q8 0 13 -6t3 -14q-1 -7 -7.5 -12.5t-13.5 -5.5zM351 508q104 0 153 -67q50 -67 33 -174l-2 -17h-445q-16 -117 39 -184q55 -66 152 -66q80 0 139.5 38t86.5 105l8 -1q-29 -72 -89.5 -111t-143.5 -39q-100 0 -159 69
q-58 68 -41 190q17 120 92 188q75 69 177 69zM91 258h438l1 9q15 103 -32 168t-146 65q-98 0 -171 -64q-72 -65 -90 -178z" />
    <glyph glyph-name="Eogonek" unicode="&#x118;" horiz-adv-x="579" 
d="M635 740h-431l-61 -346h387l-1 -8h-387l-67 -378h431l-1 -8h-19q-67 -28 -100 -54.5t-39 -60.5q-5 -27 12.5 -43t51.5 -16q38 0 68 13l2 -8q-35 -13 -70 -13q-39 0 -58 18t-13 51q10 63 128 113h-402l132 748h439z" />
    <glyph glyph-name="eogonek" unicode="&#x119;" horiz-adv-x="581" 
d="M351 508q104 0 153 -67q50 -67 33 -174l-2 -17h-445q-16 -117 39 -184q55 -66 152 -66q30 0 47 4h1q132 23 178 139l8 -1q-53 -128 -189 -147q-67 -29 -99 -54.5t-38 -59.5q-5 -27 12.5 -43t51.5 -16q38 0 68 13l2 -8q-35 -13 -70 -13q-39 0 -58 18t-13 51q10 60 120 110
l-20 -1q-100 0 -159 69q-58 68 -41 190q17 120 92 188q75 69 177 69zM91 258h438l1 9q15 103 -32 168t-146 65q-98 0 -171 -64q-72 -65 -90 -178z" />
    <glyph glyph-name="Ecaron" unicode="&#x11a;" horiz-adv-x="579" 
d="M577 916l-145 -121h-4l-101 121h11l94 -110l134 110h11zM637 748l-2 -8h-431l-61 -346h387l-1 -8h-387l-67 -378h431l-1 -8h-439l132 748h439z" />
    <glyph glyph-name="ecaron" unicode="&#x11b;" horiz-adv-x="581" 
d="M369 589h-4l-96 159h10l90 -148l142 148h10zM351 508q104 0 153 -67q50 -67 33 -174l-2 -17h-445q-16 -117 39 -184q55 -66 152 -66q80 0 139.5 38t86.5 105l8 -1q-29 -72 -89.5 -111t-143.5 -39q-100 0 -159 69q-58 68 -41 190q17 120 92 188q75 69 177 69zM91 258h438
l1 9q15 103 -32 168t-146 65q-98 0 -171 -64q-72 -65 -90 -178z" />
    <glyph glyph-name="Gcircumflex" unicode="&#x11c;" horiz-adv-x="803" 
d="M527 905l-134 -110h-11l145 121h4l101 -121h-11zM502 756q131 0 214 -74q85 -74 80 -200l-8 -1q4 124 -77 195q-81 72 -208 72q-150 0 -256 -100q-107 -99 -128 -275q-21 -174 61 -274q82 -99 230 -99t246 86q97 85 118 249h-317l1 8h325l-1 -8q-21 -164 -119 -253.5
t-252 -89.5q-151 0 -237 102t-63 281q23 180 131 279q110 102 260 102z" />
    <glyph glyph-name="gcircumflex" unicode="&#x11d;" horiz-adv-x="638" 
d="M404 751l96 -159h-10l-90 148l-142 -148h-10l152 159h4zM339 508q85 0 139 -41.5t62 -118.5l27 152h8l-95 -542q-18 -104 -90 -162q-71 -59 -170 -59q-86 0 -138.5 43.5t-57.5 113.5h9q3 -67 56 -108t130 -41q97 0 166 57q71 56 87 156l34 194q-32 -79 -93.5 -119.5
t-143.5 -40.5q-104 0 -163 68q-58 68 -41 191q16 120 94 188q78 69 180 69zM340 500q-102 0 -176 -67q-75 -67 -91 -184q-17 -117 39 -183q57 -66 156 -66t165 59t86 171l9 51q20 105 -36 162t-152 57z" />
    <glyph glyph-name="Gbreve" unicode="&#x11e;" horiz-adv-x="803" 
d="M512 816q-55 0 -82.5 24.5t-20.5 66.5h8q-7 -38 19 -60.5t76 -22.5q51 0 84.5 22.5t40.5 60.5h8q-7 -42 -43 -66.5t-90 -24.5zM502 756q131 0 214 -74q85 -74 80 -200l-8 -1q4 124 -77 195q-81 72 -208 72q-150 0 -256 -100q-107 -99 -128 -275q-21 -174 61 -274
q82 -99 230 -99t246 86q97 85 118 249h-317l1 8h325l-1 -8q-21 -164 -119 -253.5t-252 -89.5q-151 0 -237 102t-63 281q23 180 131 279q110 102 260 102z" />
    <glyph glyph-name="gbreve" unicode="&#x11f;" horiz-adv-x="638" 
d="M503 697h8q-7 -42 -43 -66.5t-90 -24.5q-55 0 -82.5 24.5t-20.5 66.5h8q-7 -38 18.5 -60.5t75.5 -22.5q51 0 85 22.5t41 60.5zM339 508q85 0 139 -41.5t62 -118.5l27 152h8l-95 -542q-18 -104 -90 -162q-71 -59 -170 -59q-86 0 -138.5 43.5t-57.5 113.5h9q3 -67 56 -108
t130 -41q97 0 166 57q71 56 87 156l34 194q-32 -79 -93.5 -119.5t-143.5 -40.5q-104 0 -163 68q-58 68 -41 191q16 120 94 188q78 69 180 69zM340 500q-102 0 -176 -67q-75 -67 -91 -184q-17 -117 39 -183q57 -66 156 -66t165 59t86 171l9 51q20 105 -36 162t-152 57z" />
    <glyph glyph-name="Gdotaccent" unicode="&#x120;" horiz-adv-x="803" 
d="M513 823q-8 0 -13 6t-3 14q6 18 21 18q8 0 13 -6t4 -14q-1 -7 -8 -12.5t-14 -5.5zM502 756q131 0 214 -74q85 -74 80 -200l-8 -1q4 124 -77 195q-81 72 -208 72q-150 0 -256 -100q-107 -99 -128 -275q-21 -174 61 -274q82 -99 230 -99t246 86q97 85 118 249h-317l1 8h325
l-1 -8q-21 -164 -119 -253.5t-252 -89.5q-151 0 -237 102t-63 281q23 180 131 279q110 102 260 102z" />
    <glyph glyph-name="gdotaccent" unicode="&#x121;" horiz-adv-x="638" 
d="M392 698q8 0 13 -6t3 -14q-1 -7 -7.5 -12.5t-13.5 -5.5q-8 0 -13 6t-3 14q1 7 7.5 12.5t13.5 5.5zM339 508q85 0 139 -41.5t62 -118.5l27 152h8l-95 -542q-18 -104 -90 -162q-71 -59 -170 -59q-86 0 -138.5 43.5t-57.5 113.5h9q3 -67 56 -108t130 -41q97 0 166 57
q71 56 87 156l34 194q-32 -79 -93.5 -119.5t-143.5 -40.5q-104 0 -163 68q-58 68 -41 191q16 120 94 188q78 69 180 69zM340 500q-102 0 -176 -67q-75 -67 -91 -184q-17 -117 39 -183q57 -66 156 -66t165 59t86 171l9 51q20 105 -36 162t-152 57z" />
    <glyph glyph-name="Gcommaaccent" unicode="&#x122;" horiz-adv-x="803" 
d="M502 756q131 0 214 -74q85 -74 80 -200l-8 -1q4 124 -77 195q-81 72 -208 72q-150 0 -256 -100q-107 -99 -128 -275q-21 -174 61 -274q82 -99 230 -99t246 86q97 85 118 249h-317l1 8h325l-1 -8q-21 -164 -119 -253.5t-252 -89.5q-151 0 -237 102t-63 281q23 180 131 279
q110 102 260 102zM395 -44q21 0 17 -27q-17 -90 -84 -136l1 9q57 46 66 117h-4q-18 0 -16 19q6 18 20 18z" />
    <glyph glyph-name="gcommaaccent" unicode="&#x123;" horiz-adv-x="638" 
d="M435 730q-17 -90 -84 -136l1 9q57 47 66 117h-4q-18 0 -16 19q6 18 20 18q22 0 17 -27zM567 500h8l-95 -542q-18 -104 -90 -162q-71 -59 -170 -59q-86 0 -138.5 43.5t-57.5 113.5h9q3 -67 56 -108t130 -41q97 0 166 57q71 56 87 156l34 194q-32 -79 -93.5 -119.5
t-143.5 -40.5q-104 0 -163 68q-58 68 -41 191q16 120 94 188q78 69 180 69q85 0 139 -41.5t62 -118.5zM519 230l9 51q20 105 -36 162t-152 57q-102 0 -176 -67q-75 -67 -91 -184q-17 -117 39 -183q57 -66 156 -66t165 59t86 171z" />
    <glyph glyph-name="Hcircumflex" unicode="&#x124;" horiz-adv-x="741" 
d="M490 916l101 -121h-11l-94 110l-134 -110h-11l145 121h4zM719 748l-132 -748h-8l69 389h-505l-69 -389h-8l132 748h8l-62 -351h505l62 351h8z" />
    <glyph glyph-name="hcircumflex" unicode="&#x125;" horiz-adv-x="585" 
d="M230 914l101 -121h-11l-94 110l-134 -110h-11l145 121h4zM200 777h8l-72 -409q23 56 81 98q60 42 131 42q83 0 126 -55q44 -56 29 -140l-55 -313h-8l55 313q15 82 -27 134q-41 53 -119 53q-81 0 -146 -56q-63 -54 -77 -131l-55 -313h-8z" />
    <glyph glyph-name="Hbar" unicode="&#x126;" horiz-adv-x="741" 
d="M793 573l-1 -8h-103l-100 -565h-8l69 389h-505l-69 -389h-8l100 565h-107l1 8h107l31 175h8l-31 -175h505l31 175h8l-31 -175h103zM651 397l30 168h-505l-30 -168h505z" />
    <glyph glyph-name="hbar" unicode="&#x127;" horiz-adv-x="585" 
d="M348 508q83 0 126 -55q44 -56 29 -140l-55 -313h-8l55 313q15 82 -27 134q-41 53 -119 53q-81 0 -146 -56q-63 -54 -77 -131l-55 -313h-8l112 633h-99l1 8h99l24 136h8l-24 -136h108l-1 -8h-108l-47 -265q23 56 81 98q60 42 131 42z" />
    <glyph glyph-name="Itilde" unicode="&#x128;" horiz-adv-x="228" 
d="M158 904q31 0 66 -35t62 -35t46.5 18t24.5 45h8q-6 -31 -27.5 -51t-50.5 -20q-32 0 -67 35t-62 35t-46.5 -18t-24.5 -45h-8q6 30 28 50.5t51 20.5zM206 748l-132 -748h-8l132 748h8z" />
    <glyph glyph-name="itilde" unicode="&#x129;" 
d="M118 703q32 0 67 -35t62 -35q26 0 45.5 17.5t25.5 45.5h8q-6 -30 -28 -50.5t-51 -20.5q-32 0 -67 35t-62 35q-26 0 -45.5 -17.5t-25.5 -45.5h-8q6 30 28 50.5t51 20.5zM159 500l-88 -500h-8l88 500h8z" />
    <glyph glyph-name="Imacron" unicode="&#x12a;" horiz-adv-x="228" 
d="M330 868l-1 -8h-215l1 8h215zM206 748l-132 -748h-8l132 748h8z" />
    <glyph glyph-name="imacron" unicode="&#x12b;" 
d="M292 664l-1 -8h-215l1 8h215zM159 500l-88 -500h-8l88 500h8z" />
    <glyph glyph-name="Ibreve" unicode="&#x12c;" horiz-adv-x="228" 
d="M340 907h8q-7 -42 -43 -66.5t-90 -24.5q-55 0 -82.5 24.5t-20.5 66.5h8q-7 -38 19 -60.5t76 -22.5q51 0 84.5 22.5t40.5 60.5zM206 748l-132 -748h-8l132 748h8z" />
    <glyph glyph-name="ibreve" unicode="&#x12d;" 
d="M301 697h8q-7 -42 -43 -66.5t-90 -24.5q-55 0 -82.5 24.5t-20.5 66.5h8q-7 -38 18.5 -60.5t75.5 -22.5q51 0 85 22.5t41 60.5zM159 500l-88 -500h-8l88 500h8z" />
    <glyph glyph-name="Iogonek" unicode="&#x12e;" horiz-adv-x="228" 
d="M212 748l-132 -748h-6q-65 -28 -98 -54.5t-39 -59.5q-5 -27 12.5 -43t51.5 -16q38 0 68 13l2 -8q-35 -13 -70 -13q-39 0 -58 18t-13 51q6 35 40.5 63t102.5 57l131 740h8z" />
    <glyph glyph-name="iogonek" unicode="&#x12f;" 
d="M196 698q8 0 13 -6t3 -14q-1 -7 -7.5 -12.5t-13.5 -5.5q-8 0 -13 6t-3 14q1 7 7.5 12.5t13.5 5.5zM70 7l87 493h8l-88 -500h-5q-65 -28 -98 -54.5t-39 -59.5q-5 -27 12.5 -43t51.5 -16q38 0 68 13l2 -8q-35 -13 -70 -13q-39 0 -58 18t-13 51q12 66 142 119z" />
    <glyph glyph-name="Idot" unicode="&#x130;" horiz-adv-x="228" 
d="M221 861q8 0 13 -6t4 -14q-6 -18 -22 -18q-8 0 -13 6t-3 14q6 18 21 18zM206 748l-132 -748h-8l132 748h8z" />
    <glyph glyph-name="dotlessi" unicode="&#x131;" 
d="M159 500l-88 -500h-8l88 500h8z" />
    <glyph glyph-name="Jcircumflex" unicode="&#x134;" horiz-adv-x="533" 
d="M559 916l101 -121h-11l-94 110l-134 -110h-11l145 121h4zM523 748h8l-97 -549q-18 -99 -78 -153t-151 -54q-93 0 -138.5 55.5t-32.5 152.5h8q-13 -94 31 -147t131 -53q88 0 146.5 52t75.5 147z" />
    <glyph glyph-name="jcircumflex" unicode="&#x135;" 
d="M202 751l96 -159h-10l-90 148l-142 -148h-10l152 159h4zM152 500h8l-107 -609q-25 -148 -147 -148q-3 0 -25 2l1 8q22 -2 23 -2q114 0 140 140z" />
    <glyph glyph-name="Kcommaaccent" unicode="&#x136;" horiz-adv-x="616" 
d="M623 748l-381 -330l300 -418h-10l-295 412l-106 -90l-57 -322h-8l132 748h8l-74 -416l480 416h11zM264 -39q22 0 17 -27q-17 -90 -84 -136l1 9q57 47 66 117h-4q-18 0 -16 19q6 18 20 18z" />
    <glyph glyph-name="kcommaaccent" unicode="&#x137;" horiz-adv-x="478" 
d="M471 500l-281 -222l226 -278h-10l-222 273l-75 -60l-38 -213h-8l137 777h8l-97 -552l347 275h13zM211 -39q21 0 17 -27q-17 -90 -84 -136l1 9q57 47 66 117h-4q-18 0 -16 19q6 18 20 18z" />
    <glyph glyph-name="Lacute" unicode="&#x139;" horiz-adv-x="591" 
d="M416 919l-199 -124h-14l197 124h16zM206 748l-131 -740h439l-1 -8h-447l132 748h8z" />
    <glyph glyph-name="lacute" unicode="&#x13a;" horiz-adv-x="222" 
d="M413 928l-199 -124h-14l197 124h16zM208 777l-137 -777h-8l137 777h8z" />
    <glyph glyph-name="Lcommaaccent" unicode="&#x13b;" horiz-adv-x="591" 
d="M75 8h439l-1 -8h-447l132 748h8zM286 -39q22 0 17 -27q-17 -90 -84 -136l1 9q57 47 66 117h-4q-18 0 -16 19q6 18 20 18z" />
    <glyph glyph-name="lcommaaccent" unicode="&#x13c;" horiz-adv-x="222" 
d="M208 777l-137 -777h-8l137 777h8zM55 -39q21 0 17 -27q-17 -90 -84 -136l1 9q57 47 66 117h-4q-18 0 -16 19q6 18 20 18z" />
    <glyph glyph-name="Lcaron" unicode="&#x13d;" horiz-adv-x="591" 
d="M206 748l-131 -740h439l-1 -8h-447l132 748h8zM564 715q22 0 17 -27q-17 -90 -84 -136l1 9q57 47 66 117h-4q-18 0 -16 19q6 18 20 18z" />
    <glyph glyph-name="lcaron" unicode="&#x13e;" horiz-adv-x="269" 
d="M63 0l137 777h8l-137 -777h-8zM315 715q21 0 17 -27q-17 -90 -84 -136l1 9q57 47 66 117h-4q-18 0 -16 19q6 18 20 18z" />
    <glyph glyph-name="Ldot" unicode="&#x13f;" horiz-adv-x="591" 
d="M206 748l-131 -740h439l-1 -8h-447l132 748h8zM488 369q21 0 18 -22q-4 -19 -23 -19q-20 0 -18 21q1 8 8 14t15 6z" />
    <glyph glyph-name="ldot" unicode="&#x140;" horiz-adv-x="287" 
d="M209 777l-137 -777h-8l137 777h8zM246 279q21 0 18 -22q-4 -19 -23 -19q-20 0 -18 21q1 8 8 14t15 6z" />
    <glyph glyph-name="Lslash" unicode="&#x141;" horiz-adv-x="601" 
d="M75 8h439l-1 -8h-447l46 263l-119 -55l-2 7l123 56l84 477h8l-84 -473l170 78l3 -7l-174 -80z" />
    <glyph glyph-name="lslash" unicode="&#x142;" horiz-adv-x="241" 
d="M269 354l-138 -65l-51 -289h-8l50 285l-134 -63l-2 7l138 65l85 483h8l-84 -479l134 63z" />
    <glyph glyph-name="Nacute" unicode="&#x143;" horiz-adv-x="731" 
d="M667 919l-199 -124h-14l197 124h16zM709 748l-132 -748h-6l-368 730l-129 -730h-8l132 748h5l369 -730l129 730h8z" />
    <glyph glyph-name="nacute" unicode="&#x144;" horiz-adv-x="595" 
d="M531 781l-162 -191h-9l161 191h10zM345 508q83 0 128 -55t30 -140l-55 -313h-8l55 313q14 83 -29 134q-42 53 -120 53q-82 0 -144 -56q-61 -55 -75 -131l-56 -313h-8l88 500h8l-22 -132q23 57 80 98q57 42 128 42z" />
    <glyph glyph-name="Ncommaaccent" unicode="&#x145;" horiz-adv-x="731" 
d="M701 748h8l-132 -748h-6l-368 730l-129 -730h-8l132 748h5l369 -730zM310 -39q22 0 17 -27q-17 -90 -84 -136l1 9q57 47 66 117h-4q-18 0 -16 19q6 18 20 18z" />
    <glyph glyph-name="ncommaaccent" unicode="&#x146;" horiz-adv-x="595" 
d="M345 508q83 0 128 -55t30 -140l-55 -313h-8l55 313q14 83 -29 134q-42 53 -120 53q-82 0 -144 -56q-61 -55 -75 -131l-56 -313h-8l88 500h8l-22 -132q23 57 80 98q57 42 128 42zM251 -39q21 0 17 -27q-17 -90 -84 -136l1 9q57 47 66 117h-4q-18 0 -16 19q6 18 20 18z" />
    <glyph glyph-name="Ncaron" unicode="&#x147;" horiz-adv-x="731" 
d="M609 916l-145 -121h-4l-101 121h11l94 -110l134 110h11zM709 748l-132 -748h-6l-368 730l-129 -730h-8l132 748h5l369 -730l129 730h8z" />
    <glyph glyph-name="ncaron" unicode="&#x148;" horiz-adv-x="595" 
d="M519 748l-152 -159h-4l-96 159h10l90 -148l142 148h10zM345 508q83 0 128 -55t30 -140l-55 -313h-8l55 313q14 83 -29 134q-42 53 -120 53q-82 0 -144 -56q-61 -55 -75 -131l-56 -313h-8l88 500h8l-22 -132q23 57 80 98q57 42 128 42z" />
    <glyph glyph-name="Eng" unicode="&#x14a;" horiz-adv-x="731" 
d="M709 748l-89 -503l-51 -293q-18 -99 -79 -153t-152 -54l1 8q88 0 146.5 52t75.5 147l9 50l-367 728l-129 -730h-8l132 748h5l369 -730l52 293l33 190l44 247h8z" />
    <glyph glyph-name="eng" unicode="&#x14b;" horiz-adv-x="595" 
d="M345 508q83 0 128 -55t30 -140l-31 -175l-43 -247q-25 -148 -148 -148l1 8q113 0 139 140l19 109l24 138l2 10l29 165q14 83 -29 134q-42 53 -120 53q-82 0 -144 -56q-61 -55 -75 -131l-56 -313h-8l88 500h8l-22 -132q23 57 80 98q57 42 128 42z" />
    <glyph glyph-name="Omacron" unicode="&#x14c;" horiz-adv-x="854" 
d="M640 868l-1 -8h-215l1 8h215zM517 756q154 0 245 -103t69 -280q-22 -174 -138 -278q-115 -103 -268 -103q-154 0 -245 103t-69 280q23 177 137 278q115 103 269 103zM518 748q-149 0 -264 -101q-113 -101 -135 -274q-22 -170 67 -272q89 -101 238 -101q150 0 263 101
q113 100 136 274q22 171 -67 272t-238 101z" />
    <glyph glyph-name="omacron" unicode="&#x14d;" horiz-adv-x="620" 
d="M498 664l-1 -8h-215l1 8h215zM362 508q105 0 166 -70t44 -189q-16 -115 -97 -187q-79 -70 -183 -70q-105 0 -166 70t-44 189q16 116 96 187q79 70 184 70zM363 500q-102 0 -179 -68q-78 -69 -94 -183q-17 -115 41 -182t160 -67t179 68q78 69 94 183t-42 181
q-59 68 -159 68z" />
    <glyph glyph-name="Obreve" unicode="&#x14e;" horiz-adv-x="854" 
d="M650 907h8q-7 -42 -43 -66.5t-90 -24.5q-55 0 -82.5 24.5t-20.5 66.5h8q-7 -38 19 -60.5t76 -22.5q51 0 84.5 22.5t40.5 60.5zM517 756q154 0 245 -103t69 -280q-22 -174 -138 -278q-115 -103 -268 -103q-154 0 -245 103t-69 280q23 177 137 278q115 103 269 103z
M518 748q-149 0 -264 -101q-113 -101 -135 -274q-22 -170 67 -272q89 -101 238 -101q150 0 263 101q113 100 136 274q22 171 -67 272t-238 101z" />
    <glyph glyph-name="obreve" unicode="&#x14f;" horiz-adv-x="620" 
d="M507 697h8q-7 -42 -43 -66.5t-90 -24.5q-55 0 -82.5 24.5t-20.5 66.5h8q-7 -38 18.5 -60.5t75.5 -22.5q51 0 85 22.5t41 60.5zM362 508q105 0 166 -70t44 -189q-16 -115 -97 -187q-79 -70 -183 -70q-105 0 -166 70t-44 189q16 116 96 187q79 70 184 70zM363 500
q-102 0 -179 -68q-78 -69 -94 -183q-17 -115 41 -182t160 -67t179 68q78 69 94 183t-42 181q-59 68 -159 68z" />
    <glyph glyph-name="Ohungarumlaut" unicode="&#x150;" horiz-adv-x="854" 
d="M537 918l-80 -120h-9l79 120h10zM665 918l-80 -120h-9l79 120h10zM517 756q154 0 245 -103t69 -280q-22 -174 -138 -278q-115 -103 -268 -103q-154 0 -245 103t-69 280q23 177 137 278q115 103 269 103zM518 748q-149 0 -264 -101q-113 -101 -135 -274q-22 -170 67 -272
q89 -101 238 -101q150 0 263 101q113 100 136 274q22 171 -67 272t-238 101z" />
    <glyph glyph-name="ohungarumlaut" unicode="&#x151;" horiz-adv-x="620" 
d="M401 738l-86 -128h-9l86 128h9zM529 738l-86 -128h-9l86 128h9zM362 508q105 0 166 -70t44 -189q-16 -115 -97 -187q-79 -70 -183 -70q-105 0 -166 70t-44 189q16 116 96 187q79 70 184 70zM363 500q-102 0 -179 -68q-78 -69 -94 -183q-17 -115 41 -182t160 -67t179 68
q78 69 94 183t-42 181q-59 68 -159 68z" />
    <glyph glyph-name="OE" unicode="&#x152;" horiz-adv-x="1248" 
d="M1326 740h-431l-61 -346h387l-1 -8h-387l-1 -8l-1 -5q-5 -32 -11 -59l-54 -306h431l-1 -8h-439l45 256q-48 -124 -151 -194q-101 -70 -226 -70q-154 0 -245 103t-69 280q23 177 137 278q115 103 269 103q139 0 227 -84q90 -83 91 -231l54 307h439zM424 0q138 0 248 87
q108 88 143 240l8 44v4q22 171 -67 272t-238 101t-264 -101q-113 -101 -135 -274q-22 -170 67 -272q89 -101 238 -101z" />
    <glyph glyph-name="oe" unicode="&#x153;" horiz-adv-x="1063" 
d="M833 508q104 0 153 -67q50 -67 33 -174l-2 -17h-445v-1q0 -1 -0.5 -3t-0.5 -3q-14 -114 41 -178q56 -65 151 -65q80 0 139.5 38t86.5 105l8 -1q-29 -72 -89.5 -111t-143.5 -39q-90 0 -146 55t-57 150q-28 -94 -104 -150q-73 -55 -165 -55q-105 0 -166 70t-44 189
q16 116 96 187q79 70 184 70q93 0 151 -55q59 -54 62 -149q29 98 98 150q71 54 160 54zM291 0q102 0 179 68q78 69 94 183v3q16 111 -43 179q-58 67 -158 67q-102 0 -179 -68q-78 -69 -94 -183q-17 -115 41 -182t160 -67zM573 258h438l1 9q15 103 -32 168t-146 65
q-97 0 -169 -63q-73 -64 -92 -175v-4z" />
    <glyph glyph-name="Racute" unicode="&#x154;" horiz-adv-x="659" 
d="M610 919l-199 -124h-14l197 124h16zM623 543q-15 -87 -66 -137.5t-128 -62.5l140 -343h-9l-139 342q-26 -2 -33 -2h-254l-60 -340h-8l132 748h234q91 0 146 -52q56 -51 45 -153zM204 740l-69 -392h254q88 0 148.5 50t77.5 147q10 96 -44 146q-53 49 -141 49h-226z" />
    <glyph glyph-name="racute" unicode="&#x155;" horiz-adv-x="290" 
d="M385 781l-162 -191h-9l161 191h10zM320 508l-1 -8q-72 0 -125 -50q-52 -49 -64 -117l-59 -333h-8l88 500h8l-20 -112q21 51 70.5 85.5t110.5 34.5z" />
    <glyph glyph-name="Rcommaaccent" unicode="&#x156;" horiz-adv-x="659" 
d="M623 543q-15 -87 -66 -137.5t-128 -62.5l140 -343h-9l-139 342q-26 -2 -33 -2h-254l-60 -340h-8l132 748h234q91 0 146 -52q56 -51 45 -153zM204 740l-69 -392h254q88 0 148.5 50t77.5 147q10 96 -44 146q-53 49 -141 49h-226zM289 -39q21 0 17 -27q-17 -90 -84 -136l1 9
q57 47 66 117h-4q-18 0 -16 19q6 18 20 18z" />
    <glyph glyph-name="rcommaaccent" unicode="&#x157;" horiz-adv-x="290" 
d="M151 500h8l-20 -112q21 51 70.5 85.5t110.5 34.5l-1 -8q-72 0 -125 -50q-52 -49 -64 -117l-59 -333h-8zM58 -39q22 0 17 -27q-17 -90 -84 -136l1 9q57 47 66 117h-4q-18 0 -16 19q6 18 20 18z" />
    <glyph glyph-name="Rcaron" unicode="&#x158;" horiz-adv-x="659" 
d="M407 795h-4l-101 121h11l94 -110l134 110h11zM623 543q-15 -87 -66 -137.5t-128 -62.5l140 -343h-9l-139 342q-26 -2 -33 -2h-254l-60 -340h-8l132 748h234q91 0 146 -52q56 -51 45 -153zM204 740l-69 -392h254q88 0 148.5 50t77.5 147q10 96 -44 146q-53 49 -141 49
h-226z" />
    <glyph glyph-name="rcaron" unicode="&#x159;" horiz-adv-x="290" 
d="M373 748l-152 -159h-4l-96 159h10l90 -148l142 148h10zM320 508l-1 -8q-72 0 -125 -50q-52 -49 -64 -117l-59 -333h-8l88 500h8l-20 -112q21 51 70.5 85.5t110.5 34.5z" />
    <glyph glyph-name="Sacute" unicode="&#x15a;" horiz-adv-x="645" 
d="M615 919l-199 -124h-14l197 124h16zM404 756q98 0 155 -47.5t53 -131.5l-9 -1q4 81 -49.5 126.5t-148.5 45.5q-109 0 -176.5 -51t-79.5 -132q-10 -71 27 -113q19 -19 46 -31q47 -20 128 -38h1q62 -13 91 -22q34 -9 67 -25q49 -21 65.5 -54t11.5 -94q-13 -97 -91 -147
q-76 -49 -187 -49q-108 0 -176 50t-63 138l8 1q-4 -82 61 -132q64 -49 169 -49q112 0 185.5 49t85.5 141q13 91 -49 126q-36 20 -68 30q-44 13 -97 26l-14 3q-50 11 -75 18q-19 6 -59 23q-33 15 -48 33q-38 46 -27 118q12 82 80 135q69 54 183 54z" />
    <glyph glyph-name="sacute" unicode="&#x15b;" horiz-adv-x="490" 
d="M459 781l-162 -191h-9l161 191h10zM277 507q68 1 103 -31t36 -93l-8 -1q0 57 -33.5 87.5t-96.5 29.5q-74 1 -118.5 -32.5t-53.5 -92.5q-10 -62 39 -84q21 -9 93 -25q94 -21 130 -48q37 -26 26 -88q-11 -66 -62 -101.5t-128 -35.5q-73 0 -115 32.5t-44 94.5l8 1
q2 -59 41.5 -89.5t108.5 -30.5q76 0 124.5 33.5t58.5 97.5q9 57 -25 81q-33 24 -125 45q-82 19 -98 28q-50 25 -40 91q9 61 55.5 96.5t123.5 34.5z" />
    <glyph glyph-name="Scircumflex" unicode="&#x15c;" horiz-adv-x="645" 
d="M434 916l101 -121h-11l-94 110l-134 -110h-11l145 121h4zM404 756q98 0 155 -47.5t53 -131.5l-9 -1q4 81 -49.5 126.5t-148.5 45.5q-109 0 -176.5 -51t-79.5 -132q-10 -71 27 -113q19 -19 46 -31q47 -20 128 -38h1q62 -13 91 -22q34 -9 67 -25q49 -21 65.5 -54t11.5 -94
q-13 -97 -91 -147q-76 -49 -187 -49q-108 0 -176 50t-63 138l8 1q-4 -82 61 -132q64 -49 169 -49q112 0 185.5 49t85.5 141q13 91 -49 126q-36 20 -68 30q-44 13 -97 26l-14 3q-50 11 -75 18q-19 6 -59 23q-33 15 -48 33q-38 46 -27 118q12 82 80 135q69 54 183 54z" />
    <glyph glyph-name="scircumflex" unicode="&#x15d;" horiz-adv-x="490" 
d="M323 751l96 -159h-10l-90 148l-142 -148h-10l152 159h4zM277 507q68 1 103 -31t36 -93l-8 -1q0 57 -33.5 87.5t-96.5 29.5q-74 1 -118.5 -32.5t-53.5 -92.5q-10 -62 39 -84q21 -9 93 -25q94 -21 130 -48q37 -26 26 -88q-11 -66 -62 -101.5t-128 -35.5q-73 0 -115 32.5
t-44 94.5l8 1q2 -59 41.5 -89.5t108.5 -30.5q76 0 124.5 33.5t58.5 97.5q9 57 -25 81q-33 24 -125 45q-82 19 -98 28q-50 25 -40 91q9 61 55.5 96.5t123.5 34.5z" />
    <glyph glyph-name="Scedilla" unicode="&#x15e;" horiz-adv-x="645" 
d="M404 756q98 0 155 -47.5t53 -131.5l-9 -1q4 81 -49.5 126.5t-148.5 45.5q-109 0 -176.5 -51t-79.5 -132q-10 -71 27 -113q19 -19 46 -31q47 -20 128 -38h1q62 -13 91 -22q34 -9 67 -25q49 -21 65.5 -54t11.5 -94q-14 -97 -90 -146q-73 -48 -184 -50l-26 -73
q57 1 84 -20.5t20 -63.5q-6 -34 -38.5 -55t-74.5 -21q-56 0 -96 28l5 7q39 -27 91 -27q40 0 69.5 19t35.5 51q6 35 -17.5 54.5t-74.5 19.5q-13 0 -16 -1l30 82q-105 1 -173 51q-67 50 -62 137l8 1q-4 -82 61 -132q64 -49 169 -49q112 0 185.5 49t85.5 141q13 91 -49 126
q-36 20 -68 30q-44 13 -97 26l-14 3q-50 11 -75 18q-19 6 -59 23q-33 15 -48 33q-38 46 -27 118q12 82 80 135q69 54 183 54z" />
    <glyph glyph-name="scedilla" unicode="&#x15f;" horiz-adv-x="490" 
d="M278 499q-74 1 -118.5 -32.5t-53.5 -92.5q-10 -62 39 -84q21 -9 93 -25q94 -21 130 -48q37 -26 26 -88q-11 -65 -61 -100.5t-126 -36.5l-26 -73q57 1 84 -20.5t20 -63.5q-6 -34 -38.5 -55t-74.5 -21q-56 0 -96 28l5 7q39 -27 91 -27q40 0 69.5 19t35.5 51
q6 35 -17.5 54.5t-74.5 19.5q-13 0 -16 -1l30 82q-71 2 -111.5 34.5t-42.5 92.5l8 1q2 -59 41.5 -89.5t108.5 -30.5q76 0 124.5 33.5t58.5 97.5q9 57 -25 81q-33 24 -125 45q-82 19 -98 28q-50 25 -40 91q9 61 55.5 96.5t123.5 34.5q68 1 103 -31t36 -93l-8 -1
q0 57 -33.5 87.5t-96.5 29.5z" />
    <glyph glyph-name="Scaron" unicode="&#x160;" horiz-adv-x="645" 
d="M557 916l-145 -121h-4l-101 121h11l94 -110l134 110h11zM404 756q98 0 155 -47.5t53 -131.5l-9 -1q4 81 -49.5 126.5t-148.5 45.5q-109 0 -176.5 -51t-79.5 -132q-10 -71 27 -113q19 -19 46 -31q47 -20 128 -38h1q62 -13 91 -22q34 -9 67 -25q49 -21 65.5 -54t11.5 -94
q-13 -97 -91 -147q-76 -49 -187 -49q-108 0 -176 50t-63 138l8 1q-4 -82 61 -132q64 -49 169 -49q112 0 185.5 49t85.5 141q13 91 -49 126q-36 20 -68 30q-44 13 -97 26l-14 3q-50 11 -75 18q-19 6 -59 23q-33 15 -48 33q-38 46 -27 118q12 82 80 135q69 54 183 54z" />
    <glyph glyph-name="scaron" unicode="&#x161;" horiz-adv-x="490" 
d="M447 748l-152 -159h-4l-96 159h10l90 -148l142 148h10zM277 507q68 1 103 -31t36 -93l-8 -1q0 57 -33.5 87.5t-96.5 29.5q-74 1 -118.5 -32.5t-53.5 -92.5q-10 -62 39 -84q21 -9 93 -25q94 -21 130 -48q37 -26 26 -88q-11 -66 -62 -101.5t-128 -35.5q-73 0 -115 32.5
t-44 94.5l8 1q2 -59 41.5 -89.5t108.5 -30.5q76 0 124.5 33.5t58.5 97.5q9 57 -25 81q-33 24 -125 45q-82 19 -98 28q-50 25 -40 91q9 61 55.5 96.5t123.5 34.5z" />
    <glyph glyph-name="Tcaron" unicode="&#x164;" horiz-adv-x="668" 
d="M577 916l-145 -121h-4l-101 121h11l94 -110l134 110h11zM741 748l-2 -8h-315l-130 -740h-8l130 740h-315l2 8h638z" />
    <glyph glyph-name="tcaron" unicode="&#x165;" horiz-adv-x="416" 
d="M459 715q21 0 17 -27q-17 -90 -84 -136l1 9q57 47 66 117h-4q-18 0 -16 19q6 18 20 18zM196 683l-33 -183h159l-1 -8h-159l-64 -353q-23 -134 83 -134q29 0 57 6l-2 -9q-20 -5 -55 -5q-116 0 -91 142l64 353h-96l1 8h96l33 183h8z" />
    <glyph glyph-name="Tbar" unicode="&#x166;" horiz-adv-x="668" 
d="M739 740h-315l-61 -350h164l-2 -8h-164l-67 -382h-8l67 382h-164l2 8h164l61 350h-315l2 8h638z" />
    <glyph glyph-name="tbar" unicode="&#x167;" horiz-adv-x="295" 
d="M322 492h-159l-38 -211h158l-1 -8h-159l-24 -134q-23 -134 83 -134q28 0 57 6l-2 -9q-20 -5 -55 -5q-116 0 -91 142l24 134h-96l1 8h97l38 211h-96l1 8h96l33 183h8l-33 -183h159z" />
    <glyph glyph-name="Utilde" unicode="&#x168;" horiz-adv-x="747" 
d="M439 904q31 0 66 -35t62 -35t46.5 18t24.5 45h8q-6 -31 -27.5 -51t-50.5 -20q-32 0 -67 35t-62 35t-46.5 -18t-24.5 -45h-8q6 30 28 50.5t51 20.5zM747 748h8l-88 -498q-23 -125 -106 -191.5t-210 -66.5q-126 0 -187 67t-38 191l88 498h8l-88 -498q-21 -121 36.5 -185.5
t179.5 -64.5q124 0 206 64.5t103 185.5z" />
    <glyph glyph-name="utilde" unicode="&#x169;" horiz-adv-x="576" 
d="M313 703q32 0 67 -35t62 -35q26 0 45.5 17.5t25.5 45.5h8q-6 -30 -28 -50.5t-51 -20.5q-32 0 -67 35t-62 35q-26 0 -45.5 -17.5t-25.5 -45.5h-8q6 30 28 50.5t51 20.5zM528 500l-88 -500h-8l23 132q-23 -57 -78 -99q-55 -41 -125 -41q-81 0 -120.5 53.5t-24.5 141.5
l55 313h8l-55 -313q-15 -84 22 -135.5t114 -51.5q83 0 141 55q59 55 73 132l55 313h8z" />
    <glyph glyph-name="Umacron" unicode="&#x16a;" horiz-adv-x="747" 
d="M611 868l-1 -8h-215l1 8h215zM747 748h8l-88 -498q-23 -125 -106 -191.5t-210 -66.5q-126 0 -187 67t-38 191l88 498h8l-88 -498q-21 -121 36.5 -185.5t179.5 -64.5q124 0 206 64.5t103 185.5z" />
    <glyph glyph-name="umacron" unicode="&#x16b;" horiz-adv-x="576" 
d="M487 664l-1 -8h-215l1 8h215zM528 500l-88 -500h-8l23 132q-23 -57 -78 -99q-55 -41 -125 -41q-81 0 -120.5 53.5t-24.5 141.5l55 313h8l-55 -313q-15 -84 22 -135.5t114 -51.5q83 0 141 55q59 55 73 132l55 313h8z" />
    <glyph glyph-name="Ubreve" unicode="&#x16c;" horiz-adv-x="747" 
d="M621 907h8q-7 -42 -43 -66.5t-90 -24.5q-55 0 -82.5 24.5t-20.5 66.5h8q-7 -38 19 -60.5t76 -22.5q51 0 84.5 22.5t40.5 60.5zM747 748h8l-88 -498q-23 -125 -106 -191.5t-210 -66.5q-126 0 -187 67t-38 191l88 498h8l-88 -498q-21 -121 36.5 -185.5t179.5 -64.5
q124 0 206 64.5t103 185.5z" />
    <glyph glyph-name="ubreve" unicode="&#x16d;" horiz-adv-x="576" 
d="M496 697h8q-7 -42 -43 -66.5t-90 -24.5q-55 0 -82.5 24.5t-20.5 66.5h8q-7 -38 18.5 -60.5t75.5 -22.5q51 0 85 22.5t41 60.5zM528 500l-88 -500h-8l23 132q-23 -57 -78 -99q-55 -41 -125 -41q-81 0 -120.5 53.5t-24.5 141.5l55 313h8l-55 -313q-15 -84 22 -135.5
t114 -51.5q83 0 141 55q59 55 73 132l55 313h8z" />
    <glyph glyph-name="Uring" unicode="&#x16e;" horiz-adv-x="747" 
d="M520 963q39 0 60 -24t14 -62q-7 -36 -36.5 -60t-65.5 -24q-39 0 -60 24t-14 62q7 36 36.5 60t65.5 24zM521 955q-34 0 -61.5 -22.5t-33.5 -55.5q-6 -32 13.5 -54t52.5 -22q34 0 61 22t33 56q6 33 -13 54.5t-52 21.5zM747 748h8l-88 -498q-23 -125 -106 -191.5t-210 -66.5
q-126 0 -187 67t-38 191l88 498h8l-88 -498q-21 -121 36.5 -185.5t179.5 -64.5q124 0 206 64.5t103 185.5z" />
    <glyph glyph-name="uring" unicode="&#x16f;" horiz-adv-x="576" 
d="M397 766q39 0 60.5 -25t14.5 -63q-6 -36 -36.5 -60.5t-67.5 -24.5q-40 0 -62 24.5t-15 62.5q7 37 37.5 61.5t68.5 24.5zM398 758q-37 0 -65 -22.5t-35 -57.5q-5 -33 15 -55t55 -22q36 0 63.5 22.5t33.5 56.5q6 33 -13.5 55.5t-53.5 22.5zM528 500l-88 -500h-8l23 132
q-23 -57 -78 -99q-55 -41 -125 -41q-81 0 -120.5 53.5t-24.5 141.5l55 313h8l-55 -313q-15 -84 22 -135.5t114 -51.5q83 0 141 55q59 55 73 132l55 313h8z" />
    <glyph glyph-name="Uhungarumlaut" unicode="&#x170;" horiz-adv-x="747" 
d="M508 918l-80 -120h-9l79 120h10zM636 918l-80 -120h-9l79 120h10zM747 748h8l-88 -498q-23 -125 -106 -191.5t-210 -66.5q-126 0 -187 67t-38 191l88 498h8l-88 -498q-21 -121 36.5 -185.5t179.5 -64.5q124 0 206 64.5t103 185.5z" />
    <glyph glyph-name="uhungarumlaut" unicode="&#x171;" horiz-adv-x="576" 
d="M390 738l-86 -128h-9l86 128h9zM518 738l-86 -128h-9l86 128h9zM528 500l-88 -500h-8l23 132q-23 -57 -78 -99q-55 -41 -125 -41q-81 0 -120.5 53.5t-24.5 141.5l55 313h8l-55 -313q-15 -84 22 -135.5t114 -51.5q83 0 141 55q59 55 73 132l55 313h8z" />
    <glyph glyph-name="Uogonek" unicode="&#x172;" horiz-adv-x="747" 
d="M747 748h8l-88 -498q-19 -104 -79.5 -168t-155.5 -82q-65 -28 -97.5 -54.5t-38.5 -59.5q-5 -27 12.5 -43t51.5 -16q36 0 68 13l2 -8q-35 -13 -70 -13q-39 0 -58 18t-13 51q11 59 114 107q-24 -3 -52 -3q-126 0 -187 67t-38 191l88 498h8l-88 -498q-21 -121 36.5 -185.5
t179.5 -64.5q46 0 86 9q90 19 147.5 80.5t75.5 160.5z" />
    <glyph glyph-name="uogonek" unicode="&#x173;" horiz-adv-x="576" 
d="M520 500h8l-88 -500h-3q-67 -28 -100 -54.5t-39 -60.5q-5 -27 12.5 -43t51.5 -16q36 0 68 13l2 -8q-35 -13 -70 -13q-39 0 -58 18t-13 51q12 66 142 119l22 126q-23 -57 -78 -99q-55 -41 -125 -41q-81 0 -120.5 53.5t-24.5 141.5l55 313h8l-55 -313q-15 -84 22 -135.5
t114 -51.5q83 0 141 55q59 55 73 132z" />
    <glyph glyph-name="Wcircumflex" unicode="&#x174;" horiz-adv-x="1110" 
d="M675 916l101 -121h-11l-94 110l-134 -110h-11l145 121h4zM1167 748l-395 -748h-7l-125 730l-384 -730h-7l-130 748h8l127 -734l386 734h5l125 -734l388 734h9z" />
    <glyph glyph-name="wcircumflex" unicode="&#x175;" horiz-adv-x="786" 
d="M483 751l96 -159h-10l-90 148l-142 -148h-10l152 159h4zM812 500l-276 -500h-6l-96 485l-265 -485h-6l-101 500h8l98 -484l265 484h6l96 -484l268 484h9z" />
    <glyph glyph-name="Ycircumflex" unicode="&#x176;" horiz-adv-x="624" 
d="M432 916l101 -121h-11l-94 110l-134 -110h-11l145 121h4zM687 748l-355 -408l-60 -340h-8l60 340l-211 408h9l207 -400l348 400h10z" />
    <glyph glyph-name="ycircumflex" unicode="&#x177;" horiz-adv-x="475" 
d="M326 751l96 -159h-10l-90 148l-142 -148h-10l152 159h4zM491 500l-444 -755h-9l152 259l-118 496h8l116 -486l286 486h9z" />
    <glyph glyph-name="Ydieresis" unicode="&#x178;" horiz-adv-x="624" 
d="M376 871q17 0 14 -17q-5 -14 -18 -14q-17 0 -14 16q4 15 18 15zM469 871q16 0 13 -17q-5 -14 -17 -14q-18 0 -15 16q4 15 19 15zM687 748l-355 -408l-60 -340h-8l60 340l-211 408h9l207 -400l348 400h10z" />
    <glyph glyph-name="Zacute" unicode="&#x179;" horiz-adv-x="607" 
d="M605 919l-199 -124h-14l197 124h16zM656 748l-2 -6l-647 -734h523l-1 -8h-537l1 5l648 735h-493l2 8h506z" />
    <glyph glyph-name="zacute" unicode="&#x17a;" horiz-adv-x="438" 
d="M445 781l-162 -191h-9l161 191h10zM437 500l-1 -6l-434 -486h365l-1 -8h-378l1 6l434 486h-340l1 8h353z" />
    <glyph glyph-name="Zdotaccent" unicode="&#x17b;" horiz-adv-x="607" 
d="M411 861q8 0 13 -6t4 -14q-6 -18 -22 -18q-8 0 -13 6t-3 14q6 18 21 18zM656 748l-2 -6l-647 -734h523l-1 -8h-537l1 5l648 735h-493l2 8h506z" />
    <glyph glyph-name="zdotaccent" unicode="&#x17c;" horiz-adv-x="438" 
d="M297 698q8 0 13 -6t3 -14q-1 -7 -7.5 -12.5t-13.5 -5.5q-8 0 -13 6t-3 14q1 7 7.5 12.5t13.5 5.5zM437 500l-1 -6l-434 -486h365l-1 -8h-378l1 6l434 486h-340l1 8h353z" />
    <glyph glyph-name="Zcaron" unicode="&#x17d;" horiz-adv-x="607" 
d="M547 916l-145 -121h-4l-101 121h11l94 -110l134 110h11zM656 748l-2 -6l-647 -734h523l-1 -8h-537l1 5l648 735h-493l2 8h506z" />
    <glyph glyph-name="zcaron" unicode="&#x17e;" horiz-adv-x="438" 
d="M433 748l-152 -159h-4l-96 159h10l90 -148l142 148h10zM437 500l-1 -6l-434 -486h365l-1 -8h-378l1 6l434 486h-340l1 8h353z" />
    <glyph glyph-name="florin" unicode="&#x192;" horiz-adv-x="415" 
d="M396 785q67 0 109 -47l-7 -7q-40 46 -101 46q-95 0 -137 -122l-54 -155h186l-1 -8h-188l-223 -634h-8l223 634h-127l1 8h129l55 156q43 129 143 129z" />
    <glyph glyph-name="Aringacute" unicode="&#x1fa;" horiz-adv-x="663" 
d="M428 772q-39 0 -60 24t-14 62q9 50 58 74l173 109h16l-160 -100q3 1 15 1q39 0 60 -24t14 -62q-7 -36 -36.5 -60t-65.5 -24zM362 856q-6 -32 13.5 -54t52.5 -22q34 0 61 22t33 56q6 33 -13 54.5t-52 21.5q-34 0 -61.5 -22.5t-33.5 -55.5zM415 748h8l171 -748h-8l-58 256
h-389l-148 -256h-10zM143 264h383l-108 472z" />
    <glyph glyph-name="aringacute" unicode="&#x1fb;" horiz-adv-x="521" 
d="M320 592q-39 0 -60 24t-14 62q9 52 58 74l174 109h16l-161 -100q3 1 15 1q39 0 60 -24t14 -62q-7 -36 -36.5 -60t-65.5 -24zM254 676q-6 -32 13.5 -54t52.5 -22q34 0 61 22t33 56q6 33 -13 54.5t-52 21.5q-34 0 -61.5 -22.5t-33.5 -55.5zM308 508q80 0 113.5 -54.5
t15.5 -153.5l-53 -300h-8l26 149q-31 -78 -89.5 -117.5t-131.5 -39.5q-69 0 -103.5 34.5t-25.5 97.5q18 124 203 136l169 10l5 29q17 97 -13.5 149t-106.5 52q-79 0 -132 -49q-54 -49 -64 -112h-8q12 69 67 118q56 51 136 51zM416 230l6 32l-166 -10q-178 -10 -196 -130
q-9 -57 23.5 -89.5t96.5 -32.5q88 0 152 58t84 172z" />
    <glyph glyph-name="AEacute" unicode="&#x1fc;" horiz-adv-x="975" 
d="M936 919l-199 -124h-14l197 124h16zM1031 740h-431l-61 -346h387l-1 -8h-387l-67 -378h431l-1 -8h-439l45 256h-313l-213 -256h-10l623 748h439zM509 264l82 469l-391 -469h309z" />
    <glyph glyph-name="aeacute" unicode="&#x1fd;" horiz-adv-x="927" 
d="M681 781l-162 -191h-9l161 191h10zM690 508q104 0 153 -67t33 -174l-2 -17h-445q-16 -117 39 -184q56 -66 152 -66q80 0 139.5 38t86.5 105l8 -1q-29 -72 -89.5 -111t-143.5 -39q-90 0 -146 55t-57 150q-26 -101 -89.5 -153t-147.5 -52q-69 0 -103.5 34.5t-25.5 97.5
q18 124 203 136l169 10l5 29q17 97 -13.5 149t-106.5 52q-79 0 -132 -49q-54 -49 -64 -112h-8q12 69 67 118q56 51 136 51q74 0 107.5 -45.5t25.5 -130.5q32 83 98.5 129.5t150.5 46.5zM430 258h438l1 9q15 103 -32 168t-146 65q-98 0 -171 -64q-72 -65 -90 -178zM180 0
q88 0 152 58t84 172l6 32l-166 -10q-178 -10 -196 -130q-9 -57 23.5 -89.5t96.5 -32.5z" />
    <glyph glyph-name="Oslashacute" unicode="&#x1fe;" horiz-adv-x="854" 
d="M703 919l-199 -124h-14l197 124h16zM793 767l5 -5l-80 -86q116 -107 91 -303q-22 -174 -138 -278q-115 -103 -268 -103q-151 0 -238 95l-98 -104l-5 5l98 105q-93 107 -71 282q23 177 137 278q115 103 269 103q131 0 217 -75zM97 373q-23 -170 69 -274l541 576
q-83 73 -211 73q-149 0 -264 -101q-113 -101 -135 -274zM801 375q26 191 -89 295l-541 -577q87 -93 231 -93q150 0 263 101q113 100 136 274z" />
    <glyph glyph-name="oslashacute" unicode="&#x1ff;" horiz-adv-x="620" 
d="M541 781l-162 -191h-9l161 191h10zM571 516l5 -5l-59 -63q71 -75 52 -199q-16 -115 -97 -187q-79 -70 -183 -70q-91 0 -150 54l-59 -63l-5 5l59 62q-73 73 -55 201q16 116 96 187q79 70 184 70q94 0 153 -56zM87 249q-17 -123 53 -193l366 391q-56 53 -146 53
q-102 0 -179 -68q-78 -69 -94 -183zM561 251q17 121 -50 191l-367 -391q56 -51 144 -51q102 0 179 68q78 69 94 183z" />
    <glyph glyph-name="Scommaaccent" unicode="&#x218;" horiz-adv-x="645" 
d="M404 756q98 0 155 -47.5t53 -131.5l-9 -1q4 81 -49.5 126.5t-148.5 45.5q-109 0 -176.5 -51t-79.5 -132q-10 -71 27 -113q19 -19 46 -31q47 -20 128 -38h1q62 -13 91 -22q34 -9 67 -25q49 -21 65.5 -54t11.5 -94q-13 -97 -91 -147q-76 -49 -187 -49q-108 0 -176 50
t-63 138l8 1q-4 -82 61 -132q64 -49 169 -49q112 0 185.5 49t85.5 141q13 91 -49 126q-36 20 -68 30q-44 13 -97 26l-14 3q-50 11 -75 18q-19 6 -59 23q-33 15 -48 33q-38 46 -27 118q12 82 80 135q69 54 183 54zM296 -44q22 0 17 -27q-17 -90 -84 -136l1 9q57 46 66 117h-4
q-18 0 -16 19q6 18 20 18z" />
    <glyph glyph-name="scommaaccent" unicode="&#x219;" horiz-adv-x="490" 
d="M278 499q-74 1 -118.5 -32.5t-53.5 -92.5q-10 -62 39 -84q21 -9 93 -25q94 -21 130 -48q37 -26 26 -88q-11 -66 -62 -101.5t-128 -35.5q-73 0 -115 32.5t-44 94.5l8 1q2 -59 41.5 -89.5t108.5 -30.5q76 0 124.5 33.5t58.5 97.5q9 57 -25 81q-33 24 -125 45q-82 19 -98 28
q-50 25 -40 91q9 61 55.5 96.5t123.5 34.5q68 1 103 -31t36 -93l-8 -1q0 57 -33.5 87.5t-96.5 29.5zM191 -44q21 0 17 -27q-17 -90 -84 -136l1 9q57 46 66 117h-4q-18 0 -16 19q6 18 20 18z" />
    <glyph glyph-name="uni021A" unicode="&#x21a;" horiz-adv-x="668" 
d="M103 748h638l-2 -8h-315l-130 -740h-8l130 740h-315zM278 -39q22 0 17 -27q-17 -90 -84 -136l1 9q57 47 66 117h-4q-18 0 -16 19q6 18 20 18z" />
    <glyph glyph-name="uni021B" unicode="&#x21b;" horiz-adv-x="295" 
d="M321 492h-159l-64 -353q-23 -134 83 -134q29 0 57 6l-2 -9q-20 -5 -55 -5q-116 0 -91 142l64 353h-96l1 8h96l33 183h8l-33 -183h159zM127 -47q21 0 17 -27q-17 -90 -84 -136l1 9q57 47 66 117h-4q-18 0 -16 19q6 18 20 18z" />
    <glyph glyph-name="dotlessj" unicode="&#x237;" 
d="M152 500h8l-107 -609q-25 -148 -147 -148q-3 0 -25 2l1 8q22 -2 23 -2q114 0 140 140z" />
    <glyph glyph-name="circumflex" unicode="&#x2c6;" horiz-adv-x="304" 
d="M242 751l96 -159h-10l-90 148l-142 -148h-10l152 159h4z" />
    <glyph glyph-name="caron" unicode="&#x2c7;" horiz-adv-x="304" 
d="M366 748l-152 -159h-4l-96 159h10l90 -148l142 148h10z" />
    <glyph glyph-name="breve" unicode="&#x2d8;" horiz-adv-x="302" 
d="M347 697h8q-7 -42 -43 -66.5t-90 -24.5q-55 0 -82.5 24.5t-20.5 66.5h8q-7 -38 18.5 -60.5t75.5 -22.5q51 0 85 22.5t41 60.5z" />
    <glyph glyph-name="dotaccent" unicode="&#x2d9;" horiz-adv-x="102" 
d="M131 698q8 0 13 -6t3 -14q-1 -7 -7.5 -12.5t-13.5 -5.5q-8 0 -13 6t-3 14q1 7 7.5 12.5t13.5 5.5z" />
    <glyph glyph-name="ring" unicode="&#x2da;" horiz-adv-x="244" 
d="M220 766q39 0 60.5 -25t14.5 -63q-6 -36 -36.5 -60.5t-67.5 -24.5q-40 0 -62 24.5t-15 62.5q7 37 37.5 61.5t68.5 24.5zM221 758q-37 0 -65 -22.5t-35 -57.5q-5 -33 15 -55t55 -22q36 0 63.5 22.5t33.5 56.5q6 33 -13.5 55.5t-53.5 22.5z" />
    <glyph glyph-name="ogonek" unicode="&#x2db;" horiz-adv-x="227" 
d="M137 11l-1 -8q-67 -28 -100 -54.5t-39 -60.5q-5 -27 12.5 -43t51.5 -16q36 0 68 13l2 -8q-35 -13 -70 -13q-39 0 -58 18t-13 51q6 36 41 64.5t106 56.5z" />
    <glyph glyph-name="tilde" unicode="&#x2dc;" horiz-adv-x="331" 
d="M174 703q32 0 67 -35t62 -35q26 0 45.5 17.5t25.5 45.5h8q-6 -30 -28 -50.5t-51 -20.5q-32 0 -67 35t-62 35q-26 0 -45.5 -17.5t-25.5 -45.5h-8q6 30 28 50.5t51 20.5z" />
    <glyph glyph-name="hungarumlaut" unicode="&#x2dd;" horiz-adv-x="254" 
d="M187 738l-86 -128h-9l86 128h9zM315 738l-86 -128h-9l86 128h9z" />
    <glyph glyph-name="uni0326" unicode="&#x326;" horiz-adv-x="0" 
d="M18 -39q22 0 17 -27q-17 -90 -84 -136l1 9q57 47 66 117h-4q-18 0 -16 19q6 18 20 18z" />
    <glyph glyph-name="Omega" unicode="&#x3a9;" horiz-adv-x="764" 
d="M462 709q150 0 215 -95q66 -94 40 -247q-23 -120 -108 -223q-73 -87 -138 -136h225l-1 -8h-241l1 6q43 29 94 80q48 47 97 126q50 80 63 157q26 149 -38 239q-65 93 -208 93q-145 0 -243 -93t-123 -241q-20 -114 23 -210q44 -98 103 -151l-1 -6h-241l1 8h225
q-35 34 -63 81q-30 50 -49 124q-19 78 -6 156q26 150 125 245q101 95 248 95z" />
    <glyph glyph-name="mu" unicode="&#x3bc;" horiz-adv-x="580" 
d="M509 500h8l-88 -500h-8l23 132q-22 -57 -78 -99q-55 -41 -125 -41q-65 0 -104 35.5t-44 96.5l-67 -379h-8l133 755h8l-55 -313q-15 -84 22 -135.5t114 -51.5q83 0 141 55q59 55 73 132z" />
    <glyph glyph-name="pi" unicode="&#x3c0;" horiz-adv-x="579" 
d="M584 516l6 -5q-56 -66 -125 -66h-37l-109 -366q-24 -77 41 -77q37 0 78 29l4 -7q-44 -30 -81 -30q-75 0 -50 87l109 364h-165l-76 -252q-34 -115 -87 -193h-10q53 74 90 197l75 248h-64q-53 0 -111 -37l-4 6q62 39 116 39h284q66 0 116 63z" />
    <glyph glyph-name="Wgrave" unicode="&#x1e80;" horiz-adv-x="1110" 
d="M505 919l153 -124h-14l-155 124h16zM1167 748l-395 -748h-7l-125 730l-384 -730h-7l-130 748h8l127 -734l386 734h5l125 -734l388 734h9z" />
    <glyph glyph-name="wgrave" unicode="&#x1e81;" horiz-adv-x="786" 
d="M365 781l93 -191h-9l-94 191h10zM812 500l-276 -500h-6l-96 485l-265 -485h-6l-101 500h8l98 -484l265 484h6l96 -484l268 484h9z" />
    <glyph glyph-name="Wacute" unicode="&#x1e82;" horiz-adv-x="1110" 
d="M856 919l-199 -124h-14l197 124h16zM1167 748l-395 -748h-7l-125 730l-384 -730h-7l-130 748h8l127 -734l386 734h5l125 -734l388 734h9z" />
    <glyph glyph-name="wacute" unicode="&#x1e83;" horiz-adv-x="786" 
d="M619 781l-162 -191h-9l161 191h10zM812 500l-276 -500h-6l-96 485l-265 -485h-6l-101 500h8l98 -484l265 484h6l96 -484l268 484h9z" />
    <glyph glyph-name="Wdieresis" unicode="&#x1e84;" horiz-adv-x="1110" 
d="M619 871q17 0 14 -17q-3 -14 -18 -14q-17 0 -14 16q5 15 18 15zM712 871q16 0 13 -17q-3 -14 -17 -14q-18 0 -15 16q5 15 19 15zM1167 748l-395 -748h-7l-125 730l-384 -730h-7l-130 748h8l127 -734l386 734h5l125 -734l388 734h9z" />
    <glyph glyph-name="wdieresis" unicode="&#x1e85;" horiz-adv-x="786" 
d="M420 699q17 0 14 -17q-2 -14 -17 -14q-17 0 -14 16q1 15 17 15zM513 699q16 0 13 -17q-2 -14 -16 -14q-18 0 -15 16q1 6 6.5 10.5t11.5 4.5zM812 500l-276 -500h-6l-96 485l-265 -485h-6l-101 500h8l98 -484l265 484h6l96 -484l268 484h9z" />
    <glyph glyph-name="Ygrave" unicode="&#x1ef2;" horiz-adv-x="624" 
d="M262 919l153 -124h-14l-155 124h16zM687 748l-355 -408l-60 -340h-8l60 340l-211 408h9l207 -400l348 400h10z" />
    <glyph glyph-name="ygrave" unicode="&#x1ef3;" horiz-adv-x="475" 
d="M208 781l93 -191h-9l-94 191h10zM491 500l-444 -755h-9l152 259l-118 496h8l116 -486l286 486h9z" />
    <glyph glyph-name="endash" unicode="&#x2013;" horiz-adv-x="558" 
d="M516 265l-2 -8h-468l2 8h468z" />
    <glyph glyph-name="emdash" unicode="&#x2014;" horiz-adv-x="790" 
d="M748 265l-2 -8h-700l2 8h700z" />
    <glyph glyph-name="quoteleft" unicode="&#x2018;" horiz-adv-x="127" 
d="M102 579q17 90 84 136l-1 -9q-57 -46 -66 -117h4q18 0 16 -19q-6 -18 -20 -18q-21 0 -17 27z" />
    <glyph glyph-name="quoteright" unicode="&#x2019;" horiz-adv-x="127" 
d="M148 715q22 0 17 -27q-17 -90 -84 -136l1 9q57 47 66 117h-4q-18 0 -16 19q6 18 20 18z" />
    <glyph glyph-name="quotesinglbase" unicode="&#x201a;" horiz-adv-x="127" 
d="M27 31q21 0 17 -27q-17 -90 -84 -136l1 9q57 47 66 117h-4q-18 0 -16 19q6 18 20 18z" />
    <glyph glyph-name="quotedblleft" unicode="&#x201c;" horiz-adv-x="238" 
d="M104 579q17 90 84 136l-1 -9q-57 -46 -66 -117h4q18 0 16 -19q-6 -18 -20 -18q-21 0 -17 27zM215 579q17 90 84 136l-1 -9q-57 -46 -66 -117h4q18 0 16 -19q-6 -18 -20 -18q-22 0 -17 27z" />
    <glyph glyph-name="quotedblright" unicode="&#x201d;" horiz-adv-x="238" 
d="M143 715q21 0 17 -27q-17 -90 -84 -136l1 9q57 47 66 117h-4q-18 0 -16 19q6 18 20 18zM254 715q22 0 17 -27q-17 -90 -84 -136l1 9q57 47 66 117h-4q-18 0 -16 19q6 18 20 18z" />
    <glyph glyph-name="quotedblbase" unicode="&#x201e;" horiz-adv-x="238" 
d="M21 31q21 0 17 -27q-17 -90 -84 -136l1 9q57 47 66 117h-4q-18 0 -16 19q6 18 20 18zM132 31q22 0 17 -27q-17 -90 -84 -136l1 9q57 47 66 117h-4q-18 0 -16 19q6 18 20 18z" />
    <glyph glyph-name="dagger" unicode="&#x2020;" horiz-adv-x="438" 
d="M311 748l-40 -226h190l-1 -8h-190l-103 -581h-8l103 581h-190l1 8h190l40 226h8z" />
    <glyph glyph-name="daggerdbl" unicode="&#x2021;" horiz-adv-x="438" 
d="M311 748l-40 -226h190l-1 -8h-190l-62 -347h190l-1 -8h-190l-40 -226h-8l40 226h-190l1 8h190l62 347h-190l1 8h190l40 226h8z" />
    <glyph glyph-name="bullet" unicode="&#x2022;" horiz-adv-x="349" 
d="M203 367q47 0 74 -33t19 -80q-7 -45 -47 -79q-37 -33 -84 -33q-48 0 -75 33t-19 81q7 46 47 78q39 33 85 33z" />
    <glyph glyph-name="ellipsis" unicode="&#x2026;" horiz-adv-x="421" 
d="M35 33q21 0 18 -22q-4 -19 -23 -19q-20 0 -18 21q1 8 8 14t15 6zM172 33q21 0 18 -22q-4 -19 -23 -19q-20 0 -18 21q1 8 8 14t15 6zM309 33q21 0 18 -22q-4 -19 -23 -19q-20 0 -18 21q1 8 8 14t15 6z" />
    <glyph glyph-name="perthousand" unicode="&#x2030;" horiz-adv-x="1143" 
d="M282 756q66 0 98.5 -44.5t19.5 -121.5q-13 -75 -61.5 -120t-112.5 -45q-65 0 -98 45.5t-20 121.5q13 74 61.5 119t112.5 45zM765 748l-706 -748h-10l706 748h10zM283 748q-61 0 -108 -43.5t-59 -114.5t18.5 -114t90.5 -43q61 0 108 44t59 115q13 71 -18 113.5t-91 42.5z
M587 323q66 0 98.5 -44.5t19.5 -121.5q-14 -75 -62 -120t-112 -45q-65 0 -98.5 45.5t-19.5 121.5q13 74 61.5 119t112.5 45zM960 323q66 0 98.5 -44.5t19.5 -121.5q-14 -75 -62 -120t-112 -45q-65 0 -98.5 45.5t-19.5 121.5q13 74 61.5 119t112.5 45zM587 315
q-61 0 -107.5 -43t-58.5 -115q-13 -71 18 -114t91 -43q61 0 107.5 43.5t59.5 115.5q12 71 -19 113.5t-91 42.5zM960 315q-61 0 -107.5 -43t-58.5 -115q-13 -71 18 -114t91 -43q61 0 107.5 43.5t59.5 115.5q12 71 -19 113.5t-91 42.5z" />
    <glyph glyph-name="guilsinglleft" unicode="&#x2039;" horiz-adv-x="266" 
d="M270 447l5 -6l-247 -193l179 -193l-7 -6l-185 199z" />
    <glyph glyph-name="guilsinglright" unicode="&#x203a;" horiz-adv-x="266" 
d="M66 447l185 -199l-255 -199l-5 6l247 193l-179 193z" />
    <glyph glyph-name="fraction" unicode="&#x2044;" horiz-adv-x="164" 
d="M452 748l-686 -748h-10l686 748h10z" />
    <glyph glyph-name="Euro" unicode="&#x20ac;" horiz-adv-x="706" 
d="M513 748q-121 0 -217 -75q-97 -74 -143 -204h421l-5 -8h-418q-15 -38 -23 -89t-8 -84h345l-5 -8h-340q0 -131 70 -205q70 -75 189 -75q131 0 226 73l4 -6q-96 -75 -229 -75q-122 0 -196 77q-73 76 -73 211h-101l5 8h96q2 41 9 86q8 44 22 87h-100l5 8h98q47 134 145 210
q100 77 222 77q126 0 197 -66l-6 -8q-67 66 -190 66z" />
    <glyph glyph-name="trademark" unicode="&#x2122;" horiz-adv-x="864" 
d="M441 748l-2 -8h-150l-61 -351h-8l61 351h-149l2 8h307zM874 748l-63 -359h-8l59 335l-235 -335h-5l-119 335l-59 -335h-8l63 359h4l123 -346l243 346h5z" />
    <glyph glyph-name="estimated" unicode="&#x212e;" horiz-adv-x="627" 
d="M328 533q103 0 176 -68q72 -67 72 -179h-448v-170q0 -29 16 -42q80 -74 184 -74q74 0 136 35.5t100 94.5l7 -5q-42 -63 -105.5 -98t-137.5 -35q-115 0 -194 76t-79 191q0 120 79 196q80 78 194 78zM328 525q-104 0 -183 -70q-17 -14 -17 -38v-123h375v129q0 20 -4 29
t-17 21q-67 52 -154 52z" />
    <glyph glyph-name="partialdiff" unicode="&#x2202;" horiz-adv-x="611" 
d="M404 756q141 -4 172 -136q20 -73 13 -186q-5 -73 -27 -201q-19 -109 -100 -176q-80 -67 -186 -67q-107 0 -165 67q-58 68 -38 178t101 177q83 68 187 68q88 0 143.5 -47.5t61.5 -128.5q8 49 13 107q10 135 -7 196q-36 141 -167 141q-111 0 -216 -87l-5 5q104 90 220 90z
M554 234l1 3q17 104 -40 169q-55 66 -154 66q-103 0 -182 -67q-78 -67 -98 -172q-18 -106 37 -170q56 -65 158 -65q103 0 180 64q78 63 98 172z" />
    <glyph glyph-name="product" unicode="&#x220f;" horiz-adv-x="620" 
d="M673 748l-2 -8h-112l-159 -904h-8l159 904h-310l-159 -904h-8l159 904h-112l2 8h550z" />
    <glyph glyph-name="summation" unicode="&#x2211;" horiz-adv-x="600" 
d="M634 748l-2 -8h-483l213 -366l-342 -366h483l-1 -8h-495l1 6l344 368l-214 368l1 6h495z" />
    <glyph glyph-name="minus" unicode="&#x2212;" horiz-adv-x="544" 
d="M531 373l-2 -8h-474l2 8h474z" />
    <glyph glyph-name="radical" unicode="&#x221a;" horiz-adv-x="578" 
d="M603 695l8 -2l-367 -770l-67 369l-137 -83l-4 7l148 90l65 -356z" />
    <glyph glyph-name="infinity" unicode="&#x221e;" horiz-adv-x="801" 
d="M657 480q73 0 109 -50q38 -50 24 -123q-14 -74 -67 -123t-125 -49q-108 0 -175 123l-23 42l-41 -42q-101 -105 -186 -105q-65 0 -97.5 43.5t-20.5 111.5q12 65 59 109q46 45 111 45q95 0 153 -106l24 -44l32 35q63 68 115 100.5t108 32.5zM657 472q-55 0 -104 -31
t-114 -99l-33 -36l24 -43q69 -120 167 -120q69 0 121 48t64 118q12 68 -23 115q-35 48 -102 48zM226 454q-61 0 -107 -43q-46 -44 -56 -105q-11 -63 19 -104t90 -41q84 0 182 102l42 43l-25 45q-58 103 -145 103z" />
    <glyph glyph-name="integral" unicode="&#x222b;" horiz-adv-x="344" 
d="M364 756q28 0 57 -7l-4 -8q-27 7 -52 7q-58 0 -83 -31q-25 -30 -39 -110l-110 -622q-15 -87 -45 -122q-28 -34 -92 -34q-30 0 -58 7l3 8q28 -7 54 -7q59 0 88 32q28 31 42 116l110 622q15 85 42 116q27 33 87 33z" />
    <glyph glyph-name="approxequal" unicode="&#x2248;" horiz-adv-x="525" 
d="M531 518l5 -5q-39 -39 -71 -55.5t-77 -16.5q-64 0 -100 34q-35 35 -78 35q-40 0 -67 -14t-68 -52l-5 5q41 39 70 54t69 15q21 1 43.5 -10t38.5 -24.5t42 -24.5t54 -10q44 0 75 15.5t69 53.5zM492 298l6 -5q-40 -39 -72 -55.5t-77 -16.5q-64 0 -100 34q-35 35 -78 35
q-40 0 -67 -14t-68 -52l-5 5q41 39 70 54t69 15q47 0 82 -35q40 -34 96 -34q44 0 75 15.5t69 53.5z" />
    <glyph glyph-name="notequal" unicode="&#x2260;" horiz-adv-x="544" 
d="M549 478h-190l-143 -225h294l-2 -8h-298l-93 -146l-7 3l91 143h-167l2 8h170l144 225h-275l2 8h278l94 147l7 -4l-91 -143h186z" />
    <glyph glyph-name="lessequal" unicode="&#x2264;" horiz-adv-x="492" 
d="M517 610l2 -7l-443 -179l380 -179l-4 -7l-396 186zM441 162l-1 -8h-432l1 8h432z" />
    <glyph glyph-name="greaterequal" unicode="&#x2265;" horiz-adv-x="492" 
d="M101 610l397 -186l-462 -186l-2 7l444 179l-381 179zM451 162l-1 -8h-432l1 8h432z" />
    <glyph glyph-name="lozenge" unicode="&#x25ca;" horiz-adv-x="507" 
d="M344 748l135 -402l-277 -401h-4l-136 401l278 402h4zM339 733l-268 -387l132 -386l267 386z" />
    <glyph glyph-name="fl" unicode="&#xfb02;" horiz-adv-x="516" 
d="M354 779q9 0 23 -2l-1 -8q-16 2 -21 2q-61 0 -100.5 -37t-51.5 -106l-23 -128h144l-1 -8h-144l-87 -492h-8l87 492h-108l1 8h108l23 128q12 73 54 112t105 39zM502 777l-137 -777h-8l137 777h8z" />
    <glyph glyph-name="NULL" horiz-adv-x="0" 
 />
    <glyph glyph-name="CR" horiz-adv-x="333" 
 />
    <glyph glyph-name="n.001" horiz-adv-x="595" 
d="M304 508q83 0 135 -55q53 -56 53 -140v-313h-8v313q0 81 -51 134t-129 53q-82 0 -136 -56q-53 -56 -53 -131v-313h-8v500h8v-132q14 57 65 98q52 42 124 42z" />
    <glyph glyph-name="germandbls.cap" horiz-adv-x="671" 
d="M404 756q74 0 123 -29t88 -85l-191 -206q224 -38 191 -227q-18 -101 -99 -159q-79 -58 -195 -58q-46 0 -71 6l3 8q25 -6 67 -6q112 0 191 56q78 55 96 155q31 184 -198 220l195 211q-38 52 -84.5 79t-114.5 27q-87 0 -156 -51q-69 -52 -82 -129l-100 -568h-8l100 568
q13 82 84 135t161 53z" />
    <glyph glyph-name="a.sups" horiz-adv-x="422" 
d="M302 755q65 0 92.5 -39t14.5 -112l-45 -256h-8l20 115q-24 -59 -71 -90t-104 -31q-56 0 -85 26.5t-22 76.5q15 101 164 112l136 9l7 38q26 143 -99 143q-62 0 -103 -38q-42 -39 -49 -90h-8q9 55 51 96q43 40 109 40zM388 532l5 26l-134 -9q-142 -10 -157 -104
q-6 -47 20.5 -71t78.5 -24q69 0 119.5 46t67.5 136z" />
    <glyph glyph-name="b.sups" horiz-adv-x="511" 
d="M212 970h8l-57 -325q25 52 73.5 81t112.5 29q83 0 129 -55t33 -152q-13 -95 -75 -151q-61 -55 -144 -55q-69 0 -111 35t-48 103l-23 -131h-8zM348 747q-80 0 -133.5 -46t-65.5 -134l-6 -33q-12 -88 28.5 -136t118.5 -48q79 0 140 53t74 147q12 91 -32 144t-124 53z" />
    <glyph glyph-name="c.sups" horiz-adv-x="447" 
d="M332 755q70 0 111 -39t39 -105h-8q1 63 -37.5 99.5t-103.5 36.5q-80 0 -136.5 -53.5t-70.5 -146.5q-14 -92 30 -145q43 -52 121 -52q66 0 113 32.5t65 91.5l8 -1q-19 -62 -68 -96.5t-118 -34.5q-84 0 -128 55.5t-30 151.5q13 95 72 151q59 55 141 55z" />
    <glyph glyph-name="d.sups" horiz-adv-x="511" 
d="M567 970l-110 -622h-8l18 104q-25 -52 -73.5 -81t-112.5 -29q-84 0 -130 55q-46 54 -32 152q13 95 75 151q61 55 144 55q69 0 111 -35t48 -103l62 353h8zM340 747q-79 0 -140 -53t-74 -147q-12 -91 32 -144t124 -53t133.5 46t65.5 134l6 33q12 88 -28.5 136t-118.5 48z
" />
    <glyph glyph-name="e.sups" horiz-adv-x="465" 
d="M335 755q83 0 122 -52.5t27 -140.5l-2 -14h-355q-14 -91 28.5 -144.5t122.5 -53.5q64 0 111 30t69 83l7 -1q-23 -57 -72 -88.5t-115 -31.5q-83 0 -128 56t-31 151q13 96 73 151q61 55 143 55zM128 555h348l1 7q12 83 -25 134t-116 51t-136 -51.5t-72 -140.5z" />
    <glyph glyph-name="f.sups" horiz-adv-x="236" 
d="M336 971q4 0 8.5 -0.5t7.5 -0.5h3l-1 -8q-3 1 -16 1q-48 0 -80 -29.5t-42 -83.5l-18 -102h115l-2 -8h-115l-69 -392h-8l69 392h-86l2 8h86l18 102q10 59 43.5 90t84.5 31z" />
    <glyph glyph-name="g.sups" horiz-adv-x="511" 
d="M324 755q69 0 111 -35t48 -103l23 131h8l-77 -433q-15 -83 -70.5 -130t-137.5 -47q-69 0 -111 34.5t-47 91.5h9q3 -53 44.5 -86t103.5 -33q78 0 132.5 45.5t68.5 124.5l24 137q-25 -52 -73.5 -81t-112.5 -29q-84 0 -130 55q-46 54 -32 152q13 95 75 151q61 55 144 55z
M326 747q-79 0 -140 -53t-74 -147q-12 -91 32 -144t124 -53t133.5 46t65.5 134l6 33q12 88 -28.5 136t-118.5 48z" />
    <glyph glyph-name="h.sups" horiz-adv-x="468" 
d="M212 970h8l-58 -326q19 47 66.5 79t103.5 32q65 0 100 -44q36 -44 24 -112l-45 -251h-8l44 250q12 66 -20.5 107.5t-94.5 41.5q-65 0 -116 -45q-51 -44 -62 -104l-44 -250h-8z" />
    <glyph glyph-name="i.sups" horiz-adv-x="180" 
d="M208 926q6 0 10 -4.5t3 -10.5q-4 -13 -16 -13q-15 0 -12 15q2 13 15 13zM182 748l-71 -400h-8l71 400h8z" />
    <glyph glyph-name="j.sups" horiz-adv-x="180" 
d="M207 926q7 0 11 -4.5t3 -10.5q-4 -13 -17 -13q-14 0 -11 15q1 5 5.5 9t8.5 4zM174 748h8l-86 -486q-20 -120 -118 -120q-5 0 -21 2l2 8q16 -2 17 -2q92 0 112 111z" />
    <glyph glyph-name="k.sups" horiz-adv-x="383" 
d="M220 970l-78 -441l277 219h11l-222 -177l178 -223h-11l-174 218l-61 -48l-30 -170h-8l110 622h8z" />
    <glyph glyph-name="l.sups" horiz-adv-x="178" 
d="M220 970l-110 -622h-8l110 622h8z" />
    <glyph glyph-name="m.sups" horiz-adv-x="753" 
d="M614 755q65 0 98 -43.5t21 -112.5l-45 -251h-9l44 250q12 66 -17.5 107.5t-90.5 41.5q-62 0 -109 -40q-48 -42 -61 -97l-2 -11l-45 -251h-8l44 250q12 66 -17.5 107.5t-90.5 41.5q-64 0 -113 -44t-59 -105l-44 -250h-8l71 400h8l-19 -104q20 47 64 79t99 32
q54 0 86.5 -32t34.5 -86q21 54 66.5 86t101.5 32z" />
    <glyph glyph-name="n.sups" horiz-adv-x="476" 
d="M332 755q65 0 100 -44q36 -44 24 -112l-45 -251h-8l44 250q12 66 -20.5 107.5t-94.5 41.5q-65 0 -116 -45q-51 -44 -62 -104l-44 -250h-8l71 400h8l-19 -104q19 47 66.5 79t103.5 32z" />
    <glyph glyph-name="o.sups" horiz-adv-x="497" 
d="M342 755q85 0 133 -56t35 -152q-12 -94 -77 -150q-64 -55 -148 -55t-132 55q-48 56 -35 152q12 95 76 150q65 56 148 56zM343 747q-81 0 -143 -54q-61 -54 -75 -146q-12 -91 34 -144q47 -53 126 -53q81 0 143 53q61 54 75 146q13 89 -34 144q-47 54 -126 54z" />
    <glyph glyph-name="p.sups" horiz-adv-x="511" 
d="M349 755q83 0 129 -55t33 -152q-13 -95 -75 -151q-61 -55 -144 -55q-69 0 -111 35t-48 103l-59 -336h-8l107 605h8l-18 -104q25 52 73.5 81t112.5 29zM348 747q-80 0 -133.5 -46t-65.5 -134l-6 -33q-12 -88 28.5 -136t118.5 -48q79 0 140 53t74 147q12 91 -32 144
t-124 53z" />
    <glyph glyph-name="q.sups" horiz-adv-x="511" 
d="M338 755q69 0 111 -35t48 -103l23 131h8l-107 -604h-8l54 308q-25 -52 -73.5 -81t-112.5 -29q-84 0 -130 55q-46 54 -32 152q13 95 75 151q61 55 144 55zM340 747q-79 0 -140 -53t-74 -147q-12 -91 32 -144t124 -53t133.5 46t65.5 134l6 33q12 88 -28.5 136t-118.5 48z
" />
    <glyph glyph-name="r.sups" horiz-adv-x="233" 
d="M310 755l-1 -8q-58 0 -101 -40q-42 -39 -51 -93l-47 -266h-8l71 400h8l-16 -89q16 41 56 68.5t89 27.5z" />
    <glyph glyph-name="s.sups" horiz-adv-x="392" 
d="M277 754q54 0 82.5 -26t27.5 -74l-8 -1q2 44 -24.5 69t-76.5 25q-59 0 -94.5 -26.5t-43.5 -73.5q-7 -41 14 -56.5t74 -26.5l15 -3q78 -18 104.5 -40t18.5 -70q-9 -53 -50 -81t-104 -28q-59 0 -92 26t-34 76l8 1q0 -46 31.5 -71t85.5 -25q61 0 100 26.5t48 77.5
q7 45 -19 64t-99 36q-72 18 -85 26q-33 21 -24 70t46.5 77t98.5 28z" />
    <glyph glyph-name="t.sups" horiz-adv-x="229" 
d="M302 740h-126l-51 -280q-20 -107 65 -107q18 0 46 5l-1 -8q-12 -4 -44 -4q-95 0 -74 114l51 280h-78l2 8h77l27 146h8l-27 -146h127z" />
    <glyph glyph-name="u.sups" horiz-adv-x="461" 
d="M476 748l-71 -400h-8l18 101q-20 -47 -62.5 -77t-98.5 -30q-64 0 -96 43.5t-20 112.5l44 250h8l-44 -250q-12 -66 17.5 -107t90.5 -41q66 0 112 43q48 45 58 105l44 250h8z" />
    <glyph glyph-name="v.sups" horiz-adv-x="381" 
d="M455 748l-244 -400h-6l-103 400h9l99 -386l235 386h10z" />
    <glyph glyph-name="w.sups" horiz-adv-x="629" 
d="M703 748l-223 -400h-4l-75 385l-214 -385h-4l-81 400h9l76 -384l213 384h5l75 -384l214 384h9z" />
    <glyph glyph-name="x.sups" horiz-adv-x="373" 
d="M428 748l-182 -192l124 -208h-10l-120 203l-192 -203h-11l198 210l-114 190h10l110 -185l176 185h11z" />
    <glyph glyph-name="y.sups" horiz-adv-x="381" 
d="M447 748l-357 -604h-9l123 209l-94 395h8l92 -386l228 386h9z" />
    <glyph glyph-name="z.sups" horiz-adv-x="351" 
d="M400 748l-1 -6l-344 -386h290l-2 -8h-302l1 6l344 386h-270l2 8h282z" />
    <glyph glyph-name="zero.onum" horiz-adv-x="636" 
d="M404 601q116 0 168.5 -81.5t27.5 -224.5q-26 -141 -105 -222t-196 -81t-169.5 81.5t-27.5 223.5t105 223q79 81 197 81zM404 593q-114 0 -191.5 -79t-102.5 -219q-24 -138 25.5 -216.5t162.5 -78.5q114 0 192 79.5t102 217.5q25 136 -26 216q-50 80 -162 80z" />
    <glyph glyph-name="one.onum" horiz-adv-x="343" 
d="M293 591l-104 -591h-8l101 576l-218 -160l-4 6l229 169h4z" />
    <glyph glyph-name="two.onum" horiz-adv-x="528" 
d="M333 598q95 0 137 -48t26 -138q-14 -77 -77 -135q-35 -31 -57 -48q-53 -39 -68 -49l-252 -172h397l-1 -8h-414l1 6l265 181l53 37q24 17 47 37q32 26 46 44q43 55 52 109q15 86 -24 131t-130 45q-96 0 -158.5 -55t-82.5 -155h-8q20 103 85 160.5t163 57.5z" />
    <glyph glyph-name="three.onum" horiz-adv-x="542" 
d="M487 411q-12 -72 -63 -121q-50 -48 -117 -59q80 -8 120 -59.5t26 -133.5q-14 -93 -81 -148q-67 -56 -163 -56q-98 0 -146.5 54t-43.5 154h8q-4 -97 42 -148.5t139 -51.5q95 0 159.5 54t78.5 144q15 88 -35 137t-148 49h-68l1 8h68q78 0 140 50q62 49 76 129
q13 81 -30 129t-127 48q-86 0 -145.5 -50t-80.5 -140h-8q22 93 83 145.5t150 52.5q90 0 134.5 -50.5t30.5 -136.5z" />
    <glyph glyph-name="four.onum" horiz-adv-x="586" 
d="M456 590l-89 -502h161l-1 -8h-161l-42 -238h-8l42 238h-364l1 6l455 504h6zM445 573l-438 -485h352z" />
    <glyph glyph-name="five.onum" horiz-adv-x="545" 
d="M521 582h-372l-64 -368q93 66 190 66q98 0 148 -62q51 -61 34 -160t-83 -161q-66 -63 -167 -63q-96 0 -144 54t-44 154h8q-4 -96 42 -148t137 -52q98 0 163 62t80 156q17 95 -32 153q-48 59 -141 59q-96 0 -193 -68h-8l68 386h380z" />
    <glyph glyph-name="six.onum" horiz-adv-x="571" 
d="M331 457q101 0 156 -64q57 -63 40 -170q-17 -106 -92 -168q-77 -63 -175 -63q-101 0 -158 63q-55 64 -39 170q13 88 68 146l11 11l360 366h11l-326 -331q65 40 144 40zM520 225q16 100 -38 162t-150 62q-112 0 -191 -79q-56 -56 -71 -147q-16 -100 38 -162
q54 -61 151 -61t170 61q75 62 91 164z" />
    <glyph glyph-name="seven.onum" horiz-adv-x="538" 
d="M576 590l-1 -7l-558 -741h-10l557 740h-482l2 8h492z" />
    <glyph glyph-name="eight.onum" horiz-adv-x="578" 
d="M380 756q90 0 139 -51q50 -50 36 -137q-12 -72 -62 -119.5t-123 -60.5q75 -12 114 -65t27 -132q-15 -91 -85 -145t-164 -54q-95 0 -149 54q-54 55 -40 147q12 79 66.5 130.5t135.5 64.5q-68 13 -103.5 62t-23.5 120q14 86 79 136t153 50zM381 748q-86 0 -150 -49
q-63 -48 -75 -131q-12 -80 34.5 -128t132.5 -48q85 0 148 48q64 49 76 130q13 80 -34 129q-46 49 -132 49zM324 384q-93 0 -161 -52q-69 -53 -82 -141q-14 -87 37 -139q52 -52 143 -52q93 0 160 52q69 53 82 141q13 89 -37 139q-51 52 -142 52z" />
    <glyph glyph-name="nine.onum" horiz-adv-x="571" 
d="M357 598q102 0 157 -64q57 -62 40 -169q-13 -88 -68 -146l-11 -11l-360 -366h-11l326 331q-65 -40 -144 -40q-100 0 -157 63q-55 64 -39 171q17 106 92 168q76 63 175 63zM547 367q16 100 -38 162q-54 61 -151 61t-171 -62t-90 -163q-17 -101 38 -163q54 -61 150 -61
q112 0 191 79q56 56 71 147z" />
    <glyph glyph-name="zero.slash" horiz-adv-x="636" 
d="M588 682l4 -6l-1 -3q63 -102 30 -300q-29 -182 -110 -281.5t-199 -99.5q-103 0 -154 74l-2 -2l-6 4l4 4q-64 100 -33 303q29 182 110 281.5t199 99.5q106 0 157 -77zM129 373q-31 -196 29 -294l423 593q-49 76 -150 76q-115 0 -194 -97t-108 -278zM613 375
q31 192 -28 291l-423 -593q49 -73 149 -73q115 0 194 97t108 278z" />
    <glyph glyph-name="zero.subs" horiz-adv-x="367" 
d="M211 336q66 0 93.5 -55t9.5 -156q-18 -100 -64 -154.5t-111 -54.5q-66 0 -93 54.5t-9 156.5q18 100 63.5 154.5t110.5 54.5zM212 328q-63 0 -106 -52t-61 -151q-17 -96 8 -148.5t86 -52.5q63 0 106.5 52.5t60.5 150.5q18 96 -7.5 148.5t-86.5 52.5z" />
    <glyph glyph-name="one.subs" horiz-adv-x="207" 
d="M148 331l-72 -411h-8l70 398l-117 -86l-4 6l125 93h6z" />
    <glyph glyph-name="two.subs" horiz-adv-x="307" 
d="M168 336q50 0 73.5 -31.5t14.5 -82.5q-8 -47 -35 -86t-82 -86l-142 -122h215l-1 -8h-229l1 6l149 129q55 48 81.5 85t34.5 83q8 48 -12.5 76.5t-67.5 28.5q-52 0 -86 -30t-44 -83l-8 1q11 57 47.5 88.5t90.5 31.5z" />
    <glyph glyph-name="three.subs" horiz-adv-x="315" 
d="M175 336q50 0 74 -28t16 -76q-6 -36 -34 -64t-61 -34q40 -5 60.5 -33t12.5 -73q-9 -51 -47 -81.5t-91 -30.5q-109 0 -103 114l8 1q-2 -52 22 -79.5t73 -27.5q52 0 87 28.5t43 77.5q9 47 -17.5 73t-79.5 26h-37l1 8h37q43 0 77 27.5t41 69.5q8 44 -14 69t-67 25
q-47 0 -80 -27t-44 -75h-8q13 51 47.5 80.5t83.5 29.5z" />
    <glyph glyph-name="four.subs" horiz-adv-x="339" 
d="M249 331l-48 -276h87l-2 -8h-87l-22 -127h-8l22 127h-197l1 7l250 277h4zM238 311l-231 -256h186z" />
    <glyph glyph-name="five.subs" horiz-adv-x="317" 
d="M280 323h-202l-34 -196q50 35 104 35t81 -33.5t17 -89.5q-9 -55 -47.5 -89t-93.5 -34q-53 0 -79 29.5t-23 84.5h8q-2 -51 22 -78.5t72 -27.5q53 0 88.5 32.5t44.5 84.5q9 50 -16.5 81.5t-74.5 31.5q-53 0 -105 -36h-8l37 213h210z" />
    <glyph glyph-name="six.subs" horiz-adv-x="332" 
d="M159 173q58 0 87.5 -35.5t19.5 -94.5q-10 -57 -52.5 -92t-98.5 -35q-57 0 -87 35t-20 94q7 46 39 79l8 8l193 199h10l-170 -175q32 17 71 17zM258 45q10 54 -18 87t-81 33q-61 0 -102 -41l-1 -1q-32 -32 -40 -80q-10 -53 18.5 -86t80.5 -33q54 0 93.5 33.5t49.5 87.5z
" />
    <glyph glyph-name="seven.subs" horiz-adv-x="313" 
d="M308 331l-2 -7l-302 -404h-10l301 403h-259l1 8h271z" />
    <glyph glyph-name="eight.subs" horiz-adv-x="335" 
d="M284 231q-6 -35 -31 -61t-59 -36q35 -10 52.5 -39t9.5 -70q-9 -50 -47.5 -79.5t-91.5 -29.5q-55 0 -84 30.5t-19 80.5q8 41 35.5 69t65.5 38q-69 26 -57 99q8 47 45 75t86 28t76 -29t19 -76zM190 328q-48 0 -82 -26t-42 -71q-8 -44 17 -69q26 -24 71 -24q46 0 80 25
t42 70q8 43 -16.5 69t-69.5 26zM155 130q-52 0 -88.5 -28t-44.5 -76q-9 -46 18 -74t77 -28q51 0 87 28t45 76q8 46 -18.5 74t-75.5 28z" />
    <glyph glyph-name="nine.subs" horiz-adv-x="332" 
d="M190 335q58 0 88 -35.5t19 -93.5q-8 -47 -39 -80l-9 -9l-192 -197h-10l170 174q-33 -16 -70 -16q-58 0 -88 35.5t-19 94.5q10 57 52 92t98 35zM290 208q10 53 -18.5 86t-80.5 33q-54 0 -94 -33.5t-50 -87.5t17.5 -87t81.5 -33q62 0 104 42q31 32 40 80z" />
    <glyph glyph-name="zero.sups" horiz-adv-x="367" 
d="M299 818q66 0 93.5 -55t9.5 -156q-18 -100 -64 -154.5t-111 -54.5q-66 0 -93 54.5t-9 156.5q18 100 63.5 154.5t110.5 54.5zM300 810q-63 0 -106 -52t-61 -151q-17 -96 8 -148.5t86 -52.5q63 0 106.5 52.5t60.5 150.5q18 96 -7.5 148.5t-86.5 52.5z" />
    <glyph glyph-name="one.sups" horiz-adv-x="207" 
d="M236 813l-72 -411h-8l70 398l-117 -86l-4 6l125 93h6z" />
    <glyph glyph-name="two.sups" horiz-adv-x="307" 
d="M254 818q50 0 73.5 -31.5t14.5 -82.5q-8 -47 -35 -86t-82 -86l-142 -122h215l-1 -8h-229l1 6l149 129q55 48 81.5 85t34.5 83q8 48 -12.5 76.5t-67.5 28.5q-52 0 -86 -30t-44 -83l-8 1q11 57 47.5 88.5t90.5 31.5z" />
    <glyph glyph-name="three.sups" horiz-adv-x="315" 
d="M256 818q50 0 74 -28t16 -76q-6 -36 -34 -64t-61 -34q40 -5 60.5 -33t12.5 -73q-9 -51 -47 -81.5t-91 -30.5q-109 0 -103 114l8 1q-2 -52 22 -79.5t73 -27.5q52 0 87 28.5t43 77.5q9 47 -17.5 73t-79.5 26h-37l1 8h37q43 0 77 27.5t41 69.5q8 44 -14 69t-67 25
q-47 0 -80 -27t-44 -75h-8q13 51 47.5 80.5t83.5 29.5z" />
    <glyph glyph-name="four.sups" horiz-adv-x="339" 
d="M327 813l-48 -276h87l-2 -8h-87l-22 -127h-8l22 127h-197l1 7l250 277h4zM316 793l-231 -256h186z" />
    <glyph glyph-name="five.sups" horiz-adv-x="317" 
d="M358 805h-202l-34 -196q50 35 104 35t81 -33.5t17 -89.5q-9 -55 -47.5 -89t-93.5 -34q-53 0 -79 29.5t-23 84.5h8q-2 -51 22 -78.5t72 -27.5q53 0 88.5 32.5t44.5 84.5q9 50 -16.5 81.5t-74.5 31.5q-53 0 -105 -36h-8l37 213h210z" />
    <glyph glyph-name="six.sups" horiz-adv-x="332" 
d="M244 655q58 0 87.5 -35.5t19.5 -94.5q-10 -57 -52.5 -92t-98.5 -35q-57 0 -87 35t-20 94q7 46 39 79l8 8l193 199h10l-170 -175q32 17 71 17zM343 527q10 54 -17.5 87t-81.5 33q-61 0 -102 -41l-1 -1q-32 -32 -40 -80q-10 -53 18.5 -86t80.5 -33q54 0 93.5 33.5
t49.5 87.5z" />
    <glyph glyph-name="seven.sups" horiz-adv-x="313" 
d="M389 813l-2 -7l-302 -404h-10l301 403h-259l1 8h271z" />
    <glyph glyph-name="eight.sups" horiz-adv-x="335" 
d="M368 713q-6 -35 -31 -61t-59 -36q35 -10 52.5 -39t9.5 -70q-9 -50 -47.5 -79.5t-91.5 -29.5q-55 0 -84 30.5t-19 80.5q8 41 35.5 69t65.5 38q-69 26 -57 99q8 47 45 75t86 28t76 -29t19 -76zM274 810q-48 0 -82 -26t-42 -71q-8 -44 17 -69q26 -24 71 -24q46 0 80 25
t42 70q8 43 -16.5 69t-69.5 26zM239 612q-52 0 -88.5 -28t-44.5 -76q-9 -46 18 -74t77 -28q51 0 87 28t45 76q8 46 -18.5 74t-75.5 28z" />
    <glyph glyph-name="nine.sups" horiz-adv-x="332" 
d="M273 817q58 0 88 -35.5t19 -93.5q-8 -47 -39 -80l-9 -9l-192 -197h-10l170 174q-33 -16 -70 -16q-58 0 -88 35.5t-19 94.5q10 57 52 92t98 35zM373 690q10 53 -18.5 86t-80.5 33q-54 0 -94 -33.5t-50 -87.5t18 -87t81 -33q62 0 104 42q31 32 40 80z" />
    <glyph glyph-name="zero.tnum" horiz-adv-x="650" 
d="M432 756q120 0 170 -100t21 -283q-29 -182 -110 -281.5t-199 -99.5q-120 0 -170 100t-21 283q29 182 110 281.5t199 99.5zM433 748q-115 0 -194 -97t-108 -278q-29 -179 19 -276t163 -97t194 97t108 278q29 179 -19.5 276t-162.5 97z" />
    <glyph glyph-name="one.tnum" horiz-adv-x="650" 
d="M453 748l-131 -740h190l-1 -8h-398l1 8h200l129 728l-240 -179l-4 6l247 185h7z" />
    <glyph glyph-name="two.tnum" horiz-adv-x="650" 
d="M415 756q92 0 133.5 -56t25.5 -150q-17 -92 -68 -161q-51 -70 -151 -154l-265 -227h403l-1 -8h-416l1 6l274 235q100 85 149 153q51 69 66 158q16 89 -23 142.5t-127 53.5q-95 0 -158 -55t-83 -155h-8q20 103 85 160.5t163 57.5z" />
    <glyph glyph-name="three.tnum" horiz-adv-x="650" 
d="M580 569q-12 -72 -63 -121q-50 -48 -117 -59q80 -8 120 -59.5t26 -133.5q-14 -93 -81 -148q-67 -56 -163 -56q-98 0 -146.5 54t-43.5 154h8q-4 -97 42 -148.5t139 -51.5q95 0 159.5 54t78.5 144q15 88 -35 137t-148 49h-68l1 8h68q78 0 140 50q62 49 76 129
q13 81 -30 129t-127 48q-86 0 -145.5 -50t-80.5 -140h-8q22 93 83 145.5t150 52.5q90 0 134.5 -50.5t30.5 -136.5z" />
    <glyph glyph-name="four.tnum" horiz-adv-x="650" 
d="M513 748l-89 -502h161l-1 -8h-161l-42 -238h-8l42 238h-364l1 6l455 504h6zM502 731l-438 -485h352z" />
    <glyph glyph-name="five.tnum" horiz-adv-x="650" 
d="M598 740h-372l-64 -368q93 66 190 66q98 0 148 -62q51 -61 34 -160t-83 -161q-66 -63 -167 -63q-96 0 -144 54t-44 154h8q-4 -96 42 -148t137 -52q99 0 163 61q65 62 80 157q17 95 -32 153q-48 59 -141 59q-96 0 -193 -68h-8l68 386h380z" />
    <glyph glyph-name="six.tnum" horiz-adv-x="650" 
d="M368 457q101 0 156 -64q57 -63 40 -170q-17 -106 -92 -168q-76 -63 -175 -63q-101 0 -158 63q-55 64 -39 170q13 88 68 146l11 11l360 366h11l-326 -331q65 40 144 40zM557 225q16 100 -38 162t-150 62q-112 0 -191 -79q-56 -56 -71 -147q-16 -100 38 -162
q54 -61 151 -61t170 61q75 62 91 164z" />
    <glyph glyph-name="seven.tnum" horiz-adv-x="650" 
d="M670 747l-1 -7l-558 -741h-10l557 740h-482l2 8h492z" />
    <glyph glyph-name="eight.tnum" horiz-adv-x="650" 
d="M416 756q89 0 139 -51q50 -50 36 -137q-12 -72 -62 -119.5t-123 -60.5q75 -12 114 -65t27 -132q-15 -91 -85 -145q-71 -54 -164 -54q-95 0 -149 54q-54 55 -40 147q12 79 66.5 130.5t135.5 64.5q-68 13 -103.5 62t-23.5 120q14 86 79 136t153 50zM417 748q-86 0 -150 -49
q-63 -48 -75 -131q-12 -80 34.5 -128t132.5 -48q85 0 148 48q64 49 76 130q13 80 -34 129q-46 49 -132 49zM360 384q-93 0 -161 -52q-69 -53 -82 -141q-14 -87 37 -139q52 -52 143 -52q93 0 160 52q69 53 82 141q13 89 -37 139q-51 52 -142 52z" />
    <glyph glyph-name="nine.tnum" horiz-adv-x="650" 
d="M431 756q102 0 157 -64q57 -62 40 -169q-13 -88 -68 -146l-11 -11l-360 -366h-11l326 331q-65 -40 -144 -40q-100 0 -157 63q-55 64 -39 171q17 106 92 168q76 63 175 63zM621 525q16 100 -38 162q-54 61 -151 61t-171 -62t-90 -163q-17 -101 38 -163q54 -61 150 -61
q112 0 191 79q56 56 71 147z" />
    <glyph glyph-name="zero.dnom" horiz-adv-x="367" 
d="M229 416q66 0 93.5 -55t9.5 -156q-18 -100 -64 -154.5t-111 -54.5q-66 0 -93 54.5t-9 156.5q18 100 63.5 154.5t110.5 54.5zM230 408q-63 0 -106 -52t-61 -151q-17 -96 8 -148.5t86 -52.5q63 0 106.5 52.5t60.5 150.5q18 96 -7.5 148.5t-86.5 52.5z" />
    <glyph glyph-name="one.dnom" horiz-adv-x="207" 
d="M167 411l-72 -411h-8l70 398l-117 -86l-4 6l125 93h6z" />
    <glyph glyph-name="two.dnom" horiz-adv-x="307" 
d="M187 416q50 0 73.5 -31.5t14.5 -82.5q-8 -47 -35 -86t-82 -86l-142 -122h215l-1 -8h-229l1 6l149 129q55 48 81.5 85t34.5 83q8 48 -12.5 76.5t-67.5 28.5q-52 0 -86 -30t-44 -83l-8 1q11 57 47.5 88.5t90.5 31.5z" />
    <glyph glyph-name="three.dnom" horiz-adv-x="315" 
d="M190 416q50 0 74 -28t16 -76q-6 -36 -34 -64t-61 -34q40 -5 60.5 -33t12.5 -73q-9 -51 -47 -81.5t-91 -30.5q-109 0 -103 114l8 1q-2 -52 22 -79.5t73 -27.5q52 0 87 28.5t43 77.5q9 47 -17.5 73t-79.5 26h-37l1 8h37q43 0 77 27.5t41 69.5q8 44 -14 69t-67 25
q-47 0 -80 -27t-44 -75h-8q13 51 47.5 80.5t83.5 29.5z" />
    <glyph glyph-name="four.dnom" horiz-adv-x="339" 
d="M257 411l-48 -276h87l-2 -8h-87l-22 -127h-8l22 127h-197l1 7l250 277h4zM246 391l-231 -256h186z" />
    <glyph glyph-name="five.dnom" horiz-adv-x="317" 
d="M293 403h-202l-34 -196q50 35 104 35t81 -33.5t17 -89.5q-9 -55 -47.5 -89t-93.5 -34q-53 0 -79 29.5t-23 84.5h8q-2 -51 22 -78.5t72 -27.5q53 0 88.5 32.5t44.5 84.5q9 50 -16.5 81.5t-74.5 31.5q-52 0 -105 -36h-8l37 213h210z" />
    <glyph glyph-name="six.dnom" horiz-adv-x="332" 
d="M177 253q58 0 87.5 -35.5t19.5 -94.5q-10 -57 -52.5 -92t-98.5 -35q-57 0 -87 35t-20 94q7 46 39 79l8 8l193 199h10l-170 -175q32 17 71 17zM276 125q10 54 -18 87t-81 33q-61 0 -102 -41l-1 -1q-32 -32 -40 -80q-10 -53 18.5 -86t80.5 -33q54 0 93.5 33.5t49.5 87.5z
" />
    <glyph glyph-name="seven.dnom" horiz-adv-x="313" 
d="M322 411l-2 -7l-302 -404h-10l301 403h-259l1 8h271z" />
    <glyph glyph-name="eight.dnom" horiz-adv-x="335" 
d="M301 311q-6 -35 -31 -61t-59 -36q35 -10 52.5 -39t9.5 -70q-9 -50 -47.5 -79.5t-91.5 -29.5q-55 0 -84 30.5t-19 80.5q8 41 35.5 69t65.5 38q-69 26 -57 99q8 47 45 75t86 28t76 -29t19 -76zM207 408q-48 0 -82 -26t-42 -71q-8 -44 17 -69q26 -24 71 -24q46 0 80 25
t42 70q8 43 -16.5 69t-69.5 26zM172 210q-52 0 -88.5 -28t-44.5 -76q-9 -46 18 -74t77 -28q51 0 87 28t45 76q8 46 -18.5 74t-75.5 28z" />
    <glyph glyph-name="nine.dnom" horiz-adv-x="332" 
d="M206 415q58 0 88 -35.5t19 -93.5q-8 -47 -39 -80l-9 -9l-192 -197h-10l170 174q-33 -16 -70 -16q-58 0 -88 35.5t-19 94.5q10 57 52 92t98 35zM306 288q10 53 -18.5 86t-80.5 33q-54 0 -94 -33.5t-50 -87.5t17.5 -87t81.5 -33q62 0 104 42q31 32 40 80z" />
    <glyph glyph-name="zero.numr" horiz-adv-x="367" 
d="M282 737q66 0 93.5 -55t9.5 -156q-18 -100 -64 -154.5t-111 -54.5q-66 0 -93 54.5t-9 156.5q18 100 63.5 154.5t110.5 54.5zM283 729q-63 0 -106 -52t-61 -151q-17 -96 8 -148.5t86 -52.5q63 0 106.5 52.5t60.5 150.5q18 96 -7.5 148.5t-86.5 52.5z" />
    <glyph glyph-name="one.numr" horiz-adv-x="207" 
d="M220 733l-72 -411h-8l70 398l-117 -86l-4 6l125 93h6z" />
    <glyph glyph-name="two.numr" horiz-adv-x="307" 
d="M240 738q50 0 73.5 -31.5t14.5 -82.5q-8 -47 -35 -86t-82 -86l-142 -122h215l-1 -8h-229l1 6l149 129q55 48 81.5 85t34.5 83q8 48 -12.5 76.5t-67.5 28.5q-52 0 -86 -30t-44 -83l-8 1q11 57 47.5 88.5t90.5 31.5z" />
    <glyph glyph-name="three.numr" horiz-adv-x="315" 
d="M243 738q50 0 74 -28t16 -76q-6 -36 -34 -64t-61 -34q40 -5 60.5 -33t12.5 -73q-9 -51 -47 -81.5t-91 -30.5q-109 0 -103 114l8 1q-2 -52 22 -79.5t73 -27.5q52 0 87 28.5t43 77.5q9 47 -17.5 73t-79.5 26h-37l1 8h37q43 0 77 27.5t41 69.5q8 44 -14 69t-67 25
q-47 0 -80 -27t-44 -75h-8q13 51 47.5 80.5t83.5 29.5z" />
    <glyph glyph-name="four.numr" horiz-adv-x="339" 
d="M310 733l-48 -276h87l-2 -8h-87l-22 -127h-8l22 127h-197l1 7l250 277h4zM299 713l-231 -256h186z" />
    <glyph glyph-name="five.numr" horiz-adv-x="317" 
d="M346 725h-202l-34 -196q50 35 104 35t81 -33.5t17 -89.5q-9 -55 -47.5 -89t-93.5 -34q-53 0 -79 29.5t-23 84.5h8q-2 -51 22 -78.5t72 -27.5q53 0 88.5 32.5t44.5 84.5q9 50 -16.5 81.5t-74.5 31.5q-53 0 -105 -36h-8l37 213h210z" />
    <glyph glyph-name="six.numr" horiz-adv-x="332" 
d="M230 575q58 0 87.5 -35.5t19.5 -94.5q-10 -57 -52.5 -92t-98.5 -35q-57 0 -87 35t-20 94q7 46 39 79l8 8l193 199h10l-170 -175q32 17 71 17zM329 447q10 54 -17.5 87t-81.5 33q-61 0 -102 -41l-1 -1q-32 -32 -40 -80q-10 -53 18.5 -86t80.5 -33q54 0 93.5 33.5
t49.5 87.5z" />
    <glyph glyph-name="seven.numr" horiz-adv-x="313" 
d="M375 733l-2 -7l-302 -404h-10l301 403h-259l1 8h271z" />
    <glyph glyph-name="eight.numr" horiz-adv-x="335" 
d="M359 633q-6 -35 -31 -61t-59 -36q35 -10 52.5 -39t9.5 -70q-9 -50 -47.5 -79.5t-91.5 -29.5q-55 0 -84 30.5t-19 80.5q8 41 35.5 69t65.5 38q-69 26 -57 99q8 47 45 75t86 28t76 -29t19 -76zM265 730q-48 0 -82 -26t-42 -71q-8 -44 17 -69q26 -24 71 -24q46 0 80 25
t42 70q8 43 -16.5 69t-69.5 26zM230 532q-52 0 -88.5 -28t-44.5 -76q-9 -46 18 -74t77 -28q51 0 87 28t45 76q8 46 -18.5 74t-75.5 28z" />
    <glyph glyph-name="nine.numr" horiz-adv-x="332" 
d="M259 737q58 0 88 -35.5t19 -93.5q-8 -47 -39 -80l-9 -9l-192 -197h-10l170 174q-33 -16 -70 -16q-58 0 -88 35.5t-19 94.5q10 57 52 92t98 35zM359 610q10 53 -18.5 86t-80.5 33q-54 0 -94 -33.5t-50 -87.5t18 -87t81 -33q62 0 104 42q31 32 40 80z" />
    <glyph glyph-name="periodcentered.cap" horiz-adv-x="147" 
d="M98 396q21 0 18 -22q-4 -19 -23 -19q-20 0 -18 21q1 8 8 14t15 6z" />
    <glyph glyph-name="exclamdown.cap" horiz-adv-x="221" 
d="M193 715q-21 0 -18 22q4 19 23 19q20 0 18 -21q-1 -8 -8 -14t-15 -6zM62 0l102 580h8l-102 -580h-8z" />
    <glyph glyph-name="questiondown.cap" horiz-adv-x="458" 
d="M337 715q-21 0 -18 22q4 19 23 19q20 0 18 -21q-1 -8 -8 -14t-15 -6zM199 -8q-97 0 -141 57q-44 58 -29 144q10 64 44 105q34 40 104 83q63 41 89 78q26 38 36 97l4 24h8l-4 -24q-10 -60 -36 -99q-27 -40 -92 -82q-64 -39 -100 -80q-34 -39 -45 -104q-15 -82 27 -137
q42 -54 134 -54q179 0 231 166l8 -1q-24 -82 -86 -127.5t-152 -45.5z" />
    <glyph glyph-name="braceleft.cap" horiz-adv-x="183" 
d="M257 769l-1 -8h-6q-58 0 -86 -52.5t-23 -151.5q0 -44 0.5 -81t-12.5 -66t-40 -38q37 -14 25 -70q-10 -44 -39 -117q-39 -97 -29.5 -149.5t67.5 -52.5h6l-2 -8h-6q-63 0 -74 56.5t31 157.5q11 27 18 47q21 56 21 79q3 53 -45 53h-8l1 8h8q36 0 53 25t17.5 65.5t-0.5 90.5
q-5 102 25 157t93 55h6z" />
    <glyph glyph-name="braceright.cap" horiz-adv-x="183" 
d="M113 761l1 8h6q63 0 74 -56.5t-30 -157.5l-19 -47q-20 -60 -21 -79q0 -27 9.5 -40t36.5 -13h8l-1 -8h-8q-36 0 -53 -25t-17.5 -65.5t0.5 -90.5q5 -102 -25.5 -157t-93.5 -55h-6l2 8h6q58 0 86 52.5t23 151.5q-2 31 -1.5 61.5t4 55t15.5 43t33 25.5q-36 13 -24 70
q9 44 38 117q26 64 30.5 109.5t-12.5 69t-55 23.5h-6z" />
    <glyph glyph-name="bracketleft.cap" horiz-adv-x="209" 
d="M274 770l-2 -8h-111l-137 -779h111l-2 -8h-119l141 795h119z" />
    <glyph glyph-name="bracketright.cap" horiz-adv-x="209" 
d="M234 770l-141 -795h-119l2 8h111l137 779h-111l2 8h119z" />
    <glyph glyph-name="parenleft.cap" horiz-adv-x="200" 
d="M293 760l6 -4q-70 -79 -121 -182t-71 -213q-33 -230 53 -392l-8 -4q-91 176 -52 398q19 111 73 217q53 104 120 180z" />
    <glyph glyph-name="parenright.cap" horiz-adv-x="200" 
d="M110 756l8 4q91 -176 52 -399q-20 -110 -71 -213t-122 -183l-6 4q151 172 192 394q33 231 -53 393z" />
    <glyph glyph-name="emdash.cap" horiz-adv-x="790" 
d="M770 380l-2 -8h-700l2 8h700z" />
    <glyph glyph-name="endash.cap" horiz-adv-x="558" 
d="M535 380l-2 -8h-468l2 8h468z" />
    <glyph glyph-name="hyphen.cap" horiz-adv-x="398" 
d="M376 380l-2 -8h-308l2 8h308z" />
    <glyph glyph-name="guillemotleft.cap" horiz-adv-x="464" 
d="M269 576l4 -6l-226 -193l158 -193l-6 -6l-165 199zM488 576l4 -6l-226 -193l158 -193l-6 -6l-165 199z" />
    <glyph glyph-name="guillemotright.cap" horiz-adv-x="464" 
d="M84 576l165 -199l-235 -199l-4 6l226 193l-158 193zM303 576l165 -199l-235 -199l-4 6l226 193l-158 193z" />
    <glyph glyph-name="guilsinglleft.cap" horiz-adv-x="266" 
d="M292 576l5 -6l-247 -193l179 -193l-7 -6l-185 199z" />
    <glyph glyph-name="guilsinglright.cap" horiz-adv-x="266" 
d="M88 576l185 -199l-255 -199l-5 6l247 193l-179 193z" />
    <glyph glyph-name="emdash_guilsinglright" horiz-adv-x="809" 
d="M590 455l185 -199l-255 -199l-5 6l242 189h-712l2 8h712l-176 189z" />
    <glyph glyph-name="endash_guilsinglright" horiz-adv-x="559" 
d="M340 455l185 -199l-255 -199l-5 6l242 189h-462l2 8h462l-176 189z" />
    <glyph glyph-name="guilsinglleft_emdash" horiz-adv-x="809" 
d="M291 455l5 -6l-242 -189h712l-2 -8h-712l176 -189l-7 -6l-185 199z" />
    <glyph glyph-name="guilsinglleft_endash" horiz-adv-x="559" 
d="M291 455l5 -6l-242 -189h462l-2 -8h-462l176 -189l-7 -6l-185 199z" />
    <glyph glyph-name="at.cap" horiz-adv-x="787" 
d="M480 715q149 0 232 -98q84 -97 63 -246q-13 -89 -51 -141t-90 -52q-76 0 -59 85l5 26q-52 -115 -179 -115q-85 0 -127.5 54.5t-28.5 150.5q13 95 71 149t141 54q65 0 104.5 -31.5t47.5 -88.5l20 113h8l-54 -312q-14 -77 51 -77q49 0 85 50t48 137q19 145 -61 239
q-80 95 -226 95q-145 0 -254 -95q-108 -95 -128 -241q-19 -145 60 -239t226 -94q111 0 202 58l3 -8q-94 -58 -204 -58q-149 0 -233 97q-83 98 -62 246q21 147 131 245q110 97 259 97zM401 182q77 0 126.5 45.5t64.5 134.5l5 30q15 88 -23 135t-116 47q-81 0 -136.5 -52
t-68.5 -145q-13 -92 27.5 -143.5t120.5 -51.5z" />
    <glyph glyph-name="acute.case" horiz-adv-x="253" 
d="M337 921l-199 -124h-14l197 124h16z" />
    <glyph glyph-name="breve.case" horiz-adv-x="302" 
d="M384 909h8q-7 -42 -43 -66.5t-90 -24.5q-55 0 -82.5 24.5t-20.5 66.5h8q-7 -38 19 -60.5t76 -22.5q51 0 84.5 22.5t40.5 60.5z" />
    <glyph glyph-name="caron.case" horiz-adv-x="308" 
d="M397 918l-145 -121h-4l-101 121h11l94 -110l134 110h11z" />
    <glyph glyph-name="circumflex.case" horiz-adv-x="308" 
d="M274 918l101 -121h-11l-94 110l-134 -110h-11l145 121h4z" />
    <glyph glyph-name="dieresis.case" horiz-adv-x="192" 
d="M162 873q17 0 14 -17q-3 -14 -18 -14q-17 0 -14 16q4 15 18 15zM255 873q16 0 13 -17q-3 -14 -17 -14q-18 0 -15 16q4 15 19 15z" />
    <glyph glyph-name="dotaccent.case" horiz-adv-x="102" 
d="M160 863q8 0 13 -6t4 -14q-1 -7 -8 -12.5t-14 -5.5q-8 0 -13 6t-3 14q6 18 21 18z" />
    <glyph glyph-name="grave.case" horiz-adv-x="253" 
d="M166 921l153 -124h-14l-155 124h16z" />
    <glyph glyph-name="hungarumlaut.case" horiz-adv-x="250" 
d="M213 920l-80 -120h-9l79 120h10zM341 920l-80 -120h-9l79 120h10z" />
    <glyph glyph-name="macron.case" horiz-adv-x="265" 
d="M349 870l-1 -8h-215l1 8h215z" />
    <glyph glyph-name="ring.case" horiz-adv-x="244" 
d="M255 965q39 0 60 -24t14 -62q-7 -36 -36.5 -60t-65.5 -24q-39 0 -60 24t-14 62q7 36 36.5 60t65.5 24zM256 957q-34 0 -61.5 -22.5t-33.5 -55.5q-6 -32 13.5 -54t52.5 -22q34 0 61 22t33 56q6 33 -13 54.5t-52 21.5z" />
    <glyph glyph-name="tilde.case" horiz-adv-x="331" 
d="M210 906q31 0 66 -35t62 -35t46.5 18t24.5 45h8q-6 -31 -27.5 -51t-50.5 -20q-32 0 -67 35t-62 35t-46.5 -18t-24.5 -45h-8q6 30 28 50.5t51 20.5z" />
    <glyph glyph-name="anneau" horiz-adv-x="566" 
d="M377 756q105 0 167 -72q62 -73 47 -177q-14 -104 -96 -176q-83 -71 -185 -71q-106 0 -167 72q-62 73 -47 177q14 105 96 175q82 72 185 72zM379 748q-100 0 -182 -71q-81 -72 -94 -170q-13 -100 45 -170q60 -69 160 -69q102 0 181 70q82 71 95 171q14 101 -46 169
q-58 70 -159 70z" />
    <glyph glyph-name="_498" horiz-adv-x="600" 
 />
    </font>
</defs>
</svg>
