<?xml version="1.0" standalone="no"?>
<!DOCTYPE svg PUBLIC "-//W3C//DTD SVG 1.1//EN" "http://www.w3.org/Graphics/SVG/1.1/DTD/svg11.dtd" >
<svg xmlns="http://www.w3.org/2000/svg" xmlns:xlink="http://www.w3.org/1999/xlink" version="1.1">
<metadata>
Created by FontForge 20170731 at Sun Oct 29 18:41:34 2017
 By ,,,
Copyright (c) 2016 by Deni Anggara. All rights reserved.
</metadata>
<defs>
<font id="NeutrifStudio-ExtraBold" horiz-adv-x="0" >
  <font-face 
    font-family="Neutrif Studio ExtraBold"
    font-weight="800"
    font-stretch="normal"
    units-per-em="2048"
    panose-1="0 0 9 0 0 0 0 0 0 0"
    ascent="1638"
    descent="-410"
    x-height="1012"
    cap-height="1497"
    bbox="-1395 -610 4733 1999"
    underline-thickness="0"
    underline-position="0"
    unicode-range="U+000D-F8FF"
  />
<missing-glyph horiz-adv-x="1206" 
d="M1122 1497v-1497h-1038v1497h1038z" />
    <glyph glyph-name="f_f.liga" unicode="ff" horiz-adv-x="1703" 
d="M1401 1222q-41 -52 -41 -157v-53h301v-250h-301v-762h-291v762h-518v-762h-291v762h-229v250h229v88q0 206 110 319q109 111 302 111q96 0 180 -29v-235q-66 6 -113 6q-106 0 -147 -50q-41 -52 -41 -157v-53h518v88q0 206 110 319q109 111 302 111q96 0 180 -29v-235
q-66 6 -113 6q-106 0 -147 -50z" />
    <glyph glyph-name="f_f_i.liga" unicode="ffi" horiz-adv-x="2269" 
d="M1866 1226q-51 52 -51 126q0 76 51 128t131 52q81 0 130 -52q50 -53 50 -128q0 -73 -50 -126q-49 -52 -130 -52q-80 0 -131 52zM2140 0h-282v760h-469v2h-29v-762h-291v762h-518v-762h-291v762h-229v250h229v88q0 206 110 319q109 111 302 111q96 0 180 -29v-235
q-66 6 -113 6q-106 0 -147 -50q-41 -52 -41 -157v-53h518v88q0 206 110 319q109 111 302 111q96 0 180 -29v-235q-66 6 -113 6q-106 0 -147 -50q-41 -52 -41 -157v-53h780v-1012z" />
    <glyph glyph-name="f_f_t.liga" unicode="fft" horiz-adv-x="2498" 
d="M2138 762v-387q0 -85 41 -123q40 -37 121 -37q42 0 121 14v-225q-110 -37 -221 -37q-169 0 -260 100q-93 99 -93 269v426h-487v-762h-291v762h-518v-762h-291v762h-229v250h229v88q0 206 110 319q109 111 302 111q96 0 180 -29v-235q-66 6 -113 6q-106 0 -147 -50
q-41 -52 -41 -157v-53h518v88q0 206 110 319q109 111 302 111q96 0 180 -29v-235q-66 6 -113 6q-106 0 -147 -50q-41 -52 -41 -157v-53h487v284l291 33v-317h283v-250h-283z" />
    <glyph glyph-name="f_i.liga" unicode="fi" horiz-adv-x="1460" 
d="M1057 1226q-51 52 -51 126q0 76 51 128t131 52q81 0 130 -52q50 -53 50 -128q0 -73 -50 -126q-49 -52 -130 -52q-80 0 -131 52zM1331 0h-282v762h-498v-762h-291v762h-229v250h229v88q0 206 110 319q109 111 302 111q96 0 180 -29v-235q-66 6 -113 6q-106 0 -147 -50
q-41 -52 -41 -157v-53h780v-1012z" />
    <glyph glyph-name="f_l.liga" unicode="fl" horiz-adv-x="1400" 
d="M1305 1511v-1511h-283v762h-471v-762h-291v762h-229v250h229v88q0 206 110 319q109 111 302 111q96 0 180 -29v-235q-66 6 -113 6q-106 0 -147 -50q-41 -52 -41 -157v-53h471v499h283z" />
    <glyph glyph-name="t_i.liga" unicode="ti" horiz-adv-x="1435" 
d="M1032 1226q-51 52 -51 126q0 76 51 128t131 52q81 0 130 -52q50 -53 50 -128q0 -73 -50 -126q-49 -52 -130 -52q-80 0 -131 52zM1307 0h-283v762h-473v-387q0 -85 41 -123q40 -37 121 -37q42 0 121 14v-225q-110 -37 -222 -37q-169 0 -260 100q-92 100 -92 269v426h-229
v250h229v284l291 33v-317h756v-1012z" />
    <glyph glyph-name="t_t.liga" unicode="tt" horiz-adv-x="1654" 
d="M1294 762v-387q0 -85 41 -123q40 -37 121 -37q42 0 121 14v-225q-110 -37 -221 -37q-169 0 -260 100q-92 100 -92 269v426h-453v-387q0 -85 41 -123q40 -37 121 -37q42 0 121 14v-225q-110 -37 -222 -37q-169 0 -260 100q-92 100 -92 269v426h-229v250h229v284l291 33
v-317h453v284l290 33v-317h283v-250h-283z" />
    <glyph glyph-name="w_t_f.liga" unicode="wtf" horiz-adv-x="3112" 
d="M2810 1222q-41 -52 -41 -157v-53h301v-250h-301v-762h-291v762h-477v-387q0 -85 41 -123q40 -37 121 -37q42 0 121 14v-225q-110 -37 -222 -37q-169 0 -260 100q-92 100 -92 269v426h-227l-244 -762h-266l-111 352q-55 191 -67 262q-11 -78 -70 -262l-113 -352h-274
l-315 1012h309l94 -353q57 -238 57 -247q22 93 66 247l102 353h299l94 -350q54 -206 64 -250q25 120 63 250l97 350h442v284l291 33v-317h477v88q0 206 110 319q110 111 302 111q96 0 180 -29v-235q-63 6 -113 6q-106 0 -147 -50z" />
    <glyph glyph-name="w_w_w.liga" unicode="www" horiz-adv-x="4755" 
d="M3502 1012l94 -353q56 -233 58 -247q19 81 65 247l103 353h299l94 -350q57 -219 63 -250q26 125 64 250l96 350h295l-324 -1012h-266l-110 352q-58 199 -68 262q-11 -78 -70 -262l-112 -352h-275l-315 1012h309zM1917 1012l94 -353q57 -238 57 -247q22 93 66 247l102 353
h299l95 -350q57 -219 63 -250q26 125 64 250l96 350h295l-324 -1012h-266l-111 352q-55 191 -67 262q-11 -78 -70 -262l-112 -352h-275l-315 1012h309zM332 1012l94 -353q57 -238 57 -247q22 93 66 247l102 353h299l94 -350q54 -206 64 -250q25 120 63 250l97 350h295
l-324 -1012h-266l-111 352q-55 191 -67 262q-11 -78 -70 -262l-113 -352h-274l-315 1012h309z" />
    <glyph glyph-name=".notdef" horiz-adv-x="1206" 
d="M1122 1497v-1497h-1038v1497h1038z" />
    <glyph glyph-name=".null" 
 />
    <glyph glyph-name="nonmarkingreturn" horiz-adv-x="682" 
 />
    <glyph glyph-name="NULL" 
 />
    <glyph glyph-name="NULL" 
 />
    <glyph glyph-name="CR" unicode="&#xd;" horiz-adv-x="1693" 
d="M1503 1384v-946h-966v-268l-418 340l418 338v-266h825v802h141z" />
    <glyph glyph-name="CR" unicode="&#x21b5;" horiz-adv-x="1693" 
d="M1503 1384v-946h-966v-268l-418 340l418 338v-266h825v802h141z" />
    <glyph glyph-name="space" unicode=" " horiz-adv-x="473" 
 />
    <glyph glyph-name="exclam" unicode="!" horiz-adv-x="608" 
d="M197 541l-33 956h280l-32 -956h-215zM155 26q-59 61 -59 148q0 89 58 147q57 58 151 58q92 0 149 -58q56 -59 56 -147q0 -87 -56 -148q-57 -61 -149 -61t-150 61z" />
    <glyph glyph-name="quotedbl" unicode="&#x22;" horiz-adv-x="958" 
d="M123 1511h254l-41 -727h-172zM580 1511h256l-41 -727h-174z" />
    <glyph glyph-name="numbersign" unicode="#" horiz-adv-x="1632" 
d="M121 573h215l67 349h-225l41 235h232l65 340h305l-67 -340l282 2l68 338h303l-68 -338h209l-41 -237h-213l-67 -347h223l-39 -235h-231l-68 -340h-303l68 340h-285l-66 -340h-305l68 340h-209zM924 575l69 347h-286l-70 -349z" />
    <glyph glyph-name="dollar" unicode="$" horiz-adv-x="1193" 
d="M992 623q85 -103 85 -240q0 -118 -61 -210t-172 -145q-109 -53 -252 -53q-22 0 -80 5l-39 -213h-111l44 237q-122 39 -199 132t-90 231l262 34q4 -93 72 -143l49 270q-171 45 -257 140q-85 94 -85 227q0 113 56 205t160 145t236 53h29l37 199h119l-41 -217
q116 -31 193 -114q75 -82 93 -205l-262 -62q-5 86 -71 129l-48 -258l91 -16q156 -28 242 -131zM549 791l47 266q-75 -1 -119 -41q-43 -39 -43 -103q0 -94 115 -122zM740 257q53 38 53 108q0 100 -142 131l-41 8l-53 -283q16 -2 39 -2q89 0 144 38z" />
    <glyph glyph-name="percent" unicode="%" horiz-adv-x="1607" 
d="M190 1412q80 101 216 101q138 0 221 -101q82 -100 82 -263t-82 -264q-82 -103 -221 -103q-135 0 -216 103q-81 102 -81 264q0 163 81 263zM385 0l-149 109l987 1388l149 -108zM333 1019q26 -44 73 -44q102 0 102 174t-102 174q-98 0 -99 -174q0 -86 26 -130zM982 613
q81 100 220 100q137 0 218 -100t81 -263q0 -162 -81 -266t-218 -104q-136 0 -219 104q-82 103 -82 266q0 162 81 263zM1202 174q49 0 75 44t26 132q0 84 -27 128t-74 44q-100 0 -100 -172q0 -176 100 -176z" />
    <glyph glyph-name="ampersand" unicode="&#x26;" horiz-adv-x="1605" 
d="M173 537q37 72 72 106q45 43 109 94l70 60l-57 61q-63 68 -99 141q-37 71 -37 164q0 164 113 265q112 100 299 100q184 0 296 -97t112 -255q0 -193 -185 -349l-51 -43l234 -249q52 111 53 253l264 -36q-2 -256 -123 -435l289 -317h-377l-102 109q-76 -62 -188 -103
q-108 -41 -242 -41q-218 0 -351 109q-135 108 -135 293q0 98 36 170zM534 1089q16 -31 62 -75l43 -41l43 37q88 73 88 149q0 49 -34 83t-93 34q-58 0 -92 -34q-35 -35 -35 -85q0 -37 18 -68zM509 271q55 -46 150 -46q124 0 218 82l-285 301l-45 -35q-48 -36 -70 -72
q-24 -37 -24 -93q0 -90 56 -137z" />
    <glyph glyph-name="quotesingle" unicode="'" horiz-adv-x="538" 
d="M143 1511h252l-39 -727h-172z" />
    <glyph glyph-name="parenleft" unicode="(" horiz-adv-x="747" 
d="M508 -504q-176 182 -278 459q-103 278 -103 594q0 296 98 576q98 278 283 477h240q-138 -189 -221 -467q-83 -279 -83 -586q0 -291 77 -572q77 -278 227 -481h-240z" />
    <glyph glyph-name="parenright" unicode=")" horiz-adv-x="747" 
d="M227 -23q76 277 76 572q0 312 -82 588q-83 278 -221 465h242q185 -199 283 -477q96 -279 96 -576q0 -315 -102 -593q-104 -280 -277 -460h-242q150 203 227 481z" />
    <glyph glyph-name="asterisk" unicode="*" horiz-adv-x="960" 
d="M176 1329l146 -51q71 -27 98 -47q-14 51 -14 106v160h149v-160q0 -65 -12 -106q52 34 98 51l147 49l50 -147l-148 -47q-71 -24 -115 -25q26 -12 45 -29q18 -20 39 -49l97 -127l-127 -92l-88 127q-42 48 -58 100q-17 -48 -57 -100l-94 -127l-129 94l102 127q19 28 38 47
q17 17 42 29q-42 1 -113 25l-147 47z" />
    <glyph glyph-name="plus" unicode="+" horiz-adv-x="1253" 
d="M1128 502h-391v-400h-223v400h-389v223h389v401h223v-401h391v-223z" />
    <glyph glyph-name="comma" unicode="," horiz-adv-x="569" 
d="M413 294q54 -54 54 -136q0 -46 -15 -87q-16 -40 -46 -83l-228 -316l-115 66l138 250q-59 13 -95 61q-34 46 -34 109q0 82 56 136t142 54q88 0 143 -54z" />
    <glyph glyph-name="hyphen" unicode="-" horiz-adv-x="1310" 
d="M1122 444h-934v207h934v-207z" />
    <glyph glyph-name="period" unicode="." horiz-adv-x="555" 
d="M128 26q-52 53 -52 136q0 85 52 137q53 53 140 53q86 0 140 -54q53 -55 53 -136q0 -82 -54 -136q-55 -55 -139 -55q-88 0 -140 55z" />
    <glyph glyph-name="slash" unicode="/" horiz-adv-x="1173" 
d="M276 0h-243l866 1528h242z" />
    <glyph glyph-name="zero" unicode="0" horiz-adv-x="1333" 
d="M152 1165q74 177 208 269t314 92q182 0 313 -95q132 -97 199 -269q67 -171 67 -406q0 -248 -73 -422q-74 -176 -209 -268q-135 -93 -314 -93q-183 0 -313 96q-130 94 -198 269t-68 405q0 245 74 422zM465 400q71 -126 201 -126q135 0 203 128q67 127 67 350
q0 224 -69 348q-71 125 -201 125q-137 0 -204 -127t-67 -348q0 -225 70 -350z" />
    <glyph glyph-name="one" unicode="1" horiz-adv-x="870" 
d="M717 1497v-1497h-301v1022h-377v209q173 0 268 71q94 70 109 195h301z" />
    <glyph glyph-name="two" unicode="2" horiz-adv-x="1144" 
d="M547 291h506v-291h-979l-2 248l571 543q72 68 98 127q25 57 25 118q0 100 -55 154q-56 53 -152 53q-104 0 -161 -61q-58 -61 -58 -158q0 -18 4 -47l-285 33q-2 24 -2 53q0 127 62 234q61 105 178 170q117 63 274 63q151 0 267 -59q114 -60 177 -167q62 -109 62 -249
q0 -134 -52 -250t-153 -211z" />
    <glyph glyph-name="three" unicode="3" horiz-adv-x="1191" 
d="M1026 804q96 -124 96 -306q0 -151 -68 -270q-70 -120 -194 -187q-125 -68 -287 -68q-220 0 -359 121q-141 123 -163 322l314 61q4 -94 66 -148q61 -55 153 -55q98 0 160 62q61 61 61 164q0 100 -62 162q-62 61 -165 61q-70 0 -138 -27l-90 242l266 270l-512 2v287h938
v-256l-276 -287q164 -26 260 -150z" />
    <glyph glyph-name="four" unicode="4" horiz-adv-x="1284" 
d="M43 545l508 952h356l-526 -952l356 -2v469h299v-469h207v-285h-207v-258h-299v258l-694 2v285z" />
    <glyph glyph-name="five" unicode="5" horiz-adv-x="1210" 
d="M907 975q115 -66 178 -184q62 -119 62 -275q0 -163 -67 -284q-67 -123 -190 -191q-122 -68 -284 -68q-155 0 -274 61q-120 59 -191 171q-71 110 -80 256l316 41q0 -108 62 -172q61 -64 161 -64t165 68q64 67 64 178q0 119 -65 187q-66 67 -168 67q-75 0 -133 -35
q-57 -35 -84 -96h-313l116 862h871v-287h-607l-34 -229q85 59 227 59q152 0 268 -65z" />
    <glyph glyph-name="six" unicode="6" horiz-adv-x="1224" 
d="M926 964q109 -64 171 -179q60 -115 60 -263q0 -165 -67 -287q-67 -124 -191 -192t-283 -68q-160 0 -281 67q-122 68 -189 187q-68 119 -68 277q0 80 21 149q20 68 50 121q23 42 101 174l330 547h383l-293 -469q146 0 256 -64zM781 341q61 64 61 171q0 110 -61 175
q-62 65 -163 65q-99 0 -160 -67q-63 -67 -63 -173t63 -171q62 -65 160 -65q101 0 163 65z" />
    <glyph glyph-name="seven" unicode="7" horiz-adv-x="1079" 
d="M1057 1497v-274l-666 -1223h-362l659 1210h-633v287h1002z" />
    <glyph glyph-name="eight" unicode="8" horiz-adv-x="1263" 
d="M1128 662q56 -100 56 -226q0 -134 -68 -240q-68 -105 -194 -164q-122 -59 -289 -59q-166 0 -290 59q-126 58 -195 165q-70 106 -70 241q0 126 58 223q56 96 155 146q-75 41 -118 119q-44 79 -44 180q0 121 63 217q61 95 177 151q114 54 264 54q147 0 262 -54
q115 -55 178 -150q62 -95 62 -216q0 -103 -44 -182q-43 -78 -118 -119q97 -46 155 -145zM495 1186q-51 -44 -51 -119q0 -76 52 -121q51 -45 135 -45t135 45t51 121q0 75 -50 119q-49 43 -136 43t-136 -43zM803 328q65 53 65 141t-65 144q-65 55 -172 55t-171 -54
q-65 -56 -65 -145t65 -142t171 -53t172 54z" />
    <glyph glyph-name="nine" unicode="9" horiz-adv-x="1226" 
d="M887 1455q124 -66 191 -186q67 -119 67 -278q0 -121 -40 -211q-41 -92 -132 -231l-371 -549h-395l342 467q-145 5 -255 69q-111 66 -169 178q-59 113 -59 263q0 161 68 285q69 123 190 190q122 68 282 68q157 0 281 -65zM766 810q61 64 61 173t-60 174q-60 64 -163 64
q-97 0 -159 -65q-62 -67 -62 -173t63 -172q62 -66 158 -66q100 0 162 65z" />
    <glyph glyph-name="colon" unicode=":" horiz-adv-x="710" 
d="M228 749q-48 49 -48 125t48 125q48 48 126 48q80 0 128 -48q48 -49 48 -125q0 -77 -49 -126q-50 -50 -127 -50q-78 0 -126 51zM228 21q-48 50 -48 124q0 77 47 126q47 48 127 48t128 -48t48 -126q0 -76 -49 -125t-127 -49q-79 0 -126 50z" />
    <glyph glyph-name="semicolon" unicode=";" horiz-adv-x="684" 
d="M224 749q-48 49 -48 125t48 125q48 48 126 48q80 0 128 -48q48 -49 48 -125q0 -77 -49 -126q-50 -50 -127 -50q-78 0 -126 51zM158 -236l125 222q-46 13 -77 58q-30 43 -30 101q0 78 48 126t126 48q80 0 128 -48t48 -130q0 -42 -14 -78q-13 -34 -41 -73l-205 -291z" />
    <glyph glyph-name="less" unicode="&#x3c;" horiz-adv-x="1122" 
d="M147 408v217l828 432v-271l-563 -270l563 -270v-279z" />
    <glyph glyph-name="equal" unicode="=" horiz-adv-x="1265" 
d="M1077 883v-219h-889v219h889zM1077 504v-219h-889v219h889z" />
    <glyph glyph-name="greater" unicode="&#x3e;" horiz-adv-x="1122" 
d="M147 246l566 270l-566 270v271l828 -416v-250l-828 -424v279z" />
    <glyph glyph-name="question" unicode="?" horiz-adv-x="1124" 
d="M383 514q0 110 42 192q41 81 140 189q63 67 93 114t30 103q0 68 -40 107q-41 38 -107 38q-74 0 -116 -46q-42 -47 -42 -121q0 -33 10 -76l-270 37q-6 34 -6 65q0 110 52 204q53 94 153 153q100 57 235 57q125 0 221 -48t150 -135q53 -88 53 -200q0 -98 -43 -183
q-44 -87 -139 -192q-2 -2 -10.5 -12t-20 -23t-24.5 -27q-43 -48 -63 -92q-19 -44 -19 -96v-22h-279v14zM384 28q-56 61 -56 148t56 146q56 57 151 57q93 0 148 -57q56 -59 56 -146t-56 -148q-55 -61 -148 -61q-96 0 -151 61z" />
    <glyph glyph-name="at" unicode="@" horiz-adv-x="1839" 
d="M1239 457q-8 -125 90 -125q97 0 159 95q60 95 60 253q0 176 -74 307q-76 132 -211 203q-137 72 -315 72q-193 0 -340 -84q-148 -84 -227 -237q-80 -154 -80 -351q0 -199 80 -348q79 -148 226 -232q145 -82 337 -82q101 0 233 23q130 24 248 82v-170q-113 -53 -241 -77
q-130 -24 -246 -24q-248 0 -436 102q-189 104 -292 290q-104 187 -104 430q0 249 106 439q105 190 296 297q190 105 436 105q232 0 413 -95q178 -94 278 -262q98 -167 98 -380q0 -156 -52 -273q-52 -119 -146 -186q-92 -67 -210 -67q-73 0 -132 33q-57 31 -83 86
q-33 -48 -97 -79q-63 -30 -136 -30q-144 0 -233 107t-89 286q0 185 94 300q95 116 250 116q75 0 134 -25q58 -25 89 -61l25 66h129zM1024 407q53 68 53 195q0 115 -44 171t-115 56q-82 0 -133 -69q-52 -70 -52 -197q0 -113 42 -169t112 -56q85 0 137 69z" />
    <glyph glyph-name="A" unicode="A" horiz-adv-x="1415" 
d="M954 256h-499l-80 -256h-357l533 1497h313l531 -1497h-361zM870 528l-77 250q-29 95 -37 117q-42 133 -49 174q-5 -31 -43 -149l-46 -142l-77 -250h329z" />
    <glyph glyph-name="B" unicode="B" horiz-adv-x="1288" 
d="M1169 627q48 -89 48 -205q0 -190 -126 -306q-127 -116 -350 -116h-610v1495l576 -2q145 0 252 -54q105 -55 164 -150q57 -94 57 -218q0 -103 -41 -183q-40 -79 -115 -126q95 -46 145 -135zM428 879h254q80 0 129 46t49 119q0 76 -49 121t-131 45h-252v-331zM855 333
q48 47 48 120q0 78 -48 126t-128 48h-299v-340h299q81 0 128 46z" />
    <glyph glyph-name="C" unicode="C" horiz-adv-x="1509" 
d="M413 67q-162 97 -254 273q-91 175 -91 405t92 409q91 177 256 275q163 97 372 97q162 0 297 -58t229 -164q94 -107 128 -247l-299 -111q-27 124 -125 201q-97 76 -232 76q-115 0 -204 -59t-139 -167q-50 -109 -50 -249q0 -138 50 -247t139 -167q90 -60 206 -60
q134 0 231 76t124 201l299 -111q-33 -140 -126 -246q-93 -108 -229 -166q-134 -59 -301 -59q-210 0 -373 98z" />
    <glyph glyph-name="D" unicode="D" horiz-adv-x="1398" 
d="M131 1497h504q222 0 380 -92q156 -91 237 -261q81 -169 81 -394q0 -236 -85 -405t-242 -257t-371 -88h-504v1497zM616 287q188 0 294 126q106 125 106 337q0 217 -108 340q-110 122 -292 122h-186v-925h186z" />
    <glyph glyph-name="E" unicode="E" horiz-adv-x="1052" 
d="M131 1497h858v-287h-561v-319h500v-266h-500v-338h561v-287h-858v1497z" />
    <glyph glyph-name="F" unicode="F" horiz-adv-x="1050" 
d="M131 1497h866v-287h-569v-333h481v-267h-481v-610h-297v1497z" />
    <glyph glyph-name="G" unicode="G" horiz-adv-x="1576" 
d="M1511 657q0 -203 -87 -358q-87 -156 -246 -243q-161 -87 -373 -87q-224 0 -390 97q-168 97 -257 271q-90 175 -90 406q0 235 93 414t261 276q167 97 387 97q155 0 287 -55q133 -55 225 -155q93 -101 127 -228l-285 -117q-29 119 -125 188q-97 68 -239 68
q-191 0 -300 -133q-110 -134 -110 -350q0 -220 111 -350q110 -132 307 -132q159 0 265 85q107 86 120 227h-420v256h723q16 -77 16 -177z" />
    <glyph glyph-name="H" unicode="H" horiz-adv-x="1427" 
d="M1298 1497v-1497h-297v590h-573v-590h-297v1497h297v-620h573v620h297z" />
    <glyph glyph-name="I" unicode="I" horiz-adv-x="548" 
d="M131 0v1497h289v-1497h-289z" />
    <glyph glyph-name="J" unicode="J" horiz-adv-x="1097" 
d="M33 539h291v-113q0 -68 43 -123t135 -55t135 54q43 53 43 134v1061h297v-1061q0 -138 -57 -241q-58 -105 -163 -163q-105 -59 -245 -59q-145 0 -253 57q-108 55 -167 159q-59 103 -59 237v113z" />
    <glyph glyph-name="K" unicode="K" horiz-adv-x="1343" 
d="M131 1497h297v-752l518 752h377l-451 -631l449 -866h-365l-288 594l-240 -334v-264h-297v1501z" />
    <glyph glyph-name="L" unicode="L" horiz-adv-x="1116" 
d="M1053 287v-287h-922v1497h299v-1210h623z" />
    <glyph glyph-name="M" unicode="M" horiz-adv-x="1716" 
d="M131 1497h299l430 -1124l428 1124l299 -2v-1495h-299v459q0 252 10 362l-294 -821h-289l-295 817q10 -107 10 -358v-459h-299v1497z" />
    <glyph glyph-name="N" unicode="N" horiz-adv-x="1449" 
d="M131 1497h297l594 -991v991h297v-1497h-297l-594 989v-989h-297v1497z" />
    <glyph glyph-name="O" unicode="O" horiz-adv-x="1640" 
d="M429 69q-172 101 -266 279q-95 179 -95 402q0 220 95 399q94 177 266 280q172 101 390 101t391 -101q172 -102 268 -280q95 -179 95 -399q0 -222 -96 -401q-99 -180 -268 -280q-171 -102 -390 -102t-390 102zM1040 332q97 58 150 167q53 108 53 249q0 138 -54 248
q-54 107 -150 169q-97 60 -220 60q-122 0 -220 -59q-97 -60 -151 -168q-55 -109 -55 -248q0 -142 55 -249q54 -108 151 -168q97 -61 220 -61t221 60z" />
    <glyph glyph-name="P" unicode="P" horiz-adv-x="1304" 
d="M131 1497h602q154 0 269 -64q114 -64 177 -179q62 -116 62 -263t-62 -263q-64 -117 -177 -181q-116 -66 -271 -66h-303v-481h-297v1497zM709 758q111 0 169 66q58 64 58 163q0 103 -56 164q-57 59 -169 59h-283v-452h281z" />
    <glyph glyph-name="Q" unicode="Q" horiz-adv-x="1640" 
d="M1531 474q-41 -128 -122 -230l156 -168l-205 -185l-158 172q-174 -96 -383 -96q-219 0 -390 102q-172 101 -266 279q-95 179 -95 402q0 220 95 399q94 177 266 280q172 101 390 101t391 -101q172 -102 268 -280q95 -179 95 -399q0 -146 -42 -276zM981 303l-197 213
l203 186l197 -213q59 110 59 259q0 138 -54 248q-54 107 -150 169q-97 60 -220 60q-122 0 -220 -59q-97 -60 -151 -168q-55 -109 -55 -248q0 -142 55 -249q54 -108 151 -168q97 -61 220 -61q90 0 162 31z" />
    <glyph glyph-name="R" unicode="R" horiz-adv-x="1337" 
d="M1201 747q-61 -112 -175 -174l231 -573h-327l-197 508h-305v-508h-297v1497h621q156 0 271 -63q115 -65 177 -176q62 -113 62 -257t-61 -254zM428 772h305q108 0 167 65q58 64 58 160q0 97 -58 155t-167 58h-305v-438z" />
    <glyph glyph-name="S" unicode="S" horiz-adv-x="1232" 
d="M834 1059q-11 85 -72 134q-62 50 -158 50q-86 0 -142 -44t-56 -116q0 -68 50 -104q48 -36 144 -59l195 -48q187 -45 278 -157q92 -113 92 -271q0 -139 -67 -245t-191 -165q-121 -59 -284 -59q-161 0 -283 58q-122 57 -195 161q-72 102 -86 238l295 43q4 -96 76 -154
q73 -59 191 -59q102 0 164 44q61 43 61 122q0 118 -152 156l-192 47q-217 52 -315 161q-99 106 -99 273q0 140 67 244q66 104 183 161q118 56 266 56q210 0 353 -106q144 -107 169 -287z" />
    <glyph glyph-name="T" unicode="T" horiz-adv-x="1163" 
d="M1118 1210h-389v-1210h-297v1210h-389v287h1075v-287z" />
    <glyph glyph-name="U" unicode="U" horiz-adv-x="1370" 
d="M111 1497h299v-903q0 -158 75 -246q73 -88 201 -88q132 0 205 90q74 91 74 244v903h297v-938q0 -173 -72 -307t-202 -207q-131 -74 -302 -74t-302 74q-130 73 -201 207q-72 134 -72 307v938z" />
    <glyph glyph-name="V" unicode="V" horiz-adv-x="1441" 
d="M1427 1497l-559 -1497h-293l-561 1497h353l354 -1057l350 1057h356z" />
    <glyph glyph-name="W" unicode="W" horiz-adv-x="2117" 
d="M365 1497l227 -975l311 975h311l312 -973l227 973h338l-405 -1497h-300l-329 983l-328 -983h-295l-409 1497h340z" />
    <glyph glyph-name="X" unicode="X" horiz-adv-x="1431" 
d="M489 750l-434 747h389l273 -491l284 491h396l-459 -747l440 -750h-385l-276 489l-291 -489h-393z" />
    <glyph glyph-name="Y" unicode="Y" horiz-adv-x="1378" 
d="M358 1497l330 -584l332 584h346l-532 -901v-596h-291v596l-531 901h346z" />
    <glyph glyph-name="Z" unicode="Z" horiz-adv-x="1165" 
d="M74 279l641 927h-635v287l1012 4v-278l-646 -932h627v-287h-999v279z" />
    <glyph glyph-name="bracketleft" unicode="[" horiz-adv-x="636" 
d="M637 -340h-510v2109h510v-239h-248v-1630h248v-240z" />
    <glyph glyph-name="backslash" unicode="\" horiz-adv-x="1173" 
d="M276 1528l865 -1528h-242l-866 1528h243z" />
    <glyph glyph-name="bracketright" unicode="]" horiz-adv-x="636" 
d="M246 -100v1630h-246v239h510v-2109h-510v240h246z" />
    <glyph glyph-name="asciicircum" unicode="^" horiz-adv-x="956" 
d="M479 1280l-108 -242h-256l258 459h211l258 -459h-256z" />
    <glyph glyph-name="underscore" unicode="_" horiz-adv-x="1021" 
d="M0 -41h1022v-225h-1022v225z" />
    <glyph glyph-name="grave" unicode="`" horiz-adv-x="485" 
d="M205 1409l-215 313h274l150 -313h-209z" />
    <glyph glyph-name="a" unicode="a" horiz-adv-x="1075" 
d="M868 945q109 -103 109 -300v-645h-254l-16 113q-40 -69 -121 -109q-80 -39 -180 -39q-149 0 -244 86q-94 85 -94 230q0 147 100 237t264 90h146q58 0 87 24q27 22 27 64q0 51 -40 82t-107 31q-78 0 -132 -39q-54 -38 -65 -104l-246 61q26 152 148 236q123 84 307 84
q201 0 311 -102zM690 410h-198q-66 0 -101 -27t-35 -76q0 -51 39 -79q40 -29 109 -29q86 0 136 48t50 128v35z" />
    <glyph glyph-name="b" unicode="b" horiz-adv-x="1185" 
d="M991 898q117 -146 117 -394q0 -172 -55 -292q-56 -123 -156 -184q-100 -63 -229 -63q-99 0 -175 38q-74 37 -114 106l-12 -109h-258v1511h290v-571q42 48 114 77q71 27 157 27q204 0 321 -146zM760 290q51 80 51 218q0 144 -54 218q-55 73 -151 73q-102 0 -154 -78
q-53 -79 -53 -217q0 -145 56 -219t151 -74q103 0 154 79z" />
    <glyph glyph-name="c" unicode="c" horiz-adv-x="1128" 
d="M329 37q-118 69 -184 192q-67 122 -67 277t68 280q68 123 187 192q120 69 269 69q171 0 296 -86q123 -86 167 -226l-244 -108q-23 68 -83 110q-61 41 -138 41q-102 0 -164 -72q-63 -74 -63 -200q0 -122 60 -196q59 -74 165 -74q78 0 140 41q61 40 85 110l248 -108
q-50 -143 -180 -227q-130 -85 -297 -85q-149 0 -265 70z" />
    <glyph glyph-name="d" unicode="d" horiz-adv-x="1185" 
d="M1077 1511v-1511h-260l-12 109q-39 -66 -117 -105t-172 -39q-206 0 -321 148q-117 147 -117 397q0 252 120 393q118 141 320 141q86 0 155 -27q69 -29 111 -77v571h293zM733 288q51 76 51 218q0 146 -54 220q-54 73 -150 73q-102 0 -154 -78q-53 -79 -53 -215
q0 -146 55 -220q56 -75 154 -75q100 0 151 77z" />
    <glyph glyph-name="e" unicode="e" horiz-adv-x="1142" 
d="M740 249q67 40 94 103l229 -88q-40 -134 -172 -217q-130 -82 -303 -82q-152 0 -267 66q-116 65 -179 188q-64 122 -64 285q0 162 63 285q62 123 177 190q115 68 262 68q144 0 254 -61q110 -62 171 -174q60 -113 60 -257q0 -70 -14 -137h-693q1 -94 66 -151
q62 -58 164 -58q85 0 152 40zM430 757q-60 -49 -70 -126h412q-6 81 -58 127q-53 47 -136 47q-90 0 -148 -48z" />
    <glyph glyph-name="f" unicode="f" horiz-adv-x="894" 
d="M592 1222q-41 -52 -41 -157v-53h301v-250h-301v-762h-291v762h-229v250h229v88q0 206 110 319q109 111 302 111q96 0 180 -29v-235q-66 6 -113 6q-106 0 -147 -50z" />
    <glyph glyph-name="g" unicode="g" horiz-adv-x="1189" 
d="M1081 1012v-996q0 -228 -143 -353q-142 -124 -379 -124q-204 0 -329 91q-127 92 -167 245l240 105q13 -88 83 -138q68 -49 165 -49q112 0 173 58q62 59 62 155v109q-79 -95 -258 -97q-209 0 -327 139q-119 139 -119 373q0 158 54 274q55 117 154 178q100 62 230 62
q101 0 175 -34t112 -95l10 97h264zM735 331q53 71 53 201q0 126 -53 197q-52 70 -151 70q-102 0 -155 -72q-54 -72 -54 -197q0 -128 54 -199t153 -71q100 0 153 71z" />
    <glyph glyph-name="h" unicode="h" horiz-adv-x="1116" 
d="M924 937q94 -109 94 -292v-645h-291v582q0 98 -42 147t-114 49q-85 0 -129 -53q-43 -52 -43 -147v-578h-290v1511h290v-573q44 54 113 82q68 27 147 27q170 0 265 -110z" />
    <glyph glyph-name="i" unicode="i" horiz-adv-x="546" 
d="M144 1226q-52 52 -52 126q0 76 52 128q51 52 130 52q80 0 131 -52q50 -53 50 -128q0 -73 -50 -126q-51 -52 -131 -52q-79 0 -130 52zM418 1012v-1012h-283v1012h283z" />
    <glyph glyph-name="j" unicode="j" horiz-adv-x="540" 
d="M139 1208q-51 52 -51 133q0 85 51 137t131 52q83 0 132 -52t49 -137t-49 -135q-50 -51 -132 -51q-80 0 -131 53zM-172 -432v237q61 -8 111 -8q106 0 147 50q41 52 41 155v1010h291v-1041q0 -208 -109 -320t-303 -112q-91 0 -178 29z" />
    <glyph glyph-name="k" unicode="k" horiz-adv-x="1112" 
d="M760 625l325 -625h-333l-193 397l-160 -182v-215h-290v1511h290v-884l336 385h365z" />
    <glyph glyph-name="l" unicode="l" horiz-adv-x="487" 
d="M109 1511h282v-1511h-282v1511z" />
    <glyph glyph-name="m" unicode="m" horiz-adv-x="1642" 
d="M1449 949q95 -100 95 -273v-676h-291v621q0 89 -34 126t-101 37q-72 0 -108 -47q-37 -46 -37 -125v-612h-293v618q0 166 -139 166q-65 0 -103 -47q-37 -46 -37 -127v-610h-292v1014h258l14 -96q39 61 104 94q67 35 150 35q100 0 175 -45q75 -46 105 -123q33 78 107 123
t168 45q164 0 259 -98z" />
    <glyph glyph-name="n" unicode="n" horiz-adv-x="1116" 
d="M924 937q94 -109 94 -292v-645h-291v588q0 94 -42 142t-114 48q-86 0 -129 -52t-43 -142v-584h-290v1012h260l10 -101q44 68 118 102q72 34 162 34q170 0 265 -110z" />
    <glyph glyph-name="o" unicode="o" horiz-adv-x="1202" 
d="M139 787q71 122 192 191t273 69t273 -69q120 -69 189 -192q69 -124 69 -280t-69 -280q-69 -125 -190 -192q-122 -69 -274 -69q-150 0 -271 69q-121 67 -192 191t-71 281t71 281zM436 306q62 -75 164 -75t166 75q63 75 63 200q0 124 -63 201q-64 75 -166 75t-164 -75
q-63 -77 -63 -203q0 -123 63 -198z" />
    <glyph glyph-name="p" unicode="p" horiz-adv-x="1189" 
d="M995 901q117 -147 117 -395q0 -167 -56 -291q-57 -123 -157 -186q-100 -64 -231 -64q-90 0 -160 30t-109 87v-512h-290v1442h256l12 -105q44 69 119 104q75 36 174 36q206 0 325 -146zM761 290q50 80 50 218q0 146 -54 220q-55 73 -153 73q-102 0 -153 -77
q-52 -76 -52 -216q0 -146 56 -222q55 -75 153 -75q104 0 153 79z" />
    <glyph glyph-name="q" unicode="q" horiz-adv-x="1196" 
d="M1087 1012v-1442h-292v510q-82 -115 -271 -115q-208 0 -327 147q-119 146 -119 392q0 172 58 292q58 123 159 187t237 64q90 0 164 -30t117 -81v76h274zM744 290q51 80 51 218q0 146 -54 220q-55 73 -151 73q-104 0 -156 -78q-53 -79 -53 -215q0 -144 57 -221
q55 -76 152 -76q102 0 154 79z" />
    <glyph glyph-name="r" unicode="r" horiz-adv-x="751" 
d="M483 984q65 38 154 38q41 0 94 -10v-279q-53 10 -90 10q-117 0 -180 -65q-64 -65 -64 -182v-496h-288v1012h270l14 -131q26 66 90 103z" />
    <glyph glyph-name="s" unicode="s" horiz-adv-x="966" 
d="M625 700q-6 49 -42 82t-98 33q-52 0 -83 -23q-31 -24 -31 -65q0 -63 106 -88l152 -33q134 -31 205 -111q69 -81 69 -194q0 -99 -53 -176q-52 -75 -149 -118q-97 -42 -222 -42q-177 0 -290 84q-112 84 -126 230l246 38q5 -55 48 -87q43 -33 120 -33q63 0 97 24
q34 22 34 62q0 66 -92 90l-149 39q-287 78 -287 301q0 97 51 174q50 75 140 118q89 42 204 42q161 0 268 -80q105 -79 117 -213z" />
    <glyph glyph-name="t" unicode="t" horiz-adv-x="911" 
d="M551 762v-387q0 -85 41 -123q40 -37 121 -37q42 0 121 14v-225q-110 -37 -222 -37q-169 0 -260 100q-92 100 -92 269v426h-229v250h229v284l291 33v-317h283v-250h-283z" />
    <glyph glyph-name="u" unicode="u" horiz-adv-x="1101" 
d="M993 1012v-1012h-272v106q-33 -66 -109 -103q-75 -38 -174 -38q-158 0 -249 103q-91 101 -91 272v672h291v-588q0 -180 150 -180q80 0 122 48q41 49 41 136v584h291z" />
    <glyph glyph-name="v" unicode="v" horiz-adv-x="1114" 
d="M334 1012l162 -484q7 -19 24 -67q20 -56 33 -121q19 76 45 145l14 43l174 484h316l-410 -1012h-280l-400 1012h322z" />
    <glyph glyph-name="w" unicode="w" horiz-adv-x="1585" 
d="M332 1012l94 -353q57 -238 57 -247q22 93 66 247l102 353h299l94 -350q54 -206 64 -250q25 120 63 250l97 350h295l-324 -1012h-266l-111 352q-55 191 -67 262q-11 -78 -70 -262l-113 -352h-274l-315 1012h309z" />
    <glyph glyph-name="x" unicode="x" horiz-adv-x="1083" 
d="M350 506l-323 506h340l59 -107q79 -146 117 -221l184 328h322l-310 -506l318 -506h-334l-70 117q-53 80 -116 198l-179 -315h-321z" />
    <glyph glyph-name="y" unicode="y" horiz-adv-x="1130" 
d="M1116 1012l-612 -1442h-309l204 481l-387 961h314l219 -619l262 619h309z" />
    <glyph glyph-name="z" unicode="z" horiz-adv-x="927" 
d="M850 268v-268h-774v236l426 507h-420v269h764v-256l-408 -488h412z" />
    <glyph glyph-name="braceleft" unicode="{" horiz-adv-x="794" 
d="M467 707q133 -112 133 -314v-274q0 -124 41 -179q41 -53 154 -53v-225l-52 -2q-201 0 -304 97t-103 325v291q0 99 -45 149q-44 48 -149 77t-15 -3v221q8 0 52 4q51 5 104 62q53 58 53 157v291q0 242 116 337q117 95 343 85v-227q-113 0 -154 -53q-41 -55 -41 -177v-276
q0 -201 -133 -313z" />
    <glyph glyph-name="bar" unicode="|" horiz-adv-x="565" 
d="M139 1528h285v-1798h-285v1798z" />
    <glyph glyph-name="braceright" unicode="}" horiz-adv-x="794" 
d="M502 891q44 -48 91 -59q47 -10 75 -15v-221q-8 0 -53 -4q-53 -5 -105 -61q-53 -59 -53 -158v-291q0 -228 -102 -325q-103 -97 -304 -97l-51 2v225q114 0 155 53q40 53 40 179v274q0 203 131 314q-131 111 -131 313v276q0 124 -40 177q-41 53 -155 53v227q224 10 341 -85
q116 -95 116 -337v-291q0 -100 45 -149z" />
    <glyph glyph-name="asciitilde" unicode="~" horiz-adv-x="1087" 
d="M155 713q71 75 177 75q53 0 101 -16q56 -19 118 -49q62 -29 99 -41q42 -14 79 -14q55 0 84 32t29 82h149q2 -18 2 -41q0 -146 -73 -213q-74 -69 -172 -69q-68 0 -122 19q-60 19 -139 52q-42 20 -87 38q-34 12 -64 12q-49 0 -71 -34q-23 -35 -17 -77h-154q-10 167 61 244z
" />
    <glyph glyph-name="exclamdown" unicode="&#xa1;" horiz-adv-x="608" 
d="M454 1093q56 -62 56 -149t-56 -146q-57 -59 -149 -59q-94 0 -151 59q-58 58 -58 146q0 87 59 149q59 60 150 60q92 0 149 -60zM444 -379h-280l33 957h215z" />
    <glyph glyph-name="cent" unicode="&#xa2;" horiz-adv-x="1325" 
d="M884 279q81 59 107 155l234 -80q-38 -173 -185 -276q-148 -105 -360 -105q-46 0 -84 7l-39 -213h-108l43 237q-181 62 -287 229q-107 169 -107 404q0 197 75 347q76 150 209 232t308 82h37l37 199h115l-39 -213q153 -33 254 -127q102 -94 133 -239l-236 -95
q-19 80 -70 139q-52 57 -128 76l-152 -815q33 -4 55 -4q107 0 188 60zM418 399q44 -96 121 -141l143 793q-150 -6 -228 -117q-79 -110 -79 -299q0 -143 43 -236z" />
    <glyph glyph-name="sterling" unicode="&#xa3;" horiz-adv-x="1263" 
d="M1116 291v-291h-1010v291q18 -2 44 -2q97 0 156 43q59 44 59 123q0 70 -58 196h-196v209h110q-31 111 -31 209q0 149 72 253t196 156q123 52 275 52q99 0 187 -21q92 -23 153 -59l-59 -258q-74 35 -139 50q-58 13 -117 13q-120 0 -185 -52q-67 -52 -67 -154
q0 -72 43 -189h407l-20 -209h-315q39 -112 38 -200q0 -95 -47 -160h504z" />
    <glyph glyph-name="currency" unicode="&#xa4;" horiz-adv-x="1249" 
d="M252 428q-53 95 -53 223q0 133 53 228l-131 155l176 156l131 -152q32 20 83 33q52 12 112 12q63 0 116 -12q52 -12 82 -33l135 152l177 -156l-138 -153q54 -94 56 -230q0 -128 -56 -225l138 -154l-177 -155l-135 151q-66 -45 -198 -45q-129 0 -195 45l-135 -151l-176 155
zM502 510q50 -53 121 -53q76 0 125 52t49 146q0 95 -48 145q-49 48 -126 48q-74 0 -122 -49t-48 -144q0 -93 49 -145z" />
    <glyph glyph-name="yen" unicode="&#xa5;" horiz-adv-x="1406" 
d="M936 848h209v-207h-305v-139h305v-209h-305v-293h-277v293h-299v209h299v139h-299v207h203l-371 649h332l129 -264q16 -32 73 -149q29 -63 46 -97q11 -28 29 -63q17 53 151 323l125 250h330z" />
    <glyph glyph-name="brokenbar" unicode="&#xa6;" horiz-adv-x="606" 
d="M139 1528h285v-746h-285v746zM139 473h285v-743h-285v743z" />
    <glyph glyph-name="section" unicode="&#xa7;" horiz-adv-x="946" 
d="M850 283q0 -145 -108 -231q-110 -87 -281 -87q-167 0 -262 81t-99 210l230 55q2 -57 38 -86q34 -30 93 -30q55 0 86 24q31 22 31 64q0 39 -29 59q-28 19 -82 33l-121 31q-268 63 -268 276q0 86 47 151q45 63 119 89q-94 40 -130 105q-36 63 -36 142q0 151 107 240
q106 88 274 88q164 0 263 -81t103 -208l-227 -57q2 56 -35 88q-37 33 -96 33q-54 0 -86 -25q-33 -25 -33 -67q0 -39 29 -59q27 -20 82 -34l129 -30q131 -29 197 -108q65 -80 65 -175q0 -78 -43 -142q-44 -66 -119 -95q162 -72 162 -254zM531 669q26 23 26 62t-27 64
q-29 24 -73 24q-45 0 -72 -24q-27 -25 -27 -64q0 -40 28 -62q28 -24 75 -24q43 0 70 24z" />
    <glyph glyph-name="dieresis" unicode="&#xa8;" horiz-adv-x="980" 
d="M158 1437q-45 47 -45 113q0 70 45 114q46 44 116 44q72 0 116 -45q44 -46 44 -113t-44 -113q-43 -46 -116 -46q-71 0 -116 46zM602 1437q-45 47 -45 113q0 70 45 114q46 44 117 44q73 0 116 -45q44 -46 44 -113t-44 -113q-43 -46 -116 -46q-72 0 -117 46z" />
    <glyph glyph-name="copyright" unicode="&#xa9;" horiz-adv-x="1675" 
d="M449 69q-177 104 -279 283q-102 180 -102 398q0 216 102 395t279 282q175 103 389 103q216 0 391 -102q177 -104 278 -281q101 -179 101 -395q0 -218 -101 -399q-101 -180 -278 -284q-174 -104 -391 -104q-215 0 -389 104zM1148 207q136 79 213 222t77 323q0 177 -77 319
q-76 140 -213 220q-136 79 -310 79q-175 0 -311 -79q-138 -79 -214 -220q-77 -142 -77 -321t77 -322q77 -142 213 -222q136 -79 312 -79q173 0 310 80zM649 376q-87 55 -136 154q-48 97 -48 220t49 220t137 152q89 54 201 54q135 0 231 -75q96 -76 121 -198l-176 -51
q-8 74 -56 119t-120 45q-97 0 -149 -76q-54 -76 -54 -190q0 -119 54 -194q52 -75 149 -75q71 0 120 44t56 120l180 -29q-19 -131 -118 -215q-98 -82 -238 -82q-114 0 -203 57z" />
    <glyph glyph-name="ordfeminine" unicode="&#xaa;" horiz-adv-x="679" 
d="M529 1477q65 -67 65 -179v-397h-156v74q-26 -41 -72 -65q-46 -25 -108 -25q-83 0 -139 50t-56 138q0 89 60 145q58 54 160 54h94q55 0 55 51q0 41 -28 62q-29 20 -76 20t-80 -24q-32 -25 -37 -66l-129 39q13 89 84 139q70 49 172 49q124 0 191 -65zM432 1153h-119
q-82 0 -82 -66q0 -63 80 -63q56 0 88 31q33 30 33 75v23z" />
    <glyph glyph-name="guillemotleft" unicode="&#xab;" horiz-adv-x="1388" 
d="M432 537l342 -480h-336l-344 480l344 475h336zM971 537l342 -480h-332l-344 480l344 475h332z" />
    <glyph glyph-name="logicalnot" unicode="&#xac;" horiz-adv-x="1226" 
d="M1083 233h-264v297h-696v254h960v-551z" />
    <glyph glyph-name="registered" unicode="&#xae;" horiz-adv-x="1323" 
d="M374 503q-126 71 -195 195q-70 124 -70 285q0 159 70 283q70 126 195 196t292 70q163 0 287 -70q122 -69 194 -196q70 -124 70 -283q0 -161 -69 -285t-194 -195t-288 -71q-165 0 -292 71zM947 699q106 106 106 282q0 118 -49 207t-137 139q-86 49 -201 49
q-177 0 -287 -108q-109 -109 -109 -287t109 -283q107 -106 287 -106q174 0 281 107zM469 1251h233q76 0 128 -46q51 -47 51 -122q0 -52 -26 -92q-25 -38 -67 -57l105 -197h-158l-86 178h-39v-178h-141v514zM672 1014q35 0 52.5 15t16.5 44q0 31 -16 44t-53 13h-62v-116h62z
" />
    <glyph glyph-name="macron" unicode="&#xaf;" horiz-adv-x="835" 
d="M731 1665v-205h-627v205h627z" />
    <glyph glyph-name="degree" unicode="&#xb0;" horiz-adv-x="737" 
d="M157 1014q-83 83 -83 217q0 132 84 215q83 82 211 82q130 0 212 -82q83 -83 83 -215q0 -134 -83 -217q-82 -82 -212 -82t-212 82zM443 1155q28 28 28 76q0 47 -28 75q-28 27 -74 27q-44 0 -72 -28q-29 -29 -29 -74q0 -47 29 -76t74 -29q43 0 72 29z" />
    <glyph glyph-name="plusminus" unicode="&#xb1;" horiz-adv-x="1263" 
d="M1120 817v-215h-391v-289h-223v289h-391v215h391v289h223v-289h391zM115 215h1005v-215h-1005v215z" />
    <glyph glyph-name="uni00B2" unicode="&#xb2;" horiz-adv-x="905" 
d="M829 766v-229l-696 -5v199l359 375q48 53 64 90q17 40 17 78q0 63 -32 98q-33 35 -88 35q-65 0 -100 -39q-34 -38 -34 -102q0 -23 3 -35l-230 26q-4 29 -4 50q0 90 43 166q44 75 127 120q84 45 201 45q171 0 268 -97q98 -98 98 -261q0 -109 -38 -180q-39 -72 -113 -152
l-170 -182h325z" />
    <glyph glyph-name="uni00B3" unicode="&#xb3;" horiz-adv-x="866" 
d="M748 1113q65 -89 65 -216q0 -110 -50 -198q-49 -85 -142 -136q-92 -49 -213 -49q-161 0 -262 88q-103 88 -119 236l252 45q1 -57 42 -93q39 -36 97 -36q61 0 100 41t39 104q0 62 -40 102q-41 41 -105 41q-56 0 -101 -22l-73 194l165 166l-342 2v232h691v-201l-181 -188
q110 -22 177 -112z" />
    <glyph glyph-name="acute" unicode="&#xb4;" horiz-adv-x="487" 
d="M281 1722h260l-205 -313h-193z" />
    <glyph glyph-name="paragraph" unicode="&#xb6;" horiz-adv-x="1492" 
d="M1200 -201h-223v1561h-272v-1561h-222v926q-123 0 -218 53q-95 52 -147 150q-52 95 -52 223q0 126 52 221q52 96 147 150q95 53 218 53h860v-215h-143v-1561z" />
    <glyph glyph-name="periodcentered" unicode="&#xb7;" horiz-adv-x="561" 
d="M142 367q-58 57 -58 141q0 83 58 138q58 56 141 56q79 0 137 -56q57 -56 57 -138q0 -84 -57 -141q-58 -58 -137 -58q-84 0 -141 58z" />
    <glyph glyph-name="cedilla" unicode="&#xb8;" horiz-adv-x="618" 
d="M379 -14l-25 -86q90 2 145 -40q54 -42 54 -126q0 -80 -60 -129q-61 -49 -153 -49q-122 0 -181 51t-59 135h156q1 -22 19 -35q17 -12 40 -12q25 0 40 15q14 17 14 38q0 26 -18 39q-20 14 -50 14q-15 0 -29 -2l-65 37l57 176z" />
    <glyph glyph-name="uni00B9" unicode="&#xb9;" horiz-adv-x="694" 
d="M74 1413q248 0 268 201h233v-1082h-233v715h-268v166z" />
    <glyph glyph-name="ordmasculine" unicode="&#xba;" horiz-adv-x="698" 
d="M144 1455q75 87 204 87q133 0 208 -89t75 -239q0 -154 -77 -240q-76 -87 -206 -87q-132 0 -205 88q-75 89 -75 237q0 157 76 243zM267 1081q29 -47 81 -47q56 0 84 48q29 49 29 132q0 87 -31 133t-82 46t-80 -47q-30 -48 -30 -129q0 -89 29 -136z" />
    <glyph glyph-name="guillemotright" unicode="&#xbb;" horiz-adv-x="1388" 
d="M754 537l-342 -480h-338l344 480l-344 475h338zM1294 537l-342 -480h-336l345 480l-345 475h336z" />
    <glyph glyph-name="onequarter" unicode="&#xbc;" horiz-adv-x="1927" 
d="M1069 371l324 622h264l-338 -622h205v301h219v-301h135v-209h-135v-162h-219v162l-455 4v205zM543 -100h-193l914 1736h190zM528 1530v-993h-215v657h-243v152q230 0 243 184h215z" />
    <glyph glyph-name="onehalf" unicode="&#xbd;" horiz-adv-x="1972" 
d="M1917 215v-213l-639 -2v180l328 348q78 83 77 152q0 60 -31 92q-31 33 -83 33q-60 0 -91 -37q-32 -38 -32 -96q0 -17 2 -31l-209 25q-2 18 -2 43q0 81 39 152t116 113q76 42 181 42q157 0 249 -90q91 -90 91 -240q0 -99 -37 -166q-38 -69 -102 -137l-156 -168h299z
M563 -100h-192l913 1736h191zM557 1530v-993h-215v657h-244v152q229 0 244 184h215z" />
    <glyph glyph-name="threequarters" unicode="&#xbe;" horiz-adv-x="2131" 
d="M1272 371l323 622h265l-338 -622h204v301h220v-301h135v-209h-135v-162h-220v162l-454 4v205zM688 -100h-192l913 1736h190zM687 1071q59 -82 61 -199q0 -102 -48 -183q-46 -80 -133 -126q-86 -45 -196 -45q-146 0 -240 82q-95 82 -108 219l233 41q1 -52 38 -87
q35 -34 89 -34q55 0 91 37q36 38 36 98q0 57 -36 96q-36 38 -95 38q-25 0 -49 -7q-27 -6 -43 -16l-70 176l158 158l-320 2v209h635v-182l-166 -174q103 -21 163 -103z" />
    <glyph glyph-name="questiondown" unicode="&#xbf;" horiz-adv-x="1124" 
d="M715 1103q57 -61 57 -149q0 -87 -56 -145q-57 -57 -151 -57q-93 0 -148 57q-57 57 -57 145t57 149q55 60 148 60q91 0 150 -60zM715 616q0 -111 -42 -195q-41 -83 -141 -188q-61 -66 -91 -111q-29 -44 -29 -102q0 -70 40 -109q41 -38 107 -38q72 0 114 46q42 47 42 120
q0 47 -10 78l270 -35q6 -33 6 -68q0 -110 -52 -204q-53 -96 -151 -152q-100 -57 -235 -57q-125 0 -221 48q-97 48 -151 135t-54 200q0 99 43 182q44 84 139 190l29 33q60 69 85 112t25 107v23h277v-15z" />
    <glyph glyph-name="Agrave" unicode="&#xc0;" horiz-adv-x="1415" 
d="M602 1632l-215 314h275l149 -314h-209zM954 256h-499l-80 -256h-357l533 1497h313l531 -1497h-361zM870 528l-77 250q-29 95 -37 117q-42 133 -49 174q-5 -31 -43 -149l-46 -142l-77 -250h329z" />
    <glyph glyph-name="Aacute" unicode="&#xc1;" horiz-adv-x="1415" 
d="M750 1907h260l-205 -314h-193zM954 256h-499l-80 -256h-357l533 1497h313l531 -1497h-361zM870 528l-77 250q-29 95 -37 117q-42 133 -49 174q-5 -31 -43 -149l-46 -142l-77 -250h329z" />
    <glyph glyph-name="Acircumflex" unicode="&#xc2;" horiz-adv-x="1415" 
d="M791 1591l-82 170l-84 -170h-240l215 334h213l215 -334h-237zM954 256h-499l-80 -256h-357l533 1497h313l531 -1497h-361zM870 528l-77 250q-29 95 -37 117q-42 133 -49 174q-5 -31 -43 -149l-46 -142l-77 -250h329z" />
    <glyph glyph-name="Atilde" unicode="&#xc3;" horiz-adv-x="1415" 
d="M626 1927q42 -18 95 -45q74 -41 108 -41q61 0 62 66l-2 26h170q6 -39 6 -73q0 -105 -55 -164q-56 -60 -142 -60q-44 0 -87 17q-46 18 -89 43q-9 5 -23 12l-23 11.5t-16 7.5q-23 10 -46 10q-50 0 -52 -56q0 -20 7 -41h-170q-11 47 -13 93q0 94 52 152q51 57 135 57
q45 0 83 -15zM954 256h-499l-80 -256h-357l533 1497h313l531 -1497h-361zM870 528l-77 250q-29 95 -37 117q-42 133 -49 174q-5 -31 -43 -149l-46 -142l-77 -250h329z" />
    <glyph glyph-name="Adieresis" unicode="&#xc4;" horiz-adv-x="1415" 
d="M371 1660q-45 46 -45 114q0 70 45 114q44 43 116 43q73 0 116 -45q44 -46 44 -112q0 -67 -44 -114q-43 -46 -116 -46q-71 0 -116 46zM815 1660q-45 46 -45 114q0 70 45 114q44 43 117 43q72 0 116 -45q44 -46 44 -112q0 -67 -44 -114q-43 -46 -116 -46q-72 0 -117 46z
M954 256h-499l-80 -256h-357l533 1497h313l531 -1497h-361zM870 528l-77 250q-29 95 -37 117q-42 133 -49 174q-5 -31 -43 -149l-46 -142l-77 -250h329z" />
    <glyph glyph-name="Aring" unicode="&#xc5;" horiz-adv-x="1415" 
d="M954 256h-499l-80 -256h-357l533 1497h31q-68 31 -108 93q-40 61 -40 147q0 125 81 194q82 68 194 68t195 -68q81 -69 81 -194q0 -85 -41 -147q-40 -62 -108 -93h28l531 -1497h-361zM636 1811q-30 -29 -30 -76t30 -76q31 -29 73 -29q44 0 75 29q29 29 29 76t-29 76
q-29 28 -75 28q-44 0 -73 -28zM870 528l-77 250q-29 95 -37 117q-42 133 -49 174q-5 -31 -43 -149l-46 -142l-77 -250h329z" />
    <glyph glyph-name="AE" unicode="&#xc6;" horiz-adv-x="1835" 
d="M1227 1169v-290h481v-285h-481v-309h542v-285h-837v244h-430l-127 -244h-359l781 1454h972v-285h-542zM932 514v563l-291 -563h291z" />
    <glyph glyph-name="Ccedilla" unicode="&#xc7;" horiz-adv-x="1509" 
d="M1019 350q97 76 124 201l299 -111q-33 -140 -124 -244q-92 -106 -225 -165q-136 -61 -296 -62l-15 -51q90 2 145 -40q54 -42 54 -126q0 -80 -60 -129q-61 -49 -153 -49q-122 0 -181 51t-59 135h156q1 -22 19 -35q17 -12 40 -12q25 0 40 15q14 17 14 39q0 25 -18 39
q-20 14 -50 14q-15 0 -29 -2l-65 37l39 122q-182 26 -317 128q-138 102 -213 267q-76 164 -76 373q0 230 92 409q91 177 256 275q163 97 372 97q162 0 297 -58t229 -164q94 -107 128 -247l-299 -111q-27 124 -125 201q-97 76 -232 76q-115 0 -204 -59t-139 -167
q-50 -109 -50 -249q0 -138 50 -247t139 -167q90 -60 206 -60q134 0 231 76z" />
    <glyph glyph-name="Egrave" unicode="&#xc8;" horiz-adv-x="1052" 
d="M455 1632l-215 314h274l150 -314h-209zM131 1497h858v-287h-561v-319h500v-266h-500v-338h561v-287h-858v1497z" />
    <glyph glyph-name="Eacute" unicode="&#xc9;" horiz-adv-x="1052" 
d="M602 1907h260l-205 -314h-192zM131 1497h858v-287h-561v-319h500v-266h-500v-338h561v-287h-858v1497z" />
    <glyph glyph-name="Ecircumflex" unicode="&#xca;" horiz-adv-x="1052" 
d="M643 1591l-82 170l-84 -170h-239l215 334h213l215 -334h-238zM131 1497h858v-287h-561v-319h500v-266h-500v-338h561v-287h-858v1497z" />
    <glyph glyph-name="Edieresis" unicode="&#xcb;" horiz-adv-x="1052" 
d="M223 1660q-45 46 -45 114q0 70 45 114q44 43 117 43q72 0 116 -45q44 -46 44 -112q0 -67 -44 -114q-43 -46 -116 -46q-72 0 -117 46zM668 1660q-45 46 -45 114q0 70 45 114q44 43 116 43t116 -45q44 -46 44 -112q0 -67 -44 -114q-43 -46 -116 -46q-71 0 -116 46z
M131 1497h858v-287h-561v-319h500v-266h-500v-338h561v-287h-858v1497z" />
    <glyph glyph-name="Igrave" unicode="&#xcc;" horiz-adv-x="548" 
d="M170 1632l-215 314h274l150 -314h-209zM131 0v1497h289v-1497h-289z" />
    <glyph glyph-name="Iacute" unicode="&#xcd;" horiz-adv-x="548" 
d="M317 1907h261l-205 -314h-193zM131 0v1497h289v-1497h-289z" />
    <glyph glyph-name="Icircumflex" unicode="&#xce;" horiz-adv-x="548" 
d="M358 1591l-82 170l-83 -170h-240l215 334h213l215 -334h-238zM131 0v1497h289v-1497h-289z" />
    <glyph glyph-name="Idieresis" unicode="&#xcf;" horiz-adv-x="548" 
d="M-61 1660q-45 46 -45 114q0 70 45 114q44 43 116 43q73 0 116 -45q44 -46 44 -112q0 -67 -44 -114q-43 -46 -116 -46q-71 0 -116 46zM383 1660q-45 46 -45 114q0 70 45 114q44 43 117 43q72 0 116 -45q43 -44 43 -112q0 -67 -44 -114q-43 -46 -115 -46t-117 46zM131 0
v1497h289v-1497h-289z" />
    <glyph glyph-name="Eth" unicode="&#xd0;" horiz-adv-x="1386" 
d="M1015 1405q156 -91 237 -261q81 -169 81 -394q0 -236 -85 -405t-242 -257t-371 -88h-504v639h-131v246h131v612h504q222 0 380 -92zM911 413q105 126 105 337q0 217 -108 340q-110 122 -292 122h-186v-327h277v-246h-277v-352h186q189 0 295 126z" />
    <glyph glyph-name="Ntilde" unicode="&#xd1;" horiz-adv-x="1449" 
d="M644 1927q42 -18 95 -45q74 -41 109 -41q61 0 61 66l-2 26h170q6 -39 6 -73q0 -105 -55 -164q-56 -60 -141 -60q-44 0 -87 17q-46 18 -89 43q-9 5 -23 12l-23 11.5t-16 7.5q-23 10 -47 10q-51 0 -51 -56q0 -19 6 -41h-170q-12 50 -12 93q0 93 51 152q51 57 135 57
q45 0 83 -15zM131 1497h297l594 -991v991h297v-1497h-297l-594 989v-989h-297v1497z" />
    <glyph glyph-name="Ograve" unicode="&#xd2;" horiz-adv-x="1640" 
d="M713 1632l-215 314h274l150 -314h-209zM429 69q-172 101 -266 279q-95 179 -95 402q0 220 95 399q94 177 266 280q172 101 390 101t391 -101q172 -102 268 -280q95 -179 95 -399q0 -222 -96 -401q-99 -180 -268 -280q-171 -102 -390 -102t-390 102zM1040 332
q97 58 150 167q53 108 53 249q0 138 -54 248q-54 107 -150 169q-97 60 -220 60q-122 0 -220 -59q-97 -60 -151 -168q-55 -109 -55 -248q0 -142 55 -249q54 -108 151 -168q97 -61 220 -61t221 60z" />
    <glyph glyph-name="Oacute" unicode="&#xd3;" horiz-adv-x="1640" 
d="M860 1907h260l-205 -314h-192zM429 69q-172 101 -266 279q-95 179 -95 402q0 220 95 399q94 177 266 280q172 101 390 101t391 -101q172 -102 268 -280q95 -179 95 -399q0 -222 -96 -401q-99 -180 -268 -280q-171 -102 -390 -102t-390 102zM1040 332q97 58 150 167
q53 108 53 249q0 138 -54 248q-54 107 -150 169q-97 60 -220 60q-122 0 -220 -59q-97 -60 -151 -168q-55 -109 -55 -248q0 -142 55 -249q54 -108 151 -168q97 -61 220 -61t221 60z" />
    <glyph glyph-name="Ocircumflex" unicode="&#xd4;" horiz-adv-x="1640" 
d="M901 1591l-82 170l-84 -170h-239l215 334h213l215 -334h-238zM429 69q-172 101 -266 279q-95 179 -95 402q0 220 95 399q94 177 266 280q172 101 390 101t391 -101q172 -102 268 -280q95 -179 95 -399q0 -222 -96 -401q-99 -180 -268 -280q-171 -102 -390 -102t-390 102z
M1040 332q97 58 150 167q53 108 53 249q0 138 -54 248q-54 107 -150 169q-97 60 -220 60q-122 0 -220 -59q-97 -60 -151 -168q-55 -109 -55 -248q0 -142 55 -249q54 -108 151 -168q97 -61 220 -61t221 60z" />
    <glyph glyph-name="Otilde" unicode="&#xd5;" horiz-adv-x="1640" 
d="M736 1927q42 -18 95 -45q74 -41 109 -41q61 0 61 66l-2 26h170q5 -35 7 -73q0 -105 -55 -164q-55 -60 -142 -60q-44 0 -87 17q-46 18 -89 43q-9 5 -23 12l-23 11.5t-16 7.5q-23 10 -47 10q-51 0 -51 -56q0 -19 6 -41h-170q-12 50 -12 93q0 93 51 152q51 57 135 57
q45 0 83 -15zM429 69q-172 101 -266 279q-95 179 -95 402q0 220 95 399q94 177 266 280q172 101 390 101t391 -101q172 -102 268 -280q95 -179 95 -399q0 -222 -96 -401q-99 -180 -268 -280q-171 -102 -390 -102t-390 102zM1040 332q97 58 150 167q53 108 53 249
q0 138 -54 248q-54 107 -150 169q-97 60 -220 60q-122 0 -220 -59q-97 -60 -151 -168q-55 -109 -55 -248q0 -142 55 -249q54 -108 151 -168q97 -61 220 -61t221 60z" />
    <glyph glyph-name="Odieresis" unicode="&#xd6;" horiz-adv-x="1640" 
d="M481 1660q-45 46 -45 114q0 70 45 114q44 43 117 43q72 0 116 -45q44 -46 44 -112q0 -67 -44 -114q-43 -46 -116 -46q-72 0 -117 46zM926 1660q-45 46 -45 114q0 70 45 114q44 43 116 43t116 -45q44 -46 44 -112q0 -67 -44 -114q-43 -46 -116 -46q-71 0 -116 46zM429 69
q-172 101 -266 279q-95 179 -95 402q0 220 95 399q94 177 266 280q172 101 390 101t391 -101q172 -102 268 -280q95 -179 95 -399q0 -222 -96 -401q-99 -180 -268 -280q-171 -102 -390 -102t-390 102zM1040 332q97 58 150 167q53 108 53 249q0 138 -54 248q-54 107 -150 169
q-97 60 -220 60q-122 0 -220 -59q-97 -60 -151 -168q-55 -109 -55 -248q0 -142 55 -249q54 -108 151 -168q97 -61 220 -61t221 60z" />
    <glyph glyph-name="multiply" unicode="&#xd7;" horiz-adv-x="1267" 
d="M776 594l279 -277l-162 -157l-277 276l-282 -282l-156 157l281 283l-275 274l160 158l274 -274l281 282l160 -157z" />
    <glyph glyph-name="Oslash" unicode="&#xd8;" horiz-adv-x="1640" 
d="M1518 1059q55 -143 55 -309q0 -222 -96 -401q-99 -180 -268 -280q-171 -102 -390 -102q-195 0 -346 78l-45 -63h-293l144 204q-99 105 -155 251q-56 147 -56 313q0 220 95 399q94 177 266 280q172 101 390 101q188 0 350 -80l45 63h291l-143 -204q100 -106 156 -250z
M471 459l516 733q-83 33 -168 33q-122 0 -220 -59q-97 -60 -151 -168q-55 -109 -55 -248q0 -168 78 -291zM1040 332q97 58 150 167q53 108 53 249q0 167 -76 286l-512 -731q72 -31 164 -31q123 0 221 60z" />
    <glyph glyph-name="Ugrave" unicode="&#xd9;" horiz-adv-x="1370" 
d="M584 1632l-215 314h274l150 -314h-209zM111 1497h299v-903q0 -158 75 -246q73 -88 201 -88q132 0 205 90q74 91 74 244v903h297v-938q0 -173 -72 -307t-202 -207q-131 -74 -302 -74t-302 74q-130 73 -201 207q-72 134 -72 307v938z" />
    <glyph glyph-name="Uacute" unicode="&#xda;" horiz-adv-x="1370" 
d="M731 1907h260l-205 -314h-192zM111 1497h299v-903q0 -158 75 -246q73 -88 201 -88q132 0 205 90q74 91 74 244v903h297v-938q0 -173 -72 -307t-202 -207q-131 -74 -302 -74t-302 74q-130 73 -201 207q-72 134 -72 307v938z" />
    <glyph glyph-name="Ucircumflex" unicode="&#xdb;" horiz-adv-x="1370" 
d="M772 1591l-82 170l-84 -170h-239l215 334h213l215 -334h-238zM111 1497h299v-903q0 -158 75 -246q73 -88 201 -88q132 0 205 90q74 91 74 244v903h297v-938q0 -173 -72 -307t-202 -207q-131 -74 -302 -74t-302 74q-130 73 -201 207q-72 134 -72 307v938z" />
    <glyph glyph-name="Udieresis" unicode="&#xdc;" horiz-adv-x="1370" 
d="M352 1660q-45 46 -45 114q0 70 45 114q44 43 117 43t116 -45q44 -46 44 -112q0 -67 -44 -114q-43 -46 -116 -46q-72 0 -117 46zM797 1660q-45 46 -45 114q0 70 45 114q44 43 116 43q73 0 116 -45q44 -46 44 -112q0 -67 -44 -114q-43 -46 -116 -46q-71 0 -116 46z
M111 1497h299v-903q0 -158 75 -246q73 -88 201 -88q132 0 205 90q74 91 74 244v903h297v-938q0 -173 -72 -307t-202 -207q-131 -74 -302 -74t-302 74q-130 73 -201 207q-72 134 -72 307v938z" />
    <glyph glyph-name="Yacute" unicode="&#xdd;" horiz-adv-x="1378" 
d="M731 1907h260l-205 -314h-192zM358 1497l330 -584l332 584h346l-532 -901v-596h-291v596l-531 901h346z" />
    <glyph glyph-name="Thorn" unicode="&#xde;" horiz-adv-x="1304" 
d="M1002 1203q115 -65 177 -179q62 -116 62 -264q0 -147 -62 -263q-63 -115 -177 -180q-116 -65 -271 -65h-303v-252h-297v1528h297v-262h305q153 0 269 -63zM878 593q58 64 58 163q0 103 -56 164q-57 59 -169 59h-283v-451h281q110 0 169 65z" />
    <glyph glyph-name="germandbls" unicode="&#xdf;" horiz-adv-x="1228" 
d="M1076 644q75 -105 75 -255q0 -129 -57 -224q-59 -96 -158 -146q-100 -52 -225 -52q-91 0 -162 25q-74 28 -111 65l121 185q46 -35 117 -35q84 0 134 56t50 151q0 105 -71 167q-72 60 -191 60h-98v215q107 0 172 55q65 54 65 142q0 76 -47 123t-121 47q-84 0 -128 -51
q-44 -53 -44 -144v-1028h-288v963q0 182 69 293q67 109 173 156q102 46 218 46q131 0 236 -47q102 -47 159 -132q56 -86 56 -198q0 -105 -42 -176t-101 -110q123 -46 199 -151z" />
    <glyph glyph-name="agrave" unicode="&#xe0;" horiz-adv-x="1075" 
d="M428 1147l-215 313h274l150 -313h-209zM868 945q109 -103 109 -300v-645h-254l-16 113q-40 -69 -121 -109q-80 -39 -180 -39q-149 0 -244 86q-94 85 -94 230q0 147 100 237t264 90h146q58 0 87 24q27 22 27 64q0 51 -40 82t-107 31q-78 0 -132 -39q-54 -38 -65 -104
l-246 61q26 152 148 236q123 84 307 84q201 0 311 -102zM690 410h-198q-66 0 -101 -27t-35 -76q0 -51 39 -79q40 -29 109 -29q86 0 136 48t50 128v35z" />
    <glyph glyph-name="aacute" unicode="&#xe1;" horiz-adv-x="1075" 
d="M575 1421h261l-205 -313h-193zM868 945q109 -103 109 -300v-645h-254l-16 113q-40 -69 -121 -109q-80 -39 -180 -39q-149 0 -244 86q-94 85 -94 230q0 147 100 237t264 90h146q58 0 87 24q27 22 27 64q0 51 -40 82t-107 31q-78 0 -132 -39q-54 -38 -65 -104l-246 61
q26 152 148 236q123 84 307 84q201 0 311 -102zM690 410h-198q-66 0 -101 -27t-35 -76q0 -51 39 -79q40 -29 109 -29q86 0 136 48t50 128v35z" />
    <glyph glyph-name="acircumflex" unicode="&#xe2;" horiz-adv-x="1075" 
d="M616 1106l-81 170l-84 -170h-240l215 334h213l215 -334h-238zM868 945q109 -103 109 -300v-645h-254l-16 113q-40 -69 -121 -109q-80 -39 -180 -39q-149 0 -244 86q-94 85 -94 230q0 147 100 237t264 90h146q58 0 87 24q27 22 27 64q0 51 -40 82t-107 31q-78 0 -132 -39
q-54 -38 -65 -104l-246 61q26 152 148 236q123 84 307 84q201 0 311 -102zM690 410h-198q-66 0 -101 -27t-35 -76q0 -51 39 -79q40 -29 109 -29q86 0 136 48t50 128v35z" />
    <glyph glyph-name="atilde" unicode="&#xe3;" horiz-adv-x="1075" 
d="M452 1441q48 -21 95 -44q74 -41 108 -41q60 0 62 65l-2 27h170q6 -39 6 -74q0 -105 -55 -163q-56 -60 -142 -60q-44 0 -87 17q-44 17 -89 42q-9 5 -23 12l-23 11.5t-16 7.5q-23 10 -46 10q-51 0 -52 -55q0 -20 7 -41h-170q-11 47 -13 92q0 94 52 152q51 57 135 57
q45 0 83 -15zM868 945q109 -103 109 -300v-645h-254l-16 113q-40 -69 -121 -109q-80 -39 -180 -39q-149 0 -244 86q-94 85 -94 230q0 147 100 237t264 90h146q58 0 87 24q27 22 27 64q0 51 -40 82t-107 31q-78 0 -132 -39q-54 -38 -65 -104l-246 61q26 152 148 236
q123 84 307 84q201 0 311 -102zM690 410h-198q-66 0 -101 -27t-35 -76q0 -51 39 -79q40 -29 109 -29q86 0 136 48t50 128v35z" />
    <glyph glyph-name="adieresis" unicode="&#xe4;" horiz-adv-x="1075" 
d="M197 1175q-45 47 -45 113q0 70 45 114q46 44 116 44q73 0 116 -45q44 -46 44 -113t-44 -114q-43 -46 -116 -46q-71 0 -116 47zM641 1175q-45 47 -45 113q0 70 45 114q46 44 117 44q72 0 116 -45q44 -46 44 -113t-44 -114q-45 -46 -116 -46q-72 0 -117 47zM868 945
q109 -103 109 -300v-645h-254l-16 113q-40 -69 -121 -109q-80 -39 -180 -39q-149 0 -244 86q-94 85 -94 230q0 147 100 237t264 90h146q58 0 87 24q27 22 27 64q0 51 -40 82t-107 31q-78 0 -132 -39q-54 -38 -65 -104l-246 61q26 152 148 236q123 84 307 84q201 0 311 -102z
M690 410h-198q-66 0 -101 -27t-35 -76q0 -51 39 -79q40 -29 109 -29q86 0 136 48t50 128v35z" />
    <glyph glyph-name="aring" unicode="&#xe5;" horiz-adv-x="1085" 
d="M924 874q53 -92 53 -229v-645h-254l-16 113q-40 -69 -121 -109q-80 -39 -180 -39q-149 0 -244 86q-94 85 -94 230q0 147 100 237t264 90h146q58 0 87 24q27 22 27 64q0 51 -40 82t-107 31q-78 0 -132 -39q-54 -38 -65 -104l-246 61q17 101 76 171q61 71 156 110
q-59 71 -60 172q0 125 81 194q82 68 194 68t195 -68q81 -69 81 -194q0 -100 -57 -172q103 -44 156 -134zM476 1254q-30 -28 -30 -76t30 -76q31 -29 73 -29q44 0 75 29q29 29 29 76t-29 76q-29 28 -75 28q-44 0 -73 -28zM690 410h-198q-66 0 -101 -27t-35 -76q0 -51 39 -79
q40 -29 109 -29q86 0 136 48t50 128v35z" />
    <glyph glyph-name="ae" unicode="&#xe6;" horiz-adv-x="1646" 
d="M1579 401h-627q5 -87 58 -137q52 -51 141 -51q69 0 125 35q54 33 80 100l221 -82q-39 -137 -155 -214q-118 -77 -279 -77q-125 0 -218 46q-95 45 -157 126q-50 -86 -143 -129t-205 -43q-146 0 -247 78t-101 236q0 129 89 216t259 87h143q80 0 80 76q0 55 -41 85
q-41 29 -108 29q-69 0 -116 -35q-46 -36 -54 -96l-222 66q25 140 135 220q109 79 275 79q204 0 311 -111q123 111 314 111q209 0 326 -129q116 -130 116 -346v-140zM1004 733q-46 -45 -52 -121h334q0 76 -42 121t-120 45q-75 0 -120 -45zM643 385h-170q-113 0 -113 -84
t113 -84q80 0 125 39t45 100v29z" />
    <glyph glyph-name="ccedilla" unicode="&#xe7;" horiz-adv-x="1128" 
d="M898 55q-125 -83 -286 -88l-10 -33q90 2 145 -40q54 -40 54 -125q0 -81 -60 -130q-61 -49 -153 -49q-122 0 -181 51q-59 53 -59 136h156q1 -22 19 -35q17 -12 40 -12q25 0 39 15q14 16 14 38q0 25 -18 39q-19 14 -49 14q-15 0 -29 -2l-65 37l34 106q-121 22 -214 96
q-92 71 -145 185q-52 111 -52 248q0 155 68 280q68 123 187 192q120 69 269 69q171 0 296 -86q123 -86 167 -226l-244 -108q-23 68 -83 110q-61 41 -138 41q-102 0 -164 -72q-63 -74 -63 -200q0 -122 60 -196q59 -74 165 -74q78 0 140 41q61 40 85 110l248 -108
q-47 -140 -173 -224z" />
    <glyph glyph-name="egrave" unicode="&#xe8;" horiz-adv-x="1142" 
d="M467 1149l-215 313h274l150 -313h-209zM740 249q67 40 94 103l229 -88q-40 -134 -172 -217q-130 -82 -303 -82q-152 0 -267 66q-116 65 -179 188q-64 122 -64 285q0 162 63 285q62 123 177 190q115 68 262 68q144 0 254 -61q110 -62 171 -174q60 -113 60 -257
q0 -70 -14 -137h-693q1 -94 66 -151q62 -58 164 -58q85 0 152 40zM430 757q-60 -49 -70 -126h412q-6 81 -58 127q-53 47 -136 47q-90 0 -148 -48z" />
    <glyph glyph-name="eacute" unicode="&#xe9;" horiz-adv-x="1142" 
d="M614 1423h260l-204 -313h-193zM740 249q67 40 94 103l229 -88q-40 -134 -172 -217q-130 -82 -303 -82q-152 0 -267 66q-116 65 -179 188q-64 122 -64 285q0 162 63 285q62 123 177 190q115 68 262 68q144 0 254 -61q110 -62 171 -174q60 -113 60 -257q0 -70 -14 -137
h-693q1 -94 66 -151q62 -58 164 -58q85 0 152 40zM430 757q-60 -49 -70 -126h412q-6 81 -58 127q-53 47 -136 47q-90 0 -148 -48z" />
    <glyph glyph-name="ecircumflex" unicode="&#xea;" horiz-adv-x="1142" 
d="M655 1108l-82 170l-84 -170h-239l215 334h213l215 -334h-238zM740 249q67 40 94 103l229 -88q-40 -134 -172 -217q-130 -82 -303 -82q-152 0 -267 66q-116 65 -179 188q-64 122 -64 285q0 162 63 285q62 123 177 190q115 68 262 68q144 0 254 -61q110 -62 171 -174
q60 -113 60 -257q0 -70 -14 -137h-693q1 -94 66 -151q62 -58 164 -58q85 0 152 40zM430 757q-60 -49 -70 -126h412q-6 81 -58 127q-53 47 -136 47q-90 0 -148 -48z" />
    <glyph glyph-name="edieresis" unicode="&#xeb;" horiz-adv-x="1142" 
d="M236 1177q-46 46 -46 113q0 71 46 114q46 44 116 44q72 0 116 -45q44 -46 44 -113t-44 -114q-43 -46 -116 -46q-71 0 -116 47zM680 1177q-45 47 -45 113q0 70 45 114q46 44 117 44q73 0 116 -45q43 -44 43 -113q0 -67 -44 -114q-43 -46 -115 -46t-117 47zM740 249
q67 40 94 103l229 -88q-40 -134 -172 -217q-130 -82 -303 -82q-152 0 -267 66q-116 65 -179 188q-64 122 -64 285q0 162 63 285q62 123 177 190q115 68 262 68q144 0 254 -61q110 -62 171 -174q60 -113 60 -257q0 -70 -14 -137h-693q1 -94 66 -151q62 -58 164 -58
q85 0 152 40zM430 757q-60 -49 -70 -126h412q-6 81 -58 127q-53 47 -136 47q-90 0 -148 -48z" />
    <glyph glyph-name="igrave" unicode="&#xec;" horiz-adv-x="536" 
d="M164 1147l-215 313h274l150 -313h-209zM410 1012v-1012h-283v1012h283z" />
    <glyph glyph-name="iacute" unicode="&#xed;" horiz-adv-x="536" 
d="M311 1421h260l-204 -313h-193zM410 1012v-1012h-283v1012h283z" />
    <glyph glyph-name="icircumflex" unicode="&#xee;" horiz-adv-x="536" 
d="M352 1106l-82 170l-84 -170h-239l215 334h213l215 -334h-238zM410 1012v-1012h-283v1012h283z" />
    <glyph glyph-name="idieresis" unicode="&#xef;" horiz-adv-x="536" 
d="M-68 1175q-45 47 -45 113q0 70 45 114q46 44 117 44q73 0 116 -45q44 -46 44 -113t-44 -114q-43 -46 -116 -46q-72 0 -117 47zM377 1175q-45 47 -45 113q0 70 45 114q46 44 117 44q72 0 116 -45q43 -44 43 -113q0 -67 -44 -114q-43 -46 -115 -46t-117 47zM410 1012v-1012
h-283v1012h283z" />
    <glyph glyph-name="eth" unicode="&#xf0;" horiz-adv-x="1140" 
d="M990 750q38 -105 38 -244q0 -253 -124 -392q-124 -141 -333 -141q-217 0 -337 143q-121 142 -121 386q0 167 55 287q56 121 157 182q100 61 232 55l-90 141l-287 -116v188l193 78l-123 194h299l61 -98l232 94v-188l-140 -57l158 -256q95 -160 130 -256zM693 304
q42 73 42 200q0 134 -44 205q-43 69 -120 69q-83 0 -123 -72q-42 -74 -42 -198q0 -136 44 -207q43 -70 121 -70q80 0 122 73z" />
    <glyph glyph-name="ntilde" unicode="&#xf1;" horiz-adv-x="1116" 
d="M495 1451q26 -10 95 -44q74 -41 108 -41q60 0 62 66l-2 26h170q6 -39 6 -74q0 -105 -55 -163q-55 -60 -142 -60q-44 0 -87 17q-46 18 -89 43q-9 5 -23 12l-23 11.5t-16 7.5q-23 10 -46 10q-50 0 -52 -56q0 -20 7 -41h-170q-11 47 -13 92q0 94 52 152q51 57 135 57
q46 0 83 -15zM924 937q94 -109 94 -292v-645h-291v588q0 94 -42 142t-114 48q-86 0 -129 -52t-43 -142v-584h-290v1012h260l10 -101q44 68 118 102q72 34 162 34q170 0 265 -110z" />
    <glyph glyph-name="ograve" unicode="&#xf2;" horiz-adv-x="1202" 
d="M481 1149l-215 313h275l149 -313h-209zM139 787q71 122 192 191t273 69t273 -69q120 -69 189 -192q69 -124 69 -280t-69 -280q-69 -125 -190 -192q-122 -69 -274 -69q-150 0 -271 69q-121 67 -192 191t-71 281t71 281zM436 306q62 -75 164 -75t166 75q63 75 63 200
q0 124 -63 201q-64 75 -166 75t-164 -75q-63 -77 -63 -203q0 -123 63 -198z" />
    <glyph glyph-name="oacute" unicode="&#xf3;" horiz-adv-x="1202" 
d="M629 1423h260l-205 -313h-192zM139 787q71 122 192 191t273 69t273 -69q120 -69 189 -192q69 -124 69 -280t-69 -280q-69 -125 -190 -192q-122 -69 -274 -69q-150 0 -271 69q-121 67 -192 191t-71 281t71 281zM436 306q62 -75 164 -75t166 75q63 75 63 200q0 124 -63 201
q-64 75 -166 75t-164 -75q-63 -77 -63 -203q0 -123 63 -198z" />
    <glyph glyph-name="ocircumflex" unicode="&#xf4;" horiz-adv-x="1202" 
d="M670 1108l-82 170l-84 -170h-240l215 334h213l215 -334h-237zM139 787q71 122 192 191t273 69t273 -69q120 -69 189 -192q69 -124 69 -280t-69 -280q-69 -125 -190 -192q-122 -69 -274 -69q-150 0 -271 69q-121 67 -192 191t-71 281t71 281zM436 306q62 -75 164 -75
t166 75q63 75 63 200q0 124 -63 201q-64 75 -166 75t-164 -75q-63 -77 -63 -203q0 -123 63 -198z" />
    <glyph glyph-name="otilde" unicode="&#xf5;" horiz-adv-x="1202" 
d="M505 1443q58 -26 95 -44q74 -41 109 -41q61 0 61 65l-2 27h170q6 -39 6 -74q0 -105 -55 -163q-55 -60 -141 -60q-44 0 -87 17q-43 16 -90 42l-62 31q-23 10 -46 10q-51 0 -51 -55q0 -18 6 -41h-170q-12 49 -12 92q0 93 51 152q51 57 135 57q46 0 83 -15zM139 787
q71 122 192 191t273 69t273 -69q120 -69 189 -192q69 -124 69 -280t-69 -280q-69 -125 -190 -192q-122 -69 -274 -69q-150 0 -271 69q-121 67 -192 191t-71 281t71 281zM436 306q62 -75 164 -75t166 75q63 75 63 200q0 124 -63 201q-64 75 -166 75t-164 -75
q-63 -77 -63 -203q0 -123 63 -198z" />
    <glyph glyph-name="odieresis" unicode="&#xf6;" horiz-adv-x="1202" 
d="M250 1177q-45 47 -45 113q0 70 45 114q46 44 117 44q73 0 116 -45q43 -44 43 -113q0 -67 -44 -114q-43 -46 -115 -46t-117 47zM694 1177q-45 47 -45 113q0 70 45 114q46 44 117 44q73 0 116 -45q44 -46 44 -113t-44 -114q-43 -46 -116 -46q-72 0 -117 47zM139 787
q71 122 192 191t273 69t273 -69q120 -69 189 -192q69 -124 69 -280t-69 -280q-69 -125 -190 -192q-122 -69 -274 -69q-150 0 -271 69q-121 67 -192 191t-71 281t71 281zM436 306q62 -75 164 -75t166 75q63 75 63 200q0 124 -63 201q-64 75 -166 75t-164 -75
q-63 -77 -63 -203q0 -123 63 -198z" />
    <glyph glyph-name="divide" unicode="&#xf7;" horiz-adv-x="1171" 
d="M473 852q-47 47 -47 115q0 62 47 109q46 46 113 46t113 -46t46 -109q0 -68 -47 -115t-112 -47q-66 0 -113 47zM1044 713v-240h-917v240h917zM474 115q-48 47 -48 110q0 67 47 114q46 46 113 46t113 -46t46 -114q0 -64 -48 -110q-49 -47 -111 -47q-63 0 -112 47z" />
    <glyph glyph-name="oslash" unicode="&#xf8;" horiz-adv-x="1202" 
d="M1094 727q41 -103 41 -221q0 -156 -69 -280q-69 -125 -190 -192q-122 -69 -274 -69q-136 0 -246 55l-39 -57h-211l111 158q-73 73 -110 171q-39 99 -39 214q0 157 71 281q71 122 192 191t273 69q126 0 232 -48l47 66h209l-115 -162q76 -73 117 -176zM395 373l281 397
q-38 12 -76 12q-102 0 -164 -75q-63 -77 -63 -203q-1 -67 22 -131zM766 306q63 75 63 200q0 83 -28 145l-285 -405q46 -14 84 -15q102 0 166 75z" />
    <glyph glyph-name="ugrave" unicode="&#xf9;" horiz-adv-x="1101" 
d="M440 1147l-215 313h275l149 -313h-209zM993 1012v-1012h-272v106q-33 -66 -109 -103q-75 -38 -174 -38q-158 0 -249 103q-91 101 -91 272v672h291v-588q0 -180 150 -180q80 0 122 48q41 49 41 136v584h291z" />
    <glyph glyph-name="uacute" unicode="&#xfa;" horiz-adv-x="1101" 
d="M588 1421h260l-205 -313h-192zM993 1012v-1012h-272v106q-33 -66 -109 -103q-75 -38 -174 -38q-158 0 -249 103q-91 101 -91 272v672h291v-588q0 -180 150 -180q80 0 122 48q41 49 41 136v584h291z" />
    <glyph glyph-name="ucircumflex" unicode="&#xfb;" horiz-adv-x="1101" 
d="M629 1106l-82 170l-84 -170h-240l215 334h213l215 -334h-237zM993 1012v-1012h-272v106q-33 -66 -109 -103q-75 -38 -174 -38q-158 0 -249 103q-91 101 -91 272v672h291v-588q0 -180 150 -180q80 0 122 48q41 49 41 136v584h291z" />
    <glyph glyph-name="udieresis" unicode="&#xfc;" horiz-adv-x="1101" 
d="M209 1175q-45 47 -45 113q0 70 45 114q46 44 117 44q72 0 116 -45q43 -44 43 -113q0 -67 -44 -114q-43 -46 -115 -46t-117 47zM653 1175q-45 47 -45 113q0 70 45 114q46 44 117 44q72 0 116 -45q44 -46 44 -113t-44 -114q-43 -46 -116 -46q-72 0 -117 47zM993 1012v-1012
h-272v106q-33 -66 -109 -103q-75 -38 -174 -38q-158 0 -249 103q-91 101 -91 272v672h291v-588q0 -180 150 -180q80 0 122 48q41 49 41 136v584h291z" />
    <glyph glyph-name="yacute" unicode="&#xfd;" horiz-adv-x="1130" 
d="M612 1421h260l-204 -313h-193zM1116 1012l-612 -1442h-309l204 481l-387 961h314l219 -619l262 619h309z" />
    <glyph glyph-name="thorn" unicode="&#xfe;" horiz-adv-x="1189" 
d="M995 901q117 -147 117 -395q0 -167 -56 -291q-57 -123 -157 -186q-100 -64 -231 -64q-90 0 -160 30t-109 87v-512h-290v1958h290v-590q46 52 114 80q70 29 157 29q206 0 325 -146zM761 290q50 80 50 218q0 146 -54 220q-55 73 -153 73q-102 0 -153 -77q-52 -76 -52 -216
q0 -146 56 -222q55 -75 153 -75q104 0 153 79z" />
    <glyph glyph-name="ydieresis" unicode="&#xff;" horiz-adv-x="1130" 
d="M234 1175q-46 46 -46 113q0 71 46 114q46 44 116 44q72 0 116 -45q44 -46 44 -113t-44 -114q-43 -46 -116 -46q-71 0 -116 47zM678 1175q-45 47 -45 113q0 70 45 114q46 44 117 44q73 0 116 -45q43 -44 43 -113q0 -67 -44 -114q-43 -46 -115 -46t-117 47zM1116 1012
l-612 -1442h-309l204 481l-387 961h314l219 -619l262 619h309z" />
    <glyph glyph-name="Amacron" unicode="&#x100;" horiz-adv-x="1415" 
d="M1022 1835v-205h-627v205h627zM954 256h-499l-80 -256h-357l533 1497h313l531 -1497h-361zM870 528l-77 250q-29 95 -37 117q-42 133 -49 174q-5 -31 -43 -149l-46 -142l-77 -250h329z" />
    <glyph glyph-name="amacron" unicode="&#x101;" horiz-adv-x="1075" 
d="M848 1350v-205h-627v205h627zM868 945q109 -103 109 -300v-645h-254l-16 113q-40 -69 -121 -109q-80 -39 -180 -39q-149 0 -244 86q-94 85 -94 230q0 147 100 237t264 90h146q58 0 87 24q27 22 27 64q0 51 -40 82t-107 31q-78 0 -132 -39q-54 -38 -65 -104l-246 61
q26 152 148 236q123 84 307 84q201 0 311 -102zM690 410h-198q-66 0 -101 -27t-35 -76q0 -51 39 -79q40 -29 109 -29q86 0 136 48t50 128v35z" />
    <glyph glyph-name="Abreve" unicode="&#x102;" horiz-adv-x="1415" 
d="M1026 1925q4 -160 -83 -243q-88 -83 -234 -83q-147 0 -233 83q-87 83 -83 243h199q-4 -135 117 -135q58 0 90 35q30 34 28 100h199zM954 256h-499l-80 -256h-357l533 1497h313l531 -1497h-361zM870 528l-77 250q-29 95 -37 117q-42 133 -49 174q-5 -31 -43 -149l-46 -142
l-77 -250h329z" />
    <glyph glyph-name="abreve" unicode="&#x103;" horiz-adv-x="1075" 
d="M852 1440q4 -160 -83 -243q-88 -83 -234 -83q-147 0 -233 83q-87 83 -83 243h199q-4 -135 117 -135q58 0 90 35q30 34 28 100h199zM868 945q109 -103 109 -300v-645h-254l-16 113q-40 -69 -121 -109q-80 -39 -180 -39q-149 0 -244 86q-94 85 -94 230q0 147 100 237
t264 90h146q58 0 87 24q27 22 27 64q0 51 -40 82t-107 31q-78 0 -132 -39q-54 -38 -65 -104l-246 61q26 152 148 236q123 84 307 84q201 0 311 -102zM690 410h-198q-66 0 -101 -27t-35 -76q0 -51 39 -79q40 -29 109 -29q86 0 136 48t50 128v35z" />
    <glyph glyph-name="Aogonek" unicode="&#x104;" horiz-adv-x="1415" 
d="M1244 -192q16 -15 59 -15q36 0 71 19v-195q-64 -35 -149 -35q-95 0 -160 50q-64 51 -64 135q0 71 43 130q43 60 134 103h-144l-80 256h-499l-80 -256h-357l533 1497h313l531 -1497q-82 -33 -124 -70q-44 -39 -44 -73q0 -32 17 -49zM870 528l-77 250q-29 95 -37 117
q-42 133 -49 174q-5 -31 -43 -149l-46 -142l-77 -250h329z" />
    <glyph glyph-name="aogonek" unicode="&#x105;" horiz-adv-x="1075" 
d="M853 -70q-44 -39 -44 -73q0 -32 17 -49q16 -15 59 -15q36 0 71 19v-195q-64 -35 -149 -35q-95 0 -159 50q-64 51 -64 135q0 71 43 130q43 60 133 103h-37l-16 113q-40 -69 -121 -109q-80 -39 -180 -39q-149 0 -244 86q-94 85 -94 230q0 147 100 237t264 90h146
q58 0 87 24q27 22 27 64q0 51 -40 82t-107 31q-78 0 -132 -39q-54 -38 -65 -104l-246 61q26 152 148 236q123 84 307 84q201 0 311 -102q109 -103 109 -300v-645q-82 -33 -124 -70zM690 410h-198q-66 0 -101 -27t-35 -76q0 -51 39 -79q40 -29 109 -29q86 0 136 48t50 128v35
z" />
    <glyph glyph-name="Cacute" unicode="&#x106;" horiz-adv-x="1509" 
d="M793 1927h260l-205 -313h-193zM413 67q-162 97 -254 273q-91 175 -91 405t92 409q91 177 256 275q163 97 372 97q162 0 297 -58t229 -164q94 -107 128 -247l-299 -111q-27 124 -125 201q-97 76 -232 76q-115 0 -204 -59t-139 -167q-50 -109 -50 -249q0 -138 50 -247
t139 -167q90 -60 206 -60q134 0 231 76t124 201l299 -111q-33 -140 -126 -246q-93 -108 -229 -166q-134 -59 -301 -59q-210 0 -373 98z" />
    <glyph glyph-name="cacute" unicode="&#x107;" horiz-adv-x="1128" 
d="M623 1423h260l-205 -313h-193zM329 37q-118 69 -184 192q-67 122 -67 277t68 280q68 123 187 192q120 69 269 69q171 0 296 -86q123 -86 167 -226l-244 -108q-23 68 -83 110q-61 41 -138 41q-102 0 -164 -72q-63 -74 -63 -200q0 -122 60 -196q59 -74 165 -74q78 0 140 41
q61 40 85 110l248 -108q-50 -143 -180 -227q-130 -85 -297 -85q-149 0 -265 70z" />
    <glyph glyph-name="Cdotaccent" unicode="&#x10a;" horiz-adv-x="1509" 
d="M636 1680q-44 47 -44 114q0 71 43 114q44 44 117 44q71 0 115 -44q42 -44 42 -114q0 -68 -43 -114t-114 -46q-73 0 -116 46zM413 67q-162 97 -254 273q-91 175 -91 405t92 409q91 177 256 275q163 97 372 97q162 0 297 -58t229 -164q94 -107 128 -247l-299 -111
q-27 124 -125 201q-97 76 -232 76q-115 0 -204 -59t-139 -167q-50 -109 -50 -249q0 -138 50 -247t139 -167q90 -60 206 -60q134 0 231 76t124 201l299 -111q-33 -140 -126 -246q-93 -108 -229 -166q-134 -59 -301 -59q-210 0 -373 98z" />
    <glyph glyph-name="cdotaccent" unicode="&#x10b;" horiz-adv-x="1128" 
d="M466 1177q-44 47 -44 113q0 71 43 114q44 44 117 44q71 0 115 -44q42 -44 42 -114q0 -68 -43 -114t-114 -46q-72 0 -116 47zM329 37q-118 69 -184 192q-67 122 -67 277t68 280q68 123 187 192q120 69 269 69q171 0 296 -86q123 -86 167 -226l-244 -108q-23 68 -83 110
q-61 41 -138 41q-102 0 -164 -72q-63 -74 -63 -200q0 -122 60 -196q59 -74 165 -74q78 0 140 41q61 40 85 110l248 -108q-50 -143 -180 -227q-130 -85 -297 -85q-149 0 -265 70z" />
    <glyph glyph-name="Ccaron" unicode="&#x10c;" horiz-adv-x="1509" 
d="M668 1946l84 -168l82 168h237l-215 -334h-213l-215 334h240zM413 67q-162 97 -254 273q-91 175 -91 405t92 409q91 177 256 275q163 97 372 97q162 0 297 -58t229 -164q94 -107 128 -247l-299 -111q-27 124 -125 201q-97 76 -232 76q-115 0 -204 -59t-139 -167
q-50 -109 -50 -249q0 -138 50 -247t139 -167q90 -60 206 -60q134 0 231 76t124 201l299 -111q-33 -140 -126 -246q-93 -108 -229 -166q-134 -59 -301 -59q-210 0 -373 98z" />
    <glyph glyph-name="ccaron" unicode="&#x10d;" horiz-adv-x="1128" 
d="M498 1442l84 -168l82 168h237l-215 -334h-213l-215 334h240zM329 37q-118 69 -184 192q-67 122 -67 277t68 280q68 123 187 192q120 69 269 69q171 0 296 -86q123 -86 167 -226l-244 -108q-23 68 -83 110q-61 41 -138 41q-102 0 -164 -72q-63 -74 -63 -200
q0 -122 60 -196q59 -74 165 -74q78 0 140 41q61 40 85 110l248 -108q-50 -143 -180 -227q-130 -85 -297 -85q-149 0 -265 70z" />
    <glyph glyph-name="Dcaron" unicode="&#x10e;" horiz-adv-x="1398" 
d="M508 1927l84 -168l82 168h237l-215 -334h-213l-215 334h240zM131 1497h504q222 0 380 -92q156 -91 237 -261q81 -169 81 -394q0 -236 -85 -405t-242 -257t-371 -88h-504v1497zM616 287q188 0 294 126q106 125 106 337q0 217 -108 340q-110 122 -292 122h-186v-925h186z
" />
    <glyph glyph-name="dcaron" unicode="&#x10f;" horiz-adv-x="1423" 
d="M784 1511h293v-1511h-260l-12 109q-39 -66 -117 -105t-172 -39q-206 0 -321 148q-117 147 -117 397q0 252 120 393q118 141 320 141q86 0 155 -27q69 -29 111 -77v571zM1444 1497l-76 -582h-168v582h244zM733 288q51 76 51 218q0 146 -54 220q-54 73 -150 73
q-102 0 -154 -78q-53 -79 -53 -215q0 -146 55 -220q56 -75 154 -75q100 0 151 77z" />
    <glyph glyph-name="Dcroat" unicode="&#x110;" horiz-adv-x="1386" 
d="M1015 1405q156 -91 237 -261q81 -169 81 -394q0 -236 -85 -405t-242 -257t-371 -88h-504v639h-131v246h131v612h504q222 0 380 -92zM911 413q105 126 105 337q0 217 -108 340q-110 122 -292 122h-186v-327h277v-246h-277v-352h186q189 0 295 126z" />
    <glyph glyph-name="dcroat" unicode="&#x111;" horiz-adv-x="1185" 
d="M1219 1139h-142v-1139h-260l-12 109q-39 -66 -117 -105t-172 -39q-206 0 -321 148q-117 147 -117 397q0 252 120 393q118 141 320 141q86 0 155 -27q69 -29 111 -77v199h-401v207h401v165h293v-165h142v-207zM733 288q51 76 51 218q0 146 -54 220q-54 73 -150 73
q-102 0 -154 -78q-53 -79 -53 -215q0 -146 55 -220q56 -75 154 -75q100 0 151 77z" />
    <glyph glyph-name="Emacron" unicode="&#x112;" horiz-adv-x="1052" 
d="M874 1835v-205h-626v205h626zM131 1497h858v-287h-561v-319h500v-266h-500v-338h561v-287h-858v1497z" />
    <glyph glyph-name="emacron" unicode="&#x113;" horiz-adv-x="1142" 
d="M887 1352v-205h-627v205h627zM740 249q67 40 94 103l229 -88q-40 -134 -172 -217q-130 -82 -303 -82q-152 0 -267 66q-116 65 -179 188q-64 122 -64 285q0 162 63 285q62 123 177 190q115 68 262 68q144 0 254 -61q110 -62 171 -174q60 -113 60 -257q0 -70 -14 -137h-693
q1 -94 66 -151q62 -58 164 -58q85 0 152 40zM430 757q-60 -49 -70 -126h412q-6 81 -58 127q-53 47 -136 47q-90 0 -148 -48z" />
    <glyph glyph-name="Edotaccent" unicode="&#x116;" horiz-adv-x="1052" 
d="M445 1660q-44 47 -44 114q0 71 43 114t117 43q71 0 115 -44q43 -43 43 -113q0 -68 -43 -114t-115 -46q-73 0 -116 46zM131 1497h858v-287h-561v-319h500v-266h-500v-338h561v-287h-858v1497z" />
    <glyph glyph-name="edotaccent" unicode="&#x117;" horiz-adv-x="1142" 
d="M458 1177q-44 47 -44 113q0 71 43 114q44 44 116 44q71 0 115 -44q43 -43 43 -114q0 -68 -43 -114t-115 -46q-71 0 -115 47zM740 249q67 40 94 103l229 -88q-40 -134 -172 -217q-130 -82 -303 -82q-152 0 -267 66q-116 65 -179 188q-64 122 -64 285q0 162 63 285
q62 123 177 190q115 68 262 68q144 0 254 -61q110 -62 171 -174q60 -113 60 -257q0 -70 -14 -137h-693q1 -94 66 -151q62 -58 164 -58q85 0 152 40zM430 757q-60 -49 -70 -126h412q-6 81 -58 127q-53 47 -136 47q-90 0 -148 -48z" />
    <glyph glyph-name="Eogonek" unicode="&#x118;" horiz-adv-x="1052" 
d="M428 1210v-319h500v-266h-500v-338h561v-287q-82 -33 -124 -70q-44 -39 -44 -73q0 -32 17 -49q16 -15 59 -15q35 0 72 19v-195q-64 -35 -150 -35q-95 0 -159 50q-64 51 -64 135q0 71 43 130q43 60 133 103h-641v1497h858v-287h-561z" />
    <glyph glyph-name="eogonek" unicode="&#x119;" horiz-adv-x="1142" 
d="M740 249q67 40 94 103l229 -88q-37 -118 -144 -198q-110 -81 -255 -97q-45 -25 -70 -55q-25 -28 -25 -53q0 -32 17 -49q16 -15 59 -15q35 0 72 19v-195q-64 -35 -150 -35q-95 0 -159 50q-64 51 -64 135q0 57 32 110q32 54 95 94q-183 38 -287 178q-106 139 -106 351
q0 162 63 285q62 123 177 190q115 68 262 68q144 0 254 -61q110 -62 171 -174q60 -113 60 -257q0 -70 -14 -137h-693q1 -94 66 -151q62 -58 164 -58q85 0 152 40zM430 757q-60 -49 -70 -126h412q-6 81 -58 127q-53 47 -136 47q-90 0 -148 -48z" />
    <glyph glyph-name="Ecaron" unicode="&#x11a;" horiz-adv-x="1052" 
d="M477 1925l84 -168l82 168h238l-215 -334h-213l-215 334h239zM131 1497h858v-287h-561v-319h500v-266h-500v-338h561v-287h-858v1497z" />
    <glyph glyph-name="ecaron" unicode="&#x11b;" horiz-adv-x="1142" 
d="M489 1442l84 -168l82 168h238l-215 -334h-213l-215 334h239zM740 249q67 40 94 103l229 -88q-40 -134 -172 -217q-130 -82 -303 -82q-152 0 -267 66q-116 65 -179 188q-64 122 -64 285q0 162 63 285q62 123 177 190q115 68 262 68q144 0 254 -61q110 -62 171 -174
q60 -113 60 -257q0 -70 -14 -137h-693q1 -94 66 -151q62 -58 164 -58q85 0 152 40zM430 757q-60 -49 -70 -126h412q-6 81 -58 127q-53 47 -136 47q-90 0 -148 -48z" />
    <glyph glyph-name="Gbreve" unicode="&#x11e;" horiz-adv-x="1576" 
d="M535 1682q-86 83 -82 243h198q-5 -135 117 -135q58 0 90 35q31 33 29 100h198q4 -160 -83 -243q-88 -83 -234 -83q-147 0 -233 83zM1511 657q0 -203 -87 -358q-87 -156 -246 -243q-161 -87 -373 -87q-224 0 -390 97q-168 97 -257 271q-90 175 -90 406q0 235 93 414
t261 276q167 97 387 97q155 0 287 -55q133 -55 225 -155q93 -101 127 -228l-285 -117q-29 119 -125 188q-97 68 -239 68q-191 0 -300 -133q-110 -134 -110 -350q0 -220 111 -350q110 -132 307 -132q159 0 265 85q107 86 120 227h-420v256h723q16 -77 16 -177z" />
    <glyph glyph-name="gbreve" unicode="&#x11f;" horiz-adv-x="1210" 
d="M313 1242q-86 83 -82 243h199q-4 -135 117 -135q58 0 90 35q31 33 29 100h198q4 -160 -83 -243q-88 -83 -234 -83q-148 0 -234 83zM1081 1012v-996q0 -228 -143 -353q-142 -124 -379 -124q-204 0 -329 91q-127 92 -167 245l240 105q13 -88 83 -138q68 -49 165 -49
q112 0 173 58q62 59 62 155v109q-79 -95 -258 -97q-209 0 -327 139q-119 139 -119 373q0 158 54 274q55 117 154 178q100 62 230 62q101 0 175 -34t112 -95l10 97h264zM735 331q53 71 53 201q0 126 -53 197q-52 70 -151 70q-102 0 -155 -72q-54 -72 -54 -197q0 -128 54 -199
t153 -71q100 0 153 71z" />
    <glyph glyph-name="Gdotaccent" unicode="&#x120;" horiz-adv-x="1576" 
d="M652 1660q-44 47 -44 114q0 71 43 114t117 43q71 0 115 -44q43 -43 43 -113q0 -68 -43 -114t-115 -46q-73 0 -116 46zM1511 657q0 -203 -87 -358q-87 -156 -246 -243q-161 -87 -373 -87q-224 0 -390 97q-168 97 -257 271q-90 175 -90 406q0 235 93 414t261 276
q167 97 387 97q155 0 287 -55q133 -55 225 -155q93 -101 127 -228l-285 -117q-29 119 -125 188q-97 68 -239 68q-191 0 -300 -133q-110 -134 -110 -350q0 -220 111 -350q110 -132 307 -132q159 0 265 85q107 86 120 227h-420v256h723q16 -77 16 -177z" />
    <glyph glyph-name="gdotaccent" unicode="&#x121;" horiz-adv-x="1189" 
d="M405 1177q-45 47 -45 113q0 71 43 114q44 44 117 44q71 0 115 -44q43 -43 43 -114q0 -68 -43 -114t-115 -46q-71 0 -115 47zM1081 1012v-996q0 -228 -143 -353q-142 -124 -379 -124q-204 0 -329 91q-127 92 -167 245l240 105q13 -88 83 -138q68 -49 165 -49q112 0 173 58
q62 59 62 155v109q-79 -95 -258 -97q-209 0 -327 139q-119 139 -119 373q0 158 54 274q55 117 154 178q100 62 230 62q101 0 175 -34t112 -95l10 97h264zM735 331q53 71 53 201q0 126 -53 197q-52 70 -151 70q-102 0 -155 -72q-54 -72 -54 -197q0 -128 54 -199t153 -71
q100 0 153 71z" />
    <glyph glyph-name="uni0122" unicode="&#x122;" horiz-adv-x="1576" 
d="M680 -154q46 48 125 48q73 0 119 -48q47 -47 47 -114q0 -55 -43 -119l-146 -223h-133l103 178q-55 13 -87 58q-32 44 -32 104q0 69 47 116zM1511 657q0 -203 -87 -358q-87 -156 -246 -243q-161 -87 -373 -87q-224 0 -390 97q-168 97 -257 271q-90 175 -90 406
q0 235 93 414t261 276q167 97 387 97q155 0 287 -55q133 -55 225 -155q93 -101 127 -228l-285 -117q-29 119 -125 188q-97 68 -239 68q-191 0 -300 -133q-110 -134 -110 -350q0 -220 111 -350q110 -132 307 -132q159 0 265 85q107 86 120 227h-420v256h723q16 -77 16 -177z
" />
    <glyph glyph-name="uni0123" unicode="&#x123;" horiz-adv-x="1210" 
d="M650 1235q-46 -45 -124 -45q-74 0 -119 46t-45 116q0 58 39 116l148 226h135l-106 -181q56 -17 87 -58t31 -103q0 -72 -46 -117zM1081 1012v-996q0 -228 -143 -353q-142 -124 -379 -124q-204 0 -329 91q-127 92 -167 245l240 105q13 -88 83 -138q68 -49 165 -49
q112 0 173 58q62 59 62 155v109q-79 -95 -258 -97q-209 0 -327 139q-119 139 -119 373q0 158 54 274q55 117 154 178q100 62 230 62q101 0 175 -34t112 -95l10 97h264zM735 331q53 71 53 201q0 126 -53 197q-52 70 -151 70q-102 0 -155 -72q-54 -72 -54 -197q0 -128 54 -199
t153 -71q100 0 153 71z" />
    <glyph glyph-name="Hbar" unicode="&#x126;" horiz-adv-x="1429" 
d="M1391 1042h-93v-1042h-297v590h-573v-590h-297v1042h-92v209h92v246h297v-246h573v246h297v-246h93v-209zM1001 1042h-573v-165h573v165z" />
    <glyph glyph-name="hbar" unicode="&#x127;" horiz-adv-x="1099" 
d="M924 937q94 -109 94 -292v-645h-291v582q0 98 -42 147t-114 49q-85 0 -129 -53q-43 -52 -43 -147v-578h-290v1169h-107v207h107v135h290v-135h439v-207h-439v-231q44 54 113 82q68 27 147 27q170 0 265 -110z" />
    <glyph glyph-name="Imacron" unicode="&#x12a;" horiz-adv-x="548" 
d="M590 1835v-205h-627v205h627zM131 0v1497h289v-1497h-289z" />
    <glyph glyph-name="imacron" unicode="&#x12b;" horiz-adv-x="536" 
d="M584 1350v-205h-627v205h627zM410 1012v-1012h-283v1012h283z" />
    <glyph glyph-name="Iogonek" unicode="&#x12e;" horiz-adv-x="548" 
d="M296 -70q-44 -39 -44 -73q0 -32 17 -49q16 -15 59 -15q36 0 71 19v-195q-64 -35 -149 -35q-95 0 -159 50q-64 51 -64 135q0 71 43 130q43 60 133 103h-72v1497h289v-1497q-82 -33 -124 -70z" />
    <glyph glyph-name="iogonek" unicode="&#x12f;" horiz-adv-x="536" 
d="M155 1175q-44 47 -44 113q0 71 43 114q44 44 116 44q71 0 115 -44q43 -43 43 -114q0 -68 -43 -114t-115 -46q-71 0 -115 47zM288 -70q-44 -39 -44 -73q0 -33 16 -49q16 -15 59 -15q35 0 72 19v-195q-64 -35 -149 -35q-95 0 -160 50q-64 51 -64 135q0 71 43 130
q43 60 134 103h-68v1012h283v-1012h2q-82 -33 -124 -70z" />
    <glyph glyph-name="Idotaccent" unicode="&#x130;" horiz-adv-x="548" 
d="M161 1660q-44 47 -44 114q0 71 43 114t116 43q71 0 115 -44q43 -43 43 -113q0 -68 -43 -114t-115 -46t-115 46zM131 0v1497h289v-1497h-289z" />
    <glyph glyph-name="dotlessi" unicode="&#x131;" horiz-adv-x="536" 
d="M410 1012v-1012h-283v1012h283z" />
    <glyph glyph-name="uni0136" unicode="&#x136;" horiz-adv-x="1343" 
d="M561 -131q47 47 125 47q72 0 119 -47t47 -115q0 -55 -43 -119l-145 -223h-134l103 178q-55 13 -87 58q-32 46 -32 104q0 70 47 117zM131 1497h297v-752l518 752h377l-451 -631l449 -866h-365l-288 594l-240 -334v-264h-297v1501z" />
    <glyph glyph-name="uni0137" unicode="&#x137;" horiz-adv-x="1112" 
d="M438 -131q47 47 125 47q72 0 119 -47t47 -115q0 -55 -43 -119l-145 -223h-133l102 178q-55 13 -87 58q-32 46 -32 104q0 70 47 117zM760 625l325 -625h-333l-193 397l-160 -182v-215h-290v1511h290v-884l336 385h365z" />
    <glyph glyph-name="Lacute" unicode="&#x139;" horiz-adv-x="1116" 
d="M379 1593h-193l138 314h260zM1053 287v-287h-922v1497h299v-1210h623z" />
    <glyph glyph-name="lacute" unicode="&#x13a;" horiz-adv-x="487" 
d="M293 1907h260l-205 -314h-192zM109 1511h282v-1511h-282v1511z" />
    <glyph glyph-name="uni013B" unicode="&#x13b;" horiz-adv-x="1116" 
d="M426 -131q47 47 125 47q72 0 119 -47t47 -115q0 -55 -43 -119l-146 -223h-133l103 178q-55 13 -87 58q-32 46 -32 104q0 70 47 117zM1053 287v-287h-922v1497h299v-1210h623z" />
    <glyph glyph-name="uni013C" unicode="&#x13c;" horiz-adv-x="487" 
d="M127 -131q47 47 125 47q72 0 119 -47t47 -115q0 -55 -43 -119l-146 -223h-133l103 178q-55 13 -87 58q-32 46 -32 104q0 70 47 117zM109 1511h282v-1511h-282v1511z" />
    <glyph glyph-name="Lcaron" unicode="&#x13d;" horiz-adv-x="1091" 
d="M786 915h-168v584h244zM1053 287v-287h-922v1497h299v-1210h623z" />
    <glyph glyph-name="lcaron" unicode="&#x13e;" horiz-adv-x="739" 
d="M109 1511h282v-1511h-282v1511zM760 1497l-76 -582h-166v582h242z" />
    <glyph glyph-name="Ldot" unicode="&#x13f;" horiz-adv-x="1089" 
d="M1053 287v-287h-922v1497h299v-1210h623zM629 671q-47 47 -47 115q0 65 47 112q46 46 114 46q66 0 112 -46t46 -112q0 -68 -46 -114q-47 -47 -112 -47q-68 0 -114 46z" />
    <glyph glyph-name="ldot" unicode="&#x140;" horiz-adv-x="829" 
d="M109 1511h282v-1511h-282v1511zM561 589q-47 47 -47 116q0 66 47 113q46 46 115 46q66 0 113 -47t47 -112q0 -69 -46 -115q-47 -47 -114 -47q-69 0 -115 46z" />
    <glyph glyph-name="Lslash" unicode="&#x141;" horiz-adv-x="1140" 
d="M1079 285v-285h-905v625l-176 -80v274l176 80v555h297v-420l283 129v-274l-283 -129v-475h608z" />
    <glyph glyph-name="lslash" unicode="&#x142;" horiz-adv-x="675" 
d="M625 877l-146 -70v-807h-282v672l-146 -70v246l146 70v593h282v-456l146 69v-247z" />
    <glyph glyph-name="Nacute" unicode="&#x143;" horiz-adv-x="1449" 
d="M768 1907h260l-205 -314h-192zM131 1497h297l594 -991v991h297v-1497h-297l-594 989v-989h-297v1497z" />
    <glyph glyph-name="nacute" unicode="&#x144;" horiz-adv-x="1116" 
d="M618 1432h261l-205 -314h-193zM924 937q94 -109 94 -292v-645h-291v588q0 94 -42 142t-114 48q-86 0 -129 -52t-43 -142v-584h-290v1012h260l10 -101q44 68 118 102q72 34 162 34q170 0 265 -110z" />
    <glyph glyph-name="uni0145" unicode="&#x145;" horiz-adv-x="1449" 
d="M610 -131q47 47 125 47q72 0 119 -47t47 -115q0 -55 -43 -119l-145 -223h-133l102 178q-55 13 -87 58q-32 46 -32 104q0 70 47 117zM131 1497h297l594 -991v991h297v-1497h-297l-594 989v-989h-297v1497z" />
    <glyph glyph-name="uni0146" unicode="&#x146;" horiz-adv-x="1116" 
d="M463 -131q47 47 125 47q72 0 119 -47t47 -115q0 -55 -43 -119l-146 -223h-133l103 178q-55 13 -87 58q-32 46 -32 104q0 70 47 117zM924 937q94 -109 94 -292v-645h-291v588q0 94 -42 142t-114 48q-86 0 -129 -52t-43 -142v-584h-290v1012h260l10 -101q44 68 118 102
q72 34 162 34q170 0 265 -110z" />
    <glyph glyph-name="Ncaron" unicode="&#x147;" horiz-adv-x="1449" 
d="M643 1925l84 -168l82 168h238l-216 -334h-213l-215 334h240zM131 1497h297l594 -991v991h297v-1497h-297l-594 989v-989h-297v1497z" />
    <glyph glyph-name="ncaron" unicode="&#x148;" horiz-adv-x="1116" 
d="M494 1450l84 -168l81 168h238l-215 -334h-213l-215 334h240zM924 937q94 -109 94 -292v-645h-291v588q0 94 -42 142t-114 48q-86 0 -129 -52t-43 -142v-584h-290v1012h260l10 -101q44 68 118 102q72 34 162 34q170 0 265 -110z" />
    <glyph glyph-name="Eng" unicode="&#x14a;" horiz-adv-x="1409" 
d="M1284 1454v-1552q-6 -211 -113 -307q-109 -95 -305 -95q-84 0 -164 15v276q75 -14 125 -14q93 0 128 41q34 40 34 129v53l-569 952v-952h-295v1454h295l569 -952v952h295z" />
    <glyph glyph-name="eng" unicode="&#x14b;" horiz-adv-x="1136" 
d="M924 937q94 -109 94 -292v-702q0 -182 -115 -293t-303 -111q-80 0 -160 15v249q75 -8 117 -8q98 0 134 48t36 143v602q0 96 -42 143t-118 47q-82 0 -125 -52t-43 -142v-584h-290v1012h260l10 -101q44 68 118 102q72 34 165 34q167 0 262 -110z" />
    <glyph glyph-name="Omacron" unicode="&#x14c;" horiz-adv-x="1640" 
d="M1133 1835v-205h-627v205h627zM429 69q-172 101 -266 279q-95 179 -95 402q0 220 95 399q94 177 266 280q172 101 390 101t391 -101q172 -102 268 -280q95 -179 95 -399q0 -222 -96 -401q-99 -180 -268 -280q-171 -102 -390 -102t-390 102zM1040 332q97 58 150 167
q53 108 53 249q0 138 -54 248q-54 107 -150 169q-97 60 -220 60q-122 0 -220 -59q-97 -60 -151 -168q-55 -109 -55 -248q0 -142 55 -249q54 -108 151 -168q97 -61 220 -61t221 60z" />
    <glyph glyph-name="omacron" unicode="&#x14d;" horiz-adv-x="1202" 
d="M901 1352v-205h-627v205h627zM139 787q71 122 192 191t273 69t273 -69q120 -69 189 -192q69 -124 69 -280t-69 -280q-69 -125 -190 -192q-122 -69 -274 -69q-150 0 -271 69q-121 67 -192 191t-71 281t71 281zM436 306q62 -75 164 -75t166 75q63 75 63 200q0 124 -63 201
q-64 75 -166 75t-164 -75q-63 -77 -63 -203q0 -123 63 -198z" />
    <glyph glyph-name="Ohungarumlaut" unicode="&#x150;" horiz-adv-x="1640" 
d="M715 1948h276l-219 -314h-248zM1112 1948h279l-267 -314h-252zM429 69q-172 101 -266 279q-95 179 -95 402q0 220 95 399q94 177 266 280q172 101 390 101t391 -101q172 -102 268 -280q95 -179 95 -399q0 -222 -96 -401q-99 -180 -268 -280q-171 -102 -390 -102t-390 102
zM1040 332q97 58 150 167q53 108 53 249q0 138 -54 248q-54 107 -150 169q-97 60 -220 60q-122 0 -220 -59q-97 -60 -151 -168q-55 -109 -55 -248q0 -142 55 -249q54 -108 151 -168q97 -61 220 -61t221 60z" />
    <glyph glyph-name="ohungarumlaut" unicode="&#x151;" horiz-adv-x="1202" 
d="M483 1462h277l-219 -313h-248zM881 1462h278l-266 -313h-252zM139 787q71 122 192 191t273 69t273 -69q120 -69 189 -192q69 -124 69 -280t-69 -280q-69 -125 -190 -192q-122 -69 -274 -69q-150 0 -271 69q-121 67 -192 191t-71 281t71 281zM436 306q62 -75 164 -75
t166 75q63 75 63 200q0 124 -63 201q-64 75 -166 75t-164 -75q-63 -77 -63 -203q0 -123 63 -198z" />
    <glyph glyph-name="OE" unicode="&#x152;" horiz-adv-x="2191" 
d="M1567 1210v-319h499v-266h-499v-338h561v-287h-858v109q-193 -140 -451 -142q-219 0 -390 102q-172 101 -266 279q-95 179 -95 402q0 220 95 399q94 177 266 280q172 101 390 101q257 0 451 -141v108h858v-287h-561zM1040 332q97 58 150 167q53 108 53 249q0 138 -54 248
q-54 107 -150 169q-97 60 -220 60q-122 0 -220 -59q-97 -60 -151 -168q-55 -109 -55 -248q0 -142 55 -249q54 -108 151 -168q97 -61 220 -61t221 60z" />
    <glyph glyph-name="oe" unicode="&#x153;" horiz-adv-x="1957" 
d="M1532 247q67 40 94 103l229 -88q-40 -134 -172 -217q-130 -82 -303 -82q-121 0 -220 42t-167 122q-72 -78 -172 -120q-101 -42 -219 -42q-150 0 -271 69q-121 67 -192 191t-71 281t71 281q71 122 192 191t273 69q121 0 220 -43q100 -43 173 -121q67 78 164 120
q97 41 211 41q144 0 254 -61q111 -62 172 -173q60 -112 60 -257q0 -73 -15 -137h-692q1 -94 66 -151q62 -58 163 -58q85 0 152 40zM1223 755q-59 -48 -70 -126h412q-6 81 -58 127q-53 47 -137 47q-88 0 -147 -48zM766 306q63 75 63 200q0 124 -63 201q-64 75 -166 75
t-164 -75q-63 -77 -63 -203q0 -123 63 -198q62 -75 164 -75t166 75z" />
    <glyph glyph-name="Racute" unicode="&#x154;" horiz-adv-x="1337" 
d="M690 1593h-192l137 314h260zM1201 747q-61 -112 -175 -174l231 -573h-327l-197 508h-305v-508h-297v1497h621q156 0 271 -63q115 -65 177 -176q62 -113 62 -257t-61 -254zM428 772h305q108 0 167 65q58 64 58 160q0 97 -58 155t-167 58h-305v-438z" />
    <glyph glyph-name="racute" unicode="&#x155;" horiz-adv-x="751" 
d="M358 1133h-192l137 313h260zM483 984q65 38 154 38q41 0 94 -10v-279q-53 10 -90 10q-117 0 -180 -65q-64 -65 -64 -182v-496h-288v1012h270l14 -131q26 66 90 103z" />
    <glyph glyph-name="uni0156" unicode="&#x156;" horiz-adv-x="1337" 
d="M510 -131q47 47 125 47q72 0 119 -47t47 -115q0 -55 -43 -119l-146 -223h-133l103 178q-55 13 -87 58q-32 46 -32 104q0 70 47 117zM1201 747q-61 -112 -175 -174l231 -573h-327l-197 508h-305v-508h-297v1497h621q156 0 271 -63q115 -65 177 -176q62 -113 62 -257
t-61 -254zM428 772h305q108 0 167 65q58 64 58 160q0 97 -58 155t-167 58h-305v-438z" />
    <glyph glyph-name="uni0157" unicode="&#x157;" horiz-adv-x="751" 
d="M141 -131q47 47 125 47q72 0 119 -47t47 -115q0 -55 -43 -119l-145 -223h-133l102 178q-55 13 -87 58q-32 46 -32 104q0 70 47 117zM483 984q65 38 154 38q41 0 94 -10v-279q-53 10 -90 10q-117 0 -180 -65q-64 -65 -64 -182v-496h-288v1012h270l14 -131q26 66 90 103z
" />
    <glyph glyph-name="Rcaron" unicode="&#x158;" horiz-adv-x="1337" 
d="M510 1925l84 -168l82 168h237l-215 -334h-213l-215 334h240zM1201 747q-61 -112 -175 -174l231 -573h-327l-197 508h-305v-508h-297v1497h621q156 0 271 -63q115 -65 177 -176q62 -113 62 -257t-61 -254zM428 772h305q108 0 167 65q58 64 58 160q0 97 -58 155t-167 58
h-305v-438z" />
    <glyph glyph-name="rcaron" unicode="&#x159;" horiz-adv-x="751" 
d="M178 1464l84 -168l82 168h238l-215 -334h-213l-215 334h239zM483 984q65 38 154 38q41 0 94 -10v-279q-53 10 -90 10q-117 0 -180 -65q-64 -65 -64 -182v-496h-288v1012h270l14 -131q26 66 90 103z" />
    <glyph glyph-name="Sacute" unicode="&#x15a;" horiz-adv-x="1232" 
d="M649 1923h260l-204 -313h-193zM834 1059q-11 85 -72 134q-62 50 -158 50q-86 0 -142 -44t-56 -116q0 -68 50 -104q48 -36 144 -59l195 -48q187 -45 278 -157q92 -113 92 -271q0 -139 -67 -245t-191 -165q-121 -59 -284 -59q-161 0 -283 58q-122 57 -195 161
q-72 102 -86 238l295 43q4 -96 76 -154q73 -59 191 -59q102 0 164 44q61 43 61 122q0 118 -152 156l-192 47q-217 52 -315 161q-99 106 -99 273q0 140 67 244q66 104 183 161q118 56 266 56q210 0 353 -106q144 -107 169 -287z" />
    <glyph glyph-name="sacute" unicode="&#x15b;" horiz-adv-x="966" 
d="M532 1423h261l-205 -313h-193zM625 700q-6 49 -42 82t-98 33q-52 0 -83 -23q-31 -24 -31 -65q0 -63 106 -88l152 -33q134 -31 205 -111q69 -81 69 -194q0 -99 -53 -176q-52 -75 -149 -118q-97 -42 -222 -42q-177 0 -290 84q-112 84 -126 230l246 38q5 -55 48 -87
q43 -33 120 -33q63 0 97 24q34 22 34 62q0 66 -92 90l-149 39q-287 78 -287 301q0 97 51 174q50 75 140 118q89 42 204 42q161 0 268 -80q105 -79 117 -213z" />
    <glyph glyph-name="Scedilla" unicode="&#x15e;" horiz-adv-x="1232" 
d="M1037 124q-127 -126 -343 -144l-18 -64q91 2 144 -40q54 -42 54 -126q0 -80 -60 -129q-59 -49 -152 -49q-122 0 -181 51t-59 135h156q2 -23 18 -35t41 -12t39 15q14 17 14 38q0 26 -18 39q-20 15 -49 15q-15 0 -29 -2l-66 37l41 124q-218 13 -356 139t-154 316l295 43
q4 -96 76 -154q73 -59 191 -59q102 0 164 44q61 43 61 122q0 118 -152 156l-192 47q-217 52 -315 161q-99 106 -99 273q0 140 67 244q66 104 183 161q118 56 266 56q210 0 353 -106q144 -107 169 -287l-292 -74q-11 85 -72 134q-62 50 -158 50q-86 0 -142 -44t-56 -116
q0 -68 50 -104q48 -36 144 -59l195 -48q187 -45 278 -157q92 -113 92 -271q0 -194 -128 -320z" />
    <glyph glyph-name="scedilla" unicode="&#x15f;" horiz-adv-x="966" 
d="M803 72q-100 -90 -268 -105l-13 -45q90 2 145 -40q54 -42 54 -126q0 -80 -60 -129q-61 -49 -153 -49q-122 0 -181 51q-59 53 -59 135h156q1 -22 19 -35q17 -12 40 -12q25 0 40 15q14 17 14 39q0 25 -18 39q-20 14 -50 14q-15 0 -29 -2l-65 37l35 110q-151 17 -243 97
q-94 81 -104 213l246 38q5 -55 48 -87q43 -33 120 -33q63 0 97 24q34 22 34 62q0 66 -92 90l-149 39q-287 78 -287 301q0 97 51 174q50 75 140 118q89 42 204 42q161 0 268 -80q105 -79 117 -213l-235 -54q-6 49 -42 82t-98 33q-52 0 -83 -23q-31 -24 -31 -65q0 -63 106 -88
l152 -33q134 -31 205 -111q69 -81 69 -194q0 -139 -100 -229z" />
    <glyph glyph-name="Scaron" unicode="&#x160;" horiz-adv-x="1232" 
d="M524 1942l84 -168l82 168h238l-215 -334h-213l-215 334h239zM834 1059q-11 85 -72 134q-62 50 -158 50q-86 0 -142 -44t-56 -116q0 -68 50 -104q48 -36 144 -59l195 -48q187 -45 278 -157q92 -113 92 -271q0 -139 -67 -245t-191 -165q-121 -59 -284 -59q-161 0 -283 58
q-122 57 -195 161q-72 102 -86 238l295 43q4 -96 76 -154q73 -59 191 -59q102 0 164 44q61 43 61 122q0 118 -152 156l-192 47q-217 52 -315 161q-99 106 -99 273q0 140 67 244q66 104 183 161q118 56 266 56q210 0 353 -106q144 -107 169 -287z" />
    <glyph glyph-name="scaron" unicode="&#x161;" horiz-adv-x="966" 
d="M408 1442l84 -168l81 168h238l-215 -334h-213l-215 334h240zM625 700q-6 49 -42 82t-98 33q-52 0 -83 -23q-31 -24 -31 -65q0 -63 106 -88l152 -33q134 -31 205 -111q69 -81 69 -194q0 -99 -53 -176q-52 -75 -149 -118q-97 -42 -222 -42q-177 0 -290 84q-112 84 -126 230
l246 38q5 -55 48 -87q43 -33 120 -33q63 0 97 24q34 22 34 62q0 66 -92 90l-149 39q-287 78 -287 301q0 97 51 174q50 75 140 118q89 42 204 42q161 0 268 -80q105 -79 117 -213z" />
    <glyph glyph-name="uni0162" unicode="&#x162;" horiz-adv-x="1163" 
d="M645 0l-18 -68q91 2 144 -40q54 -42 54 -125q0 -81 -60 -130q-59 -49 -153 -49q-123 0 -181 51q-58 52 -58 136h155q1 -22 19 -35q17 -12 41 -12q26 0 39 15q14 16 14 38q0 25 -18 39q-20 14 -50 14q-14 0 -28 -2l-66 37l43 131h-90v1210h-389v287h1075v-287h-389v-1210
h-84z" />
    <glyph glyph-name="uni0163" unicode="&#x163;" horiz-adv-x="911" 
d="M551 762v-387q0 -85 41 -123q40 -37 121 -37q42 0 121 14v-225q-110 -36 -207 -37l-15 -53q90 2 145 -40q54 -42 54 -126q0 -80 -60 -129q-61 -49 -153 -49q-122 0 -181 51t-59 135h156q1 -22 19 -35q17 -12 40 -12q25 0 40 15q14 17 14 38q0 26 -18 39q-19 15 -50 15
q-15 0 -29 -2l-65 36l41 130q-119 29 -182 123q-64 94 -64 233v426h-229v250h229v284l291 33v-317h283v-250h-283z" />
    <glyph glyph-name="Tcaron" unicode="&#x164;" horiz-adv-x="1163" 
d="M498 1925l84 -168l82 168h237l-215 -334h-213l-215 334h240zM1118 1210h-389v-1210h-297v1210h-389v287h1075v-287z" />
    <glyph glyph-name="tcaron" unicode="&#x165;" horiz-adv-x="888" 
d="M817 1108h-168v389h242zM551 1012h283v-250h-283v-387q0 -85 41 -123q40 -37 121 -37q42 0 121 14v-225q-110 -37 -222 -37q-169 0 -260 100q-92 100 -92 269v426h-229v250h229v284l291 33v-317z" />
    <glyph glyph-name="Tbar" unicode="&#x166;" horiz-adv-x="1189" 
d="M729 1210v-350h367v-207h-367v-653h-297v653h-334v207h334v350h-389v287h1075v-287h-389z" />
    <glyph glyph-name="tbar" unicode="&#x167;" horiz-adv-x="927" 
d="M551 414v-39q0 -85 41 -123q40 -37 121 -37q42 0 121 14v-225q-110 -37 -222 -37q-169 0 -260 100q-92 100 -92 269v78h-225v258h225v90h-229v250h229v284l291 33v-317h283v-250h-283v-90h295v-258h-295z" />
    <glyph glyph-name="Umacron" unicode="&#x16a;" horiz-adv-x="1370" 
d="M1004 1835v-205h-627v205h627zM111 1497h299v-903q0 -158 75 -246q73 -88 201 -88q132 0 205 90q74 91 74 244v903h297v-938q0 -173 -72 -307t-202 -207q-131 -74 -302 -74t-302 74q-130 73 -201 207q-72 134 -72 307v938z" />
    <glyph glyph-name="umacron" unicode="&#x16b;" horiz-adv-x="1101" 
d="M860 1350v-205h-627v205h627zM993 1012v-1012h-272v106q-33 -66 -109 -103q-75 -38 -174 -38q-158 0 -249 103q-91 101 -91 272v672h291v-588q0 -180 150 -180q80 0 122 48q41 49 41 136v584h291z" />
    <glyph glyph-name="Uring" unicode="&#x16e;" horiz-adv-x="1370" 
d="M497 1931q82 68 193 68q112 0 195 -68q82 -69 82 -194q0 -126 -82 -196q-83 -71 -195 -71q-113 0 -193 71q-81 71 -81 196t81 194zM618 1659q29 -29 72 -29q44 0 75 29q30 29 30 76t-30 76q-29 28 -75 28q-44 0 -72 -28q-30 -29 -30 -76t30 -76zM111 1497h299v-903
q0 -158 75 -246q73 -88 201 -88q132 0 205 90q74 91 74 244v903h297v-938q0 -173 -72 -307t-202 -207q-131 -74 -302 -74t-302 74q-130 73 -201 207q-72 134 -72 307v938z" />
    <glyph glyph-name="uring" unicode="&#x16f;" horiz-adv-x="1101" 
d="M353 1056q-81 70 -81 195t81 194q82 68 194 68t195 -68q81 -69 81 -194t-82 -195q-83 -71 -194 -71q-112 0 -194 71zM474 1325q-30 -29 -30 -76t30 -75q31 -29 73 -29q44 0 75 29q29 29 29 75q0 47 -29 76q-31 29 -75 29q-42 0 -73 -29zM993 1012v-1012h-272v106
q-33 -66 -109 -103q-75 -38 -174 -38q-158 0 -249 103q-91 101 -91 272v672h291v-588q0 -180 150 -180q80 0 122 48q41 49 41 136v584h291z" />
    <glyph glyph-name="Uhungarumlaut" unicode="&#x170;" horiz-adv-x="1370" 
d="M586 1946h276l-219 -314h-248zM983 1946h279l-267 -314h-252zM111 1497h299v-903q0 -158 75 -246q73 -88 201 -88q132 0 205 90q74 91 74 244v903h297v-938q0 -173 -72 -307t-202 -207q-131 -74 -302 -74t-302 74q-130 73 -201 207q-72 134 -72 307v938z" />
    <glyph glyph-name="uhungarumlaut" unicode="&#x171;" horiz-adv-x="1101" 
d="M442 1460h277l-219 -313h-248zM840 1460h278l-266 -313h-252zM993 1012v-1012h-272v106q-33 -66 -109 -103q-75 -38 -174 -38q-158 0 -249 103q-91 101 -91 272v672h291v-588q0 -180 150 -180q80 0 122 48q41 49 41 136v584h291z" />
    <glyph glyph-name="Uogonek" unicode="&#x172;" horiz-adv-x="1370" 
d="M1262 1497v-938q0 -233 -125 -388t-336 -189q-71 -32 -110 -68q-40 -37 -40 -70t17 -48q16 -15 59 -15q35 0 72 18v-194q-64 -35 -150 -35q-95 0 -159 50q-64 49 -64 134q0 66 39 124t119 102q-218 32 -345 188q-128 157 -128 391v938h299v-903q0 -158 75 -246
q73 -88 201 -88q132 0 205 90q74 91 74 244v903h297z" />
    <glyph glyph-name="uogonek" unicode="&#x173;" horiz-adv-x="1101" 
d="M869 -70q-44 -39 -44 -73q0 -32 17 -49q16 -15 59 -15q35 0 72 19v-195q-64 -35 -150 -35q-95 0 -159 50q-64 51 -64 135q0 71 43 130q43 60 133 103h-55v106q-33 -66 -109 -103q-75 -38 -174 -38q-158 0 -249 103q-91 101 -91 272v672h291v-588q0 -180 150 -180
q80 0 122 48q41 49 41 136v584h291v-1012q-82 -33 -124 -70z" />
    <glyph glyph-name="Wcircumflex" unicode="&#x174;" horiz-adv-x="2117" 
d="M1126 1591l-82 170l-83 -170h-240l215 334h213l215 -334h-238zM365 1497l227 -975l311 975h311l312 -973l227 973h338l-405 -1497h-300l-329 983l-328 -983h-295l-409 1497h340z" />
    <glyph glyph-name="wcircumflex" unicode="&#x175;" horiz-adv-x="1585" 
d="M885 1106l-82 170l-84 -170h-240l215 334h213l215 -334h-237zM332 1012l94 -353q57 -238 57 -247q22 93 66 247l102 353h299l94 -350q54 -206 64 -250q25 120 63 250l97 350h295l-324 -1012h-266l-111 352q-55 191 -67 262q-11 -78 -70 -262l-113 -352h-274l-315 1012
h309z" />
    <glyph glyph-name="Ycircumflex" unicode="&#x176;" horiz-adv-x="1378" 
d="M772 1591l-82 170l-84 -170h-239l215 334h213l215 -334h-238zM358 1497l330 -584l332 584h346l-532 -901v-596h-291v596l-531 901h346z" />
    <glyph glyph-name="ycircumflex" unicode="&#x177;" horiz-adv-x="1130" 
d="M653 1106l-82 170l-84 -170h-239l215 334h213l215 -334h-238zM1116 1012l-612 -1442h-309l204 481l-387 961h314l219 -619l262 619h309z" />
    <glyph glyph-name="Ydieresis" unicode="&#x178;" horiz-adv-x="1378" 
d="M352 1660q-45 46 -45 114q0 70 45 114q44 43 117 43t116 -45q44 -46 44 -112q0 -67 -44 -114q-43 -46 -116 -46q-72 0 -117 46zM797 1660q-45 46 -45 114q0 70 45 114q44 43 116 43q73 0 116 -45q44 -46 44 -112q0 -67 -44 -114q-43 -46 -116 -46q-71 0 -116 46z
M358 1497l330 -584l332 584h346l-532 -901v-596h-291v596l-531 901h346z" />
    <glyph glyph-name="Zacute" unicode="&#x179;" horiz-adv-x="1165" 
d="M600 1907h260l-205 -314h-192zM74 279l641 927h-635v287l1012 4v-278l-646 -932h627v-287h-999v279z" />
    <glyph glyph-name="zacute" unicode="&#x17a;" horiz-adv-x="927" 
d="M559 1108h-192l137 313h260zM850 268v-268h-774v236l426 507h-420v269h764v-256l-408 -488h412z" />
    <glyph glyph-name="Zdotaccent" unicode="&#x17b;" horiz-adv-x="1165" 
d="M443 1660q-44 47 -44 114q0 71 43 114t117 43q71 0 115 -44q43 -43 43 -113q0 -68 -43 -114t-115 -46q-73 0 -116 46zM74 279l641 927h-635v287l1012 4v-278l-646 -932h627v-287h-999v279z" />
    <glyph glyph-name="zdotaccent" unicode="&#x17c;" horiz-adv-x="927" 
d="M347 1175q-44 47 -44 113q0 71 43 114q44 44 117 44q71 0 115 -44q43 -43 43 -114q0 -68 -43 -114t-115 -46t-116 47zM850 268v-268h-774v236l426 507h-420v269h764v-256l-408 -488h412z" />
    <glyph glyph-name="Zcaron" unicode="&#x17d;" horiz-adv-x="1165" 
d="M475 1925l84 -168l82 168h238l-215 -334h-213l-215 334h239zM74 279l641 927h-635v287l1012 4v-278l-646 -932h627v-287h-999v279z" />
    <glyph glyph-name="zcaron" unicode="&#x17e;" horiz-adv-x="927" 
d="M379 1440l84 -168l82 168h237l-215 -334h-213l-215 334h240zM850 268v-268h-774v236l426 507h-420v269h764v-256l-408 -488h412z" />
    <glyph glyph-name="florin" unicode="&#x192;" horiz-adv-x="1327" 
d="M965 1244q-46 -43 -68 -144l-18 -88h315v-262h-369l-123 -603q-44 -203 -142 -291q-99 -87 -273 -87q-77 0 -193 22v240q53 -11 99 -13q104 0 154 44q49 43 69 133l119 555h-209v262h270l33 184q33 174 134 254t286 80q111 0 182 -17v-239q-91 12 -121 12
q-100 0 -145 -42z" />
    <glyph glyph-name="AEacute" unicode="&#x1fc;" horiz-adv-x="1835" 
d="M1356 1550h-193l137 314h261zM1227 1169v-290h481v-285h-481v-309h542v-285h-837v244h-430l-127 -244h-359l781 1454h972v-285h-542zM932 514v563l-291 -563h291z" />
    <glyph glyph-name="aeacute" unicode="&#x1fd;" horiz-adv-x="1646" 
d="M846 1393h260l-205 -314h-192zM1579 401h-627q5 -87 58 -137q52 -51 141 -51q69 0 125 35q54 33 80 100l221 -82q-39 -137 -155 -214q-118 -77 -279 -77q-125 0 -218 46q-95 45 -157 126q-50 -86 -143 -129t-205 -43q-146 0 -247 78t-101 236q0 129 89 216t259 87h143
q80 0 80 76q0 55 -41 85q-41 29 -108 29q-69 0 -116 -35q-46 -36 -54 -96l-222 66q25 140 135 220q109 79 275 79q204 0 311 -111q123 111 314 111q209 0 326 -129q116 -130 116 -346v-140zM1004 733q-46 -45 -52 -121h334q0 76 -42 121t-120 45q-75 0 -120 -45zM643 385
h-170q-113 0 -113 -84t113 -84q80 0 125 39t45 100v29z" />
    <glyph glyph-name="uni0218" unicode="&#x218;" horiz-adv-x="1232" 
d="M520 -148q46 48 125 48q73 0 119 -48q47 -47 47 -114q0 -55 -43 -119l-145 -223h-134l103 178q-55 13 -87 58q-32 44 -32 104q0 69 47 116zM834 1059q-11 85 -72 134q-62 50 -158 50q-86 0 -142 -44t-56 -116q0 -68 50 -104q48 -36 144 -59l195 -48q187 -45 278 -157
q92 -113 92 -271q0 -139 -67 -245t-191 -165q-121 -59 -284 -59q-161 0 -283 58q-122 57 -195 161q-72 102 -86 238l295 43q4 -96 76 -154q73 -59 191 -59q102 0 164 44q61 43 61 122q0 118 -152 156l-192 47q-217 52 -315 161q-99 106 -99 273q0 140 67 244q66 104 183 161
q118 56 266 56q210 0 353 -106q144 -107 169 -287z" />
    <glyph glyph-name="uni0219" unicode="&#x219;" horiz-adv-x="966" 
d="M367 -141q47 47 125 47q72 0 119 -47q46 -46 46 -115q0 -55 -43 -119l-145 -223h-133l102 178q-55 13 -87 58q-32 46 -32 104q0 70 48 117zM625 700q-6 49 -42 82t-98 33q-52 0 -83 -23q-31 -24 -31 -65q0 -63 106 -88l152 -33q134 -31 205 -111q69 -81 69 -194
q0 -99 -53 -176q-52 -75 -149 -118q-97 -42 -222 -42q-177 0 -290 84q-112 84 -126 230l246 38q5 -55 48 -87q43 -33 120 -33q63 0 97 24q34 22 34 62q0 66 -92 90l-149 39q-287 78 -287 301q0 97 51 174q50 75 140 118q89 42 204 42q161 0 268 -80q105 -79 117 -213z" />
    <glyph glyph-name="uni021A" unicode="&#x21a;" horiz-adv-x="1163" 
d="M471 -131q47 47 125 47q72 0 119 -47t47 -115q0 -55 -43 -119l-146 -223h-133l103 178q-55 13 -87 58q-32 46 -32 104q0 70 47 117zM1118 1210h-389v-1210h-297v1210h-389v287h1075v-287z" />
    <glyph glyph-name="uni021B" unicode="&#x21b;" horiz-adv-x="911" 
d="M457 -150q47 48 125 48q72 0 119 -48q47 -47 47 -114q0 -55 -43 -119l-146 -223h-133l102 178q-53 13 -86 58q-32 44 -32 104q0 69 47 116zM551 762v-387q0 -85 41 -123q40 -37 121 -37q42 0 121 14v-225q-110 -37 -222 -37q-169 0 -260 100q-92 100 -92 269v426h-229
v250h229v284l291 33v-317h283v-250h-283z" />
    <glyph glyph-name="circumflex" unicode="&#x2c6;" horiz-adv-x="899" 
d="M535 1409l-82 170l-84 -170h-240l215 334h213l215 -334h-237z" />
    <glyph glyph-name="caron" unicode="&#x2c7;" horiz-adv-x="899" 
d="M369 1743l84 -168l82 168h237l-215 -334h-213l-215 334h240z" />
    <glyph glyph-name="breve" unicode="&#x2d8;" horiz-adv-x="759" 
d="M700 1722q4 -159 -83 -242q-88 -83 -234 -83q-147 0 -233 83q-87 82 -82 242h198q-4 -135 117 -135q58 0 90 35q31 33 29 100h198z" />
    <glyph glyph-name="dotaccent" unicode="&#x2d9;" horiz-adv-x="534" 
d="M153 1437q-44 47 -44 113q0 71 43 114q44 44 116 44q71 0 115 -44q43 -43 43 -114q0 -69 -43 -113q-43 -46 -115 -46t-115 46z" />
    <glyph glyph-name="ring" unicode="&#x2da;" horiz-adv-x="669" 
d="M142 1763q82 68 194 68t195 -68q81 -69 81 -194t-81 -195q-83 -71 -195 -71t-194 71q-81 70 -81 195t81 194zM263 1491q31 -29 73 -29q44 0 75 29q29 29 29 76t-29 76q-29 28 -75 28q-44 0 -73 -28q-30 -29 -30 -76t30 -76z" />
    <glyph glyph-name="ogonek" unicode="&#x2db;" horiz-adv-x="641" 
d="M328 -418q-95 0 -160 50q-64 51 -64 135q0 69 45 131q42 59 136 104l213 -2q-82 -33 -124 -70q-44 -39 -44 -73q0 -33 16 -49q16 -15 60 -15q36 0 71 19v-195q-64 -35 -149 -35z" />
    <glyph glyph-name="tilde" unicode="&#x2dc;" horiz-adv-x="907" 
d="M380 1703q35 -14 95 -44q74 -41 109 -41q61 0 61 65l-2 27h170q6 -39 6 -74q0 -105 -55 -163q-56 -60 -141 -60q-44 0 -87 17q-45 18 -90 43q-32 16 -62 30q-23 10 -46 10q-51 0 -51 -55q0 -18 6 -41h-170q-12 49 -12 92q0 93 51 152q51 57 135 57q45 0 83 -15z" />
    <glyph glyph-name="hungarumlaut" unicode="&#x2dd;" horiz-adv-x="1003" 
d="M289 1722h276l-219 -313h-248zM686 1722h279l-267 -313h-252z" />
    <glyph glyph-name="gravecomb" unicode="&#x300;" 
d="M-281 1409l-215 313h275l149 -313h-209z" />
    <glyph glyph-name="acutecomb" unicode="&#x301;" 
d="M-207 1722h260l-205 -313h-192z" />
    <glyph glyph-name="uni0302" unicode="&#x302;" 
d="M-365 1409l-81 170l-84 -170h-240l215 334h213l215 -334h-238z" />
    <glyph glyph-name="tildecomb" unicode="&#x303;" 
d="M-527 1703q35 -14 95 -44q74 -41 108 -41q60 0 62 65l-2 27h170q6 -39 6 -74q0 -104 -56 -163q-56 -60 -141 -60q-44 0 -87 17q-46 18 -89 43q-39 19 -63 30q-21 10 -45 10q-51 0 -52 -55q0 -20 7 -41h-170q-11 47 -13 92q0 93 51 152q52 57 136 57q46 0 83 -15z" />
    <glyph glyph-name="uni0304" unicode="&#x304;" 
d="M-102 1665v-205h-627v205h627z" />
    <glyph glyph-name="uni0306" unicode="&#x306;" 
d="M-59 1722q4 -159 -83 -242q-88 -83 -235 -83t-233 83t-82 242h198q-4 -135 117 -135q58 0 90 35q31 33 29 100h199z" />
    <glyph glyph-name="uni0307" unicode="&#x307;" 
d="M-382 1437q-44 47 -44 113q0 71 43 114q44 44 117 44q72 0 114 -44q43 -43 43 -114q0 -69 -43 -113q-43 -46 -114 -46q-73 0 -116 46z" />
    <glyph glyph-name="uni0308" unicode="&#x308;" 
d="M-823 1437q-45 47 -45 113q0 70 45 114q46 44 116 44q73 0 116 -45q44 -46 44 -113t-44 -113q-43 -46 -116 -46q-71 0 -116 46zM-379 1437q-45 47 -45 113q0 70 45 114q46 44 117 44q72 0 116 -45q44 -46 44 -113t-44 -113q-43 -46 -116 -46q-72 0 -117 46z" />
    <glyph glyph-name="uni030A" unicode="&#x30a;" 
d="M-530 1763q82 68 194 68t195 -68q82 -69 82 -194t-82 -195q-83 -71 -195 -71t-194 71q-80 71 -80 195q0 125 80 194zM-409 1491q31 -29 73 -29q44 0 75 29q30 29 30 76t-30 76q-29 28 -75 28q-44 0 -73 -28q-29 -29 -29 -76t29 -76z" />
    <glyph glyph-name="uni030B" unicode="&#x30b;" 
d="M-713 1722h277l-219 -313h-248zM-315 1722h278l-266 -313h-252z" />
    <glyph glyph-name="uni030C" unicode="&#x30c;" 
d="M-530 1743l84 -168l81 168h238l-215 -334h-213l-215 334h240z" />
    <glyph glyph-name="uni0312" unicode="&#x312;" 
d="M48 1448q-46 -45 -124 -45q-74 0 -119 46q-45 47 -45 116q0 57 39 116l148 226h135l-107 -181q56 -17 87 -58q32 -43 32 -103q0 -72 -46 -117z" />
    <glyph glyph-name="uni0326" unicode="&#x326;" 
d="M-440 -47q47 47 125 47q71 0 118 -47t47 -115q0 -55 -43 -119l-145 -223h-133l102 178q-55 13 -87 58q-31 44 -31 104q0 70 47 117z" />
    <glyph glyph-name="uni0327" unicode="&#x327;" 
d="M-240 -14l-24 -86q91 2 144 -40q54 -42 54 -126q0 -80 -60 -129q-59 -49 -153 -49q-123 0 -181 51t-58 135h156q2 -23 18 -35t41 -12t39 15q14 17 14 38q0 26 -19 39q-19 14 -48 14q-15 0 -29 -2l-66 37l58 176z" />
    <glyph glyph-name="uni0328" unicode="&#x328;" 
d="M-313 -418q-95 0 -160 50q-64 51 -64 135q0 69 44 131q42 60 137 104l213 -2q-82 -33 -124 -70q-44 -39 -44 -73q0 -33 16 -49q17 -15 59 -15q35 0 72 19v-195q-64 -35 -149 -35z" />
    <glyph glyph-name="uni0335" unicode="&#x335;" 
d="M-12 739v-207h-836v207h836z" />
    <glyph glyph-name="uni0336" unicode="&#x336;" 
d="M-125 748v-228h-1270v228h1270z" />
    <glyph glyph-name="uni0337" unicode="&#x337;" 
d="M-289 1210h291l-885 -1298h-291z" />
    <glyph glyph-name="uni0338" unicode="&#x338;" 
d="M-494 1067h209l-774 -1102h-211z" />
    <glyph glyph-name="Theta" unicode="&#x398;" horiz-adv-x="1572" 
d="M409 71q-164 98 -252 274q-89 178 -89 409q0 228 89 404q88 175 253 273q163 97 376 97q216 0 379 -97t254 -274q90 -175 90 -405q0 -232 -90 -407q-89 -176 -254 -274q-164 -98 -379 -98q-214 0 -377 98zM992 337q90 60 139 166q49 105 49 247q0 140 -49 248
q-49 107 -139 168q-89 59 -206 59q-115 0 -204 -59t-139 -167q-50 -109 -50 -247t50 -247t139 -167q91 -59 204 -59q118 0 206 58zM1006 852v-201h-437v201h437z" />
    <glyph glyph-name="uni03A9" unicode="&#x3a9;" horiz-adv-x="1916" 
d="M1780 319v-319h-723v322q143 59 221 182t78 272q0 114 -51 203q-52 88 -142 136t-202 48q-115 0 -206 -49t-143 -137q-53 -89 -53 -203q0 -161 82 -279q83 -121 221 -173v-322h-723v319h254q-98 101 -153 229q-56 129 -56 275q0 191 97 351q97 162 274 257q179 95 410 95
q233 0 408 -97q174 -97 269 -258q93 -160 93 -346q0 -292 -211 -506h256z" />
    <glyph glyph-name="uni03BC" unicode="&#x3bc;" horiz-adv-x="1257" 
d="M708 5q-74 -38 -159 -38q-93 0 -166 51v-417h-272v1413h292v-611q0 -103 48 -154t145 -50q82 0 132 53t50 151v611h293v-1014h-262v104q-28 -61 -101 -99z" />
    <glyph glyph-name="pi" unicode="&#x3c0;" horiz-adv-x="1261" 
d="M1010 -14q-139 0 -218 76q-79 75 -79 227v477h-201v-766h-291v766h-127v248h1088v-248h-176v-414q0 -63 29 -83q29 -21 81 -21q44 0 70 10v-248q-63 -24 -176 -24z" />
    <glyph glyph-name="uni04D9" unicode="&#x4d9;" horiz-adv-x="1142" 
d="M823 981q114 -65 179 -188q63 -123 63 -285q0 -161 -62 -285q-63 -122 -177 -190t-263 -68q-145 0 -253 62q-112 62 -171 173q-61 110 -61 257q0 70 14 137h692q-1 93 -65 152q-64 57 -164 57q-84 0 -151 -40q-69 -41 -95 -104l-229 89q40 134 172 217q130 82 303 82
q153 0 268 -66zM713 255q59 48 69 126h-411q6 -81 58 -127q53 -47 136 -47q88 0 148 48z" />
    <glyph glyph-name="uni0E3F" unicode="&#xe3f;" horiz-adv-x="1269" 
d="M1060 537q40 -71 40 -160q0 -175 -107 -276q-109 -101 -307 -101h-43v-233h-111v233h-364v1303l364 -3v197h111v-197q207 -1 323 -101q115 -99 115 -277q0 -92 -36 -160q-38 -69 -105 -109q79 -45 120 -116zM434 760h98v289h-98v-289zM643 1049v-289h6q70 0 110 40
t40 105q0 68 -41 106t-109 38h-6zM532 254v281h-98v-281h98zM783 293q40 39 40 102t-40 102q-41 38 -107 38h-33v-281h31q68 0 109 39z" />
    <glyph glyph-name="Wgrave" unicode="&#x1e80;" horiz-adv-x="2117" 
d="M938 1632l-215 314h274l150 -314h-209zM365 1497l227 -975l311 975h311l312 -973l227 973h338l-405 -1497h-300l-329 983l-328 -983h-295l-409 1497h340z" />
    <glyph glyph-name="wgrave" unicode="&#x1e81;" horiz-adv-x="1585" 
d="M696 1147l-215 313h275l149 -313h-209zM332 1012l94 -353q57 -238 57 -247q22 93 66 247l102 353h299l94 -350q54 -206 64 -250q25 120 63 250l97 350h295l-324 -1012h-266l-111 352q-55 191 -67 262q-11 -78 -70 -262l-113 -352h-274l-315 1012h309z" />
    <glyph glyph-name="Wacute" unicode="&#x1e82;" horiz-adv-x="2117" 
d="M1085 1907h261l-205 -314h-193zM365 1497l227 -975l311 975h311l312 -973l227 973h338l-405 -1497h-300l-329 983l-328 -983h-295l-409 1497h340z" />
    <glyph glyph-name="wacute" unicode="&#x1e83;" horiz-adv-x="1585" 
d="M844 1421h260l-205 -313h-192zM332 1012l94 -353q57 -238 57 -247q22 93 66 247l102 353h299l94 -350q54 -206 64 -250q25 120 63 250l97 350h295l-324 -1012h-266l-111 352q-55 191 -67 262q-11 -78 -70 -262l-113 -352h-274l-315 1012h309z" />
    <glyph glyph-name="Wdieresis" unicode="&#x1e84;" horiz-adv-x="2117" 
d="M707 1660q-45 46 -45 114q0 70 45 114q44 43 116 43q73 0 116 -45q44 -46 44 -112q0 -67 -44 -114q-43 -46 -116 -46q-71 0 -116 46zM1151 1660q-45 46 -45 114q0 70 45 114q44 43 117 43q72 0 116 -45q43 -44 43 -112q0 -67 -44 -114q-43 -46 -115 -46t-117 46z
M365 1497l227 -975l311 975h311l312 -973l227 973h338l-405 -1497h-300l-329 983l-328 -983h-295l-409 1497h340z" />
    <glyph glyph-name="wdieresis" unicode="&#x1e85;" horiz-adv-x="1585" 
d="M465 1175q-45 47 -45 113q0 70 45 114q46 44 117 44q72 0 116 -45q43 -44 43 -113q0 -67 -44 -114q-43 -46 -115 -46t-117 47zM909 1175q-45 47 -45 113q0 70 45 114q46 44 117 44q72 0 116 -45q44 -46 44 -113t-44 -114q-43 -46 -116 -46q-72 0 -117 47zM332 1012
l94 -353q57 -238 57 -247q22 93 66 247l102 353h299l94 -350q54 -206 64 -250q25 120 63 250l97 350h295l-324 -1012h-266l-111 352q-55 191 -67 262q-11 -78 -70 -262l-113 -352h-274l-315 1012h309z" />
    <glyph glyph-name="Ygrave" unicode="&#x1ef2;" horiz-adv-x="1378" 
d="M584 1632l-215 314h274l150 -314h-209zM358 1497l330 -584l332 584h346l-532 -901v-596h-291v596l-531 901h346z" />
    <glyph glyph-name="ygrave" unicode="&#x1ef3;" horiz-adv-x="1130" 
d="M465 1147l-215 313h274l150 -313h-209zM1116 1012l-612 -1442h-309l204 481l-387 961h314l219 -619l262 619h309z" />
    <glyph glyph-name="endash" unicode="&#x2013;" horiz-adv-x="1753" 
d="M1565 444h-1377v207h1377v-207z" />
    <glyph glyph-name="emdash" unicode="&#x2014;" horiz-adv-x="2236" 
d="M2048 444h-1860v207h1860v-207z" />
    <glyph glyph-name="quoteleft" unicode="&#x2018;" horiz-adv-x="544" 
d="M423 1146q32 -44 32 -106q0 -80 -52 -132t-135 -52q-88 0 -142 51t-54 131q0 68 55 144l225 319l109 -63l-127 -234q57 -13 89 -58z" />
    <glyph glyph-name="quoteright" unicode="&#x2019;" horiz-adv-x="561" 
d="M423 1483q54 -51 54 -131q0 -74 -51 -146l-229 -325l-113 67l129 234q-57 14 -90 60t-33 108q0 80 55 132q53 52 138 52q86 0 140 -51z" />
    <glyph glyph-name="quotesinglbase" unicode="&#x201a;" horiz-adv-x="622" 
d="M413 294q54 -54 54 -136q0 -46 -15 -87q-15 -40 -46 -83l-228 -316l-115 66l138 250q-61 13 -96 61q-35 47 -33 109q0 82 56 136t142 54q89 0 143 -54z" />
    <glyph glyph-name="quotedblleft" unicode="&#x201c;" horiz-adv-x="1026" 
d="M473 1438l-127 -234q57 -14 89 -59q32 -46 32 -105q0 -80 -52 -132t-134 -52q-88 0 -142 51q-55 51 -55 131q0 70 53 144l225 321zM903 1145q33 -45 33 -105q0 -80 -55 -132t-136 -52q-86 0 -140 51t-54 131q0 70 53 144l225 319l113 -63l-129 -234q57 -13 90 -59z" />
    <glyph glyph-name="quotedblright" unicode="&#x201d;" horiz-adv-x="1026" 
d="M420 1483q53 -51 53 -129q0 -68 -51 -146l-229 -319l-109 61l129 234q-59 14 -91 59q-32 46 -32 109q0 76 56 129t135 53q87 0 139 -51zM888 1483q54 -51 54 -129q0 -72 -51 -146l-229 -321l-111 63l127 234q-57 14 -89 59q-32 46 -32 109q0 78 55 130q53 52 136 52
q86 0 140 -51z" />
    <glyph glyph-name="quotedblbase" unicode="&#x201e;" horiz-adv-x="1243" 
d="M450 294q54 -54 54 -136q0 -48 -16 -87q-15 -40 -46 -83l-227 -316l-115 66l138 250q-61 13 -96 61q-35 47 -33 109q0 82 56 136q55 54 142 54q89 0 143 -54zM1015 294q54 -54 54 -136q0 -46 -15 -87q-15 -40 -46 -83l-228 -316l-114 66l137 250q-59 13 -95 61
q-34 46 -34 109q0 82 56 136t142 54q89 0 143 -54z" />
    <glyph glyph-name="dagger" unicode="&#x2020;" horiz-adv-x="716" 
d="M451 612h-185v521h-213v165h213v199h185v-199h213v-165h-213v-521z" />
    <glyph glyph-name="daggerdbl" unicode="&#x2021;" horiz-adv-x="716" 
d="M53 977h213v156h-213v165h213v199h185v-199h213v-165h-213v-156h213v-166h-213v-199h-185v199h-213v166z" />
    <glyph glyph-name="bullet" unicode="&#x2022;" horiz-adv-x="794" 
d="M240 228q-72 42 -114 115t-42 159q0 84 42 156q42 71 114 113q71 42 157 42t158 -42t114 -113q42 -72 42 -156q0 -86 -42 -159t-114 -115t-158 -42q-87 0 -157 42z" />
    <glyph glyph-name="ellipsis" unicode="&#x2026;" horiz-adv-x="1765" 
d="M146 27q-54 55 -54 137t54 135q53 53 139 53q83 0 139 -53q55 -52 55 -135q0 -81 -55 -136q-56 -57 -139 -57q-87 0 -139 56zM744 27q-54 56 -54 137q0 82 53 135t140 53q85 0 138 -53q52 -52 52 -135q0 -81 -53 -137q-52 -56 -137 -56q-87 0 -139 56zM1342 27
q-54 55 -54 137t54 135q53 53 137 53q88 0 141 -53t53 -135q0 -81 -53 -137q-52 -56 -141 -56q-85 0 -137 56z" />
    <glyph glyph-name="perthousand" unicode="&#x2030;" horiz-adv-x="2281" 
d="M190 1411q80 102 216 102q138 0 221 -101q82 -100 82 -263t-82 -264q-82 -103 -221 -103q-138 0 -217 103q-80 103 -80 264q0 160 81 262zM385 0l-149 111l993 1386l149 -106zM333 1019q26 -44 73 -44q102 0 102 174t-102 174q-98 0 -99 -174q0 -86 26 -130zM982 613
q81 100 220 100q137 0 218 -100t81 -263q0 -162 -81 -266t-218 -104q-136 0 -219 104q-82 103 -82 266q0 162 81 263zM1655 612q83 101 219 101q137 0 218 -100t81 -263q0 -162 -81 -266t-218 -104q-136 0 -219 104q-82 103 -82 266q0 161 82 262zM1202 174q49 0 75 44
t26 132q0 84 -27 128t-74 44q-100 0 -100 -172q0 -176 100 -176zM1874 174q49 0 75 44q25 43 25 132q0 85 -25 128q-26 44 -75 44q-48 0 -74 -44t-26 -128q0 -176 100 -176z" />
    <glyph glyph-name="minute" unicode="&#x2032;" horiz-adv-x="851" 
d="M438 1497h287l-350 -713h-248z" />
    <glyph glyph-name="second" unicode="&#x2033;" horiz-adv-x="1366" 
d="M438 1497h287l-350 -713h-248zM954 1497h287l-350 -713h-248z" />
    <glyph glyph-name="guilsinglleft" unicode="&#x2039;" horiz-adv-x="847" 
d="M432 537l342 -480h-336l-344 480l344 475h336z" />
    <glyph glyph-name="guilsinglright" unicode="&#x203a;" horiz-adv-x="847" 
d="M754 537l-342 -480h-338l344 480l-344 475h338z" />
    <glyph glyph-name="fraction" unicode="&#x2044;" horiz-adv-x="524" 
d="M-106 -100h-193l913 1736h191z" />
    <glyph glyph-name="uni2070" unicode="&#x2070;" horiz-adv-x="1052" 
d="M129 1374q58 126 165 194q105 66 241 66q137 0 238 -69q101 -71 156 -196q54 -126 54 -292q0 -179 -58 -305q-58 -127 -164 -192q-107 -66 -241 -66q-211 0 -330 152q-120 151 -120 403q0 176 59 305zM379 838q53 -84 147 -84q99 0 151 88t52 233q0 150 -53 233t-150 83
q-98 0 -149 -87t-51 -231q0 -150 53 -235z" />
    <glyph glyph-name="uni2074" unicode="&#x2074;" horiz-adv-x="978" 
d="M61 940l355 674h286l-368 -676h223v326h238v-326h145v-229h-145v-177h-238v177l-496 2v229z" />
    <glyph glyph-name="uni2075" unicode="&#x2075;" horiz-adv-x="929" 
d="M776 1187q101 -107 101 -276q0 -180 -110 -288q-109 -109 -288 -109q-173 0 -283 98t-120 258l254 31q1 -65 42 -106t103 -41t106 44q42 44 42 109q0 72 -42 119t-110 47q-51 0 -88 -24q-36 -25 -53 -66h-256l84 631h647v-232h-432l-21 -127q52 37 154 37q168 0 270 -105
z" />
    <glyph glyph-name="uni2076" unicode="&#x2076;" horiz-adv-x="909" 
d="M771 1173q91 -103 91 -270q0 -173 -108 -280q-110 -107 -287 -107t-287 107t-110 280q0 88 30 157q28 68 99 171l260 383h317l-244 -334q148 -4 239 -107zM569 798q39 42 39 109q0 69 -39 109q-39 41 -102 41t-102 -41q-39 -40 -39 -109q0 -66 39 -108q37 -43 102 -43
q63 0 102 42z" />
    <glyph glyph-name="uni2077" unicode="&#x2077;" horiz-adv-x="782" 
d="M758 1614v-219l-447 -863h-297l449 850h-440v232h735z" />
    <glyph glyph-name="uni2078" unicode="&#x2078;" horiz-adv-x="946" 
d="M840 1011q39 -71 39 -159q0 -98 -50 -175q-51 -76 -143 -120q-90 -43 -213 -43q-121 0 -211 43q-92 44 -143 120q-51 77 -51 177q0 86 39 156q37 68 104 106q-51 32 -81 85q-30 54 -30 126q0 88 47 159q46 70 131 110q83 40 195 40t195 -40q84 -41 130 -110
q46 -70 46 -159q0 -75 -30 -127t-81 -84q68 -35 107 -105zM387 1367q-31 -28 -31 -75t32 -74q31 -28 85 -28q52 0 83 28q32 27 32 74t-31 75t-86 28q-53 0 -84 -28zM582 790q41 35 41 91t-41 91q-40 34 -111 34q-67 0 -107 -35q-40 -34 -40 -90q0 -57 42 -92q43 -35 107 -35
q69 0 109 36z" />
    <glyph glyph-name="uni2079" unicode="&#x2079;" horiz-adv-x="925" 
d="M746 1524q108 -106 108 -281q0 -87 -29 -156q-30 -70 -100 -172l-260 -383h-318l244 332q-152 8 -241 109t-89 256q0 184 109 293q110 108 289 108q178 0 287 -106zM561 1131q39 41 39 108t-40 108q-40 42 -103 42q-61 0 -100 -41q-40 -40 -40 -109q0 -67 39 -108
t103 -41q63 0 102 41z" />
    <glyph glyph-name="uni2080" unicode="&#x2080;" horiz-adv-x="1052" 
d="M129 637q58 126 165 194q105 66 241 66q137 0 238 -69q101 -71 156 -196q54 -126 54 -292q0 -179 -58 -305t-164 -193q-107 -65 -241 -65q-212 0 -330 151q-120 153 -120 404q0 176 59 305zM379 100q53 -84 147 -84q98 0 151 89q52 88 52 233q0 150 -53 233
q-52 82 -150 82t-149 -87t-51 -230q0 -151 53 -236z" />
    <glyph glyph-name="uni2081" unicode="&#x2081;" horiz-adv-x="673" 
d="M555 877v-1082h-233v715h-248v166q129 0 183 51q55 52 65 150h233z" />
    <glyph glyph-name="uni2082" unicode="&#x2082;" horiz-adv-x="905" 
d="M829 29v-230l-696 -4v199l359 375q48 53 64 90q17 40 17 78q0 63 -32 98q-33 35 -88 35q-65 0 -100 -39q-34 -38 -34 -103q0 -24 3 -34l-230 26q-4 29 -4 49q0 90 43 166t127 121t201 45q171 0 268 -97q98 -98 98 -261q0 -109 -38 -180q-39 -72 -113 -152l-170 -182h325z
" />
    <glyph glyph-name="uni2083" unicode="&#x2083;" horiz-adv-x="866" 
d="M748 376q65 -89 65 -216q0 -110 -50 -198q-49 -85 -142 -136q-92 -49 -213 -49q-161 0 -262 88q-102 88 -119 235l252 45q1 -57 42 -93q39 -36 97 -36q61 0 100 41t39 105q0 62 -40 102q-41 41 -105 41q-56 0 -101 -22l-73 194l165 166l-342 2v232h691v-201l-181 -189
q111 -23 177 -111z" />
    <glyph glyph-name="uni2084" unicode="&#x2084;" horiz-adv-x="978" 
d="M61 203l355 674h286l-368 -676h223v325h238v-325h145v-230h-145v-176h-238v176l-496 2v230z" />
    <glyph glyph-name="uni2085" unicode="&#x2085;" horiz-adv-x="929" 
d="M776 450q101 -107 101 -276q0 -179 -110 -289q-109 -108 -288 -108q-174 0 -283 97q-110 98 -120 259l254 31q2 -67 42 -107q41 -41 103 -41t106 44q42 43 42 110q0 72 -42 119t-110 47q-51 0 -88 -24q-36 -25 -53 -66h-256l84 631h647v-232h-432l-21 -127q52 37 154 37
q168 0 270 -105z" />
    <glyph glyph-name="uni2086" unicode="&#x2086;" horiz-adv-x="909" 
d="M771 436q91 -103 91 -270q0 -174 -108 -281q-109 -106 -287 -106t-287 106q-110 107 -110 281q0 88 30 157q28 67 99 171l260 383h317l-244 -334q148 -4 239 -107zM569 60q39 42 39 110t-39 109q-39 40 -102 40t-102 -40q-39 -41 -39 -109q0 -66 39 -109q37 -43 102 -43
q63 0 102 42z" />
    <glyph glyph-name="uni2087" unicode="&#x2087;" horiz-adv-x="782" 
d="M758 877v-220l-447 -862h-297l449 850h-440v232h735z" />
    <glyph glyph-name="uni2088" unicode="&#x2088;" horiz-adv-x="946" 
d="M840 274q39 -70 39 -159q0 -98 -50 -175q-51 -76 -143 -120q-90 -43 -213 -43q-121 0 -211 43q-93 44 -143 119q-51 77 -51 178q0 85 39 156q37 68 104 106q-51 32 -81 85q-30 54 -30 126q0 88 47 159q46 70 131 110q83 40 195 40t195 -40q84 -41 130 -110
q46 -70 46 -159q0 -74 -30 -127t-81 -84q68 -35 107 -105zM387 630q-31 -28 -31 -75t32 -74q31 -28 85 -28q52 0 83 28q32 27 32 74t-31 75q-32 27 -86 27q-53 0 -84 -27zM582 52q41 36 41 91q0 56 -41 91q-40 34 -111 34q-69 0 -107 -34q-40 -34 -40 -91q0 -58 42 -92
q43 -35 107 -35q69 0 109 36z" />
    <glyph glyph-name="uni2089" unicode="&#x2089;" horiz-adv-x="925" 
d="M746 787q108 -107 108 -281q0 -87 -29 -156q-30 -70 -100 -172l-260 -383h-318l244 332q-152 8 -241 109t-89 256q0 184 109 293q110 108 289 108q178 0 287 -106zM561 393q39 41 39 109q0 67 -40 108q-41 41 -103 41q-61 0 -100 -41q-40 -40 -40 -108t39 -109t103 -41
q63 0 102 41z" />
    <glyph glyph-name="uni20A9" unicode="&#x20a9;" horiz-adv-x="1914" 
d="M1808 686h-186l-129 -686h-334l-137 686h-127l-137 -686h-334l-131 686h-187v127h164l-131 684h320l104 -684h127l133 684h269l135 -684h127l104 684h318l-129 -684h161v-127zM995 813l-37 188l-36 -188h73zM666 686h-84l36 -244zM1335 686h-84l47 -244z" />
    <glyph glyph-name="Euro" unicode="&#x20ac;" horiz-adv-x="1400" 
d="M1067 319l197 -157q-74 -96 -191 -146q-117 -51 -254 -51q-232 0 -384 142q-155 141 -204 409h-94v189h76v45v41h-76v186h94q45 267 200 410q155 141 388 141q143 0 258 -51q115 -52 187 -148l-197 -153q-90 104 -242 104q-134 0 -211 -73q-79 -73 -106 -230h432
l-20 -186h-431v-41v-45h424l-18 -189h-387q28 -155 107 -229q77 -74 210 -74q151 0 242 106z" />
    <glyph glyph-name="uni20B9" unicode="&#x20b9;" horiz-adv-x="1290" 
d="M911 1276q41 -72 56 -166h247v-221h-249q-35 -174 -168 -279q-133 -106 -336 -106h-21l461 -504h-369l-456 504v221h309q225 0 272 164h-577v221h577q-45 166 -272 166h-309v221h1138v-221h-303z" />
    <glyph glyph-name="uni20BA" unicode="&#x20ba;" horiz-adv-x="1292" 
d="M1080 305q-98 -149 -273 -230t-406 -81q-53 0 -102 6v678l-184 -70v170l184 68v108l-184 -69v172l184 65v375h289v-268l291 106v-172l-291 -106v-107l289 105v-166l-289 -107v-506q132 13 217 115q83 100 88 256h283q0 -193 -96 -342z" />
    <glyph glyph-name="uni20BD" unicode="&#x20bd;" horiz-adv-x="1415" 
d="M92 428h135v92h-135v258h135v719h561q154 0 270 -63q117 -65 178 -174q62 -112 62 -250q0 -136 -62 -249q-60 -110 -178 -176q-116 -65 -272 -65h-262v-92h363v-221h-363v-207h-297v207h-135v221zM766 778q102 0 164 65q61 64 61 154q0 114 -59 170q-60 54 -164 54h-244
v-443h242z" />
    <glyph glyph-name="uni2113" unicode="&#x2113;" horiz-adv-x="1146" 
d="M720 230q40 42 60 102l236 -68q-41 -135 -152 -218q-113 -83 -254 -83q-120 0 -208 64q-89 63 -144 184q-99 -25 -205 -25v220q72 0 146 16q-13 85 -15 199q0 246 70 453q70 208 196 332q124 124 285 124q147 0 232 -106q84 -106 84 -291q0 -171 -75 -334
q-76 -165 -205 -296q-130 -132 -296 -214q43 -99 141 -101q64 0 104 42zM436 524q165 108 268 276q103 169 103 355q0 78 -22 115t-70 37q-73 0 -138 -83t-104 -243q-39 -161 -39 -383q0 -44 2 -74z" />
    <glyph glyph-name="uni2116" unicode="&#x2116;" horiz-adv-x="2693" 
d="M1513 1262q71 122 192 191t273 69t273 -69t190 -192q68 -125 68 -280t-68 -279q-68 -123 -191 -193q-122 -69 -274 -69q-150 0 -271 69t-192 192q-71 122 -71 280q0 157 71 281zM131 1497h297l594 -991v991h297v-1497h-297l-594 989v-989h-297v1497zM1810 782
q62 -75 164 -75t166 75q64 73 64 199q0 125 -63 201q-65 75 -167 75t-164 -75q-63 -76 -63 -203q0 -123 63 -197zM2347 0h-674v207h674v-207z" />
    <glyph glyph-name="trademark" unicode="&#x2122;" horiz-adv-x="1546" 
d="M94 1497h553v-166h-180v-540h-195v540h-178v166zM1452 1497v-706h-170v204q0 126 8 172l-135 -368h-139l-139 370q6 -45 6 -174v-204h-170v706h194l176 -512l172 512h197z" />
    <glyph glyph-name="estimated" unicode="&#x212e;" horiz-adv-x="1677" 
d="M210 1173q92 180 256 278q165 99 374 99q210 0 374 -86q161 -85 252 -247q90 -162 90 -383q2 -17 3 -58q0 -41 -3 -59h-1218v-393q85 -123 221 -189q134 -67 309 -67q167 0 310 80q141 80 208 212l84 -32q-83 -164 -242 -254q-161 -92 -364 -92q-220 0 -390 98
q-168 97 -262 277q-93 179 -93 407q0 230 91 409zM338 797h1003v436q-82 108 -208 170q-126 61 -279 61q-164 0 -298 -71q-134 -72 -218 -197v-399z" />
    <glyph glyph-name="oneeighth" unicode="&#x215b;" horiz-adv-x="1998" 
d="M1893 439q36 -65 36 -142q0 -139 -102 -227q-101 -88 -266 -88q-170 0 -273 88q-102 88 -102 229q0 77 35 141q34 61 94 97q-45 27 -73 76t-28 116q0 125 96 205q95 80 251 80q153 0 244 -79q93 -79 93 -204q0 -67 -28 -116t-74 -78q60 -32 97 -98zM1479 766
q-27 -27 -27 -70q0 -40 29 -66t78 -26q46 0 75 26t29 68q0 44 -30 69q-31 26 -79 26t-75 -27zM1661 240q39 32 39 84q0 49 -40 80q-41 32 -106 32q-61 0 -99 -32t-38 -80q0 -52 39 -84q38 -31 103 -31q64 0 102 31zM565 -100h-192l913 1736h191zM528 1530v-993h-215v657
h-243v152q230 0 243 184h215z" />
    <glyph glyph-name="threeeighths" unicode="&#x215c;" horiz-adv-x="2127" 
d="M2039 439q36 -65 36 -142q0 -139 -103 -227q-101 -88 -266 -88q-171 0 -272 88q-102 88 -103 229q0 77 35 141q34 61 94 97q-45 27 -72 76q-28 49 -28 116q0 125 95 205t251 80q153 0 245 -79q93 -79 93 -204q0 -66 -29 -116q-28 -48 -73 -78q60 -32 97 -98zM1624 766
q-27 -27 -27 -70q0 -40 29 -66t78 -26q47 0 76 26t28 68q0 43 -29 69q-31 26 -79 26q-49 0 -76 -27zM1806 240q39 32 39 84q0 49 -40 80q-41 32 -105 32q-61 0 -99 -32t-38 -80q0 -52 39 -84q38 -31 102 -31t102 31zM717 -100h-193l914 1736h190zM757 1071q60 -82 60 -199
q0 -101 -47 -183q-46 -80 -133 -126q-85 -45 -197 -45q-145 0 -239 82t-109 219l234 41q1 -52 38 -87q35 -34 89 -34q55 0 91 37q36 38 36 98q0 57 -36 96q-36 38 -95 38q-25 0 -50 -7q-27 -6 -43 -16l-69 176l157 158l-319 2v209h635v-182l-166 -174q103 -21 163 -103z" />
    <glyph glyph-name="fiveeighths" unicode="&#x215d;" horiz-adv-x="2119" 
d="M2031 439q37 -65 35 -142q0 -139 -102 -227q-101 -88 -266 -88q-170 0 -273 88q-102 88 -102 229q0 77 35 141q34 61 94 97q-45 27 -73 76q-29 50 -27 116q0 125 95 205t251 80q153 0 245 -79q93 -79 93 -204q0 -66 -29 -116q-28 -49 -74 -78q62 -33 98 -98zM1616 766
q-27 -27 -27 -70q0 -40 29 -66t78 -26q47 0 76 26t28 68q0 44 -30 69q-31 26 -78 26q-49 0 -76 -27zM1798 240q39 32 39 84q0 49 -40 80q-41 32 -105 32q-60 0 -100 -32q-38 -32 -38 -80q0 -52 39 -84q38 -31 103 -31q64 0 102 31zM709 -100h-193l914 1736h190zM734 1138
q95 -95 95 -253q0 -164 -100 -264q-99 -99 -266 -101q-158 0 -259 89t-110 239l230 29q1 -59 37 -98q36 -36 98 -36q58 0 96 38q37 37 37 102q0 66 -38 107q-38 42 -99 42q-46 0 -80 -20t-47 -60h-238l80 578h590v-209h-395l-19 -121q49 33 139 33q154 0 249 -95z" />
    <glyph glyph-name="seveneighths" unicode="&#x215e;" horiz-adv-x="1851" 
d="M1364 1636l-911 -1736h-191l912 1736h190zM96 512l406 750h-410v196h641v-186l-414 -760h-223zM1726 418q33 -62 33 -139q0 -131 -97 -213t-255 -82t-255 82q-97 81 -97 215q0 76 34 137q32 60 91 92q-43 27 -70 75t-27 111q0 117 91 193q89 76 233 76t233 -76
q89 -77 89 -193q0 -63 -27 -111t-70 -75q60 -32 94 -92zM1329 736q-29 -26 -29 -70q0 -41 29 -67t76 -26q49 0 78 26q28 25 28 69q0 43 -28 68q-29 24 -78 24q-47 0 -76 -24zM1505 221q37 31 37 82q0 50 -38 82q-37 31 -99 31q-60 0 -98 -32q-37 -31 -37 -81t38 -82
q37 -31 97 -31q63 0 100 31z" />
    <glyph glyph-name="arrowleft" unicode="&#x2190;" horiz-adv-x="1953" 
d="M858 102l-100 -102l-631 635l631 635l100 -99l-465 -466h1434v-142h-1434z" />
    <glyph glyph-name="arrowup" unicode="&#x2191;" horiz-adv-x="1523" 
d="M762 1540l635 -639l-99 -98l-467 463v-1266l-141 2v1264l-461 -463l-102 100z" />
    <glyph glyph-name="arrowright" unicode="&#x2192;" horiz-adv-x="1953" 
d="M127 563v142h1429l-462 466l104 99l629 -635l-629 -635l-104 102l462 461h-1429z" />
    <glyph glyph-name="arrowdown" unicode="&#x2193;" horiz-adv-x="1523" 
d="M229 684l461 -463v1274l141 2v-1276l467 463l99 -96l-635 -637l-635 635z" />
    <glyph glyph-name="uni2196" unicode="&#x2196;" horiz-adv-x="1447" 
d="M266 1339v-657h-139v897h895v-143h-657l956 -953l-102 -98z" />
    <glyph glyph-name="uni2197" unicode="&#x2197;" horiz-adv-x="1746" 
d="M127 100l1255 1254h-743v143h981v-981h-141v744l-1250 -1260z" />
    <glyph glyph-name="uni2198" unicode="&#x2198;" horiz-adv-x="1746" 
d="M639 143h743l-1255 1256l102 98l1250 -1257v743h141v-981l-981 -2v143z" />
    <glyph glyph-name="uni2199" unicode="&#x2199;" horiz-adv-x="1746" 
d="M127 2v981h139v-743l1254 1257l100 -98l-1255 -1256h743v-143z" />
    <glyph glyph-name="uni21A9" unicode="&#x21a9;" horiz-adv-x="1886" 
d="M1581 1154q117 -114 117 -304q0 -186 -117 -301q-116 -115 -315 -115h-734v-264l-411 336l411 336v-264h734q138 0 214 72q76 70 76 200q0 125 -77 199q-77 73 -213 73h-207v146h207q198 0 315 -114z" />
    <glyph glyph-name="uni21AA" unicode="&#x21aa;" horiz-adv-x="1886" 
d="M1354 170v264h-733q-131 0 -229 53q-100 53 -152 146q-54 95 -54 217q0 190 118 304q119 114 317 114h206v-146h-206q-136 0 -213 -73q-78 -73 -78 -199q0 -129 77 -200q76 -72 214 -72h733v264l411 -336z" />
    <glyph glyph-name="uni21AF" unicode="&#x21af;" horiz-adv-x="3323" 
d="M1593 543h463v-543h-164l-20 162h-17q0 -12 -26 -56q-27 -45 -93 -84q-67 -40 -182 -40q-124 0 -221 57q-99 58 -154 173q-57 115 -57 284q0 177 67 295q66 118 174 175q107 56 234 56q101 0 198 -38q95 -38 164 -120q70 -83 89 -202h-227q-20 74 -76 118q-56 43 -143 43
q-127 0 -191 -90q-65 -91 -65 -229q0 -136 62 -231t189 -95q89 0 150 48t78 122h-232v195zM2168 833q-34 33 -34 80q0 45 33 77q34 32 80 32q45 0 77 -32q31 -31 31 -77q0 -48 -31 -80q-31 -34 -77 -34q-45 0 -79 34zM2449 833q-34 33 -34 80q0 45 33 77q32 32 79 32
q44 0 78 -32q33 -32 33 -77q0 -47 -33 -80q-33 -34 -78 -34t-78 34zM2705 979v43h168v-43h-61v-174h-53v174h-54zM3047 1022h86v-217h-53v184l-26 -184h-74l-29 184v-184h-53v217h92l25 -178zM925 884q124 -127 124 -380q0 -250 -124 -377t-343 -127h-394v1012h394
q218 0 343 -128zM744 245q85 61 85 259q0 195 -85 258q-86 63 -162 63h-131q-31 1 -61 14q-26 10 -44 21q-17 10 -20 14l-17 -16l22 -22q15 -16 36 -39q32 -26 40 -59q7 -31 7 -56v-356q0 -34 -10 -58q-9 -23 -22 -39q-10 -13 -15 -18l-58 -61l17 -15q7 2 30.5 10.5
t40.5 14.5q38 13 70 22h115q76 0 162 63zM2570 682q35 0 68 -6v-180q-16 2 -35 2q-98 0 -156 -52q-59 -53 -59 -163v-283h-219v520q0 98 -15 156h222q7 -49 8 -82q46 88 186 88z" />
    <glyph glyph-name="partialdiff" unicode="&#x2202;" horiz-adv-x="1263" 
d="M1141 720q39 -93 39 -214q0 -158 -68 -277q-67 -119 -189 -187q-121 -67 -282 -67t-282 67q-124 68 -191 187q-68 119 -68 277q0 156 60 274q58 117 167 183q107 65 246 65h13l-328 469h381l371 -547q92 -138 131 -230zM802 341q60 65 60 171q0 110 -61 175
q-62 65 -162 65q-97 0 -159 -65q-62 -67 -62 -175q0 -106 62 -171t159 -65q101 0 163 65z" />
    <glyph glyph-name="emptyset" unicode="&#x2205;" horiz-adv-x="1691" 
d="M1514 1083q81 -159 81 -340q0 -206 -100 -376q-101 -173 -272 -273q-173 -102 -375 -102q-142 0 -268 49l-88 -162h-226l140 256q-144 105 -226 264q-84 161 -84 344q0 201 102 373q100 172 273 273q172 100 377 100q137 0 266 -49l88 162h225l-139 -256
q143 -104 226 -263zM416 538q44 -97 121 -159l444 815q-63 18 -135 18q-130 0 -237 -61q-110 -62 -172 -167q-64 -106 -64 -241q0 -112 43 -205zM1085 330q107 62 171 170q63 108 63 243q0 110 -43 202q-43 93 -121 157l-442 -815q64 -17 133 -19q130 0 239 62z" />
    <glyph glyph-name="product" unicode="&#x220f;" horiz-adv-x="1376" 
d="M1364 1245h-268v-1515h-285v1515l-242 -2v-1513h-284v1513h-275v254h1354v-252z" />
    <glyph glyph-name="minus" unicode="&#x2212;" horiz-adv-x="1187" 
d="M1044 700v-215h-901v215h901z" />
    <glyph glyph-name="radical" unicode="&#x221a;" horiz-adv-x="1943" 
d="M1909 1499h-588l-621 -1663h-325l-373 821h346l178 -415l580 1558h803v-301z" />
    <glyph glyph-name="infinity" unicode="&#x221e;" horiz-adv-x="1953" 
d="M300 164q-107 59 -167 168q-61 107 -61 246q0 140 61 250q60 110 167 173q107 62 241 62q138 0 248 -72q109 -74 188 -192q175 264 436 264q135 0 242 -62q105 -62 167 -173q60 -111 60 -250q0 -137 -60 -245q-62 -109 -167 -168q-106 -61 -240 -61q-138 0 -248 71
t-190 187q-79 -116 -189 -187t-249 -71q-133 0 -239 60zM695 446q64 47 130 134q-67 91 -129 137q-64 47 -139 47q-80 0 -131 -52t-51 -132q0 -78 51 -129q51 -52 131 -52q73 0 138 47zM1525 450q50 50 50 130q0 79 -50 132q-49 52 -132 52q-73 0 -138 -47
q-66 -47 -127 -137q62 -87 127 -134t138 -47q83 0 132 51z" />
    <glyph glyph-name="integral" unicode="&#x222b;" horiz-adv-x="1253" 
d="M57 31q53 -11 101 -13q101 0 151 44q49 43 70 133l211 1001q33 175 135 254q103 80 289 80q109 0 180 -17v-239q-91 12 -121 12q-100 0 -145 -42q-44 -41 -70 -144l-192 -953q-40 -202 -140 -291q-100 -87 -276 -87q-77 0 -193 22v240z" />
    <glyph glyph-name="approxequal" unicode="&#x2248;" horiz-adv-x="1087" 
d="M156 861q71 77 176 77q51 0 96 -15q45 -17 123 -51q72 -33 101 -43q39 -14 77 -14q56 0 84 31q29 32 29 82h149q2 -18 2 -41q0 -143 -73 -212q-74 -69 -172 -69q-68 0 -122 19q-50 16 -139 53q-49 24 -87 37q-34 12 -64 12q-49 0 -71 -34q-23 -35 -17 -77h-154
q-10 168 62 245zM156 464q71 77 176 77q53 0 101 -16q49 -16 118 -50q62 -29 99 -41q42 -14 79 -14q56 0 84 31q29 31 29 81h149q2 -18 2 -40q0 -145 -73 -214q-74 -69 -172 -69q-64 0 -124 20q-61 20 -137 54q-49 24 -87 37q-34 12 -64 12q-49 0 -71 -34q-23 -35 -17 -77
h-154q-10 166 62 243z" />
    <glyph glyph-name="notequal" unicode="&#x2260;" horiz-adv-x="1124" 
d="M713 664l-90 -160h405v-219h-528l-74 -131h-211l74 131h-193v219h316l90 160h-406v219h531l71 129h209l-71 -129h192v-219h-315z" />
    <glyph glyph-name="lessequal" unicode="&#x2264;" horiz-adv-x="1171" 
d="M129 657v261l913 331v-272l-612 -191l612 -196v-268zM129 0v256h913v-256h-913z" />
    <glyph glyph-name="greaterequal" unicode="&#x2265;" horiz-adv-x="1171" 
d="M129 590l612 196l-612 191v272l913 -331v-261l-913 -335v268zM129 256h913v-256h-913v256z" />
    <glyph glyph-name="filledbox" unicode="&#x25a0;" horiz-adv-x="1855" 
d="M1690 1528v-1526h-1526v1526h1526z" />
    <glyph glyph-name="H22073" unicode="&#x25a1;" horiz-adv-x="1857" 
d="M1692 1528v-1528h-1528v1528h1528zM313 150h1235v1234h-1235v-1234z" />
    <glyph glyph-name="triagup" unicode="&#x25b2;" horiz-adv-x="1970" 
d="M1876 0h-1782l889 1473z" />
    <glyph glyph-name="uni25B3" unicode="&#x25b3;" horiz-adv-x="1961" 
d="M979 1466l889 -1466h-1774zM1681 104l-702 1158l-700 -1158h1402z" />
    <glyph glyph-name="lozenge" unicode="&#x25ca;" horiz-adv-x="1359" 
d="M94 760l457 768h246l469 -768l-469 -760h-246zM678 1393l-375 -635l375 -621l377 621z" />
    <glyph glyph-name="circle" unicode="&#x25cb;" horiz-adv-x="1767" 
d="M487 87q-183 107 -287 287q-106 181 -106 396q0 213 107 395q106 181 288 286q181 105 394 105t395 -105q183 -106 289 -286q106 -181 106 -395t-106 -395t-289 -288q-182 -107 -395 -107q-214 0 -396 107zM1206 217q146 86 233 233q87 145 87 320q0 173 -86 322
q-86 147 -233 233q-149 86 -322 86q-175 0 -323 -86q-148 -85 -234 -232q-86 -148 -86 -323q0 -174 86 -320q86 -148 234 -233q148 -86 323 -86q173 0 321 86z" />
    <glyph glyph-name="H18533" unicode="&#x25cf;" horiz-adv-x="1779" 
d="M493 85q-185 108 -291 291q-108 183 -108 400q0 218 108 399q106 181 291 288q182 106 400 106q216 0 398 -106q183 -107 289 -288t106 -399t-106 -400t-289 -291q-183 -108 -398 -108q-217 0 -400 108z" />
    <glyph glyph-name="uni261E" unicode="&#x261e;" horiz-adv-x="2455" 
d="M2288 698q0 -15 -4 -30q-27 -95 -152 -97q-36 0 -97 11q-102 18 -139 26q-58 12 -102 27q-34 12 -63 18q-32 7 -82 11q49 -58 49 -117q0 -38 -23 -70q-6 -9 -13 -18q-9 -11 -9 -21q0 -8 18 -37q17 -31 17 -63q0 -59 -43 -92t-115 -33q-42 0 -78 10q-40 11 -88 31
q-62 25 -100 35q-128 43 -373 43q-109 0 -240 -10q-45 -5 -86 -7q-67 0 -129 27q-39 14 -55 14q-18 0 -28 -7q-15 -11 -25 -23q-22 -25 -50 -39q-28 -15 -90 -13v768l56 2q37 1 55 -3q16 -4 39 -17q17 -11 32 -15q17 -5 42 -5q21 0 43 2l61 6q195 22 353 36q149 13 290 13
q119 0 168 -13q47 -12 94 -40q27 -19 62 -33q59 -21 217 -69q162 -50 252 -72q62 -21 122 -35q52 -13 152 -31q62 -14 62 -70zM1446 502q9 0 14 8t0 20q-62 157 -126 245q-69 93 -169 181q-23 20 -12 39h-63q-168 0 -328 -18q-153 -19 -383 -51q10 -86 10 -226l-2 -159
q0 -67 45 -98q45 -33 127 -33q128 0 225 70q97 68 127 173q0 1 1.5 4t3 7.5t2.5 9.5q4 17 13 25q10 8 23 8q17 0 28 -11q10 -13 17 -39q19 -58 49 -80q28 -22 121 -51l64 -22q26 -8 24 -31q0 -11 -7 -18q-8 -9 -19 -9q-4 0 -19 5q-30 13 -69 23q-49 12 -72 13h-6
q-31 0 -31 -16q0 -12 17 -29q51 -51 178 -51q59 0 98 17q37 16 37 63q0 15 -6 41q-18 56 -64 133q-60 97 -95 145q-48 67 -64 84q-6 10 -7 17q0 10 10 17q8 7 21 7q17 0 31 -14q105 -144 152 -220q40 -67 85 -165q8 -14 19 -14zM1331 923q-41 46 -64 58q-26 14 -59 14
q114 -99 179 -198q62 -97 120 -211q28 -54 29 -56q26 -39 55 -38q15 0 25 10t10 26q0 15 -8 33q-2 14 -42 65q-40 50 -69 87q-32 40 -43 51q-100 122 -133 159zM344 690q0 191 -14 236q-6 18 -19 18q-7 0 -11 -7q-5 -8 -5 -17q0 -167 1 -184q1 -18 1 -29q4 -17 4 -226
q0 -10 4 -17t10 -7q11 0 19 20q10 43 10 213zM2134 629q68 0 92 45q-42 5 -64 12q-18 6 -55 25q-59 32 -135 55q-41 13 -315 88q-44 12 -89 24t-64 17t-23 6q-6 2 -11 2q-10 0 -16 -6t-6 -14q0 -7 10 -21q22 -26 84 -66q61 -43 113 -65q36 -14 51 -14q7 0 20 8q8 7 14 18
q5 12 9 17q5 6 14 6q12 0 33 -21q71 -74 260 -108q56 -8 78 -8zM2175 723q20 -7 41 -11q25 -4 31 -3q-1 5 -29 13q-25 7 -45 7q-15 0 2 -6zM979 396q8 5 8 12q0 14 -24 29q-26 14 -58 14q-36 0 -98 -25q-19 -7 -21 -23q0 -14 29 -14l139 2q17 0 25 5zM1604 296q22 21 22 46
q0 17 -10 27t-29 10q-32 0 -70 -28q-40 -28 -40 -46q0 -9 20 -20t45 -11q40 0 62 22z" />
    <glyph glyph-name="uni262A" unicode="&#x262a;" horiz-adv-x="1767" 
d="M281 341q-109 169 -109 409t109 409q107 167 281 253q171 85 364 85q179 0 334 -73q155 -74 251 -203q-159 59 -305 59q-163 0 -288 -67q-128 -67 -198 -189q-71 -122 -71 -274q0 -154 71 -276q70 -121 197 -189q125 -68 287 -68q148 0 307 59q-94 -129 -250 -202
q-159 -74 -335 -74q-189 0 -363 86t-282 255zM1174 827l81 244l80 -244h260l-209 -155l80 -248l-211 154l-213 -154l82 248l-211 155h261z" />
    <glyph glyph-name="uni262E" unicode="&#x262e;" horiz-adv-x="1716" 
d="M465 67q-180 105 -285 285q-106 179 -106 393q0 210 107 392q106 180 286 286q180 105 391 105q210 0 392 -105q180 -107 285 -285q105 -180 105 -393q0 -211 -105 -391q-105 -179 -285 -286t-392 -107q-214 0 -393 106zM780 805v565q-153 -19 -279 -109t-198 -226
t-72 -290q0 -129 48 -245zM1489 745q0 155 -71 291q-72 135 -197 224q-125 88 -279 108v-563l500 -303q47 120 47 243zM780 612l-415 -260q72 -93 182 -154q107 -61 233 -79v493zM1174 200q106 60 180 156l-412 256v-491q127 18 232 79z" />
    <glyph glyph-name="uni2639" unicode="&#x2639;" horiz-adv-x="1398" 
d="M989 1008q135 -78 214 -211t79 -291t-79 -291q-79 -132 -214 -212q-134 -79 -293 -79q-156 0 -289 78q-132 77 -211 212q-79 133 -79 292q0 156 79 289q77 132 212 212q134 78 288 78q157 0 293 -77zM1126 353q27 73 27 153q0 122 -61 226q-62 104 -167 164
q-107 60 -229 60t-225 -60q-104 -60 -164 -164q-61 -104 -61 -226q0 -80 27 -153q26 -74 75 -134q46 94 144 151q97 56 206 56q113 0 208 -56q96 -58 143 -151q47 57 77 134zM600 768q25 -40 25 -111q0 -69 -25 -109q-26 -42 -65 -42q-43 0 -67 41t-24 110q0 71 24 111
q24 41 67 41q39 0 65 -41zM926 767q24 -42 24 -110q0 -67 -25 -108q-25 -43 -65 -43q-41 0 -65 42q-25 41 -25 109q0 69 25 110q24 42 65 42q40 0 66 -42zM696 53q79 0 150 25q72 24 129 69q-41 69 -116 109q-76 41 -161 41t-159 -41q-73 -40 -117 -109q121 -94 274 -94z
" />
    <glyph glyph-name="smileface" unicode="&#x263a;" horiz-adv-x="1398" 
d="M406 2q-135 79 -211 212q-78 134 -78 292t78 291q76 132 211 211q134 77 290 77q160 0 294 -77q134 -78 213 -211t79 -291q0 -159 -79 -292q-80 -134 -213 -212q-134 -78 -294 -78q-156 0 -290 78zM926 114q105 61 166 165q61 103 61 227q0 122 -61 226q-62 104 -167 164
q-107 60 -229 60t-225 -60q-104 -60 -164 -164q-61 -104 -61 -226q0 -123 61 -226q60 -104 163 -165q104 -62 226 -62q126 0 230 61zM469 533q-23 41 -23 110q0 67 23 108q22 40 63 40q43 0 67 -40q24 -41 24 -108q0 -72 -24 -111q-24 -40 -67 -40q-40 0 -63 41zM795 533
q-25 40 -25 110q0 68 25 108q24 40 67 40q40 0 65 -42q25 -41 25 -106q0 -69 -24 -109q-26 -42 -66 -42q-43 0 -67 41zM399 467q39 -77 123 -127q83 -49 176 -49t176 49q85 50 125 127l72 -59q-39 -109 -143 -177q-105 -69 -230 -69q-124 0 -228 70q-104 68 -142 176z" />
    <glyph glyph-name="invsmileface" unicode="&#x263b;" horiz-adv-x="1349" 
d="M383 4q-133 78 -211 211t-78 291t79 291t211 211q133 77 288 77q158 0 292 -77q134 -78 213 -211q78 -133 78 -291t-78 -291q-79 -133 -213 -211q-135 -78 -292 -78q-156 0 -289 78zM575 530q23 41 23 113q0 67 -23 108q-24 40 -65 40t-65 -41q-25 -40 -25 -107
q0 -71 25 -112q24 -42 65 -42t65 41zM902 531q24 42 24 112q0 66 -26 107t-64 41q-42 0 -64 -40q-24 -41 -24 -108q0 -70 24 -112q22 -42 64 -42q40 0 66 42zM904 234q104 69 143 176l-74 57q-38 -79 -120 -125q-83 -47 -179 -47t-178 48q-81 47 -119 124l-72 -57
q37 -106 142 -176q103 -70 227 -70q126 0 230 70z" />
    <glyph glyph-name="uni2713" unicode="&#x2713;" horiz-adv-x="1665" 
d="M1542 991l-940 -850l-481 549l209 189l297 -347l735 668z" />
    <glyph glyph-name="uni2764" unicode="&#x2764;" horiz-adv-x="1325" 
d="M541 233q-74 63 -181 132q-84 52 -127 87q-49 39 -76 94q-30 56 -30 136q0 137 85 222t210 85q88 0 150 -44q60 -43 92 -120q29 80 90 122q62 42 147 42q129 0 213 -85q84 -86 84 -222q0 -80 -29 -136q-30 -57 -76 -94q-47 -38 -126 -87q-109 -71 -180 -132
q-72 -63 -123 -165q-52 102 -123 165z" />
    <glyph glyph-name="uni2776" unicode="&#x2776;" horiz-adv-x="1806" 
d="M509 62q-177 102 -279 280q-103 178 -103 393q0 216 103 394q102 178 279 280t392 102q217 0 396 -102q178 -102 280 -280q102 -179 102 -394t-102 -393t-280 -280q-178 -103 -396 -103q-216 0 -392 103zM1016 362v748h-133q-6 -59 -56 -94q-52 -35 -137 -35v-94h193
v-525h133z" />
    <glyph glyph-name="uni2777" unicode="&#x2777;" horiz-adv-x="1806" 
d="M509 62q-177 102 -279 280q-103 178 -103 393q0 216 103 394q102 178 279 280t392 102q217 0 396 -102q178 -102 280 -280q102 -179 102 -394t-102 -393t-280 -280q-178 -103 -396 -103q-216 0 -392 103zM1153 354v133h-266l157 170q48 53 74 103q27 51 27 123
q0 108 -65 173q-65 64 -181 64t-180 -64q-66 -64 -66 -163q0 -19 2 -33l131 -16q-2 10 -2 24q0 52 29 86q29 33 82 33q50 0 78 -28t28 -80q0 -63 -63 -129l-260 -279v-119z" />
    <glyph glyph-name="uni2778" unicode="&#x2778;" horiz-adv-x="1806" 
d="M509 62q-177 102 -279 280q-103 178 -103 393q0 216 103 394q102 178 279 280t392 102q217 0 396 -102q178 -102 280 -280q102 -179 102 -394t-102 -393t-280 -280q-178 -103 -396 -103q-216 0 -392 103zM1093 427q74 74 74 187q0 96 -50 158q-49 62 -138 72l149 155v117
h-464v-131h272l-148 -149l43 -111q33 10 66 10q56 0 90 -31q35 -32 35 -88q0 -54 -35 -89t-88 -35q-49 0 -82 30q-33 29 -35 80l-143 -29q11 -99 80 -158q68 -61 178 -61q122 0 196 73z" />
    <glyph glyph-name="uni2779" unicode="&#x2779;" horiz-adv-x="1806" 
d="M509 62q-177 102 -279 280q-103 178 -103 393q0 216 103 394q102 178 279 280t392 102q217 0 396 -102q178 -102 280 -280q102 -179 102 -394t-102 -393t-280 -280q-178 -103 -396 -103q-216 0 -392 103zM1096 362v132h102v131l-102 2v241h-140v-241h-194l268 483h-164
l-260 -483v-131h350v-134h140z" />
    <glyph glyph-name="uni277A" unicode="&#x277a;" horiz-adv-x="1806" 
d="M509 62q-177 102 -279 280q-103 178 -103 393q0 216 103 394q102 178 279 280t392 102q217 0 396 -102q178 -102 280 -280q102 -179 102 -394t-102 -393t-280 -280q-178 -103 -396 -103q-216 0 -392 103zM1098 429q73 74 73 196q0 117 -69 189q-71 71 -182 71
q-78 0 -121 -33l20 133h305v131h-426l-57 -426h143q12 31 44 51q31 19 71 19q57 0 92 -38t35 -99q0 -57 -36 -93t-89 -36t-86 34q-33 33 -33 88l-145 -20q7 -109 81 -175q73 -67 185 -67q121 0 195 75z" />
    <glyph glyph-name="uni277B" unicode="&#x277b;" horiz-adv-x="1806" 
d="M509 62q-177 102 -279 280q-103 178 -103 393q0 216 103 394q102 178 279 280t392 102q217 0 396 -102q178 -102 280 -280q102 -179 102 -394t-102 -393t-280 -280q-178 -103 -396 -103q-216 0 -392 103zM697 433q73 -73 192 -73q122 0 195 73t73 192q0 103 -54 174
q-54 68 -147 82q-35 4 -53 2l174 239h-180l-190 -280q-43 -63 -64 -113q-20 -48 -20 -104q0 -118 74 -192zM803 722q33 36 88 36q52 0 87 -35q34 -34 34 -94q0 -56 -35 -94q-34 -37 -88 -37q-53 0 -86 35t-33 94t33 95z" />
    <glyph glyph-name="uni277C" unicode="&#x277c;" horiz-adv-x="1806" 
d="M509 62q-177 102 -279 280q-103 178 -103 393q0 216 103 394q102 178 279 280t392 102q217 0 396 -102q178 -102 280 -280q102 -179 102 -394t-102 -393t-280 -280q-178 -103 -396 -103q-216 0 -392 103zM848 360l317 623v127h-497v-133h329l-319 -617h170z" />
    <glyph glyph-name="uni277D" unicode="&#x277d;" horiz-adv-x="1806" 
d="M509 62q-177 102 -279 280q-103 178 -103 393q0 216 103 394q102 178 279 280t392 102q217 0 396 -102q178 -102 280 -280q102 -179 102 -394t-102 -393t-280 -280q-178 -103 -396 -103q-216 0 -392 103zM1102 419q76 64 76 165q0 66 -32 116q-32 51 -83 70q41 20 65 60
q23 41 23 96q0 91 -68 150q-69 57 -182 57q-111 0 -178 -58q-68 -59 -68 -151q0 -52 24 -93q22 -39 62 -61q-51 -22 -81 -72q-31 -49 -31 -112q0 -103 76 -167q76 -65 198 -65t199 65zM828 842q-27 24 -27 65t28 66q27 24 74 24q45 0 74 -24q29 -26 29 -66q0 -41 -29 -65
q-28 -25 -76 -25t-73 25zM811 523q-35 29 -35 77q0 47 35 77t92 30t93 -30t36 -77q0 -48 -35 -77q-37 -29 -96 -29q-55 0 -90 29z" />
    <glyph glyph-name="uni277E" unicode="&#x277e;" horiz-adv-x="1806" 
d="M509 62q-177 102 -279 280q-103 178 -103 393q0 216 103 394q102 178 279 280t392 102q217 0 396 -102q178 -102 280 -280q102 -179 102 -394t-102 -393t-280 -280q-178 -103 -396 -103q-216 0 -392 103zM907 360l191 281q45 63 66 111q20 48 20 106q0 119 -73 192
q-73 72 -193 72q-121 0 -194 -73t-73 -201q0 -112 67 -180q66 -70 175 -70h6l-172 -238h180zM830 760q-33 34 -33 94q0 59 33 95q32 36 85 36q55 0 89 -36q34 -35 34 -93q0 -59 -33 -95q-35 -36 -90 -36q-53 0 -85 35z" />
    <glyph glyph-name="uni2780" unicode="&#x2780;" horiz-adv-x="1806" 
d="M1297 1409q178 -102 280 -280q102 -179 102 -394t-102 -393t-280 -280q-178 -103 -396 -103q-216 0 -392 103q-177 102 -279 280q-103 178 -103 393q0 216 103 394q102 178 279 280t392 102q217 0 396 -102zM1228 178q143 84 226 231q82 145 82 326q0 182 -82 330
q-83 147 -226 231q-146 84 -327 84q-182 0 -326 -84q-144 -83 -227 -231q-82 -146 -82 -330q0 -181 82 -326q83 -148 227 -231q144 -84 326 -84q181 0 327 84zM827 1016q50 35 56 94h133v-748h-133v525h-193v94q85 0 137 35z" />
    <glyph glyph-name="uni2781" unicode="&#x2781;" horiz-adv-x="1806" 
d="M1297 1409q178 -102 280 -280q102 -179 102 -394t-102 -393t-280 -280q-178 -103 -396 -103q-216 0 -392 103q-177 102 -279 280q-103 178 -103 393q0 216 103 394q102 178 279 280t392 102q217 0 396 -102zM1228 178q143 84 226 231q82 145 82 326q0 182 -82 330
q-83 147 -226 231q-146 84 -327 84q-182 0 -326 -84q-144 -83 -227 -231q-82 -146 -82 -330q0 -181 82 -326q83 -148 227 -231q144 -84 326 -84q181 0 327 84zM887 487h266v-133l-475 -2v119l260 279q36 37 50 68q13 29 13 63q0 50 -28 78t-78 28q-53 0 -82 -32
q-29 -34 -29 -87q0 -14 2 -24l-131 16q-2 14 -2 33q0 99 66 163q64 64 180 64t181 -64q65 -65 65 -173q0 -71 -26 -123q-26 -50 -75 -103z" />
    <glyph glyph-name="uni2782" unicode="&#x2782;" horiz-adv-x="1806" 
d="M1297 1409q178 -102 280 -280q102 -179 102 -394t-102 -393t-280 -280q-178 -103 -396 -103q-216 0 -392 103q-177 102 -279 280q-103 178 -103 393q0 216 103 394q102 178 279 280t392 102q217 0 396 -102zM1228 178q143 84 226 231q82 145 82 326q0 182 -82 330
q-83 147 -226 231q-146 84 -327 84q-182 0 -326 -84q-144 -83 -227 -231q-82 -146 -82 -330q0 -181 82 -326q83 -148 227 -231q144 -84 326 -84q181 0 327 84zM1117 773q50 -62 50 -159q0 -115 -74 -187q-74 -73 -196 -73q-110 0 -178 61q-69 59 -80 158l143 29
q1 -50 35 -79t82 -29q54 0 88 34q35 33 35 88t-35 87t-90 32q-40 0 -66 -10l-43 111l148 149h-272v131h464v-117l-149 -155q89 -11 138 -71z" />
    <glyph glyph-name="uni2783" unicode="&#x2783;" horiz-adv-x="1806" 
d="M509 62q-177 102 -279 280q-103 178 -103 393q0 216 103 394q102 178 279 280t392 102q217 0 396 -102q178 -102 280 -280q102 -179 102 -394t-102 -393t-280 -280q-178 -103 -396 -103q-216 0 -392 103zM1228 178q143 84 226 231q82 145 82 326q0 182 -82 330
q-83 147 -226 231q-146 84 -327 84q-182 0 -326 -84q-144 -83 -227 -231q-82 -146 -82 -330q0 -181 82 -326q83 -148 227 -231q144 -84 326 -84q181 0 327 84zM606 627l260 483h164l-268 -483h194v241h140v-241l102 -2v-131h-102v-132h-140v134h-350v131z" />
    <glyph glyph-name="uni2784" unicode="&#x2784;" horiz-adv-x="1806" 
d="M1297 1409q178 -102 280 -280q102 -179 102 -394t-102 -393t-280 -280q-178 -103 -396 -103q-216 0 -392 103q-177 102 -279 280q-103 178 -103 393q0 216 103 394q102 178 279 280t392 102q217 0 396 -102zM1228 178q143 84 226 231q82 145 82 326q0 182 -82 330
q-83 147 -226 231q-146 84 -327 84q-182 0 -326 -84q-144 -83 -227 -231q-82 -146 -82 -330q0 -181 82 -326q83 -148 227 -231q144 -84 326 -84q181 0 327 84zM1102 813q69 -72 69 -188q0 -122 -73 -196q-74 -75 -195 -75q-114 0 -185 67q-74 66 -81 175l145 20
q0 -55 33 -88q33 -34 86 -34t89 36q36 34 36 93q0 61 -35 99t-92 38q-41 0 -71 -18q-30 -19 -44 -52h-143l57 426h426v-131h-305l-20 -133q43 33 121 33q112 0 182 -72z" />
    <glyph glyph-name="uni2785" unicode="&#x2785;" horiz-adv-x="1806" 
d="M1297 1409q178 -102 280 -280q102 -179 102 -394t-102 -393t-280 -280q-178 -103 -396 -103q-216 0 -392 103q-177 102 -279 280q-103 178 -103 393q0 216 103 394q102 178 279 280t392 102q217 0 396 -102zM1228 178q143 84 226 231q82 145 82 326q0 182 -82 330
q-83 147 -226 231q-146 84 -327 84q-182 0 -326 -84q-144 -83 -227 -231q-82 -146 -82 -330q0 -181 82 -326q83 -148 227 -231q144 -84 326 -84q181 0 327 84zM1086 807q65 -73 65 -189q0 -119 -73 -191q-73 -73 -193 -73t-193 73q-74 74 -74 191q0 56 20 105q21 50 64 113
l191 280h180l-174 -239q8 2 14 2q107 0 173 -72zM973 529q33 35 33 94t-33 94t-88 35t-88 -36t-33 -95q0 -57 33 -92q32 -35 88 -35q55 0 88 35z" />
    <glyph glyph-name="uni2786" unicode="&#x2786;" horiz-adv-x="1806" 
d="M1297 1409q178 -102 280 -280q102 -179 102 -394t-102 -393t-280 -280q-178 -103 -396 -103q-216 0 -392 103q-177 102 -279 280q-103 178 -103 393q0 216 103 394q102 178 279 280t392 102q217 0 396 -102zM1228 178q143 84 226 231q82 145 82 326q0 182 -82 330
q-83 147 -226 231q-146 84 -327 84q-182 0 -326 -84q-144 -83 -227 -231q-82 -146 -82 -330q0 -181 82 -326q83 -148 227 -231q144 -84 326 -84q181 0 327 84zM659 1110h494v-125l-315 -623h-170l319 617h-328v131z" />
    <glyph glyph-name="uni2787" unicode="&#x2787;" horiz-adv-x="1806" 
d="M1297 1409q178 -102 280 -280q102 -179 102 -394t-102 -393t-280 -280q-178 -103 -396 -103q-216 0 -392 103q-177 102 -279 280q-103 178 -103 393q0 216 103 394q102 178 279 280t392 102q217 0 396 -102zM1228 178q143 84 226 231q82 145 82 326q0 182 -82 330
q-83 147 -226 231q-146 84 -327 84q-182 0 -326 -84q-144 -83 -227 -231q-82 -146 -82 -330q0 -181 82 -326q83 -148 227 -231q144 -84 326 -84q181 0 327 84zM1146 700q32 -52 32 -116q0 -101 -76 -165q-77 -65 -199 -65t-198 65q-76 64 -76 167q0 64 31 113q29 48 81 71
q-40 20 -62 60q-24 40 -24 94q0 92 68 151q67 58 178 58q113 0 182 -57q68 -59 68 -150q0 -54 -23 -95q-23 -39 -65 -61q51 -19 83 -70zM829 973q-28 -25 -28 -66t28 -65q26 -25 72 -25q47 0 76 26t29 64q0 40 -29 66q-29 24 -74 24q-47 0 -74 -24zM997 523q35 29 35 77
q0 47 -35 77q-36 30 -94 30q-57 0 -92 -30t-35 -77q0 -48 35 -77t90 -29q59 0 96 29z" />
    <glyph glyph-name="uni2788" unicode="&#x2788;" horiz-adv-x="1806" 
d="M1297 1409q178 -102 280 -280q102 -179 102 -394t-102 -393t-280 -280q-178 -103 -396 -103q-216 0 -392 103q-177 102 -279 280q-103 178 -103 393q0 216 103 394q102 178 279 280t392 102q217 0 396 -102zM1228 178q143 84 226 231q82 145 82 326q0 182 -82 330
q-83 147 -226 231q-146 84 -327 84q-182 0 -326 -84q-144 -83 -227 -231q-82 -146 -82 -330q0 -181 82 -326q83 -148 227 -231q144 -84 326 -84q181 0 327 84zM1111 1050q73 -73 73 -192q0 -58 -20 -106q-21 -46 -66 -111l-191 -281h-180l172 238h-6q-109 0 -175 70
q-67 68 -67 180q0 128 73 201t194 73q120 0 193 -72zM1005 761q33 36 33 95q0 57 -33 93q-35 36 -90 36q-53 0 -85 -36q-33 -36 -33 -95q0 -60 33 -94q32 -35 85 -35q55 0 90 36z" />
    <glyph glyph-name="uni27F2" unicode="&#x27f2;" horiz-adv-x="1773" 
d="M220 1126q98 175 272 273q175 98 393 98q154 0 292 -50q136 -49 238 -144l178 178v-525h-524l193 199q-71 65 -169 100q-98 33 -208 33q-161 0 -285 -70t-195 -197t-71 -286q0 -161 71 -289t195 -198q124 -72 285 -72q166 0 296 76t199 211q68 135 60 305h211
q7 -230 -87 -411q-96 -183 -274 -286q-179 -104 -405 -104q-219 0 -393 99q-174 96 -272 272q-97 173 -97 395q0 220 97 393z" />
    <glyph glyph-name="uniF8FF" unicode="&#xf8ff;" horiz-adv-x="1513" 
d="M896 1251q-52 -29 -96 -39q-14 -4 -24 -6.5t-15 -3.5t-5 0t-2 21q-2 18 -2 30q0 100 67 191q49 62 105 94q55 31 101 40q24 5 34.5 6t11.5 -1q0 -5 1 -10t1 -23q0 -122 -84 -223q-40 -49 -93 -76zM332 112q-95 110 -157 280q-62 171 -62 327q0 147 55 256q56 108 142 165
q88 56 184 56q44 0 80 -10q43 -13 81 -29q7 -1 42 -15q36 -14 67 -14q24 0 51 10q36 12 53 19q58 25 93 34q42 11 96 11q93 0 161 -34q68 -35 106 -76t38 -48q0 6 -48 -32q-48 -39 -87 -105q-39 -67 -39 -162q0 -106 47 -177q46 -71 107 -112q59 -41 59 -34q0 -13 -47 -124
q-47 -110 -126 -203q-80 -93 -179 -93q-46 0 -123 31q-26 9 -76 25q-30 8 -64 8t-69 -9q-42 -13 -80 -28q-3 -1 -60 -19q-29 -10 -55 -10q-94 0 -190 112z" />
    <glyph glyph-name="A.salt" horiz-adv-x="1454" 
d="M1073 0l-80 236q-122 -43 -264 -43q-137 0 -272 45l-80 -238h-359l553 1497h314l551 -1497h-363zM727 479q92 0 174 25l-88 258l-86 303q-50 -176 -92 -303l-86 -256q82 -27 178 -27z" />
    <glyph glyph-name="G.aalt" horiz-adv-x="1613" 
d="M1499 825v-825h-266l-10 141q-77 -85 -190 -128q-117 -44 -255 -44q-212 0 -373 96q-160 94 -249 268q-88 172 -88 402q0 233 94 414q95 181 265 281t392 100q162 0 303 -56q137 -57 234 -158q95 -101 133 -235l-289 -112q-34 119 -139 194q-105 72 -244 72
q-126 0 -221 -61q-96 -62 -149 -172q-54 -111 -54 -254q0 -217 117 -349q117 -133 315 -133q163 0 273 87q108 87 125 227h-435v245h711z" />
    <glyph glyph-name="Q.aalt" horiz-adv-x="1646" 
d="M1610 4l-666 -4q-88 -8 -125 -8q-219 0 -390 99q-172 99 -266 276q-95 176 -95 395q0 218 95 394q93 174 266 275q171 99 390 99t391 -99q173 -101 268 -275q95 -176 95 -394q0 -143 -44 -275t-126 -229q55 4 90 4h119zM448 517q54 -107 151 -165q98 -59 220 -59
q124 0 222 59q97 59 149 164q53 106 53 244t-54 244t-150 166q-98 59 -220 59q-123 0 -220 -58t-151 -165q-55 -106 -55 -244q0 -139 55 -245z" />
    <glyph glyph-name="R.aalt" horiz-adv-x="1337" 
d="M1160 520q27 -59 40 -145l60 -375h-299l-46 291q-12 80 -27 122q-17 42 -55 69q-41 26 -118 26h-287v-508h-297v1497h623q153 0 269 -62q115 -64 176 -175q61 -112 61 -259q0 -124 -47 -227q-48 -103 -136 -168q57 -32 83 -86zM731 774q106 0 166 65q59 65 59 158
q0 97 -58 155t-167 58h-303v-436h303z" />
    <glyph glyph-name="S_N_I.dlig" horiz-adv-x="2592" 
d="M2275 1499h-1960v156h1960v-156zM315 70v178h598v399h-401q-98 0 -141 43t-43 121v432q0 81 45 121q46 41 125 41h614v-174h-588v-387h432q156 0 156 -160v-467q0 -147 -180 -147h-617zM1399 944v-887h-191v1346h191l399 -868v868h191v-1346h-191zM2275 1403v-1346h-186
v1346h186zM315 0h1960v-154h-1960v154z" />
    <glyph glyph-name="a.salt" horiz-adv-x="1185" 
d="M1077 1012v-1012h-282v92q-44 -64 -118 -95q-76 -32 -161 -32q-206 0 -321 148q-117 147 -117 397q0 252 120 393q118 141 320 141q92 0 164 -30q74 -32 113 -86l10 84h272zM733 288q51 76 51 218q0 146 -54 220q-54 73 -150 73q-102 0 -154 -78q-53 -79 -53 -215
q0 -146 55 -220q56 -75 154 -75q100 0 151 77z" />
    <glyph glyph-name="ampersand.aalt" horiz-adv-x="1593" 
d="M1149 0l-53 80q-153 -105 -391 -107q-167 0 -295 64q-129 63 -201 177t-72 263q0 181 100 311q98 129 267 164l-180 262v283h876v-287l-495 -2l423 -633q14 56 15 121q0 54 -10 123h272q10 -53 10 -139q0 -111 -25 -207q-25 -97 -73 -172l203 -301h-371zM533 319
q77 -65 212 -65q111 0 199 49l-297 432q-93 -17 -142 -79q-50 -65 -50 -148q0 -124 78 -189z" />
    <glyph glyph-name="at.aalt" horiz-adv-x="1843" 
d="M1239 608q-4 -67 22 -97q25 -30 70 -30q98 0 159 97q60 96 60 251q0 176 -73 309q-74 133 -210 203t-317 70q-194 0 -339 -84q-146 -84 -227 -236q-81 -153 -81 -350q0 -199 80 -348q79 -148 226 -231q145 -82 337 -82q104 0 233 24q127 22 248 80v-170
q-114 -53 -243 -77q-133 -23 -244 -23q-249 0 -436 103q-188 101 -292 290q-103 187 -103 430q0 247 105 438q104 188 296 295q190 105 436 105q236 0 414 -94q177 -94 277 -262q98 -169 98 -381q0 -153 -52 -270t-145 -186q-91 -67 -209 -67q-75 0 -134 32q-56 30 -83 85
q-36 -48 -99 -77q-64 -29 -134 -29q-144 0 -232 106q-90 105 -90 283q0 187 94 303q95 117 250 117q74 0 134 -27q60 -28 89 -64l25 68h125zM1026 560q53 68 53 194q0 114 -44 170q-43 55 -115 55q-82 0 -133 -68q-52 -68 -52 -196q0 -113 42 -168t112 -55q84 0 137 68z" />
    <glyph glyph-name="braceleft.aalt" horiz-adv-x="843" 
d="M467 745q133 -112 133 -313v-211q0 -102 17 -162t58 -85t120 -25v-228l-50 -2q-202 0 -305 99q-104 101 -104 327v267q0 100 -45 149q-44 48 -149 77q-105 28 -15 -3v219q8 0 52 4q51 5 104 62q53 58 53 157v266q0 227 105 327q103 99 304 99l50 -2v-229q-115 0 -155 -52
t-40 -177v-250q0 -205 -133 -314z" />
    <glyph glyph-name="braceright.aalt" horiz-adv-x="862" 
d="M570 928q47 -50 146 -75l54 -12q-1 2 -35 13v-219q-8 0 -53 -4q-52 -5 -104 -61q-54 -58 -54 -158v-267q0 -227 -103 -327q-104 -99 -304 -99l-49 2v228q115 0 155 52q39 52 39 179v252q0 201 133 313q-133 109 -133 314v250q0 125 -40 177t-154 52v229l49 2
q201 0 304 -99t103 -327v-266q0 -100 46 -149z" />
    <glyph glyph-name="bracketleft.aalt" horiz-adv-x="763" 
d="M637 -240h-510v2009h510v-239h-248v-1530h248v-240z" />
    <glyph glyph-name="bracketright.aalt" horiz-adv-x="763" 
d="M373 0v1530h-246v239h510v-2009h-510v240h246z" />
    <glyph glyph-name="bullet.aalt" horiz-adv-x="839" 
d="M262 439q-72 42 -114 115q-42 74 -42 159q0 84 42 156q42 71 114 113t158 42t158 -42q71 -42 113 -113q42 -72 42 -156q0 -85 -42 -159q-41 -72 -113 -115q-72 -42 -158 -42t-158 42z" />
    <glyph glyph-name="eight.dnom" horiz-adv-x="864" 
d="M769 440q36 -64 36 -143q0 -139 -102 -227q-103 -88 -267 -88q-171 0 -272 88q-103 88 -103 229q0 77 35 142q34 62 94 96q-45 27 -72 77q-28 49 -28 115q0 125 96 205q95 80 250 80q153 0 245 -79q93 -79 93 -204q0 -67 -28 -116t-74 -78q61 -33 97 -97zM355 766
q-27 -27 -27 -70q0 -40 29 -66t77 -26q47 0 76 26t29 68q0 44 -30 69q-31 26 -79 26q-50 0 -75 -27zM537 240q38 30 38 84q0 50 -39 81q-40 31 -106 31q-62 0 -99 -31q-38 -32 -38 -81q0 -52 39 -84q38 -31 102 -31q65 0 103 31z" />
    <glyph glyph-name="eight.numr" horiz-adv-x="864" 
d="M770 976q35 -65 35 -147q0 -89 -47 -159q-46 -69 -131 -109q-84 -39 -191 -39q-169 0 -272 86q-103 85 -103 223q0 82 35 147q34 63 94 97q-44 28 -72 79q-28 49 -28 116q0 124 96 203q94 79 250 79q150 0 244 -79t94 -201q0 -68 -27 -118q-30 -52 -73 -79q62 -35 96 -99
zM355 1306q-27 -26 -27 -69t29 -67q28 -25 77 -25q48 0 76 25q29 24 29 65q0 43 -30 70q-31 26 -79 26q-50 0 -75 -25zM537 773q38 30 38 81q0 52 -39 87q-40 34 -106 34q-62 0 -99 -34q-38 -35 -38 -87q0 -51 39 -81t102 -30q64 0 103 30z" />
    <glyph glyph-name="eight.tnum" horiz-adv-x="1296" 
d="M1145 660q57 -99 57 -224q0 -134 -68 -240q-68 -105 -195 -164q-124 -59 -290 -59t-288 59q-125 58 -195 165q-70 106 -70 241q0 126 57 223q55 97 154 144q-75 45 -118 121q-44 79 -44 180q0 121 63 217q61 95 177 151q115 54 264 54q147 0 262 -54q114 -55 179 -150
q63 -94 63 -216q0 -101 -44 -180q-43 -76 -118 -121q95 -49 154 -147zM512 1186q-49 -43 -49 -119t50 -121t134 -45q83 0 136 45q51 45 51 121q0 75 -50 119q-50 43 -137 43q-86 0 -135 -43zM820 328q65 53 65 141t-65 144q-65 55 -173 55q-105 0 -170 -54q-65 -56 -65 -145
t65 -142t170 -53q107 0 173 54z" />
    <glyph glyph-name="emdash.aalt" horiz-adv-x="2236" 
d="M2048 610h-1860v207h1860v-207z" />
    <glyph glyph-name="endash.aalt" horiz-adv-x="1753" 
d="M1565 610h-1375l-2 207h1377v-207z" />
    <glyph glyph-name="exclamdown.aalt" horiz-adv-x="587" 
d="M445 1469q57 -60 57 -148q0 -89 -57 -147q-59 -60 -150 -60q-94 0 -151 59q-58 58 -58 148q0 89 58 148q57 59 151 59q91 0 150 -59zM453 0h-318l37 956h244z" />
    <glyph glyph-name="f.aalt" horiz-adv-x="907" 
d="M561 1239v-227h303v-250h-303v-762h-291v762h-229v250h229v485h594v-258h-303z" />
    <glyph glyph-name="f_t.dlig" horiz-adv-x="1679" 
d="M1319 762v-387q0 -85 41 -123q40 -37 121 -37q42 0 121 14v-225q-110 -37 -222 -37q-169 0 -260 100q-92 100 -92 269v426h-477v-762h-291v762h-229v250h229v88q0 206 110 319q109 111 302 111q96 0 180 -29v-235q-66 6 -113 6q-106 0 -147 -50q-41 -52 -41 -157v-53h477
v284l291 33v-317h283v-250h-283z" />
    <glyph glyph-name="five.dnom" horiz-adv-x="849" 
d="M708 601q95 -98 95 -255q0 -163 -100 -263q-101 -101 -267 -101q-158 0 -258 90q-99 89 -110 235l229 31q1 -60 38 -98q36 -37 97 -37q57 0 95 41t38 104q0 65 -38 108q-37 42 -99 42q-45 0 -79 -22t-48 -58h-238l80 575h590v-211h-395l-19 -118q54 35 140 34
q153 0 249 -97z" />
    <glyph glyph-name="five.numr" horiz-adv-x="849" 
d="M708 1138q95 -97 95 -253q0 -164 -100 -264q-101 -101 -267 -101q-158 0 -259 89q-102 89 -109 239l229 29q1 -60 38 -97q36 -37 97 -37q58 0 96 38q37 37 37 102t-38 108q-38 41 -99 41q-46 0 -80 -20q-34 -21 -47 -60h-238l80 578h590v-209h-395l-19 -121q49 33 140 33
q152 0 249 -95z" />
    <glyph glyph-name="five.tnum" horiz-adv-x="1282" 
d="M943 975q117 -67 179 -184q62 -119 62 -275q0 -163 -67 -284q-67 -123 -190 -191q-122 -68 -284 -68q-155 0 -274 61q-121 60 -192 171q-72 111 -79 256l316 41q0 -101 62 -165q62 -63 159 -63q103 0 167 67t64 171q0 115 -64 185q-64 69 -171 69q-73 0 -132 -35t-83 -96
h-314l117 862h871v-287h-607l-34 -227q85 57 227 57q151 0 267 -65z" />
    <glyph glyph-name="four.dnom" horiz-adv-x="899" 
d="M55 371l324 622h264l-338 -622h205v301h219v-301h135v-209h-135v-162h-219v162l-455 4v205z" />
    <glyph glyph-name="four.numr" horiz-adv-x="899" 
d="M55 909l324 621h264l-338 -621h205v297h219v-301h135v-205h-135v-163h-219v163l-455 2v207z" />
    <glyph glyph-name="four.tnum" horiz-adv-x="1327" 
d="M63 545l508 952h355l-525 -952h357v467h299v-467h207v-287h-207v-258h-299v258h-695v287z" />
    <glyph glyph-name="germandbls.aalt" horiz-adv-x="1245" 
d="M113 1010q0 166 69 282q67 114 186 173q117 57 265 57q136 0 241 -47q102 -47 158 -131q55 -83 55 -195q0 -94 -37 -158t-112 -125l-82 -65q-52 -45 -66 -60q-14 -17 -14 -34q0 -26 13 -39q13 -16 36 -29t33 -21l78 -51q114 -71 161 -145q46 -73 46 -156q0 -137 -95 -220
q-97 -83 -251 -83q-157 0 -249 81q-91 81 -81 208l213 37q-4 -47 22 -80q25 -31 72 -31q42 0 68 21q24 19 24 57q0 37 -25 62q-25 24 -102 69l-75 45q-94 56 -138 117q-45 62 -45 137q0 67 31 116q32 51 90 101l74 60q66 51 93 90q26 40 26 88q0 61 -45 100t-119 39
q-112 0 -171 -71q-59 -73 -59 -201v-1008h-288v1010z" />
    <glyph glyph-name="glyph1" 
 />
    <glyph glyph-name="glyph2" horiz-adv-x="682" 
 />
    <glyph glyph-name="glyph446" horiz-adv-x="3139" 
d="M1530 526h450v-526h-159l-21 158h-14q0 -12 -25 -55q-26 -44 -91 -82q-66 -39 -177 -39q-185 0 -304 128q-118 127 -118 371q0 170 65 286t170 171q104 55 228 55q99 0 191 -37q91 -38 159 -117q67 -80 86 -196h-221q-18 72 -72 114q-56 42 -139 42q-124 0 -185 -87
q-63 -87 -63 -223t61 -225q60 -90 183 -90q87 0 146 46q60 48 73 118h-223v188zM2087 809q-33 33 -33 78q0 43 33 75q32 31 76 31q45 0 77 -30q31 -31 31 -76q0 -46 -31 -78q-32 -33 -77 -33q-43 0 -76 33zM2360 809q-33 33 -33 78t33 76q32 30 77 30t76 -30q31 -31 31 -76
q0 -46 -31 -78q-31 -33 -76 -33t-77 33zM2609 952v41h164v-41h-59v-170h-52v170h-53zM2941 993h84v-211h-49v181l-29 -181h-70l-28 181v-181h-51v211h90l22 -174zM881 859q120 -125 120 -370q0 -242 -120 -365q-121 -124 -334 -124h-383v983h383q213 0 334 -124zM705 239
q81 60 81 250q0 189 -81 250q-83 62 -158 62h-127q-31 1 -59 13q-22 8 -43 22q-19 12 -21 14l-16 -14l57 -62q31 -25 38 -56q7 -29 7 -54v-349q0 -34 -10 -57t-21 -38q-11 -14 -14 -15l-57 -60l16 -14q5 5 23 16q19 11 49 21q29 10 65 10h113q76 0 158 61zM2476 664
q36 0 68 -7v-176q-16 2 -35 2q-95 0 -151 -51t-56 -158v-274h-213v506q0 92 -14 151h215q7 -49 8 -79q45 86 178 86z" />
    <glyph glyph-name="glyph521" horiz-adv-x="1087" 
d="M155 843q71 77 175 77q55 0 103 -16q49 -16 118 -50q62 -29 99 -41q42 -14 79 -14q55 0 83 31q28 29 28 81h153q8 -115 -26 -185q-34 -73 -94 -105q-60 -33 -125 -33q-67 0 -124 19q-64 20 -137 52q-23 11 -87 38q-33 12 -64 12q-49 0 -71 -34q-23 -35 -17 -77h-154
q-10 167 61 245zM155 483q70 76 175 76q55 0 103 -16q46 -15 118 -49q62 -29 99 -41q41 -15 79 -15q55 0 83 31t28 82h153q8 -115 -26 -185q-34 -72 -94 -106q-60 -33 -125 -33q-67 0 -127 20q-62 20 -134 54q-49 23 -87 37q-33 12 -64 12q-48 0 -71 -33q-23 -35 -17 -77
h-154q-10 165 61 243z" />
    <glyph glyph-name="glyph522" horiz-adv-x="1081" 
d="M90 508q0 146 70 213q68 67 168 67q51 0 104 -17q50 -16 115 -48q62 -29 99 -41q42 -14 79 -14q55 0 84 32t29 82h151q2 -18 2 -41q0 -146 -73 -213q-74 -69 -175 -69q-67 0 -123 19q-61 19 -135 52q-23 11 -87 38q-33 12 -64 12q-51 0 -73 -34q-23 -35 -17 -77h-152z
" />
    <glyph glyph-name="greater.aalt" horiz-adv-x="1122" 
d="M147 453l566 272l-566 270v269l828 -416v-248l-828 -426v279z" />
    <glyph glyph-name="guillemotleft.aalt" horiz-adv-x="1388" 
d="M432 727l342 -481h-336l-344 481l344 475h336zM971 727l342 -481h-336l-344 481l344 475h336z" />
    <glyph glyph-name="guillemotright.aalt" horiz-adv-x="1388" 
d="M733 727l-342 -481h-338l344 481l-344 475h338zM1274 727l-342 -481h-338l344 481l-344 475h338z" />
    <glyph glyph-name="guilsinglleft.aalt" horiz-adv-x="847" 
d="M432 727l342 -481h-336l-344 481l344 475h336z" />
    <glyph glyph-name="guilsinglright.aalt" horiz-adv-x="847" 
d="M754 727l-342 -481h-338l344 481l-344 475h338z" />
    <glyph glyph-name="hyphen.aalt" horiz-adv-x="1310" 
d="M1122 610h-932l-2 207h934v-207z" />
    <glyph glyph-name="i.locl" horiz-adv-x="536" 
d="M155 1175q-44 47 -44 113q0 71 43 114q44 44 116 44q71 0 115 -44q43 -43 43 -114q0 -68 -43 -114t-115 -46q-71 0 -115 47zM410 1012v-1012h-283v1012h283z" />
    <glyph glyph-name="j.aalt" horiz-adv-x="604" 
d="M200 1208q-50 53 -50 133q0 84 50 137q49 52 130 52q83 0 132 -52q50 -53 50 -137q0 -83 -50 -135q-50 -51 -132 -51q-80 0 -130 53zM-158 -430v258h346v1184h289v-1442h-635z" />
    <glyph glyph-name="l.aalt" horiz-adv-x="608" 
d="M183 63q-74 80 -74 228v1220h284v-1167q0 -74 29 -103q28 -30 84 -30q12 0 20 -1q6 -1 29 1v-211q-63 -18 -147 -18q-152 0 -225 81z" />
    <glyph glyph-name="less.aalt" horiz-adv-x="1122" 
d="M147 600v248l828 416v-269l-565 -270l565 -272v-279z" />
    <glyph glyph-name="n.aalt" horiz-adv-x="1093" 
d="M106 1012h891v-1012h-290v778h-310v-778h-291v1012z" />
    <glyph glyph-name="nine.dnom" horiz-adv-x="847" 
d="M682 911q100 -100 100 -262q0 -81 -27 -145q-30 -68 -89 -154l-238 -350h-299l225 303q-136 8 -218 102q-83 94 -83 234q0 171 100 271q99 100 267 100q162 0 262 -99zM512 547q35 38 35 102q0 60 -35 98q-34 37 -96 37q-57 0 -93 -36q-36 -38 -36 -99q0 -62 37 -100
q36 -39 94 -39q60 0 94 37z" />
    <glyph glyph-name="nine.numr" horiz-adv-x="847" 
d="M683 1446q99 -96 99 -258q0 -78 -27 -142q-32 -72 -89 -157l-238 -350h-299l229 307q-137 6 -221 98t-84 234q0 169 100 266q100 98 267 98q164 0 263 -96zM512 1088q35 37 35 102q0 58 -35 96q-34 37 -96 37q-57 0 -93 -37q-36 -38 -36 -96q0 -64 36 -101q35 -38 95 -38
t94 37z" />
    <glyph glyph-name="nine.tnum" horiz-adv-x="1269" 
d="M918 1455q123 -67 190 -186q68 -121 68 -278q0 -120 -40 -213q-40 -94 -132 -231l-371 -547h-397l342 467q-144 5 -253 69q-111 66 -169 178q-60 112 -60 263q0 161 68 285q68 123 189 190q122 68 282 68q159 0 283 -65zM797 811q61 65 61 172q0 110 -61 174t-164 64
q-98 0 -158 -65q-61 -65 -61 -173q0 -105 62 -172q62 -66 157 -66q103 0 164 66z" />
    <glyph glyph-name="one.dnom" horiz-adv-x="620" 
d="M510 993v-993h-215v655h-225v154q118 0 168 47q49 46 57 137h215z" />
    <glyph glyph-name="one.numr" horiz-adv-x="638" 
d="M528 1530v-993h-215v657h-243v152q230 0 243 184h215z" />
    <glyph glyph-name="one.tnum" horiz-adv-x="1368" 
d="M1266 283v-285l-1098 2v285h397v737h-397v209q176 0 281 72q104 71 116 194h307v-1214h394z" />
    <glyph glyph-name="parenleft.aalt" horiz-adv-x="731" 
d="M434 -104q-174 214 -237 416q-64 198 -64 429q0 259 75 458q76 202 226 386h234q-126 -228 -176 -432q-50 -203 -50 -412q0 -241 59 -442q59 -204 167 -403h-234z" />
    <glyph glyph-name="parenright.aalt" horiz-adv-x="731" 
d="M232 298q57 203 57 443q0 216 -49 413q-50 200 -177 431h234q152 -187 227 -386q74 -201 74 -458q0 -231 -62 -431q-63 -199 -239 -414h-234q110 198 169 402z" />
    <glyph glyph-name="periodcentered.aalt" horiz-adv-x="606" 
d="M164 578q-58 57 -58 141q0 83 58 138q58 56 141 56q79 0 138 -56q57 -55 57 -138q0 -84 -57 -141q-58 -58 -138 -58q-84 0 -141 58z" />
    <glyph glyph-name="questiondown.aalt" horiz-adv-x="1097" 
d="M716 1472q58 -61 58 -149q0 -87 -57 -146q-59 -59 -152 -59q-95 0 -150 58q-57 57 -57 147q0 88 58 149q57 60 149 60q93 0 151 -60zM719 985q0 -89 -18 -151q-20 -63 -55 -111q-32 -45 -111 -131q-71 -76 -91 -109q-24 -37 -24 -88q0 -68 39 -104q38 -37 102 -37
q70 0 109 42t39 114q0 29 -11 75l275 -34q6 -43 6 -86q0 -118 -52 -207q-53 -90 -149 -140q-96 -51 -225 -51q-197 0 -316 110q-120 109 -120 290q0 105 44 184q43 78 134 170q79 83 112 134q33 53 33 122v22h279v-14z" />
    <glyph glyph-name="r.aalt" horiz-adv-x="741" 
d="M709 1012v-250h-306v-762h-288v1012h594z" />
    <glyph glyph-name="s.aalt" horiz-adv-x="921" 
d="M78 258h430q15 0 26 8q9 8 9 21q0 24 -25 37l-270 151q-100 55 -140 122t-40 146q0 123 81 195q79 72 216 72h436l-21 -258h-368q-13 0 -24 -8q-11 -9 -11 -21q0 -19 29 -39l268 -149q100 -57 139 -122q41 -68 41 -147q0 -124 -81 -195q-82 -71 -216 -71h-479v258z" />
    <glyph glyph-name="seven.dnom" horiz-adv-x="712" 
d="M690 993v-200l-407 -793h-271l412 782h-406v211h672z" />
    <glyph glyph-name="seven.numr" horiz-adv-x="712" 
d="M690 1530v-197l-407 -796h-271l412 784h-406v209h672z" />
    <glyph glyph-name="seven.tnum" horiz-adv-x="1236" 
d="M1120 1497v-274l-626 -1223h-369l631 1210h-637v287h1001z" />
    <glyph glyph-name="six.dnom" horiz-adv-x="835" 
d="M709 587q84 -98 84 -247q0 -158 -101 -257q-102 -99 -264 -99q-164 0 -264 99q-101 99 -101 261q0 80 28 140t93 157l236 352h291l-219 -303q133 -6 217 -103zM524 246q37 37 37 98q0 62 -37 100q-38 39 -94 39q-61 0 -98 -37t-37 -98q0 -64 37 -101q38 -38 96 -38
q59 0 96 37z" />
    <glyph glyph-name="six.numr" horiz-adv-x="835" 
d="M709 1126q84 -96 84 -252t-100 -252q-101 -96 -265 -96t-264 97q-101 96 -101 256q0 81 27 143t90 156l238 352h293l-224 -305q138 -5 222 -99zM524 782q37 38 37 103q0 60 -37 97q-38 38 -94 38q-60 0 -98 -38q-37 -37 -37 -99q0 -64 37 -101q38 -39 96 -39t96 39z" />
    <glyph glyph-name="six.tnum" horiz-adv-x="1269" 
d="M949 963q108 -66 168 -183q59 -120 59 -274q0 -158 -68 -277q-67 -118 -190 -187q-122 -67 -285 -67q-159 0 -280 67q-122 68 -189 187q-68 119 -68 277q0 121 39 214q39 92 131 230l373 547h395l-342 -469h8q139 0 249 -65zM797 341q61 64 61 171q0 110 -61 175
q-62 65 -162 65q-99 0 -160 -67q-63 -67 -63 -173t63 -171q62 -65 160 -65q100 0 162 65z" />
    <glyph glyph-name="t.aalt" horiz-adv-x="923" 
d="M545 762v-504h282v-258h-573v762h-229v250h229v295h291v-295h282v-250h-282z" />
    <glyph glyph-name="three.dnom" horiz-adv-x="794" 
d="M688 535q60 -83 60 -203q0 -99 -47 -179q-47 -78 -134 -124q-86 -45 -196 -45q-145 0 -239 81q-96 80 -109 218l233 39q1 -52 38 -87q35 -34 89 -34q55 0 91 39t36 100q0 55 -36 91t-95 36q-56 0 -92 -16l-70 176l152 151l-314 4v211h635v-186l-168 -170
q104 -21 166 -102z" />
    <glyph glyph-name="three.numr" horiz-adv-x="794" 
d="M688 1071q60 -82 60 -199q0 -101 -47 -183q-48 -81 -134 -126t-196 -45q-145 0 -239 82q-96 83 -109 219l233 41q1 -52 38 -87q35 -34 89 -34q55 0 91 37q36 38 36 98q0 57 -36 96q-36 38 -95 38q-23 0 -49 -6q-29 -8 -43 -17l-70 176l158 158l-320 2v209h635v-182
l-166 -174q103 -21 164 -103z" />
    <glyph glyph-name="three.tnum" horiz-adv-x="1292" 
d="M1085 804q97 -124 97 -306q0 -152 -69 -270q-70 -120 -194 -187q-127 -68 -288 -68q-218 0 -357 121q-141 121 -163 322l313 61q5 -95 65 -148q59 -55 152 -55q98 0 160 62q61 61 61 164q0 100 -62 162q-62 61 -165 61q-67 0 -135 -27l-92 242l266 270l-512 2v287h938
v-256l-277 -287q165 -26 262 -150z" />
    <glyph glyph-name="two.dnom" horiz-adv-x="827" 
d="M760 215v-213l-639 -2v180l328 348q78 83 77 152q0 60 -31 92q-32 33 -83 33q-60 0 -91 -37q-32 -38 -32 -96q0 -17 2 -31l-209 25q-2 18 -2 43q0 83 39 153q38 69 116 112q76 42 181 42q158 0 249 -90t91 -240q0 -98 -37 -165q-38 -69 -103 -138l-155 -168h299z" />
    <glyph glyph-name="two.numr" horiz-adv-x="827" 
d="M760 750v-211l-639 -2v180l328 348q78 83 77 156q0 57 -31 88q-32 30 -83 30q-60 0 -92 -35q-31 -35 -31 -96q0 -16 2 -30l-209 26q-2 18 -2 43q0 82 39 151q40 69 115 110q75 42 182 42q157 0 249 -89q91 -88 91 -236q0 -99 -37 -167q-39 -71 -103 -140l-155 -168h299z
" />
    <glyph glyph-name="two.tnum" horiz-adv-x="1263" 
d="M608 291h504v-291h-979l-4 250l571 541q125 117 125 245q0 100 -56 154q-56 53 -153 53q-105 0 -160 -61q-57 -62 -57 -158q0 -18 4 -47l-284 33q-2 24 -2 53q0 127 62 234q61 105 178 170q116 63 274 63q151 0 267 -59q114 -60 177 -167q62 -109 62 -249
q0 -134 -52 -251q-53 -118 -153 -210z" />
    <glyph glyph-name="u.aalt" horiz-adv-x="1075" 
d="M387 1012v-779h309v779h291v-1012h-889v1012h289z" />
    <glyph glyph-name="y.aalt" horiz-adv-x="1155" 
d="M1141 1012l-436 -1012v-430h-635v258h346v172l-404 1012h320l227 -664l264 664h318z" />
    <glyph glyph-name="zero.dnom" horiz-adv-x="966" 
d="M116 760q54 117 152 177q97 60 224 60q195 0 304 -139t109 -373q0 -165 -54 -280q-54 -117 -152 -177q-98 -61 -224 -61q-193 0 -303 140q-111 139 -111 372q0 165 55 281zM351 274q48 -77 132 -77q89 0 135 79q46 77 46 205q0 133 -48 210q-50 77 -133 77
q-90 0 -135 -79t-45 -208q0 -131 48 -207z" />
    <glyph glyph-name="zero.numr" horiz-adv-x="964" 
d="M118 1311q54 116 151 177q96 60 223 60q193 0 301 -139t108 -371q0 -164 -54 -280t-150 -178q-98 -62 -222 -62q-193 0 -302 141q-110 140 -110 371q0 165 55 281zM345 820q50 -77 134 -77q93 0 143 80q48 79 48 209q0 138 -51 218q-52 79 -140 79q-91 0 -137 -82
q-47 -83 -47 -215q0 -135 50 -212z" />
    <glyph glyph-name="zero.tnum" horiz-adv-x="1290" 
d="M131 1165q73 175 208 269q134 92 312 92q184 0 315 -95q130 -95 199 -269q68 -174 68 -406q0 -244 -75 -421t-209 -269q-133 -93 -312 -93q-183 0 -313 96q-132 95 -199 269q-68 175 -68 405q0 245 74 422zM412 467l360 719q-53 41 -129 41q-135 0 -201 -127
q-67 -127 -67 -348q0 -162 37 -285zM643 276q137 0 205 128q67 127 67 350q0 164 -41 278l-356 -717q46 -39 125 -39z" />
    </font>
</defs>
</svg>
