<?xml version="1.0" standalone="no"?>
<!DOCTYPE svg PUBLIC "-//W3C//DTD SVG 1.1//EN" "http://www.w3.org/Graphics/SVG/1.1/DTD/svg11.dtd" >
<svg xmlns="http://www.w3.org/2000/svg" xmlns:xlink="http://www.w3.org/1999/xlink" version="1.1">
<metadata>
Created by FontForge 20170731 at Sun Oct 29 18:41:33 2017
 By ,,,
Copyright (c) 2016 by Deni Anggara. All rights reserved.
</metadata>
<defs>
<font id="NeutrifStudio-SemiBoldItalic" horiz-adv-x="0" >
  <font-face 
    font-family="Neutrif Studio Semi Bold Italic"
    font-weight="600"
    font-style="italic"
    font-stretch="normal"
    units-per-em="2048"
    panose-1="0 0 7 0 0 0 0 0 0 0"
    ascent="1638"
    descent="-410"
    x-height="1012"
    cap-height="1497"
    bbox="-1354 -573 4137 1972"
    underline-thickness="0"
    underline-position="0"
    unicode-range="U+000D-F8FF"
  />
<missing-glyph horiz-adv-x="1206" 
d="M1122 1448v-1448h-1038v1448h1038z" />
    <glyph glyph-name="f_f.liga" unicode="ff" horiz-adv-x="1589" 
d="M1311 1110l-15 -98h299l-30 -209h-297l-113 -803h-242l113 803h-463l-112 -803h-242l113 803h-224l29 209h223l17 121q57 391 430 391q86 0 161 -23l-26 -198q-83 8 -115 8q-179 0 -211 -201l-14 -98h463l16 121q57 391 430 391q87 0 162 -23l-27 -198q-83 8 -114 8
q-180 0 -211 -201z" />
    <glyph glyph-name="f_f_i.liga" unicode="ffi" horiz-adv-x="2035" 
d="M2019 1493q43 -40 43 -102q0 -73 -49 -119q-50 -47 -123 -47q-62 0 -103 40q-42 41 -42 101q0 72 48 120t122 48q60 0 104 -41zM1827 0h-236l113 803h-436l-113 -803h-242l113 803h-463l-112 -803h-242l113 803h-224l29 209h223l17 121q57 391 430 391q86 0 161 -23
l-26 -198q-83 8 -115 8q-179 0 -211 -201l-14 -98h463l16 121q57 391 430 391q87 0 162 -23l-27 -198q-83 8 -114 8q-180 0 -211 -201l-15 -98h672z" />
    <glyph glyph-name="f_f_t.liga" unicode="fft" horiz-adv-x="2289" 
d="M1911 348q-2 -18 -2 -41q0 -66 34 -93q32 -28 101 -28q60 0 125 13l-29 -191q-48 -15 -97 -23q-58 -8 -99 -8q-135 0 -207 74t-72 205q0 49 4 72l68 475h-469l-113 -803h-242l113 803h-463l-112 -803h-242l113 803h-224l29 209h223l17 121q57 391 430 391q86 0 161 -23
l-26 -198q-83 8 -115 8q-179 0 -211 -201l-14 -98h463l16 121q57 391 430 391q87 0 162 -23l-27 -198q-83 8 -114 8q-180 0 -211 -201l-15 -98h469l41 284l242 17l-43 -301h276l-28 -209h-277z" />
    <glyph glyph-name="f_i.liga" unicode="fi" horiz-adv-x="1337" 
d="M1321 1493q43 -40 43 -102q0 -73 -49 -119q-50 -47 -123 -47q-62 0 -103 40q-42 41 -42 101q0 72 48 120t122 48q60 0 104 -41zM1128 0h-235l113 803h-443l-112 -803h-242l113 803h-224l29 209h223l17 121q57 391 430 391q86 0 161 -23l-26 -198q-83 8 -115 8
q-179 0 -211 -201l-14 -98h678z" />
    <glyph glyph-name="f_l.liga" unicode="fl" horiz-adv-x="1329" 
d="M1337 1513l-213 -1513h-235l112 803h-438l-112 -803h-242l113 803h-224l29 209h223l17 121q57 391 430 391q86 0 161 -23l-26 -198q-83 8 -115 8q-179 0 -211 -201l-14 -98h440l70 501h235z" />
    <glyph glyph-name="f_t.liga" unicode="ft" horiz-adv-x="1601" 
d="M1221 348q-2 -18 -2 -41q0 -66 34 -93q32 -28 101 -28q60 0 125 13l-29 -191q-48 -15 -97 -23q-59 -8 -100 -8q-135 0 -206 74q-72 74 -72 205q0 49 4 72l68 475h-484l-112 -803h-242l113 803h-224l29 209h223l17 121q57 391 430 391q86 0 161 -23l-26 -198q-83 8 -115 8
q-179 0 -211 -201l-14 -98h483l41 284l242 17l-43 -301h276l-28 -209h-277z" />
    <glyph glyph-name="t_i.liga" unicode="ti" horiz-adv-x="1382" 
d="M1366 1493q43 -40 43 -102q0 -73 -49 -119q-50 -47 -123 -47q-62 0 -103 40q-42 41 -42 101q0 72 48 120t122 48q60 0 104 -41zM1174 0h-236l113 803h-494l-65 -455q-1 -13 -3 -41q0 -66 34 -93q34 -28 102 -28q60 0 125 13l-29 -191q-48 -15 -97 -23q-59 -8 -100 -8
q-135 0 -206 74q-72 74 -72 205q0 49 4 72l67 475h-233l29 209h233l41 284l242 17l-43 -301h729z" />
    <glyph glyph-name="t_t.liga" unicode="tt" horiz-adv-x="1546" 
d="M1167 348q-2 -18 -2 -41q0 -66 34 -93q34 -28 101 -28q60 0 125 13l-28 -191q-48 -15 -97 -23q-59 -8 -100 -8q-135 0 -206 74q-72 74 -72 205q0 49 4 72l67 475h-436l-65 -455q-1 -13 -3 -41q0 -66 34 -93q34 -28 102 -28q60 0 125 13l-29 -191q-48 -15 -97 -23
q-59 -8 -100 -8q-135 0 -206 74q-72 74 -72 205q0 49 4 72l67 475h-233l29 209h233l41 284l242 17l-43 -301h436l41 284l242 17l-43 -301h276l-29 -209h-276z" />
    <glyph glyph-name=".notdef" horiz-adv-x="1206" 
d="M1122 1448v-1448h-1038v1448h1038z" />
    <glyph glyph-name=".null" 
 />
    <glyph glyph-name="nonmarkingreturn" horiz-adv-x="682" 
 />
    <glyph glyph-name="NULL" 
 />
    <glyph glyph-name="NULL" 
 />
    <glyph glyph-name="CR" unicode="&#xd;" horiz-adv-x="1630" 
d="M1485 1374v-936h-940v-262l-408 328l408 330v-265h809v805h131z" />
    <glyph glyph-name="CR" unicode="&#x21b5;" horiz-adv-x="1630" 
d="M1485 1374v-936h-940v-262l-408 328l408 330v-265h809v805h131z" />
    <glyph glyph-name="space" unicode=" " horiz-adv-x="499" 
 />
    <glyph glyph-name="exclam" unicode="!" horiz-adv-x="622" 
d="M231 518l93 979h239l-178 -979h-154zM125 20q-51 52 -51 127q0 79 56 135q56 54 140 54q82 0 132 -51q49 -52 49 -127q0 -80 -54 -135q-55 -56 -141 -56q-81 0 -131 53z" />
    <glyph glyph-name="quotedbl" unicode="&#x22;" horiz-adv-x="878" 
d="M295 1497h207l-140 -653h-126zM655 1497h207l-141 -653h-125z" />
    <glyph glyph-name="numbersign" unicode="#" horiz-adv-x="1513" 
d="M102 551h207l133 397h-227l66 199h227l121 350h252l-121 -350l327 2l119 348h252l-119 -348h205l-65 -201h-207l-133 -395h227l-61 -205h-232l-121 -348h-254l121 348h-325l-119 -348h-252l119 348h-203zM887 553l131 395h-324l-133 -397z" />
    <glyph glyph-name="dollar" unicode="$" horiz-adv-x="1159" 
d="M842 911q4 109 -76 156l-104 -322l90 -20q135 -32 205 -119q69 -89 69 -217q0 -120 -65 -215q-65 -93 -181 -146q-113 -53 -262 -53q-61 0 -104 9l-70 -215h-108l77 241q-113 44 -171 135t-54 211l213 31q-6 -111 80 -168l104 328q-150 38 -223 122q-74 86 -74 210
q0 118 61 213q60 96 169 151q107 55 248 55l61 -2l66 201h112l-71 -223q105 -38 163 -117q58 -78 56 -192zM662 1094h-15q-101 0 -160 -52q-61 -52 -61 -135q0 -55 32 -87t99 -50zM590 524l-111 -340q29 -4 56 -4q111 0 178 52q67 51 67 137q0 113 -137 143z" />
    <glyph glyph-name="percent" unicode="%" horiz-adv-x="1527" 
d="M251 884q-75 92 -75 238q0 108 41 199q40 89 115 144q74 53 168 53q124 0 197 -90q73 -91 73 -238q0 -107 -40 -197q-41 -93 -113 -146q-73 -54 -168 -54q-123 0 -198 91zM125 98l1231 1399l117 -96l-1231 -1401zM556 1027q38 64 38 159q0 80 -27 121q-29 41 -75 41
q-63 0 -101 -65q-39 -66 -39 -159q0 -79 28 -119q28 -42 75 -42q64 0 101 64zM900 72q-75 90 -75 237q0 108 41 199q40 88 115 145q73 54 168 54q123 0 198 -90q74 -92 74 -238q0 -104 -41 -197q-41 -92 -113 -146q-73 -54 -167 -54q-125 0 -200 90zM1206 216q39 63 39 159
q0 80 -27 121q-29 41 -75 41q-66 0 -102 -64q-37 -64 -37 -160q0 -79 27 -119q25 -42 73 -42q63 0 102 64z" />
    <glyph glyph-name="ampersand" unicode="&#x26;" horiz-adv-x="1511" 
d="M1077 0l-84 106q-83 -69 -197 -104q-109 -35 -235 -35q-139 0 -246 48q-107 47 -166 137q-59 89 -59 202q0 210 203 359l141 102l-41 55q-47 63 -72 126q-26 64 -26 143q0 113 50 202q50 90 143 139q92 50 212 50q165 0 266 -91q101 -92 101 -241q0 -102 -49 -184
t-144 -154l-100 -78l246 -311q86 131 98 311l221 -34q-25 -262 -174 -465l219 -283h-307zM575 1270q-49 -46 -49 -117q0 -39 17 -75q17 -35 53 -74l47 -56l64 51q65 52 97 96q30 42 30 93q0 60 -39 94q-40 35 -99 35q-72 0 -121 -47zM406 237q64 -49 178 -49q159 0 274 97
l-293 358l-82 -55q-79 -52 -110 -103q-33 -53 -33 -110q0 -90 66 -138z" />
    <glyph glyph-name="quotesingle" unicode="'" horiz-adv-x="518" 
d="M295 1497h207l-140 -653h-126z" />
    <glyph glyph-name="parenleft" unicode="(" horiz-adv-x="675" 
d="M299 -471q-105 143 -163 361q-60 222 -60 450q0 351 133 677q133 325 375 564h221q-203 -233 -338 -566q-133 -330 -133 -708q0 -213 45 -425q45 -214 127 -353h-207z" />
    <glyph glyph-name="parenright" unicode=")" horiz-adv-x="673" 
d="M220 115q122 337 122 686q0 217 -47 432q-46 212 -125 348h205q110 -149 169 -371q58 -219 58 -450q0 -359 -136 -682q-136 -324 -366 -549h-217q217 253 337 586z" />
    <glyph glyph-name="asterisk" unicode="*" horiz-adv-x="923" 
d="M227 1329l154 -57q43 -14 69 -27q23 -12 44 -33q-2 14 -5 62q0 12 5 72l26 176h166l-24 -176q-7 -43 -13 -70t-22 -64q48 37 127 64l172 55l32 -157l-174 -58q-85 -29 -143 -26q32 -18 49 -37q18 -19 41 -58l84 -145l-143 -96l-82 141q-28 47 -38 71q-11 26 -15 56
q-22 -55 -86 -127l-123 -141l-127 96l131 145q63 69 112 95q-35 -2 -60 5q-30 7 -75 21l-157 58z" />
    <glyph glyph-name="plus" unicode="+" horiz-adv-x="1388" 
d="M1192 498h-404l-57 -412h-192l57 412h-399l24 190h404l57 412h192l-57 -412h402z" />
    <glyph glyph-name="comma" unicode="," horiz-adv-x="485" 
d="M364 261q46 -46 46 -116q0 -79 -72 -161l-248 -273l-86 60l148 215q-43 18 -67 57t-24 88q0 77 52 126q52 50 129 50q76 0 122 -46z" />
    <glyph glyph-name="hyphen" unicode="-" horiz-adv-x="1284" 
d="M1085 465h-897l29 221h899z" />
    <glyph glyph-name="period" unicode="." horiz-adv-x="475" 
d="M111 16q-45 45 -45 117q0 78 53 128t129 50q72 0 117 -47q45 -46 45 -117q0 -76 -53 -126q-55 -50 -130 -50q-71 0 -116 45z" />
    <glyph glyph-name="slash" unicode="/" horiz-adv-x="1052" 
d="M141 0h-211l1051 1522h211z" />
    <glyph glyph-name="zero" unicode="0" horiz-adv-x="1335" 
d="M362 59q-117 83 -182 239t-65 359q0 239 83 440q82 199 233 315q149 116 337 116q159 0 277 -85t182 -239q63 -154 63 -360q0 -241 -83 -439q-83 -199 -231 -314q-149 -116 -337 -116q-160 0 -277 84zM844 301q86 83 134 223t48 312q0 214 -72 329q-73 115 -200 115
q-106 0 -191 -81t-135 -222q-49 -140 -49 -313q0 -214 73 -329q72 -116 199 -116q108 0 193 82z" />
    <glyph glyph-name="one" unicode="1" horiz-adv-x="819" 
d="M784 1497l-211 -1497h-249l151 1073h-364l24 172q160 0 265 69q104 68 135 183h249z" />
    <glyph glyph-name="two" unicode="2" horiz-adv-x="1112" 
d="M461 242h545l-35 -242h-936l28 211l605 559q99 93 142 168q42 74 42 137q0 106 -57 163q-59 56 -158 56q-121 0 -192 -86q-72 -85 -70 -217l-242 27q1 138 66 257q62 117 182 188q119 69 276 69q134 0 238 -53q102 -54 160 -151q57 -98 57 -228q0 -134 -62 -249
q-62 -113 -200 -243z" />
    <glyph glyph-name="three" unicode="3" horiz-adv-x="1193" 
d="M1128 1278l-372 -346q158 -26 251 -138q93 -114 93 -284q0 -151 -73 -272q-73 -123 -205 -193q-131 -70 -298 -70q-141 0 -249 54q-109 52 -169 150q-61 97 -61 224l256 58q-5 -109 60 -174q63 -66 174 -66q125 0 211 81q85 81 85 208q0 111 -65 176q-65 64 -174 64
q-69 0 -127 -23l-49 203l356 327h-559l33 240h915z" />
    <glyph glyph-name="four" unicode="4" horiz-adv-x="1267" 
d="M45 514l678 983h293l-674 -983l418 -2l67 500h254l-69 -500h211l-35 -238h-209l-41 -274h-252l41 274l-715 2z" />
    <glyph glyph-name="five" unicode="5" horiz-adv-x="1191" 
d="M524 1257l-86 -296q102 68 242 67q126 0 226 -61t156 -171t56 -251q0 -165 -77 -296q-77 -129 -210 -203q-133 -73 -292 -73q-141 0 -250 60q-109 58 -168 167q-60 106 -60 251l258 36l-2 -32q0 -109 66 -174q66 -66 170 -66q83 0 151 40q70 42 109 113q41 73 41 167
q0 123 -68 194q-69 70 -178 70q-80 0 -148 -39q-70 -40 -110 -109h-258l238 846h833l-33 -240h-606z" />
    <glyph glyph-name="six" unicode="6" horiz-adv-x="1208" 
d="M922 941q102 -60 162 -167q59 -109 59 -246q0 -155 -74 -283t-204 -203q-131 -75 -292 -75q-147 0 -260 63q-113 61 -175 173q-62 110 -62 248q0 125 56 245q54 115 181 281l404 520h323l-393 -498q22 2 45 2q126 0 230 -60zM729 252q66 39 105 110q38 71 38 160
q0 119 -67 192q-68 72 -176 72q-80 0 -146 -39q-68 -41 -105 -112q-38 -73 -38 -162q0 -118 67 -188q66 -72 175 -72q80 0 147 39z" />
    <glyph glyph-name="seven" unicode="7" horiz-adv-x="1036" 
d="M1141 1497l-33 -231l-801 -1266h-307l799 1257h-684l32 240h994z" />
    <glyph glyph-name="eight" unicode="8" horiz-adv-x="1247" 
d="M1110 663q55 -88 55 -208q0 -136 -73 -246t-207 -175q-131 -65 -299 -65q-154 0 -266 53q-115 52 -176 146q-62 95 -62 217q0 143 85 258t218 160q-75 40 -118 114q-44 74 -44 168q0 122 67 223q66 101 187 162q122 60 275 60q201 0 323 -104q121 -105 121 -279
q0 -120 -62 -217q-64 -97 -163 -146q84 -34 139 -121zM554 1222q-69 -63 -69 -155q0 -79 57 -129q55 -49 146 -49q109 0 177 62q67 61 67 155q0 80 -55 129t-148 49q-105 0 -175 -62zM812 287q85 69 85 182q0 94 -68 153q-68 58 -182 58q-131 0 -216 -67t-85 -181
q0 -97 68 -156t184 -59q129 0 214 70z" />
    <glyph glyph-name="nine" unicode="9" horiz-adv-x="1218" 
d="M974 1469q114 -65 176 -176q62 -113 62 -255q0 -92 -27 -173q-30 -85 -77 -155q-46 -70 -135 -190l-402 -520h-329l391 498q-18 -2 -39 -2q-127 0 -229 60q-103 60 -162 168q-60 107 -60 245q0 155 74 285q74 128 204 203q131 75 292 75q147 0 261 -63zM804 751
q67 41 104 112q38 71 38 161q0 119 -66 191q-68 71 -178 71q-81 0 -146 -40q-68 -41 -105 -110q-39 -70 -39 -161q0 -118 68 -191q67 -73 175 -73q82 0 149 40z" />
    <glyph glyph-name="colon" unicode=":" horiz-adv-x="612" 
d="M238 770q-43 43 -43 107q0 74 50 122t122 48q68 0 110 -44q41 -46 41 -110q0 -73 -49 -119q-50 -47 -121 -47q-67 0 -110 43zM136 14q-42 44 -42 109q0 72 51 120q49 48 121 48q65 0 109 -44q43 -43 43 -110q0 -73 -49 -119q-50 -47 -123 -47q-68 0 -110 43z" />
    <glyph glyph-name="semicolon" unicode=";" horiz-adv-x="557" 
d="M456 1003q42 -45 42 -110q0 -73 -48 -119q-50 -47 -120 -47q-69 0 -112 43q-44 44 -44 107q0 74 50 122t122 48q68 0 110 -44zM352 261q47 -47 47 -111q0 -38 -18 -76q-18 -35 -57 -80l-234 -266l-84 55l152 223q-45 13 -71 49q-26 35 -26 84q0 72 48 120q47 48 122 48
t121 -46z" />
    <glyph glyph-name="less" unicode="&#x3c;" horiz-adv-x="1161" 
d="M178 500l27 196l858 412l-33 -229l-624 -289l542 -299l-30 -213z" />
    <glyph glyph-name="equal" unicode="=" horiz-adv-x="1202" 
d="M1090 870l-27 -188h-877l27 188h877zM1034 483l-26 -188h-877l27 188h876z" />
    <glyph glyph-name="greater" unicode="&#x3e;" horiz-adv-x="1161" 
d="M156 307l624 289l-542 297l30 215l740 -422l-27 -197l-858 -411z" />
    <glyph glyph-name="question" unicode="?" horiz-adv-x="968" 
d="M334 504q2 92 54 171q54 82 173 195l51 50q82 80 112 122q32 44 32 107q0 80 -49 125t-129 45q-101 0 -163 -68q-61 -68 -61 -161q0 -21 2 -37l-211 28q-8 126 47 228q54 102 160 163q105 60 244 60q178 0 288 -96q109 -97 109 -262q0 -105 -50 -191q-49 -85 -165 -192
l-37 -35q-84 -80 -128 -135q-40 -52 -46 -109l-2 -31h-231v23zM274 25q-51 49 -51 122q0 84 60 140q58 55 141 55q76 0 126 -50t50 -124q0 -84 -58 -138q-58 -55 -141 -55q-78 0 -127 50z" />
    <glyph glyph-name="at" unicode="@" horiz-adv-x="1746" 
d="M1217 561q-6 -77 25 -109q30 -34 81 -34q103 0 168 104q63 104 63 273q0 177 -76 310q-77 134 -217 208q-140 73 -325 73q-200 0 -351 -87q-153 -87 -237 -244t-84 -363q0 -200 79 -352q80 -155 230 -240q151 -86 355 -86q104 0 232 25q131 24 251 82v-150
q-110 -54 -244 -79q-133 -23 -243 -23q-248 0 -436 102q-189 103 -292 289q-104 187 -104 430q0 249 106 440q105 190 296 297q190 105 438 105q233 0 413 -93q178 -93 276 -260q97 -166 97 -380q0 -154 -50 -274q-50 -119 -141 -185t-208 -66q-82 0 -139 36q-59 36 -78 91
q-34 -55 -101 -87q-67 -33 -145 -33q-137 0 -227 102t-90 283q0 122 44 219q43 95 122 151q77 54 178 54q77 0 137 -28q62 -29 90 -71l25 76h118zM1020 501q57 76 57 208q0 119 -47 181t-129 62q-92 0 -146 -76q-55 -76 -55 -210q0 -119 46 -180q45 -62 124 -62q93 0 150 77
z" />
    <glyph glyph-name="A" unicode="A" horiz-adv-x="1394" 
d="M954 291h-571l-139 -291h-297l755 1497h271l332 -1497h-293zM911 518l-71 363l-17 84q-30 150 -32 198q-19 -54 -127 -282l-172 -363h419z" />
    <glyph glyph-name="B" unicode="B" horiz-adv-x="1273" 
d="M1144 625q40 -77 40 -176q0 -130 -64 -231q-64 -102 -185 -160q-119 -58 -280 -58h-575l211 1497l563 -2q190 0 294 -102q103 -103 103 -271q0 -130 -59 -224q-58 -91 -166 -148q77 -47 118 -125zM446 852h295q113 0 178 63q64 61 64 162q0 88 -49 136q-50 47 -137 47
h-293zM858 299q66 61 66 162q0 85 -49 131q-50 47 -136 47h-319l-60 -401h320q111 0 178 61z" />
    <glyph glyph-name="C" unicode="C" horiz-adv-x="1540" 
d="M1194 76q-176 -105 -397 -105q-205 0 -360 90q-155 88 -241 254q-85 163 -85 387q0 241 97 429q98 189 270 295t396 106q237 0 409 -122q170 -121 226 -320l-245 -99q-33 136 -138 215q-107 80 -256 80q-142 0 -254 -74q-111 -74 -173 -208q-62 -135 -62 -304
q0 -227 112 -357q111 -130 298 -130q133 0 249 68q115 67 170 182l244 -88q-84 -195 -260 -299z" />
    <glyph glyph-name="D" unicode="D" horiz-adv-x="1413" 
d="M293 1499h426q204 0 353 -83q147 -82 225 -234q77 -152 77 -357q0 -241 -104 -429q-105 -188 -292 -291q-188 -105 -433 -105h-463zM541 238q165 0 295 74t200 204t70 299q0 210 -107 329q-108 118 -294 118h-197l-143 -1024h176z" />
    <glyph glyph-name="E" unicode="E" horiz-adv-x="1077" 
d="M293 1497h844l-33 -237h-598l-53 -383h534l-33 -238h-534l-58 -401h601l-37 -238h-844z" />
    <glyph glyph-name="F" unicode="F" horiz-adv-x="1050" 
d="M287 1497h850l-33 -237h-602l-58 -408h508l-32 -236h-508l-88 -616h-248z" />
    <glyph glyph-name="G" unicode="G" horiz-adv-x="1583" 
d="M1522 684q-6 -212 -103 -372q-97 -162 -262 -251q-163 -90 -366 -90q-200 0 -354 86q-154 85 -240 250q-86 164 -86 387q0 243 97 433t271 298q175 107 395 107q158 0 287 -55q131 -55 222 -156q90 -101 126 -231l-245 -99q-33 136 -138 215q-107 80 -254 80
q-143 0 -254 -75q-112 -77 -174 -210q-63 -135 -63 -307q0 -230 112 -355q111 -126 300 -126q114 0 213 47q97 46 164 136q64 88 81 208h-458l30 213h690q9 -47 9 -133z" />
    <glyph glyph-name="H" unicode="H" horiz-adv-x="1370" 
d="M1356 1497l-211 -1497h-248l86 616h-567l-86 -616h-248l211 1497h248l-90 -643h567l90 643h248z" />
    <glyph glyph-name="I" unicode="I" horiz-adv-x="552" 
d="M82 0l211 1497h248l-211 -1497h-248z" />
    <glyph glyph-name="J" unicode="J" horiz-adv-x="1120" 
d="M72 512h241l-10 -78q-4 -29 -4 -47q0 -90 50 -138q49 -48 138 -48q96 0 154 61q57 60 72 164l149 1071h250l-154 -1096q-27 -203 -153 -314q-127 -112 -320 -112q-200 0 -313 110t-113 296q0 29 2 53z" />
    <glyph glyph-name="K" unicode="K" horiz-adv-x="1314" 
d="M860 852l363 -852h-297l-262 635l-293 -334l-41 -303h-248l211 1499h248l-109 -766l674 766h317z" />
    <glyph glyph-name="L" unicode="L" horiz-adv-x="1081" 
d="M981 238l-33 -238h-868l211 1497h250l-179 -1259h619z" />
    <glyph glyph-name="M" unicode="M" horiz-adv-x="1714" 
d="M293 1497h246l284 -1184l623 1184h256l-211 -1497h-250l84 604q36 235 53 326l-475 -928h-229l-215 926q-5 -109 -29 -281l-6 -43l-86 -604h-256z" />
    <glyph glyph-name="N" unicode="N" horiz-adv-x="1452" 
d="M293 1497h248l501 -1071l150 1071h248l-211 -1497h-248l-500 1071l-151 -1071h-248z" />
    <glyph glyph-name="O" unicode="O" horiz-adv-x="1607" 
d="M433 60q-154 90 -238 256q-84 165 -84 382q0 233 98 424q97 190 273 300q176 108 397 108q201 0 354 -90q152 -90 238 -255q85 -164 85 -382q0 -241 -100 -429q-101 -191 -275 -297q-175 -108 -393 -108q-203 0 -355 91zM1049 298q111 74 176 205q63 130 63 292
q0 145 -52 253t-147 170q-96 60 -219 60q-138 0 -251 -75t-176 -206q-64 -129 -64 -292q0 -145 51 -254t146 -168q94 -60 219 -60q141 0 254 75z" />
    <glyph glyph-name="P" unicode="P" horiz-adv-x="1304" 
d="M293 1497h541q225 0 354 -123t129 -325q0 -160 -73 -281t-206 -187q-133 -67 -309 -67h-326l-73 -514h-248zM729 745q156 0 241 76t85 205q0 112 -66 174q-67 60 -180 60h-303l-70 -515h293z" />
    <glyph glyph-name="Q" unicode="Q" horiz-adv-x="1650" 
d="M1516 518q-40 -131 -119 -242l159 -151l-155 -148l-152 146q-199 -154 -461 -154q-204 0 -356 91q-153 90 -237 256q-84 165 -84 382q0 233 98 424q97 190 273 300q176 108 397 108q201 0 354 -90q152 -90 238 -255q85 -164 85 -382q0 -153 -40 -285zM1059 305l-205 195
l156 145l192 -184q86 148 86 334q0 145 -52 253t-147 170q-96 60 -219 60q-138 0 -251 -75t-176 -206q-64 -129 -64 -292q0 -145 51 -254t146 -168q94 -60 219 -60q148 0 264 82z" />
    <glyph glyph-name="R" unicode="R" horiz-adv-x="1351" 
d="M1251 756q-85 -122 -237 -181l157 -575h-276l-135 532h-354l-76 -532h-248l211 1497h571q138 0 247 -56q109 -57 167 -159q59 -103 59 -238q0 -164 -86 -288zM995 830q84 74 84 192q0 107 -64 172q-64 66 -179 66h-330l-70 -504h330q144 0 229 74z" />
    <glyph glyph-name="S" unicode="S" horiz-adv-x="1216" 
d="M932 1077q-7 100 -70 160q-63 57 -168 57q-109 0 -178 -57q-70 -57 -70 -150q0 -74 49 -117q49 -45 130 -71l194 -61q147 -47 224 -152q77 -107 77 -244q0 -139 -70 -245q-71 -107 -196 -164q-123 -58 -281 -58q-156 0 -271 58q-116 57 -175 158q-58 100 -57 229l237 37
q1 -110 80 -178t203 -68q117 0 188 56q70 55 70 149q0 139 -158 190l-192 62q-316 103 -318 389q0 139 66 247q65 107 182 167q118 59 266 59q200 0 333 -107q132 -108 147 -286z" />
    <glyph glyph-name="T" unicode="T" horiz-adv-x="1187" 
d="M1233 1260h-412l-176 -1260h-252l178 1260h-415l32 237h1082z" />
    <glyph glyph-name="U" unicode="U" horiz-adv-x="1398" 
d="M270 1497h252l-129 -924q-6 -45 -6 -86q0 -133 72 -205q70 -73 203 -73q147 0 240 95q92 94 118 269l129 924h252l-133 -948q-39 -277 -205 -426q-167 -150 -412 -150q-155 0 -270 60q-118 59 -182 171q-66 111 -66 265q0 53 8 106z" />
    <glyph glyph-name="V" unicode="V" horiz-adv-x="1394" 
d="M440 1497l228 -1130l538 1130h303l-749 -1497h-262l-334 1497h276z" />
    <glyph glyph-name="W" unicode="W" horiz-adv-x="2043" 
d="M457 1497l82 -1065l481 1065h256l180 -1063l397 1063h289l-594 -1497h-268l-193 1069l-493 -1069h-254l-160 1497h277z" />
    <glyph glyph-name="X" unicode="X" horiz-adv-x="1380" 
d="M573 774l-325 723h276l234 -526l51 63q18 22 42.5 53.5t60 76t61.5 77.5l203 256h301l-588 -735l346 -762h-281l-252 563l-67 -88q-59 -74 -203 -266l-162 -209h-301z" />
    <glyph glyph-name="Y" unicode="Y" horiz-adv-x="1239" 
d="M436 1497l146 -418l36 -108l39 -117q30 53 68 111l76 120l264 412h297l-606 -885l-84 -612h-256l84 612l-342 885h278z" />
    <glyph glyph-name="Z" unicode="Z" horiz-adv-x="1179" 
d="M59 231l818 1024h-664l33 240l989 2l-31 -231l-821 -1028h655l-32 -238h-979z" />
    <glyph glyph-name="bracketleft" unicode="[" horiz-adv-x="679" 
d="M500 -324h-477l288 2059h480l-29 -203h-258l-232 -1655h258z" />
    <glyph glyph-name="backslash" unicode="\" horiz-adv-x="1478" 
d="M354 1522l1051 -1522h-211l-1051 1522h211z" />
    <glyph glyph-name="bracketright" unicode="]" horiz-adv-x="677" 
d="M229 -123l234 1655h-258l28 203h480l-291 -2059h-477l28 201h256z" />
    <glyph glyph-name="asciicircum" unicode="^" horiz-adv-x="1099" 
d="M666 1313l-162 -275h-215l311 459h174l184 -459h-208z" />
    <glyph glyph-name="underscore" unicode="_" horiz-adv-x="997" 
d="M-76 -43l996 2l-25 -192h-997z" />
    <glyph glyph-name="grave" unicode="`" horiz-adv-x="442" 
d="M221 1343l-239 293h241l178 -293h-180z" />
    <glyph glyph-name="a" unicode="a" horiz-adv-x="1177" 
d="M1114 1012l-141 -1012h-234l17 104q-50 -62 -129 -97q-77 -34 -168 -34q-173 0 -279 121q-108 122 -108 342q0 167 65 308q64 139 180 220q116 80 261 80q97 0 172 -37t116 -106l27 111h221zM673 230q64 51 100 139q36 89 36 196q0 135 -56 206q-57 71 -149 71
q-83 0 -148 -53q-65 -55 -101 -144q-36 -90 -36 -192q0 -133 57 -204q56 -71 150 -71q83 0 147 52z" />
    <glyph glyph-name="b" unicode="b" horiz-adv-x="1177" 
d="M926 987q87 -58 133 -161q47 -106 47 -242q0 -176 -65 -317q-67 -141 -183 -217q-118 -77 -266 -77q-97 0 -174 41q-76 40 -111 113l-33 -127h-213l213 1513h242l-82 -583q52 52 130 84q77 30 163 30q113 0 199 -57zM713 227q67 49 106 137q39 87 39 197q0 133 -54 207
t-151 74q-77 0 -141 -49q-66 -49 -105 -138q-40 -87 -40 -202q0 -133 54 -204t146 -71q79 0 146 49z" />
    <glyph glyph-name="c" unicode="c" horiz-adv-x="1124" 
d="M295 35q-109 63 -166 173q-59 112 -59 259q0 159 68 292q68 132 190 210q123 78 282 78q174 0 293 -92q119 -93 146 -248l-215 -68q-12 83 -74 136q-61 52 -152 52q-129 0 -210 -98q-81 -97 -81 -252q0 -130 65 -207t175 -77q91 0 158 49q67 50 90 129l211 -76
q-46 -151 -176 -237q-128 -85 -299 -85q-141 0 -246 62z" />
    <glyph glyph-name="d" unicode="d" horiz-adv-x="1177" 
d="M1186 1513l-213 -1513h-217l8 111q-50 -67 -128 -102q-80 -36 -173 -36q-174 0 -282 121q-109 121 -109 342q0 169 65 310q65 140 180 219t263 79q90 0 165 -35q71 -35 115 -98l84 602h242zM673 230q64 51 100 139q36 89 36 196q0 135 -56 206q-57 71 -149 71
q-83 0 -148 -53q-65 -55 -101 -144q-36 -90 -36 -192q0 -133 57 -204q56 -71 150 -71q83 0 147 52z" />
    <glyph glyph-name="e" unicode="e" horiz-adv-x="1120" 
d="M834 989q98 -59 149 -159t51 -226q0 -42 -6 -88q-5 -45 -20 -92h-701q-7 -115 57 -182q65 -68 181 -68q96 0 165 45q69 46 97 121l199 -70q-56 -142 -182 -219q-128 -78 -292 -78q-211 0 -334 128q-124 127 -124 358q0 163 65 298t184 212q119 78 277 78q136 0 234 -58z
M417 782q-68 -64 -85 -176h467q10 108 -46 175q-57 65 -163 65t-173 -64z" />
    <glyph glyph-name="f" unicode="f" horiz-adv-x="884" 
d="M606 1110l-14 -98h299l-31 -209h-297l-112 -803h-242l113 803h-224l29 209h223l17 121q57 391 430 391q86 0 161 -23l-26 -198q-83 8 -115 8q-179 0 -211 -201z" />
    <glyph glyph-name="g" unicode="g" horiz-adv-x="1181" 
d="M1118 1012l-143 -1024q-33 -219 -172 -339t-357 -120q-196 0 -320 93q-126 93 -144 247l198 82q18 -100 90 -157q73 -56 181 -56q118 0 192 67q73 67 90 189l23 156q-45 -60 -122 -95q-76 -35 -171 -35q-177 0 -281 119t-104 322q0 162 62 297q62 134 172 210
q109 76 253 76q103 0 185 -41q81 -42 120 -112l27 121h221zM680 268q63 45 99 126t36 184q0 125 -55 195q-56 69 -152 69q-82 0 -145 -48q-65 -50 -99 -130q-36 -82 -36 -181q0 -125 55 -192q56 -68 154 -68q79 0 143 45z" />
    <glyph glyph-name="h" unicode="h" horiz-adv-x="1140" 
d="M961 960q81 -88 81 -235q0 -37 -6 -78l-90 -647h-241l83 594q1 6 5 53q0 87 -43 131q-44 45 -119 45q-104 0 -167 -66q-63 -67 -79 -179l-82 -578h-242l213 1513h242l-84 -595q56 63 132 96t167 33q147 0 230 -87z" />
    <glyph glyph-name="i" unicode="i" horiz-adv-x="512" 
d="M261 1265q-42 41 -42 101q0 72 48 120t122 48q61 0 105 -41q43 -40 43 -102q0 -73 -49 -119q-50 -47 -123 -47q-63 0 -104 40zM442 1012l-141 -1012h-235l141 1012h235z" />
    <glyph glyph-name="j" unicode="j" horiz-adv-x="520" 
d="M271 1265q-42 41 -42 101q0 72 49 120q48 48 121 48q60 0 104 -41q42 -41 42 -102q0 -73 -48 -119q-49 -47 -120 -47q-65 0 -106 40zM-272 -465l28 199q58 -6 105 -6q101 0 147 49q47 50 62 143l155 1092h240l-160 -1129q-26 -187 -138 -278q-115 -92 -288 -92
q-76 -1 -151 22z" />
    <glyph glyph-name="k" unicode="k" horiz-adv-x="1062" 
d="M702 618l254 -618h-278l-168 428l-170 -166l-37 -262h-242l213 1513h242l-127 -897l404 396h311z" />
    <glyph glyph-name="l" unicode="l" horiz-adv-x="501" 
d="M274 1513h236l-213 -1513h-236z" />
    <glyph glyph-name="m" unicode="m" horiz-adv-x="1677" 
d="M1507 964q80 -83 80 -229q0 -37 -6 -78l-90 -657h-242l86 627q4 33 4 51q0 78 -38 116q-38 37 -105 37q-86 0 -141 -58q-56 -59 -68 -152l-86 -621h-246l88 629q2 13 3.5 28.5t1.5 16.5q0 78 -40 118q-40 39 -110 39q-86 0 -139 -59q-52 -58 -66 -151l-86 -621h-244
l142 1014h215l-2 -103q38 60 109 98t159 38q104 0 178 -50q75 -52 97 -141q44 91 131 141q89 50 194 50q141 0 221 -83z" />
    <glyph glyph-name="n" unicode="n" horiz-adv-x="1134" 
d="M966 962q83 -86 83 -229q0 -38 -7 -76l-92 -657h-243l86 604q4 29 4 49q0 83 -44 129q-43 45 -122 45q-102 0 -166 -67q-65 -68 -78 -174l-82 -586h-242l142 1012h217l-6 -123q52 75 136 116q86 42 183 42q149 0 231 -85z" />
    <glyph glyph-name="o" unicode="o" horiz-adv-x="1157" 
d="M138 757q64 132 186 210q121 77 278 77q140 0 247 -61q108 -62 166 -174t58 -260q0 -154 -65 -289q-66 -133 -187 -211q-122 -78 -278 -78q-143 0 -248 62q-107 61 -165 174q-58 112 -58 260q0 158 66 290zM381 264q61 -76 166 -76q81 0 146 48q63 47 98 128
q34 78 34 179q0 134 -61 210t-166 76q-80 0 -143 -48q-64 -48 -100 -130q-36 -83 -36 -180q0 -130 62 -207z" />
    <glyph glyph-name="p" unicode="p" horiz-adv-x="1177" 
d="M1007 923q103 -124 103 -341q0 -170 -63 -308q-65 -141 -176 -219q-113 -80 -259 -80q-102 0 -179 41q-76 40 -111 107l-78 -559h-242l203 1448h213l-4 -121q51 72 133 114q83 42 182 42q175 0 278 -124zM723 230q65 52 101 141q36 90 36 198q0 132 -55 202
q-56 71 -152 71q-81 0 -146 -50q-65 -51 -101 -140q-37 -87 -37 -203q0 -133 54 -202t150 -69q85 0 150 52z" />
    <glyph glyph-name="q" unicode="q" horiz-adv-x="1173" 
d="M1112 1012l-207 -1448h-239l73 522q-49 -56 -120 -84q-73 -29 -158 -29q-179 0 -285 121q-108 122 -108 342q0 168 65 309q65 138 180 219q116 80 262 80q90 0 165 -35q71 -35 116 -98l14 101h242zM669 229q64 49 100 138t36 198q0 135 -54 206q-56 71 -151 71
q-85 0 -150 -53q-65 -54 -101 -143q-36 -88 -36 -193q0 -134 58 -204q57 -71 151 -71q82 0 147 51z" />
    <glyph glyph-name="r" unicode="r" horiz-adv-x="772" 
d="M776 1012l-33 -234q-42 8 -96 8q-246 0 -282 -276l-74 -510h-240l142 1012h223l-4 -133q39 71 112 108q71 37 154 37q48 0 98 -12z" />
    <glyph glyph-name="s" unicode="s" horiz-adv-x="915" 
d="M645 717q5 61 -36 99t-109 38q-69 0 -110 -34q-42 -34 -42 -89q0 -43 28 -65q28 -24 83 -37l137 -37q111 -27 168 -99q57 -74 57 -176q0 -158 -119 -251q-120 -93 -305 -93q-169 0 -270 83q-100 82 -98 225l211 34q-4 -67 40 -107q43 -40 128 -40q76 0 122 34
q45 35 45 91q0 73 -90 98l-151 45q-233 71 -234 269q0 100 51 178q49 77 142 121q90 43 213 43q158 0 250 -77t100 -208z" />
    <glyph glyph-name="t" unicode="t" horiz-adv-x="872" 
d="M492 348q-1 -13 -3 -41q0 -66 34 -93q34 -28 102 -28q60 0 125 13l-29 -191q-48 -15 -97 -23q-59 -8 -100 -8q-135 0 -206 74q-72 74 -72 205q0 49 4 72l67 475h-233l29 209h233l41 284l242 17l-43 -301h276l-28 -209h-277z" />
    <glyph glyph-name="u" unicode="u" horiz-adv-x="1132" 
d="M1067 1012l-141 -1012h-215l8 129q-44 -72 -124 -114q-81 -42 -179 -42q-150 0 -232 87q-82 86 -82 239q0 43 7 84l88 629h241l-84 -598q-4 -29 -4 -47q0 -85 46 -128q47 -44 126 -44q94 0 151 59q55 58 72 172l82 586h240z" />
    <glyph glyph-name="v" unicode="v" horiz-adv-x="1069" 
d="M362 1012l76 -387l66 -342q94 210 145 321l195 408h268l-520 -1012h-242l-250 1012h262z" />
    <glyph glyph-name="w" unicode="w" horiz-adv-x="1585" 
d="M362 1012l99 -654q18 39 78 181l34 84l168 389h240l102 -654l52 129q23 51 36 88l189 437h258l-449 -1012h-249l-107 664q-49 -125 -137 -318l-154 -346h-241l-170 1012h251z" />
    <glyph glyph-name="x" unicode="x" horiz-adv-x="1038" 
d="M346 512l-242 500h281l55 -119q10 -29 60 -135l41 -86l241 340h271l-373 -512l256 -500h-281l-45 98q-9 14 -17 35q-7 19 -15 33q-68 139 -80 166l-238 -332h-272z" />
    <glyph glyph-name="y" unicode="y" horiz-adv-x="1052" 
d="M1100 1012l-678 -1446h-246l219 475l-305 971h252l197 -662l305 662h256z" />
    <glyph glyph-name="z" unicode="z" horiz-adv-x="958" 
d="M61 215l525 573h-439l31 224h744l-33 -230l-508 -557h434l-31 -225h-751z" />
    <glyph glyph-name="braceleft" unicode="{" horiz-adv-x="710" 
d="M499 1642q117 87 316 78l-24 -190q-111 0 -160 -52t-66 -169l-45 -312q-27 -180 -149 -284q70 -70 69 -209q0 -44 -6 -96l-43 -324q-4 -29 -4 -45q0 -104 58 -138q55 -33 114 -38l-29 -189q-159 1 -264 82q-104 80 -104 240q0 35 6 74l43 309q6 41 6 72q0 81 -39 115
q-38 34 -129 34v4l25 189q67 5 139 47q72 44 90 174l45 321q33 219 151 307z" />
    <glyph glyph-name="bar" unicode="|" horiz-adv-x="622" 
d="M336 1530h237l-254 -1802h-237z" />
    <glyph glyph-name="braceright" unicode="}" horiz-adv-x="708" 
d="M715 793l-27 -189q-58 0 -134 -44q-75 -43 -93 -175l-45 -322q-33 -219 -151 -307q-117 -88 -318 -80l26 193q113 0 161 52q49 53 65 167l43 311q27 184 149 285q-71 74 -69 213q0 45 6 96l47 322q2 18 2 43q0 104 -59 140q-60 36 -111 36l26 188q160 -1 265 -81
q104 -80 104 -240q0 -35 -6 -72l-45 -309q-6 -39 -6 -70q0 -81 40 -115q41 -36 130 -36v-6z" />
    <glyph glyph-name="asciitilde" unicode="~" horiz-adv-x="1181" 
d="M240 699q64 69 159 69q49 0 97 -15q67 -24 116 -44q54 -26 98 -40t78 -14q55 0 82 30t27 81h135q10 -154 -60 -223q-70 -70 -171 -70q-55 0 -108 17q-57 18 -132 49q-53 24 -91 37q-36 12 -67 12q-47 0 -67 -33q-21 -34 -17 -78h-137q-8 152 58 222z" />
    <glyph glyph-name="exclamdown" unicode="&#xa1;" horiz-adv-x="622" 
d="M512 1090q51 -54 51 -129q0 -80 -56 -133q-55 -54 -140 -54q-82 0 -132 50q-51 50 -51 126q0 82 57 138q55 55 140 55q80 0 131 -53zM406 590l-95 -979h-239l180 979h154z" />
    <glyph glyph-name="cent" unicode="&#xa2;" horiz-adv-x="1316" 
d="M870 251q94 65 134 169l206 -70q-57 -166 -208 -271q-151 -106 -349 -106q-57 0 -104 9l-60 -213h-108l68 239q-159 58 -251 209t-92 367q0 206 83 370q83 162 230 254q146 92 333 92q33 0 57 -2l55 199h113l-62 -219q134 -38 223 -131q89 -95 113 -227l-204 -78
q-18 80 -68 140q-50 57 -123 83l-248 -875q29 -4 54 -4q113 0 208 65zM386 361q43 -93 122 -138l242 862h-9q-120 0 -212 -65q-91 -65 -139 -180q-48 -116 -48 -254q0 -132 44 -225z" />
    <glyph glyph-name="sterling" unicode="&#xa3;" horiz-adv-x="1196" 
d="M597 1236q-85 -69 -85 -202q0 -86 33 -192h422l-45 -178h-344q14 -73 14 -138q0 -183 -107 -284h559l-32 -242h-1000l35 246q120 -8 206 50q88 59 95 177q2 79 -29 191h-202l26 178h129q-20 85 -20 176q0 247 151 380q151 134 400 134q102 0 203 -23q101 -25 163 -61
l-84 -213q-59 31 -129 51q-69 19 -129 19q-145 0 -230 -69z" />
    <glyph glyph-name="currency" unicode="&#xa4;" horiz-adv-x="1185" 
d="M221 420q-39 84 -39 178q0 80 27 159q27 80 76 142l-107 156l168 133l109 -156q89 53 211 53q58 0 112 -14q53 -14 88 -41l160 158l141 -141l-161 -160q39 -77 38 -176q0 -78 -26 -159q-27 -79 -78 -142l113 -156l-168 -131l-115 151q-38 -25 -93 -37q-54 -12 -114 -12
q-133 0 -203 51l-157 -153l-142 139zM451 477q49 -51 131 -51q103 0 173 73q70 71 70 189q0 94 -48 146q-48 51 -132 51q-103 0 -173 -72q-71 -73 -71 -188q0 -96 50 -148z" />
    <glyph glyph-name="yen" unicode="&#xa5;" horiz-adv-x="1384" 
d="M944 838h227l-24 -179h-316l-20 -137h317l-26 -180h-318l-51 -342h-231l49 342h-311l24 180h311l21 137h-313l26 179h228l-295 661h266l223 -606l402 606h290z" />
    <glyph glyph-name="brokenbar" unicode="&#xa6;" horiz-adv-x="622" 
d="M338 1530h237l-106 -748h-238zM190 475h238l-106 -747h-238z" />
    <glyph glyph-name="section" unicode="&#xa7;" horiz-adv-x="968" 
d="M727 1141q8 71 -35 116q-43 46 -121 46q-67 0 -99 -31q-34 -31 -34 -78q0 -42 28 -67q29 -28 81 -50l133 -53q110 -44 160 -113q51 -71 51 -155q0 -99 -58 -167t-147 -85q139 -82 139 -236q0 -133 -98 -216t-256 -83q-100 0 -184 36t-134 104q-51 67 -51 159q0 19 2 35
l201 21q-8 -75 37 -118q46 -44 123 -44q63 0 98 30q35 29 35 76q0 40 -26 68q-27 26 -85 51l-129 53q-217 90 -217 265q0 97 61 168q61 72 148 88q-143 84 -143 233q0 135 98 218t256 83q105 0 193 -41q86 -41 133 -116q46 -76 45 -175zM411 816q-32 -32 -32 -79
q0 -53 42 -84q43 -32 101 -32q62 0 93 31q32 30 32 77q0 53 -42 86t-101 33q-61 0 -93 -32z" />
    <glyph glyph-name="dieresis" unicode="&#xa8;" horiz-adv-x="915" 
d="M255 1375q-38 38 -38 98q0 56 44 100q43 43 108 43q59 0 96 -37t37 -94q0 -61 -43 -104q-44 -44 -109 -44q-57 0 -95 38zM653 1375q-37 37 -37 98q0 57 43 100t109 43q58 0 95 -37q38 -38 38 -94q0 -61 -43 -104q-44 -44 -108 -44q-59 0 -97 38z" />
    <glyph glyph-name="copyright" unicode="&#xa9;" horiz-adv-x="1703" 
d="M496 70q-177 102 -278 281t-101 399q0 219 101 398q100 178 278 282q176 102 391 102t391 -102q177 -104 278 -281q101 -179 101 -397t-101 -399q-101 -180 -278 -283q-175 -103 -391 -103t-391 103zM1207 192q142 83 221 229q79 145 79 331q0 183 -79 329
q-80 147 -221 229q-143 83 -320 83t-319 -83q-142 -82 -222 -229q-80 -148 -80 -331t80 -331q80 -147 222 -228q140 -82 319 -82q177 0 320 83zM704 382q-88 56 -135 153t-47 215q0 122 48 216q48 95 135 149q86 54 196 54q131 0 225 -69q94 -71 119 -187l-155 -45
q-11 75 -61 118q-53 44 -128 44q-104 0 -161 -79q-58 -79 -58 -201q0 -125 58 -204q57 -79 161 -79q76 0 127 45t62 119l157 -29q-20 -125 -116 -200q-97 -76 -230 -76q-109 0 -197 56z" />
    <glyph glyph-name="ordfeminine" unicode="&#xaa;" horiz-adv-x="645" 
d="M498 1408q61 -60 61 -163v-387h-133v72q-27 -42 -70 -64q-45 -24 -104 -24q-82 0 -135 48q-54 48 -54 132q0 86 57 137q55 51 154 51h95q53 0 53 54q0 44 -30 67q-30 21 -79 21q-51 0 -83 -26q-32 -25 -37 -69l-111 33q14 86 78 132q62 46 162 46q114 0 176 -60z
M422 1106h-123q-92 0 -92 -72q0 -35 22 -54q20 -19 66 -19q59 0 93 34q34 33 34 88v23z" />
    <glyph glyph-name="guillemotleft" unicode="&#xab;" horiz-adv-x="1271" 
d="M487 1012h283l-410 -494l273 -463h-271l-286 477zM997 1012h283l-412 -494l275 -463h-269l-288 477z" />
    <glyph glyph-name="logicalnot" unicode="&#xac;" horiz-adv-x="1253" 
d="M1092 254h-220v303h-708v211h928v-514z" />
    <glyph glyph-name="registered" unicode="&#xae;" horiz-adv-x="1232" 
d="M410 547q-121 67 -187 186q-67 118 -67 271q0 155 67 274q67 120 187 187q119 67 276 67q156 0 277 -67q119 -67 187 -188q67 -119 67 -273q0 -153 -67 -271q-68 -119 -187 -186q-122 -68 -277 -68t-276 68zM965 724q106 106 106 280q0 176 -105 285q-106 108 -280 108
t-280 -108q-107 -110 -107 -285q0 -113 49 -201t137 -137q89 -50 201 -50q172 0 279 108zM543 1268h213q78 0 124 -40t46 -110q0 -58 -31 -101q-33 -45 -86 -61l74 -196h-133l-60 176h-69l-25 -176h-125zM713 1028q39 0 63 21q23 20 23 53q0 28 -18 45q-19 16 -52 16h-76
l-18 -135h78z" />
    <glyph glyph-name="macron" unicode="&#xaf;" horiz-adv-x="811" 
d="M754 1585l-23 -174h-600l25 174h598z" />
    <glyph glyph-name="degree" unicode="&#xb0;" horiz-adv-x="720" 
d="M250 1021q-82 81 -82 214q0 131 82 213t209 82q128 0 211 -82q84 -82 84 -213q0 -133 -83 -214t-212 -81q-127 0 -209 81zM554 1141q36 37 36 94q0 59 -37 95t-92 36t-92 -37t-37 -94t37 -94t94 -37q55 0 91 37z" />
    <glyph glyph-name="plusminus" unicode="&#xb1;" horiz-adv-x="1271" 
d="M178 797h404l41 303h190l-43 -303h404l-25 -185h-406l-43 -305h-188l43 305h-403zM92 182h995l-24 -182h-995z" />
    <glyph glyph-name="uni00B2" unicode="&#xb2;" horiz-adv-x="925" 
d="M489 731h379l-28 -199h-695l25 170l426 398q62 58 90 107q27 48 27 98q0 66 -39 99q-38 34 -101 34q-83 0 -126 -57q-45 -57 -46 -144l-196 23q1 99 48 185t134 136q89 51 207 51q150 0 239 -83t89 -218q0 -115 -51 -199q-49 -84 -134 -165z" />
    <glyph glyph-name="uni00B3" unicode="&#xb3;" horiz-adv-x="935" 
d="M915 1432l-251 -230q105 -17 170 -97q66 -82 65 -204q0 -111 -52 -199q-53 -89 -146 -138q-94 -50 -209 -50q-158 0 -256 87q-98 88 -97 226l203 43q-6 -70 38 -111q43 -42 118 -42q82 0 133 52q51 53 51 130q0 71 -45 115q-44 43 -117 43q-46 0 -88 -19l-39 166l230 207
l-379 2l28 195h670z" />
    <glyph glyph-name="acute" unicode="&#xb4;" horiz-adv-x="485" 
d="M477 1636h230l-248 -293h-183z" />
    <glyph glyph-name="paragraph" unicode="&#xb6;" horiz-adv-x="1445" 
d="M1083 -211h-190l219 1583h-276l-222 -1583h-194l133 954q-161 0 -258 97q-98 96 -98 252q0 134 63 240q62 106 171 165t239 59h813l-27 -184h-149z" />
    <glyph glyph-name="periodcentered" unicode="&#xb7;" horiz-adv-x="655" 
d="M186 390q-59 56 -59 142q0 92 65 157t160 65q81 0 142 -56q59 -57 59 -141q0 -93 -65 -158q-67 -65 -160 -65q-83 0 -142 56z" />
    <glyph glyph-name="cedilla" unicode="&#xb8;" horiz-adv-x="589" 
d="M344 -14l-41 -84q72 4 120 -37q46 -40 46 -109q0 -79 -62 -126q-62 -46 -151 -46q-90 0 -146 48q-57 50 -53 122h136q0 -49 55 -49q29 0 47 15q18 16 18 42t-17 40t-46 14q-12 0 -31 -4l-53 30l82 170z" />
    <glyph glyph-name="uni00B9" unicode="&#xb9;" horiz-adv-x="618" 
d="M682 1608l-150 -1076h-198l104 746h-233l18 143q118 0 179 47q60 47 83 140h197z" />
    <glyph glyph-name="ordmasculine" unicode="&#xba;" horiz-adv-x="661" 
d="M138 1387q71 83 192 83q123 0 195 -85q71 -86 71 -228q0 -144 -71 -229q-72 -84 -195 -84q-122 0 -193 84q-71 85 -71 229q0 146 72 230zM242 1020q31 -49 88 -49t90 50q33 49 33 136q0 90 -33 138t-90 48q-58 0 -89 -49q-32 -50 -32 -135q0 -89 33 -139z" />
    <glyph glyph-name="guillemotright" unicode="&#xbb;" horiz-adv-x="1271" 
d="M694 535l-409 -480h-285l412 494l-275 463h271zM1204 535l-411 -480h-283l412 494l-273 463h269z" />
    <glyph glyph-name="onequarter" unicode="&#xbc;" horiz-adv-x="1925" 
d="M451 1167h-203l16 123q104 0 156 42q51 42 72 122h170l-134 -946h-170zM1511 1454l-983 -1454h-170l985 1454h168zM1729 334l-23 -168h-133l-23 -166h-174l23 166l-443 2l23 168l414 610h206l-421 -610h245l43 303h174l-43 -305h132z" />
    <glyph glyph-name="onehalf" unicode="&#xbd;" horiz-adv-x="1966" 
d="M451 1167h-203l16 123q104 0 156 42q51 42 72 122h170l-134 -946h-170zM1495 1454l-983 -1454h-170l985 1454h168zM1413 172h322l-23 -172h-598l21 147l376 353q60 57 83 97q24 42 24 89q0 50 -33 82q-32 31 -86 31q-74 0 -118 -50q-45 -52 -46 -128l-170 20q1 89 45 162
q44 75 121 119q78 45 180 45q126 0 206 -71q79 -70 79 -187q0 -106 -41 -180t-119 -146z" />
    <glyph glyph-name="threequarters" unicode="&#xbe;" horiz-adv-x="2103" 
d="M1159 336l414 610h207l-422 -610h246l43 303h174l-43 -305h131l-23 -168h-133l-22 -166h-175l23 166l-442 2zM709 0h-170l985 1454h168zM893 1300l-225 -202q98 -14 154 -80t57 -168q0 -104 -49 -186q-48 -82 -135 -127t-197 -45q-134 0 -213 75q-80 77 -76 201l178 37
q-6 -63 31 -102q38 -38 102 -37q76 0 123 47t47 123q0 61 -37 97q-38 37 -98 38q-46 0 -86 -17l-35 144l197 184l-328 2l25 170h587z" />
    <glyph glyph-name="questiondown" unicode="&#xbf;" horiz-adv-x="970" 
d="M714 1104q50 -50 50 -123q0 -84 -58 -139q-59 -56 -141 -56q-78 0 -126 51q-48 49 -48 124q0 84 57 138q56 54 138 54q79 0 128 -49zM653 627q-1 -95 -54 -174q-54 -82 -173 -195l-51 -49q-82 -80 -112 -122q-32 -44 -32 -107q0 -80 50 -125q49 -45 129 -45q104 0 164 67
q59 68 59 162q0 21 -2 37l213 -29q8 -125 -46 -228q-56 -103 -161 -162q-107 -60 -246 -60q-178 0 -286 96q-109 96 -109 262q0 105 50 191q48 83 163 192l33 31q92 87 131 138q41 53 47 111l2 29h231v-20z" />
    <glyph glyph-name="Agrave" unicode="&#xc0;" horiz-adv-x="1394" 
d="M754 1612l-240 293h242l178 -293h-180zM954 291h-571l-139 -291h-297l755 1497h271l332 -1497h-293zM911 518l-71 363l-17 84q-30 150 -32 198q-19 -54 -127 -282l-172 -363h419z" />
    <glyph glyph-name="Aacute" unicode="&#xc1;" horiz-adv-x="1394" 
d="M958 1890h230l-248 -293h-182zM954 291h-571l-139 -291h-297l755 1497h271l332 -1497h-293zM911 518l-71 363l-17 84q-30 150 -32 198q-19 -54 -127 -282l-172 -363h419z" />
    <glyph glyph-name="Acircumflex" unicode="&#xc2;" horiz-adv-x="1394" 
d="M934 1595l-62 164l-106 -164h-213l225 303h213l142 -303h-199zM954 291h-571l-139 -291h-297l755 1497h271l332 -1497h-293zM911 518l-71 363l-17 84q-30 150 -32 198q-19 -54 -127 -282l-172 -363h419z" />
    <glyph glyph-name="Atilde" unicode="&#xc3;" horiz-adv-x="1394" 
d="M826 1887q34 -15 75 -42q35 -21 53 -29q19 -10 41 -10q35 0 54 25q18 23 16 63h145q4 -127 -56 -195q-60 -69 -157 -69q-47 0 -80 15q-31 12 -79 41q-31 22 -47 28q-21 8 -39 8q-29 0 -46 -20q-18 -21 -18 -51q0 -9 2 -19h-145q-10 115 46 193q55 76 154 76q45 0 81 -14z
M954 291h-571l-139 -291h-297l755 1497h271l332 -1497h-293zM911 518l-71 363l-17 84q-30 150 -32 198q-19 -54 -127 -282l-172 -363h419z" />
    <glyph glyph-name="Adieresis" unicode="&#xc4;" horiz-adv-x="1394" 
d="M568 1654q-38 38 -38 97q0 56 44 100q43 43 108 43q58 0 96 -36q37 -37 37 -95q0 -61 -43 -104t-108 -43q-58 0 -96 38zM967 1654q-37 37 -37 97q0 57 43 100t108 43q57 0 95 -36q38 -38 38 -95q0 -61 -43 -104t-108 -43q-58 0 -96 38zM954 291h-571l-139 -291h-297
l755 1497h271l332 -1497h-293zM911 518l-71 363l-17 84q-30 150 -32 198q-19 -54 -127 -282l-172 -363h419z" />
    <glyph glyph-name="Aring" unicode="&#xc5;" horiz-adv-x="1394" 
d="M954 291h-571l-139 -291h-297l755 1497h37q-61 28 -97 84q-36 55 -36 129q0 78 40 139q41 61 105 92q63 31 136 31q107 0 174 -67t67 -170q0 -85 -46 -146q-47 -64 -119 -92h10l332 -1497h-293zM794 1799q-34 -34 -34 -83q0 -44 29 -73t71 -29q47 0 82 32t35 83
q0 46 -28 75q-29 29 -72 29q-50 0 -83 -34zM911 518l-71 363l-17 84q-30 150 -32 198q-19 -54 -127 -282l-172 -363h419z" />
    <glyph glyph-name="AE" unicode="&#xc6;" horiz-adv-x="1812" 
d="M1262 1219l-54 -365h516l-32 -236h-514l-56 -382h578l-33 -236h-823l39 279h-453l-184 -279h-297l983 1454h940l-35 -235h-575zM915 504l91 647l-428 -647h337z" />
    <glyph glyph-name="Ccedilla" unicode="&#xc7;" horiz-adv-x="1540" 
d="M1040 281q115 67 170 182l244 -88q-82 -190 -252 -295q-169 -104 -383 -109l-33 -65q72 4 120 -37q46 -40 46 -109q0 -79 -62 -126q-62 -46 -151 -46q-91 0 -146 48q-56 50 -52 122h135q0 -49 55 -49q29 0 48 15q18 17 18 43t-17 40q-17 13 -47 13q-12 0 -31 -4l-53 30
l62 129q-180 18 -316 112q-136 93 -210 251q-74 159 -74 364q0 241 97 429q98 189 270 295t396 106q237 0 409 -122q170 -121 226 -320l-245 -99q-33 136 -138 215q-107 80 -256 80q-142 0 -254 -74q-111 -74 -173 -208q-62 -135 -62 -304q0 -227 112 -357
q111 -130 298 -130q133 0 249 68z" />
    <glyph glyph-name="Egrave" unicode="&#xc8;" horiz-adv-x="1077" 
d="M633 1612l-240 293h242l178 -293h-180zM293 1497h844l-33 -237h-598l-53 -383h534l-33 -238h-534l-58 -401h601l-37 -238h-844z" />
    <glyph glyph-name="Eacute" unicode="&#xc9;" horiz-adv-x="1077" 
d="M838 1890h229l-248 -293h-182zM293 1497h844l-33 -237h-598l-53 -383h534l-33 -238h-534l-58 -401h601l-37 -238h-844z" />
    <glyph glyph-name="Ecircumflex" unicode="&#xca;" horiz-adv-x="1077" 
d="M813 1595l-61 164l-107 -164h-213l225 303h213l142 -303h-199zM293 1497h844l-33 -237h-598l-53 -383h534l-33 -238h-534l-58 -401h601l-37 -238h-844z" />
    <glyph glyph-name="Edieresis" unicode="&#xcb;" horiz-adv-x="1077" 
d="M448 1654q-38 38 -38 97q0 56 44 100q43 43 107 43q59 0 96 -36q37 -37 37 -95q0 -61 -43 -104t-108 -43q-57 0 -95 38zM846 1654q-37 37 -37 97q0 57 43 100t109 43q57 0 95 -36q38 -38 38 -95q0 -61 -43 -104t-109 -43q-58 0 -96 38zM293 1497h844l-33 -237h-598
l-53 -383h534l-33 -238h-534l-58 -401h601l-37 -238h-844z" />
    <glyph glyph-name="Igrave" unicode="&#xcc;" horiz-adv-x="552" 
d="M336 1612l-240 293h242l178 -293h-180zM82 0l211 1497h248l-211 -1497h-248z" />
    <glyph glyph-name="Iacute" unicode="&#xcd;" horiz-adv-x="552" 
d="M541 1890h229l-248 -293h-182zM82 0l211 1497h248l-211 -1497h-248z" />
    <glyph glyph-name="Icircumflex" unicode="&#xce;" horiz-adv-x="552" 
d="M516 1595l-61 164l-107 -164h-213l225 303h213l142 -303h-199zM82 0l211 1497h248l-211 -1497h-248z" />
    <glyph glyph-name="Idieresis" unicode="&#xcf;" horiz-adv-x="552" 
d="M151 1654q-38 38 -38 97q0 56 44 100q43 43 107 43q58 0 96 -36q37 -37 37 -95q0 -61 -43 -104t-108 -43q-57 0 -95 38zM549 1654q-37 37 -37 97q0 57 43 100t109 43q58 0 95 -36q38 -38 38 -95q0 -61 -43 -104t-109 -43q-58 0 -96 38zM82 0l211 1497h248l-211 -1497
h-248z" />
    <glyph glyph-name="Eth" unicode="&#xd0;" horiz-adv-x="1374" 
d="M1072 1416q147 -82 225 -234q77 -152 77 -357q0 -241 -104 -429q-105 -188 -292 -291q-188 -105 -433 -105h-463l92 651h-145l24 209h150l90 639h426q204 0 353 -83zM836 312q130 74 200 204t70 299q0 210 -107 329q-108 118 -294 118h-197l-55 -402h256l-25 -209h-262
l-57 -413h176q165 0 295 74z" />
    <glyph glyph-name="Ntilde" unicode="&#xd1;" horiz-adv-x="1452" 
d="M846 1891q37 -16 76 -42q39 -23 52 -29q19 -10 42 -10q35 0 53 25t16 63h146q4 -127 -56 -195q-61 -69 -157 -69q-46 0 -81 15q-31 12 -79 41q-31 22 -47 28q-19 8 -39 8q-29 0 -46 -20t-17 -51q0 -9 2 -19h-146q-10 116 47 193q55 76 154 76q44 0 80 -14zM293 1497h248
l501 -1071l150 1071h248l-211 -1497h-248l-500 1071l-151 -1071h-248z" />
    <glyph glyph-name="Ograve" unicode="&#xd2;" horiz-adv-x="1607" 
d="M856 1636l-240 293h242l178 -293h-180zM433 60q-154 90 -238 256q-84 165 -84 382q0 233 98 424q97 190 273 300q176 108 397 108q201 0 354 -90q152 -90 238 -255q85 -164 85 -382q0 -241 -100 -429q-101 -191 -275 -297q-175 -108 -393 -108q-203 0 -355 91zM1049 298
q111 74 176 205q63 130 63 292q0 145 -52 253t-147 170q-96 60 -219 60q-138 0 -251 -75t-176 -206q-64 -129 -64 -292q0 -145 51 -254t146 -168q94 -60 219 -60q141 0 254 75z" />
    <glyph glyph-name="Oacute" unicode="&#xd3;" horiz-adv-x="1607" 
d="M1061 1915h229l-248 -293h-182zM433 60q-154 90 -238 256q-84 165 -84 382q0 233 98 424q97 190 273 300q176 108 397 108q201 0 354 -90q152 -90 238 -255q85 -164 85 -382q0 -241 -100 -429q-101 -191 -275 -297q-175 -108 -393 -108q-203 0 -355 91zM1049 298
q111 74 176 205q63 130 63 292q0 145 -52 253t-147 170q-96 60 -219 60q-138 0 -251 -75t-176 -206q-64 -129 -64 -292q0 -145 51 -254t146 -168q94 -60 219 -60q141 0 254 75z" />
    <glyph glyph-name="Ocircumflex" unicode="&#xd4;" horiz-adv-x="1607" 
d="M1036 1620l-61 164l-107 -164h-213l226 303h213l141 -303h-199zM433 60q-154 90 -238 256q-84 165 -84 382q0 233 98 424q97 190 273 300q176 108 397 108q201 0 354 -90q152 -90 238 -255q85 -164 85 -382q0 -241 -100 -429q-101 -191 -275 -297q-175 -108 -393 -108
q-203 0 -355 91zM1049 298q111 74 176 205q63 130 63 292q0 145 -52 253t-147 170q-96 60 -219 60q-138 0 -251 -75t-176 -206q-64 -129 -64 -292q0 -145 51 -254t146 -168q94 -60 219 -60q141 0 254 75z" />
    <glyph glyph-name="Otilde" unicode="&#xd5;" horiz-adv-x="1607" 
d="M920 1915q33 -13 75 -41q35 -21 53 -29q19 -10 42 -10q35 0 53 25q18 23 16 63h146q4 -127 -56 -195q-61 -69 -157 -69q-46 0 -81 15q-27 11 -79 40q-30 20 -47 29q-21 8 -39 8q-29 0 -46 -20q-18 -21 -18 -52q0 -10 2 -18h-145q-10 115 46 193q55 75 155 75q44 0 80 -14
zM433 60q-154 90 -238 256q-84 165 -84 382q0 233 98 424q97 190 273 300q176 108 397 108q201 0 354 -90q152 -90 238 -255q85 -164 85 -382q0 -241 -100 -429q-101 -191 -275 -297q-175 -108 -393 -108q-203 0 -355 91zM1049 298q111 74 176 205q63 130 63 292
q0 145 -52 253t-147 170q-96 60 -219 60q-138 0 -251 -75t-176 -206q-64 -129 -64 -292q0 -145 51 -254t146 -168q94 -60 219 -60q141 0 254 75z" />
    <glyph glyph-name="Odieresis" unicode="&#xd6;" horiz-adv-x="1607" 
d="M671 1678q-38 38 -38 98q0 56 44 100q43 43 107 43q60 0 97 -37t37 -94q0 -61 -43 -104q-44 -44 -109 -44q-57 0 -95 38zM1069 1678q-37 37 -37 98q0 57 43 100t109 43q58 0 95 -37q38 -38 38 -94q0 -61 -43 -104q-44 -44 -109 -44q-58 0 -96 38zM433 60
q-154 90 -238 256q-84 165 -84 382q0 233 98 424q97 190 273 300q176 108 397 108q201 0 354 -90q152 -90 238 -255q85 -164 85 -382q0 -241 -100 -429q-101 -191 -275 -297q-175 -108 -393 -108q-203 0 -355 91zM1049 298q111 74 176 205q63 130 63 292q0 145 -52 253
t-147 170q-96 60 -219 60q-138 0 -251 -75t-176 -206q-64 -129 -64 -292q0 -145 51 -254t146 -168q94 -60 219 -60q141 0 254 75z" />
    <glyph glyph-name="multiply" unicode="&#xd7;" horiz-adv-x="1107" 
d="M432 600l-246 289l150 129l244 -289l327 289l121 -137l-328 -291l238 -281l-143 -129l-242 283l-320 -283l-122 137z" />
    <glyph glyph-name="Oslash" unicode="&#xd8;" horiz-adv-x="1531" 
d="M1397 1286q75 -93 112 -215q37 -121 37 -268q0 -241 -100 -429q-101 -191 -275 -297q-175 -108 -393 -108q-228 0 -395 115l-68 -80h-247l178 213q-144 194 -146 481q0 234 99 424q97 190 273 300q176 108 396 108t392 -113l71 86h248zM430 432l655 780q-95 66 -225 66
q-138 0 -251 -75t-176 -206q-64 -129 -64 -292q0 -158 61 -273zM1214 1071l-659 -782q96 -66 229 -66q142 0 254 75q113 75 177 205q63 130 63 292q-2 160 -64 276z" />
    <glyph glyph-name="Ugrave" unicode="&#xd9;" horiz-adv-x="1398" 
d="M756 1612l-240 293h242l178 -293h-180zM270 1497h252l-129 -924q-6 -45 -6 -86q0 -133 72 -205q70 -73 203 -73q147 0 240 95q92 94 118 269l129 924h252l-133 -948q-39 -277 -205 -426q-167 -150 -412 -150q-155 0 -270 60q-118 59 -182 171q-66 111 -66 265q0 53 8 106
z" />
    <glyph glyph-name="Uacute" unicode="&#xda;" horiz-adv-x="1398" 
d="M961 1890h229l-248 -293h-182zM270 1497h252l-129 -924q-6 -45 -6 -86q0 -133 72 -205q70 -73 203 -73q147 0 240 95q92 94 118 269l129 924h252l-133 -948q-39 -277 -205 -426q-167 -150 -412 -150q-155 0 -270 60q-118 59 -182 171q-66 111 -66 265q0 53 8 106z" />
    <glyph glyph-name="Ucircumflex" unicode="&#xdb;" horiz-adv-x="1398" 
d="M936 1595l-62 164l-106 -164h-213l225 303h213l142 -303h-199zM270 1497h252l-129 -924q-6 -45 -6 -86q0 -133 72 -205q70 -73 203 -73q147 0 240 95q92 94 118 269l129 924h252l-133 -948q-39 -277 -205 -426q-167 -150 -412 -150q-155 0 -270 60q-118 59 -182 171
q-66 111 -66 265q0 53 8 106z" />
    <glyph glyph-name="Udieresis" unicode="&#xdc;" horiz-adv-x="1398" 
d="M570 1654q-38 38 -38 97q0 57 45 100q43 43 107 43q58 0 96 -36q37 -37 37 -95q0 -61 -43 -104t-108 -43q-58 0 -96 38zM969 1654q-37 37 -37 97q0 57 43 100t108 43q57 0 96 -36q38 -38 38 -95q0 -61 -43 -104t-109 -43q-58 0 -96 38zM270 1497h252l-129 -924
q-6 -45 -6 -86q0 -133 72 -205q70 -73 203 -73q147 0 240 95q92 94 118 269l129 924h252l-133 -948q-39 -277 -205 -426q-167 -150 -412 -150q-155 0 -270 60q-118 59 -182 171q-66 111 -66 265q0 53 8 106z" />
    <glyph glyph-name="Yacute" unicode="&#xdd;" horiz-adv-x="1239" 
d="M874 1882h230l-248 -293h-182zM436 1497l146 -418l36 -108l39 -117q30 53 68 111l76 120l264 412h297l-606 -885l-84 -612h-256l84 612l-342 885h278z" />
    <glyph glyph-name="Thorn" unicode="&#xde;" horiz-adv-x="1306" 
d="M1152 1124q128 -123 128 -327q0 -160 -71 -282q-73 -123 -205 -188q-133 -67 -312 -67h-323l-39 -260h-248l211 1497h248l-35 -250h295q223 0 351 -123zM936 572q86 75 86 202q0 114 -66 175q-67 61 -182 61h-303l-72 -514h297q155 0 240 76z" />
    <glyph glyph-name="germandbls" unicode="&#xdf;" horiz-adv-x="1228" 
d="M1105 659q75 -102 75 -243q0 -131 -63 -233q-65 -104 -175 -159q-111 -57 -248 -57q-88 0 -163 24q-77 26 -123 70l124 154q27 -24 64 -35q39 -12 82 -12q101 0 180 68q78 68 78 190q0 116 -69 183q-70 67 -187 67h-96l24 184q122 0 205 70q84 69 84 174q0 81 -50 133
q-50 51 -140 51q-91 0 -147 -55q-58 -55 -71 -152l-151 -1081h-242l152 1085q29 203 164 304q134 100 315 100q123 0 216 -45q92 -45 145 -126q51 -81 51 -188q0 -121 -66 -205q-67 -85 -170 -128q127 -37 202 -138z" />
    <glyph glyph-name="agrave" unicode="&#xe0;" horiz-adv-x="1177" 
d="M512 1128l-240 293h242l178 -293h-180zM1114 1012l-141 -1012h-234l17 104q-50 -62 -129 -97q-77 -34 -168 -34q-173 0 -279 121q-108 122 -108 342q0 167 65 308q64 139 180 220q116 80 261 80q97 0 172 -37t116 -106l27 111h221zM673 230q64 51 100 139q36 89 36 196
q0 135 -56 206q-57 71 -149 71q-83 0 -148 -53q-65 -55 -101 -144q-36 -90 -36 -192q0 -133 57 -204q56 -71 150 -71q83 0 147 52z" />
    <glyph glyph-name="aacute" unicode="&#xe1;" horiz-adv-x="1177" 
d="M717 1407h229l-248 -293h-182zM1114 1012l-141 -1012h-234l17 104q-50 -62 -129 -97q-77 -34 -168 -34q-173 0 -279 121q-108 122 -108 342q0 167 65 308q64 139 180 220q116 80 261 80q97 0 172 -37t116 -106l27 111h221zM673 230q64 51 100 139q36 89 36 196
q0 135 -56 206q-57 71 -149 71q-83 0 -148 -53q-65 -55 -101 -144q-36 -90 -36 -192q0 -133 57 -204q56 -71 150 -71q83 0 147 52z" />
    <glyph glyph-name="acircumflex" unicode="&#xe2;" horiz-adv-x="1177" 
d="M692 1112l-61 164l-107 -164h-213l226 303h213l141 -303h-199zM1114 1012l-141 -1012h-234l17 104q-50 -62 -129 -97q-77 -34 -168 -34q-173 0 -279 121q-108 122 -108 342q0 167 65 308q64 139 180 220q116 80 261 80q97 0 172 -37t116 -106l27 111h221zM673 230
q64 51 100 139q36 89 36 196q0 135 -56 206q-57 71 -149 71q-83 0 -148 -53q-65 -55 -101 -144q-36 -90 -36 -192q0 -133 57 -204q56 -71 150 -71q83 0 147 52z" />
    <glyph glyph-name="atilde" unicode="&#xe3;" horiz-adv-x="1177" 
d="M576 1407q33 -13 75 -41q35 -21 53 -29q19 -10 41 -10q35 0 54 25q18 23 16 63h146q4 -127 -56 -195q-61 -69 -157 -69q-46 0 -81 15q-27 11 -79 40q-30 20 -47 29q-21 8 -39 8q-29 0 -46 -20q-18 -21 -18 -52q0 -10 2 -18h-145q-10 115 46 193q56 75 155 75q44 0 80 -14
zM1114 1012l-141 -1012h-234l17 104q-50 -62 -129 -97q-77 -34 -168 -34q-173 0 -279 121q-108 122 -108 342q0 167 65 308q64 139 180 220q116 80 261 80q97 0 172 -37t116 -106l27 111h221zM673 230q64 51 100 139q36 89 36 196q0 135 -56 206q-57 71 -149 71
q-83 0 -148 -53q-65 -55 -101 -144q-36 -90 -36 -192q0 -133 57 -204q56 -71 150 -71q83 0 147 52z" />
    <glyph glyph-name="adieresis" unicode="&#xe4;" horiz-adv-x="1177" 
d="M327 1171q-38 38 -38 97q0 56 44 100q43 43 107 43q59 0 96 -37t37 -94q0 -61 -43 -104t-108 -43q-57 0 -95 38zM725 1171q-37 37 -37 97q0 57 43 100t109 43q58 0 95 -37q38 -38 38 -94q0 -61 -43 -104t-109 -43q-58 0 -96 38zM1114 1012l-141 -1012h-234l17 104
q-50 -62 -129 -97q-77 -34 -168 -34q-173 0 -279 121q-108 122 -108 342q0 167 65 308q64 139 180 220q116 80 261 80q97 0 172 -37t116 -106l27 111h221zM673 230q64 51 100 139q36 89 36 196q0 135 -56 206q-57 71 -149 71q-83 0 -148 -53q-65 -55 -101 -144
q-36 -90 -36 -192q0 -133 57 -204q56 -71 150 -71q83 0 147 52z" />
    <glyph glyph-name="aring" unicode="&#xe5;" horiz-adv-x="1075" 
d="M1114 1012l-141 -1012h-234l17 104q-50 -62 -129 -97q-77 -34 -168 -34q-173 0 -279 121q-108 122 -108 342q0 198 88 352t235 220q-59 67 -59 159q0 78 40 139q41 61 105 92q66 32 135 32q106 0 174 -68t68 -170q0 -118 -92 -195q61 -34 100 -96l27 111h221zM523 1257
q-34 -34 -34 -83q0 -45 29 -74t72 -29q47 0 82 32t35 83q0 44 -29 75q-29 29 -72 29q-48 0 -83 -33zM673 230q64 51 100 139q36 89 36 196q0 135 -56 206q-57 71 -149 71q-83 0 -148 -53q-65 -55 -101 -144q-36 -90 -36 -192q0 -133 57 -204q56 -71 150 -71q83 0 147 52z
" />
    <glyph glyph-name="ae" unicode="&#xe6;" horiz-adv-x="1871" 
d="M1618 989q98 -59 150 -159q51 -101 51 -226q0 -45 -7 -88q-5 -45 -20 -92h-700q-8 -116 56 -182q65 -68 181 -68q96 0 165 45t97 121l199 -70q-56 -142 -182 -219q-128 -78 -291 -78q-208 0 -330 125l-14 -98h-234l17 104q-50 -62 -129 -97q-77 -34 -168 -34
q-173 0 -279 121q-108 122 -108 342q0 167 65 308q64 139 180 220q116 80 261 80q97 0 172 -37t116 -106l27 111h221l-6 -43q123 78 276 78q137 0 234 -58zM1202 782q-69 -65 -86 -176h467q10 108 -46 175q-56 65 -163 65q-105 0 -172 -64zM673 230q64 51 100 139
q36 89 36 196q0 135 -56 206q-57 71 -149 71q-83 0 -148 -53q-65 -55 -101 -144q-36 -90 -36 -192q0 -133 57 -204q56 -71 150 -71q83 0 147 52z" />
    <glyph glyph-name="ccedilla" unicode="&#xe7;" horiz-adv-x="1124" 
d="M715 242q67 50 90 129l211 -76q-46 -151 -176 -237q-128 -85 -299 -85h-9l-20 -41q72 4 120 -37q46 -40 46 -108q0 -79 -62 -126q-62 -46 -151 -46q-91 0 -146 48q-58 48 -53 122h135q0 -49 56 -49q29 0 47 15q18 17 18 42q0 26 -17 40q-17 13 -46 13q-12 0 -31 -4
l-53 31l53 111q-163 34 -261 164q-97 127 -97 319q0 159 68 292q68 132 190 210q123 78 282 78q174 0 293 -92q119 -93 146 -248l-215 -68q-12 83 -74 136q-61 52 -152 52q-129 0 -210 -98q-81 -97 -81 -252q0 -130 65 -207t175 -77q91 0 158 49z" />
    <glyph glyph-name="egrave" unicode="&#xe8;" horiz-adv-x="1120" 
d="M532 1141l-239 293h242l178 -293h-181zM834 989q98 -59 149 -159t51 -226q0 -42 -6 -88q-5 -45 -20 -92h-701q-7 -115 57 -182q65 -68 181 -68q96 0 165 45q69 46 97 121l199 -70q-56 -142 -182 -219q-128 -78 -292 -78q-211 0 -334 128q-124 127 -124 358q0 163 65 298
t184 212q119 78 277 78q136 0 234 -58zM417 782q-68 -64 -85 -176h467q10 108 -46 175q-57 65 -163 65t-173 -64z" />
    <glyph glyph-name="eacute" unicode="&#xe9;" horiz-adv-x="1120" 
d="M737 1419h230l-248 -293h-182zM834 989q98 -59 149 -159t51 -226q0 -42 -6 -88q-5 -45 -20 -92h-701q-7 -115 57 -182q65 -68 181 -68q96 0 165 45q69 46 97 121l199 -70q-56 -142 -182 -219q-128 -78 -292 -78q-211 0 -334 128q-124 127 -124 358q0 163 65 298t184 212
q119 78 277 78q136 0 234 -58zM417 782q-68 -64 -85 -176h467q10 108 -46 175q-57 65 -163 65t-173 -64z" />
    <glyph glyph-name="ecircumflex" unicode="&#xea;" horiz-adv-x="1120" 
d="M713 1124l-62 164l-106 -164h-213l225 303h213l141 -303h-198zM834 989q98 -59 149 -159t51 -226q0 -42 -6 -88q-5 -45 -20 -92h-701q-7 -115 57 -182q65 -68 181 -68q96 0 165 45q69 46 97 121l199 -70q-56 -142 -182 -219q-128 -78 -292 -78q-211 0 -334 128
q-124 127 -124 358q0 163 65 298t184 212q119 78 277 78q136 0 234 -58zM417 782q-68 -64 -85 -176h467q10 108 -46 175q-57 65 -163 65t-173 -64z" />
    <glyph glyph-name="edieresis" unicode="&#xeb;" horiz-adv-x="1120" 
d="M347 1183q-38 38 -38 97q0 56 44 100q43 43 108 43q59 0 96 -36q37 -37 37 -95q0 -61 -43 -104t-109 -43q-57 0 -95 38zM746 1183q-37 37 -37 97q0 57 43 100t108 43q58 0 95 -36q38 -38 38 -95q0 -61 -43 -104t-108 -43q-60 0 -96 38zM834 989q98 -59 149 -159t51 -226
q0 -42 -6 -88q-5 -45 -20 -92h-701q-7 -115 57 -182q65 -68 181 -68q96 0 165 45q69 46 97 121l199 -70q-56 -142 -182 -219q-128 -78 -292 -78q-211 0 -334 128q-124 127 -124 358q0 163 65 298t184 212q119 78 277 78q136 0 234 -58zM417 782q-68 -64 -85 -176h467
q10 108 -46 175q-57 65 -163 65t-173 -64z" />
    <glyph glyph-name="igrave" unicode="&#xec;" horiz-adv-x="505" 
d="M242 1118l-240 293h242l178 -293h-180zM440 1012l-141 -1012h-236l142 1012h235z" />
    <glyph glyph-name="iacute" unicode="&#xed;" horiz-adv-x="505" 
d="M446 1397h230l-248 -293h-182zM440 1012l-141 -1012h-236l142 1012h235z" />
    <glyph glyph-name="icircumflex" unicode="&#xee;" horiz-adv-x="505" 
d="M422 1102l-62 164l-106 -164h-213l225 303h213l142 -303h-199zM440 1012l-141 -1012h-236l142 1012h235z" />
    <glyph glyph-name="idieresis" unicode="&#xef;" horiz-adv-x="505" 
d="M56 1160q-38 38 -38 97q0 57 44 101q43 43 108 43q59 0 96 -37t37 -94q0 -61 -43 -104q-44 -44 -108 -44q-58 0 -96 38zM455 1160q-37 37 -37 97q0 58 43 101t108 43q58 0 95 -37q38 -38 38 -94q0 -61 -43 -104q-44 -44 -108 -44q-58 0 -96 38zM440 1012l-141 -1012h-236
l142 1012h235z" />
    <glyph glyph-name="eth" unicode="&#xf0;" horiz-adv-x="1077" 
d="M974 772q25 -94 25 -194q0 -180 -63 -316q-65 -137 -179 -213q-115 -76 -265 -76q-196 0 -309 128t-113 345q0 160 63 293q61 133 174 210q112 77 252 77q21 0 74 -8l-82 160l-315 -121l22 162l229 88l-96 190h252l53 -111l248 95l-24 -162l-160 -62l125 -256
q64 -137 89 -229zM680 289q70 101 70 262q0 127 -48 196q-50 68 -131 68q-71 0 -130 -47q-56 -45 -92 -130q-34 -81 -34 -189q0 -127 50 -195t137 -68q108 0 178 103z" />
    <glyph glyph-name="ntilde" unicode="&#xf1;" horiz-adv-x="1134" 
d="M717 1413q35 -14 76 -41q39 -23 52 -29q19 -10 42 -10q35 0 53 25q18 23 16 63h146q4 -127 -56 -195q-61 -69 -157 -69q-47 0 -81 15q-27 11 -79 40q-30 20 -47 29q-19 8 -39 8q-29 0 -46 -20q-17 -22 -17 -51q0 -9 2 -19h-146q-10 116 47 193q55 75 154 75q44 0 80 -14z
M966 962q83 -86 83 -229q0 -38 -7 -76l-92 -657h-243l86 604q4 29 4 49q0 83 -44 129q-43 45 -122 45q-102 0 -166 -67q-65 -68 -78 -174l-82 -586h-242l142 1012h217l-6 -123q52 75 136 116q86 42 183 42q149 0 231 -85z" />
    <glyph glyph-name="ograve" unicode="&#xf2;" horiz-adv-x="1157" 
d="M520 1128l-239 293h241l178 -293h-180zM138 757q64 132 186 210q121 77 278 77q140 0 247 -61q108 -62 166 -174t58 -260q0 -154 -65 -289q-66 -133 -187 -211q-122 -78 -278 -78q-143 0 -248 62q-107 61 -165 174q-58 112 -58 260q0 158 66 290zM381 264q61 -76 166 -76
q81 0 146 48q63 47 98 128q34 78 34 179q0 134 -61 210t-166 76q-80 0 -143 -48q-64 -48 -100 -130q-36 -83 -36 -180q0 -130 62 -207z" />
    <glyph glyph-name="oacute" unicode="&#xf3;" horiz-adv-x="1157" 
d="M725 1407h229l-247 -293h-183zM138 757q64 132 186 210q121 77 278 77q140 0 247 -61q108 -62 166 -174t58 -260q0 -154 -65 -289q-66 -133 -187 -211q-122 -78 -278 -78q-143 0 -248 62q-107 61 -165 174q-58 112 -58 260q0 158 66 290zM381 264q61 -76 166 -76
q81 0 146 48q63 47 98 128q34 78 34 179q0 134 -61 210t-166 76q-80 0 -143 -48q-64 -48 -100 -130q-36 -83 -36 -180q0 -130 62 -207z" />
    <glyph glyph-name="ocircumflex" unicode="&#xf4;" horiz-adv-x="1157" 
d="M700 1112l-61 164l-107 -164h-213l226 303h213l141 -303h-199zM138 757q64 132 186 210q121 77 278 77q140 0 247 -61q108 -62 166 -174t58 -260q0 -154 -65 -289q-66 -133 -187 -211q-122 -78 -278 -78q-143 0 -248 62q-107 61 -165 174q-58 112 -58 260q0 158 66 290z
M381 264q61 -76 166 -76q81 0 146 48q63 47 98 128q34 78 34 179q0 134 -61 210t-166 76q-80 0 -143 -48q-64 -48 -100 -130q-36 -83 -36 -180q0 -130 62 -207z" />
    <glyph glyph-name="otilde" unicode="&#xf5;" horiz-adv-x="1157" 
d="M584 1407q33 -13 75 -41q35 -21 53 -29q19 -10 42 -10q35 0 53 25q18 23 16 63h146q4 -127 -56 -195q-61 -69 -157 -69q-46 0 -81 15q-27 11 -79 40q-30 20 -47 29q-21 8 -39 8q-29 0 -46 -20q-18 -21 -18 -52q0 -12 3 -18h-146q-10 116 47 193q55 75 154 75q44 0 80 -14
zM138 757q64 132 186 210q121 77 278 77q140 0 247 -61q108 -62 166 -174t58 -260q0 -154 -65 -289q-66 -133 -187 -211q-122 -78 -278 -78q-143 0 -248 62q-107 61 -165 174q-58 112 -58 260q0 158 66 290zM381 264q61 -76 166 -76q81 0 146 48q63 47 98 128q34 78 34 179
q0 134 -61 210t-166 76q-80 0 -143 -48q-64 -48 -100 -130q-36 -83 -36 -180q0 -130 62 -207z" />
    <glyph glyph-name="odieresis" unicode="&#xf6;" horiz-adv-x="1157" 
d="M335 1171q-38 38 -38 97q0 56 44 100q43 43 108 43q59 0 96 -37t37 -94q0 -61 -43 -104t-109 -43q-57 0 -95 38zM733 1171q-37 37 -37 97q0 57 43 100t109 43q58 0 95 -37q38 -38 38 -94q0 -61 -43 -104t-109 -43q-58 0 -96 38zM138 757q64 132 186 210q121 77 278 77
q140 0 247 -61q108 -62 166 -174t58 -260q0 -154 -65 -289q-66 -133 -187 -211q-122 -78 -278 -78q-143 0 -248 62q-107 61 -165 174q-58 112 -58 260q0 158 66 290zM381 264q61 -76 166 -76q81 0 146 48q63 47 98 128q34 78 34 179q0 134 -61 210t-166 76q-80 0 -143 -48
q-64 -48 -100 -130q-36 -83 -36 -180q0 -130 62 -207z" />
    <glyph glyph-name="divide" unicode="&#xf7;" horiz-adv-x="1157" 
d="M565 845q-41 41 -41 99q0 70 51 115q49 45 115 45q58 0 99 -41q40 -40 40 -98q0 -68 -49 -114t-114 -46q-61 0 -101 40zM160 678h884l-22 -174h-885zM398 119q-40 40 -40 98q0 70 50 114t114 44q60 0 101 -39q39 -39 39 -96q0 -70 -49 -116t-117 -46q-57 0 -98 41z" />
    <glyph glyph-name="oslash" unicode="&#xf8;" horiz-adv-x="1146" 
d="M975 872q98 -130 98 -323q0 -154 -65 -289q-66 -133 -187 -211q-122 -78 -278 -78q-150 0 -267 72l-65 -78h-178l143 170q-104 134 -104 332q0 158 66 290q64 132 186 210q121 77 278 77q153 0 275 -77l65 77h178zM342 332l385 456q-53 41 -129 41q-80 0 -143 -48
q-64 -48 -100 -130q-36 -83 -36 -180q0 -75 23 -139zM807 672l-379 -451q52 -33 119 -33q81 0 146 48q63 47 98 128q34 78 34 179q0 73 -18 129z" />
    <glyph glyph-name="ugrave" unicode="&#xf9;" horiz-adv-x="1132" 
d="M549 1118l-240 293h242l178 -293h-180zM1067 1012l-141 -1012h-215l8 129q-44 -72 -124 -114q-81 -42 -179 -42q-150 0 -232 87q-82 86 -82 239q0 43 7 84l88 629h241l-84 -598q-4 -29 -4 -47q0 -85 46 -128q47 -44 126 -44q94 0 151 59q55 58 72 172l82 586h240z" />
    <glyph glyph-name="uacute" unicode="&#xfa;" horiz-adv-x="1132" 
d="M754 1397h229l-248 -293h-182zM1067 1012l-141 -1012h-215l8 129q-44 -72 -124 -114q-81 -42 -179 -42q-150 0 -232 87q-82 86 -82 239q0 43 7 84l88 629h241l-84 -598q-4 -29 -4 -47q0 -85 46 -128q47 -44 126 -44q94 0 151 59q55 58 72 172l82 586h240z" />
    <glyph glyph-name="ucircumflex" unicode="&#xfb;" horiz-adv-x="1132" 
d="M729 1102l-61 164l-107 -164h-213l225 303h213l142 -303h-199zM1067 1012l-141 -1012h-215l8 129q-44 -72 -124 -114q-81 -42 -179 -42q-150 0 -232 87q-82 86 -82 239q0 43 7 84l88 629h241l-84 -598q-4 -29 -4 -47q0 -85 46 -128q47 -44 126 -44q94 0 151 59
q55 58 72 172l82 586h240z" />
    <glyph glyph-name="udieresis" unicode="&#xfc;" horiz-adv-x="1132" 
d="M364 1160q-38 38 -38 97q0 57 44 101q43 43 107 43q59 0 96 -37t37 -94q0 -61 -43 -104q-44 -44 -108 -44q-57 0 -95 38zM762 1160q-37 37 -37 97q0 58 43 101t109 43q58 0 95 -37q38 -38 38 -94q0 -61 -43 -104q-44 -44 -109 -44q-58 0 -96 38zM1067 1012l-141 -1012
h-215l8 129q-44 -72 -124 -114q-81 -42 -179 -42q-150 0 -232 87q-82 86 -82 239q0 43 7 84l88 629h241l-84 -598q-4 -29 -4 -47q0 -85 46 -128q47 -44 126 -44q94 0 151 59q55 58 72 172l82 586h240z" />
    <glyph glyph-name="yacute" unicode="&#xfd;" horiz-adv-x="1052" 
d="M715 1397h229l-248 -293h-182zM1100 1012l-678 -1446h-246l219 475l-305 971h252l197 -662l305 662h256z" />
    <glyph glyph-name="thorn" unicode="&#xfe;" horiz-adv-x="1179" 
d="M1009 923q103 -124 103 -341q0 -170 -63 -308q-65 -141 -176 -219q-113 -80 -259 -80q-102 0 -179 41q-76 40 -111 107l-78 -559h-242l268 1933h242l-86 -590q51 66 130 103q78 37 173 37q175 0 278 -124zM725 230q66 51 102 141q35 91 35 198q0 132 -55 202
q-56 71 -152 71q-81 0 -146 -50q-65 -51 -101 -140q-37 -87 -37 -203q0 -133 54 -202t150 -69q85 0 150 52z" />
    <glyph glyph-name="ydieresis" unicode="&#xff;" horiz-adv-x="1052" 
d="M325 1160q-38 38 -38 97q0 57 44 101q43 43 107 43q59 0 96 -37t37 -94q0 -61 -43 -104q-44 -44 -108 -44q-57 0 -95 38zM723 1160q-37 37 -37 97q0 58 43 101t109 43q58 0 95 -37q38 -38 38 -94q0 -61 -43 -104q-44 -44 -109 -44q-58 0 -96 38zM1100 1012l-678 -1446
h-246l219 475l-305 971h252l197 -662l305 662h256z" />
    <glyph glyph-name="Amacron" unicode="&#x100;" horiz-adv-x="1394" 
d="M1180 1794l-23 -174h-600l25 174h598zM954 291h-571l-139 -291h-297l755 1497h271l332 -1497h-293zM911 518l-71 363l-17 84q-30 150 -32 198q-19 -54 -127 -282l-172 -363h419z" />
    <glyph glyph-name="amacron" unicode="&#x101;" horiz-adv-x="1177" 
d="M936 1321l-23 -174h-600l25 174h598zM1114 1012l-141 -1012h-234l17 104q-50 -62 -129 -97q-77 -34 -168 -34q-173 0 -279 121q-108 122 -108 342q0 167 65 308q64 139 180 220q116 80 261 80q97 0 172 -37t116 -106l27 111h221zM673 230q64 51 100 139q36 89 36 196
q0 135 -56 206q-57 71 -149 71q-83 0 -148 -53q-65 -55 -101 -144q-36 -90 -36 -192q0 -133 57 -204q56 -71 150 -71q83 0 147 52z" />
    <glyph glyph-name="Abreve" unicode="&#x102;" horiz-adv-x="1394" 
d="M1194 1901q-1 -88 -45 -157q-43 -69 -114 -108q-72 -39 -158 -39q-121 0 -198 72t-77 184q0 17 4 48h166q-2 -14 -2 -29q0 -51 31 -81q30 -30 82 -30q61 0 99 38q38 37 42 102h170zM954 291h-571l-139 -291h-297l755 1497h271l332 -1497h-293zM911 518l-71 363l-17 84
q-30 150 -32 198q-19 -54 -127 -282l-172 -363h419z" />
    <glyph glyph-name="abreve" unicode="&#x103;" horiz-adv-x="1177" 
d="M952 1417q-2 -89 -45 -156q-43 -69 -114 -108q-72 -39 -158 -39q-121 0 -198 72q-77 71 -77 184q0 10 5 47h165q-2 -14 -2 -28q0 -51 31 -81t82 -30q61 0 99 38q37 37 42 101h170zM1114 1012l-141 -1012h-234l17 104q-50 -62 -129 -97q-77 -34 -168 -34q-173 0 -279 121
q-108 122 -108 342q0 167 65 308q64 139 180 220q116 80 261 80q97 0 172 -37t116 -106l27 111h221zM673 230q64 51 100 139q36 89 36 196q0 135 -56 206q-57 71 -149 71q-83 0 -148 -53q-65 -55 -101 -144q-36 -90 -36 -192q0 -133 57 -204q56 -71 150 -71q83 0 147 52z
" />
    <glyph glyph-name="Aogonek" unicode="&#x104;" horiz-adv-x="1394" 
d="M1162 -189q19 -14 57 -14t69 17v-164q-58 -29 -133 -29q-86 0 -143 45q-58 45 -58 121q0 133 158 213h-100l-58 291h-571l-139 -291h-297l755 1497h271l332 -1497q-77 -33 -120 -71q-42 -37 -42 -72q0 -31 19 -46zM911 518l-71 363l-17 84q-30 150 -32 198
q-19 -54 -127 -282l-172 -363h419z" />
    <glyph glyph-name="aogonek" unicode="&#x105;" horiz-adv-x="1177" 
d="M853 -71q-42 -37 -42 -72q0 -31 19 -46q19 -14 57 -14t69 17v-164q-58 -29 -133 -29q-86 0 -143 45t-57 121q0 134 157 213h-41l17 104q-50 -62 -129 -97q-77 -34 -168 -34q-173 0 -279 121q-108 122 -108 342q0 167 65 308q64 139 180 220q116 80 261 80q97 0 172 -37
t116 -106l27 111h221l-141 -1012q-77 -33 -120 -71zM673 230q64 51 100 139q36 89 36 196q0 135 -56 206q-57 71 -149 71q-83 0 -148 -53q-65 -55 -101 -144q-36 -90 -36 -192q0 -133 57 -204q56 -71 150 -71q83 0 147 52z" />
    <glyph glyph-name="Cacute" unicode="&#x106;" horiz-adv-x="1540" 
d="M999 1905h230l-248 -293h-182zM1194 76q-176 -105 -397 -105q-205 0 -360 90q-155 88 -241 254q-85 163 -85 387q0 241 97 429q98 189 270 295t396 106q237 0 409 -122q170 -121 226 -320l-245 -99q-33 136 -138 215q-107 80 -256 80q-142 0 -254 -74q-111 -74 -173 -208
q-62 -135 -62 -304q0 -227 112 -357q111 -130 298 -130q133 0 249 68q115 67 170 182l244 -88q-84 -195 -260 -299z" />
    <glyph glyph-name="cacute" unicode="&#x107;" horiz-adv-x="1124" 
d="M770 1407h229l-247 -293h-183zM295 35q-109 63 -166 173q-59 112 -59 259q0 159 68 292q68 132 190 210q123 78 282 78q174 0 293 -92q119 -93 146 -248l-215 -68q-12 83 -74 136q-61 52 -152 52q-129 0 -210 -98q-81 -97 -81 -252q0 -130 65 -207t175 -77q91 0 158 49
q67 50 90 129l211 -76q-46 -151 -176 -237q-128 -85 -299 -85q-141 0 -246 62z" />
    <glyph glyph-name="Cdotaccent" unicode="&#x10a;" horiz-adv-x="1540" 
d="M808 1668q-38 38 -38 97q0 57 44 101q43 43 108 43q59 0 96 -37t37 -94q0 -61 -43 -104q-44 -44 -109 -44q-57 0 -95 38zM1194 76q-176 -105 -397 -105q-205 0 -360 90q-155 88 -241 254q-85 163 -85 387q0 241 97 429q98 189 270 295t396 106q237 0 409 -122
q170 -121 226 -320l-245 -99q-33 136 -138 215q-107 80 -256 80q-142 0 -254 -74q-111 -74 -173 -208q-62 -135 -62 -304q0 -227 112 -357q111 -130 298 -130q133 0 249 68q115 67 170 182l244 -88q-84 -195 -260 -299z" />
    <glyph glyph-name="cdotaccent" unicode="&#x10b;" horiz-adv-x="1124" 
d="M579 1171q-38 38 -38 97q0 56 44 100q43 43 107 43q59 0 96 -37t37 -94q0 -61 -43 -104t-108 -43q-57 0 -95 38zM295 35q-109 63 -166 173q-59 112 -59 259q0 159 68 292q68 132 190 210q123 78 282 78q174 0 293 -92q119 -93 146 -248l-215 -68q-12 83 -74 136
q-61 52 -152 52q-129 0 -210 -98q-81 -97 -81 -252q0 -130 65 -207t175 -77q91 0 158 49q67 50 90 129l211 -76q-46 -151 -176 -237q-128 -85 -299 -85q-141 0 -246 62z" />
    <glyph glyph-name="Ccaron" unicode="&#x10c;" horiz-adv-x="1540" 
d="M844 1913l59 -162l109 162h211l-226 -303h-213l-141 303h201zM1194 76q-176 -105 -397 -105q-205 0 -360 90q-155 88 -241 254q-85 163 -85 387q0 241 97 429q98 189 270 295t396 106q237 0 409 -122q170 -121 226 -320l-245 -99q-33 136 -138 215q-107 80 -256 80
q-142 0 -254 -74q-111 -74 -173 -208q-62 -135 -62 -304q0 -227 112 -357q111 -130 298 -130q133 0 249 68q115 67 170 182l244 -88q-84 -195 -260 -299z" />
    <glyph glyph-name="ccaron" unicode="&#x10d;" horiz-adv-x="1124" 
d="M614 1415l60 -162l108 162h211l-225 -303h-213l-141 303h200zM295 35q-109 63 -166 173q-59 112 -59 259q0 159 68 292q68 132 190 210q123 78 282 78q174 0 293 -92q119 -93 146 -248l-215 -68q-12 83 -74 136q-61 52 -152 52q-129 0 -210 -98q-81 -97 -81 -252
q0 -130 65 -207t175 -77q91 0 158 49q67 50 90 129l211 -76q-46 -151 -176 -237q-128 -85 -299 -85q-141 0 -246 62z" />
    <glyph glyph-name="Dcaron" unicode="&#x10e;" horiz-adv-x="1413" 
d="M700 1901l60 -162l108 162h211l-225 -304h-213l-141 304h200zM293 1499h426q204 0 353 -83q147 -82 225 -234q77 -152 77 -357q0 -241 -104 -429q-105 -188 -292 -291q-188 -105 -433 -105h-463zM541 238q165 0 295 74t200 204t70 299q0 210 -107 329q-108 118 -294 118
h-197l-143 -1024h176z" />
    <glyph glyph-name="dcaron" unicode="&#x10f;" horiz-adv-x="1376" 
d="M944 1513h242l-213 -1513h-217l8 111q-50 -67 -128 -102q-80 -36 -173 -36q-174 0 -282 121q-109 121 -109 342q0 169 65 310q65 140 180 219t263 79q90 0 165 -35q71 -35 115 -98zM1524 1513l-150 -600h-141l86 600h205zM673 230q64 51 100 139q36 89 36 196
q0 135 -56 206q-57 71 -149 71q-83 0 -148 -53q-65 -55 -101 -144q-36 -90 -36 -192q0 -133 57 -204q56 -71 150 -71q83 0 147 52z" />
    <glyph glyph-name="Dcroat" unicode="&#x110;" horiz-adv-x="1374" 
d="M1072 1416q147 -82 225 -234q77 -152 77 -357q0 -241 -104 -429q-105 -188 -292 -291q-188 -105 -433 -105h-463l92 651h-145l24 209h150l90 639h426q204 0 353 -83zM836 312q130 74 200 204t70 299q0 210 -107 329q-108 118 -294 118h-197l-55 -402h256l-25 -209h-262
l-57 -413h176q165 0 295 74z" />
    <glyph glyph-name="dcroat" unicode="&#x111;" horiz-adv-x="1177" 
d="M1270 1161h-133l-164 -1161h-217l8 111q-50 -67 -128 -102q-80 -36 -173 -36q-174 0 -282 121q-109 121 -109 342q0 169 65 310q65 140 180 219t263 79q90 0 165 -35q71 -35 115 -98l35 250h-365l29 172h361l24 180h242l-25 -180h137zM673 230q64 51 100 139
q36 89 36 196q0 135 -56 206q-57 71 -149 71q-83 0 -148 -53q-65 -55 -101 -144q-36 -90 -36 -192q0 -133 57 -204q56 -71 150 -71q83 0 147 52z" />
    <glyph glyph-name="Emacron" unicode="&#x112;" horiz-adv-x="1077" 
d="M1057 1804l-23 -174h-600l25 174h598zM293 1497h844l-33 -237h-598l-53 -383h534l-33 -238h-534l-58 -401h601l-37 -238h-844z" />
    <glyph glyph-name="emacron" unicode="&#x113;" horiz-adv-x="1120" 
d="M956 1333l-22 -174h-600l24 174h598zM834 989q98 -59 149 -159t51 -226q0 -42 -6 -88q-5 -45 -20 -92h-701q-7 -115 57 -182q65 -68 181 -68q96 0 165 45q69 46 97 121l199 -70q-56 -142 -182 -219q-128 -78 -292 -78q-211 0 -334 128q-124 127 -124 358q0 163 65 298
t184 212q119 78 277 78q136 0 234 -58zM417 782q-68 -64 -85 -176h467q10 108 -46 175q-57 65 -163 65t-173 -64z" />
    <glyph glyph-name="Edotaccent" unicode="&#x116;" horiz-adv-x="1077" 
d="M646 1654q-38 38 -38 97q0 56 44 100q43 43 108 43q58 0 96 -36q37 -37 37 -95q0 -61 -43 -104t-109 -43q-57 0 -95 38zM293 1497h844l-33 -237h-598l-53 -383h534l-33 -238h-534l-58 -401h601l-37 -238h-844z" />
    <glyph glyph-name="edotaccent" unicode="&#x117;" horiz-adv-x="1120" 
d="M546 1183q-38 38 -38 97q0 56 44 100q43 43 107 43q59 0 97 -36q37 -37 37 -95q0 -61 -43 -104t-109 -43q-57 0 -95 38zM834 989q98 -59 149 -159t51 -226q0 -42 -6 -88q-5 -45 -20 -92h-701q-7 -115 57 -182q65 -68 181 -68q96 0 165 45q69 46 97 121l199 -70
q-56 -142 -182 -219q-128 -78 -292 -78q-211 0 -334 128q-124 127 -124 358q0 163 65 298t184 212q119 78 277 78q136 0 234 -58zM417 782q-68 -64 -85 -176h467q10 108 -46 175q-57 65 -163 65t-173 -64z" />
    <glyph glyph-name="Eogonek" unicode="&#x118;" horiz-adv-x="1077" 
d="M506 1260l-53 -383h534l-33 -238h-534l-58 -401h601l-37 -238q-77 -33 -120 -71q-42 -37 -42 -72q0 -31 19 -46q19 -14 57 -14t69 17v-164q-58 -29 -133 -29q-86 0 -143 45q-58 45 -58 121q0 133 158 213h-651l211 1497h844l-33 -237h-598z" />
    <glyph glyph-name="eogonek" unicode="&#x119;" horiz-adv-x="1120" 
d="M834 989q98 -59 149 -159t51 -226q0 -42 -6 -88q-5 -45 -20 -92h-701q-7 -115 57 -182q65 -68 181 -68q96 0 165 45q69 46 97 121l199 -70q-51 -131 -163 -207q-114 -78 -259 -88q-115 -61 -115 -120q0 -31 19 -46q19 -14 57 -14t69 17v-164q-58 -29 -133 -29
q-86 0 -143 45t-57 121q0 122 133 201q-160 33 -250 156q-90 122 -90 317q0 163 65 298t184 212q119 78 277 78q136 0 234 -58zM417 782q-68 -64 -85 -176h467q10 108 -46 175q-57 65 -163 65t-173 -64z" />
    <glyph glyph-name="Ecaron" unicode="&#x11a;" horiz-adv-x="1077" 
d="M682 1898l59 -161l109 161h211l-225 -303h-213l-142 303h201zM293 1497h844l-33 -237h-598l-53 -383h534l-33 -238h-534l-58 -401h601l-37 -238h-844z" />
    <glyph glyph-name="ecaron" unicode="&#x11b;" horiz-adv-x="1120" 
d="M582 1427l59 -161l109 161h211l-226 -303h-213l-141 303h201zM834 989q98 -59 149 -159t51 -226q0 -42 -6 -88q-5 -45 -20 -92h-701q-7 -115 57 -182q65 -68 181 -68q96 0 165 45q69 46 97 121l199 -70q-56 -142 -182 -219q-128 -78 -292 -78q-211 0 -334 128
q-124 127 -124 358q0 163 65 298t184 212q119 78 277 78q136 0 234 -58zM417 782q-68 -64 -85 -176h467q10 108 -46 175q-57 65 -163 65t-173 -64z" />
    <glyph glyph-name="Gbreve" unicode="&#x11e;" horiz-adv-x="1583" 
d="M720 1696q-77 71 -77 184q0 18 4 47h166q-2 -14 -2 -29q0 -52 31 -80q30 -30 82 -30q61 0 99 38q37 37 42 101h170q-1 -89 -45 -156q-44 -69 -114 -108q-72 -39 -158 -39q-122 0 -198 72zM1522 684q-6 -212 -103 -372q-97 -162 -262 -251q-163 -90 -366 -90
q-200 0 -354 86q-154 85 -240 250q-86 164 -86 387q0 243 97 433t271 298q175 107 395 107q158 0 287 -55q131 -55 222 -156q90 -101 126 -231l-245 -99q-33 136 -138 215q-107 80 -254 80q-143 0 -254 -75q-112 -77 -174 -210q-63 -135 -63 -307q0 -230 112 -355
q111 -126 300 -126q114 0 213 47q97 46 164 136q64 88 81 208h-458l30 213h690q9 -47 9 -133z" />
    <glyph glyph-name="gbreve" unicode="&#x11f;" horiz-adv-x="1193" 
d="M464 1207q-77 71 -77 184q0 18 4 47h166q-2 -14 -2 -29q0 -51 31 -81q30 -30 82 -30q61 0 99 38q37 38 42 102h170q-1 -88 -45 -157q-44 -70 -114 -107q-72 -39 -158 -39q-122 0 -198 72zM1118 1012l-143 -1024q-33 -219 -172 -339t-357 -120q-196 0 -320 93
q-126 93 -144 247l198 82q18 -100 90 -157q73 -56 181 -56q118 0 192 67q73 67 90 189l23 156q-45 -60 -122 -95q-76 -35 -171 -35q-177 0 -281 119t-104 322q0 162 62 297q62 134 172 210q109 76 253 76q103 0 185 -41q81 -42 120 -112l27 121h221zM680 268q63 45 99 126
t36 184q0 125 -55 195q-56 69 -152 69q-82 0 -145 -48q-65 -50 -99 -130q-36 -82 -36 -181q0 -125 55 -192q56 -68 154 -68q79 0 143 45z" />
    <glyph glyph-name="Gdotaccent" unicode="&#x120;" horiz-adv-x="1583" 
d="M808 1680q-38 38 -38 98q0 56 44 100q43 43 108 43q59 0 96 -37t37 -94q0 -61 -43 -104q-44 -44 -109 -44q-57 0 -95 38zM1522 684q-6 -212 -103 -372q-97 -162 -262 -251q-163 -90 -366 -90q-200 0 -354 86q-154 85 -240 250q-86 164 -86 387q0 243 97 433t271 298
q175 107 395 107q158 0 287 -55q131 -55 222 -156q90 -101 126 -231l-245 -99q-33 136 -138 215q-107 80 -254 80q-143 0 -254 -75q-112 -77 -174 -210q-63 -135 -63 -307q0 -230 112 -355q111 -126 300 -126q114 0 213 47q97 46 164 136q64 88 81 208h-458l30 213h690
q9 -47 9 -133z" />
    <glyph glyph-name="gdotaccent" unicode="&#x121;" horiz-adv-x="1181" 
d="M521 1171q-38 38 -38 97q0 56 44 100q43 43 108 43q59 0 96 -37t37 -94q0 -61 -43 -104t-109 -43q-57 0 -95 38zM1118 1012l-143 -1024q-33 -219 -172 -339t-357 -120q-196 0 -320 93q-126 93 -144 247l198 82q18 -100 90 -157q73 -56 181 -56q118 0 192 67q73 67 90 189
l23 156q-45 -60 -122 -95q-76 -35 -171 -35q-177 0 -281 119t-104 322q0 162 62 297q62 134 172 210q109 76 253 76q103 0 185 -41q81 -42 120 -112l27 121h221zM680 268q63 45 99 126t36 184q0 125 -55 195q-56 69 -152 69q-82 0 -145 -48q-65 -50 -99 -130
q-36 -82 -36 -181q0 -125 55 -192q56 -68 154 -68q79 0 143 45z" />
    <glyph glyph-name="uni0122" unicode="&#x122;" horiz-adv-x="1583" 
d="M644 -158q44 45 114 45q69 0 112 -40t43 -105q0 -40 -17 -77t-54 -77l-133 -161h-125l121 165q-49 11 -76 47q-29 38 -29 91q0 66 44 112zM1522 684q-6 -212 -103 -372q-97 -162 -262 -251q-163 -90 -366 -90q-200 0 -354 86q-154 85 -240 250q-86 164 -86 387
q0 243 97 433t271 298q175 107 395 107q158 0 287 -55q131 -55 222 -156q90 -101 126 -231l-245 -99q-33 136 -138 215q-107 80 -254 80q-143 0 -254 -75q-112 -77 -174 -210q-63 -135 -63 -307q0 -230 112 -355q111 -126 300 -126q114 0 213 47q97 46 164 136q64 88 81 208
h-458l30 213h690q9 -47 9 -133z" />
    <glyph glyph-name="uni0123" unicode="&#x123;" horiz-adv-x="1193" 
d="M718 1191q-47 -44 -116 -44q-66 0 -109 40q-44 41 -44 105q0 38 18 76q18 37 55 80l133 158h125l-123 -164q50 -11 78 -47q29 -38 29 -92q0 -69 -46 -112zM1118 1012l-143 -1024q-33 -219 -172 -339t-357 -120q-196 0 -320 93q-126 93 -144 247l198 82q18 -100 90 -157
q73 -56 181 -56q118 0 192 67q73 67 90 189l23 156q-45 -60 -122 -95q-76 -35 -171 -35q-177 0 -281 119t-104 322q0 162 62 297q62 134 172 210q109 76 253 76q103 0 185 -41q81 -42 120 -112l27 121h221zM680 268q63 45 99 126t36 184q0 125 -55 195q-56 69 -152 69
q-82 0 -145 -48q-65 -50 -99 -130q-36 -82 -36 -181q0 -125 55 -192q56 -68 154 -68q79 0 143 45z" />
    <glyph glyph-name="Hbar" unicode="&#x126;" horiz-adv-x="1392" 
d="M1427 1139h-122l-160 -1139h-248l86 616h-567l-86 -616h-248l160 1139h-88l28 182h86l25 176h248l-25 -176h567l25 176h248l-25 -176h127zM1057 1139h-568l-38 -285h567z" />
    <glyph glyph-name="hbar" unicode="&#x127;" horiz-adv-x="1181" 
d="M961 960q81 -88 81 -235q0 -37 -6 -78l-90 -647h-241l83 594q1 6 5 53q0 87 -43 131q-44 45 -119 45q-104 0 -167 -66q-63 -67 -79 -179l-82 -578h-242l160 1139h-108l28 172h105l28 202h242l-29 -202h394l-29 -172h-389l-31 -221q56 63 132 96t167 33q147 0 230 -87z
" />
    <glyph glyph-name="Imacron" unicode="&#x12a;" horiz-adv-x="552" 
d="M760 1804l-23 -174h-600l25 174h598zM82 0l211 1497h248l-211 -1497h-248z" />
    <glyph glyph-name="imacron" unicode="&#x12b;" horiz-adv-x="505" 
d="M666 1311l-23 -174h-600l25 174h598zM440 1012l-141 -1012h-236l142 1012h235z" />
    <glyph glyph-name="Iogonek" unicode="&#x12e;" horiz-adv-x="552" 
d="M210 -71q-42 -37 -42 -72q0 -31 19 -46q19 -14 57 -14t69 17v-164q-58 -29 -133 -29q-86 0 -143 45t-57 121q0 134 157 213h-55l211 1497h248l-211 -1497q-77 -33 -120 -71z" />
    <glyph glyph-name="iogonek" unicode="&#x12f;" horiz-adv-x="505" 
d="M465 1364q37 -37 37 -94q0 -61 -43 -104q-44 -44 -109 -44q-57 0 -95 38t-38 97q0 57 44 101q43 43 108 43q59 0 96 -37zM440 1012l-141 -1012h2q-77 -33 -120 -71q-42 -37 -42 -72q0 -31 19 -46q19 -14 57 -14t70 17v-164q-58 -29 -133 -29q-86 0 -143 45
q-58 45 -58 121q0 133 158 213h-46l142 1012h235z" />
    <glyph glyph-name="Idotaccent" unicode="&#x130;" horiz-adv-x="552" 
d="M349 1654q-38 38 -38 97q0 56 44 100q43 43 108 43q59 0 96 -36q37 -37 37 -95q0 -61 -43 -104t-109 -43q-57 0 -95 38zM82 0l211 1497h248l-211 -1497h-248z" />
    <glyph glyph-name="dotlessi" unicode="&#x131;" horiz-adv-x="505" 
d="M440 1012l-141 -1012h-236l142 1012h235z" />
    <glyph glyph-name="uni0136" unicode="&#x136;" horiz-adv-x="1314" 
d="M464 -125q44 45 114 45q69 0 112 -40t43 -105q0 -40 -17 -77q-19 -37 -54 -77l-134 -162h-125l121 166q-47 11 -75 47q-29 38 -29 90q0 67 44 113zM860 852l363 -852h-297l-262 635l-293 -334l-41 -303h-248l211 1499h248l-109 -766l674 766h317z" />
    <glyph glyph-name="uni0137" unicode="&#x137;" horiz-adv-x="1062" 
d="M341 -125q43 45 114 45q69 0 112 -40t43 -105q0 -40 -17 -77q-19 -37 -54 -77l-133 -162h-125l120 166q-47 11 -75 47q-29 38 -29 90q0 67 44 113zM702 618l254 -618h-278l-168 428l-170 -166l-37 -262h-242l213 1513h242l-127 -897l404 396h311z" />
    <glyph glyph-name="Lacute" unicode="&#x139;" horiz-adv-x="1081" 
d="M520 1597h-182l201 293h229zM981 238l-33 -238h-868l211 1497h250l-179 -1259h619z" />
    <glyph glyph-name="lacute" unicode="&#x13a;" horiz-adv-x="501" 
d="M512 1882h229l-247 -293h-183zM274 1513h236l-213 -1513h-236z" />
    <glyph glyph-name="uni013B" unicode="&#x13b;" horiz-adv-x="1081" 
d="M347 -125q43 45 114 45q69 0 112 -40t43 -105q0 -40 -17 -77t-54 -77l-133 -162h-125l121 166q-49 11 -76 47q-29 38 -29 90q0 67 44 113zM981 238l-33 -238h-868l211 1497h250l-179 -1259h619z" />
    <glyph glyph-name="uni013C" unicode="&#x13c;" horiz-adv-x="501" 
d="M30 -125q44 45 113 45t112 -40q44 -41 44 -105q0 -40 -17 -77q-19 -38 -55 -77l-133 -162h-125l121 166q-47 11 -75 47q-29 36 -29 90q0 67 44 113zM274 1513h236l-213 -1513h-236z" />
    <glyph glyph-name="Lcaron" unicode="&#x13d;" horiz-adv-x="1054" 
d="M981 238l-33 -238h-868l211 1497h250l-179 -1259h619zM774 911h-141l82 586h205z" />
    <glyph glyph-name="lcaron" unicode="&#x13e;" horiz-adv-x="690" 
d="M274 1513h236l-213 -1513h-236zM846 1511l-150 -600h-141l86 600h205z" />
    <glyph glyph-name="Ldot" unicode="&#x13f;" horiz-adv-x="1054" 
d="M981 238l-33 -238h-868l211 1497h250l-179 -1259h619zM667 572q-40 40 -40 98q0 62 44 108q43 45 109 45q58 0 99 -40q41 -41 41 -97q0 -66 -45 -110q-47 -44 -111 -44q-57 0 -97 40z" />
    <glyph glyph-name="ldot" unicode="&#x140;" horiz-adv-x="831" 
d="M274 1513h236l-213 -1513h-236zM598 544q-41 41 -41 97q0 61 45 107q45 45 111 45q55 0 96 -39t41 -97q0 -65 -45 -109q-46 -44 -111 -44q-56 0 -96 40z" />
    <glyph glyph-name="Lslash" unicode="&#x141;" horiz-adv-x="1083" 
d="M987 236l-35 -236h-846l91 643l-187 -80l33 230l186 79l82 582h248l-65 -469l323 139l-33 -229l-323 -139l-74 -520h600z" />
    <glyph glyph-name="lslash" unicode="&#x142;" horiz-adv-x="573" 
d="M596 760l-154 -70l-96 -690h-235l82 578l-162 -74l30 205l160 73l103 731h235l-86 -616l152 70z" />
    <glyph glyph-name="Nacute" unicode="&#x143;" horiz-adv-x="1452" 
d="M987 1890h230l-248 -293h-183zM293 1497h248l501 -1071l150 1071h248l-211 -1497h-248l-500 1071l-151 -1071h-248z" />
    <glyph glyph-name="nacute" unicode="&#x144;" horiz-adv-x="1134" 
d="M840 1120h-183l201 293h229zM966 962q83 -86 83 -229q0 -38 -7 -76l-92 -657h-243l86 604q4 29 4 49q0 83 -44 129q-43 45 -122 45q-102 0 -166 -67q-65 -68 -78 -174l-82 -586h-242l142 1012h217l-6 -123q52 75 136 116q86 42 183 42q149 0 231 -85z" />
    <glyph glyph-name="uni0145" unicode="&#x145;" horiz-adv-x="1452" 
d="M515 -125q43 45 114 45q69 0 112 -40t43 -105q0 -40 -17 -77t-54 -77l-133 -162h-125l120 166q-47 11 -75 47q-29 38 -29 90q0 67 44 113zM293 1497h248l501 -1071l150 1071h248l-211 -1497h-248l-500 1071l-151 -1071h-248z" />
    <glyph glyph-name="uni0146" unicode="&#x146;" horiz-adv-x="1134" 
d="M374 -125q44 45 113 45t112 -40q44 -41 44 -105q0 -40 -17 -77q-19 -38 -55 -77l-133 -162h-125l121 166q-47 11 -75 47q-29 38 -29 90q0 67 44 113zM966 962q83 -86 83 -229q0 -38 -7 -76l-92 -657h-243l86 604q4 29 4 49q0 83 -44 129q-43 45 -122 45q-102 0 -166 -67
q-65 -68 -78 -174l-82 -586h-242l142 1012h217l-6 -123q52 75 136 116q86 42 183 42q149 0 231 -85z" />
    <glyph glyph-name="Ncaron" unicode="&#x147;" horiz-adv-x="1452" 
d="M831 1898l60 -161l108 161h211l-225 -303h-213l-141 303h200zM293 1497h248l501 -1071l150 1071h248l-211 -1497h-248l-500 1071l-151 -1071h-248z" />
    <glyph glyph-name="ncaron" unicode="&#x148;" horiz-adv-x="1134" 
d="M702 1421l60 -161l108 161h211l-225 -303h-213l-141 303h200zM966 962q83 -86 83 -229q0 -38 -7 -76l-92 -657h-243l86 604q4 29 4 49q0 83 -44 129q-43 45 -122 45q-102 0 -166 -67q-65 -68 -78 -174l-82 -586h-242l142 1012h217l-6 -123q52 75 136 116q86 42 183 42
q149 0 231 -85z" />
    <glyph glyph-name="Eng" unicode="&#x14a;" horiz-adv-x="1447" 
d="M1223 0h2l-21 -129q-27 -174 -131 -251t-252 -77q-83 0 -186 23l33 190q54 -8 106 -8q104 2 142 46t51 132l12 74l-504 1071l-151 -1071h-242l211 1497h242l493 -1071l152 1071h254z" />
    <glyph glyph-name="eng" unicode="&#x14b;" horiz-adv-x="1134" 
d="M966 962q83 -86 83 -229q0 -38 -7 -76l-92 -657l-14 -111q-26 -182 -136 -273q-112 -91 -282 -91q-78 0 -147 22l26 197q55 -6 103 -6q96 0 140 48q44 49 56 140l11 74l86 604q4 29 4 49q0 83 -44 129q-43 45 -122 45q-102 0 -166 -67q-65 -68 -78 -174l-82 -586h-242
l142 1012h217l-6 -123q52 75 136 116q86 42 183 42q149 0 231 -85z" />
    <glyph glyph-name="Omacron" unicode="&#x14c;" horiz-adv-x="1607" 
d="M1280 1829l-23 -174h-600l25 174h598zM433 60q-154 90 -238 256q-84 165 -84 382q0 233 98 424q97 190 273 300q176 108 397 108q201 0 354 -90q152 -90 238 -255q85 -164 85 -382q0 -241 -100 -429q-101 -191 -275 -297q-175 -108 -393 -108q-203 0 -355 91zM1049 298
q111 74 176 205q63 130 63 292q0 145 -52 253t-147 170q-96 60 -219 60q-138 0 -251 -75t-176 -206q-64 -129 -64 -292q0 -145 51 -254t146 -168q94 -60 219 -60q141 0 254 75z" />
    <glyph glyph-name="omacron" unicode="&#x14d;" horiz-adv-x="1157" 
d="M944 1321l-22 -174h-600l24 174h598zM138 757q64 132 186 210q121 77 278 77q140 0 247 -61q108 -62 166 -174t58 -260q0 -154 -65 -289q-66 -133 -187 -211q-122 -78 -278 -78q-143 0 -248 62q-107 61 -165 174q-58 112 -58 260q0 158 66 290zM381 264q61 -76 166 -76
q81 0 146 48q63 47 98 128q34 78 34 179q0 134 -61 210t-166 76q-80 0 -143 -48q-64 -48 -100 -130q-36 -83 -36 -180q0 -130 62 -207z" />
    <glyph glyph-name="Ohungarumlaut" unicode="&#x150;" horiz-adv-x="1607" 
d="M827 1909h224l-222 -293h-161zM1176 1909h231l-258 -293h-186zM433 60q-154 90 -238 256q-84 165 -84 382q0 233 98 424q97 190 273 300q176 108 397 108q201 0 354 -90q152 -90 238 -255q85 -164 85 -382q0 -241 -100 -429q-101 -191 -275 -297q-175 -108 -393 -108
q-203 0 -355 91zM1049 298q111 74 176 205q63 130 63 292q0 145 -52 253t-147 170q-96 60 -219 60q-138 0 -251 -75t-176 -206q-64 -129 -64 -292q0 -145 51 -254t146 -168q94 -60 219 -60q141 0 254 75z" />
    <glyph glyph-name="ohungarumlaut" unicode="&#x151;" horiz-adv-x="1157" 
d="M553 1432h223l-221 -293h-162zM901 1432h232l-259 -293h-186zM138 757q64 132 186 210q121 77 278 77q140 0 247 -61q108 -62 166 -174t58 -260q0 -154 -65 -289q-66 -133 -187 -211q-122 -78 -278 -78q-143 0 -248 62q-107 61 -165 174q-58 112 -58 260q0 158 66 290z
M381 264q61 -76 166 -76q81 0 146 48q63 47 98 128q34 78 34 179q0 134 -61 210t-166 76q-80 0 -143 -48q-64 -48 -100 -130q-36 -83 -36 -180q0 -130 62 -207z" />
    <glyph glyph-name="OE" unicode="&#x152;" horiz-adv-x="2207" 
d="M1638 1260l-53 -383h535l-33 -238h-535l-57 -401h600l-37 -238h-844l15 109q-194 -138 -441 -140q-204 0 -356 91q-153 90 -237 256q-84 165 -84 382q0 233 98 424q97 190 273 300q176 108 397 108q164 0 296 -60q133 -62 222 -172l28 199h844l-33 -237h-598zM1049 298
q111 74 176 205q63 130 63 292q0 145 -52 253t-147 170q-96 60 -219 60q-138 0 -251 -75t-176 -206q-64 -129 -64 -292q0 -145 51 -254t146 -168q94 -60 219 -60q141 0 254 75z" />
    <glyph glyph-name="oe" unicode="&#x153;" horiz-adv-x="1873" 
d="M1588 989q98 -59 149 -159q51 -101 51 -226q0 -42 -6 -88q-6 -48 -21 -92h-700v-6q-6 -113 59 -178q64 -66 178 -66q96 0 165 45q70 46 98 121l198 -70q-56 -142 -182 -219q-127 -78 -291 -78q-117 0 -210 42q-94 42 -152 120q-72 -78 -169 -121q-96 -43 -212 -43
q-143 0 -248 62q-107 61 -165 174q-58 112 -58 260q0 158 66 290q64 132 186 210q121 77 278 77q118 0 211 -43q94 -43 158 -124q71 83 167 126q99 44 216 44q136 0 234 -58zM1171 782q-69 -65 -86 -176h467q10 108 -46 175q-56 65 -163 65q-105 0 -172 -64zM693 236
q63 47 98 128q34 78 34 179q0 134 -61 210t-166 76q-80 0 -143 -48q-64 -48 -100 -130q-36 -83 -36 -180q0 -130 62 -207q61 -76 166 -76q81 0 146 48z" />
    <glyph glyph-name="Racute" unicode="&#x154;" horiz-adv-x="1351" 
d="M874 1597h-182l201 293h229zM1251 756q-85 -122 -237 -181l157 -575h-276l-135 532h-354l-76 -532h-248l211 1497h571q138 0 247 -56q109 -57 167 -159q59 -103 59 -238q0 -164 -86 -288zM995 830q84 74 84 192q0 107 -64 172q-64 66 -179 66h-330l-70 -504h330
q144 0 229 74z" />
    <glyph glyph-name="racute" unicode="&#x155;" horiz-adv-x="772" 
d="M412 1122h-183l201 293h229zM776 1012l-33 -234q-42 8 -96 8q-246 0 -282 -276l-74 -510h-240l142 1012h223l-4 -133q39 71 112 108q71 37 154 37q48 0 98 -12z" />
    <glyph glyph-name="uni0156" unicode="&#x156;" horiz-adv-x="1351" 
d="M427 -125q43 45 114 45q69 0 112 -40t43 -105q0 -40 -17 -77t-54 -77l-133 -162h-125l120 166q-47 11 -75 47q-29 38 -29 90q0 67 44 113zM1251 756q-85 -122 -237 -181l157 -575h-276l-135 532h-354l-76 -532h-248l211 1497h571q138 0 247 -56q109 -57 167 -159
q59 -103 59 -238q0 -164 -86 -288zM995 830q84 74 84 192q0 107 -64 172q-64 66 -179 66h-330l-70 -504h330q144 0 229 74z" />
    <glyph glyph-name="uni0157" unicode="&#x157;" horiz-adv-x="772" 
d="M36 -125q44 45 114 45q69 0 112 -40t43 -105q0 -40 -17 -77q-19 -38 -55 -77l-133 -162h-125l121 166q-47 11 -75 47q-29 38 -29 90q0 67 44 113zM776 1012l-33 -234q-42 8 -96 8q-246 0 -282 -276l-74 -510h-240l142 1012h223l-4 -133q39 71 112 108q71 37 154 37
q48 0 98 -12z" />
    <glyph glyph-name="Rcaron" unicode="&#x158;" horiz-adv-x="1351" 
d="M737 1898l60 -161l108 161h211l-225 -303h-213l-141 303h200zM1251 756q-85 -122 -237 -181l157 -575h-276l-135 532h-354l-76 -532h-248l211 1497h571q138 0 247 -56q109 -57 167 -159q59 -103 59 -238q0 -164 -86 -288zM995 830q84 74 84 192q0 107 -64 172
q-64 66 -179 66h-330l-70 -504h330q144 0 229 74z" />
    <glyph glyph-name="rcaron" unicode="&#x159;" horiz-adv-x="772" 
d="M274 1423l60 -161l108 161h211l-225 -303h-213l-141 303h200zM776 1012l-33 -234q-42 8 -96 8q-246 0 -282 -276l-74 -510h-240l142 1012h223l-4 -133q39 71 112 108q71 37 154 37q48 0 98 -12z" />
    <glyph glyph-name="Sacute" unicode="&#x15a;" horiz-adv-x="1216" 
d="M858 1903h229l-247 -293h-183zM932 1077q-7 100 -70 160q-63 57 -168 57q-109 0 -178 -57q-70 -57 -70 -150q0 -74 49 -117q49 -45 130 -71l194 -61q147 -47 224 -152q77 -107 77 -244q0 -139 -70 -245q-71 -107 -196 -164q-123 -58 -281 -58q-156 0 -271 58
q-116 57 -175 158q-58 100 -57 229l237 37q1 -110 80 -178t203 -68q117 0 188 56q70 55 70 149q0 139 -158 190l-192 62q-316 103 -318 389q0 139 66 247q65 107 182 167q118 59 266 59q200 0 333 -107q132 -108 147 -286z" />
    <glyph glyph-name="sacute" unicode="&#x15b;" horiz-adv-x="915" 
d="M625 1407h229l-248 -293h-182zM645 717q5 61 -36 99t-109 38q-69 0 -110 -34q-42 -34 -42 -89q0 -43 28 -65q28 -24 83 -37l137 -37q111 -27 168 -99q57 -74 57 -176q0 -158 -119 -251q-120 -93 -305 -93q-169 0 -270 83q-100 82 -98 225l211 34q-4 -67 40 -107
q43 -40 128 -40q76 0 122 34q45 35 45 91q0 73 -90 98l-151 45q-233 71 -234 269q0 100 51 178q49 77 142 121q90 43 213 43q158 0 250 -77t100 -208z" />
    <glyph glyph-name="Scedilla" unicode="&#x15e;" horiz-adv-x="1208" 
d="M1044 686q76 -106 76 -244q0 -131 -62 -232q-63 -101 -174 -161q-113 -62 -253 -72l-31 -61q72 4 120 -37q46 -40 46 -108q0 -79 -62 -126q-62 -46 -151 -46q-91 0 -146 48q-58 48 -53 122h135q0 -48 56 -50q29 0 47 15q18 16 18 43q0 26 -17 40q-17 13 -46 13
q-12 0 -31 -4l-53 31l57 120q-137 7 -242 68q-104 59 -157 157q-52 97 -51 218l237 37q1 -110 80 -178t203 -68q117 0 188 56q70 55 70 149q0 139 -158 190l-192 62q-316 103 -318 389q0 139 66 247q65 107 182 167q118 59 266 59q200 0 333 -107q132 -108 147 -286
l-242 -60q-7 100 -70 160q-63 57 -168 57q-109 0 -178 -57q-70 -57 -70 -150q0 -74 49 -117q49 -45 130 -71l194 -61q148 -46 225 -152z" />
    <glyph glyph-name="scedilla" unicode="&#x15f;" horiz-adv-x="915" 
d="M764 493q57 -74 57 -176q0 -139 -95 -229q-94 -90 -251 -111l-31 -63q72 4 120 -37q46 -40 46 -108q0 -79 -62 -126q-62 -46 -151 -46q-91 0 -146 48q-56 49 -52 122h135q0 -49 55 -50q29 0 48 15q18 17 18 43t-17 40q-17 13 -47 13q-12 0 -31 -4l-53 31l58 118
q-157 11 -247 92q-91 82 -89 216l211 34q-4 -67 40 -107q43 -40 128 -40q76 0 122 34q45 35 45 91q0 73 -90 98l-151 45q-233 71 -234 269q0 100 51 178q49 77 142 121q90 43 213 43q158 0 250 -77t100 -208l-211 -45q5 61 -36 99t-109 38q-69 0 -110 -34q-42 -34 -42 -89
q0 -43 28 -65q28 -24 83 -37l137 -37q111 -27 168 -99z" />
    <glyph glyph-name="Scaron" unicode="&#x160;" horiz-adv-x="1216" 
d="M702 1911l60 -162l108 162h211l-225 -303h-213l-141 303h200zM932 1077q-7 100 -70 160q-63 57 -168 57q-109 0 -178 -57q-70 -57 -70 -150q0 -74 49 -117q49 -45 130 -71l194 -61q147 -47 224 -152q77 -107 77 -244q0 -139 -70 -245q-71 -107 -196 -164
q-123 -58 -281 -58q-156 0 -271 58q-116 57 -175 158q-58 100 -57 229l237 37q1 -110 80 -178t203 -68q117 0 188 56q70 55 70 149q0 139 -158 190l-192 62q-316 103 -318 389q0 139 66 247q65 107 182 167q118 59 266 59q200 0 333 -107q132 -108 147 -286z" />
    <glyph glyph-name="scaron" unicode="&#x161;" horiz-adv-x="915" 
d="M469 1415l59 -162l109 162h211l-225 -303h-213l-142 303h201zM645 717q5 61 -36 99t-109 38q-69 0 -110 -34q-42 -34 -42 -89q0 -43 28 -65q28 -24 83 -37l137 -37q111 -27 168 -99q57 -74 57 -176q0 -158 -119 -251q-120 -93 -305 -93q-169 0 -270 83q-100 82 -98 225
l211 34q-4 -67 40 -107q43 -40 128 -40q76 0 122 34q45 35 45 91q0 73 -90 98l-151 45q-233 71 -234 269q0 100 51 178q49 77 142 121q90 43 213 43q158 0 250 -77t100 -208z" />
    <glyph glyph-name="uni0162" unicode="&#x162;" horiz-adv-x="1187" 
d="M580 0l-35 -72q72 4 120 -37q46 -40 46 -108q0 -79 -62 -126q-62 -46 -151 -46q-90 0 -146 48q-58 48 -53 122h135q0 -49 55 -49q29 0 48 15q18 15 18 42q0 26 -17 40q-17 13 -46 13q-12 0 -31 -4l-53 31l63 131h-78l178 1260h-415l32 237h1082l-37 -237h-412l-176 -1260
h-65z" />
    <glyph glyph-name="uni0163" unicode="&#x163;" horiz-adv-x="872" 
d="M492 348q-1 -13 -3 -41q0 -66 34 -93q34 -28 102 -28q60 0 125 13l-29 -191q-75 -24 -170 -31l-31 -61q72 4 120 -37q46 -40 46 -108q0 -79 -62 -126q-62 -46 -151 -46q-91 0 -146 48q-58 48 -53 122h136q0 -49 55 -50q29 0 47 15q18 16 18 43q0 26 -17 40q-16 13 -46 13
q-12 0 -31 -4l-53 31l61 129q-99 20 -148 90q-50 70 -50 180q0 49 4 72l67 475h-233l29 209h233l41 284l242 17l-43 -301h276l-28 -209h-277z" />
    <glyph glyph-name="Tcaron" unicode="&#x164;" horiz-adv-x="1187" 
d="M696 1898l60 -161l108 161h211l-225 -303h-213l-141 303h200zM1233 1260h-412l-176 -1260h-252l178 1260h-415l32 237h1082z" />
    <glyph glyph-name="tcaron" unicode="&#x165;" horiz-adv-x="868" 
d="M819 1096h-141l65 401h207zM586 1012h276l-28 -209h-277l-65 -455q-1 -13 -3 -41q0 -66 34 -93q34 -28 102 -28q60 0 125 13l-29 -191q-48 -15 -97 -23q-59 -8 -100 -8q-135 0 -206 74q-72 74 -72 205q0 49 4 72l67 475h-233l29 209h233l41 284l242 17z" />
    <glyph glyph-name="Tbar" unicode="&#x166;" horiz-adv-x="1187" 
d="M821 1260l-59 -420h407l-28 -193h-406l-90 -647h-252l90 647h-397l27 193h399l59 420h-415l32 237h1082l-35 -237h-414z" />
    <glyph glyph-name="tbar" unicode="&#x167;" horiz-adv-x="851" 
d="M557 803l-27 -178h285l-29 -179h-280l-14 -98q-1 -13 -3 -41q0 -66 34 -93q34 -28 102 -28q60 0 125 13l-29 -191q-48 -15 -97 -23q-59 -8 -100 -8q-135 0 -206 74q-72 74 -72 205q0 49 4 72l16 118h-225l31 179h221l24 178h-233l29 209h233l41 284l242 17l-43 -301h276
l-28 -209h-277z" />
    <glyph glyph-name="Umacron" unicode="&#x16a;" horiz-adv-x="1398" 
d="M1180 1804l-23 -174h-600l25 174h598zM270 1497h252l-129 -924q-6 -45 -6 -86q0 -133 72 -205q70 -73 203 -73q147 0 240 95q92 94 118 269l129 924h252l-133 -948q-39 -277 -205 -426q-167 -150 -412 -150q-155 0 -270 60q-118 59 -182 171q-66 111 -66 265q0 53 8 106z
" />
    <glyph glyph-name="umacron" unicode="&#x16b;" horiz-adv-x="1132" 
d="M973 1311l-23 -174h-600l25 174h598zM1067 1012l-141 -1012h-215l8 129q-44 -72 -124 -114q-81 -42 -179 -42q-150 0 -232 87q-82 86 -82 239q0 43 7 84l88 629h241l-84 -598q-4 -29 -4 -47q0 -85 46 -128q47 -44 126 -44q94 0 151 59q55 58 72 172l82 586h240z" />
    <glyph glyph-name="Uring" unicode="&#x16e;" horiz-adv-x="1398" 
d="M648 1849q41 61 105 92q63 31 136 31q107 0 174 -67t67 -170q0 -79 -39 -137q-40 -60 -104 -91q-66 -32 -137 -32q-107 0 -174 67q-68 66 -68 168q0 78 40 139zM791 1643q29 -29 71 -29q47 0 82 32t35 83q0 46 -28 75q-29 29 -72 29q-49 0 -83 -34t-34 -83q0 -44 29 -73z
M270 1497h252l-129 -924q-6 -45 -6 -86q0 -133 72 -205q70 -73 203 -73q147 0 240 95q92 94 118 269l129 924h252l-133 -948q-39 -277 -205 -426q-167 -150 -412 -150q-155 0 -270 60q-118 59 -182 171q-66 111 -66 265q0 53 8 106z" />
    <glyph glyph-name="uring" unicode="&#x16f;" horiz-adv-x="1132" 
d="M469 1048q-68 66 -68 169q0 79 40 138q41 61 105 92q66 32 136 32q106 0 174 -68t68 -170q0 -79 -40 -137q-40 -60 -104 -91q-66 -32 -137 -32q-107 0 -174 67zM589 1306q-34 -34 -34 -83q0 -45 29 -74t71 -29q47 0 82 32t35 83q0 46 -28 75q-29 29 -72 29q-48 0 -83 -33
zM1067 1012l-141 -1012h-215l8 129q-44 -72 -124 -114q-81 -42 -179 -42q-150 0 -232 87q-82 86 -82 239q0 43 7 84l88 629h241l-84 -598q-4 -29 -4 -47q0 -85 46 -128q47 -44 126 -44q94 0 151 59q55 58 72 172l82 586h240z" />
    <glyph glyph-name="Uhungarumlaut" unicode="&#x170;" horiz-adv-x="1398" 
d="M788 1915h224l-221 -293h-162zM1137 1915h231l-258 -293h-186zM270 1497h252l-129 -924q-6 -45 -6 -86q0 -133 72 -205q70 -73 203 -73q147 0 240 95q92 94 118 269l129 924h252l-133 -948q-39 -277 -205 -426q-167 -150 -412 -150q-155 0 -270 60q-118 59 -182 171
q-66 111 -66 265q0 53 8 106z" />
    <glyph glyph-name="uhungarumlaut" unicode="&#x171;" horiz-adv-x="1101" 
d="M543 1425h223l-221 -292h-162zM891 1425h231l-258 -292h-186zM1067 1012l-141 -1012h-215l8 129q-44 -72 -124 -114q-81 -42 -179 -42q-150 0 -232 87q-82 86 -82 239q0 43 7 84l88 629h241l-84 -598q-4 -29 -4 -47q0 -85 46 -128q47 -44 126 -44q94 0 151 59
q55 58 72 172l82 586h240z" />
    <glyph glyph-name="Uogonek" unicode="&#x172;" horiz-adv-x="1398" 
d="M1401 1497l-133 -948q-37 -256 -184 -404q-149 -149 -367 -170q-67 -31 -105 -66q-37 -34 -37 -67q0 -32 19 -45q19 -14 57 -14q39 0 70 16v-164q-59 -29 -133 -28q-86 0 -143 45q-58 45 -58 121q0 129 152 209q-187 32 -296 159q-110 128 -110 328q0 53 8 106l129 922
h252l-129 -924q-6 -45 -6 -86q0 -133 72 -205q70 -73 203 -73q147 0 240 95q92 94 118 269l129 924h252z" />
    <glyph glyph-name="uogonek" unicode="&#x173;" horiz-adv-x="1132" 
d="M806 -71q-42 -37 -42 -72q0 -31 19 -46q19 -14 57 -14t69 17v-164q-58 -29 -133 -29q-86 0 -143 45q-58 45 -58 121q0 133 158 213h-22l8 129q-44 -72 -124 -114q-81 -42 -179 -42q-150 0 -232 87q-82 86 -82 239q0 43 7 84l88 629h241l-84 -598q-4 -29 -4 -47
q0 -85 46 -128q47 -44 126 -44q94 0 151 59q55 58 72 172l82 586h240l-141 -1012q-77 -33 -120 -71z" />
    <glyph glyph-name="Wcircumflex" unicode="&#x174;" horiz-adv-x="2043" 
d="M1235 1595l-61 164l-107 -164h-213l225 303h213l142 -303h-199zM457 1497l82 -1065l481 1065h256l180 -1063l397 1063h289l-594 -1497h-268l-193 1069l-493 -1069h-254l-160 1497h277z" />
    <glyph glyph-name="wcircumflex" unicode="&#x175;" horiz-adv-x="1585" 
d="M958 1102l-61 164l-106 -164h-213l225 303h213l141 -303h-199zM362 1012l99 -654q18 39 78 181l34 84l168 389h240l102 -654l52 129q23 51 36 88l189 437h258l-449 -1012h-249l-107 664q-49 -125 -137 -318l-154 -346h-241l-170 1012h251z" />
    <glyph glyph-name="Ycircumflex" unicode="&#x176;" horiz-adv-x="1239" 
d="M850 1587l-62 164l-106 -164h-213l225 303h213l142 -303h-199zM436 1497l146 -418l36 -108l39 -117q30 53 68 111l76 120l264 412h297l-606 -885l-84 -612h-256l84 612l-342 885h278z" />
    <glyph glyph-name="ycircumflex" unicode="&#x177;" horiz-adv-x="1052" 
d="M690 1102l-61 164l-107 -164h-213l226 303h213l141 -303h-199zM1100 1012l-678 -1446h-246l219 475l-305 971h252l197 -662l305 662h256z" />
    <glyph glyph-name="Ydieresis" unicode="&#x178;" horiz-adv-x="1239" 
d="M484 1646q-38 38 -38 97q0 57 45 100q43 43 107 43q59 0 96 -37t37 -94q0 -61 -43 -104t-108 -43q-58 0 -96 38zM883 1646q-37 37 -37 97q0 57 43 100t108 43q58 0 95 -37q38 -38 38 -94q0 -61 -43 -104t-108 -43q-58 0 -96 38zM436 1497l146 -418l36 -108l39 -117
q30 53 68 111l76 120l264 412h297l-606 -885l-84 -612h-256l84 612l-342 885h278z" />
    <glyph glyph-name="Zacute" unicode="&#x179;" horiz-adv-x="1179" 
d="M844 1890h229l-248 -293h-182zM59 231l818 1024h-664l33 240l989 2l-31 -231l-821 -1028h655l-32 -238h-979z" />
    <glyph glyph-name="zacute" unicode="&#x17a;" horiz-adv-x="958" 
d="M672 1397h229l-248 -293h-182zM61 215l525 573h-439l31 224h744l-33 -230l-508 -557h434l-31 -225h-751z" />
    <glyph glyph-name="Zdotaccent" unicode="&#x17b;" horiz-adv-x="1179" 
d="M652 1654q-38 38 -38 97q0 56 44 100q43 43 108 43q58 0 96 -36q37 -37 37 -95q0 -61 -43 -104t-108 -43q-58 0 -96 38zM59 231l818 1024h-664l33 240l989 2l-31 -231l-821 -1028h655l-32 -238h-979z" />
    <glyph glyph-name="zdotaccent" unicode="&#x17c;" horiz-adv-x="958" 
d="M480 1160q-38 38 -38 97q0 57 44 101q43 43 108 43q59 0 96 -37t37 -94q0 -61 -43 -104q-44 -44 -109 -44q-57 0 -95 38zM61 215l525 573h-439l31 224h744l-33 -230l-508 -557h434l-31 -225h-751z" />
    <glyph glyph-name="Zcaron" unicode="&#x17d;" horiz-adv-x="1179" 
d="M688 1898l60 -161l108 161h211l-225 -303h-213l-142 303h201zM59 231l818 1024h-664l33 240l989 2l-31 -231l-821 -1028h655l-32 -238h-979z" />
    <glyph glyph-name="zcaron" unicode="&#x17e;" horiz-adv-x="958" 
d="M516 1405l59 -162l109 162h211l-225 -303h-213l-142 303h201zM61 215l525 573h-439l31 224h744l-33 -230l-508 -557h434l-31 -225h-751z" />
    <glyph glyph-name="florin" unicode="&#x192;" horiz-adv-x="1216" 
d="M960 1278q-50 -44 -75 -135l-39 -133h297l-17 -217h-344l-204 -705q-49 -172 -154 -245q-105 -72 -252 -72q-68 0 -160 18l13 199q46 -8 96 -8q71 0 113 19q43 20 71 67q30 49 55 137l170 590h-217l15 217h270l55 198q47 168 149 245q101 77 259 77q93 0 162 -23
l-13 -194q-56 8 -104 8q-99 0 -146 -43z" />
    <glyph glyph-name="AEacute" unicode="&#x1fc;" horiz-adv-x="1812" 
d="M1423 1552h-182l201 293h229zM1262 1219l-54 -365h516l-32 -236h-514l-56 -382h578l-33 -236h-823l39 279h-453l-184 -279h-297l983 1454h940l-35 -235h-575zM915 504l91 647l-428 -647h337z" />
    <glyph glyph-name="aeacute" unicode="&#x1fd;" horiz-adv-x="1871" 
d="M1077 1083h-182l201 293h229zM1618 989q98 -59 150 -159q51 -101 51 -226q0 -45 -7 -88q-5 -45 -20 -92h-700q-8 -116 56 -182q65 -68 181 -68q96 0 165 45t97 121l199 -70q-56 -142 -182 -219q-128 -78 -291 -78q-208 0 -330 125l-14 -98h-234l17 104q-50 -62 -129 -97
q-77 -34 -168 -34q-173 0 -279 121q-108 122 -108 342q0 167 65 308q64 139 180 220q116 80 261 80q97 0 172 -37t116 -106l27 111h221l-6 -43q123 78 276 78q137 0 234 -58zM1202 782q-69 -65 -86 -176h467q10 108 -46 175q-56 65 -163 65q-105 0 -172 -64zM673 230
q64 51 100 139q36 89 36 196q0 135 -56 206q-57 71 -149 71q-83 0 -148 -53q-65 -55 -101 -144q-36 -90 -36 -192q0 -133 57 -204q56 -71 150 -71q83 0 147 52z" />
    <glyph glyph-name="uni0218" unicode="&#x218;" horiz-adv-x="1216" 
d="M409 -139q43 45 113 45q69 0 112 -40q44 -41 44 -106q0 -40 -17 -77q-20 -38 -55 -76l-133 -162h-125l121 166q-47 11 -75 47q-29 38 -29 90q0 67 44 113zM932 1077q-7 100 -70 160q-63 57 -168 57q-109 0 -178 -57q-70 -57 -70 -150q0 -74 49 -117q49 -45 130 -71
l194 -61q147 -47 224 -152q77 -107 77 -244q0 -139 -70 -245q-71 -107 -196 -164q-123 -58 -281 -58q-156 0 -271 58q-116 57 -175 158q-58 100 -57 229l237 37q1 -110 80 -178t203 -68q117 0 188 56q70 55 70 149q0 139 -158 190l-192 62q-316 103 -318 389q0 139 66 247
q65 107 182 167q118 59 266 59q200 0 333 -107q132 -108 147 -286z" />
    <glyph glyph-name="uni0219" unicode="&#x219;" horiz-adv-x="888" 
d="M296 -139q44 45 114 45q69 0 112 -40t43 -106q0 -40 -17 -77q-19 -37 -54 -76l-134 -162h-124l120 166q-47 11 -75 47q-29 38 -29 90q0 67 44 113zM645 717q5 61 -36 99t-109 38q-69 0 -110 -34q-42 -34 -42 -89q0 -43 28 -65q28 -24 83 -37l137 -37q111 -27 168 -99
q57 -74 57 -176q0 -158 -119 -251q-120 -93 -305 -93q-169 0 -270 83q-100 82 -98 225l211 34q-4 -67 40 -107q43 -40 128 -40q76 0 122 34q45 35 45 91q0 73 -90 98l-151 45q-233 71 -234 269q0 100 51 178q49 77 142 121q90 43 213 43q158 0 250 -77t100 -208z" />
    <glyph glyph-name="uni021A" unicode="&#x21a;" horiz-adv-x="1187" 
d="M380 -127q44 45 114 45q69 0 112 -40t43 -105q0 -40 -17 -77q-19 -37 -54 -77l-134 -162h-125l121 166q-47 11 -75 47q-29 38 -29 90q0 67 44 113zM1233 1260h-412l-176 -1260h-252l178 1260h-415l32 237h1082z" />
    <glyph glyph-name="uni021B" unicode="&#x21b;" horiz-adv-x="872" 
d="M355 -139q43 45 114 45q69 0 112 -40q44 -41 44 -106q0 -40 -17 -77q-20 -38 -55 -76l-133 -162h-125l121 166q-49 11 -76 47q-29 38 -29 90q0 67 44 113zM492 348q-1 -13 -3 -41q0 -66 34 -93q34 -28 102 -28q60 0 125 13l-29 -191q-48 -15 -97 -23q-59 -8 -100 -8
q-135 0 -206 74q-72 74 -72 205q0 49 4 72l67 475h-233l29 209h233l41 284l242 17l-43 -301h276l-28 -209h-277z" />
    <glyph glyph-name="circumflex" unicode="&#x2c6;" horiz-adv-x="827" 
d="M541 1348l-62 163l-106 -163h-213l225 303h213l141 -303h-198z" />
    <glyph glyph-name="caron" unicode="&#x2c7;" horiz-adv-x="829" 
d="M557 1651l59 -162l109 162h211l-225 -303h-213l-142 303h201z" />
    <glyph glyph-name="breve" unicode="&#x2d8;" horiz-adv-x="827" 
d="M887 1636q-1 -88 -45 -156q-44 -69 -115 -108q-72 -39 -158 -39q-121 0 -197 72q-77 72 -77 184q0 18 4 47h166q-2 -14 -2 -28q0 -51 31 -81q30 -30 81 -30q60 0 100 38q37 37 42 101h170z" />
    <glyph glyph-name="dotaccent" unicode="&#x2d9;" horiz-adv-x="483" 
d="M255 1375q-38 38 -38 98q0 56 44 100q43 43 108 43q59 0 96 -37t37 -94q0 -61 -43 -104q-44 -44 -109 -44q-57 0 -95 38z" />
    <glyph glyph-name="ring" unicode="&#x2da;" horiz-adv-x="686" 
d="M259 1605q41 61 105 92q66 32 136 32q106 0 174 -68q67 -67 67 -170q0 -79 -39 -137q-40 -59 -105 -91q-66 -32 -136 -32q-107 0 -174 67q-68 66 -68 168q0 78 40 139zM402 1399q29 -29 71 -29q47 0 82 32t35 83q0 44 -29 75q-29 29 -72 29q-49 0 -82 -33
q-34 -34 -34 -83q0 -45 29 -74z" />
    <glyph glyph-name="ogonek" unicode="&#x2db;" horiz-adv-x="573" 
d="M301 -379q-86 0 -143 45q-58 45 -58 121q0 139 174 221l177 -8q-77 -33 -120 -71q-42 -37 -42 -72q0 -31 19 -46q19 -14 57 -14t69 17v-164q-58 -29 -133 -29z" />
    <glyph glyph-name="tilde" unicode="&#x2dc;" horiz-adv-x="819" 
d="M531 1612q32 -14 75 -41q35 -21 53 -29q19 -10 41 -10q35 0 54 25q18 23 16 63h145q4 -127 -56 -195q-60 -69 -157 -69q-46 0 -80 14q-31 12 -79 41q-30 20 -47 29q-21 8 -39 8q-29 0 -46 -20q-18 -21 -18 -52q0 -10 2 -18h-145q-10 115 46 193q56 75 155 75q44 0 80 -14
z" />
    <glyph glyph-name="hungarumlaut" unicode="&#x2dd;" horiz-adv-x="894" 
d="M303 1636h223l-221 -293h-162zM651 1636h232l-258 -293h-187z" />
    <glyph glyph-name="gravecomb" unicode="&#x300;" 
d="M-223 1343l-240 293h242l178 -293h-180z" />
    <glyph glyph-name="acutecomb" unicode="&#x301;" 
d="M37 1636h229l-248 -293h-182z" />
    <glyph glyph-name="uni0302" unicode="&#x302;" 
d="M-287 1348l-61 163l-107 -163h-213l226 303h213l141 -303h-199z" />
    <glyph glyph-name="tildecomb" unicode="&#x303;" 
d="M-289 1612q35 -15 76 -41q39 -23 52 -29q19 -10 42 -10q35 0 53 25q19 23 17 63h145q4 -127 -56 -195q-60 -69 -157 -69q-45 0 -81 14q-30 12 -78 41q-31 21 -48 29q-19 8 -38 8q-29 0 -47 -20q-17 -22 -17 -52q0 -10 2 -18h-145q-10 115 46 193q56 75 154 75
q44 0 80 -14z" />
    <glyph glyph-name="uni0304" unicode="&#x304;" 
d="M-14 1585l-23 -174h-600l25 174h598z" />
    <glyph glyph-name="uni0306" unicode="&#x306;" 
d="M178 1636q-2 -88 -45 -156q-43 -69 -114 -108q-72 -39 -158 -39q-121 0 -198 72t-77 184q0 18 4 47h166q-2 -14 -2 -28q0 -51 31 -81t82 -30q61 0 99 38q37 37 42 101h170z" />
    <glyph glyph-name="uni0307" unicode="&#x307;" 
d="M-231 1375q-37 37 -37 98q0 56 44 100q43 43 107 43q59 0 96 -37t37 -94q0 -61 -43 -104q-44 -44 -108 -44q-58 0 -96 38z" />
    <glyph glyph-name="uni0308" unicode="&#x308;" 
d="M-622 1375q-37 37 -37 98q0 56 44 100q43 43 107 43q59 0 96 -37t37 -94q0 -61 -43 -104q-44 -44 -108 -44q-58 0 -96 38zM-223 1375q-37 37 -37 98q0 57 43 100t108 43q58 0 95 -37q39 -37 39 -94q0 -61 -43 -104q-44 -44 -109 -44q-58 0 -96 38z" />
    <glyph glyph-name="uni030A" unicode="&#x30a;" 
d="M-372 1605q41 61 104 92q66 32 137 32q106 0 174 -68t68 -170q0 -79 -40 -137q-41 -60 -105 -91q-66 -32 -136 -32q-107 0 -174 67q-68 66 -68 168q0 78 40 139zM-230 1399q29 -29 72 -29q47 0 82 32t35 83q0 44 -29 75q-29 29 -71 29q-49 0 -83 -33q-34 -34 -34 -83
q0 -46 28 -74z" />
    <glyph glyph-name="uni030B" unicode="&#x30b;" 
d="M-592 1636h223l-221 -293h-162zM-244 1636h232l-258 -293h-187z" />
    <glyph glyph-name="uni030C" unicode="&#x30c;" 
d="M-270 1651l59 -162l109 162h211l-226 -303h-213l-141 303h201z" />
    <glyph glyph-name="uni0312" unicode="&#x312;" 
d="M22 1383q-49 -44 -116 -44t-110 40q-44 41 -44 106q0 39 18 76q20 38 56 79l133 158h125l-123 -164q50 -11 78 -47q29 -38 29 -92q0 -69 -46 -112z" />
    <glyph glyph-name="uni0326" unicode="&#x326;" 
d="M-431 -45q43 45 114 45q68 0 111 -40q44 -41 44 -105q0 -41 -18 -77q-16 -36 -53 -77l-134 -162h-125l121 166q-49 11 -76 47q-28 37 -28 90q0 67 44 113z" />
    <glyph glyph-name="uni0327" unicode="&#x327;" 
d="M-246 -14l-41 -84q72 4 120 -37q46 -40 46 -109q0 -80 -63 -126q-61 -46 -150 -46q-90 0 -147 48q-55 49 -51 122h135q0 -49 55 -49q29 0 47 15q19 16 19 42t-18 40q-17 14 -46 14q-12 0 -31 -4l-53 30l82 170z" />
    <glyph glyph-name="uni0328" unicode="&#x328;" 
d="M-272 -379q-86 0 -144 45q-57 45 -57 121q0 139 174 221l176 -8q-77 -33 -120 -71q-42 -37 -42 -72q0 -31 18 -46q20 -14 58 -14t70 17v-164q-58 -29 -133 -29z" />
    <glyph glyph-name="uni0335" unicode="&#x335;" 
d="M-29 696l-28 -172h-740l29 172h739z" />
    <glyph glyph-name="uni0336" unicode="&#x336;" 
d="M-115 705l-28 -189h-1211l27 189h1212z" />
    <glyph glyph-name="uni0337" unicode="&#x337;" 
d="M-133 1161h242l-1043 -1237h-240z" />
    <glyph glyph-name="uni0338" unicode="&#x338;" 
d="M-348 1047h178l-909 -1080h-178z" />
    <glyph glyph-name="Theta" unicode="&#x398;" horiz-adv-x="1511" 
d="M422 72q-162 97 -251 274q-89 176 -89 406q0 229 89 405t251 275q163 98 373 98q212 0 375 -98q162 -100 250 -276q89 -178 89 -404q0 -229 -89 -405q-89 -177 -251 -275q-163 -99 -374 -99t-373 99zM1025 291q100 68 155 188t55 275t-55 274q-55 118 -155 186
q-99 66 -230 66t-231 -67t-156 -188t-56 -273t56 -275q55 -121 156 -187q100 -67 231 -67q130 0 230 68zM1022 838v-174h-463v174h463z" />
    <glyph glyph-name="uni03A9" unicode="&#x3a9;" horiz-adv-x="1857" 
d="M1726 264v-264h-686v272q168 68 260 209q91 139 91 307q0 129 -60 231q-62 102 -166 158q-107 56 -235 56q-129 0 -233 -56q-105 -57 -165 -158q-61 -100 -61 -233q0 -173 92 -312q91 -137 258 -202v-272h-688v264h285q-121 109 -187 251q-67 141 -67 308q0 196 97 357
q98 162 273 256t400 94q224 0 400 -95q174 -95 271 -257q95 -163 95 -355q0 -167 -67 -308q-66 -139 -193 -251h286z" />
    <glyph glyph-name="uni03BC" unicode="&#x3bc;" horiz-adv-x="1239" 
d="M720 7q-76 -38 -167 -38q-118 0 -195 68v-438h-227v1415h242v-615q0 -118 55 -177t164 -58q100 0 158 66q57 64 57 176v608h244v-1014h-224v115q-31 -70 -107 -108z" />
    <glyph glyph-name="pi" unicode="&#x3c0;" horiz-adv-x="1251" 
d="M1010 -14q-127 0 -199 69q-72 67 -72 203v547h-256v-805h-241v805h-148v209h1075v-209h-184v-496q0 -61 29 -82q28 -22 82 -22q42 0 78 10v-207q-60 -22 -164 -22z" />
    <glyph glyph-name="uni04D9" unicode="&#x4d9;" horiz-adv-x="1079" 
d="M770 946q106 -64 165 -183q58 -117 58 -274t-58 -273q-59 -119 -164 -183q-107 -66 -247 -66q-135 0 -234 60q-99 58 -154 167q-54 106 -54 246q0 72 12 133h662q-4 109 -68 173q-64 63 -172 63q-89 0 -154 -44q-66 -44 -88 -114l-190 70q39 129 158 209t278 80
q143 0 250 -64zM692 228q58 61 64 165h-430q0 -106 54 -166q54 -61 152 -61q101 0 160 62z" />
    <glyph glyph-name="uni0E3F" unicode="&#xe3f;" horiz-adv-x="1171" 
d="M1047 403q0 -118 -55 -209q-56 -92 -160 -143q-105 -51 -246 -51h-43l-33 -231h-109l33 231h-354l184 1300h352l29 197h107l-27 -197q175 -1 273 -86q96 -84 96 -235q0 -112 -49 -192q-49 -82 -138 -130q140 -78 140 -254zM403 745h136l49 345h-133zM694 1090l-47 -345h6
q93 0 151 56q56 56 56 141q0 70 -43 109t-117 39h-6zM463 211l49 342h-135l-47 -342h133zM751 267q56 56 56 139q0 72 -41 110q-40 37 -115 37h-30l-50 -342h29q93 0 151 56z" />
    <glyph glyph-name="Wgrave" unicode="&#x1e80;" horiz-adv-x="2043" 
d="M1055 1612l-240 293h242l178 -293h-180zM457 1497l82 -1065l481 1065h256l180 -1063l397 1063h289l-594 -1497h-268l-193 1069l-493 -1069h-254l-160 1497h277z" />
    <glyph glyph-name="wgrave" unicode="&#x1e81;" horiz-adv-x="1585" 
d="M778 1118l-239 293h241l178 -293h-180zM362 1012l99 -654q18 39 78 181l34 84l168 389h240l102 -654l52 129q23 51 36 88l189 437h258l-449 -1012h-249l-107 664q-49 -125 -137 -318l-154 -346h-241l-170 1012h251z" />
    <glyph glyph-name="Wacute" unicode="&#x1e82;" horiz-adv-x="2043" 
d="M1260 1890h229l-248 -293h-182zM457 1497l82 -1065l481 1065h256l180 -1063l397 1063h289l-594 -1497h-268l-193 1069l-493 -1069h-254l-160 1497h277z" />
    <glyph glyph-name="wacute" unicode="&#x1e83;" horiz-adv-x="1585" 
d="M983 1397h229l-247 -293h-183zM362 1012l99 -654q18 39 78 181l34 84l168 389h240l102 -654l52 129q23 51 36 88l189 437h258l-449 -1012h-249l-107 664q-49 -125 -137 -318l-154 -346h-241l-170 1012h251z" />
    <glyph glyph-name="Wdieresis" unicode="&#x1e84;" horiz-adv-x="2043" 
d="M869 1654q-38 38 -38 97q0 57 45 100q43 43 107 43q59 0 96 -36q37 -37 37 -95q0 -61 -43 -104t-108 -43q-58 0 -96 38zM1268 1654q-37 37 -37 97q0 57 43 100t108 43q57 0 96 -36q38 -38 38 -95q0 -61 -43 -104t-109 -43q-58 0 -96 38zM457 1497l82 -1065l481 1065h256
l180 -1063l397 1063h289l-594 -1497h-268l-193 1069l-493 -1069h-254l-160 1497h277z" />
    <glyph glyph-name="wdieresis" unicode="&#x1e85;" horiz-adv-x="1585" 
d="M593 1160q-38 38 -38 97q0 57 44 101q43 43 108 43q59 0 96 -37t37 -94q0 -61 -43 -104q-44 -44 -109 -44q-57 0 -95 38zM991 1160q-37 37 -37 97q0 58 43 101t109 43q58 0 95 -37q38 -38 38 -94q0 -61 -43 -104q-44 -44 -109 -44q-58 0 -96 38zM362 1012l99 -654
q18 39 78 181l34 84l168 389h240l102 -654l52 129q23 51 36 88l189 437h258l-449 -1012h-249l-107 664q-49 -125 -137 -318l-154 -346h-241l-170 1012h251z" />
    <glyph glyph-name="Ygrave" unicode="&#x1ef2;" horiz-adv-x="1239" 
d="M670 1604l-240 292h242l178 -292h-180zM436 1497l146 -418l36 -108l39 -117q30 53 68 111l76 120l264 412h297l-606 -885l-84 -612h-256l84 612l-342 885h278z" />
    <glyph glyph-name="ygrave" unicode="&#x1ef3;" horiz-adv-x="1052" 
d="M510 1118l-240 293h242l178 -293h-180zM1100 1012l-678 -1446h-246l219 475l-305 971h252l197 -662l305 662h256z" />
    <glyph glyph-name="endash" unicode="&#x2013;" horiz-adv-x="1533" 
d="M1448 467l-1370 -2l28 221l1371 2z" />
    <glyph glyph-name="emdash" unicode="&#x2014;" horiz-adv-x="2023" 
d="M1935 467l-1855 -2l26 221l1860 2z" />
    <glyph glyph-name="quoteleft" unicode="&#x2018;" horiz-adv-x="563" 
d="M511 1202q26 -35 26 -84q0 -78 -51 -128q-53 -50 -130 -50q-75 0 -121 46q-47 47 -47 112q0 43 21 82q19 38 59 84l238 272l88 -59l-156 -228q47 -12 73 -47z" />
    <glyph glyph-name="quoteright" unicode="&#x2019;" horiz-adv-x="563" 
d="M534 1486q46 -46 46 -114q0 -41 -20 -79q-23 -41 -60 -85l-236 -272l-90 61l154 224q-45 13 -71 49q-26 35 -26 84q0 79 52 128q52 50 129 50q76 0 122 -46z" />
    <glyph glyph-name="quotesinglbase" unicode="&#x201a;" horiz-adv-x="565" 
d="M364 261q46 -46 46 -116q0 -79 -72 -161l-248 -273l-86 60l148 215q-43 18 -67 57t-24 88q0 77 52 126q52 50 129 50q76 0 122 -46z" />
    <glyph glyph-name="quotedblleft" unicode="&#x201c;" horiz-adv-x="1001" 
d="M592 1454l-158 -227q47 -12 74 -47q27 -34 27 -84q0 -78 -51 -128q-53 -50 -130 -50t-123 46q-47 47 -47 111q0 42 20 82q20 39 60 84l240 272zM947 1180q26 -35 26 -84q0 -78 -51 -128q-53 -50 -131 -50q-75 0 -121 46q-47 47 -47 111q0 42 20 82q21 42 59 84l240 272
l88 -59l-156 -227q47 -14 73 -47z" />
    <glyph glyph-name="quotedblright" unicode="&#x201d;" horiz-adv-x="1001" 
d="M535 1488q47 -47 47 -112q0 -40 -20 -80q-21 -39 -60 -84l-238 -274l-90 61l156 226q-46 13 -72 48q-25 34 -25 83q0 80 51 129q49 49 128 49q76 0 123 -46zM973 1488q47 -47 47 -112q0 -42 -19 -80t-59 -84l-240 -274l-90 61l158 226q-47 12 -73 47q-27 34 -27 84
q0 80 51 129q50 49 131 49q75 0 121 -46z" />
    <glyph glyph-name="quotedblbase" unicode="&#x201e;" horiz-adv-x="1009" 
d="M364 261q46 -46 46 -116q0 -79 -72 -161l-248 -273l-86 60l148 215q-43 18 -67 57t-24 88q0 77 52 126q52 50 129 50q76 0 122 -46zM810 261q46 -46 46 -116q0 -79 -72 -161l-247 -273l-86 60l147 215q-43 18 -67 57q-24 40 -23 88q0 77 51 126q52 50 129 50
q76 0 122 -46z" />
    <glyph glyph-name="dagger" unicode="&#x2020;" horiz-adv-x="755" 
d="M557 621h-158v534h-215v143h215v199h158v-199h213v-143h-213v-534z" />
    <glyph glyph-name="daggerdbl" unicode="&#x2021;" horiz-adv-x="741" 
d="M156 961h215v194h-215v143h215v199h155v-199h215v-143h-215v-194h215v-142h-215v-198h-155v198h-215v142z" />
    <glyph glyph-name="bullet" unicode="&#x2022;" horiz-adv-x="798" 
d="M232 248q-69 40 -106 106q-38 67 -38 148q0 88 45 165q45 76 122 123q76 46 169 46q128 0 210 -85q83 -86 83 -210q0 -91 -45 -167q-46 -78 -122 -121q-77 -44 -167 -44q-83 0 -151 39z" />
    <glyph glyph-name="ellipsis" unicode="&#x2026;" horiz-adv-x="1544" 
d="M57 16q-45 45 -45 117q0 78 54 128q53 50 129 50q69 0 116 -47q45 -46 45 -117q0 -76 -53 -126t-129 -50q-72 0 -117 45zM592 16q-45 45 -45 117q0 78 53 128t129 50q72 0 117 -47q45 -46 45 -117q0 -77 -52 -126q-53 -50 -128 -50q-74 0 -119 45zM1130 17
q-47 47 -47 116q0 79 55 128q55 50 130 50q70 0 115 -47q44 -47 44 -117q0 -77 -52 -126q-53 -50 -130 -50q-69 0 -115 46z" />
    <glyph glyph-name="perthousand" unicode="&#x2030;" horiz-adv-x="2201" 
d="M251 884q-75 92 -75 238q0 108 41 199q40 89 115 144q74 53 168 53q124 0 197 -90q73 -91 73 -238q0 -107 -40 -197q-41 -93 -113 -146q-73 -54 -168 -54q-123 0 -198 91zM125 98l1231 1399l117 -96l-1231 -1401zM556 1027q38 64 38 159q0 80 -27 121q-29 41 -75 41
q-63 0 -101 -65q-39 -66 -39 -159q0 -79 28 -119q28 -42 75 -42q64 0 101 64zM900 72q-75 90 -75 237q0 108 41 199q40 88 115 145q73 54 168 54q123 0 198 -90q74 -92 74 -238q0 -104 -41 -197q-41 -92 -113 -146q-73 -54 -167 -54q-125 0 -200 90zM1575 72q-74 91 -74 237
q0 108 41 199q40 89 114 145q74 54 167 54q123 0 199 -90q75 -92 75 -238q0 -104 -41 -197q-41 -92 -114 -146q-74 -54 -168 -54q-126 0 -199 90zM1206 216q39 63 39 159q0 80 -27 121q-29 41 -75 41q-66 0 -102 -64q-37 -64 -37 -160q0 -79 27 -119q25 -42 73 -42
q63 0 102 64zM1880 216q39 63 39 159q0 80 -27 121q-29 41 -75 41q-63 0 -101 -65q-39 -66 -39 -159q0 -79 27 -119q27 -42 74 -42q63 0 102 64z" />
    <glyph glyph-name="guilsinglleft" unicode="&#x2039;" horiz-adv-x="770" 
d="M475 1012h299l-409 -494l278 -463h-287l-280 477z" />
    <glyph glyph-name="guilsinglright" unicode="&#x203a;" horiz-adv-x="768" 
d="M412 549l-277 463h285l280 -477l-397 -480h-301z" />
    <glyph glyph-name="fraction" unicode="&#x2044;" horiz-adv-x="430" 
d="M-190 0h-170l985 1454h168z" />
    <glyph glyph-name="uni2070" unicode="&#x2070;" horiz-adv-x="1087" 
d="M240 1327q65 140 179 223q113 82 255 82q122 0 213 -60q93 -61 142 -173q50 -114 50 -266q0 -173 -64 -314q-64 -140 -178 -222q-114 -81 -255 -81q-121 0 -213 59q-91 59 -144 171q-51 113 -51 266q0 174 66 315zM444 794q51 -75 144 -75q124 0 198 123q74 124 74 299
q0 141 -51 214q-51 74 -143 72q-125 0 -199 -122q-74 -124 -74 -297q0 -139 51 -214z" />
    <glyph glyph-name="uni2074" unicode="&#x2074;" horiz-adv-x="1040" 
d="M152 918l466 690h244l-479 -693h272l47 345h203l-47 -345h150l-29 -194h-150l-24 -189h-203l27 189l-504 2z" />
    <glyph glyph-name="uni2075" unicode="&#x2075;" horiz-adv-x="952" 
d="M489 1415l-51 -168q62 33 150 33q150 0 240 -94q90 -93 92 -252q0 -122 -55 -216q-54 -95 -150 -149q-97 -53 -219 -53q-166 0 -260 97q-94 96 -86 251l204 27q-2 -10 -2 -27q0 -66 41 -105q40 -40 111 -40q85 0 140 58q56 59 56 147q0 77 -43 123q-44 47 -114 47
q-54 0 -100 -28t-70 -73h-207l172 617h608l-26 -195h-431z" />
    <glyph glyph-name="uni2076" unicode="&#x2076;" horiz-adv-x="964" 
d="M757 1229q74 -38 123 -115q50 -79 50 -192q0 -122 -59 -214q-58 -90 -154 -140q-96 -48 -207 -48q-153 0 -257 93q-103 93 -103 261q0 85 35 167q36 81 122 182l338 391h270l-301 -348h4q66 0 139 -37zM657 780q53 57 54 144q0 76 -42 119q-42 44 -112 44q-83 0 -135 -57
q-53 -58 -53 -143q0 -77 42 -120q42 -44 113 -44q80 0 133 57z" />
    <glyph glyph-name="uni2077" unicode="&#x2077;" horiz-adv-x="907" 
d="M973 1608l-27 -187l-577 -889h-252l579 881h-467l27 195h717z" />
    <glyph glyph-name="uni2078" unicode="&#x2078;" horiz-adv-x="968" 
d="M915 1190q-46 -71 -118 -103q60 -29 94 -90q35 -62 35 -139q0 -100 -57 -179q-55 -79 -154 -123t-219 -44q-162 0 -260 80t-99 213q0 104 58 186q57 83 147 117q-98 63 -98 195q0 89 50 165q49 75 138 119q87 43 197 43q149 0 241 -80q91 -79 93 -202q-2 -86 -48 -158z
M710 1397q-38 32 -98 30q-68 0 -111 -37q-45 -38 -46 -96q0 -53 37 -86q38 -33 96 -32q70 0 114 38q44 39 46 101q0 50 -38 82zM656 759q54 47 57 113q0 63 -45 103q-45 39 -125 39q-83 0 -139 -44q-55 -44 -56 -114q0 -66 45 -104q45 -39 123 -39q87 0 140 46z" />
    <glyph glyph-name="uni2079" unicode="&#x2079;" horiz-adv-x="966" 
d="M878 1538q103 -91 103 -260q0 -88 -36 -169t-122 -179l-338 -393h-270l301 348h-6q-67 0 -137 37q-73 38 -122 114q-50 79 -50 193q0 123 58 214t154 139q95 48 208 48q153 0 257 -92zM709 1121q53 56 53 143q0 76 -42 119q-42 44 -114 44q-82 0 -135 -56t-53 -144
q0 -76 43 -119t112 -43q83 0 136 56z" />
    <glyph glyph-name="uni2080" unicode="&#x2080;" horiz-adv-x="1087" 
d="M136 588q64 140 179 223q112 82 254 82q121 0 213 -60q93 -62 143 -173q50 -114 50 -267q0 -173 -64 -313t-179 -222q-114 -81 -255 -81q-121 0 -213 59q-93 61 -143 172q-51 111 -51 264q0 174 66 316zM340 55q51 -75 143 -75q126 0 199 123q74 122 74 298
q0 141 -51 214q-52 73 -144 73q-125 0 -198 -123q-74 -124 -74 -297q0 -140 51 -213z" />
    <glyph glyph-name="uni2081" unicode="&#x2081;" horiz-adv-x="618" 
d="M578 870l-150 -1075h-199l105 746h-234l19 143q118 0 179 47q60 47 83 139h197z" />
    <glyph glyph-name="uni2082" unicode="&#x2082;" horiz-adv-x="925" 
d="M385 -6h379l-29 -199h-694l25 170l426 397q63 58 90 108q26 49 26 97q0 65 -39 100q-39 33 -100 33q-82 0 -126 -56q-45 -57 -46 -144l-197 22q1 99 49 186q47 86 134 136q89 51 206 51q150 0 239 -83t89 -218q0 -114 -50 -200q-49 -84 -134 -165z" />
    <glyph glyph-name="uni2083" unicode="&#x2083;" horiz-adv-x="935" 
d="M811 694l-252 -229q105 -17 170 -97q66 -81 66 -204q0 -111 -52 -199t-146 -138t-210 -50q-159 0 -256 87t-96 226l203 43q-6 -70 38 -111q44 -42 117 -42q82 0 134 52q51 52 51 130q0 72 -45 115q-47 42 -117 42q-44 0 -88 -18l-39 166l229 207l-379 2l29 194h670z" />
    <glyph glyph-name="uni2084" unicode="&#x2084;" horiz-adv-x="1040" 
d="M47 180l467 690h244l-479 -692h272l47 344h203l-47 -344h149l-29 -194h-149l-25 -189h-202l26 189l-504 2z" />
    <glyph glyph-name="uni2085" unicode="&#x2085;" horiz-adv-x="952" 
d="M385 676l-51 -168q62 33 149 33q150 0 241 -94t91 -252q0 -121 -54 -217q-55 -96 -150 -148q-98 -53 -220 -53q-166 0 -260 97q-94 96 -86 251l205 27q-2 -10 -2 -27q0 -66 41 -105q40 -40 110 -40q84 0 141 58q56 59 56 146q0 77 -43 123q-44 47 -115 47q-52 0 -99 -27
q-45 -28 -71 -73h-207l172 616h609l-27 -194h-430z" />
    <glyph glyph-name="uni2086" unicode="&#x2086;" horiz-adv-x="964" 
d="M653 486q73 -38 122 -115q50 -79 50 -193q0 -123 -58 -214t-154 -139q-97 -48 -207 -48q-154 0 -257 93q-104 93 -104 261q0 86 36 167q35 79 122 181l338 391h270l-301 -348h4q66 0 139 -36zM553 37q53 58 53 143q0 76 -42 120t-111 44q-83 0 -135 -57q-54 -59 -54 -144
q0 -75 42 -119q41 -44 114 -44q80 0 133 57z" />
    <glyph glyph-name="uni2087" unicode="&#x2087;" horiz-adv-x="907" 
d="M868 870l-26 -186l-578 -889h-252l580 881h-467l27 194h716z" />
    <glyph glyph-name="uni2088" unicode="&#x2088;" horiz-adv-x="968" 
d="M813 455q-46 -71 -119 -103q60 -29 94 -90q35 -62 35 -139q0 -99 -56 -179q-55 -79 -154 -123q-100 -44 -220 -44q-162 0 -260 80t-98 213q0 104 58 186q57 82 147 117q-97 63 -99 194q0 89 51 166q49 75 138 119q87 43 196 43q150 0 242 -80t92 -203q0 -86 -47 -157z
M607 662q-38 30 -97 30q-68 0 -112 -38q-45 -38 -46 -95q0 -53 37 -86t96 -33q70 0 115 39t45 101q0 50 -38 82zM554 24q55 47 56 113q0 63 -45 103q-45 39 -125 39q-83 0 -138 -44q-55 -45 -56 -114q0 -66 45 -105t123 -39q87 0 140 47z" />
    <glyph glyph-name="uni2089" unicode="&#x2089;" horiz-adv-x="966" 
d="M774 797q103 -91 103 -260q0 -88 -36 -169q-35 -80 -122 -180l-338 -393h-270l301 348h-6q-67 0 -137 37q-73 38 -122 115q-51 78 -51 192q0 123 59 215q58 91 153 139t208 48q154 0 258 -92zM604 380q53 56 53 142q0 76 -42 120t-113 44q-82 0 -135 -56
q-54 -57 -54 -145q0 -76 43 -118q43 -43 113 -43q82 0 135 56z" />
    <glyph glyph-name="uni20A9" unicode="&#x20a9;" horiz-adv-x="1861" 
d="M1624 815h170l-18 -121h-191l-227 -694h-279l-43 694h-157l-238 -694h-281l-30 694h-193l17 121h172l-31 682h256l10 -682h158l231 682h226l38 -682h158l205 682h270zM1028 815l-16 264l-90 -264h106zM676 694h-113l4 -321zM1337 694h-114l18 -319z" />
    <glyph glyph-name="Euro" unicode="&#x20ac;" horiz-adv-x="1300" 
d="M880 214q75 37 128 97l153 -135q-86 -102 -205 -155q-120 -54 -262 -54q-236 0 -367 147q-131 145 -151 427h-113l23 164h88q5 86 10 118h-86l27 166h92q73 257 246 399q172 142 405 142q147 0 264 -57q117 -59 171 -154l-173 -135q-82 135 -258 135q-154 0 -257 -88
q-104 -89 -156 -242h481l-39 -166h-481q-10 -58 -12 -118h462l-39 -164h-421q13 -187 91 -275q76 -88 214 -88q90 0 165 36z" />
    <glyph glyph-name="uni20B9" unicode="&#x20b9;" horiz-adv-x="1306" 
d="M975 1311q59 -89 69 -211h250l-26 -187h-238q-46 -182 -199 -290q-154 -107 -378 -107h-64l399 -516h-305l-395 516l27 186h303q137 0 229 56q93 57 127 155h-624l24 187h612q-18 102 -94 157q-76 54 -180 54h-309l24 186h1125l-27 -186h-350z" />
    <glyph glyph-name="uni20BA" unicode="&#x20ba;" horiz-adv-x="1204" 
d="M982 299q-107 -146 -282 -226q-173 -79 -395 -79q-83 0 -133 6l100 713l-196 -68l22 146l195 67l14 107l-194 -68l20 147l195 66l55 387h242l-41 -299l344 117l-21 -146l-346 -118l-14 -107l342 117l-19 -146l-344 -116l-80 -551q179 12 295 120q115 106 138 279h235
q-24 -201 -132 -348z" />
    <glyph glyph-name="uni20BD" unicode="&#x20bd;" horiz-adv-x="1370" 
d="M72 422h131l14 121h-129l31 217h129l104 737h539q135 0 239 -54q102 -53 161 -154q57 -100 57 -232q0 -151 -70 -266q-71 -118 -197 -182q-127 -66 -297 -66h-319l-14 -121h378l-26 -186h-381l-33 -236h-248l33 236h-129zM778 760q142 0 225 79q84 79 84 203
q0 104 -64 164t-173 60h-281l-71 -506h280z" />
    <glyph glyph-name="uni2113" unicode="&#x2113;" horiz-adv-x="1159" 
d="M760 206q52 47 71 113l197 -57q-41 -131 -150 -212q-110 -81 -245 -81q-121 0 -209 66q-87 63 -137 190q-119 -29 -228 -28v186q94 0 179 25q-15 97 -17 217q0 241 69 450q67 206 190 332q122 125 272 125q137 0 216 -100t79 -273q0 -175 -75 -345q-75 -169 -207 -304
t-298 -217q49 -133 170 -133q73 0 123 46zM428 487q185 107 300 292q116 187 116 397q0 172 -107 172q-80 0 -152 -92q-74 -93 -117 -262q-44 -171 -44 -386q0 -56 4 -121z" />
    <glyph glyph-name="uni2116" unicode="&#x2116;" horiz-adv-x="2633" 
d="M1606 1232q64 132 186 210t279 78q140 0 247 -61q107 -62 166 -175q58 -112 58 -260q0 -156 -66 -289t-186 -211q-122 -78 -279 -78q-140 0 -247 62q-106 62 -165 174q-59 113 -59 260q0 158 66 290zM332 1497h248l501 -1071l150 1071h248l-211 -1497h-248l-500 1071
l-151 -1071h-248zM1850 740q61 -76 165 -76q81 0 146 47q63 47 98 128q35 82 35 179q0 134 -61 210q-62 77 -167 77q-80 0 -143 -48q-64 -50 -99 -131q-36 -82 -36 -180q0 -130 62 -206zM2249 0h-631l20 221h633z" />
    <glyph glyph-name="trademark" unicode="&#x2122;" horiz-adv-x="1460" 
d="M528 1356l-77 -565h-164l78 565h-189l21 141h544l-20 -141h-193zM1526 1497l-101 -706h-145l39 264q14 120 24 157l-210 -413h-121l-101 413q0 -39 -14 -157l-37 -264h-145l100 706h160l115 -539l268 539h168z" />
    <glyph glyph-name="estimated" unicode="&#x212e;" horiz-adv-x="1665" 
d="M241 1162q92 177 254 277q162 99 371 99q210 0 370 -85q162 -86 251 -247q90 -162 90 -381q2 -22 2 -57t-2 -57h-1210v-392q89 -122 221 -186q135 -65 305 -65q166 0 305 79q138 77 211 209l82 -32q-79 -159 -240 -251q-160 -91 -364 -91q-218 0 -385 97
q-169 98 -260 273q-92 176 -92 404q0 230 91 406zM367 791h995v434q-82 109 -207 169t-274 60q-163 0 -297 -71q-133 -72 -217 -199v-393z" />
    <glyph glyph-name="oneeighth" unicode="&#x215b;" horiz-adv-x="1990" 
d="M414 1167h-203l16 123q103 0 156 42q51 42 72 122h170l-133 -946h-170zM1470 1454l-983 -1454h-170l986 1454h167zM1754 429q32 -55 32 -128q0 -141 -106 -229t-275 -88q-142 0 -231 71t-89 187q0 88 49 161q48 72 123 105q-39 20 -62 62q-24 42 -24 102q0 82 46 149
q45 66 126 105q79 39 181 39q130 0 206 -64t76 -170q0 -78 -38 -137q-40 -60 -103 -88q57 -23 89 -77zM1582 601q40 36 40 89q0 47 -33 74t-84 27q-62 0 -102 -35q-39 -34 -39 -90q0 -47 33 -74t84 -27q61 0 101 36zM1550 201q49 40 49 104q0 55 -39 88q-40 33 -108 33
q-76 0 -126 -42t-50 -105q0 -56 40 -87q41 -32 107 -32q77 0 127 41z" />
    <glyph glyph-name="threeeighths" unicode="&#x215c;" horiz-adv-x="2129" 
d="M831 664q-49 -82 -136 -127t-197 -45q-134 0 -213 76q-80 76 -76 200l178 37q-6 -64 31 -101q38 -38 102 -38q76 0 123 47t47 123q0 61 -37 97q-38 37 -98 38q-46 0 -86 -17l-35 144l197 184l-328 2l25 170h587l-22 -154l-225 -202q98 -14 155 -80q56 -67 56 -168
q0 -105 -48 -186zM1661 1454l-983 -1454h-170l985 1454h168zM1894 429q31 -53 31 -128q0 -141 -106 -229t-275 -88q-142 0 -231 71q-88 70 -88 187q0 87 48 161q48 72 124 105q-39 20 -62 62q-24 42 -24 102q0 81 45 149q45 66 126 105t181 39q130 0 206 -64q77 -65 77 -170
q0 -79 -39 -137q-40 -60 -103 -88q58 -22 90 -77zM1721 601q40 36 40 89q0 47 -32 74q-33 27 -84 27q-62 0 -102 -35q-40 -34 -40 -90q0 -47 33 -74t84 -27q60 0 101 36zM1690 201q49 40 49 104q0 55 -40 88q-41 33 -108 33q-77 0 -126 -42q-50 -42 -50 -105q0 -56 40 -87
q41 -32 108 -32q77 0 127 41z" />
    <glyph glyph-name="fiveeighths" unicode="&#x215d;" horiz-adv-x="2158" 
d="M1920 429q32 -55 32 -128q0 -140 -107 -229q-106 -88 -274 -88q-144 0 -232 70t-88 188q0 88 48 160q48 73 124 106q-39 20 -62 62q-24 42 -24 102q0 82 45 148q45 67 126 106t182 39q128 0 205 -65t77 -169q0 -79 -39 -137q-40 -60 -102 -88q57 -23 89 -77zM1748 601
q40 36 40 89q0 47 -33 74t-84 27q-62 0 -102 -35q-39 -34 -39 -90q0 -47 33 -74t84 -27q61 0 101 36zM1716 201q49 40 49 104q0 55 -40 88q-41 33 -107 33q-76 0 -126 -42t-50 -105q0 -55 40 -88q42 -32 107 -31q77 0 127 41zM713 0h-170l985 1454h168zM805 1083
q82 -78 82 -213q0 -106 -48 -192q-49 -87 -136 -136q-88 -50 -199 -50q-150 0 -232 82t-71 221l182 26q-2 -10 -2 -26q0 -59 36 -95q37 -35 97 -34q76 0 127 53t51 133q0 66 -39 106q-39 41 -102 41q-50 0 -90 -22q-41 -23 -64 -64h-182l150 541h540l-24 -170h-379l-45 -151
q54 29 135 28q130 0 213 -78z" />
    <glyph glyph-name="seveneighths" unicode="&#x215e;" horiz-adv-x="1918" 
d="M207 508l510 776h-414l25 170h626l-22 -162l-508 -784h-217zM1430 1454l-984 -1454h-170l986 1454h168zM1681 429q31 -53 31 -128q0 -141 -106 -229t-275 -88q-142 0 -231 71q-88 70 -88 187q0 87 48 161q48 72 124 105q-39 20 -62 62q-24 42 -24 102q0 81 45 149
q45 66 126 105t181 39q130 0 206 -64q77 -65 77 -170q0 -79 -39 -137q-40 -60 -103 -88q58 -22 90 -77zM1508 601q40 36 40 89q0 47 -32 74q-33 27 -84 27q-62 0 -102 -35q-40 -34 -40 -90q0 -47 33 -74t84 -27q61 0 101 36zM1477 201q49 40 49 104q0 55 -40 88t-108 33
q-76 0 -126 -42t-50 -105q0 -56 40 -87q41 -32 108 -32q77 0 127 41z" />
    <glyph glyph-name="arrowleft" unicode="&#x2190;" horiz-adv-x="2058" 
d="M930 94l-94 -94l-625 629l625 626l92 -92l-469 -471h1417v-129h-1417z" />
    <glyph glyph-name="arrowup" unicode="&#x2191;" horiz-adv-x="1507" 
d="M811 1540l627 -629l-92 -94l-472 469v-1286l-129 2v1284l-469 -467l-94 92z" />
    <glyph glyph-name="arrowright" unicode="&#x2192;" horiz-adv-x="2056" 
d="M217 563v129h1417l-469 471l92 92l625 -626l-625 -629l-94 94l471 469h-1417z" />
    <glyph glyph-name="arrowdown" unicode="&#x2193;" horiz-adv-x="1507" 
d="M227 670l471 -469v1294l129 2v-1296l469 469l95 -92l-627 -629l-629 629z" />
    <glyph glyph-name="uni2196" unicode="&#x2196;" horiz-adv-x="1572" 
d="M406 1358v-666h-132l2 887h885v-131h-665l950 -946l-92 -92z" />
    <glyph glyph-name="uni2197" unicode="&#x2197;" horiz-adv-x="1683" 
d="M68 96l1271 1272h-757v129h979v-975h-131v754l-1270 -1272z" />
    <glyph glyph-name="uni2198" unicode="&#x2198;" horiz-adv-x="1941" 
d="M766 131h756l-1272 1272l94 92l1268 -1274v758h131v-977l-977 -2v131z" />
    <glyph glyph-name="uni2199" unicode="&#x2199;" horiz-adv-x="1683" 
d="M193 2v977h131v-758l1267 1274l95 -92l-1272 -1272h755v-131z" />
    <glyph glyph-name="uni21A9" unicode="&#x21a9;" horiz-adv-x="1630" 
d="M1468 1086q107 -105 107 -281q0 -175 -108 -278q-109 -105 -291 -105h-705v-246l-383 311l383 310v-242h705q126 0 196 66q70 64 70 184q0 115 -72 184q-73 68 -194 68h-215v133h215q183 0 292 -104z" />
    <glyph glyph-name="uni21AA" unicode="&#x21aa;" horiz-adv-x="1722" 
d="M1243 176v246h-704q-181 0 -291 105q-109 103 -109 278q0 176 108 281q107 104 292 104h213v-133h-213q-124 0 -197 -68q-72 -69 -72 -184q0 -119 71 -184q71 -66 198 -66h704v242l383 -310z" />
    <glyph glyph-name="uni21AF" unicode="&#x21af;" horiz-adv-x="3246" 
d="M1595 543h467v-543h-166l-22 162h-14q0 -12 -27 -56q-27 -45 -93 -84q-67 -40 -181 -40q-124 0 -222 56t-155 172q-58 115 -58 286q0 177 67 295q65 117 175 176q110 57 233 57q163 0 291 -91q129 -91 160 -271h-227q-18 74 -74 118q-56 43 -145 43q-124 0 -189 -90
q-65 -91 -65 -229q0 -136 62 -230q61 -94 187 -94q87 0 151 47q62 47 77 121h-232v195zM2170 834q-34 34 -34 79t34 78t77 33q48 0 80 -31q32 -32 32 -80q0 -46 -32 -80q-33 -34 -80 -34q-42 0 -77 35zM2451 833q-34 33 -34 80q0 45 33 78q32 33 79 33q48 0 79 -31
q32 -32 32 -80q0 -47 -33 -80q-33 -34 -78 -34t-78 34zM2707 981v43h168v-43h-61v-176h-51v176h-56zM3049 1024h86v-219h-51v186l-28 -186h-72l-31 186v-186h-51v219h92l23 -180zM929 884q124 -127 124 -380q0 -250 -124 -377t-343 -127h-396v1012h396q218 0 343 -128z
M748 246q83 62 83 258q0 197 -83 259q-85 62 -162 62h-131q-31 1 -61 14q-28 11 -45 21q-19 12 -21 14l-17 -14l60 -63q30 -24 38 -57q7 -31 7 -56v-358q0 -34 -10 -58q-10 -26 -21 -39l-14 -18l-60 -61l17 -15q15 5 71 26q49 17 70 23h117q77 0 162 62zM2570 682
q50 0 70 -4v-182q-16 2 -35 2q-98 0 -156 -52q-59 -53 -59 -163v-283h-217v520q0 94 -14 158h219q7 -58 8 -84q46 88 184 88z" />
    <glyph glyph-name="partialdiff" unicode="&#x2202;" horiz-adv-x="1265" 
d="M1122 708q39 -94 39 -210q0 -155 -65 -274q-66 -119 -184 -183q-118 -66 -275 -66q-156 0 -275 66q-119 64 -186 184q-67 118 -67 275q0 152 59 272q59 118 168 182q107 64 248 64l49 -4l-336 483h311l391 -573q84 -123 123 -216zM826 297q71 77 71 207q0 126 -72 206
q-73 78 -192 78q-120 0 -190 -76q-72 -76 -72 -208q0 -128 73 -205q72 -78 191 -78t191 76z" />
    <glyph glyph-name="emptyset" unicode="&#x2205;" horiz-adv-x="1785" 
d="M1590 1091q85 -160 85 -348q0 -206 -100 -376q-101 -173 -272 -273q-173 -102 -375 -102q-151 0 -283 55l-90 -168h-197l136 250q-146 101 -232 264t-86 350q0 203 102 375q100 172 273 273q172 100 377 100q144 0 280 -53l90 166h195l-135 -248q147 -105 232 -265z
M460 511q53 -109 144 -179l492 901q-86 27 -168 27q-143 0 -262 -68t-188 -185q-70 -118 -70 -264q0 -127 52 -232zM1187 292q116 66 188 187q69 119 69 264q0 126 -52 231q-52 104 -145 177l-489 -901q86 -27 170 -27q140 0 259 69z" />
    <glyph glyph-name="product" unicode="&#x220f;" horiz-adv-x="1480" 
d="M1493 1286h-264l-219 -1558h-238l219 1558h-282l-220 -1558h-237l219 1558h-266l31 211l1288 2z" />
    <glyph glyph-name="minus" unicode="&#x2212;" horiz-adv-x="1144" 
d="M1038 684l-24 -182h-885l27 182h882z" />
    <glyph glyph-name="radical" unicode="&#x221a;" horiz-adv-x="1980" 
d="M2023 1499h-520l-844 -1649h-282l-268 916h282l164 -567l788 1550h715z" />
    <glyph glyph-name="infinity" unicode="&#x221e;" horiz-adv-x="2027" 
d="M348 192q-103 59 -158 162q-57 104 -57 234q0 131 57 236q56 104 159 164q103 59 231 59q143 0 250 -75q105 -74 194 -202q89 128 194 202q105 75 250 75q128 0 232 -59q102 -60 159 -164q56 -106 56 -236t-57 -233q-59 -105 -158 -163q-101 -59 -230 -59q-142 0 -249 74
q-106 73 -197 199q-92 -127 -196 -199q-107 -74 -250 -74q-129 0 -230 59zM744 428q73 53 151 160q-78 107 -150 161q-70 52 -153 52q-90 0 -147 -59q-58 -59 -58 -154q0 -94 58 -152q57 -59 147 -59q80 0 152 51zM1602 436q57 58 57 152t-57 154q-59 59 -148 59
q-82 0 -151 -51q-71 -52 -150 -162q82 -109 151 -160q68 -51 150 -51q89 0 148 59z" />
    <glyph glyph-name="integral" unicode="&#x222b;" horiz-adv-x="1142" 
d="M49 -8q43 -12 105 -12q96 0 143 45q47 46 65 135l218 1052q33 165 126 242q92 76 259 76q92 0 168 -19v-202q-45 12 -117 12q-95 0 -141 -41q-45 -39 -68 -145l-207 -1020q-38 -182 -129 -263t-250 -81q-76 0 -172 18v203z" />
    <glyph glyph-name="approxequal" unicode="&#x2248;" horiz-adv-x="1187" 
d="M1022 635q10 -154 -60 -223q-70 -70 -171 -70q-55 0 -109 17q-57 18 -129 49q-59 26 -93 36q-36 11 -65 11q-50 0 -69 -31q-21 -31 -15 -76h-137q-6 103 29 176h-29q-8 155 58 223q65 68 157 68q51 0 99 -16q50 -17 114 -45q53 -23 101 -40q39 -14 75 -14q55 0 82 30
t27 81h135q6 -103 -29 -176h29z" />
    <glyph glyph-name="notequal" unicode="&#x2260;" horiz-adv-x="1241" 
d="M782 682l-112 -199h407l-26 -188h-488l-80 -143h-184l80 143h-246l27 188h325l111 199h-410l27 188h487l80 142h187l-80 -142h243l-26 -188h-322z" />
    <glyph glyph-name="lessequal" unicode="&#x2264;" horiz-adv-x="1228" 
d="M180 633l31 217l930 340l-31 -221l-672 -228l609 -229l-33 -219zM92 0l29 205h883l-29 -205h-883z" />
    <glyph glyph-name="greaterequal" unicode="&#x2265;" horiz-adv-x="1261" 
d="M186 518l672 227l-608 236l31 209l835 -340l-31 -217l-929 -340zM143 205h883l-29 -205h-882z" />
    <glyph glyph-name="filledbox" unicode="&#x25a0;" horiz-adv-x="1953" 
d="M1765 1513v-1511h-1511v1511h1511z" />
    <glyph glyph-name="H22073" unicode="&#x25a1;" horiz-adv-x="1955" 
d="M1767 1513v-1513h-1513v1513h1513zM393 139h1237v1237h-1237v-1237z" />
    <glyph glyph-name="triagup" unicode="&#x25b2;" horiz-adv-x="2013" 
d="M1827 0h-1784l891 1475z" />
    <glyph glyph-name="uni25B3" unicode="&#x25b3;" horiz-adv-x="2004" 
d="M930 1468l889 -1468h-1776zM1632 106l-702 1158l-701 -1158h1403z" />
    <glyph glyph-name="lozenge" unicode="&#x25ca;" horiz-adv-x="1363" 
d="M150 752l454 761h217l463 -761l-463 -752h-217zM715 1389l-379 -637l379 -625l383 625z" />
    <glyph glyph-name="circle" unicode="&#x25cb;" horiz-adv-x="1804" 
d="M546 85q-180 106 -283 285q-105 178 -105 392q0 212 106 390q105 178 284 285q178 105 390 105q214 0 392 -105q178 -107 285 -285q105 -178 105 -390q0 -211 -105 -391q-106 -181 -285 -286q-178 -105 -392 -105t-392 105zM1262 206q147 87 234 235q87 147 87 321
q0 176 -87 324t-234 233q-149 86 -322 86q-175 0 -323 -86q-147 -85 -235 -233q-87 -148 -87 -324t87 -323q87 -149 235 -234q148 -86 323 -86q174 0 322 87z" />
    <glyph glyph-name="H18533" unicode="&#x25cf;" horiz-adv-x="1820" 
d="M552 78q-180 106 -287 289q-107 182 -107 397q0 212 107 394q106 181 287 287q182 105 396 105t396 -105q180 -107 286 -287q105 -182 105 -394q0 -216 -105 -397q-106 -183 -286 -289q-182 -107 -396 -107t-396 107z" />
    <glyph glyph-name="uni261E" unicode="&#x261e;" horiz-adv-x="2394" 
d="M2298 696q0 -56 -41 -91q-40 -34 -117 -34q-35 0 -95 12q-63 11 -140 27l-97 25q-40 12 -67 18q-32 7 -82 11q47 -58 47 -113q0 -37 -23 -72l-12 -16q-7 -8 -8 -14q-1 -7 0 -17q2 -7 18 -32q15 -27 15 -60q0 -59 -43 -93t-115 -34q-39 0 -72 9q-34 9 -90 30
q-62 25 -104 37q-128 43 -373 43q-111 0 -242 -10q-19 -1 -39.5 -2t-30.5 -2t-14 -1q-63 0 -131 27q-36 14 -53 14q-18 0 -28 -7q-15 -11 -25 -23q-27 -28 -52 -41q-28 -15 -87 -13v768l53 2q38 2 56 -4q22 -7 38 -16q34 -20 78 -20q19 0 41 2l57 6q244 27 356 37
q157 14 291 14q121 0 169 -13t94 -40q34 -23 61 -33q65 -24 215 -70q153 -48 254 -73q57 -18 109 -30q34 -9 124 -26l41 -8q64 -13 64 -74zM1454 502q8 0 14 8q5 8 0 20q-44 110 -88 184q-47 77 -87 121q-37 41 -119 123q-20 20 -13 37h-65q-175 0 -343 -19
q-161 -18 -366 -50q10 -86 10 -226l-2 -159q0 -67 45 -98q45 -33 127 -33q127 0 224 70q95 68 127 173q7 31 15 43q8 11 30 11q18 0 27 -12q9 -14 18 -40q17 -47 37 -69q21 -24 57 -37q41 -15 139 -45q11 -1 19 -11q6 -10 6 -20t-8 -18q-9 -9 -21 -9l-16 5q-2 0 -8 2.5
t-19.5 7t-26.5 9.5q-53 18 -86 19h-6q-33 0 -33 -20q0 -12 15 -27q49 -49 180 -49q60 0 99 17q38 17 38 61q0 15 -6 41q-18 57 -65 134q-51 84 -102 152q-52 69 -60 76q-6 10 -6 17q0 10 10 19q11 8 24 8q15 0 29 -15q111 -149 150 -217q48 -84 88 -170q6 -14 18 -14z
M1340 924q-40 45 -64 58q-25 13 -59 13q114 -99 179 -198q62 -94 124 -217q17 -42 24 -52q23 -38 53 -36q17 0 27 10t10 28q0 15 -8 33q-2 14 -50 76q-49 63 -103 127q-104 125 -133 158zM352 684q0 87 -4 150q-5 70 -12 92q-6 18 -19 18q-6 0 -10 -7t-4 -17q0 -167 1 -184
q1 -18 1 -29q4 -15 4 -224q0 -13 3 -19t10 -5q12 0 18 20q12 41 12 205zM2142 629q69 0 92 47q-39 4 -63 12q-21 6 -55 25q-54 32 -136 55q-36 10 -124.5 35t-140.5 39q-168 47 -226 61l-8 2q-23 0 -23 -20q0 -11 8 -21q18 -25 80 -66q59 -40 117 -67q33 -14 49 -14
q9 0 23 8q9 7 13 19t9 18t15 6q8 0 16 -5q9 -6 16 -15q67 -76 262 -111q53 -8 76 -8zM2186 723q20 -7 40 -11q23 -5 29 -3q-1 5 -28 13q-25 7 -44 7q-13 0 3 -6zM987 398q8 5 8 12q0 14 -24 28q-25 13 -58 13q-41 0 -98 -25q-23 -11 -22 -23q0 -4 7 -8t19 -4l144 2
q16 0 24 5zM1611 296q23 21 23 46q0 17 -10 27t-29 10q-32 0 -70 -28q-40 -28 -40 -46q0 -9 20 -20t43 -11q40 0 63 22z" />
    <glyph glyph-name="uni262A" unicode="&#x262a;" horiz-adv-x="1632" 
d="M259 341q-109 169 -109 409t109 409q107 167 281 253q171 85 363 85q179 0 335 -73q155 -73 251 -203q-159 59 -305 59q-163 0 -288 -67t-196 -189t-71 -274q0 -154 71 -276t196 -189q127 -68 288 -68q146 0 305 59q-94 -129 -251 -202q-159 -74 -335 -74q-189 0 -363 86
q-173 86 -281 255zM1151 827l82 246l82 -246h258l-209 -153l80 -250l-211 154l-213 -154l82 250l-211 153h260z" />
    <glyph glyph-name="uni262E" unicode="&#x262e;" horiz-adv-x="1746" 
d="M526 84q-175 103 -275 277q-101 175 -101 378t102 376q102 172 275 276q173 102 378 102q204 0 379 -101q173 -102 277 -276q102 -174 102 -377q0 -205 -102 -379q-104 -174 -277 -276q-174 -102 -379 -102t-379 102zM848 784v596q-163 -17 -296 -105q-135 -89 -211 -230
q-77 -143 -77 -306q0 -149 58 -272zM1552 739q0 165 -76 305q-77 141 -210 229q-134 89 -295 105v-594l522 -315q59 126 59 270zM848 643l-463 -287q82 -109 202 -178t261 -84v549zM1230 181q121 69 200 177l-459 285v-547q140 15 259 85z" />
    <glyph glyph-name="uni2639" unicode="&#x2639;" horiz-adv-x="1351" 
d="M963 1004q133 -78 211 -210q77 -133 77 -288t-77 -289q-77 -132 -211 -212q-133 -79 -289 -79t-288 78t-210 211q-78 134 -78 289q0 156 78 289t211 211q134 77 287 77q155 0 289 -77zM1106 345q29 78 29 161q0 124 -62 230q-63 104 -168 167q-107 62 -231 62
q-125 0 -229 -62q-106 -63 -167 -168q-63 -107 -63 -231q0 -168 111 -299q46 95 142 156q95 59 208 59q114 0 208 -58q96 -59 142 -155q52 63 80 138zM573 764q23 -40 23 -107q0 -65 -23 -106q-24 -41 -61 -41q-40 0 -62 40q-24 40 -24 107q0 65 24 106q22 40 62 40
q37 0 61 -39zM897 763q23 -41 23 -106t-23 -106t-61 -41q-37 0 -60 41q-24 41 -24 106q0 63 24 105q23 41 60 41q39 0 61 -40zM674 45q159 0 287 98q-43 73 -120 117q-76 43 -165 43q-91 0 -167 -43q-79 -45 -118 -119q127 -96 283 -96z" />
    <glyph glyph-name="smileface" unicode="&#x263a;" horiz-adv-x="1351" 
d="M386 4q-132 78 -210 211t-78 291q0 156 78 288t210 210q133 77 288 77q156 0 289 -76q132 -76 211 -209q77 -133 77 -290t-77 -291q-78 -133 -211 -211t-289 -78t-288 78zM907 107q107 62 167 167q61 104 61 232q0 124 -62 230q-63 104 -168 167q-107 62 -231 62
q-122 0 -228 -62q-106 -63 -168 -168q-63 -107 -63 -229q0 -124 62 -231t167 -168q106 -62 230 -62q126 0 233 62zM450 536q-22 38 -22 107q0 67 22 105q21 38 60 38t63 -38q23 -40 23 -105q0 -67 -23 -107q-24 -40 -63 -40t-60 40zM776 537q-24 41 -24 106q0 63 24 103
q22 40 62 40q37 0 61 -39q23 -41 23 -104q0 -66 -22 -106q-23 -41 -62 -41t-62 41zM375 459q39 -76 123 -124t178 -48q92 0 175 47q82 46 126 125l65 -51q-39 -104 -142 -171t-224 -67q-122 0 -223 67q-103 66 -144 171z" />
    <glyph glyph-name="invsmileface" unicode="&#x263b;" horiz-adv-x="1331" 
d="M380 16q-130 76 -206 206t-76 286q0 154 76 284q77 131 206 207q130 76 284 76q156 0 286 -76q130 -77 206 -207q77 -131 77 -284q0 -155 -77 -286q-76 -129 -207 -206q-129 -77 -285 -77q-155 0 -284 77zM565 536q21 39 21 105t-21 105q-23 38 -61 38t-60 -39
q-24 -41 -24 -104t24 -104q23 -41 60 -41q39 0 61 40zM886 537q23 41 23 104q0 62 -23 103q-24 40 -59 40q-39 0 -62 -39q-24 -41 -24 -104q0 -66 24 -105q22 -40 62 -40q35 0 59 41zM887 242q100 64 139 170l-61 49q-38 -75 -121 -122q-82 -46 -178 -46q-92 0 -174 46
q-83 47 -121 122l-64 -49q39 -104 141 -170q100 -66 218 -66q120 0 221 66z" />
    <glyph glyph-name="uni2713" unicode="&#x2713;" horiz-adv-x="1519" 
d="M1479 997l-916 -843l-454 514l174 157l297 -340l745 686z" />
    <glyph glyph-name="uni2764" unicode="&#x2764;" horiz-adv-x="1280" 
d="M539 208q-74 63 -181 132q-84 52 -127 87q-48 39 -76 95q-30 56 -30 135q0 91 39 161q39 71 107 110t149 39q88 0 150 -45q60 -44 92 -121q28 79 91 123q61 43 148 43q126 0 212 -86q85 -85 85 -224q0 -81 -30 -136q-33 -59 -77 -94q-47 -37 -126 -87q-109 -70 -180 -132
q-72 -63 -123 -165q-52 102 -123 165z" />
    <glyph glyph-name="uni2776" unicode="&#x2776;" horiz-adv-x="1763" 
d="M520 62q-178 102 -280 280q-103 178 -103 393q0 218 103 396q102 178 280 280t393 102t394 -102q177 -101 281 -280q102 -179 102 -396q0 -215 -102 -393q-104 -179 -281 -280q-178 -103 -394 -103q-215 0 -393 103zM1012 362v750h-125q-6 -61 -42 -94t-116 -33v-88h158
v-535h125z" />
    <glyph glyph-name="uni2777" unicode="&#x2777;" horiz-adv-x="1763" 
d="M520 62q-178 102 -280 280q-103 178 -103 393q0 218 103 396q102 178 280 280t393 102t394 -102q177 -101 281 -280q102 -179 102 -396q0 -215 -102 -393q-104 -179 -281 -280q-178 -103 -394 -103q-215 0 -393 103zM1161 356v123h-274l166 185q48 52 74 102
q26 52 26 121q0 105 -65 170q-66 63 -177 63q-115 0 -180 -63q-65 -65 -65 -162q0 -19 2 -33l123 -14q-1 7 -3 26q0 57 31 91t86 34q51 0 82 -30q31 -31 31 -84q0 -36 -13 -66t-51 -71l-264 -285v-109z" />
    <glyph glyph-name="uni2778" unicode="&#x2778;" horiz-adv-x="1763" 
d="M520 62q-178 102 -280 280q-103 178 -103 393q0 218 103 396q102 178 280 280t393 102t394 -102q177 -101 281 -280q102 -179 102 -396q0 -215 -102 -393q-104 -179 -281 -280q-178 -103 -394 -103q-215 0 -393 103zM1101 428q75 72 75 186q0 94 -52 158t-143 72l158 162
v112h-459v-123h278l-155 -159l39 -105q32 12 67 12q57 0 94 -34t37 -95q0 -56 -35 -94q-36 -37 -94 -37q-52 0 -89 32q-36 32 -38 85l-133 -29q11 -98 80 -156q71 -59 176 -59q119 0 194 72z" />
    <glyph glyph-name="uni2779" unicode="&#x2779;" horiz-adv-x="1763" 
d="M520 62q-178 102 -280 280q-103 178 -103 393q0 218 103 396q102 178 280 280t393 102t394 -102q177 -101 281 -280q102 -179 102 -396q0 -215 -102 -393q-104 -179 -281 -280q-178 -103 -394 -103q-215 0 -393 103zM1102 362v136h106v123h-106v247h-127v-247h-209
l270 491h-151l-267 -491v-121h357v-138h127z" />
    <glyph glyph-name="uni277A" unicode="&#x277a;" horiz-adv-x="1763" 
d="M520 62q-178 102 -280 280q-103 178 -103 393q0 218 103 396q102 178 280 280t393 102t394 -102q177 -101 281 -280q102 -179 102 -396q0 -215 -102 -393q-104 -179 -281 -280q-178 -103 -394 -103q-215 0 -393 103zM1106 429q72 73 72 194q0 118 -68 191q-68 71 -180 71
q-82 0 -127 -39l24 149h308v123h-422l-58 -426h133q14 36 48 55t75 19q59 0 95 -40t36 -105q0 -61 -36 -99q-38 -39 -93 -39q-59 0 -94 36q-35 37 -35 95l-133 -18q7 -109 80 -174q72 -66 184 -66q119 0 191 73z" />
    <glyph glyph-name="uni277B" unicode="&#x277b;" horiz-adv-x="1763" 
d="M520 62q-178 102 -280 280q-103 178 -103 393q0 218 103 396q102 178 280 280t393 102t394 -102q177 -101 281 -280q102 -179 102 -396q0 -215 -102 -393q-104 -179 -281 -280q-178 -103 -394 -103q-215 0 -393 103zM710 434q72 -72 191 -72q118 0 191 73t73 190
q0 109 -57 177q-58 69 -152 79q-15 4 -26 4q-12 0 -27 -4l178 243h-170l-192 -284q-42 -59 -62 -109q-20 -51 -20 -106q0 -119 73 -191zM809 728q35 38 92 38t93 -37q36 -38 36 -100q0 -63 -36 -101q-36 -39 -93 -39q-58 0 -92 37q-35 38 -35 101t35 101z" />
    <glyph glyph-name="uni277C" unicode="&#x277c;" horiz-adv-x="1763" 
d="M520 62q-178 102 -280 280q-103 178 -103 393q0 218 103 396q102 178 280 280t393 102t394 -102q177 -101 281 -280q102 -179 102 -396q0 -215 -102 -393q-104 -179 -281 -280q-178 -103 -394 -103q-215 0 -393 103zM858 362l318 629v119h-492v-123h336l-322 -625h160z
" />
    <glyph glyph-name="uni277D" unicode="&#x277d;" horiz-adv-x="1763" 
d="M520 62q-178 102 -280 280q-103 178 -103 393q0 218 103 396q102 178 280 280t393 102t394 -102q177 -101 281 -280q102 -179 102 -396q0 -215 -102 -393q-104 -179 -281 -280q-178 -103 -394 -103q-215 0 -393 103zM1111 419q75 61 75 165q0 66 -32 116t-85 70
q42 19 67 61q23 41 23 97q0 92 -67 150q-68 57 -179 57t-178 -58t-67 -151q0 -54 25 -94q25 -42 67 -62q-52 -19 -86 -70q-33 -51 -33 -116q0 -102 76 -165q77 -63 198 -63t196 63zM833 842q-30 26 -30 69q0 46 31 71q31 26 81 26q48 0 79 -26q30 -26 30 -71q0 -43 -30 -69
q-32 -27 -81 -27q-51 0 -80 27zM815 514q-37 31 -37 82q0 52 38 84q37 31 99 31q61 0 99 -32q37 -31 37 -83q0 -50 -38 -82q-37 -31 -100 -31q-61 0 -98 31z" />
    <glyph glyph-name="uni277E" unicode="&#x277e;" horiz-adv-x="1763" 
d="M520 62q-178 102 -280 280q-103 178 -103 393q0 218 103 396q102 178 280 280t393 102t394 -102q177 -101 281 -280q102 -179 102 -396q0 -215 -102 -393q-104 -179 -281 -280q-178 -103 -394 -103q-215 0 -393 103zM915 362l193 285q42 55 64 107q20 51 20 106
q0 119 -72 191q-74 71 -192 71q-122 0 -192 -72q-72 -74 -72 -198q0 -110 66 -181q65 -71 173 -71q7 0 17 2l-175 -240h170zM834 757q-35 38 -35 101q0 61 35 99t92 38q60 0 94 -36q35 -38 35 -101q0 -61 -36 -100t-93 -39t-92 38z" />
    <glyph glyph-name="uni2780" unicode="&#x2780;" horiz-adv-x="1763" 
d="M1307 1411q177 -101 281 -280q102 -179 102 -396q0 -215 -102 -393q-104 -179 -281 -280q-178 -103 -394 -103q-215 0 -393 103q-178 102 -280 280q-103 178 -103 393q0 218 103 396q102 178 280 280t393 102t394 -102zM1246 169q148 86 230 234q83 149 83 332t-83 335
q-81 150 -230 236q-148 85 -333 85t-331 -85q-148 -85 -232 -235q-84 -151 -84 -336q0 -183 84 -331q84 -150 232 -235q146 -85 331 -85t333 85zM845 1018q36 33 42 94h125v-750h-125v535h-158v88q80 0 116 33z" />
    <glyph glyph-name="uni2781" unicode="&#x2781;" horiz-adv-x="1763" 
d="M1307 1411q177 -101 281 -280q102 -179 102 -396q0 -215 -102 -393q-104 -179 -281 -280q-178 -103 -394 -103q-215 0 -393 103q-178 102 -280 280q-103 178 -103 393q0 218 103 396q102 178 280 280t393 102t394 -102zM1246 169q148 86 230 234q83 149 83 332t-83 335
q-81 150 -230 236q-148 85 -333 85t-331 -85q-148 -85 -232 -235q-84 -151 -84 -336q0 -183 84 -331q84 -150 232 -235q146 -85 331 -85t333 85zM887 479h274v-123l-471 -2v109l264 285q38 40 51 72q13 29 13 65q0 53 -31 84q-31 30 -82 30q-55 0 -86 -33q-31 -34 -31 -92
q0 -18 3 -26l-123 14q-2 14 -2 33q0 97 66 162q64 63 179 63q111 0 177 -63q65 -65 65 -170q0 -69 -26 -121q-26 -50 -74 -102z" />
    <glyph glyph-name="uni2782" unicode="&#x2782;" horiz-adv-x="1763" 
d="M1307 1411q177 -101 281 -280q102 -179 102 -396q0 -215 -102 -393q-104 -179 -281 -280q-178 -103 -394 -103q-215 0 -393 103q-178 102 -280 280q-103 178 -103 393q0 218 103 396q102 178 280 280t393 102t394 -102zM1246 169q148 86 230 234q83 149 83 332t-83 335
q-81 150 -230 236q-148 85 -333 85t-331 -85q-148 -85 -232 -235q-84 -151 -84 -336q0 -183 84 -331q84 -150 232 -235q146 -85 331 -85t333 85zM1124 773q52 -64 52 -159q0 -116 -75 -186q-75 -72 -194 -72q-105 0 -175 59t-81 156l133 29q2 -53 38 -85q37 -32 89 -32
q57 0 93 37q36 38 36 94q0 60 -36 94q-38 35 -95 35q-37 0 -67 -12l-39 105l155 159h-278v123h459v-112l-158 -162q90 -8 143 -71z" />
    <glyph glyph-name="uni2783" unicode="&#x2783;" horiz-adv-x="1763" 
d="M520 62q-178 102 -280 280q-103 178 -103 393q0 218 103 396q102 178 280 280t393 102t394 -102q177 -101 281 -280q102 -179 102 -396q0 -215 -102 -393q-104 -179 -281 -280q-178 -103 -394 -103q-215 0 -393 103zM1246 169q148 86 230 234q83 149 83 332t-83 335
q-81 150 -230 236q-148 85 -333 85t-331 -85q-148 -85 -232 -235q-84 -151 -84 -336q0 -183 84 -331q84 -150 232 -235q146 -85 331 -85t333 85zM618 621l267 491h151l-270 -491h209v247h127v-247h106v-123h-106v-136h-127v138h-357v121z" />
    <glyph glyph-name="uni2784" unicode="&#x2784;" horiz-adv-x="1763" 
d="M1307 1411q177 -101 281 -280q102 -179 102 -396q0 -215 -102 -393q-104 -179 -281 -280q-178 -103 -394 -103q-215 0 -393 103q-178 102 -280 280q-103 178 -103 393q0 218 103 396q102 178 280 280t393 102t394 -102zM1246 169q148 86 230 234q83 149 83 332t-83 335
q-81 150 -230 236q-148 85 -333 85t-331 -85q-148 -85 -232 -235q-84 -151 -84 -336q0 -183 84 -331q84 -150 232 -235q146 -85 331 -85t333 85zM1110 813q68 -73 68 -190q0 -121 -72 -194t-191 -73q-113 0 -184 66q-73 65 -80 174l133 18q0 -58 35 -95q35 -36 94 -36
q54 0 92 38q37 37 37 100q0 65 -35 106q-36 39 -96 39q-42 0 -74 -19q-33 -19 -49 -55h-133l58 426h422v-123h-308l-24 -149q45 39 127 39q112 0 180 -72z" />
    <glyph glyph-name="uni2785" unicode="&#x2785;" horiz-adv-x="1763" 
d="M1307 1411q177 -101 281 -280q102 -179 102 -396q0 -215 -102 -393q-104 -179 -281 -280q-178 -103 -394 -103q-215 0 -393 103q-178 102 -280 280q-103 178 -103 393q0 218 103 396q102 178 280 280t393 102t394 -102zM1246 169q148 86 230 234q83 149 83 332t-83 335
q-81 150 -230 236q-148 85 -333 85t-331 -85q-148 -85 -232 -235q-84 -151 -84 -336q0 -183 84 -331q84 -150 232 -235q146 -85 331 -85t333 85zM1094 807q65 -73 65 -191t-72 -188q-73 -72 -192 -72t-191 72q-73 72 -73 190q0 56 20 105q21 50 62 111l194 282h166
l-172 -239q10 2 21 2q106 0 172 -72zM988 521q36 37 36 100t-35 101t-92 38q-59 0 -94 -39q-35 -40 -35 -100q0 -63 34 -100q35 -38 93 -38q57 0 93 38z" />
    <glyph glyph-name="uni2786" unicode="&#x2786;" horiz-adv-x="1763" 
d="M1307 1411q177 -101 281 -280q102 -179 102 -396q0 -215 -102 -393q-104 -179 -281 -280q-178 -103 -394 -103q-215 0 -393 103q-178 102 -280 280q-103 178 -103 393q0 218 103 396q102 178 280 280t393 102t394 -102zM1246 169q148 86 230 234q83 149 83 332t-83 335
q-81 150 -230 236q-148 85 -333 85t-331 -85q-148 -85 -232 -235q-84 -151 -84 -336q0 -183 84 -331q84 -150 232 -235q146 -85 331 -85t333 85zM672 1112h489v-119l-317 -631h-160l322 625h-334v125z" />
    <glyph glyph-name="uni2787" unicode="&#x2787;" horiz-adv-x="1763" 
d="M1307 1411q177 -101 281 -280q102 -179 102 -396q0 -215 -102 -393q-104 -179 -281 -280q-178 -103 -394 -103q-215 0 -393 103q-178 102 -280 280q-103 178 -103 393q0 218 103 396q102 178 280 280t393 102t394 -102zM1246 169q148 86 230 234q83 149 83 332t-83 335
q-81 150 -230 236q-148 85 -333 85t-331 -85q-148 -85 -232 -235q-84 -151 -84 -336q0 -183 84 -331q84 -150 232 -235q146 -85 331 -85t333 85zM1154 700q32 -52 32 -116q0 -102 -75 -165t-196 -63q-123 0 -198 63q-76 61 -76 165q0 66 33 116q34 51 86 70q-42 19 -67 61
q-25 40 -25 95q0 92 68 151q67 58 177 58q111 0 179 -57q67 -58 67 -150q0 -55 -23 -96q-25 -42 -67 -62q53 -20 85 -70zM834 982q-31 -25 -31 -71q0 -43 30 -69q29 -27 80 -27q49 0 80 27q31 25 31 69q0 45 -29 71q-31 26 -80 26q-50 0 -81 -26zM1013 514q38 32 38 82
q0 52 -37 83q-38 32 -99 32q-62 0 -99 -31q-38 -32 -38 -84q0 -51 37 -82t98 -31q63 0 100 31z" />
    <glyph glyph-name="uni2788" unicode="&#x2788;" horiz-adv-x="1763" 
d="M1307 1411q177 -101 281 -280q102 -179 102 -396q0 -215 -102 -393q-104 -179 -281 -280q-178 -103 -394 -103q-215 0 -393 103q-178 102 -280 280q-103 178 -103 393q0 218 103 396q102 178 280 280t393 102t394 -102zM1246 169q148 86 230 234q83 149 83 332t-83 335
q-81 150 -230 236q-148 85 -333 85t-331 -85q-148 -85 -232 -235q-84 -151 -84 -336q0 -183 84 -331q84 -150 232 -235q146 -85 331 -85t333 85zM1120 1051q72 -72 72 -191q0 -55 -20 -106q-21 -49 -64 -107l-193 -285h-170l175 240q-8 -2 -17 -2q-109 0 -174 71t-65 181
q0 124 72 198q70 72 192 72q118 0 192 -71zM1019 758q36 39 36 100q0 62 -35 100q-34 37 -94 37q-58 0 -92 -37q-35 -38 -35 -100q0 -63 35 -101t92 -38t93 39z" />
    <glyph glyph-name="uni27F2" unicode="&#x27f2;" horiz-adv-x="1775" 
d="M253 1133q98 175 271 272q175 98 396 98q154 0 294 -54q142 -55 244 -151l166 168v-483h-483l182 184q-76 72 -182 112q-105 40 -221 40q-168 0 -300 -75q-132 -74 -206 -206q-74 -131 -74 -299q0 -167 75 -301q73 -133 206 -207q131 -75 299 -75q170 0 303 78
q132 75 206 215q72 137 68 309h186q6 -225 -90 -404q-95 -179 -272 -280q-176 -101 -401 -101q-221 0 -395 99q-174 96 -272 272q-97 173 -97 395q0 219 97 394z" />
    <glyph glyph-name="uniF8FF" unicode="&#xf8ff;" horiz-adv-x="1540" 
d="M923 1252q-55 -30 -98 -40q-14 -4 -24.5 -6.5t-15.5 -3.5t-5 0l-2 47q0 103 68 197q46 62 104 94q54 31 102 40q24 5 34.5 6t11.5 -1q0 -4 1 -9t1 -20q0 -125 -84 -227q-39 -48 -93 -77zM358 112q-97 112 -158 280q-63 170 -63 327q0 147 56 257q55 109 142 166
q88 56 183 56q71 0 162 -41q8 -1 42 -15q36 -14 66 -14q24 0 51 10q36 12 54 19q58 25 93 34q42 11 95 11q95 0 162 -34q68 -35 106 -76q37 -40 37 -48q0 6 -48 -32q-48 -39 -87 -105q-39 -67 -39 -162q0 -107 48 -177q45 -70 106 -112q59 -41 59 -34q0 -13 -47 -124
q-46 -108 -124 -203q-78 -93 -181 -93q-46 0 -123 31q-36 14 -72 25q-32 8 -65 8q-37 0 -71 -9q-42 -13 -80 -28q-21 -7 -61 -19q-29 -10 -54 -10q-95 0 -189 112z" />
    <glyph glyph-name="A.salt" horiz-adv-x="1423" 
d="M1042 0l-61 279q-140 -54 -305 -56q-167 0 -295 58l-139 -281h-295l772 1497h268l348 -1497h-293zM707 459q119 0 227 39l-86 393q-9 50 -43 268q-44 -106 -96 -217q-6 -14 -11 -23q-9 -16 -14 -30l-195 -391q99 -39 218 -39z" />
    <glyph glyph-name="G.aalt" horiz-adv-x="1562" 
d="M821 813h674l-113 -813h-213l13 172q-75 -93 -198 -145q-124 -54 -275 -54q-185 0 -321 81q-139 81 -212 234q-74 153 -74 363q0 253 103 452q103 201 289 314q187 113 426 113q161 0 289 -55q129 -56 211 -156q83 -101 108 -229l-246 -95q-22 128 -127 208
q-103 79 -260 79q-153 0 -272 -78q-120 -79 -184 -215q-66 -137 -66 -307q0 -218 106 -339q105 -122 299 -122q176 0 298 99q122 98 151 262l2 22h-436z" />
    <glyph glyph-name="Q.aalt" horiz-adv-x="1634" 
d="M1552 2h-538q-111 -33 -226 -33q-204 0 -356 91q-153 90 -237 256q-84 165 -84 382q0 233 98 424q97 190 273 300q176 108 397 108q201 0 354 -90q152 -90 238 -255q85 -164 85 -382q0 -178 -55 -328q-56 -156 -158 -266q26 3 117 10h125zM430 451q51 -109 146 -168
q94 -60 219 -60q141 0 254 75q111 74 176 205q63 130 63 292q0 145 -52 253t-147 170q-96 60 -219 60q-138 0 -251 -75t-176 -206q-64 -129 -64 -292q0 -146 51 -254z" />
    <glyph glyph-name="R.aalt" horiz-adv-x="1345" 
d="M1147 533q19 -55 24 -144l15 -389h-258l-10 326q-2 81 -12 121q-10 39 -48 65q-37 25 -115 25h-337l-76 -537h-248l211 1497h581q218 0 339 -116q120 -117 120 -306q0 -152 -67 -270t-187 -189q48 -29 68 -83zM770 760q142 0 224 80q81 80 81 207q0 97 -60 156
q-61 57 -177 57h-330l-70 -500h332z" />
    <glyph glyph-name="S_N_I.dlig" horiz-adv-x="2240" 
d="M2005 1366h-1702v131h1702v-131zM874 190q-21 -4 -61 -4h-510v148h496v330h-357q-34 0 -56 5q-18 4 -36 17q-17 13 -28 45q-11 33 -11 68v372q0 33 14 59q13 24 31 38q36 23 99 22h508v-147h-488v-318h359q34 0 61 -5q23 -4 43 -25q17 -17 21 -41q4 -23 4 -60v-393
q0 -71 -45 -96q-21 -12 -44 -15zM1241 905v-731h-158v1114h158l330 -715v715h158v-1114h-158zM2005 1288v-1114h-154v1114h154zM303 129h1702v-129h-1702v129z" />
    <glyph glyph-name="a.salt" horiz-adv-x="1034" 
d="M867 955q96 -93 96 -261q0 -44 -7 -90l-86 -604h-213l9 133q-50 -75 -134 -118q-82 -42 -184 -42q-133 0 -214 75t-81 202q0 100 54 181q52 80 148 126q95 45 216 45h145q56 0 87 29q30 29 30 84q0 69 -46 103t-120 34q-83 0 -142 -45q-58 -45 -73 -121l-192 55
q37 154 152 230q113 76 276 76q181 0 279 -92zM610 235q65 58 76 150l6 41h-207q-93 0 -139 -38q-45 -38 -45 -101q0 -55 37 -83t102 -28q102 0 170 59z" />
    <glyph glyph-name="ampersand.aalt" horiz-adv-x="1505" 
d="M1087 0l-57 102q-82 -66 -194 -100q-109 -35 -230 -35q-154 0 -266 59q-116 59 -177 164q-63 105 -63 242q0 132 61 242q60 110 167 182q107 73 243 92l-168 309l27 240h834l-35 -240h-533l389 -720q44 111 52 254h235q-6 -284 -151 -502l157 -289h-291zM444 271
q76 -66 199 -66q83 0 155 28q72 27 122 74l-250 459q-141 -18 -222 -105q-81 -89 -81 -208q0 -117 77 -182z" />
    <glyph glyph-name="at.aalt" horiz-adv-x="1759" 
d="M1231 608q-6 -76 24 -109q28 -34 80 -34q105 0 169 103q65 103 65 272q0 178 -77 312q-76 133 -218 207q-140 73 -326 73q-198 0 -350 -87q-154 -90 -235 -245q-84 -158 -84 -363q0 -200 79 -351q78 -154 228 -239q149 -86 354 -86q104 0 235 24q130 24 250 81v-150
q-114 -53 -243 -77q-133 -23 -246 -23q-248 0 -435 102q-187 100 -291 288q-104 187 -104 431q0 249 106 439q104 189 295 296q189 105 437 105q236 0 414 -93q177 -92 277 -260q98 -167 98 -380q0 -154 -51 -272q-53 -120 -142 -184q-90 -66 -207 -66q-81 0 -140 35
q-58 34 -77 89q-39 -54 -103 -85q-67 -33 -145 -33q-88 0 -159 45q-72 45 -114 132t-42 208q0 122 44 219q43 95 122 150q79 53 178 53q77 0 137 -28q61 -29 90 -71l25 78h117zM1035 548q57 76 57 208q0 120 -48 181q-50 62 -129 62q-92 0 -147 -76t-55 -210q0 -122 46 -181
q46 -61 124 -61q93 0 152 77z" />
    <glyph glyph-name="bracketleft.aalt" horiz-adv-x="681" 
d="M518 -203h-479l272 1938h482l-29 -203h-260l-215 -1532h260z" />
    <glyph glyph-name="bracketright.aalt" horiz-adv-x="681" 
d="M250 0l215 1532h-258l29 203h481l-275 -1938h-479l29 203h258z" />
    <glyph glyph-name="eight.dnom" horiz-adv-x="880" 
d="M728 429q32 -55 32 -128q0 -141 -106 -229t-275 -88q-142 0 -231 71t-89 187q0 88 49 161q48 72 123 105q-39 20 -62 62q-24 42 -24 102q0 82 46 149q45 66 126 105q80 39 181 39q130 0 206 -64t76 -170q0 -79 -39 -137q-40 -60 -102 -88q57 -23 89 -77zM556 601
q40 36 40 89q0 47 -33 74t-84 27q-62 0 -102 -35q-39 -34 -39 -90q0 -47 33 -74q31 -27 84 -27q61 0 101 36zM524 201q49 40 49 104q0 55 -39 88q-40 33 -108 33q-76 0 -126 -42t-50 -105q0 -56 40 -87q41 -32 107 -32q77 0 127 41z" />
    <glyph glyph-name="eight.numr" horiz-adv-x="880" 
d="M800 939q32 -56 31 -128q0 -141 -106 -229t-274 -88q-144 0 -232 70t-88 188q0 88 48 160q48 73 124 106q-39 20 -62 62q-24 42 -24 102q0 82 45 148q45 67 126 106t181 39q129 0 206 -65t77 -169q0 -79 -39 -137q-40 -60 -102 -88q57 -23 89 -77zM628 1111q40 36 40 89
q0 47 -33 74q-34 27 -84 26q-64 0 -102 -34q-39 -34 -39 -90q0 -47 32 -74q33 -27 84 -27q62 0 102 36zM596 711q49 40 49 104q0 55 -40 88t-107 33q-76 0 -126 -42t-50 -106q0 -56 39 -87q42 -32 108 -31q77 0 127 41z" />
    <glyph glyph-name="eight.tnum" horiz-adv-x="1292" 
d="M1116 663q55 -86 55 -208q0 -136 -73 -246t-207 -175q-135 -65 -299 -65q-151 0 -266 53q-115 52 -176 146q-60 93 -62 217q0 143 85 258t218 160q-75 40 -118 113q-44 76 -44 169q0 122 67 223q68 102 187 161q120 59 275 61q200 0 322 -105q122 -104 122 -278
q0 -120 -62 -217q-62 -96 -163 -146q84 -34 139 -121zM560 1222q-70 -62 -68 -155q0 -79 56 -129q55 -49 146 -49q109 0 176 61q68 62 68 156q0 80 -55 129t-148 49q-105 0 -175 -62zM818 287q85 70 85 182q0 94 -68 153q-68 58 -182 58q-130 0 -216 -68q-85 -67 -85 -180
q0 -98 68 -157q67 -58 184 -58q129 0 214 70z" />
    <glyph glyph-name="emdash.aalt" horiz-adv-x="2021" 
d="M1956 612h-1856l27 224h1860z" />
    <glyph glyph-name="endash.aalt" horiz-adv-x="1531" 
d="M1466 612h-1368l29 224h1370z" />
    <glyph glyph-name="exclamdown.aalt" horiz-adv-x="624" 
d="M568 1487q50 -52 50 -127q0 -82 -55 -136q-55 -55 -139 -55q-80 0 -131 52q-51 51 -51 125q0 82 55 137t141 55q80 0 130 -51zM463 987l-94 -981h-240l178 981h156z" />
    <glyph glyph-name="f.aalt" horiz-adv-x="876" 
d="M616 1284l-38 -272h305l-31 -217h-305l-111 -795h-239l112 795h-209l31 217h209l68 485h542l-28 -213h-306z" />
    <glyph glyph-name="five.dnom" horiz-adv-x="872" 
d="M676 576q82 -78 82 -214q0 -106 -48 -192q-49 -87 -135 -136q-89 -50 -200 -50q-149 0 -232 83q-82 82 -71 220l182 26q-2 -10 -2 -26q0 -59 36 -94q37 -35 97 -35q76 0 127 53q51 52 51 133q0 66 -39 107t-102 41q-49 0 -90 -23q-42 -23 -64 -63h-182l150 540h540
l-24 -170h-379l-45 -151q54 29 135 28q130 0 213 -77z" />
    <glyph glyph-name="five.numr" horiz-adv-x="872" 
d="M748 1083q82 -78 81 -213q0 -106 -48 -192q-49 -87 -135 -136q-88 -50 -200 -50q-150 0 -231 82q-83 83 -72 221l183 26q-2 -10 -2 -26q0 -58 35 -95q37 -35 98 -34q76 0 127 53t51 133q0 66 -39 106q-39 41 -102 41q-50 0 -91 -22q-40 -22 -63 -64h-182l149 541h541
l-25 -170h-379l-45 -151q54 29 136 28q131 0 213 -78z" />
    <glyph glyph-name="five.tnum" horiz-adv-x="1294" 
d="M567 1257l-86 -296q102 68 242 67q125 0 225 -61t157 -171q56 -110 56 -251q0 -165 -78 -296q-77 -129 -210 -203q-131 -73 -291 -73q-140 0 -250 60q-109 58 -168 167q-58 108 -60 251l258 36l-2 -32q0 -109 66 -174q66 -66 170 -66q83 0 150 40q71 41 110 113
q41 74 41 167q0 123 -69 193q-69 71 -177 71q-81 0 -148 -39q-70 -40 -110 -109h-258l238 846h833l-32 -240h-607z" />
    <glyph glyph-name="four.dnom" horiz-adv-x="935" 
d="M72 336l413 610h207l-422 -610h246l43 303h174l-43 -305h131l-22 -168h-133l-23 -166h-174l23 166l-443 2z" />
    <glyph glyph-name="four.numr" horiz-adv-x="935" 
d="M143 844l414 610h207l-422 -610h246l43 303h174l-43 -305h131l-23 -168h-133l-22 -166h-174l22 166l-442 2z" />
    <glyph glyph-name="four.tnum" horiz-adv-x="1345" 
d="M94 514l678 983h293l-674 -983l418 -2l68 500h253l-69 -500h211l-35 -238h-209l-41 -274h-252l41 274l-715 2z" />
    <glyph glyph-name="germandbls.aalt" horiz-adv-x="1200" 
d="M209 1051q33 229 175 356t355 127q191 0 304 -91q114 -91 114 -247q0 -101 -53 -181q-52 -79 -152 -147l-106 -69q-63 -44 -82 -65q-21 -22 -21 -48t17 -46q15 -18 61 -44l94 -55q89 -53 129 -120q41 -68 41 -151q0 -139 -97 -221t-259 -82q-152 0 -230 75
q-80 75 -75 200l186 30q-2 -14 -2 -30q0 -46 29 -72q28 -25 82 -25q58 0 96 29q37 28 37 82q0 44 -27 72q-29 28 -96 69l-90 56q-141 89 -141 217q0 71 40 127q41 58 113 108l111 72q78 52 113 100q34 46 34 103q0 74 -46 113q-47 38 -128 38q-115 0 -190 -75
q-77 -77 -96 -214l-144 -1042h-244z" />
    <glyph glyph-name="glyph1" 
 />
    <glyph glyph-name="glyph2" horiz-adv-x="682" 
 />
    <glyph glyph-name="glyph444" horiz-adv-x="3151" 
d="M1528 526h452v-526h-159l-23 158h-14q0 -12 -25 -55q-26 -45 -90 -82q-65 -39 -176 -39q-185 0 -304 128q-118 127 -118 371q0 170 65 286t169 171q103 55 227 55q157 0 282 -88q125 -89 156 -262h-221q-18 72 -73 114q-56 42 -140 42q-122 0 -184 -87q-62 -88 -62 -223
q0 -133 60 -224q58 -91 182 -91q86 0 147 46q61 47 74 118h-225v188zM2086 810q-34 34 -34 77t33 75q32 31 76 31q45 0 77 -30q31 -31 31 -76q0 -46 -31 -78q-32 -33 -77 -33q-41 0 -75 34zM2357 809q-33 33 -33 78t33 76q33 30 78 30t76 -30q31 -31 31 -76q0 -46 -31 -78
q-31 -33 -76 -33t-78 33zM2607 952v41h164v-41h-59v-170h-52v170h-53zM2939 993h84v-211h-49v181l-29 -181h-70l-28 181v-181h-51v211h90l22 -174zM881 859q120 -125 120 -370q0 -242 -120 -365q-121 -124 -334 -124h-383v983h383q213 0 334 -124zM705 239q81 60 81 250
q0 189 -81 250q-83 62 -158 62h-127q-31 1 -59 13q-22 8 -43 22q-19 12 -21 14l-16 -14l57 -62q31 -25 38 -56q7 -29 7 -54v-349q0 -34 -10 -57t-21 -38q-11 -14 -14 -15l-57 -60l16 -14q5 5 23 16q19 11 49 21q29 10 65 10h113q76 0 158 61zM2474 664q37 0 68 -7v-176
q-16 2 -35 2q-95 0 -151 -51t-56 -158v-274h-211v506q0 92 -14 151h213q7 -49 8 -79q47 86 178 86z" />
    <glyph glyph-name="glyph450" horiz-adv-x="915" 
d="M645 717q5 61 -36 99t-109 38q-69 0 -110 -34q-42 -34 -42 -89q0 -43 28 -65q28 -24 83 -37l137 -37q111 -27 168 -99q57 -74 57 -176q0 -158 -119 -251q-120 -93 -305 -93q-169 0 -270 83q-100 82 -98 225l211 34q-4 -67 40 -107q43 -40 128 -40q76 0 122 34
q45 35 45 91q0 73 -90 98l-151 45q-233 71 -234 269q0 100 51 178q49 77 142 121q90 43 213 43q158 0 250 -77t100 -208z" />
    <glyph glyph-name="glyph472" horiz-adv-x="2942" 
d="M2666 1110l-14 -98h299l-31 -209h-297l-112 -803h-242l113 803h-426l-66 -455q-2 -18 -2 -41q0 -66 34 -93q34 -28 101 -28q60 0 125 13l-28 -191q-48 -15 -97 -23q-59 -8 -100 -8q-135 0 -206 74q-72 74 -72 205q0 49 4 72l67 475h-190l-357 -803h-249l-107 664
q-49 -125 -137 -318l-154 -346h-241l-170 1012h251l99 -654q18 39 78 181l34 84l168 389h240l102 -654l52 129q23 51 36 88l189 437h385l41 284l242 17l-43 -301h425l17 121q57 391 430 391q87 0 162 -23l-27 -198q-83 8 -115 8q-179 0 -211 -201z" />
    <glyph glyph-name="glyph473" horiz-adv-x="4104" 
d="M4137 1012l-449 -1012h-249l-107 664q-49 -125 -137 -318l-154 -346h-241l-103 606l-268 -606h-250l-106 664q-53 -134 -138 -318l-153 -346h-242l-102 606l-269 -606h-249l-107 664q-49 -125 -137 -318l-154 -346h-241l-170 1012h251l99 -654q18 39 78 181l34 84
l168 389h240l102 -654l52 129q23 51 36 88l189 437h262l98 -654q17 39 78 181l35 84l168 389h240l102 -654l51 129q27 60 37 88l188 437h263l98 -654q18 39 78 181l34 84l168 389h240l102 -654l52 129q23 51 36 88l189 437h258z" />
    <glyph glyph-name="glyph513" horiz-adv-x="1093" 
d="M235 849q72 66 164 66q47 0 90 -15q34 -12 107 -44q60 -26 98 -40q36 -13 76 -13q50 0 82 30q31 28 37 80h129q-8 -150 -86 -218q-79 -68 -176 -68q-57 0 -106 16q-53 17 -122 49q-47 24 -84 37q-35 12 -65 12q-47 0 -71 -31q-25 -31 -27 -77h-129q11 149 83 216z
M179 464q73 66 165 66q45 0 90 -14q42 -13 109 -45q60 -26 98 -40q36 -13 76 -13q53 0 83 31q28 30 36 81h129q-8 -150 -86 -218q-79 -68 -177 -68q-57 0 -105 16q-65 22 -124 47q-55 25 -87 36q-33 11 -62 11q-46 0 -72 -30q-25 -31 -25 -76h-129q8 148 81 216z" />
    <glyph glyph-name="glyph514" horiz-adv-x="1054" 
d="M192 696q72 66 164 66q45 0 93 -14q47 -16 106 -43q60 -26 98 -40q39 -14 76 -14q51 0 81 30q31 31 38 81h129q-11 -151 -88 -218q-78 -69 -176 -69q-53 0 -106 17t-122 49q-58 27 -86 36q-33 11 -63 11q-45 0 -69 -32q-24 -30 -29 -75h-129q10 148 83 215z" />
    <glyph glyph-name="greater.aalt" horiz-adv-x="1163" 
d="M170 436l612 287l-534 272l33 234l743 -400l-31 -211l-858 -419z" />
    <glyph glyph-name="hyphen.aalt" horiz-adv-x="1060" 
d="M997 612h-899l29 224h899z" />
    <glyph glyph-name="i.locl" horiz-adv-x="505" 
d="M255 1160q-38 38 -38 97q0 57 44 101q43 43 108 43q59 0 96 -37t37 -94q0 -61 -43 -104q-44 -44 -109 -44q-57 0 -95 38zM440 1012l-141 -1012h-236l142 1012h235z" />
    <glyph glyph-name="j.aalt" horiz-adv-x="518" 
d="M312 1265q-42 41 -42 101q0 72 48 120q46 48 120 48q63 0 106 -40q42 -41 42 -103q0 -72 -47 -119t-123 -47q-63 0 -104 40zM-295 -467l31 213h346l178 1266h240l-207 -1479h-588z" />
    <glyph glyph-name="l.salt" horiz-adv-x="598" 
d="M156 48q-56 65 -56 183q0 45 6 91l168 1191h238l-166 -1187q-4 -25 -4 -39q0 -90 86 -90l68 4l-29 -201q-78 -18 -139 -18q-116 0 -172 66z" />
    <glyph glyph-name="l.ss02" horiz-adv-x="657" 
d="M274 1513h242l-184 -1298h223l-29 -215h-465z" />
    <glyph glyph-name="less.aalt" horiz-adv-x="1163" 
d="M195 618l28 211l858 400l-34 -234l-611 -272l533 -287l-35 -237z" />
    <glyph glyph-name="n.aalt" horiz-adv-x="1107" 
d="M205 1012h858l-141 -1012h-244l113 797h-373l-113 -797h-242z" />
    <glyph glyph-name="nine.dnom" horiz-adv-x="868" 
d="M708 879q87 -84 87 -224q0 -85 -34 -152q-35 -71 -116 -163l-289 -340h-231l258 299q-118 6 -195 89t-77 210q0 106 47 189q47 84 131 130q83 46 188 46q144 0 231 -84zM560 514q48 51 48 127q0 68 -40 107q-41 38 -103 38q-74 0 -122 -50t-48 -128q0 -66 40 -105
q40 -40 103 -40q74 0 122 51z" />
    <glyph glyph-name="nine.numr" horiz-adv-x="868" 
d="M779 1386q87 -84 87 -223q0 -85 -33 -152q-35 -71 -116 -163l-289 -340h-231l258 299q-119 6 -196 89t-77 210q0 106 47 189q46 82 131 129q83 46 189 46q143 0 230 -84zM632 1022q48 51 48 127q0 69 -40 106q-40 39 -103 39q-74 0 -122 -50t-48 -128q0 -66 40 -105
q40 -40 103 -40q74 0 122 51z" />
    <glyph glyph-name="nine.tnum" horiz-adv-x="1277" 
d="M988 1468q114 -63 176 -176q61 -112 63 -254q0 -93 -28 -173q-30 -85 -77 -155q-46 -70 -135 -190l-401 -520h-330l391 498q-18 -2 -39 -2q-127 0 -229 60t-162 168q-59 109 -59 245q0 157 73 284q73 129 204 204t292 75q148 -2 261 -64zM818 751q68 41 105 111
q38 73 38 162q0 120 -67 190q-68 72 -177 72q-80 0 -147 -40q-68 -41 -105 -110q-39 -70 -39 -161q0 -118 68 -192t176 -72q81 0 148 40z" />
    <glyph glyph-name="one.dnom" horiz-adv-x="559" 
d="M530 946l-133 -946h-170l92 659h-202l16 123q103 0 156 42q51 42 71 122h170z" />
    <glyph glyph-name="one.numr" horiz-adv-x="559" 
d="M602 1454l-133 -946h-170l92 659h-203l17 123q104 0 155 42t72 122h170z" />
    <glyph glyph-name="one.tnum" horiz-adv-x="1333" 
d="M1151 231l-33 -233l-1026 2l33 233h371l118 840h-364l24 172q160 0 265 69q103 68 135 183h250l-179 -1266h406z" />
    <glyph glyph-name="parenleft.aalt" horiz-adv-x="604" 
d="M155 217q-51 185 -51 373q0 286 113 542q113 254 309 459h211q-180 -244 -280 -494q-101 -252 -101 -546q0 -161 33 -334t100 -323h-192q-94 143 -142 323z" />
    <glyph glyph-name="parenright.aalt" horiz-adv-x="604" 
d="M214 391q99 247 99 543q0 161 -32 336q-33 171 -101 321h193q93 -142 142 -322q50 -186 50 -374q0 -288 -112 -543t-312 -458h-209q183 248 282 497z" />
    <glyph glyph-name="questiondown.aalt" horiz-adv-x="970" 
d="M765 1480q50 -50 50 -126q0 -83 -59 -139q-61 -56 -140 -56q-78 0 -127 52q-49 50 -49 126q0 84 58 139q57 54 139 54q78 0 128 -50zM705 997q-1 -92 -52 -170q-51 -77 -174 -198l-45 -43q-88 -82 -118 -126q-33 -46 -33 -112q0 -80 48 -124q49 -44 128 -44q103 0 164 67
q61 65 61 161q0 16 -4 41l213 -31q8 -126 -46 -227q-54 -103 -160 -163q-106 -61 -247 -61q-179 0 -286 97q-109 96 -109 262q0 105 50 193q48 85 163 192q111 102 158 158t53 120l4 29h232v-21z" />
    <glyph glyph-name="r.aalt" horiz-adv-x="729" 
d="M750 1012l-27 -215h-317l-115 -797h-240l142 1012h557z" />
    <glyph glyph-name="s.aalt" horiz-adv-x="946" 
d="M68 219h407q29 0 46 15q16 13 16 38q0 37 -29 60l-244 215q-61 57 -91 112q-28 52 -28 105q0 115 79 182q80 66 210 66h461l-39 -217h-377q-29 0 -46 -14q-17 -15 -17 -40q0 -18 8 -32q7 -14 29 -33l243 -215q113 -98 113 -213t-79 -181q-79 -67 -206 -67h-495z" />
    <glyph glyph-name="seven.dnom" horiz-adv-x="815" 
d="M786 946l-22 -162l-508 -784h-217l510 776h-414l25 170h626z" />
    <glyph glyph-name="seven.numr" horiz-adv-x="815" 
d="M858 1454l-22 -162l-508 -784h-217l510 776h-414l24 170h627z" />
    <glyph glyph-name="seven.tnum" horiz-adv-x="1249" 
d="M1237 1497l-33 -231l-801 -1266h-307l799 1257h-684l33 240h993z" />
    <glyph glyph-name="six.dnom" horiz-adv-x="868" 
d="M675 558q77 -83 77 -210q0 -106 -47 -189q-48 -83 -132 -129q-83 -46 -188 -46q-144 0 -230 85q-87 85 -87 222q0 87 34 154q33 67 115 161l289 340h231l-258 -299q119 -6 196 -89zM518 210q47 50 47 128q0 68 -39 107q-40 38 -102 38q-74 0 -122 -51t-48 -127
q0 -69 40 -106q40 -39 103 -39q74 0 121 50z" />
    <glyph glyph-name="six.numr" horiz-adv-x="868" 
d="M746 1066q77 -83 77 -210q0 -106 -47 -189q-46 -82 -131 -129q-83 -46 -188 -46q-143 0 -231 85q-87 85 -87 222q0 86 34 153q36 70 116 162l289 340h231l-258 -299q118 -6 195 -89zM590 718q47 50 47 128q0 68 -39 106q-39 39 -102 39q-74 0 -122 -51t-48 -127
q0 -69 40 -106q40 -39 103 -39q74 0 121 50z" />
    <glyph glyph-name="six.tnum" horiz-adv-x="1275" 
d="M922 941q103 -60 161 -168t60 -245q0 -155 -74 -283t-204 -203q-131 -75 -292 -75q-147 0 -261 63q-113 61 -175 173q-61 110 -61 248q0 126 56 244q54 115 181 282l404 520h323l-393 -498q22 2 45 2q128 0 230 -60zM728 252q67 39 106 109q39 71 38 161q0 119 -67 192
q-68 74 -176 72q-80 0 -147 -40q-66 -40 -104 -111q-38 -73 -38 -162q0 -118 67 -188q67 -72 175 -72q78 0 146 39z" />
    <glyph glyph-name="t.aalt" horiz-adv-x="894" 
d="M555 795l-82 -582h299l-29 -213h-540l110 795h-233l29 217h235l41 286h242l-41 -286h299l-31 -217h-299z" />
    <glyph glyph-name="three.dnom" horiz-adv-x="845" 
d="M743 793l-225 -203q98 -14 155 -80q56 -67 56 -168q0 -104 -48 -186t-135 -127t-198 -45q-134 0 -213 76q-80 76 -76 200l179 37q-6 -64 31 -101q36 -38 102 -38q76 0 123 47t47 123q0 61 -37 97q-38 37 -98 38q-45 0 -87 -17l-34 144l196 184l-327 2l24 170h588z" />
    <glyph glyph-name="three.numr" horiz-adv-x="845" 
d="M815 1300l-225 -202q98 -14 154 -80t57 -168q0 -104 -48 -186t-136 -127q-87 -45 -197 -45q-134 0 -213 75q-80 77 -76 201l178 37q-6 -63 31 -102q38 -38 102 -37q76 0 123 47t47 123q0 61 -37 97q-38 37 -98 38q-46 0 -86 -17l-35 144l197 184l-328 2l25 170h588z" />
    <glyph glyph-name="three.tnum" horiz-adv-x="1298" 
d="M1178 1278l-373 -346q158 -26 251 -138q93 -114 93 -284q0 -151 -73 -272q-73 -123 -205 -193q-131 -70 -298 -70q-141 0 -249 54q-109 52 -169 150q-60 97 -61 224l256 58q-4 -109 60 -174q63 -66 174 -66q126 0 211 81q86 81 86 208q0 110 -66 175q-67 65 -174 65
q-69 0 -127 -23l-49 203l356 327h-559l33 240h915z" />
    <glyph glyph-name="two.dnom" horiz-adv-x="823" 
d="M362 172h322l-22 -172h-599l21 147l377 353q60 57 83 97q23 43 23 89q0 50 -32 82q-32 31 -86 31q-74 0 -118 -50q-45 -52 -46 -128l-170 20q1 89 45 162q44 75 121 119q77 45 180 45q126 0 206 -71q78 -70 78 -187q0 -107 -40 -180q-41 -74 -119 -146z" />
    <glyph glyph-name="two.numr" horiz-adv-x="823" 
d="M434 680h322l-23 -172h-598l21 147l376 353q60 57 83 97q24 42 24 89q0 50 -33 82q-32 31 -86 31q-74 0 -118 -51q-45 -51 -46 -128l-170 21q2 89 45 162q44 75 121 119q78 45 180 45q126 0 206 -71q79 -70 79 -187q0 -105 -41 -181q-41 -75 -119 -145z" />
    <glyph glyph-name="two.tnum" horiz-adv-x="1280" 
d="M520 242h545l-35 -242h-936l29 211l604 559q99 93 142 168q42 74 42 137q0 106 -57 163q-58 56 -158 56q-121 0 -192 -86q-72 -85 -70 -217l-241 27q1 138 65 257q62 117 182 187q118 70 277 70q134 0 237 -53q100 -52 160 -151q57 -98 57 -228q0 -134 -62 -249
q-61 -113 -200 -243z" />
    <glyph glyph-name="u.aalt" horiz-adv-x="1107" 
d="M446 1012l-110 -797h375l108 797h244l-141 -1012h-859l142 1012h241z" />
    <glyph glyph-name="y.aalt" horiz-adv-x="1128" 
d="M1178 1012l-578 -1012l-65 -467h-586l28 213h349l34 254l-268 1012h248l170 -713l389 713h279z" />
    <glyph glyph-name="zero.dnom" horiz-adv-x="972" 
d="M144 677q57 128 158 200q101 71 230 71q156 0 252 -110q95 -112 95 -312q0 -162 -57 -288q-58 -127 -160 -199q-104 -72 -232 -72q-156 0 -250 111q-94 109 -94 311q0 162 58 288zM316 207q44 -66 128 -66q113 0 179 111q65 110 65 276q0 118 -45 182t-123 64
q-112 0 -180 -111q-68 -113 -68 -276q0 -115 44 -180z" />
    <glyph glyph-name="zero.numr" horiz-adv-x="974" 
d="M277 1344q107 131 284 131t281 -132q102 -134 102 -356q0 -155 -49 -265q-49 -111 -138 -170q-88 -58 -206 -58q-176 0 -278 132q-103 131 -103 355q0 230 107 363zM410 753q52 -85 147 -85q96 0 149 86q52 85 52 229q0 146 -53 232q-54 85 -148 85q-95 0 -148 -86
t-53 -231t54 -230z" />
    <glyph glyph-name="zero.tnum" horiz-adv-x="1310" 
d="M1016 1443q119 -86 183 -239q63 -154 63 -360q0 -241 -83 -439q-83 -199 -231 -314q-149 -116 -338 -116q-160 0 -277 84q-117 83 -182 239t-65 359q0 239 83 440q82 199 233 315q149 116 337 116q159 0 277 -85zM534 1199q-84 -80 -134 -222t-50 -313q0 -150 39 -256
l516 784q-72 88 -180 88q-107 0 -191 -81zM815 301q86 83 134 223t48 312q0 127 -26 217l-508 -770q67 -62 160 -64q107 0 192 82z" />
    </font>
</defs>
</svg>
