<?xml version="1.0" standalone="no"?>
<!DOCTYPE svg PUBLIC "-//W3C//DTD SVG 1.1//EN" "http://www.w3.org/Graphics/SVG/1.1/DTD/svg11.dtd" >
<svg xmlns="http://www.w3.org/2000/svg" xmlns:xlink="http://www.w3.org/1999/xlink" version="1.1">
<metadata>
Created by FontForge 20170731 at Sun Oct 29 18:41:32 2017
 By ,,,
Copyright (c) 2016 by Deni Anggara. All rights reserved.
</metadata>
<defs>
<font id="NeutrifStudio-RegularItalic" horiz-adv-x="0" >
  <font-face 
    font-family="Neutrif Studio Regular Italic"
    font-weight="400"
    font-style="italic"
    font-stretch="normal"
    units-per-em="2048"
    panose-1="0 0 5 0 0 0 0 0 0 0"
    ascent="1638"
    descent="-410"
    x-height="1012"
    cap-height="1497"
    bbox="-1305 -537 4139 1948"
    underline-thickness="0"
    underline-position="0"
    unicode-range="U+000D-F8FF"
  />
<missing-glyph horiz-adv-x="1206" 
d="M1122 1448v-1448h-1038v1448h1038z" />
    <glyph glyph-name="f_f.liga" unicode="ff" horiz-adv-x="1503" 
d="M1296 1304q-52 -52 -65 -145l-21 -147h297l-24 -170h-297l-117 -842h-195l117 842h-465l-116 -842h-195l117 842h-226l25 170h225l23 162q51 354 389 354q78 0 150 -21l-23 -161q-75 8 -115 8q-94 0 -144 -50q-50 -52 -65 -145l-20 -147h465l22 162q51 354 389 354
q78 0 150 -21l-23 -161q-75 8 -114 8q-94 0 -144 -50z" />
    <glyph glyph-name="f_f_i.liga" unicode="ffi" horiz-adv-x="1927" 
d="M1910 1498q36 -34 36 -87q0 -61 -41 -100t-103 -39q-54 0 -89 34q-36 33 -36 87q0 59 40 99t104 40q54 0 89 -34zM1710 0h-190l116 842h-450l-117 -842h-195l117 842h-465l-116 -842h-195l117 842h-226l25 170h225l23 162q51 354 389 354q78 0 150 -21l-23 -161
q-75 8 -115 8q-94 0 -144 -50q-50 -52 -65 -145l-20 -147h465l22 162q51 354 389 354q78 0 150 -21l-23 -161q-75 8 -114 8q-94 0 -144 -50q-52 -52 -65 -145l-21 -147h641z" />
    <glyph glyph-name="f_f_t.liga" unicode="fft" horiz-adv-x="2152" 
d="M1774 319q-1 -10 -2 -19.5t-2 -17t-1 -10.5q0 -68 34 -96q35 -29 102 -29q54 0 120 13l-22 -156q-38 -12 -85 -18q-48 -6 -87 -6q-125 0 -191 69q-67 67 -67 189q0 33 6 69l76 535h-469l-117 -842h-195l117 842h-465l-116 -842h-195l117 842h-226l25 170h225l23 162
q51 354 389 354q78 0 150 -21l-23 -161q-75 8 -115 8q-94 0 -144 -50q-50 -52 -65 -145l-20 -147h465l22 162q51 354 389 354q78 0 150 -21l-23 -161q-75 8 -114 8q-94 0 -144 -50q-52 -52 -65 -145l-21 -147h467l39 270l195 16l-41 -286h272l-22 -170h-273z" />
    <glyph glyph-name="f_i.liga" unicode="fi" horiz-adv-x="1271" 
d="M1255 1498q35 -35 35 -87q0 -61 -41 -100t-102 -39q-54 0 -89 34q-36 33 -36 87q0 59 40 99t103 40q55 0 90 -34zM1055 0h-191l117 842h-455l-116 -842h-195l117 842h-226l25 170h225l23 162q51 354 389 354q78 0 150 -21l-23 -161q-75 8 -115 8q-94 0 -144 -50
q-50 -52 -65 -145l-20 -147h645z" />
    <glyph glyph-name="f_l.liga" unicode="fl" horiz-adv-x="1259" 
d="M1262 1513l-213 -1513l-191 2l119 840h-451l-116 -842h-195l117 842h-226l25 170h225l23 162q51 354 389 354q78 0 150 -21l-23 -161q-75 8 -115 8q-94 0 -144 -50q-50 -52 -65 -145l-20 -147h448l72 501h191z" />
    <glyph glyph-name="f_t.liga" unicode="ft" horiz-adv-x="1519" 
d="M1141 319q-4 -29 -4 -47q0 -68 34 -96q34 -29 101 -29q53 0 121 13l-23 -156q-38 -12 -85 -18q-48 -6 -87 -6q-125 0 -191 69q-67 67 -67 189q0 33 6 69l76 535h-496l-116 -842h-195l117 842h-226l25 170h225l23 162q51 354 389 354q78 0 150 -21l-23 -161q-75 8 -115 8
q-94 0 -144 -50q-50 -52 -65 -145l-20 -147h493l39 270l195 16l-41 -286h272l-22 -170h-273z" />
    <glyph glyph-name="t_i.liga" unicode="ti" horiz-adv-x="1308" 
d="M1291 1498q36 -34 36 -87q0 -61 -41 -100q-40 -39 -102 -39q-54 0 -89 34q-36 33 -36 87q0 59 40 99t103 40q54 0 89 -34zM1092 0h-191l117 842h-496l-73 -523q-1 -10 -2 -19.5t-2 -17t-1 -10.5q0 -68 34 -96q35 -29 102 -29q54 0 120 13l-22 -156q-38 -12 -85 -18
q-48 -6 -87 -6q-125 0 -191 69q-67 67 -67 189q0 33 6 69l76 535h-236l23 170h235l39 270l195 16l-41 -286h688z" />
    <glyph glyph-name="t_t.liga" unicode="tt" horiz-adv-x="1460" 
d="M1081 319q-4 -29 -4 -47q0 -68 34 -96q35 -29 101 -29q53 0 121 13l-22 -156q-38 -12 -85 -18q-48 -6 -87 -6q-125 0 -191 69q-67 67 -67 189q0 33 6 69l76 535h-441l-73 -523q-1 -10 -2 -19.5t-2 -17t-1 -10.5q0 -68 34 -96q35 -29 102 -29q54 0 120 13l-22 -156
q-38 -12 -85 -18q-48 -6 -87 -6q-125 0 -191 69q-67 67 -67 189q0 33 6 69l76 535h-236l23 170h235l39 270l195 16l-41 -286h440l39 270l195 16l-41 -286h272l-23 -170h-272z" />
    <glyph glyph-name=".notdef" horiz-adv-x="1206" 
d="M1122 1448v-1448h-1038v1448h1038z" />
    <glyph glyph-name=".null" 
 />
    <glyph glyph-name="nonmarkingreturn" horiz-adv-x="682" 
 />
    <glyph glyph-name="NULL" 
 />
    <glyph glyph-name="NULL" 
 />
    <glyph glyph-name="CR" unicode="&#xd;" horiz-adv-x="1624" 
d="M1464 1366v-928h-915v-258l-397 320l397 317v-256h794v805h121z" />
    <glyph glyph-name="CR" unicode="&#x21b5;" horiz-adv-x="1624" 
d="M1464 1366v-928h-915v-258l-397 320l397 317v-256h794v805h121z" />
    <glyph glyph-name="space" unicode=" " horiz-adv-x="524" 
 />
    <glyph glyph-name="exclam" unicode="!" horiz-adv-x="606" 
d="M229 498l107 999h201l-172 -999h-136zM129 13q-45 47 -45 114q0 72 50 120t124 48q72 0 115 -45q43 -44 43 -113q0 -74 -48 -122q-50 -48 -124 -48q-70 0 -115 46z" />
    <glyph glyph-name="quotedbl" unicode="&#x22;" horiz-adv-x="825" 
d="M299 1497h172l-123 -596h-106zM625 1497h176l-127 -596h-105z" />
    <glyph glyph-name="numbersign" unicode="#" horiz-adv-x="1458" 
d="M100 528h201l148 441h-228l55 170h230l121 358h204l-122 -358l364 2l123 356h203l-121 -356h201l-58 -172h-200l-148 -441h230l-54 -172h-233l-123 -356h-205l123 356h-365l-120 -356h-205l123 356h-197zM868 528l146 441h-363l-147 -441h364z" />
    <glyph glyph-name="dollar" unicode="$" horiz-adv-x="1136" 
d="M862 924q4 130 -96 180l-121 -379l92 -20q133 -31 200 -116t67 -208q0 -119 -65 -211t-178 -143q-113 -52 -257 -52q-55 0 -98 7l-68 -211h-107l76 235q-115 43 -173 133q-59 90 -54 209l178 25q-4 -65 23 -117q26 -52 81 -80l125 389q-158 35 -230 119q-73 83 -73 203
q0 114 60 209q58 93 167 148q107 54 246 54q28 0 64 -4l65 203h107l-72 -223q103 -34 162 -114q56 -79 55 -191zM668 1130h-27q-117 0 -188 -60q-72 -60 -72 -159q0 -65 39 -103q41 -39 121 -58l4 -2zM586 543l-127 -398q33 -4 59 -4q126 0 205 62q78 61 78 162
q0 127 -148 161z" />
    <glyph glyph-name="percent" unicode="%" horiz-adv-x="1490" 
d="M255 890q-73 88 -73 234q0 108 40 198q41 92 113 145q74 53 165 53q119 0 192 -88q72 -88 72 -234q0 -107 -40 -197q-41 -92 -111 -146q-72 -54 -167 -54q-117 0 -191 89zM92 88l1278 1409l100 -86l-1275 -1411zM565 1018q45 69 45 174q0 88 -31 134t-85 46
q-70 0 -114 -71q-44 -73 -44 -175q0 -85 31 -131q30 -47 84 -47q69 0 114 70zM871 69q-74 89 -74 234q0 105 41 198q40 91 114 144q73 53 164 53q119 0 192 -88q72 -89 72 -233q0 -107 -40 -197q-41 -93 -112 -146q-74 -54 -165 -54q-118 0 -192 89zM1182 198q45 68 45 173
q0 87 -32 134q-31 46 -85 46q-70 0 -114 -71q-44 -73 -44 -175q0 -84 31 -130t84 -46q70 0 115 69z" />
    <glyph glyph-name="ampersand" unicode="&#x26;" horiz-adv-x="1505" 
d="M1124 0l-96 125q-90 -78 -206 -117q-117 -39 -244 -39q-137 0 -245 47q-105 46 -164 134q-58 85 -58 200q0 108 53 199q52 89 164 168l145 102l-45 62q-51 63 -75 127q-25 62 -25 141q0 109 48 196t136 136t203 49q158 0 254 -87t96 -231q0 -102 -52 -184t-155 -158
l-104 -79l295 -367q106 151 112 352l182 -33q-13 -261 -176 -473l211 -270h-254zM576 1299q-56 -56 -56 -138q0 -49 19 -88q19 -42 55 -84l49 -59l78 59q80 59 115 109q34 49 34 106q0 69 -43 109q-44 41 -112 41q-84 0 -139 -55zM388 205q74 -58 202 -58q188 0 328 123
l-334 408l-109 -74q-86 -57 -125 -116q-37 -58 -37 -123q0 -103 75 -160z" />
    <glyph glyph-name="quotesingle" unicode="'" horiz-adv-x="495" 
d="M299 1497h172l-123 -596h-106z" />
    <glyph glyph-name="parenleft" unicode="(" horiz-adv-x="638" 
d="M287 -438q-91 140 -144 351q-53 214 -53 429q0 343 125 664q125 320 348 555h187q-198 -231 -326 -553q-129 -324 -129 -684q0 -209 45 -418q45 -208 125 -344h-178z" />
    <glyph glyph-name="parenright" unicode=")" horiz-adv-x="636" 
d="M230 127q120 329 120 672q0 215 -46 421q-47 211 -122 341h172q96 -146 150 -359q53 -217 53 -434q0 -341 -128 -659q-126 -315 -343 -547h-182q204 235 326 565z" />
    <glyph glyph-name="asterisk" unicode="*" horiz-adv-x="894" 
d="M229 1327l144 -53q75 -27 119 -62q-8 27 -9 72q0 41 4 64l25 165h150l-23 -165q-5 -33 -14 -74q-9 -33 -23 -62q45 38 131 64l162 51l31 -139l-166 -55q-90 -28 -148 -27q53 -29 95 -98l79 -136l-131 -86l-75 132q-29 53 -39 77q-12 24 -17 58q-22 -61 -88 -135
l-112 -130l-117 84l121 136q74 75 118 98q-55 -2 -141 29l-143 51z" />
    <glyph glyph-name="plus" unicode="+" horiz-adv-x="1404" 
d="M1196 512h-412l-59 -422h-162l60 422h-412l22 162h412l60 422h161l-59 -422h412z" />
    <glyph glyph-name="comma" unicode="," horiz-adv-x="458" 
d="M336 230q43 -42 43 -103q0 -71 -70 -145l-219 -248l-78 51l135 201q-38 13 -60 49q-21 35 -21 78q0 67 45 114q45 45 114 45q67 0 111 -42z" />
    <glyph glyph-name="hyphen" unicode="-" horiz-adv-x="1275" 
d="M1067 485h-864l22 177h867z" />
    <glyph glyph-name="period" unicode="." horiz-adv-x="446" 
d="M104 11q-41 41 -41 104q0 67 50 114q49 45 116 45q61 0 103 -42q41 -43 41 -103q0 -68 -47 -113q-46 -45 -115 -45q-67 0 -107 40z" />
    <glyph glyph-name="slash" unicode="/" horiz-adv-x="997" 
d="M115 0h-181l1018 1513h181z" />
    <glyph glyph-name="zero" unicode="0" horiz-adv-x="1310" 
d="M354 55q-114 83 -174 234q-61 150 -61 354q0 240 81 444q81 203 227 323t335 120q154 0 267 -83q111 -81 173 -234q60 -151 60 -355q0 -238 -80 -442q-79 -202 -226 -323q-147 -120 -335 -120q-155 0 -267 82zM846 258q96 90 151 247q54 157 54 347q0 231 -80 356
t-219 125q-119 0 -215 -90q-96 -88 -152 -245q-55 -155 -55 -349q0 -231 80 -356t219 -125q121 0 217 90z" />
    <glyph glyph-name="one" unicode="1" horiz-adv-x="772" 
d="M721 1497l-211 -1497h-201l160 1122h-352l20 140q147 0 251 65t132 170h201z" />
    <glyph glyph-name="two" unicode="2" horiz-adv-x="1093" 
d="M371 197h606l-29 -197h-917l22 172l621 580q203 194 203 342q0 120 -67 184q-68 65 -179 65q-137 0 -220 -95q-83 -96 -79 -244l-197 22q1 140 65 256q61 115 178 183q115 67 265 67q200 0 321 -112t121 -306q0 -125 -61 -240q-62 -116 -201 -249z" />
    <glyph glyph-name="three" unicode="3" horiz-adv-x="1187" 
d="M1120 1311l-420 -383q170 -18 272 -132q101 -115 101 -290q0 -149 -71 -271q-72 -121 -201 -192q-128 -70 -291 -70q-139 0 -241 53q-105 52 -163 148q-59 97 -59 221l203 51q-6 -125 67 -200q72 -76 199 -76q97 0 174 43q78 43 123 120t45 173q0 122 -74 196
q-75 72 -198 72q-67 0 -121 -16l-39 164l414 381l-613 2l27 192h893z" />
    <glyph glyph-name="four" unicode="4" horiz-adv-x="1245" 
d="M43 483l705 1014h239l-702 -1014h487l72 529h209l-76 -529h213l-27 -192h-213l-41 -291h-207l43 291l-729 2z" />
    <glyph glyph-name="five" unicode="5" horiz-adv-x="1167" 
d="M492 1305l-109 -375q51 38 124 61q71 21 146 21q122 0 222 -59q99 -61 154 -167q56 -109 56 -249q0 -161 -74 -291q-75 -129 -204 -201t-285 -72q-137 0 -240 58q-104 57 -162 163q-59 106 -59 246l205 35q-7 -141 66 -226t200 -85q91 0 170 47q76 46 124 130
q46 82 46 189q0 137 -75 218q-76 81 -197 81q-89 0 -169 -44q-78 -43 -124 -121h-205l238 833h797l-27 -192h-618z" />
    <glyph glyph-name="six" unicode="6" horiz-adv-x="1185" 
d="M903 936q100 -58 158 -166q57 -108 57 -246q0 -156 -72 -282q-73 -126 -201 -200q-127 -73 -284 -73q-141 0 -250 61q-110 60 -170 168q-61 106 -61 244q0 125 52 236q52 112 165 258l438 561h260l-405 -510q42 8 84 8q126 0 229 -59zM736 209q77 45 122 126t45 185
q0 134 -77 219q-78 84 -201 84q-93 0 -169 -48q-78 -49 -121 -131q-44 -83 -44 -187q0 -132 76 -212q75 -81 200 -81q93 0 169 45z" />
    <glyph glyph-name="seven" unicode="7" horiz-adv-x="1009" 
d="M1112 1497l-29 -190l-821 -1307h-244l826 1305h-723l26 192h965z" />
    <glyph glyph-name="eight" unicode="8" horiz-adv-x="1243" 
d="M1104 662q61 -91 61 -216q0 -136 -73 -243q-74 -109 -204 -171q-130 -63 -296 -63q-153 0 -263 52q-111 50 -172 143q-61 91 -61 213q0 154 96 271q94 115 238 153q-81 38 -130 114q-50 77 -50 175q0 124 67 224q67 102 184 160q116 58 267 58q192 0 311 -102
q117 -104 117 -273q0 -124 -68 -225q-70 -102 -182 -148q96 -32 158 -122zM542 1264q-81 -72 -81 -181q0 -92 65 -149q64 -57 168 -57q129 0 210 72q81 70 81 181q0 92 -64 149q-65 56 -171 56q-126 0 -208 -71zM849 246q99 80 99 209q0 109 -78 175q-80 66 -211 66
q-150 0 -250 -76t-100 -208q0 -113 78 -179q77 -67 213 -67q149 0 249 80z" />
    <glyph glyph-name="nine" unicode="9" horiz-adv-x="1202" 
d="M960 1470q109 -61 170 -170q60 -110 60 -249q0 -129 -51 -234q-53 -107 -164 -254l-440 -563h-265l404 510q-37 -8 -80 -8q-128 0 -228 60q-102 58 -159 167q-57 107 -57 244q0 156 73 283t199 200q128 74 285 74q143 0 253 -60zM812 722q78 49 121 131q44 83 44 187
q0 134 -76 214q-77 81 -203 81q-90 0 -166 -45q-78 -46 -122 -127q-45 -83 -45 -186q0 -135 78 -219q77 -84 198 -84q95 0 171 48z" />
    <glyph glyph-name="colon" unicode=":" horiz-adv-x="585" 
d="M239 799q-38 40 -38 96q0 62 44 108q44 44 109 44q61 0 100 -39q38 -40 38 -99q0 -62 -44 -106q-44 -43 -110 -43q-62 0 -99 39zM131 9q-39 38 -39 97q0 63 45 108q46 44 111 44q59 0 98 -39t39 -98q0 -66 -45 -108t-111 -42q-58 0 -98 38z" />
    <glyph glyph-name="semicolon" unicode=";" horiz-adv-x="538" 
d="M435 1008q38 -40 38 -99q0 -62 -44 -106q-43 -43 -107 -43q-61 0 -100 39q-40 39 -40 96q0 63 45 108q46 44 111 44q60 0 97 -39zM330 231q43 -40 43 -100q0 -34 -17 -68q-19 -36 -55 -75l-211 -244l-76 49l140 205q-39 12 -62 44q-24 32 -24 77q0 67 42 110t111 43
q65 0 109 -41z" />
    <glyph glyph-name="less" unicode="&#x3c;" horiz-adv-x="1150" 
d="M190 526l21 152l829 399l-24 -182l-641 -299l553 -324l-25 -168z" />
    <glyph glyph-name="equal" unicode="=" horiz-adv-x="1234" 
d="M1098 860l-23 -160h-862l20 160h865zM1040 463l-22 -160h-862l22 160h862z" />
    <glyph glyph-name="greater" unicode="&#x3e;" horiz-adv-x="1150" 
d="M160 287l641 299l-553 323l24 168l711 -424l-20 -149l-830 -400z" />
    <glyph glyph-name="question" unicode="?" horiz-adv-x="970" 
d="M340 492q1 97 64 179q65 86 194 206q76 70 113 109q32 35 54 76q21 42 21 97q0 94 -56 147q-55 52 -148 52q-116 0 -187 -75q-71 -76 -71 -179q0 -19 2 -35l-176 23q-8 122 46 222q54 101 159 161q104 59 239 59q172 0 279 -96q106 -97 106 -258q0 -101 -50 -190
t-165 -191l-43 -39q-92 -87 -139 -144q-46 -58 -50 -120l-2 -33h-190v29zM278 25q-45 43 -45 108q0 74 52 123q50 49 125 49q67 0 113 -44q44 -44 44 -109q0 -74 -52 -122q-53 -48 -124 -48q-70 0 -113 43z" />
    <glyph glyph-name="at" unicode="@" horiz-adv-x="1751" 
d="M1212 561q-6 -87 28 -124q35 -38 91 -38q109 0 177 110q67 109 67 292q0 180 -79 316q-79 135 -223 212q-145 76 -335 76q-205 0 -361 -90q-157 -90 -244 -253q-87 -164 -87 -374q0 -199 78 -355q76 -157 231 -247t369 -90q108 0 236 25q130 24 253 81v-131
q-114 -53 -245 -77q-135 -23 -244 -23q-247 0 -435 101q-187 102 -291 288q-104 187 -104 432q0 249 106 439q104 189 296 295q191 104 438 104q232 0 413 -92q178 -91 276 -257q97 -164 97 -378q0 -157 -49 -274q-50 -120 -138 -184q-89 -66 -204 -66q-90 0 -146 41
q-57 40 -73 98q-38 -62 -106 -99q-71 -38 -154 -38q-82 0 -152 43q-72 44 -113 128q-42 86 -42 207q0 126 44 226q43 97 122 153q77 54 176 54q78 0 137 -32t92 -83l25 90h108zM1033 490q61 82 61 221q0 120 -51 191q-52 69 -140 69q-101 0 -160 -84q-59 -85 -59 -225
q0 -126 48 -190q48 -66 134 -66q106 0 167 84z" />
    <glyph glyph-name="A" unicode="A" horiz-adv-x="1378" 
d="M989 326h-643l-162 -326h-233l768 1497h225l346 -1497h-229zM950 510l-102 467q-47 224 -51 274q-17 -46 -127 -274l-232 -467h512z" />
    <glyph glyph-name="B" unicode="B" horiz-adv-x="1247" 
d="M1115 625q42 -79 42 -181q0 -130 -63 -230q-65 -102 -180 -157q-117 -57 -273 -57h-557l211 1497h545q185 -1 286 -101q99 -100 99 -268q0 -133 -62 -228q-63 -94 -174 -150q84 -45 126 -125zM401 836h326q131 0 207 73q76 72 76 187q0 100 -58 155q-58 54 -161 54h-324z
M867 265q79 70 79 188q0 98 -58 152t-159 54h-350l-68 -466h346q131 0 210 72z" />
    <glyph glyph-name="C" unicode="C" horiz-adv-x="1529" 
d="M1179 77q-172 -108 -395 -108q-201 0 -351 87t-233 251t-83 385q0 240 97 433q97 192 271 301q174 108 396 108q236 0 403 -122q166 -121 217 -322l-194 -78q-38 151 -152 237q-116 86 -276 86q-157 0 -282 -83q-123 -82 -193 -230q-70 -147 -70 -332q0 -165 55 -282
q56 -120 157 -181q100 -63 234 -63q148 0 275 75q127 73 192 207l191 -67q-85 -195 -259 -302z" />
    <glyph glyph-name="D" unicode="D" horiz-adv-x="1392" 
d="M297 1497h408q203 0 349 -81q147 -82 223 -231q77 -152 77 -354q0 -242 -104 -430q-105 -187 -293 -294q-190 -107 -433 -107h-438zM522 190q180 0 321 81q141 82 217 226q77 145 77 326q0 225 -117 355q-117 129 -324 129h-225l-156 -1117h207z" />
    <glyph glyph-name="E" unicode="E" horiz-adv-x="1067" 
d="M297 1497h831l-26 -192h-631l-63 -453h567l-27 -190h-567l-68 -472h633l-28 -190h-832z" />
    <glyph glyph-name="F" unicode="F" horiz-adv-x="1034" 
d="M285 1497h837l-26 -190h-635l-68 -480h535l-27 -188h-534l-91 -639h-202z" />
    <glyph glyph-name="G" unicode="G" horiz-adv-x="1574" 
d="M1507 672q-11 -206 -107 -365q-98 -161 -258 -249q-161 -89 -362 -89q-197 0 -346 86t-233 248t-84 383q0 243 97 436q98 194 271 303t396 109q233 0 400 -122t220 -322l-194 -78q-38 150 -151 237q-115 86 -275 86q-159 0 -283 -84q-125 -84 -194 -231
q-70 -147 -70 -334q0 -245 122 -384q122 -138 326 -138q128 0 239 55q113 56 186 160q73 103 87 248h-495l24 174h680q6 -54 4 -129z" />
    <glyph glyph-name="H" unicode="H" horiz-adv-x="1357" 
d="M1339 1497l-211 -1497h-200l90 639h-641l-90 -639h-201l211 1497h201l-95 -668h641l95 668h200z" />
    <glyph glyph-name="I" unicode="I" horiz-adv-x="516" 
d="M86 0l211 1497h201l-211 -1497h-201z" />
    <glyph glyph-name="J" unicode="J" horiz-adv-x="1083" 
d="M66 485h194l-10 -67q-4 -33 -4 -56q0 -102 54 -153t151 -51q115 0 181 69q67 68 83 189l151 1081h205l-153 -1100q-28 -200 -155 -312q-125 -112 -314 -112q-188 0 -293 105q-105 103 -105 278q0 25 4 62z" />
    <glyph glyph-name="K" unicode="K" horiz-adv-x="1265" 
d="M801 856l375 -856h-236l-295 682l-311 -348l-47 -336h-201l211 1499h201l-115 -817l731 817h256z" />
    <glyph glyph-name="L" unicode="L" horiz-adv-x="1028" 
d="M924 190l-27 -190h-813l211 1497h203l-185 -1307h611z" />
    <glyph glyph-name="M" unicode="M" horiz-adv-x="1677" 
d="M297 1497h199l301 -1243l655 1243l207 -2l-211 -1495h-203l105 743q22 173 47 291l-537 -1028h-182l-248 1026q-5 -105 -33 -289l-104 -743h-207z" />
    <glyph glyph-name="N" unicode="N" horiz-adv-x="1423" 
d="M297 1497h199l548 -1145l160 1145h201l-211 -1497h-201l-544 1145l-162 -1145h-201z" />
    <glyph glyph-name="O" unicode="O" horiz-adv-x="1603" 
d="M435 61q-153 89 -235 252q-83 163 -83 379q0 233 97 426t273 304q176 110 396 110q199 0 350 -90t234 -254t83 -379q0 -238 -98 -429q-98 -192 -273 -300q-175 -109 -395 -109q-198 0 -349 90zM1068 254q125 83 195 227q70 143 70 322q0 159 -57 277t-160 184
q-104 65 -239 65q-155 0 -277 -82q-123 -82 -193 -226q-71 -145 -71 -323q0 -160 57 -278q55 -118 158 -183t237 -65q156 0 280 82z" />
    <glyph glyph-name="P" unicode="P" horiz-adv-x="1286" 
d="M297 1497h534q143 0 249 -54t162 -152q56 -100 56 -228q0 -153 -71 -272q-72 -119 -202 -183q-132 -65 -302 -65h-358l-78 -543h-201zM719 731q173 0 270 86q96 85 96 230q0 125 -74 193q-74 67 -202 67h-338l-80 -576h328z" />
    <glyph glyph-name="Q" unicode="Q" horiz-adv-x="1642" 
d="M1505 509q-45 -139 -129 -249l162 -154l-127 -120l-156 149q-97 -80 -215 -122q-120 -42 -256 -42q-198 0 -350 90q-152 89 -234 252q-83 163 -83 379q0 233 97 426t273 304q176 110 396 110q199 0 350 -90t234 -254t83 -379q0 -161 -45 -300zM1104 281l-232 221l125 116
l224 -210q113 169 112 395q0 159 -57 277t-160 184q-104 65 -239 65q-155 0 -277 -82q-123 -82 -193 -226q-71 -145 -71 -323q0 -160 57 -278q55 -118 158 -183t237 -65q180 0 316 109z" />
    <glyph glyph-name="R" unicode="R" horiz-adv-x="1335" 
d="M1228 764q-92 -123 -251 -174l164 -590h-228l-143 557h-10h-393l-80 -557h-201l211 1497h561q137 0 242 -54q104 -54 162 -153q57 -100 57 -233q0 -171 -91 -293zM1015 820q93 82 93 220q0 121 -73 194t-201 73h-363l-78 -570h361q167 0 261 83z" />
    <glyph glyph-name="S" unicode="S" horiz-adv-x="1204" 
d="M961 1092q-8 120 -81 184q-74 65 -194 65q-125 0 -209 -66q-84 -67 -84 -177q0 -158 201 -217l203 -62q144 -45 224 -150q79 -106 79 -245q0 -135 -69 -237q-70 -103 -191 -157q-120 -55 -273 -55q-154 0 -265 56q-114 55 -175 154q-61 97 -64 225l193 30q6 -127 94 -202
q88 -76 232 -76q135 0 216 66q81 64 81 178q0 84 -48 140q-50 56 -133 81l-202 61q-317 101 -318 383q0 132 65 238q66 106 179 163q115 58 264 58q198 0 328 -104q130 -105 143 -285z" />
    <glyph glyph-name="T" unicode="T" horiz-adv-x="1175" 
d="M1233 1307h-438l-183 -1307h-202l182 1307h-440l28 190h1082z" />
    <glyph glyph-name="U" unicode="U" horiz-adv-x="1390" 
d="M279 1497h204l-133 -942q-6 -45 -6 -86q0 -148 79 -227q80 -80 226 -80q167 0 271 104q101 103 127 289l133 942h202l-133 -956q-39 -273 -202 -421q-164 -149 -404 -149q-153 0 -266 58q-115 57 -177 167q-63 110 -63 257q0 26 8 104z" />
    <glyph glyph-name="V" unicode="V" horiz-adv-x="1333" 
d="M379 1497l248 -1204l583 1204h244l-752 -1497h-208l-334 1497h219z" />
    <glyph glyph-name="W" unicode="W" horiz-adv-x="1972" 
d="M393 1497l92 -1151l523 1151h204l197 -1149l436 1149h230l-590 -1497h-217l-205 1153l-533 -1153h-202l-152 1497h217z" />
    <glyph glyph-name="X" unicode="X" horiz-adv-x="1294" 
d="M559 766l-344 731h221l269 -573l28 34l178 228l246 311h244l-590 -741l360 -756h-225l-282 596q-16 -22 -36 -47q-13 -15 -44 -57q-65 -83 -172 -224l-211 -268h-240z" />
    <glyph glyph-name="Y" unicode="Y" horiz-adv-x="1193" 
d="M379 1497l162 -440l43 -121q22 -52 45 -123q18 31 78 117l86 131l286 436h240l-610 -881l-86 -616h-205l86 616l-350 881h225z" />
    <glyph glyph-name="Z" unicode="Z" horiz-adv-x="1150" 
d="M45 186l877 1119h-709l27 190l968 2l-24 -186l-879 -1121h699l-27 -190h-959z" />
    <glyph glyph-name="bracketleft" unicode="[" horiz-adv-x="659" 
d="M483 -307h-448l280 2005h449l-23 -166h-266l-235 -1673h268z" />
    <glyph glyph-name="backslash" unicode="\" horiz-adv-x="1419" 
d="M326 1513l1017 -1513h-180l-1018 1513h181z" />
    <glyph glyph-name="bracketright" unicode="]" horiz-adv-x="657" 
d="M238 -141l235 1673h-266l22 166h449l-283 -2005h-448l22 166h269z" />
    <glyph glyph-name="asciicircum" unicode="^" horiz-adv-x="1011" 
d="M625 1341l-181 -303h-170l301 459h138l172 -459h-166z" />
    <glyph glyph-name="underscore" unicode="_" horiz-adv-x="970" 
d="M-76 -43h969l-21 -160h-970z" />
    <glyph glyph-name="grave" unicode="`" horiz-adv-x="409" 
d="M223 1303l-227 276h211l170 -276h-154z" />
    <glyph glyph-name="a" unicode="a" horiz-adv-x="1157" 
d="M1087 1012l-141 -1012h-188l18 127q-52 -75 -136 -115q-87 -41 -183 -41q-171 0 -274 120q-105 120 -105 339q0 169 65 311q65 139 180 222q115 81 261 81q104 0 184 -45t117 -120l28 133h174zM675 193q73 55 114 153q40 96 40 223q0 159 -63 235q-65 77 -166 77
q-94 0 -168 -59q-75 -61 -113 -160q-40 -99 -40 -218q0 -151 64 -228q63 -79 169 -79q89 0 163 56z" />
    <glyph glyph-name="b" unicode="b" horiz-adv-x="1153" 
d="M978 921q99 -125 99 -333q0 -178 -66 -318q-67 -140 -183 -220q-116 -79 -263 -79q-107 0 -183 46q-78 48 -112 128l-30 -145h-172l213 1513h194l-84 -608q56 64 138 101q84 38 178 38q172 0 271 -123zM715 193q77 55 120 153q44 99 44 223q0 147 -60 230q-61 82 -170 82
q-85 0 -159 -53q-75 -55 -119 -154q-45 -100 -45 -232q0 -152 60 -228q60 -77 163 -77q89 0 166 56z" />
    <glyph glyph-name="c" unicode="c" horiz-adv-x="1116" 
d="M293 32q-105 60 -162 170t-57 257q0 159 68 295q67 135 190 214q122 79 280 79q171 0 286 -90q117 -92 142 -244l-176 -56q-12 95 -79 153t-173 58q-99 0 -175 -52q-77 -53 -120 -143t-43 -206q0 -150 72 -233q72 -84 197 -84q104 0 181 56q76 55 105 146l172 -61
q-46 -147 -175 -233q-128 -87 -294 -87q-136 0 -239 61z" />
    <glyph glyph-name="d" unicode="d" horiz-adv-x="1157" 
d="M1159 1513l-213 -1513h-178l12 131q-50 -75 -134 -118q-82 -42 -185 -42q-172 0 -277 120q-106 119 -106 339q0 169 65 311q65 140 181 222q116 81 262 81q99 0 176 -43q78 -44 117 -112l86 624h194zM675 193q73 55 114 153q40 96 40 223q0 159 -63 235q-65 77 -166 77
q-94 0 -168 -59q-75 -61 -113 -160q-40 -99 -40 -218q0 -151 64 -228q63 -79 169 -79q89 0 163 56z" />
    <glyph glyph-name="e" unicode="e" horiz-adv-x="1116" 
d="M832 991q96 -57 146 -155q50 -100 50 -224q0 -42 -6 -88q-6 -42 -21 -92h-731q-10 -140 62 -219q70 -78 205 -78q112 0 188 52q76 51 109 139l161 -60q-59 -141 -182 -218q-124 -77 -285 -77q-210 0 -328 127q-120 128 -120 351q0 164 65 302q65 137 183 216
q119 80 276 80q130 0 228 -56zM389 802q-82 -80 -100 -216h549q2 18 2 43q0 118 -64 186q-65 68 -180 68q-124 0 -207 -81z" />
    <glyph glyph-name="f" unicode="f" horiz-adv-x="843" 
d="M636 1304q-50 -52 -65 -145l-20 -147h297l-25 -170h-297l-116 -842h-195l117 842h-226l25 170h225l23 162q51 354 389 354q78 0 150 -21l-23 -161q-75 8 -115 8q-94 0 -144 -50z" />
    <glyph glyph-name="g" unicode="g" horiz-adv-x="1155" 
d="M1085 1012l-143 -1028q-32 -213 -166 -330q-135 -117 -344 -117q-186 0 -307 93q-120 94 -137 243l164 68q17 -110 92 -172q76 -62 196 -62q130 0 210 75q78 74 98 210l26 178q-50 -69 -132 -107t-181 -38q-176 0 -278 118q-103 116 -103 318q0 159 62 294t172 212
t255 77q111 0 192 -45q80 -45 118 -120l26 133h180zM677 239q73 49 114 141q40 90 40 204q0 138 -62 218q-61 79 -173 79q-90 0 -163 -54q-73 -55 -112 -147q-40 -90 -40 -201q0 -139 64 -215q63 -76 171 -76q88 0 161 51z" />
    <glyph glyph-name="h" unicode="h" horiz-adv-x="1126" 
d="M939 960q83 -89 83 -235q0 -35 -6 -76l-90 -649h-195l84 606q4 17 4 62q0 97 -49 147q-50 51 -135 51q-121 0 -197 -79t-94 -207l-82 -578h-194l213 1511h194l-86 -612q57 71 139 108q84 38 181 38q147 0 230 -87z" />
    <glyph glyph-name="i" unicode="i" horiz-adv-x="481" 
d="M267 1306q-36 33 -36 87q0 59 40 99t104 40q54 0 89 -34q36 -34 36 -87q0 -61 -41 -100t-103 -39q-54 0 -89 34zM406 1012l-142 -1012h-190l141 1012h191z" />
    <glyph glyph-name="j" unicode="j" horiz-adv-x="497" 
d="M285 1306q-35 33 -35 87q0 61 40 100t101 39q54 0 89 -34q36 -34 36 -87q0 -61 -41 -100t-102 -39q-54 0 -88 34zM-246 -455l23 162q55 -6 98 -6q95 0 144 47q47 47 59 137l160 1127h194l-162 -1145q-25 -172 -126 -256q-100 -84 -261 -84q-59 0 -129 18z" />
    <glyph glyph-name="k" unicode="k" horiz-adv-x="1021" 
d="M649 621l258 -621h-223l-186 471l-197 -190l-39 -281h-194l213 1513h194l-133 -948l457 447h252z" />
    <glyph glyph-name="l" unicode="l" horiz-adv-x="468" 
d="M281 1513h190l-213 -1513l-190 2z" />
    <glyph glyph-name="m" unicode="m" horiz-adv-x="1650" 
d="M1479 966q80 -82 80 -225q0 -39 -7 -77l-92 -664h-194l88 639q4 36 4 57q0 91 -44 135q-43 43 -120 43q-95 0 -160 -65q-66 -67 -82 -176l-88 -633h-198l90 645q4 33 4 51q0 88 -45 133t-123 45q-99 0 -160 -67q-63 -67 -78 -174l-88 -631h-196l141 1010h174l-4 -103
q38 60 113 100q74 38 161 38q105 0 179 -53q74 -54 96 -144q46 93 133 145q88 52 197 52q140 0 219 -81z" />
    <glyph glyph-name="n" unicode="n" horiz-adv-x="1118" 
d="M941 961q85 -86 85 -230q0 -35 -6 -72l-90 -659h-197l88 618q4 33 4 52q0 96 -52 148t-140 52q-118 0 -195 -80q-75 -80 -92 -202l-82 -586h-194l141 1010h174l-8 -135q51 80 140 125t192 45q146 0 232 -86z" />
    <glyph glyph-name="o" unicode="o" horiz-adv-x="1142" 
d="M141 751q65 134 183 215q119 81 274 81q138 0 241 -61q102 -61 160 -175q56 -114 56 -258q0 -155 -63 -289q-64 -134 -183 -213q-119 -80 -277 -80q-137 0 -240 61q-105 61 -160 172q-56 112 -56 257q0 154 65 290zM345 231q71 -86 190 -86q91 0 165 53q72 52 114 144
q42 91 42 205q0 150 -69 237q-71 86 -189 86q-92 0 -166 -53t-116 -146t-42 -206q0 -148 71 -234z" />
    <glyph glyph-name="p" unicode="p" horiz-adv-x="1153" 
d="M981 921q100 -124 100 -337q0 -169 -63 -308q-65 -142 -176 -222q-112 -81 -256 -81q-108 0 -188 48q-77 45 -113 118l-82 -569h-195l203 1442h170l-8 -140q52 79 140 126q86 46 194 46q173 0 274 -123zM725 196q76 60 115 158q41 100 41 219q0 147 -63 228
q-65 80 -171 80q-90 0 -162 -54q-73 -55 -115 -155t-42 -230q0 -152 61 -228q60 -77 166 -77q96 0 170 59z" />
    <glyph glyph-name="q" unicode="q" horiz-adv-x="1150" 
d="M1081 1012l-202 -1442h-195l76 536q-51 -63 -129 -99t-174 -36q-178 0 -281 121q-104 122 -104 338q0 171 64 311q63 139 179 222q115 81 263 81q101 0 180 -41q78 -42 114 -114l17 123h192zM669 192q72 54 113 152q41 99 41 225q0 154 -61 233t-168 79q-95 0 -169 -59
q-72 -59 -113 -159q-40 -99 -40 -219q0 -152 63 -229q61 -78 169 -78q92 0 165 55z" />
    <glyph glyph-name="r" unicode="r" horiz-adv-x="722" 
d="M733 1012l-24 -189q-44 6 -95 6q-244 0 -282 -272l-80 -557h-193l142 1012h178l-6 -135q38 71 109 108q70 37 157 37q41 0 94 -10z" />
    <glyph glyph-name="s" unicode="s" horiz-adv-x="897" 
d="M664 725q4 73 -41 119q-45 45 -127 45q-85 0 -134 -43q-51 -44 -51 -111q0 -51 32 -78q31 -28 93 -43l152 -41q104 -27 159 -96q54 -69 54 -166q0 -157 -115 -248q-116 -92 -295 -92q-171 0 -268 84q-98 84 -92 226l176 28q-5 -79 45 -129q49 -49 147 -49q91 0 146 42
t55 116q0 85 -102 117l-162 45q-225 66 -225 260q0 150 108 243q107 93 283 93q155 0 246 -77q90 -77 92 -206z" />
    <glyph glyph-name="t" unicode="t" horiz-adv-x="827" 
d="M449 319q-1 -10 -2 -19.5t-2 -17t-1 -10.5q0 -68 34 -96q35 -29 102 -29q54 0 120 13l-22 -156q-38 -12 -85 -18q-48 -6 -87 -6q-125 0 -191 69q-67 67 -67 189q0 33 6 69l76 535h-236l23 170h235l39 270l195 16l-41 -286h272l-22 -170h-273z" />
    <glyph glyph-name="u" unicode="u" horiz-adv-x="1118" 
d="M1049 1010l-142 -1010h-174l10 137q-45 -76 -130 -121t-189 -45q-150 0 -234 87t-84 239q0 42 7 78l90 637h194l-86 -615q-4 -36 -4 -55q0 -94 53 -145q52 -52 142 -52q112 0 183 74q69 73 87 209l82 582h195z" />
    <glyph glyph-name="v" unicode="v" horiz-adv-x="1034" 
d="M317 1012l93 -439l69 -344q39 91 144 310l233 473h217l-522 -1012h-195l-252 1012h213z" />
    <glyph glyph-name="w" unicode="w" horiz-adv-x="1560" 
d="M319 1012l115 -725l47 110l76 176l195 439h194l119 -725q15 41 55 135l29 70l231 520h209l-456 -1012h-203l-119 727q-37 -90 -117 -262l-209 -465h-196l-174 1012h204z" />
    <glyph glyph-name="x" unicode="x" horiz-adv-x="978" 
d="M354 510l-250 502h228l63 -138q35 -75 62 -129q48 -102 49 -104l274 371h224l-388 -508l261 -504h-226l-47 96l-131 269l-272 -365h-224z" />
    <glyph glyph-name="y" unicode="y" horiz-adv-x="1011" 
d="M1057 1012l-674 -1440h-201l215 465l-303 975h207l213 -723l336 723h207z" />
    <glyph glyph-name="z" unicode="z" horiz-adv-x="944" 
d="M61 178l576 651h-479l24 183h723l-28 -189l-564 -641h478l-25 -182h-729z" />
    <glyph glyph-name="braceleft" unicode="{" horiz-adv-x="659" 
d="M476 1615q106 79 286 75l-23 -160q-109 0 -156 -50q-49 -50 -65 -159l-49 -344q-23 -175 -141 -272q77 -59 75 -197q0 -38 -6 -88l-47 -354q-4 -33 -4 -50q0 -93 50 -131q49 -37 110 -37l-25 -155q-143 0 -232 74q-89 75 -89 223q0 46 4 67l49 342q6 37 6 64
q0 78 -40 112q-41 33 -128 33v4l21 156q68 1 134 49q63 46 83 170l51 350q28 198 136 278z" />
    <glyph glyph-name="bar" unicode="|" horiz-adv-x="606" 
d="M350 1530h193l-254 -1802h-193z" />
    <glyph glyph-name="braceright" unicode="}" horiz-adv-x="657" 
d="M659 768l-22 -156q-67 0 -132 -47t-83 -170l-49 -350q-28 -198 -136 -278q-109 -78 -288 -74l20 160q111 0 159 50q49 50 65 158l47 345q27 176 141 272q-74 63 -74 199q0 39 6 88l49 352q1 10 2 19.5t2 17t1 10.5q0 93 -50 131q-51 37 -110 39l20 156q142 0 233 -74
q89 -74 89 -221q0 -47 -4 -70l-47 -342q-6 -38 -6 -65q0 -77 41 -112q40 -34 126 -34v-4z" />
    <glyph glyph-name="asciitilde" unicode="~" horiz-adv-x="1132" 
d="M237 685q60 60 144 60q41 0 88 -14q42 -13 113 -41q60 -25 101 -37q40 -12 77 -12q51 0 77 29q25 28 25 78h121q8 -137 -58 -200q-67 -63 -159 -63q-53 0 -101 16q-47 14 -120 44q-58 26 -94 36q-39 11 -68 11q-45 0 -63 -31q-19 -31 -15 -76h-123q-6 140 55 200z" />
    <glyph glyph-name="exclamdown" unicode="&#xa1;" horiz-adv-x="606" 
d="M490 1089q45 -47 45 -116q0 -70 -50 -118q-51 -48 -125 -48q-72 0 -116 44q-45 43 -45 112q0 73 50 123q49 49 124 49q71 0 117 -46zM387 602l-106 -999h-203l176 999h133z" />
    <glyph glyph-name="cent" unicode="&#xa2;" horiz-adv-x="1335" 
d="M909 221q102 72 142 185l172 -60q-55 -166 -206 -269q-152 -104 -343 -104q-58 0 -101 9l-51 -211h-104l57 235q-168 58 -264 215q-96 156 -96 381q0 201 80 363q79 159 222 249q143 89 324 89q33 0 52 -3l47 197h108l-53 -215q134 -34 231 -130q95 -95 125 -228
l-172 -66q-19 90 -80 155q-61 64 -147 91l-236 -950q36 -4 64 -4q126 0 229 71zM362 341q55 -107 156 -157l230 938h-15q-129 0 -226 -67q-96 -66 -149 -185q-53 -120 -53 -268q0 -153 57 -261z" />
    <glyph glyph-name="sterling" unicode="&#xa3;" horiz-adv-x="1181" 
d="M558 1275q-93 -73 -93 -218q0 -91 45 -234h432l-39 -151h-364q14 -86 14 -135q0 -110 -38 -198q-37 -85 -103 -142h610l-27 -197h-989l29 205q114 -6 209 62q94 67 110 200q6 97 -22 205h-209l20 151h148q-35 117 -35 219q0 227 145 359q145 131 387 131q96 0 197 -23
q97 -24 164 -65l-70 -170q-61 33 -135 54q-75 20 -135 20q-159 0 -251 -73z" />
    <glyph glyph-name="currency" unicode="&#xa4;" horiz-adv-x="1163" 
d="M219 406q-47 89 -47 194q0 86 30 168q28 82 87 147l-109 158l139 109l109 -156q94 57 221 57q63 0 120 -15q58 -16 97 -46l160 160l121 -117l-164 -162q49 -85 49 -196q0 -87 -30 -169q-32 -84 -89 -147l113 -155l-139 -109l-115 154q-87 -54 -219 -56q-65 0 -119 16
q-55 15 -94 44l-162 -158l-121 117zM412 452q57 -59 155 -59q79 0 143 39t102 107t38 153q0 101 -56 163q-57 60 -157 60q-118 0 -201 -80q-82 -81 -82 -214q0 -111 58 -169z" />
    <glyph glyph-name="yen" unicode="&#xa5;" horiz-adv-x="1359" 
d="M901 829h250l-21 -151h-329l-21 -137h332l-25 -150h-329l-58 -391h-190l55 391h-321l20 150h322l18 137h-321l22 151h244l-303 670h221l250 -633l442 633h238z" />
    <glyph glyph-name="brokenbar" unicode="&#xa6;" horiz-adv-x="608" 
d="M352 1530h191l-107 -748h-190zM205 475h190l-106 -747h-191z" />
    <glyph glyph-name="section" unicode="&#xa7;" horiz-adv-x="923" 
d="M725 1151q8 83 -41 135q-50 53 -137 53q-77 0 -117 -37q-41 -38 -41 -96q0 -47 31 -78q32 -32 90 -59l141 -59q104 -44 153 -112q48 -69 48 -148q0 -99 -61 -167q-62 -69 -154 -83q150 -86 149 -240q0 -130 -96 -209q-97 -80 -246 -80q-146 0 -249 80q-103 79 -103 213
q0 19 2 33l168 18q-8 -85 41 -136q49 -52 139 -52q75 0 116 37q42 38 42 94q0 49 -29 81q-32 33 -94 58l-137 60q-205 85 -205 256q0 101 64 172q64 72 157 82q-156 84 -155 237q0 128 93 211q92 82 245 82q101 0 186 -41q83 -40 129 -115q45 -76 41 -172zM365 835
q-37 -37 -37 -94q0 -68 53 -106q53 -39 125 -39q74 0 112 38q37 37 37 93q0 65 -53 106q-52 39 -127 39q-74 0 -110 -37z" />
    <glyph glyph-name="dieresis" unicode="&#xa8;" horiz-adv-x="858" 
d="M254 1342q-33 32 -33 83q0 53 39 91q40 38 94 38q50 0 84 -32q33 -33 33 -86q0 -52 -38 -90q-37 -37 -97 -37q-49 0 -82 33zM634 1342q-34 31 -34 83q0 53 39 91q40 38 94 38q52 0 84 -31q33 -31 33 -87q0 -53 -37 -90t-96 -37q-49 0 -83 33z" />
    <glyph glyph-name="copyright" unicode="&#xa9;" horiz-adv-x="1705" 
d="M496 71q-177 100 -278 280q-101 179 -101 399q0 219 101 398q100 178 278 282q176 102 393 102q215 0 391 -102q177 -104 277 -282t100 -398t-100 -398q-100 -180 -277 -281q-176 -102 -391 -102q-217 0 -393 102zM1217 177q144 85 227 235q82 148 82 338q0 188 -82 339
q-83 152 -227 236q-146 86 -328 86t-328 -86q-147 -86 -230 -236q-83 -152 -83 -339t83 -338q82 -149 230 -235q145 -85 328 -85t328 85zM708 387q-85 55 -131 152q-47 97 -47 211q0 118 48 212q47 95 132 149q86 54 195 54q125 0 216 -66q90 -67 116 -177l-135 -39
q-11 75 -64 119q-56 45 -135 45q-111 0 -172 -84q-61 -83 -61 -213q0 -128 62 -213q62 -84 171 -84q79 0 135 45q54 45 64 118l137 -28q-22 -116 -115 -186q-91 -70 -221 -70q-110 0 -195 55z" />
    <glyph glyph-name="ordfeminine" unicode="&#xaa;" horiz-adv-x="638" 
d="M494 1410q59 -59 59 -157v-395h-113v80q-25 -45 -73 -70q-49 -26 -109 -26q-85 0 -137 49q-53 50 -53 131q0 85 55 134q56 50 156 50h100q31 0 44 15q13 13 13 45q0 52 -31 77t-88 25q-58 0 -95 -28t-42 -76l-94 28q14 86 78 131q63 45 160 45q111 0 170 -58zM436 1118
h-137q-111 0 -111 -88q0 -41 27 -64q27 -24 76 -24q68 0 107 41q38 41 38 107v28z" />
    <glyph glyph-name="guillemotleft" unicode="&#xab;" horiz-adv-x="1200" 
d="M489 1012h232l-410 -494l271 -465h-220l-284 479zM971 1012h231l-411 -494l272 -465h-219l-285 479z" />
    <glyph glyph-name="logicalnot" unicode="&#xac;" horiz-adv-x="1224" 
d="M1061 274h-176v308h-721v170h897v-478z" />
    <glyph glyph-name="registered" unicode="&#xae;" horiz-adv-x="1181" 
d="M402 588q-115 63 -178 178q-64 115 -64 260q0 147 64 262q63 116 178 180q113 64 262 64q147 0 262 -64q114 -65 179 -179q64 -115 64 -263q0 -145 -64 -260q-64 -114 -179 -178t-262 -64q-149 0 -262 64zM862 690q87 50 134 136q48 87 48 200q0 174 -105 282
q-105 107 -275 107t-275 -107q-106 -107 -106 -282q0 -113 48 -200q48 -86 135 -136q86 -49 198 -49q113 0 198 49zM524 1284h211q74 0 119 -39t45 -108q0 -56 -31 -100q-30 -45 -88 -62l74 -193h-119l-59 174h-88l-25 -174h-110zM692 1040q43 0 70 24q26 23 26 60
q0 32 -20 52q-20 18 -55 18h-92l-23 -154h94z" />
    <glyph glyph-name="macron" unicode="&#xaf;" horiz-adv-x="794" 
d="M766 1536l-21 -147h-583l20 147h584z" />
    <glyph glyph-name="degree" unicode="&#xb0;" horiz-adv-x="718" 
d="M248 1025q-82 81 -82 214q0 129 83 210t208 81t208 -81t83 -210q0 -133 -83 -214t-208 -81q-127 0 -209 81zM569 1125q43 43 43 114q0 69 -44 113q-43 43 -111 43q-65 0 -109 -45q-43 -44 -43 -111q0 -71 43 -114q44 -44 111 -44q66 0 110 44z" />
    <glyph glyph-name="plusminus" unicode="&#xb1;" horiz-adv-x="1269" 
d="M180 776h414l43 320h160l-47 -320h415l-22 -153h-414l-45 -322h-158l45 322h-413zM92 154h985l-20 -154h-985z" />
    <glyph glyph-name="uni00B2" unicode="&#xb2;" horiz-adv-x="899" 
d="M420 698h418l-25 -163l-674 -3l21 144l442 420q69 64 95 115q28 52 28 108q0 72 -43 109q-44 38 -115 38q-92 0 -144 -61q-51 -60 -56 -162l-164 19q5 104 50 185q47 83 130 132t199 49q144 0 230 -79q87 -79 87 -210q0 -111 -48 -192q-48 -83 -132 -162z" />
    <glyph glyph-name="uni00B3" unicode="&#xb3;" horiz-adv-x="917" 
d="M907 1450l-280 -254q112 -13 183 -94q71 -80 71 -205q0 -108 -53 -196q-53 -89 -143 -137q-92 -50 -208 -50q-154 0 -248 85t-90 220l168 39q-7 -82 42 -130q50 -48 134 -48q96 0 156 60q59 61 59 153q0 81 -50 131q-49 49 -132 49q-42 0 -84 -16l-33 139l269 244h-414
l25 164h649z" />
    <glyph glyph-name="acute" unicode="&#xb4;" horiz-adv-x="481" 
d="M440 1579h203l-231 -276h-156z" />
    <glyph glyph-name="paragraph" unicode="&#xb6;" horiz-adv-x="1363" 
d="M1004 -219h-162l225 1605h-285l-225 -1605h-166l137 979q-151 0 -246 92q-94 91 -94 244q0 126 60 227q58 99 163 157q104 56 228 56h766l-21 -150h-153z" />
    <glyph glyph-name="periodcentered" unicode="&#xb7;" horiz-adv-x="657" 
d="M190 397q-59 56 -59 142q0 88 63 151q62 62 152 62q82 0 142 -57q59 -59 59 -140q0 -90 -62 -152q-63 -63 -153 -63q-83 0 -142 57z" />
    <glyph glyph-name="cedilla" unicode="&#xb8;" horiz-adv-x="571" 
d="M317 -12l-45 -86q68 5 113 -33q45 -37 45 -102q0 -73 -56 -117q-56 -43 -141 -43q-81 0 -131 43t-49 110h117q0 -25 16 -38q14 -13 43 -13q31 0 50 15q18 16 18 45q0 27 -18 40q-19 13 -48 13q-13 0 -34 -4l-50 24l86 170z" />
    <glyph glyph-name="uni00B9" unicode="&#xb9;" horiz-adv-x="569" 
d="M635 1604l-152 -1072h-164l111 777h-221l16 118q109 0 167 46q58 44 79 131h164z" />
    <glyph glyph-name="ordmasculine" unicode="&#xba;" horiz-adv-x="657" 
d="M137 1387q71 83 191 83q124 0 194 -82t70 -229q0 -144 -71 -229q-72 -84 -193 -84q-120 0 -191 83t-71 228t71 230zM225 1007q37 -55 103 -55q67 0 104 55q37 53 37 152q0 95 -38 150q-38 53 -103 53q-64 0 -101 -54q-39 -56 -39 -149q0 -99 37 -152z" />
    <glyph glyph-name="guillemotright" unicode="&#xbb;" horiz-adv-x="1200" 
d="M649 532l-409 -479h-234l412 492l-273 467h222zM1130 532l-411 -479h-234l412 492l-270 467h219z" />
    <glyph glyph-name="onequarter" unicode="&#xbc;" horiz-adv-x="1884" 
d="M451 1194h-193l14 104q97 0 147 40q51 42 70 116h142l-133 -946h-142zM1487 1454l-1004 -1454h-139l1002 1454h141zM1686 317l-21 -141h-135l-25 -176h-147l24 176h-452l20 141l430 629h174l-434 -629h283l45 322h147l-45 -322h136z" />
    <glyph glyph-name="onehalf" unicode="&#xbd;" horiz-adv-x="1923" 
d="M451 1194h-193l14 104q97 0 147 40q51 42 70 116h142l-133 -946h-142zM1456 1454l-1003 -1454h-140l1002 1454h141zM1329 145h361l-21 -145h-588l19 127l391 369q62 58 88 105q25 46 25 97q0 58 -37 92q-38 35 -101 35q-82 0 -131 -55q-48 -54 -53 -143l-141 18
q1 89 45 162q44 74 119 117q74 43 176 43q125 0 199 -68q73 -67 73 -182q0 -100 -40 -173t-118 -145z" />
    <glyph glyph-name="threequarters" unicode="&#xbe;" horiz-adv-x="2080" 
d="M1149 317l430 629h174l-434 -629h283l45 322h147l-45 -322h135l-20 -141h-135l-25 -176h-148l25 176h-453zM682 0h-139l1001 1454h142zM891 1319l-250 -223q103 -8 165 -75q60 -67 60 -173q0 -101 -47 -184q-46 -82 -132 -127q-85 -45 -193 -45q-133 0 -210 74
q-77 76 -73 196l149 35q-6 -73 36 -117q42 -43 116 -43q87 0 143 56q54 54 56 145q0 68 -43 107q-43 40 -113 40q-47 0 -82 -12l-31 121l236 215l-363 2l21 143h573z" />
    <glyph glyph-name="questiondown" unicode="&#xbf;" horiz-adv-x="972" 
d="M711 1104q45 -44 45 -109q0 -73 -51 -123q-52 -49 -125 -49q-68 0 -112 44t-44 110q0 74 50 122t122 48q71 0 115 -43zM647 639q-1 -99 -62 -182q-61 -82 -196 -205q-85 -82 -111 -109q-33 -36 -53 -76q-22 -41 -22 -98q0 -93 56 -146q55 -52 149 -52q118 0 189 75
q69 77 69 181q0 20 -2 32l174 -22q7 -121 -45 -223q-54 -101 -158 -161q-106 -59 -240 -59q-174 0 -279 96q-106 97 -106 259q0 102 51 189q49 87 162 192l33 30q101 93 146 149q49 59 55 126l2 31h188v-27z" />
    <glyph glyph-name="Agrave" unicode="&#xc0;" horiz-adv-x="1378" 
d="M756 1608l-228 276h211l170 -276h-153zM989 326h-643l-162 -326h-233l768 1497h225l346 -1497h-229zM950 510l-102 467q-47 224 -51 274q-17 -46 -127 -274l-232 -467h512z" />
    <glyph glyph-name="Aacute" unicode="&#xc1;" horiz-adv-x="1378" 
d="M948 1874h203l-231 -277h-156zM989 326h-643l-162 -326h-233l768 1497h225l346 -1497h-229zM950 510l-102 467q-47 224 -51 274q-17 -46 -127 -274l-232 -467h512z" />
    <glyph glyph-name="Acircumflex" unicode="&#xc2;" horiz-adv-x="1378" 
d="M930 1595l-68 160l-106 -160h-185l213 277h179l133 -277h-166zM989 326h-643l-162 -326h-233l768 1497h225l346 -1497h-229zM950 510l-102 467q-47 224 -51 274q-17 -46 -127 -274l-232 -467h512z" />
    <glyph glyph-name="Atilde" unicode="&#xc3;" horiz-adv-x="1378" 
d="M817 1850q39 -18 70 -38q29 -18 48 -27t42 -9q33 0 52 24q18 22 13 58h125q4 -111 -50 -173q-54 -63 -140 -63q-40 0 -73 14q-38 16 -73 37q-22 16 -40 25q-20 10 -39 10q-31 0 -49 -23q-19 -23 -13 -61h-125q-6 107 46 172q51 66 139 66q38 0 67 -12zM989 326h-643
l-162 -326h-233l768 1497h225l346 -1497h-229zM950 510l-102 467q-47 224 -51 274q-17 -46 -127 -274l-232 -467h512z" />
    <glyph glyph-name="Adieresis" unicode="&#xc4;" horiz-adv-x="1378" 
d="M582 1647q-33 31 -33 84t39 91q40 38 94 38q51 0 84 -33t33 -86q0 -52 -38 -90q-37 -37 -97 -37q-50 0 -82 33zM962 1647q-34 31 -34 84t39 91q40 38 94 38q50 0 84 -32q33 -32 33 -87q0 -53 -37 -90t-97 -37q-49 0 -82 33zM989 326h-643l-162 -326h-233l768 1497h225
l346 -1497h-229zM950 510l-102 467q-47 224 -51 274q-17 -46 -127 -274l-232 -467h512z" />
    <glyph glyph-name="Aring" unicode="&#xc5;" horiz-adv-x="1378" 
d="M989 326h-643l-162 -326h-233l768 1497h8q-53 29 -84 81t-31 118q0 73 38 131q37 57 100 89q62 32 131 32q100 0 163 -63q62 -65 62 -163q0 -80 -45 -141q-45 -62 -115 -90l344 -1491h-229zM781 1790q-36 -38 -36 -90q0 -47 30 -77t75 -30q50 0 88 36q37 36 37 89
q0 49 -30 79t-75 30q-53 0 -89 -37zM950 510l-102 467q-47 224 -51 274q-17 -46 -127 -274l-232 -467h512z" />
    <glyph glyph-name="AE" unicode="&#xc6;" horiz-adv-x="1779" 
d="M1202 1264l-61 -435h549l-27 -188h-549l-63 -453h610l-27 -188h-809l45 313h-471l-206 -313h-240l979 1454h907l-27 -190h-610zM895 496l102 723l-477 -723h375z" />
    <glyph glyph-name="Ccedilla" unicode="&#xc7;" horiz-adv-x="1529" 
d="M1055 239q127 73 192 207l191 -67q-83 -186 -247 -294q-166 -109 -376 -116l-31 -59q68 5 113 -33q45 -37 45 -102q0 -73 -56 -117q-56 -43 -141 -43q-81 0 -131 43q-51 43 -49 111h117q0 -26 16 -39q14 -13 43 -13q31 0 50 15q18 16 18 45q0 27 -18 40q-19 13 -48 13
q-13 0 -34 -4l-50 24l62 121q-181 13 -319 106q-137 91 -211 249q-74 159 -74 366q0 240 97 433q97 192 271 301q174 108 396 108q236 0 403 -122q166 -121 217 -322l-194 -78q-38 151 -152 237q-116 86 -276 86q-157 0 -282 -83q-123 -82 -193 -230q-70 -147 -70 -332
q0 -165 55 -282q56 -120 157 -181q100 -63 234 -63q148 0 275 75z" />
    <glyph glyph-name="Egrave" unicode="&#xc8;" horiz-adv-x="1067" 
d="M639 1608l-227 276h211l170 -276h-154zM297 1497h831l-26 -192h-631l-63 -453h567l-27 -190h-567l-68 -472h633l-28 -190h-832z" />
    <glyph glyph-name="Eacute" unicode="&#xc9;" horiz-adv-x="1067" 
d="M831 1874h203l-231 -277h-156zM297 1497h831l-26 -192h-631l-63 -453h567l-27 -190h-567l-68 -472h633l-28 -190h-832z" />
    <glyph glyph-name="Ecircumflex" unicode="&#xca;" horiz-adv-x="1067" 
d="M813 1595l-68 160l-106 -160h-184l213 277h178l133 -277h-166zM297 1497h831l-26 -192h-631l-63 -453h567l-27 -190h-567l-68 -472h633l-28 -190h-832z" />
    <glyph glyph-name="Edieresis" unicode="&#xcb;" horiz-adv-x="1067" 
d="M465 1647q-33 31 -33 84t39 91q40 38 94 38q51 0 84 -33t33 -86q0 -52 -38 -90q-37 -37 -97 -37q-49 0 -82 33zM845 1647q-34 31 -34 84t39 91q40 38 94 38q50 0 84 -32q33 -32 33 -87q0 -53 -37 -90t-96 -37q-48 0 -83 33zM297 1497h831l-26 -192h-631l-63 -453h567
l-27 -190h-567l-68 -472h633l-28 -190h-832z" />
    <glyph glyph-name="Igrave" unicode="&#xcc;" horiz-adv-x="516" 
d="M326 1608l-228 276h211l170 -276h-153zM86 0l211 1497h201l-211 -1497h-201z" />
    <glyph glyph-name="Iacute" unicode="&#xcd;" horiz-adv-x="516" 
d="M518 1874h203l-232 -277h-155zM86 0l211 1497h201l-211 -1497h-201z" />
    <glyph glyph-name="Icircumflex" unicode="&#xce;" horiz-adv-x="516" 
d="M500 1595l-68 160l-106 -160h-185l213 277h178l134 -277h-166zM86 0l211 1497h201l-211 -1497h-201z" />
    <glyph glyph-name="Idieresis" unicode="&#xcf;" horiz-adv-x="516" 
d="M152 1647q-33 31 -33 84t39 91q40 38 94 38q51 0 84 -33t33 -86q0 -52 -38 -90q-37 -37 -98 -37q-49 0 -81 33zM532 1647q-34 31 -34 84t39 91q38 38 94 38q50 0 84 -32q33 -32 33 -87q0 -53 -37 -90t-97 -37q-49 0 -82 33zM86 0l211 1497h201l-211 -1497h-201z" />
    <glyph glyph-name="Eth" unicode="&#xd0;" horiz-adv-x="1353" 
d="M1054 1416q147 -82 223 -231q77 -152 77 -354q0 -242 -104 -430q-105 -187 -293 -294q-190 -107 -433 -107h-438l94 676h-147l20 170h152l92 651h408q202 0 349 -81zM843 271q141 82 217 226q77 145 77 326q0 225 -117 355q-117 129 -324 129h-225l-63 -461h270l-23 -170
h-272l-68 -486h207q180 0 321 81z" />
    <glyph glyph-name="Ntilde" unicode="&#xd1;" horiz-adv-x="1423" 
d="M824 1856q33 -15 69 -37q26 -16 49 -27q19 -10 41 -10q32 0 52 24q19 23 14 58h125q4 -111 -50 -173q-56 -63 -141 -63q-39 0 -72 14q-38 16 -73 37q-23 16 -41 25q-20 10 -39 10q-31 0 -49 -23q-19 -23 -13 -61h-125q-6 107 46 172q51 66 139 66q40 0 68 -12zM297 1497
h199l548 -1145l160 1145h201l-211 -1497h-201l-544 1145l-162 -1145h-201z" />
    <glyph glyph-name="Ograve" unicode="&#xd2;" horiz-adv-x="1603" 
d="M874 1630l-227 277h211l170 -277h-154zM435 61q-153 89 -235 252q-83 163 -83 379q0 233 97 426t273 304q176 110 396 110q199 0 350 -90t234 -254t83 -379q0 -238 -98 -429q-98 -192 -273 -300q-175 -109 -395 -109q-198 0 -349 90zM1068 254q125 83 195 227
q70 143 70 322q0 159 -57 277t-160 184q-104 65 -239 65q-155 0 -277 -82q-123 -82 -193 -226q-71 -145 -71 -323q0 -160 57 -278q55 -118 158 -183t237 -65q156 0 280 82z" />
    <glyph glyph-name="Oacute" unicode="&#xd3;" horiz-adv-x="1603" 
d="M1067 1896h203l-232 -276h-155zM435 61q-153 89 -235 252q-83 163 -83 379q0 233 97 426t273 304q176 110 396 110q199 0 350 -90t234 -254t83 -379q0 -238 -98 -429q-98 -192 -273 -300q-175 -109 -395 -109q-198 0 -349 90zM1068 254q125 83 195 227q70 143 70 322
q0 159 -57 277t-160 184q-104 65 -239 65q-155 0 -277 -82q-123 -82 -193 -226q-71 -145 -71 -323q0 -160 57 -278q55 -118 158 -183t237 -65q156 0 280 82z" />
    <glyph glyph-name="Ocircumflex" unicode="&#xd4;" horiz-adv-x="1603" 
d="M1049 1618l-68 160l-107 -160h-184l213 276h178l133 -276h-165zM435 61q-153 89 -235 252q-83 163 -83 379q0 233 97 426t273 304q176 110 396 110q199 0 350 -90t234 -254t83 -379q0 -238 -98 -429q-98 -192 -273 -300q-175 -109 -395 -109q-198 0 -349 90zM1068 254
q125 83 195 227q70 143 70 322q0 159 -57 277t-160 184q-104 65 -239 65q-155 0 -277 -82q-123 -82 -193 -226q-71 -145 -71 -323q0 -160 57 -278q55 -118 158 -183t237 -65q156 0 280 82z" />
    <glyph glyph-name="Otilde" unicode="&#xd5;" horiz-adv-x="1603" 
d="M922 1878q31 -13 69 -37q26 -16 49 -27q19 -10 41 -10q33 0 52 24q19 23 14 58h125q4 -111 -50 -173q-56 -62 -141 -62q-42 0 -72 13q-40 17 -73 38q-23 16 -41 25q-20 10 -39 10q-31 0 -49 -23q-19 -24 -12 -61h-125q-6 106 45 172q51 65 139 65q40 0 68 -12zM435 61
q-153 89 -235 252q-83 163 -83 379q0 233 97 426t273 304q176 110 396 110q199 0 350 -90t234 -254t83 -379q0 -238 -98 -429q-98 -192 -273 -300q-175 -109 -395 -109q-198 0 -349 90zM1068 254q125 83 195 227q70 143 70 322q0 159 -57 277t-160 184q-104 65 -239 65
q-155 0 -277 -82q-123 -82 -193 -226q-71 -145 -71 -323q0 -160 57 -278q55 -118 158 -183t237 -65q156 0 280 82z" />
    <glyph glyph-name="Odieresis" unicode="&#xd6;" horiz-adv-x="1603" 
d="M701 1669q-33 33 -33 84q0 53 39 91q38 38 94 38q50 0 84 -32q33 -33 33 -87q0 -52 -38 -90q-37 -37 -98 -37q-50 0 -81 33zM1081 1669q-34 33 -34 84q0 53 39 91q38 38 94 38q52 0 84 -31q32 -32 32 -88q0 -53 -36 -90q-37 -37 -97 -37q-49 0 -82 33zM435 61
q-153 89 -235 252q-83 163 -83 379q0 233 97 426t273 304q176 110 396 110q199 0 350 -90t234 -254t83 -379q0 -238 -98 -429q-98 -192 -273 -300q-175 -109 -395 -109q-198 0 -349 90zM1068 254q125 83 195 227q70 143 70 322q0 159 -57 277t-160 184q-104 65 -239 65
q-155 0 -277 -82q-123 -82 -193 -226q-71 -145 -71 -323q0 -160 57 -278q55 -118 158 -183t237 -65q156 0 280 82z" />
    <glyph glyph-name="multiply" unicode="&#xd7;" horiz-adv-x="1077" 
d="M438 598l-250 297l123 106l252 -294l336 294l98 -112l-335 -297l245 -291l-119 -108l-249 292l-330 -292l-100 114z" />
    <glyph glyph-name="Oslash" unicode="&#xd8;" horiz-adv-x="1529" 
d="M1384 1298q73 -91 114 -217q40 -123 40 -272q0 -238 -98 -429q-99 -192 -274 -300q-175 -109 -394 -109q-236 0 -399 123l-76 -90h-211l170 201q-152 194 -152 487q0 232 98 426t272 304q176 110 396 110q230 0 400 -123l76 92h208zM401 379l729 866q-117 84 -266 84
q-155 0 -276 -82q-123 -82 -193 -226q-71 -145 -71 -323q-2 -182 77 -319zM1239 1124l-729 -868q112 -84 266 -84q156 0 280 82q125 83 195 227q70 143 70 322q0 193 -82 321z" />
    <glyph glyph-name="Ugrave" unicode="&#xd9;" horiz-adv-x="1390" 
d="M758 1608l-228 276h211l170 -276h-153zM279 1497h204l-133 -942q-6 -45 -6 -86q0 -148 79 -227q80 -80 226 -80q167 0 271 104q101 103 127 289l133 942h202l-133 -956q-39 -273 -202 -421q-164 -149 -404 -149q-153 0 -266 58q-115 57 -177 167q-63 110 -63 257
q0 26 8 104z" />
    <glyph glyph-name="Uacute" unicode="&#xda;" horiz-adv-x="1390" 
d="M950 1874h203l-231 -277h-156zM279 1497h204l-133 -942q-6 -45 -6 -86q0 -148 79 -227q80 -80 226 -80q167 0 271 104q101 103 127 289l133 942h202l-133 -956q-39 -273 -202 -421q-164 -149 -404 -149q-153 0 -266 58q-115 57 -177 167q-63 110 -63 257q0 26 8 104z" />
    <glyph glyph-name="Ucircumflex" unicode="&#xdb;" horiz-adv-x="1390" 
d="M932 1595l-68 160l-106 -160h-185l213 277h179l133 -277h-166zM279 1497h204l-133 -942q-6 -45 -6 -86q0 -148 79 -227q80 -80 226 -80q167 0 271 104q101 103 127 289l133 942h202l-133 -956q-39 -273 -202 -421q-164 -149 -404 -149q-153 0 -266 58q-115 57 -177 167
q-63 110 -63 257q0 26 8 104z" />
    <glyph glyph-name="Udieresis" unicode="&#xdc;" horiz-adv-x="1390" 
d="M584 1647q-33 31 -33 84t39 91q40 38 94 38q51 0 84 -33t33 -86q0 -52 -38 -90q-37 -37 -97 -37q-50 0 -82 33zM964 1647q-34 31 -34 84t39 91q40 38 94 38q50 0 84 -32q33 -32 33 -87q0 -53 -37 -90t-96 -37q-50 0 -83 33zM279 1497h204l-133 -942q-6 -45 -6 -86
q0 -148 79 -227q80 -80 226 -80q167 0 271 104q101 103 127 289l133 942h202l-133 -956q-39 -273 -202 -421q-164 -149 -404 -149q-153 0 -266 58q-115 57 -177 167q-63 110 -63 257q0 26 8 104z" />
    <glyph glyph-name="Yacute" unicode="&#xdd;" horiz-adv-x="1193" 
d="M852 1858h203l-232 -277h-155zM379 1497l162 -440l43 -121q22 -52 45 -123q18 31 78 117l86 131l286 436h240l-610 -881l-86 -616h-205l86 616l-350 881h225z" />
    <glyph glyph-name="Thorn" unicode="&#xde;" horiz-adv-x="1288" 
d="M1137 1112q125 -119 125 -317q0 -153 -71 -271t-201 -183q-132 -65 -304 -65h-358l-39 -276h-203l211 1497l201 -2l-37 -264h336q215 0 340 -119zM954 551q97 85 97 229q0 123 -75 192q-76 68 -202 68h-340l-80 -575h328q174 0 272 86z" />
    <glyph glyph-name="germandbls" unicode="&#xdf;" horiz-adv-x="1200" 
d="M1059 662q78 -103 78 -248q0 -130 -63 -230q-65 -103 -172 -158q-110 -57 -245 -57q-85 0 -160 23q-75 24 -122 71l104 125q24 -30 72 -44q45 -13 96 -13q123 0 208 79t85 214q0 124 -74 198q-75 72 -200 72h-93l21 152q79 0 149 35q69 35 110 98q42 63 42 141
q0 91 -56 149q-58 56 -157 56q-101 0 -163 -61q-64 -61 -81 -166l-153 -1098h-195l156 1104q27 189 153 287q125 96 297 96q178 0 286 -96q108 -97 108 -252q0 -122 -64 -208q-65 -88 -174 -134q129 -33 207 -135z" />
    <glyph glyph-name="agrave" unicode="&#xe0;" horiz-adv-x="1157" 
d="M526 1128l-227 277h211l170 -277h-154zM1087 1012l-141 -1012h-188l18 127q-52 -75 -136 -115q-87 -41 -183 -41q-171 0 -274 120q-105 120 -105 339q0 169 65 311q65 139 180 222q115 81 261 81q104 0 184 -45t117 -120l28 133h174zM675 193q73 55 114 153q40 96 40 223
q0 159 -63 235q-65 77 -166 77q-94 0 -168 -59q-75 -61 -113 -160q-40 -99 -40 -218q0 -151 64 -228q63 -79 169 -79q89 0 163 56z" />
    <glyph glyph-name="aacute" unicode="&#xe1;" horiz-adv-x="1157" 
d="M719 1395h203l-232 -277h-155zM1087 1012l-141 -1012h-188l18 127q-52 -75 -136 -115q-87 -41 -183 -41q-171 0 -274 120q-105 120 -105 339q0 169 65 311q65 139 180 222q115 81 261 81q104 0 184 -45t117 -120l28 133h174zM675 193q73 55 114 153q40 96 40 223
q0 159 -63 235q-65 77 -166 77q-94 0 -168 -59q-75 -61 -113 -160q-40 -99 -40 -218q0 -151 64 -228q63 -79 169 -79q89 0 163 56z" />
    <glyph glyph-name="acircumflex" unicode="&#xe2;" horiz-adv-x="1157" 
d="M700 1116l-67 160l-107 -160h-184l213 277h178l133 -277h-166zM1087 1012l-141 -1012h-188l18 127q-52 -75 -136 -115q-87 -41 -183 -41q-171 0 -274 120q-105 120 -105 339q0 169 65 311q65 139 180 222q115 81 261 81q104 0 184 -45t117 -120l28 133h174zM675 193
q73 55 114 153q40 96 40 223q0 159 -63 235q-65 77 -166 77q-94 0 -168 -59q-75 -61 -113 -160q-40 -99 -40 -218q0 -151 64 -228q63 -79 169 -79q89 0 163 56z" />
    <glyph glyph-name="atilde" unicode="&#xe3;" horiz-adv-x="1157" 
d="M574 1377q35 -17 69 -38q26 -16 49 -27q20 -9 41 -9q33 0 52 24q18 23 14 57h125q4 -111 -50 -173q-56 -62 -141 -62q-39 0 -72 14q-38 16 -73 37q-23 16 -41 25q-20 10 -39 10q-31 0 -49 -23q-19 -23 -13 -61h-124q-6 106 45 172t139 66q40 0 68 -12zM1087 1012
l-141 -1012h-188l18 127q-52 -75 -136 -115q-87 -41 -183 -41q-171 0 -274 120q-105 120 -105 339q0 169 65 311q65 139 180 222q115 81 261 81q104 0 184 -45t117 -120l28 133h174zM675 193q73 55 114 153q40 96 40 223q0 159 -63 235q-65 77 -166 77q-94 0 -168 -59
q-75 -61 -113 -160q-40 -99 -40 -218q0 -151 64 -228q63 -79 169 -79q89 0 163 56z" />
    <glyph glyph-name="adieresis" unicode="&#xe4;" horiz-adv-x="1157" 
d="M352 1168q-33 32 -33 83q0 53 39 91q40 38 95 38q50 0 84 -32q32 -34 32 -86q0 -53 -37 -90t-98 -37q-49 0 -82 33zM732 1168q-34 31 -34 83q0 53 39 91q40 38 94 38q52 0 84 -31q33 -31 33 -87q0 -53 -37 -90t-96 -37q-49 0 -83 33zM1087 1012l-141 -1012h-188l18 127
q-52 -75 -136 -115q-87 -41 -183 -41q-171 0 -274 120q-105 120 -105 339q0 169 65 311q65 139 180 222q115 81 261 81q104 0 184 -45t117 -120l28 133h174zM675 193q73 55 114 153q40 96 40 223q0 159 -63 235q-65 77 -166 77q-94 0 -168 -59q-75 -61 -113 -160
q-40 -99 -40 -218q0 -151 64 -228q63 -79 169 -79q89 0 163 56z" />
    <glyph glyph-name="aring" unicode="&#xe5;" horiz-adv-x="1064" 
d="M1087 1012l-141 -1012h-188l18 127q-52 -75 -136 -115q-87 -41 -183 -41q-171 0 -274 120q-105 120 -105 339q0 204 92 364q92 159 246 220q-60 60 -62 157q0 73 38 132q37 57 100 89q61 31 131 31q100 0 163 -63q62 -65 62 -162q0 -58 -24 -108q-26 -50 -70 -84
q91 -44 131 -127l28 133h174zM523 1266q-36 -38 -36 -90q0 -47 30 -77t75 -30q50 0 88 36q37 36 37 89q0 49 -30 79t-75 30q-53 0 -89 -37zM675 193q73 55 114 153q40 96 40 223q0 159 -63 235q-65 77 -166 77q-94 0 -168 -59q-75 -61 -113 -160q-40 -99 -40 -218
q0 -151 64 -228q63 -79 169 -79q89 0 163 56z" />
    <glyph glyph-name="ae" unicode="&#xe6;" horiz-adv-x="1855" 
d="M1604 991q96 -57 146 -155q50 -100 50 -224q0 -42 -6 -88q-6 -37 -20 -92h-732q-10 -140 62 -219q72 -78 205 -78q112 0 188 52q76 51 109 139l161 -60q-59 -141 -182 -218q-124 -77 -285 -77q-107 0 -194 35q-86 35 -145 103l-15 -109h-188l18 127q-52 -75 -136 -115
q-87 -41 -183 -41q-171 0 -274 120q-105 120 -105 339q0 169 65 311q65 139 180 222q115 81 261 81q104 0 184 -45t117 -120l28 133h174l-8 -60q126 93 297 95q130 0 228 -56zM1161 802q-82 -80 -100 -216h549q2 18 2 43q0 118 -64 186q-65 68 -180 68q-124 0 -207 -81z
M675 193q73 55 114 153q40 96 40 223q0 159 -63 235q-65 77 -166 77q-94 0 -168 -59q-75 -61 -113 -160q-40 -99 -40 -218q0 -151 64 -228q63 -79 169 -79q89 0 163 56z" />
    <glyph glyph-name="ccedilla" unicode="&#xe7;" horiz-adv-x="1116" 
d="M724 206q76 55 105 146l172 -61q-46 -147 -175 -233q-128 -87 -294 -87h-4l-22 -43q68 5 113 -33q45 -36 45 -102q0 -73 -56 -117q-56 -43 -141 -43q-81 0 -131 43q-51 43 -49 111h116q0 -25 16 -38q14 -13 44 -13q31 0 49 15q18 17 18 44t-18 40q-17 13 -47 13
q-12 0 -35 -4l-49 25l55 111q-166 28 -264 158q-98 128 -98 321q0 159 68 295q67 135 190 214q122 79 280 79q171 0 286 -90q117 -92 142 -244l-176 -56q-12 95 -79 153t-173 58q-99 0 -175 -52q-77 -53 -120 -143t-43 -206q0 -150 72 -233q72 -84 197 -84q104 0 181 56z
" />
    <glyph glyph-name="egrave" unicode="&#xe8;" horiz-adv-x="1116" 
d="M539 1137l-228 276h211l170 -276h-153zM832 991q96 -57 146 -155q50 -100 50 -224q0 -42 -6 -88q-6 -42 -21 -92h-731q-10 -140 62 -219q70 -78 205 -78q112 0 188 52q76 51 109 139l161 -60q-59 -141 -182 -218q-124 -77 -285 -77q-210 0 -328 127q-120 128 -120 351
q0 164 65 302q65 137 183 216q119 80 276 80q130 0 228 -56zM389 802q-82 -80 -100 -216h549q2 18 2 43q0 118 -64 186q-65 68 -180 68q-124 0 -207 -81z" />
    <glyph glyph-name="eacute" unicode="&#xe9;" horiz-adv-x="1116" 
d="M731 1403h203l-232 -277h-155zM832 991q96 -57 146 -155q50 -100 50 -224q0 -42 -6 -88q-6 -42 -21 -92h-731q-10 -140 62 -219q70 -78 205 -78q112 0 188 52q76 51 109 139l161 -60q-59 -141 -182 -218q-124 -77 -285 -77q-210 0 -328 127q-120 128 -120 351
q0 164 65 302q65 137 183 216q119 80 276 80q130 0 228 -56zM389 802q-82 -80 -100 -216h549q2 18 2 43q0 118 -64 186q-65 68 -180 68q-124 0 -207 -81z" />
    <glyph glyph-name="ecircumflex" unicode="&#xea;" horiz-adv-x="1116" 
d="M713 1124l-68 160l-106 -160h-185l213 277h178l134 -277h-166zM832 991q96 -57 146 -155q50 -100 50 -224q0 -42 -6 -88q-6 -42 -21 -92h-731q-10 -140 62 -219q70 -78 205 -78q112 0 188 52q76 51 109 139l161 -60q-59 -141 -182 -218q-124 -77 -285 -77
q-210 0 -328 127q-120 128 -120 351q0 164 65 302q65 137 183 216q119 80 276 80q130 0 228 -56zM389 802q-82 -80 -100 -216h549q2 18 2 43q0 118 -64 186q-65 68 -180 68q-124 0 -207 -81z" />
    <glyph glyph-name="edieresis" unicode="&#xeb;" horiz-adv-x="1116" 
d="M365 1176q-33 32 -33 84q0 54 39 91q40 38 94 38q51 0 84 -33t33 -86q0 -52 -38 -90q-37 -37 -98 -37q-50 0 -81 33zM745 1176q-34 31 -34 84q0 54 39 91q38 38 94 38q50 0 84 -32q33 -31 33 -87q0 -53 -37 -90t-97 -37q-49 0 -82 33zM832 991q96 -57 146 -155
q50 -100 50 -224q0 -42 -6 -88q-6 -42 -21 -92h-731q-10 -140 62 -219q70 -78 205 -78q112 0 188 52q76 51 109 139l161 -60q-59 -141 -182 -218q-124 -77 -285 -77q-210 0 -328 127q-120 128 -120 351q0 164 65 302q65 137 183 216q119 80 276 80q130 0 228 -56zM389 802
q-82 -80 -100 -216h549q2 18 2 43q0 118 -64 186q-65 68 -180 68q-124 0 -207 -81z" />
    <glyph glyph-name="igrave" unicode="&#xec;" horiz-adv-x="473" 
d="M233 1110l-227 276h211l170 -276h-154zM401 1012l-141 -1012h-190l141 1012h190z" />
    <glyph glyph-name="iacute" unicode="&#xed;" horiz-adv-x="473" 
d="M426 1376h203l-232 -276h-155zM401 1012l-141 -1012h-190l141 1012h190z" />
    <glyph glyph-name="icircumflex" unicode="&#xee;" horiz-adv-x="473" 
d="M408 1098l-68 159l-107 -159h-184l213 276h178l133 -276h-165zM401 1012l-141 -1012h-190l141 1012h190z" />
    <glyph glyph-name="idieresis" unicode="&#xef;" horiz-adv-x="473" 
d="M60 1149q-33 33 -33 84q0 53 39 91q38 38 94 38q51 0 84 -33q32 -34 32 -86q0 -53 -37 -90t-98 -37q-49 0 -81 33zM440 1149q-34 33 -34 84q0 53 39 91q38 38 94 38q50 0 84 -32q32 -32 32 -87q0 -53 -36 -90q-37 -37 -97 -37q-49 0 -82 33zM401 1012l-141 -1012h-190
l141 1012h190z" />
    <glyph glyph-name="eth" unicode="&#xf0;" horiz-adv-x="1071" 
d="M967 775q26 -99 26 -197q0 -178 -63 -316q-64 -138 -177 -215q-113 -76 -261 -76q-195 0 -306 128q-112 127 -112 345q0 160 63 294q61 132 175 213q112 79 255 79q59 0 105 -18l-94 186l-324 -125l20 139l248 97l-94 188h203l61 -123l248 96l-20 -139l-175 -67l129 -258
q66 -134 93 -231zM650 198q66 54 103 144q38 93 38 211q0 143 -58 225t-158 82q-83 0 -151 -52q-71 -53 -111 -145q-41 -96 -41 -212q0 -146 61 -225q60 -81 167 -81q83 0 150 53z" />
    <glyph glyph-name="ntilde" unicode="&#xf1;" horiz-adv-x="1118" 
d="M693 1381q35 -17 69 -38q28 -18 48 -27t42 -9q33 0 52 24q19 23 14 58h124q4 -111 -50 -173q-54 -63 -140 -63q-39 0 -72 14q-38 16 -73 37q-23 16 -41 25q-20 10 -39 10q-31 0 -49 -23q-19 -23 -13 -61h-125q-6 107 46 172q51 66 139 66q39 0 68 -12zM941 961
q85 -86 85 -230q0 -35 -6 -72l-90 -659h-197l88 618q4 33 4 52q0 96 -52 148t-140 52q-118 0 -195 -80q-75 -80 -92 -202l-82 -586h-194l141 1010h174l-8 -135q51 80 140 125t192 45q146 0 232 -86z" />
    <glyph glyph-name="ograve" unicode="&#xf2;" horiz-adv-x="1142" 
d="M528 1128l-227 277h211l170 -277h-154zM141 751q65 134 183 215q119 81 274 81q138 0 241 -61q102 -61 160 -175q56 -114 56 -258q0 -155 -63 -289q-64 -134 -183 -213q-119 -80 -277 -80q-137 0 -240 61q-105 61 -160 172q-56 112 -56 257q0 154 65 290zM345 231
q71 -86 190 -86q91 0 165 53q72 52 114 144q42 91 42 205q0 150 -69 237q-71 86 -189 86q-92 0 -166 -53t-116 -146t-42 -206q0 -148 71 -234z" />
    <glyph glyph-name="oacute" unicode="&#xf3;" horiz-adv-x="1142" 
d="M721 1395h203l-232 -277h-155zM141 751q65 134 183 215q119 81 274 81q138 0 241 -61q102 -61 160 -175q56 -114 56 -258q0 -155 -63 -289q-64 -134 -183 -213q-119 -80 -277 -80q-137 0 -240 61q-105 61 -160 172q-56 112 -56 257q0 154 65 290zM345 231q71 -86 190 -86
q91 0 165 53q72 52 114 144q42 91 42 205q0 150 -69 237q-71 86 -189 86q-92 0 -166 -53t-116 -146t-42 -206q0 -148 71 -234z" />
    <glyph glyph-name="ocircumflex" unicode="&#xf4;" horiz-adv-x="1142" 
d="M702 1116l-67 160l-107 -160h-184l213 277h178l133 -277h-166zM141 751q65 134 183 215q119 81 274 81q138 0 241 -61q102 -61 160 -175q56 -114 56 -258q0 -155 -63 -289q-64 -134 -183 -213q-119 -80 -277 -80q-137 0 -240 61q-105 61 -160 172q-56 112 -56 257
q0 154 65 290zM345 231q71 -86 190 -86q91 0 165 53q72 52 114 144q42 91 42 205q0 150 -69 237q-71 86 -189 86q-92 0 -166 -53t-116 -146t-42 -206q0 -148 71 -234z" />
    <glyph glyph-name="otilde" unicode="&#xf5;" horiz-adv-x="1142" 
d="M576 1377q35 -17 69 -38q26 -16 49 -27q20 -9 41 -9q33 0 52 24q18 23 14 57h125q4 -111 -50 -173q-56 -62 -141 -62q-39 0 -72 14q-38 16 -73 37q-23 16 -41 25q-20 10 -39 10q-31 0 -49 -23q-19 -24 -12 -61h-125q-6 106 45 172t139 66q40 0 68 -12zM141 751
q65 134 183 215q119 81 274 81q138 0 241 -61q102 -61 160 -175q56 -114 56 -258q0 -155 -63 -289q-64 -134 -183 -213q-119 -80 -277 -80q-137 0 -240 61q-105 61 -160 172q-56 112 -56 257q0 154 65 290zM345 231q71 -86 190 -86q91 0 165 53q72 52 114 144q42 91 42 205
q0 150 -69 237q-71 86 -189 86q-92 0 -166 -53t-116 -146t-42 -206q0 -148 71 -234z" />
    <glyph glyph-name="odieresis" unicode="&#xf6;" horiz-adv-x="1142" 
d="M355 1168q-33 32 -33 83q0 53 39 91q38 38 94 38q50 0 84 -32q32 -34 32 -86q0 -53 -37 -90t-98 -37q-50 0 -81 33zM734 1168q-34 31 -34 83q0 53 39 91q40 38 95 38q52 0 84 -31q32 -32 32 -87q0 -52 -36 -90q-37 -37 -97 -37q-49 0 -83 33zM141 751q65 134 183 215
q119 81 274 81q138 0 241 -61q102 -61 160 -175q56 -114 56 -258q0 -155 -63 -289q-64 -134 -183 -213q-119 -80 -277 -80q-137 0 -240 61q-105 61 -160 172q-56 112 -56 257q0 154 65 290zM345 231q71 -86 190 -86q91 0 165 53q72 52 114 144q42 91 42 205q0 150 -69 237
q-71 86 -189 86q-92 0 -166 -53t-116 -146t-42 -206q0 -148 71 -234z" />
    <glyph glyph-name="divide" unicode="&#xf7;" horiz-adv-x="1132" 
d="M560 842q-38 38 -38 92q0 66 47 108q47 41 109 41q55 0 92 -37t37 -92q0 -67 -46 -107q-47 -42 -108 -42q-56 0 -93 37zM162 664h854l-21 -146h-854zM394 135q-38 38 -38 92q0 66 47 107t107 41q54 0 92 -36q37 -36 37 -89q0 -68 -46 -110q-47 -42 -110 -42q-52 0 -89 37
z" />
    <glyph glyph-name="oslash" unicode="&#xf8;" horiz-adv-x="1136" 
d="M956 879q97 -129 99 -326q0 -155 -63 -289q-64 -134 -183 -213q-119 -80 -277 -80q-155 0 -270 80l-72 -86h-151l139 166q-102 131 -102 330q0 155 65 290q65 134 183 215q119 81 274 81q166 0 279 -89l69 84h150zM309 287l447 528q-65 55 -158 55q-92 0 -166 -53
t-116 -146t-42 -206q0 -100 35 -178zM823 719l-440 -524q60 -48 152 -50q91 0 165 53q72 52 114 144q42 91 42 205q0 105 -33 172z" />
    <glyph glyph-name="ugrave" unicode="&#xf9;" horiz-adv-x="1118" 
d="M549 1112l-227 277h210l170 -277h-153zM1049 1010l-142 -1010h-174l10 137q-45 -76 -130 -121t-189 -45q-150 0 -234 87t-84 239q0 42 7 78l90 637h194l-86 -615q-4 -36 -4 -55q0 -94 53 -145q52 -52 142 -52q112 0 183 74q69 73 87 209l82 582h195z" />
    <glyph glyph-name="uacute" unicode="&#xfa;" horiz-adv-x="1118" 
d="M741 1378h203l-231 -276h-156zM1049 1010l-142 -1010h-174l10 137q-45 -76 -130 -121t-189 -45q-150 0 -234 87t-84 239q0 42 7 78l90 637h194l-86 -615q-4 -36 -4 -55q0 -94 53 -145q52 -52 142 -52q112 0 183 74q69 73 87 209l82 582h195z" />
    <glyph glyph-name="ucircumflex" unicode="&#xfb;" horiz-adv-x="1118" 
d="M723 1100l-68 160l-106 -160h-184l213 276h178l133 -276h-166zM1049 1010l-142 -1010h-174l10 137q-45 -76 -130 -121t-189 -45q-150 0 -234 87t-84 239q0 42 7 78l90 637h194l-86 -615q-4 -36 -4 -55q0 -94 53 -145q52 -52 142 -52q112 0 183 74q69 73 87 209l82 582
h195z" />
    <glyph glyph-name="udieresis" unicode="&#xfc;" horiz-adv-x="1118" 
d="M375 1151q-33 33 -33 84q0 53 39 91q40 38 94 38q51 0 84 -33t33 -86q0 -52 -38 -90q-37 -37 -97 -37q-49 0 -82 33zM755 1151q-34 33 -34 84q0 53 39 91q40 38 94 38q50 0 84 -32q33 -32 33 -87q0 -53 -37 -90t-96 -37q-50 0 -83 33zM1049 1010l-142 -1010h-174l10 137
q-45 -76 -130 -121t-189 -45q-150 0 -234 87t-84 239q0 42 7 78l90 637h194l-86 -615q-4 -36 -4 -55q0 -94 53 -145q52 -52 142 -52q112 0 183 74q69 73 87 209l82 582h195z" />
    <glyph glyph-name="yacute" unicode="&#xfd;" horiz-adv-x="1011" 
d="M692 1376h203l-231 -276h-156zM1057 1012l-674 -1440h-201l215 465l-303 975h207l213 -723l336 723h207z" />
    <glyph glyph-name="thorn" unicode="&#xfe;" horiz-adv-x="1153" 
d="M982 921q101 -125 101 -337q0 -168 -63 -307q-64 -139 -177 -222q-113 -82 -257 -82q-110 0 -189 48q-80 47 -112 118l-80 -569h-195l269 1927h194l-90 -614q51 75 137 119q84 42 187 42q174 0 275 -123zM725 196q76 60 115 158q41 100 41 219q0 146 -62 228
q-63 80 -172 80q-90 0 -162 -54q-73 -55 -115 -155t-42 -230q0 -151 62 -228t167 -77q94 0 168 59z" />
    <glyph glyph-name="ydieresis" unicode="&#xff;" horiz-adv-x="1011" 
d="M326 1149q-33 33 -33 84q0 53 39 91q40 38 94 38q51 0 84 -33t33 -86q0 -52 -38 -90q-37 -37 -97 -37q-50 0 -82 33zM706 1149q-34 33 -34 84q0 53 39 91q40 38 94 38q50 0 84 -32q33 -32 33 -87q0 -53 -37 -90t-97 -37q-49 0 -82 33zM1057 1012l-674 -1440h-201l215 465
l-303 975h207l213 -723l336 723h207z" />
    <glyph glyph-name="Amacron" unicode="&#x100;" horiz-adv-x="1380" 
d="M1161 1767l-20 -147h-584l21 147h583zM989 326h-643l-162 -326h-233l768 1497h225l346 -1497h-229zM950 510l-102 467q-47 224 -51 274q-17 -46 -127 -274l-232 -467h512z" />
    <glyph glyph-name="amacron" unicode="&#x101;" horiz-adv-x="1157" 
d="M930 1298l-21 -147h-583l20 147h584zM1087 1012l-141 -1012h-188l18 127q-52 -75 -136 -115q-87 -41 -183 -41q-171 0 -274 120q-105 120 -105 339q0 169 65 311q65 139 180 222q115 81 261 81q104 0 184 -45t117 -120l28 133h174zM675 193q73 55 114 153q40 96 40 223
q0 159 -63 235q-65 77 -166 77q-94 0 -168 -59q-75 -61 -113 -160q-40 -99 -40 -218q0 -151 64 -228q63 -79 169 -79q89 0 163 56z" />
    <glyph glyph-name="Abreve" unicode="&#x102;" horiz-adv-x="1378" 
d="M1169 1874q-6 -124 -93 -203q-88 -80 -212 -80q-115 0 -189 68q-75 67 -75 172q0 18 4 43h144q-2 -12 -3 -29q0 -53 34 -83q34 -31 89 -31q66 0 107 39q41 38 47 104h147zM989 326h-643l-162 -326h-233l768 1497h225l346 -1497h-229zM950 510l-102 467q-47 224 -51 274
q-17 -46 -127 -274l-232 -467h512z" />
    <glyph glyph-name="abreve" unicode="&#x103;" horiz-adv-x="1157" 
d="M940 1395q-6 -124 -93 -203q-88 -80 -212 -80q-115 0 -189 68q-75 68 -75 172q0 18 4 43h143q-2 -14 -2 -29q0 -53 34 -84t89 -31q67 0 107 39q39 38 47 105h147zM1087 1012l-141 -1012h-188l18 127q-52 -75 -136 -115q-87 -41 -183 -41q-171 0 -274 120
q-105 120 -105 339q0 169 65 311q65 139 180 222q115 81 261 81q104 0 184 -45t117 -120l28 133h174zM675 193q73 55 114 153q40 96 40 223q0 159 -63 235q-65 77 -166 77q-94 0 -168 -59q-75 -61 -113 -160q-40 -99 -40 -218q0 -151 64 -228q63 -79 169 -79q89 0 163 56z
" />
    <glyph glyph-name="Aogonek" unicode="&#x104;" horiz-adv-x="1378" 
d="M1206 -205q33 0 72 17v-134q-53 -28 -121 -26q-78 0 -131 41t-53 110q0 121 147 197h-59l-72 326h-643l-162 -326h-233l768 1497h225l346 -1497q-159 -74 -157 -143q-1 -31 17.5 -46.5t55.5 -15.5zM950 510l-102 467q-47 224 -51 274q-17 -46 -127 -274l-232 -467h512z
" />
    <glyph glyph-name="aogonek" unicode="&#x105;" horiz-adv-x="1157" 
d="M788 -143q0 -60 74 -62q33 0 72 17v-134q-53 -28 -121 -26q-78 0 -131 41t-53 110q0 121 147 197h-18l18 127q-52 -75 -136 -115q-87 -41 -183 -41q-171 0 -274 120q-105 120 -105 339q0 169 65 311q65 139 180 222q115 81 261 81q104 0 184 -45t117 -120l28 133h174
l-141 -1012q-158 -74 -158 -143zM675 193q73 55 114 153q40 96 40 223q0 159 -63 235q-65 77 -166 77q-94 0 -168 -59q-75 -61 -113 -160q-40 -99 -40 -218q0 -151 64 -228q63 -79 169 -79q89 0 163 56z" />
    <glyph glyph-name="Cacute" unicode="&#x106;" horiz-adv-x="1529" 
d="M991 1884h203l-231 -276h-156zM1179 77q-172 -108 -395 -108q-201 0 -351 87t-233 251t-83 385q0 240 97 433q97 192 271 301q174 108 396 108q236 0 403 -122q166 -121 217 -322l-194 -78q-38 151 -152 237q-116 86 -276 86q-157 0 -282 -83q-123 -82 -193 -230
q-70 -147 -70 -332q0 -165 55 -282q56 -120 157 -181q100 -63 234 -63q148 0 275 75q127 73 192 207l191 -67q-85 -195 -259 -302z" />
    <glyph glyph-name="cacute" unicode="&#x107;" horiz-adv-x="1116" 
d="M764 1395h203l-232 -277h-155zM293 32q-105 60 -162 170t-57 257q0 159 68 295q67 135 190 214q122 79 280 79q171 0 286 -90q117 -92 142 -244l-176 -56q-12 95 -79 153t-173 58q-99 0 -175 -52q-77 -53 -120 -143t-43 -206q0 -150 72 -233q72 -84 197 -84q104 0 181 56
q76 55 105 146l172 -61q-46 -147 -175 -233q-128 -87 -294 -87q-136 0 -239 61z" />
    <glyph glyph-name="Cdotaccent" unicode="&#x10a;" horiz-adv-x="1529" 
d="M813 1657q-33 33 -33 84q0 53 39 91q40 38 94 38q51 0 84 -33t33 -86q0 -52 -38 -90q-37 -37 -97 -37q-49 0 -82 33zM1179 77q-172 -108 -395 -108q-201 0 -351 87t-233 251t-83 385q0 240 97 433q97 192 271 301q174 108 396 108q236 0 403 -122q166 -121 217 -322
l-194 -78q-38 151 -152 237q-116 86 -276 86q-157 0 -282 -83q-123 -82 -193 -230q-70 -147 -70 -332q0 -165 55 -282q56 -120 157 -181q100 -63 234 -63q148 0 275 75q127 73 192 207l191 -67q-85 -195 -259 -302z" />
    <glyph glyph-name="cdotaccent" unicode="&#x10b;" horiz-adv-x="1116" 
d="M586 1168q-33 32 -33 83q0 53 39 91q40 38 94 38q50 0 84 -32q33 -33 33 -86q0 -52 -38 -90q-37 -37 -97 -37q-50 0 -82 33zM293 32q-105 60 -162 170t-57 257q0 159 68 295q67 135 190 214q122 79 280 79q171 0 286 -90q117 -92 142 -244l-176 -56q-12 95 -79 153
t-173 58q-99 0 -175 -52q-77 -53 -120 -143t-43 -206q0 -150 72 -233q72 -84 197 -84q104 0 181 56q76 55 105 146l172 -61q-46 -147 -175 -233q-128 -87 -294 -87q-136 0 -239 61z" />
    <glyph glyph-name="Ccaron" unicode="&#x10c;" horiz-adv-x="1529" 
d="M834 1882l63 -156l111 156h180l-211 -276h-180l-131 276h168zM1179 77q-172 -108 -395 -108q-201 0 -351 87t-233 251t-83 385q0 240 97 433q97 192 271 301q174 108 396 108q236 0 403 -122q166 -121 217 -322l-194 -78q-38 151 -152 237q-116 86 -276 86
q-157 0 -282 -83q-123 -82 -193 -230q-70 -147 -70 -332q0 -165 55 -282q56 -120 157 -181q100 -63 234 -63q148 0 275 75q127 73 192 207l191 -67q-85 -195 -259 -302z" />
    <glyph glyph-name="ccaron" unicode="&#x10d;" horiz-adv-x="1116" 
d="M606 1393l64 -156l110 156h181l-211 -277h-181l-131 277h168zM293 32q-105 60 -162 170t-57 257q0 159 68 295q67 135 190 214q122 79 280 79q171 0 286 -90q117 -92 142 -244l-176 -56q-12 95 -79 153t-173 58q-99 0 -175 -52q-77 -53 -120 -143t-43 -206
q0 -150 72 -233q72 -84 197 -84q104 0 181 56q76 55 105 146l172 -61q-46 -147 -175 -233q-128 -87 -294 -87q-136 0 -239 61z" />
    <glyph glyph-name="Dcaron" unicode="&#x10e;" horiz-adv-x="1392" 
d="M678 1874l63 -156l111 156h180l-211 -277h-180l-131 277h168zM297 1497h408q203 0 349 -81q147 -82 223 -231q77 -152 77 -354q0 -242 -104 -430q-105 -187 -293 -294q-190 -107 -433 -107h-438zM522 190q180 0 321 81q141 82 217 226q77 145 77 326q0 225 -117 355
q-117 129 -324 129h-225l-156 -1117h207z" />
    <glyph glyph-name="dcaron" unicode="&#x10f;" horiz-adv-x="1318" 
d="M965 1513h194l-213 -1513h-178l12 131q-50 -75 -134 -118q-82 -42 -185 -42q-172 0 -277 120q-106 119 -106 339q0 169 65 311q65 140 181 222q116 81 262 81q99 0 176 -43q78 -44 117 -112zM1473 1511l-142 -600h-117l86 600h173zM675 193q73 55 114 153q40 96 40 223
q0 159 -63 235q-65 77 -166 77q-94 0 -168 -59q-75 -61 -113 -160q-40 -99 -40 -218q0 -151 64 -228q63 -79 169 -79q89 0 163 56z" />
    <glyph glyph-name="Dcroat" unicode="&#x110;" horiz-adv-x="1353" 
d="M1054 1416q147 -82 223 -231q77 -152 77 -354q0 -242 -104 -430q-105 -187 -293 -294q-190 -107 -433 -107h-438l94 676h-147l20 170h152l92 651h408q202 0 349 -81zM843 271q141 82 217 226q77 145 77 326q0 225 -117 355q-117 129 -324 129h-225l-63 -461h270l-23 -170
h-272l-68 -486h207q180 0 321 81z" />
    <glyph glyph-name="dcroat" unicode="&#x111;" horiz-adv-x="1157" 
d="M1247 1184h-135l-166 -1184h-178l12 131q-50 -75 -134 -118q-82 -42 -185 -42q-172 0 -277 120q-106 119 -106 339q0 169 65 311q65 140 181 222q116 81 262 81q99 0 176 -43q78 -44 117 -112l41 295h-347l23 137h342l27 192h194l-26 -192h137zM675 193q73 55 114 153
q40 96 40 223q0 159 -63 235q-65 77 -166 77q-94 0 -168 -59q-75 -61 -113 -160q-40 -99 -40 -218q0 -151 64 -228q63 -79 169 -79q89 0 163 56z" />
    <glyph glyph-name="Emacron" unicode="&#x112;" horiz-adv-x="1067" 
d="M1042 1778l-20 -148h-584l21 148h583zM297 1497h831l-26 -192h-631l-63 -453h567l-27 -190h-567l-68 -472h633l-28 -190h-832z" />
    <glyph glyph-name="emacron" unicode="&#x113;" horiz-adv-x="1116" 
d="M942 1307l-20 -148h-584l20 148h584zM832 991q96 -57 146 -155q50 -100 50 -224q0 -42 -6 -88q-6 -42 -21 -92h-731q-10 -140 62 -219q70 -78 205 -78q112 0 188 52q76 51 109 139l161 -60q-59 -141 -182 -218q-124 -77 -285 -77q-210 0 -328 127q-120 128 -120 351
q0 164 65 302q65 137 183 216q119 80 276 80q130 0 228 -56zM389 802q-82 -80 -100 -216h549q2 18 2 43q0 118 -64 186q-65 68 -180 68q-124 0 -207 -81z" />
    <glyph glyph-name="Edotaccent" unicode="&#x116;" horiz-adv-x="1067" 
d="M654 1647q-33 31 -33 84t39 91q38 38 94 38q51 0 84 -33q32 -34 32 -86q0 -53 -37 -90t-98 -37q-49 0 -81 33zM297 1497h831l-26 -192h-631l-63 -453h567l-27 -190h-567l-68 -472h633l-28 -190h-832z" />
    <glyph glyph-name="edotaccent" unicode="&#x117;" horiz-adv-x="1116" 
d="M553 1176q-33 32 -33 84q0 54 39 91q40 38 94 38q51 0 84 -33t33 -86q0 -52 -38 -90q-37 -37 -97 -37q-49 0 -82 33zM832 991q96 -57 146 -155q50 -100 50 -224q0 -42 -6 -88q-6 -42 -21 -92h-731q-10 -140 62 -219q70 -78 205 -78q112 0 188 52q76 51 109 139l161 -60
q-59 -141 -182 -218q-124 -77 -285 -77q-210 0 -328 127q-120 128 -120 351q0 164 65 302q65 137 183 216q119 80 276 80q130 0 228 -56zM389 802q-82 -80 -100 -216h549q2 18 2 43q0 118 -64 186q-65 68 -180 68q-124 0 -207 -81z" />
    <glyph glyph-name="Eogonek" unicode="&#x118;" horiz-adv-x="1067" 
d="M471 1305l-63 -453h567l-27 -190h-567l-68 -472h633l-28 -190q-158 -74 -158 -143q0 -60 74 -62q34 0 71 17v-134q-53 -28 -121 -26q-78 0 -131 41t-53 110q0 121 148 197h-662l211 1497h831l-26 -192h-631z" />
    <glyph glyph-name="eogonek" unicode="&#x119;" horiz-adv-x="1116" 
d="M832 991q96 -57 146 -155q50 -100 50 -224q0 -42 -6 -88q-6 -42 -21 -92h-731q-10 -140 62 -219q70 -78 205 -78q112 0 188 52q76 51 109 139l161 -60q-55 -133 -168 -208q-113 -76 -262 -85q-119 -66 -119 -125q0 -61 74 -61q36 0 72 16v-133q-53 -28 -121 -26
q-78 0 -131 41t-53 110q0 111 129 187q-159 33 -248 155q-88 121 -88 312q0 164 65 302q65 137 183 216q119 80 276 80q130 0 228 -56zM389 802q-82 -80 -100 -216h549q2 18 2 43q0 118 -64 186q-65 68 -180 68q-124 0 -207 -81z" />
    <glyph glyph-name="Ecaron" unicode="&#x11a;" horiz-adv-x="1067" 
d="M674 1872l63 -156l111 156h180l-211 -277h-180l-131 277h168zM297 1497h831l-26 -192h-631l-63 -453h567l-27 -190h-567l-68 -472h633l-28 -190h-832z" />
    <glyph glyph-name="ecaron" unicode="&#x11b;" horiz-adv-x="1116" 
d="M573 1401l64 -156l111 156h180l-211 -277h-180l-131 277h167zM832 991q96 -57 146 -155q50 -100 50 -224q0 -42 -6 -88q-6 -42 -21 -92h-731q-10 -140 62 -219q70 -78 205 -78q112 0 188 52q76 51 109 139l161 -60q-59 -141 -182 -218q-124 -77 -285 -77q-210 0 -328 127
q-120 128 -120 351q0 164 65 302q65 137 183 216q119 80 276 80q130 0 228 -56zM389 802q-82 -80 -100 -216h549q2 18 2 43q0 118 -64 186q-65 68 -180 68q-124 0 -207 -81z" />
    <glyph glyph-name="Gbreve" unicode="&#x11e;" horiz-adv-x="1574" 
d="M726 1684q-75 68 -75 171q0 18 4 43h144q-2 -14 -2 -28q0 -53 34 -84q32 -31 89 -31q66 0 107 39q40 38 46 104h148q-6 -122 -93 -202q-89 -80 -213 -80q-113 0 -189 68zM1507 672q-11 -206 -107 -365q-98 -161 -258 -249q-161 -89 -362 -89q-197 0 -346 86t-233 248
t-84 383q0 243 97 436q98 194 271 303t396 109q233 0 400 -122t220 -322l-194 -78q-38 150 -151 237q-115 86 -275 86q-159 0 -283 -84q-125 -84 -194 -231q-70 -147 -70 -334q0 -245 122 -384q122 -138 326 -138q128 0 239 55q113 56 186 160q73 103 87 248h-495l24 174
h680q6 -54 4 -129z" />
    <glyph glyph-name="gbreve" unicode="&#x11f;" horiz-adv-x="1179" 
d="M470 1203q-75 67 -75 171q0 18 4 43h144q-2 -14 -2 -28q0 -53 34 -84q32 -31 89 -31q66 0 107 39q40 38 46 104h148q-6 -122 -93 -202q-89 -80 -213 -80q-113 0 -189 68zM1085 1012l-143 -1028q-32 -213 -166 -330q-135 -117 -344 -117q-186 0 -307 93q-120 94 -137 243
l164 68q17 -110 92 -172q76 -62 196 -62q130 0 210 75q78 74 98 210l26 178q-50 -69 -132 -107t-181 -38q-176 0 -278 118q-103 116 -103 318q0 159 62 294t172 212t255 77q111 0 192 -45q80 -45 118 -120l26 133h180zM677 239q73 49 114 141q40 90 40 204q0 138 -62 218
q-61 79 -173 79q-90 0 -163 -54q-73 -55 -112 -147q-40 -90 -40 -201q0 -139 64 -215q63 -76 171 -76q88 0 161 51z" />
    <glyph glyph-name="Gdotaccent" unicode="&#x120;" horiz-adv-x="1574" 
d="M821 1671q-33 33 -33 84q0 53 39 91q40 38 95 38q50 0 84 -32q32 -34 32 -87t-37 -90t-98 -37q-49 0 -82 33zM1507 672q-11 -206 -107 -365q-98 -161 -258 -249q-161 -89 -362 -89q-197 0 -346 86t-233 248t-84 383q0 243 97 436q98 194 271 303t396 109q233 0 400 -122
t220 -322l-194 -78q-38 150 -151 237q-115 86 -275 86q-159 0 -283 -84q-125 -84 -194 -231q-70 -147 -70 -334q0 -245 122 -384q122 -138 326 -138q128 0 239 55q113 56 186 160q73 103 87 248h-495l24 174h680q6 -54 4 -129z" />
    <glyph glyph-name="gdotaccent" unicode="&#x121;" horiz-adv-x="1155" 
d="M531 1168q-33 32 -33 83q0 53 39 91q38 38 94 38q50 0 84 -32q33 -33 33 -86q0 -52 -38 -90q-37 -37 -98 -37q-50 0 -81 33zM1085 1012l-143 -1028q-32 -213 -166 -330q-135 -117 -344 -117q-186 0 -307 93q-120 94 -137 243l164 68q17 -110 92 -172q76 -62 196 -62
q130 0 210 75q78 74 98 210l26 178q-50 -69 -132 -107t-181 -38q-176 0 -278 118q-103 116 -103 318q0 159 62 294t172 212t255 77q111 0 192 -45q80 -45 118 -120l26 133h180zM677 239q73 49 114 141q40 90 40 204q0 138 -62 218q-61 79 -173 79q-90 0 -163 -54
q-73 -55 -112 -147q-40 -90 -40 -201q0 -139 64 -215q63 -76 171 -76q88 0 161 51z" />
    <glyph glyph-name="uni0122" unicode="&#x122;" horiz-adv-x="1574" 
d="M650 -154q43 41 106 41q58 0 99 -35q40 -34 40 -94q0 -34 -14 -67q-16 -33 -43 -66l-129 -162h-107l107 154q-44 7 -73 42q-28 34 -28 85q0 62 42 102zM1507 672q-11 -206 -107 -365q-98 -161 -258 -249q-161 -89 -362 -89q-197 0 -346 86t-233 248t-84 383q0 243 97 436
q98 194 271 303t396 109q233 0 400 -122t220 -322l-194 -78q-38 150 -151 237q-115 86 -275 86q-159 0 -283 -84q-125 -84 -194 -231q-70 -147 -70 -334q0 -245 122 -384q122 -138 326 -138q128 0 239 55q113 56 186 160q73 103 87 248h-495l24 174h680q6 -54 4 -129z" />
    <glyph glyph-name="uni0123" unicode="&#x123;" horiz-adv-x="1179" 
d="M705 1190q-41 -41 -107 -41q-56 0 -97 36q-40 36 -40 95q0 62 59 133l127 160h107l-107 -154q46 -11 72 -44q26 -35 26 -83q0 -62 -40 -102zM1085 1012l-143 -1028q-32 -213 -166 -330q-135 -117 -344 -117q-186 0 -307 93q-120 94 -137 243l164 68q17 -110 92 -172
q76 -62 196 -62q130 0 210 75q78 74 98 210l26 178q-50 -69 -132 -107t-181 -38q-176 0 -278 118q-103 116 -103 318q0 159 62 294t172 212t255 77q111 0 192 -45q80 -45 118 -120l26 133h180zM677 239q73 49 114 141q40 90 40 204q0 138 -62 218q-61 79 -173 79
q-90 0 -163 -54q-73 -55 -112 -147q-40 -90 -40 -201q0 -139 64 -215q63 -76 171 -76q88 0 161 51z" />
    <glyph glyph-name="Hbar" unicode="&#x126;" horiz-adv-x="1378" 
d="M1413 1159h-121l-164 -1159h-200l90 639h-641l-90 -639h-201l164 1159h-86l24 152h82l27 186h201l-27 -186h641l27 186h200l-26 -186h125zM1092 1159h-641l-48 -330h641z" />
    <glyph glyph-name="hbar" unicode="&#x127;" horiz-adv-x="1169" 
d="M939 960q83 -89 83 -235q0 -35 -6 -76l-90 -649h-195l84 606q4 17 4 62q0 97 -49 147q-50 51 -135 51q-121 0 -197 -79t-94 -207l-82 -578h-194l163 1159h-106l22 137h103l31 215h194l-31 -215h377l-22 -137h-373l-37 -260q57 71 139 108q84 38 181 38q147 0 230 -87z
" />
    <glyph glyph-name="Imacron" unicode="&#x12a;" horiz-adv-x="516" 
d="M729 1778l-20 -148h-584l20 148h584zM86 0l211 1497h201l-211 -1497h-201z" />
    <glyph glyph-name="imacron" unicode="&#x12b;" horiz-adv-x="473" 
d="M637 1280l-21 -147h-583l20 147h584zM401 1012l-141 -1012h-190l141 1012h190z" />
    <glyph glyph-name="Iogonek" unicode="&#x12e;" horiz-adv-x="516" 
d="M129 -143q0 -60 74 -62q34 0 71 17v-134q-53 -27 -120 -26q-78 0 -131 41q-54 41 -54 110q0 121 148 197h-31l211 1497h201l-211 -1497q-158 -74 -158 -143z" />
    <glyph glyph-name="iogonek" unicode="&#x12f;" horiz-adv-x="473" 
d="M432 1329q33 -33 33 -86q0 -52 -38 -90q-37 -37 -97 -37q-49 0 -82 33t-33 84q0 53 39 91q40 38 94 38q51 0 84 -33zM401 1012l-141 -1012h2q-158 -74 -158 -143q0 -60 74 -62q33 0 72 17v-134q-53 -28 -121 -26q-78 0 -131 41t-53 110q0 121 147 197h-22l141 1012h190z
" />
    <glyph glyph-name="Idotaccent" unicode="&#x130;" horiz-adv-x="516" 
d="M340 1647q-33 31 -33 84t39 91q40 38 94 38q51 0 84 -33t33 -86q0 -52 -38 -90q-37 -37 -97 -37q-49 0 -82 33zM86 0l211 1497h201l-211 -1497h-201z" />
    <glyph glyph-name="dotlessi" unicode="&#x131;" horiz-adv-x="473" 
d="M401 1012l-141 -1012h-190l141 1012h190z" />
    <glyph glyph-name="uni0136" unicode="&#x136;" horiz-adv-x="1265" 
d="M460 -119q43 41 105 41q59 0 100 -35q40 -34 40 -94q0 -34 -14 -67q-14 -30 -44 -66l-129 -162h-106l106 154q-45 8 -72 42q-28 34 -28 85q0 61 42 102zM801 856l375 -856h-236l-295 682l-311 -348l-47 -336h-201l211 1499h201l-115 -817l731 817h256z" />
    <glyph glyph-name="uni0137" unicode="&#x137;" horiz-adv-x="1021" 
d="M335 -119q43 41 105 41q59 0 100 -35q40 -34 40 -94q0 -34 -14 -67q-14 -30 -44 -66l-129 -162h-106l106 154q-45 8 -72 42q-28 34 -28 85q0 61 42 102zM649 621l258 -621h-223l-186 471l-197 -190l-39 -281h-194l213 1513h194l-133 -948l457 447h252z" />
    <glyph glyph-name="Lacute" unicode="&#x139;" horiz-adv-x="1028" 
d="M487 1597h-155l184 277h203zM924 190l-27 -190h-813l211 1497h203l-185 -1307h611z" />
    <glyph glyph-name="lacute" unicode="&#x13a;" horiz-adv-x="468" 
d="M492 1862h202l-231 -277h-156zM281 1513h190l-213 -1513l-190 2z" />
    <glyph glyph-name="uni013B" unicode="&#x13b;" horiz-adv-x="1028" 
d="M357 -119q43 41 106 41q58 0 99 -35q40 -34 40 -94q0 -34 -14 -67q-16 -33 -43 -66l-129 -162h-107l107 154q-44 7 -73 42q-28 34 -28 85q0 61 42 102zM924 190l-27 -190h-813l211 1497h203l-185 -1307h611z" />
    <glyph glyph-name="uni013C" unicode="&#x13c;" horiz-adv-x="468" 
d="M26 -121q43 41 105 41q58 0 99 -35q40 -34 40 -94q0 -34 -14 -67q-12 -29 -43 -66l-129 -162h-107l107 154q-45 8 -72 42q-28 34 -28 85q0 61 42 102zM281 1513h190l-213 -1513l-190 2z" />
    <glyph glyph-name="Lcaron" unicode="&#x13d;" horiz-adv-x="1001" 
d="M924 190l-27 -190h-813l211 1497h203l-185 -1307h611zM723 911h-117l82 586h170z" />
    <glyph glyph-name="lcaron" unicode="&#x13e;" horiz-adv-x="626" 
d="M281 1513h190l-213 -1513l-190 2zM784 1509l-139 -600h-117l86 600h170z" />
    <glyph glyph-name="Ldot" unicode="&#x13f;" horiz-adv-x="1001" 
d="M924 190l-27 -190h-813l211 1497h203l-185 -1307h611zM641 578q-35 35 -35 86q0 54 37 91q38 38 92 38q48 0 85 -35q36 -34 36 -84q0 -55 -38 -93t-91 -38q-51 0 -86 35z" />
    <glyph glyph-name="ldot" unicode="&#x140;" horiz-adv-x="761" 
d="M281 1513h190l-213 -1513l-190 2zM566 560q-36 34 -36 85q0 52 38 90q37 37 91 37q49 0 85 -33q36 -35 36 -84q0 -55 -37 -92t-92 -37q-50 0 -85 34z" />
    <glyph glyph-name="Lslash" unicode="&#x141;" horiz-adv-x="1024" 
d="M924 188l-29 -188h-791l93 659l-183 -77l25 186l184 78l86 608h201l-74 -516l348 147l-26 -186l-346 -147l-80 -564h592z" />
    <glyph glyph-name="lslash" unicode="&#x142;" horiz-adv-x="567" 
d="M580 768l-156 -70l-98 -698l-191 2l86 604l-162 -74l25 168l160 74l104 739h191l-90 -647l153 72z" />
    <glyph glyph-name="Nacute" unicode="&#x143;" horiz-adv-x="1423" 
d="M969 1874h202l-231 -277h-156zM297 1497h199l548 -1145l160 1145h201l-211 -1497h-201l-544 1145l-162 -1145h-201z" />
    <glyph glyph-name="nacute" unicode="&#x144;" horiz-adv-x="1118" 
d="M809 1122h-156l185 277h202zM941 961q85 -86 85 -230q0 -35 -6 -72l-90 -659h-197l88 618q4 33 4 52q0 96 -52 148t-140 52q-118 0 -195 -80q-75 -80 -92 -202l-82 -586h-194l141 1010h174l-8 -135q51 80 140 125t192 45q146 0 232 -86z" />
    <glyph glyph-name="uni0145" unicode="&#x145;" horiz-adv-x="1423" 
d="M511 -119q43 41 105 41q59 0 100 -35q40 -34 40 -94q0 -34 -14 -67q-14 -30 -44 -66l-129 -162h-106l106 154q-45 8 -72 42q-28 34 -28 85q0 61 42 102zM297 1497h199l548 -1145l160 1145h201l-211 -1497h-201l-544 1145l-162 -1145h-201z" />
    <glyph glyph-name="uni0146" unicode="&#x146;" horiz-adv-x="1118" 
d="M372 -119q43 41 105 41q58 0 99 -35q40 -34 40 -94q0 -34 -14 -67q-12 -29 -43 -66l-129 -162h-106l106 154q-45 8 -72 42q-28 34 -28 85q0 61 42 102zM941 961q85 -86 85 -230q0 -35 -6 -72l-90 -659h-197l88 618q4 33 4 52q0 96 -52 148t-140 52q-118 0 -195 -80
q-75 -80 -92 -202l-82 -586h-194l141 1010h174l-8 -135q51 80 140 125t192 45q146 0 232 -86z" />
    <glyph glyph-name="Ncaron" unicode="&#x147;" horiz-adv-x="1423" 
d="M811 1872l63 -156l111 156h180l-211 -277h-180l-131 277h168zM297 1497h199l548 -1145l160 1145h201l-211 -1497h-201l-544 1145l-162 -1145h-201z" />
    <glyph glyph-name="ncaron" unicode="&#x148;" horiz-adv-x="1118" 
d="M680 1397l63 -156l111 156h180l-211 -277h-180l-131 277h168zM941 961q85 -86 85 -230q0 -35 -6 -72l-90 -659h-197l88 618q4 33 4 52q0 96 -52 148t-140 52q-118 0 -195 -80q-75 -80 -92 -202l-82 -586h-194l141 1010h174l-8 -135q51 80 140 125t192 45q146 0 232 -86z
" />
    <glyph glyph-name="Eng" unicode="&#x14a;" horiz-adv-x="1417" 
d="M1399 1497l-211 -1497l-23 -147q-26 -163 -119 -230q-94 -67 -231 -67q-78 0 -153 18l24 156q51 -8 105 -9q96 2 134 44q38 43 50 124l18 111h-2l-549 1145l-161 -1145h-195l211 1497h192l543 -1145l162 1145h205z" />
    <glyph glyph-name="eng" unicode="&#x14b;" horiz-adv-x="1118" 
d="M941 961q85 -86 85 -230q0 -35 -6 -72l-90 -659l-19 -129q-23 -167 -123 -249q-101 -83 -253 -83q-58 0 -127 19l20 159q52 -6 98 -6q90 0 135 46q44 47 56 134l16 109l88 618q4 33 4 52q0 96 -52 148t-140 52q-118 0 -195 -80q-75 -80 -92 -202l-82 -586h-194l141 1010
h174l-8 -135q51 80 140 125t192 45q146 0 232 -86z" />
    <glyph glyph-name="Omacron" unicode="&#x14c;" horiz-adv-x="1603" 
d="M1278 1800l-21 -147h-583l20 147h584zM435 61q-153 89 -235 252q-83 163 -83 379q0 233 97 426t273 304q176 110 396 110q199 0 350 -90t234 -254t83 -379q0 -238 -98 -429q-98 -192 -273 -300q-175 -109 -395 -109q-198 0 -349 90zM1068 254q125 83 195 227
q70 143 70 322q0 159 -57 277t-160 184q-104 65 -239 65q-155 0 -277 -82q-123 -82 -193 -226q-71 -145 -71 -323q0 -160 57 -278q55 -118 158 -183t237 -65q156 0 280 82z" />
    <glyph glyph-name="omacron" unicode="&#x14d;" horiz-adv-x="1142" 
d="M932 1298l-21 -147h-583l20 147h584zM141 751q65 134 183 215q119 81 274 81q138 0 241 -61q102 -61 160 -175q56 -114 56 -258q0 -155 -63 -289q-64 -134 -183 -213q-119 -80 -277 -80q-137 0 -240 61q-105 61 -160 172q-56 112 -56 257q0 154 65 290zM345 231
q71 -86 190 -86q91 0 165 53q72 52 114 144q42 91 42 205q0 150 -69 237q-71 86 -189 86q-92 0 -166 -53t-116 -146t-42 -206q0 -148 71 -234z" />
    <glyph glyph-name="Ohungarumlaut" unicode="&#x150;" horiz-adv-x="1605" 
d="M842 1884h196l-211 -276h-143zM1178 1884h200l-241 -276h-160zM435 61q-153 89 -235 252q-83 163 -83 379q0 233 97 426t273 304q176 110 396 110q199 0 350 -90t234 -254t83 -379q0 -238 -98 -429q-98 -192 -273 -300q-175 -109 -395 -109q-198 0 -349 90zM1068 254
q125 83 195 227q70 143 70 322q0 159 -57 277t-160 184q-104 65 -239 65q-155 0 -277 -82q-123 -82 -193 -226q-71 -145 -71 -323q0 -160 57 -278q55 -118 158 -183t237 -65q156 0 280 82z" />
    <glyph glyph-name="ohungarumlaut" unicode="&#x151;" horiz-adv-x="1142" 
d="M557 1405h197l-211 -277h-144zM893 1405h201l-242 -277h-160zM141 751q65 134 183 215q119 81 274 81q138 0 241 -61q102 -61 160 -175q56 -114 56 -258q0 -155 -63 -289q-64 -134 -183 -213q-119 -80 -277 -80q-137 0 -240 61q-105 61 -160 172q-56 112 -56 257
q0 154 65 290zM345 231q71 -86 190 -86q91 0 165 53q72 52 114 144q42 91 42 205q0 150 -69 237q-71 86 -189 86q-92 0 -166 -53t-116 -146t-42 -206q0 -148 71 -234z" />
    <glyph glyph-name="OE" unicode="&#x152;" horiz-adv-x="2232" 
d="M1636 1305l-63 -453h567l-26 -190h-568l-67 -472h632l-28 -190h-832l21 150q-98 -86 -222 -132q-122 -47 -266 -47q-198 0 -350 90q-152 89 -234 252q-83 163 -83 379q0 233 97 426t273 304q176 110 396 110q177 0 317 -73q142 -74 227 -204l35 242h832l-27 -192h-631z
M1068 254q125 83 195 227q70 143 70 322q0 159 -57 277t-160 184q-104 65 -239 65q-155 0 -277 -82q-123 -82 -193 -226q-71 -145 -71 -323q0 -160 57 -278q55 -118 158 -183t237 -65q156 0 280 82z" />
    <glyph glyph-name="oe" unicode="&#x153;" horiz-adv-x="1892" 
d="M1606 991q96 -57 146 -155q50 -100 50 -224q0 -42 -6 -88q-6 -37 -20 -92h-732q-10 -140 62 -219q72 -78 205 -78q112 0 188 52q76 51 109 139l161 -60q-59 -141 -182 -218q-124 -77 -284 -77q-128 0 -223 49q-96 47 -154 140q-71 -89 -170 -138q-100 -51 -224 -51
q-137 0 -240 61q-105 61 -160 172q-56 112 -56 257q0 155 65 290q65 134 183 215q119 81 274 81q126 0 223 -52q97 -53 156 -147q71 95 172 147t229 52q130 0 228 -56zM1163 802q-82 -80 -100 -216h549q2 18 2 43q0 118 -64 186q-65 68 -180 68q-124 0 -207 -81zM700 198
q72 52 114 144q42 91 42 205q0 150 -69 237q-71 86 -189 86q-92 0 -166 -53t-116 -146t-42 -206q0 -147 71 -233q70 -87 190 -87q91 0 165 53z" />
    <glyph glyph-name="Racute" unicode="&#x154;" horiz-adv-x="1335" 
d="M879 1597h-156l184 277h203zM1228 764q-92 -123 -251 -174l164 -590h-228l-143 557h-10h-393l-80 -557h-201l211 1497h561q137 0 242 -54q104 -54 162 -153q57 -100 57 -233q0 -171 -91 -293zM1015 820q93 82 93 220q0 121 -73 194t-201 73h-363l-78 -570h361
q167 0 261 83z" />
    <glyph glyph-name="racute" unicode="&#x155;" horiz-adv-x="722" 
d="M381 1112h-156l185 277h202zM733 1012l-24 -189q-44 6 -95 6q-244 0 -282 -272l-80 -557h-193l142 1012h178l-6 -135q38 71 109 108q70 37 157 37q41 0 94 -10z" />
    <glyph glyph-name="uni0156" unicode="&#x156;" horiz-adv-x="1335" 
d="M433 -119q43 41 106 41q58 0 99 -35q40 -34 40 -94q0 -34 -14 -67q-16 -33 -43 -66l-129 -162h-107l107 154q-44 7 -73 42q-28 34 -28 85q0 61 42 102zM1228 764q-92 -123 -251 -174l164 -590h-228l-143 557h-10h-393l-80 -557h-201l211 1497h561q137 0 242 -54
q104 -54 162 -153q57 -100 57 -233q0 -171 -91 -293zM1015 820q93 82 93 220q0 121 -73 194t-201 73h-363l-78 -570h361q167 0 261 83z" />
    <glyph glyph-name="uni0157" unicode="&#x157;" horiz-adv-x="722" 
d="M34 -119q43 41 105 41q59 0 100 -35q40 -34 40 -94q0 -34 -14 -67q-14 -30 -44 -66l-129 -162h-106l106 154q-45 8 -72 42q-28 34 -28 85q0 61 42 102zM733 1012l-24 -189q-44 6 -95 6q-244 0 -282 -272l-80 -557h-193l142 1012h178l-6 -135q38 71 109 108q70 37 157 37
q41 0 94 -10z" />
    <glyph glyph-name="Rcaron" unicode="&#x158;" horiz-adv-x="1335" 
d="M750 1872l63 -156l111 156h180l-211 -277h-180l-131 277h168zM1228 764q-92 -123 -251 -174l164 -590h-228l-143 557h-10h-393l-80 -557h-201l211 1497h561q137 0 242 -54q104 -54 162 -153q57 -100 57 -233q0 -171 -91 -293zM1015 820q93 82 93 220q0 121 -73 194
t-201 73h-363l-78 -570h361q167 0 261 83z" />
    <glyph glyph-name="rcaron" unicode="&#x159;" horiz-adv-x="722" 
d="M252 1386l63 -155l111 155h180l-211 -276h-180l-131 276h168zM733 1012l-24 -189q-44 6 -95 6q-244 0 -282 -272l-80 -557h-193l142 1012h178l-6 -135q38 71 109 108q70 37 157 37q41 0 94 -10z" />
    <glyph glyph-name="Sacute" unicode="&#x15a;" horiz-adv-x="1204" 
d="M844 1882h203l-232 -276h-156zM961 1092q-8 120 -81 184q-74 65 -194 65q-125 0 -209 -66q-84 -67 -84 -177q0 -158 201 -217l203 -62q144 -45 224 -150q79 -106 79 -245q0 -135 -69 -237q-70 -103 -191 -157q-120 -55 -273 -55q-154 0 -265 56q-114 55 -175 154
q-61 97 -64 225l193 30q6 -127 94 -202q88 -76 232 -76q135 0 216 66q81 64 81 178q0 84 -48 140q-50 56 -133 81l-202 61q-317 101 -318 383q0 132 65 238q66 106 179 163q115 58 264 58q198 0 328 -104q130 -105 143 -285z" />
    <glyph glyph-name="sacute" unicode="&#x15b;" horiz-adv-x="897" 
d="M621 1395h202l-231 -277h-156zM664 725q4 73 -41 119q-45 45 -127 45q-85 0 -134 -43q-51 -44 -51 -111q0 -51 32 -78q31 -28 93 -43l152 -41q104 -27 159 -96q54 -69 54 -166q0 -157 -115 -248q-116 -92 -295 -92q-171 0 -268 84q-98 84 -92 226l176 28q-5 -79 45 -129
q49 -49 147 -49q91 0 146 42t55 116q0 85 -102 117l-162 45q-225 66 -225 260q0 150 108 243q107 93 283 93q155 0 246 -77q90 -77 92 -206z" />
    <glyph glyph-name="Scedilla" unicode="&#x15e;" horiz-adv-x="1187" 
d="M1021 669q79 -106 79 -245q0 -186 -128 -306q-127 -120 -329 -138l-35 -66q68 5 113 -33q45 -37 45 -102q0 -73 -56 -117q-56 -43 -141 -43q-81 0 -131 43q-51 43 -49 111h117q0 -26 16 -39q14 -13 43 -13q31 0 50 15q18 16 18 45q0 27 -18 40q-19 13 -48 13
q-12 0 -35 -4l-49 25l62 120q-145 4 -254 61q-108 55 -167 153q-58 95 -61 221l193 30q6 -127 94 -202q88 -76 232 -76q135 0 216 66q81 64 81 178q0 84 -48 140q-50 56 -133 81l-202 61q-317 101 -318 383q0 132 65 238q66 106 179 163q115 58 264 58q198 0 328 -104
q130 -105 143 -285l-196 -49q-8 120 -81 184q-74 65 -194 65q-125 0 -209 -66q-84 -67 -84 -177q0 -158 201 -217l203 -62q144 -45 224 -150z" />
    <glyph glyph-name="scedilla" unicode="&#x15f;" horiz-adv-x="897" 
d="M747 478q54 -71 54 -167q0 -143 -96 -232q-99 -90 -252 -106l-35 -65q68 5 113 -33q44 -38 44 -102q0 -73 -56 -117q-55 -43 -140 -43q-81 0 -131 43q-51 43 -49 111h116q0 -26 16 -39q14 -13 44 -13q31 0 49 15q18 16 18 45q0 27 -18 40q-17 13 -47 13q-12 0 -35 -4
l-49 24l63 123q-157 11 -243 92q-88 82 -82 218l176 28q-5 -79 45 -129q49 -49 147 -49q91 0 146 42t55 116q0 85 -102 117l-162 45q-225 66 -225 260q0 150 108 243q107 93 283 93q155 0 246 -77q90 -77 92 -206l-176 -39q4 73 -41 119q-45 45 -127 45q-85 0 -134 -43
q-51 -44 -51 -111q0 -51 32 -78q31 -28 93 -43l152 -41q103 -25 159 -95z" />
    <glyph glyph-name="Scaron" unicode="&#x160;" horiz-adv-x="1204" 
d="M686 1880l64 -156l110 156h180l-211 -276h-180l-131 276h168zM961 1092q-8 120 -81 184q-74 65 -194 65q-125 0 -209 -66q-84 -67 -84 -177q0 -158 201 -217l203 -62q144 -45 224 -150q79 -106 79 -245q0 -135 -69 -237q-70 -103 -191 -157q-120 -55 -273 -55
q-154 0 -265 56q-114 55 -175 154q-61 97 -64 225l193 30q6 -127 94 -202q88 -76 232 -76q135 0 216 66q81 64 81 178q0 84 -48 140q-50 56 -133 81l-202 61q-317 101 -318 383q0 132 65 238q66 106 179 163q115 58 264 58q198 0 328 -104q130 -105 143 -285z" />
    <glyph glyph-name="scaron" unicode="&#x161;" horiz-adv-x="897" 
d="M463 1393l63 -156l111 156h180l-211 -277h-180l-131 277h168zM664 725q4 73 -41 119q-45 45 -127 45q-85 0 -134 -43q-51 -44 -51 -111q0 -51 32 -78q31 -28 93 -43l152 -41q104 -27 159 -96q54 -69 54 -166q0 -157 -115 -248q-116 -92 -295 -92q-171 0 -268 84
q-98 84 -92 226l176 28q-5 -79 45 -129q49 -49 147 -49q91 0 146 42t55 116q0 85 -102 117l-162 45q-225 66 -225 260q0 150 108 243q107 93 283 93q155 0 246 -77q90 -77 92 -206z" />
    <glyph glyph-name="uni0162" unicode="&#x162;" horiz-adv-x="1175" 
d="M567 0l-39 -76q68 5 113 -33q45 -36 45 -102q0 -73 -56 -117q-56 -43 -141 -43q-81 0 -131 43q-51 43 -49 111h117q0 -25 16 -38q14 -13 43 -13q31 0 50 15q18 15 18 44q0 27 -18 40q-19 13 -48 13q-13 0 -34 -4l-50 25l68 135h-61l182 1307h-440l28 190h1082l-29 -190
h-438l-183 -1307h-45z" />
    <glyph glyph-name="uni0163" unicode="&#x163;" horiz-adv-x="827" 
d="M449 319q-1 -10 -2 -19.5t-2 -17t-1 -10.5q0 -68 34 -96q35 -29 102 -29q54 0 120 13l-22 -156q-67 -19 -154 -24l-32 -62q68 5 113 -33q44 -38 44 -102q0 -73 -56 -117q-55 -43 -140 -43q-81 0 -131 43q-52 43 -50 111h117q0 -25 16 -38q14 -13 44 -13q31 0 49 15t18 44
q0 27 -18 40q-19 13 -47 13q-12 0 -35 -4l-49 25l65 129q-88 18 -136 84q-48 64 -48 166q0 33 6 69l76 535h-236l23 170h235l39 270l195 16l-41 -286h272l-22 -170h-273z" />
    <glyph glyph-name="Tcaron" unicode="&#x164;" horiz-adv-x="1175" 
d="M682 1872l63 -156l111 156h180l-211 -277h-180l-131 277h168zM1233 1307h-438l-183 -1307h-202l182 1307h-440l28 190h1082z" />
    <glyph glyph-name="tcaron" unicode="&#x165;" horiz-adv-x="819" 
d="M754 1092h-117l65 405h170zM545 1012h272l-22 -170h-273l-73 -523q-1 -10 -2 -19.5t-2 -17t-1 -10.5q0 -68 34 -96q35 -29 102 -29q54 0 120 13l-22 -156q-38 -12 -85 -18q-48 -6 -87 -6q-125 0 -191 69q-67 67 -67 189q0 33 6 69l76 535h-236l23 170h235l39 270l195 16z
" />
    <glyph glyph-name="Tbar" unicode="&#x166;" horiz-adv-x="1175" 
d="M795 1307l-66 -476h430l-24 -153h-428l-95 -678h-202l94 678h-422l22 153h422l66 476h-440l28 190h1082l-29 -190h-438z" />
    <glyph glyph-name="tbar" unicode="&#x167;" horiz-adv-x="806" 
d="M522 842l-30 -221h284l-22 -148h-283l-22 -154q-1 -10 -2 -19.5t-2 -17t-1 -10.5q0 -68 34 -96q35 -29 102 -29q54 0 120 13l-22 -156q-38 -12 -85 -18q-48 -6 -87 -6q-125 0 -191 69q-67 67 -67 189q0 33 6 69l22 166h-225l23 148h225l31 221h-236l23 170h235l39 270
l195 16l-41 -286h272l-22 -170h-273z" />
    <glyph glyph-name="Umacron" unicode="&#x16a;" horiz-adv-x="1390" 
d="M1161 1778l-20 -148h-584l21 148h583zM279 1497h204l-133 -942q-6 -45 -6 -86q0 -148 79 -227q80 -80 226 -80q167 0 271 104q101 103 127 289l133 942h202l-133 -956q-39 -273 -202 -421q-164 -149 -404 -149q-153 0 -266 58q-115 57 -177 167q-63 110 -63 257
q0 26 8 104z" />
    <glyph glyph-name="umacron" unicode="&#x16b;" horiz-adv-x="1118" 
d="M952 1282l-20 -147h-584l21 147h583zM1049 1010l-142 -1010h-174l10 137q-45 -76 -130 -121t-189 -45q-150 0 -234 87t-84 239q0 42 7 78l90 637h194l-86 -615q-4 -36 -4 -55q0 -94 53 -145q52 -52 142 -52q112 0 183 74q69 73 87 209l82 582h195z" />
    <glyph glyph-name="Uring" unicode="&#x16e;" horiz-adv-x="1390" 
d="M652 1827q37 57 100 89q62 32 131 32q100 0 163 -63q62 -65 62 -163q0 -72 -37 -130q-38 -59 -98 -90q-62 -32 -129 -32q-101 0 -165 64q-65 63 -65 162q0 72 38 131zM778 1623q28 -30 74 -30q50 0 88 36q37 36 37 89q0 48 -29 79q-30 30 -76 30q-54 0 -88 -37
q-36 -38 -36 -90q0 -47 30 -77zM279 1497h204l-133 -942q-6 -45 -6 -86q0 -148 79 -227q80 -80 226 -80q167 0 271 104q101 103 127 289l133 942h202l-133 -956q-39 -273 -202 -421q-164 -149 -404 -149q-153 0 -266 58q-115 57 -177 167q-63 110 -63 257q0 26 8 104z" />
    <glyph glyph-name="uring" unicode="&#x16f;" horiz-adv-x="1118" 
d="M471 1039q-65 63 -65 161q0 73 38 132q38 58 99 89t131 31q100 0 163 -63q62 -65 62 -162q0 -72 -37 -130q-38 -59 -98 -90q-62 -32 -129 -32q-100 0 -164 64zM575 1294q-36 -38 -36 -90q0 -48 30 -76q28 -30 74 -30q51 0 88 36q37 34 37 89q0 48 -29 79q-31 29 -75 29
q-55 0 -89 -37zM1049 1010l-142 -1010h-174l10 137q-45 -76 -130 -121t-189 -45q-150 0 -234 87t-84 239q0 42 7 78l90 637h194l-86 -615q-4 -36 -4 -55q0 -94 53 -145q52 -52 142 -52q112 0 183 74q69 73 87 209l82 582h195z" />
    <glyph glyph-name="Uhungarumlaut" unicode="&#x170;" horiz-adv-x="1390" 
d="M786 1884h197l-211 -276h-143zM1122 1884h201l-242 -276h-159zM279 1497h204l-133 -942q-6 -45 -6 -86q0 -148 79 -227q80 -80 226 -80q167 0 271 104q101 103 127 289l133 942h202l-133 -956q-39 -273 -202 -421q-164 -149 -404 -149q-153 0 -266 58q-115 57 -177 167
q-63 110 -63 257q0 26 8 104z" />
    <glyph glyph-name="uhungarumlaut" unicode="&#x171;" horiz-adv-x="1087" 
d="M545 1393h196l-211 -277h-143zM881 1393h200l-241 -277h-160zM1049 1010l-142 -1010h-174l10 137q-45 -76 -130 -121t-189 -45q-150 0 -234 87t-84 239q0 42 7 78l90 637h194l-86 -615q-4 -36 -4 -55q0 -94 53 -145q52 -52 142 -52q112 0 183 74q69 73 87 209l82 582h195
z" />
    <glyph glyph-name="Uogonek" unicode="&#x172;" horiz-adv-x="1390" 
d="M1382 1497l-133 -956q-37 -256 -183 -403q-146 -148 -366 -165q-141 -67 -141 -135q0 -61 74 -61q36 0 72 16v-133q-53 -27 -121 -27q-78 0 -131 41q-54 40 -54 111q0 116 142 195q-185 28 -295 153q-109 122 -109 320q0 26 8 104l134 940h204l-133 -942q-6 -45 -6 -86
q0 -148 79 -227q80 -80 226 -80q167 0 271 104q101 103 127 289l133 942h202z" />
    <glyph glyph-name="uogonek" unicode="&#x173;" horiz-adv-x="1118" 
d="M750 -141q0 -61 73 -62q33 0 72 17v-133q-53 -27 -121 -27q-78 0 -131 41t-53 110q0 117 143 195l10 137q-45 -76 -130 -121t-189 -45q-150 0 -234 87t-84 239q0 42 7 78l90 637h194l-86 -615q-4 -36 -4 -55q0 -94 53 -145q52 -52 142 -52q112 0 183 74q69 73 87 209
l82 582h195l-142 -1010h-4q-153 -74 -153 -141z" />
    <glyph glyph-name="Wcircumflex" unicode="&#x174;" horiz-adv-x="1972" 
d="M1202 1595l-67 160l-107 -160h-184l213 277h178l133 -277h-166zM393 1497l92 -1151l523 1151h204l197 -1149l436 1149h230l-590 -1497h-217l-205 1153l-533 -1153h-202l-152 1497h217z" />
    <glyph glyph-name="wcircumflex" unicode="&#x175;" horiz-adv-x="1560" 
d="M948 1098l-67 159l-107 -159h-184l213 276h178l133 -276h-166zM319 1012l115 -725l47 110l76 176l195 439h194l119 -725q15 41 55 135l29 70l231 520h209l-456 -1012h-203l-119 727q-37 -90 -117 -262l-209 -465h-196l-174 1012h204z" />
    <glyph glyph-name="Ycircumflex" unicode="&#x176;" horiz-adv-x="1193" 
d="M834 1579l-68 160l-107 -160h-184l213 276h178l133 -276h-165zM379 1497l162 -440l43 -121q22 -52 45 -123q18 31 78 117l86 131l286 436h240l-610 -881l-86 -616h-205l86 616l-350 881h225z" />
    <glyph glyph-name="ycircumflex" unicode="&#x177;" horiz-adv-x="1011" 
d="M674 1098l-68 159l-106 -159h-185l213 276h179l133 -276h-166zM1057 1012l-674 -1440h-201l215 465l-303 975h207l213 -723l336 723h207z" />
    <glyph glyph-name="Ydieresis" unicode="&#x178;" horiz-adv-x="1193" 
d="M486 1630q-33 33 -33 84q0 54 39 91q38 38 94 38q50 0 84 -32q32 -34 32 -87t-37 -90t-98 -37q-49 0 -81 33zM865 1630q-34 33 -34 84q0 54 39 91q40 38 95 38q52 0 84 -31q32 -32 32 -88q0 -52 -36 -90q-37 -37 -97 -37q-48 0 -83 33zM379 1497l162 -440l43 -121
q22 -52 45 -123q18 31 78 117l86 131l286 436h240l-610 -881l-86 -616h-205l86 616l-350 881h225z" />
    <glyph glyph-name="Zacute" unicode="&#x179;" horiz-adv-x="1150" 
d="M831 1874h203l-231 -277h-156zM45 186l877 1119h-709l27 190l968 2l-24 -186l-879 -1121h699l-27 -190h-959z" />
    <glyph glyph-name="zacute" unicode="&#x17a;" horiz-adv-x="944" 
d="M662 1376h202l-231 -276h-156zM61 178l576 651h-479l24 183h723l-28 -189l-564 -641h478l-25 -182h-729z" />
    <glyph glyph-name="Zdotaccent" unicode="&#x17b;" horiz-adv-x="1150" 
d="M654 1647q-33 31 -33 84t39 91q38 38 94 38q51 0 84 -33q32 -34 32 -86q0 -53 -37 -90t-98 -37q-49 0 -81 33zM45 186l877 1119h-709l27 190l968 2l-24 -186l-879 -1121h699l-27 -190h-959z" />
    <glyph glyph-name="zdotaccent" unicode="&#x17c;" horiz-adv-x="944" 
d="M484 1149q-33 33 -33 84q0 53 39 91q38 38 94 38q51 0 84 -33q32 -34 32 -86q0 -53 -37 -90t-98 -37q-49 0 -81 33zM61 178l576 651h-479l24 183h723l-28 -189l-564 -641h478l-25 -182h-729z" />
    <glyph glyph-name="Zcaron" unicode="&#x17d;" horiz-adv-x="1150" 
d="M674 1872l63 -156l111 156h180l-211 -277h-180l-131 277h168zM45 186l877 1119h-709l27 190l968 2l-24 -186l-879 -1121h699l-27 -190h-959z" />
    <glyph glyph-name="zcaron" unicode="&#x17e;" horiz-adv-x="944" 
d="M504 1374l63 -155l111 155h180l-211 -276h-180l-131 276h168zM61 178l576 651h-479l24 183h723l-28 -189l-564 -641h478l-25 -182h-729z" />
    <glyph glyph-name="florin" unicode="&#x192;" horiz-adv-x="1155" 
d="M920 1315q-49 -41 -74 -129l-51 -178h290l-12 -177h-332l-227 -780q-45 -156 -139 -219q-95 -63 -225 -63q-50 0 -142 18l10 164q41 -10 99 -10q92 0 140 42q49 43 83 156l199 692h-228l13 177h270l65 237q44 148 135 215q92 68 228 68q78 0 152 -23l-13 -159
q-39 10 -102 10q-92 0 -139 -41z" />
    <glyph glyph-name="AEacute" unicode="&#x1fc;" horiz-adv-x="1779" 
d="M1397 1552h-156l184 277h203zM1202 1264l-61 -435h549l-27 -188h-549l-63 -453h610l-27 -188h-809l45 313h-471l-206 -313h-240l979 1454h907l-27 -190h-610zM895 496l102 723l-477 -723h375z" />
    <glyph glyph-name="aeacute" unicode="&#x1fd;" horiz-adv-x="1855" 
d="M1063 1087h-156l185 277h202zM1604 991q96 -57 146 -155q50 -100 50 -224q0 -42 -6 -88q-6 -37 -20 -92h-732q-10 -140 62 -219q72 -78 205 -78q112 0 188 52q76 51 109 139l161 -60q-59 -141 -182 -218q-124 -77 -285 -77q-107 0 -194 35q-86 35 -145 103l-15 -109h-188
l18 127q-52 -75 -136 -115q-87 -41 -183 -41q-171 0 -274 120q-105 120 -105 339q0 169 65 311q65 139 180 222q115 81 261 81q104 0 184 -45t117 -120l28 133h174l-8 -60q126 93 297 95q130 0 228 -56zM1161 802q-82 -80 -100 -216h549q2 18 2 43q0 118 -64 186
q-65 68 -180 68q-124 0 -207 -81zM675 193q73 55 114 153q40 96 40 223q0 159 -63 235q-65 77 -166 77q-94 0 -168 -59q-75 -61 -113 -160q-40 -99 -40 -218q0 -151 64 -228q63 -79 169 -79q89 0 163 56z" />
    <glyph glyph-name="uni0218" unicode="&#x218;" horiz-adv-x="1204" 
d="M411 -133q43 41 105 41q58 0 99 -35q40 -34 40 -94q0 -34 -14 -67q-12 -29 -43 -66l-129 -162h-107l107 154q-45 7 -72 41q-28 34 -28 85q0 62 42 103zM961 1092q-8 120 -81 184q-74 65 -194 65q-125 0 -209 -66q-84 -67 -84 -177q0 -158 201 -217l203 -62
q144 -45 224 -150q79 -106 79 -245q0 -135 -69 -237q-70 -103 -191 -157q-120 -55 -273 -55q-154 0 -265 56q-114 55 -175 154q-61 97 -64 225l193 30q6 -127 94 -202q88 -76 232 -76q135 0 216 66q81 64 81 178q0 84 -48 140q-50 56 -133 81l-202 61q-317 101 -318 383
q0 132 65 238q66 106 179 163q115 58 264 58q198 0 328 -104q130 -105 143 -285z" />
    <glyph glyph-name="uni0219" unicode="&#x219;" horiz-adv-x="870" 
d="M294 -139q43 41 105 41q59 0 100 -35q40 -34 40 -94q0 -34 -14 -67q-14 -30 -44 -66l-129 -162h-106l106 153q-45 7 -72 42q-28 34 -28 85q0 62 42 103zM664 725q4 73 -41 119q-45 45 -127 45q-85 0 -134 -43q-51 -44 -51 -111q0 -51 32 -78q31 -28 93 -43l152 -41
q104 -27 159 -96q54 -69 54 -166q0 -157 -115 -248q-116 -92 -295 -92q-171 0 -268 84q-98 84 -92 226l176 28q-5 -79 45 -129q49 -49 147 -49q91 0 146 42t55 116q0 85 -102 117l-162 45q-225 66 -225 260q0 150 108 243q107 93 283 93q155 0 246 -77q90 -77 92 -206z" />
    <glyph glyph-name="uni021A" unicode="&#x21a;" horiz-adv-x="1175" 
d="M382 -123q43 41 105 41q59 0 100 -35q40 -34 40 -94q0 -34 -14 -67q-14 -30 -44 -66l-129 -162h-106l106 154q-45 8 -72 42q-28 34 -28 85q0 61 42 102zM1233 1307h-438l-183 -1307h-202l182 1307h-440l28 190h1082z" />
    <glyph glyph-name="uni021B" unicode="&#x21b;" horiz-adv-x="827" 
d="M345 -129q43 41 106 41q58 0 99 -35q40 -34 40 -94q0 -34 -14 -67q-14 -30 -44 -66l-129 -162h-106l106 154q-45 7 -72 41q-28 34 -28 86q0 61 42 102zM449 319q-1 -10 -2 -19.5t-2 -17t-1 -10.5q0 -68 34 -96q35 -29 102 -29q54 0 120 13l-22 -156q-38 -12 -85 -18
q-48 -6 -87 -6q-125 0 -191 69q-67 67 -67 189q0 33 6 69l76 535h-236l23 170h235l39 270l195 16l-41 -286h272l-22 -170h-273z" />
    <glyph glyph-name="circumflex" unicode="&#x2c6;" horiz-adv-x="768" 
d="M561 1311l-67 159l-107 -159h-184l213 276h178l133 -276h-166z" />
    <glyph glyph-name="caron" unicode="&#x2c7;" horiz-adv-x="770" 
d="M516 1587l64 -155l110 155h180l-211 -276h-180l-131 276h168z" />
    <glyph glyph-name="breve" unicode="&#x2d8;" horiz-adv-x="798" 
d="M846 1579q-6 -124 -93 -203q-88 -80 -212 -80q-114 0 -190 68q-75 68 -75 172q0 11 5 43h143q-2 -14 -2 -29q0 -53 34 -83q32 -31 89 -31q67 0 107 39q40 37 46 104h148z" />
    <glyph glyph-name="dotaccent" unicode="&#x2d9;" horiz-adv-x="442" 
d="M254 1342q-33 32 -33 83q0 53 39 91q40 38 94 38q50 0 84 -32q33 -33 33 -86q0 -52 -38 -90q-37 -37 -97 -37q-49 0 -82 33z" />
    <glyph glyph-name="ring" unicode="&#x2da;" horiz-adv-x="659" 
d="M249 1536q37 57 100 89q62 32 130 32q100 0 163 -63q63 -64 63 -162q0 -72 -37 -130q-38 -59 -98 -90q-62 -32 -130 -32q-100 0 -164 64q-65 63 -65 161q0 73 38 131zM374 1333q28 -30 75 -30q51 0 88 36q36 35 36 88q0 48 -29 79q-30 30 -75 30q-53 0 -89 -37t-36 -90
q0 -47 30 -76z" />
    <glyph glyph-name="ogonek" unicode="&#x2db;" horiz-adv-x="518" 
d="M281 -348q-78 0 -131 41q-54 41 -54 110q0 128 176 211l142 -14q-158 -74 -158 -143q0 -60 74 -62q34 0 71 17v-134q-54 -26 -120 -26z" />
    <glyph glyph-name="tilde" unicode="&#x2dc;" horiz-adv-x="747" 
d="M453 1551q35 -17 69 -38q26 -16 49 -27q19 -9 41 -9q32 0 52 24q19 23 14 58h125q4 -111 -50 -173q-55 -63 -141 -63q-39 0 -72 14q-38 16 -73 37q-22 16 -40 25q-20 10 -40 10q-31 0 -49 -23q-19 -24 -12 -61h-125q-6 106 45 172t139 66q39 0 68 -12z" />
    <glyph glyph-name="hungarumlaut" unicode="&#x2dd;" horiz-adv-x="806" 
d="M276 1579h197l-211 -276h-143zM612 1579h201l-242 -276h-159z" />
    <glyph glyph-name="gravecomb" unicode="&#x300;" 
d="M-188 1303l-228 276h211l170 -276h-153z" />
    <glyph glyph-name="acutecomb" unicode="&#x301;" 
d="M41 1579h203l-232 -276h-155z" />
    <glyph glyph-name="uni0302" unicode="&#x302;" 
d="M-207 1311l-67 159l-107 -159h-184l213 276h178l133 -276h-166z" />
    <glyph glyph-name="tildecomb" unicode="&#x303;" 
d="M-295 1551q39 -18 70 -38q29 -18 48 -27t42 -9q33 0 51 24q19 23 14 58h125q4 -111 -50 -173q-54 -63 -140 -63q-40 0 -73 14q-38 16 -73 37q-23 16 -41 25q-19 10 -38 10q-30 0 -50 -23q-18 -24 -12 -61h-125q-6 106 45 172t140 66q38 0 67 -12z" />
    <glyph glyph-name="uni0304" unicode="&#x304;" 
d="M49 1536l-20 -147h-584l20 147h584z" />
    <glyph glyph-name="uni0306" unicode="&#x306;" 
d="M174 1579q-6 -124 -93 -203q-88 -80 -212 -80q-114 0 -190 68q-74 68 -74 172q0 18 4 43h143q-2 -14 -2 -29q0 -53 34 -83q34 -31 89 -31q65 0 106 39q40 36 48 104h147z" />
    <glyph glyph-name="uni0307" unicode="&#x307;" 
d="M-191 1342q-32 32 -32 83q0 53 39 91q40 38 94 38q50 0 84 -32q33 -33 33 -86q0 -52 -38 -90q-37 -37 -98 -37q-49 0 -82 33z" />
    <glyph glyph-name="uni0308" unicode="&#x308;" 
d="M-533 1342q-32 32 -32 83q0 53 39 91q40 38 94 38q50 0 84 -32q33 -33 33 -86q0 -52 -38 -90q-37 -37 -98 -37q-49 0 -82 33zM-153 1342q-33 32 -33 83q0 53 38 91q40 38 95 38q52 0 84 -31q32 -32 32 -87q0 -52 -36 -90q-37 -37 -97 -37q-48 0 -83 33z" />
    <glyph glyph-name="uni030A" unicode="&#x30a;" 
d="M-353 1536q38 58 99 89q62 32 131 32q100 0 163 -63q62 -65 62 -162q0 -72 -36 -130q-38 -60 -99 -90q-62 -32 -129 -32q-101 0 -165 64q-64 63 -64 161q0 73 38 131zM-229 1333q30 -30 75 -30q50 0 88 36q37 34 37 88q0 49 -30 79q-29 30 -74 30q-53 0 -89 -37t-36 -90
q0 -47 29 -76z" />
    <glyph glyph-name="uni030B" unicode="&#x30b;" 
d="M-530 1579h196l-211 -276h-143zM-195 1579h201l-242 -276h-159z" />
    <glyph glyph-name="uni030C" unicode="&#x30c;" 
d="M-252 1587l64 -155l110 155h180l-211 -276h-180l-131 276h168z" />
    <glyph glyph-name="uni0312" unicode="&#x312;" 
d="M-8 1341q-41 -41 -107 -41q-57 0 -97 36t-40 96q0 62 59 133l127 159h107l-107 -153q46 -11 72 -44q27 -35 27 -83q0 -62 -41 -103z" />
    <glyph glyph-name="uni0326" unicode="&#x326;" 
d="M-398 -41q43 41 105 41q58 0 99 -35q40 -34 40 -94q0 -34 -14 -67q-12 -29 -43 -66l-129 -162h-106l106 154q-44 7 -73 41q-27 34 -27 86q0 61 42 102z" />
    <glyph glyph-name="uni0327" unicode="&#x327;" 
d="M-254 -12l-45 -86q68 5 113 -33q45 -37 45 -102q0 -73 -57 -117q-55 -43 -140 -43q-81 0 -131 43t-49 110h117q0 -24 15 -38q14 -13 44 -13q31 0 49 15q19 16 19 45q0 27 -19 40q-17 13 -47 13q-12 0 -35 -4l-49 24l86 170z" />
    <glyph glyph-name="uni0328" unicode="&#x328;" 
d="M-238 -348q-78 0 -131 41t-53 110q0 128 176 211l142 -14q-158 -74 -158 -143q0 -60 74 -62q34 0 71 17v-134q-54 -26 -121 -26z" />
    <glyph glyph-name="uni0335" unicode="&#x335;" 
d="M2 666l-22 -138h-674l22 138h674z" />
    <glyph glyph-name="uni0336" unicode="&#x336;" 
d="M-145 674l-23 -152h-1137l23 152h1137z" />
    <glyph glyph-name="uni0337" unicode="&#x337;" 
d="M-68 1135h193l-1034 -1201h-193z" />
    <glyph glyph-name="uni0338" unicode="&#x338;" 
d="M-287 1047h150l-905 -1078h-152z" />
    <glyph glyph-name="Theta" unicode="&#x398;" horiz-adv-x="1515" 
d="M430 73q-159 98 -248 275q-88 175 -88 404q0 228 88 404t249 277q161 99 370 99t369 -99q159 -100 247 -278q88 -177 88 -403q0 -228 -88 -404q-89 -179 -248 -276q-161 -99 -370 -99t-369 100zM1055 247q109 75 171 207q60 132 60 300q0 166 -60 298q-62 133 -171 206
q-110 73 -254 73q-142 0 -254 -74q-110 -75 -172 -207q-62 -133 -62 -298q0 -167 62 -300q61 -133 172 -206q110 -74 254 -74q143 0 254 75zM1040 823v-145h-495v145h495z" />
    <glyph glyph-name="uni03A9" unicode="&#x3a9;" horiz-adv-x="1800" 
d="M1675 213v-213h-653v225q193 76 295 232q102 154 102 340q0 144 -68 260q-69 114 -186 177q-119 62 -262 62q-145 0 -264 -63q-120 -65 -187 -177q-69 -114 -69 -261q0 -187 105 -341q104 -156 294 -229l-2 -225h-653v213h317q-147 113 -225 270q-78 156 -78 336
q0 201 99 364q97 162 272 256q174 93 393 93t392 -93t270 -256q96 -163 96 -362q0 -182 -78 -338q-78 -157 -227 -270h317z" />
    <glyph glyph-name="uni03BC" unicode="&#x3bc;" horiz-adv-x="1216" 
d="M729 8q-78 -39 -174 -39q-63 0 -120 21q-60 23 -99 65v-456h-186v1415h196v-621q0 -118 59 -191q58 -73 183 -73q119 0 181 77t62 200v608h197v-1014h-186v123q-34 -76 -113 -115z" />
    <glyph glyph-name="pi" unicode="&#x3c0;" horiz-adv-x="1243" 
d="M1006 -14q-110 0 -175 62t-65 183v611h-311v-842h-195v842h-166v172h1059v-172h-188v-574q0 -59 29 -82q28 -24 83 -24q41 0 80 10v-164q-51 -22 -151 -22z" />
    <glyph glyph-name="uni04D9" unicode="&#x4d9;" horiz-adv-x="1087" 
d="M768 948q103 -64 162 -184q57 -118 57 -275q0 -155 -56 -273q-57 -118 -161 -183q-104 -66 -242 -66q-134 0 -231 61q-97 60 -150 168t-53 246q0 60 10 123h691q-1 126 -77 205q-75 78 -196 78q-97 0 -170 -50q-72 -49 -98 -132l-158 59q40 128 159 208q118 79 271 79
q139 0 242 -64zM721 207q69 77 74 207h-506q-2 -134 65 -209q66 -76 181 -76t186 78z" />
    <glyph glyph-name="uni0E3F" unicode="&#xe3f;" horiz-adv-x="1169" 
d="M1020 399q0 -179 -122 -289t-327 -110h-36l-33 -229h-107l33 229h-344l184 1300l344 -2l29 199h102l-28 -199h6q169 0 260 -82q92 -83 92 -231q0 -116 -52 -199q-53 -85 -144 -131q143 -78 143 -256zM362 729h170l58 401h-168zM692 1130l-55 -401h4q114 0 179 64
q65 63 65 163q0 81 -50 128q-50 46 -141 46h-2zM453 170l57 401h-170l-55 -401h168zM761 235q66 65 66 164q0 82 -49 127q-50 45 -135 45h-29l-57 -401h25q111 0 179 65z" />
    <glyph glyph-name="Wgrave" unicode="&#x1e80;" horiz-adv-x="1972" 
d="M1028 1608l-227 276h211l170 -276h-154zM393 1497l92 -1151l523 1151h204l197 -1149l436 1149h230l-590 -1497h-217l-205 1153l-533 -1153h-202l-152 1497h217z" />
    <glyph glyph-name="wgrave" unicode="&#x1e81;" horiz-adv-x="1560" 
d="M774 1110l-227 276h211l170 -276h-154zM319 1012l115 -725l47 110l76 176l195 439h194l119 -725q15 41 55 135l29 70l231 520h209l-456 -1012h-203l-119 727q-37 -90 -117 -262l-209 -465h-196l-174 1012h204z" />
    <glyph glyph-name="Wacute" unicode="&#x1e82;" horiz-adv-x="1972" 
d="M1221 1874h202l-231 -277h-156zM393 1497l92 -1151l523 1151h204l197 -1149l436 1149h230l-590 -1497h-217l-205 1153l-533 -1153h-202l-152 1497h217z" />
    <glyph glyph-name="wacute" unicode="&#x1e83;" horiz-adv-x="1560" 
d="M967 1376h202l-231 -276h-156zM319 1012l115 -725l47 110l76 176l195 439h194l119 -725q15 41 55 135l29 70l231 520h209l-456 -1012h-203l-119 727q-37 -90 -117 -262l-209 -465h-196l-174 1012h204z" />
    <glyph glyph-name="Wdieresis" unicode="&#x1e84;" horiz-adv-x="1972" 
d="M854 1647q-33 31 -33 84t39 91q40 38 94 38q51 0 84 -33t33 -86q0 -52 -38 -90q-37 -37 -97 -37q-49 0 -82 33zM1234 1647q-34 31 -34 84t39 91q40 38 94 38q50 0 84 -32q33 -32 33 -87q0 -53 -37 -90t-96 -37q-49 0 -83 33zM393 1497l92 -1151l523 1151h204l197 -1149
l436 1149h230l-590 -1497h-217l-205 1153l-533 -1153h-202l-152 1497h217z" />
    <glyph glyph-name="wdieresis" unicode="&#x1e85;" horiz-adv-x="1560" 
d="M600 1149q-33 33 -33 84q0 53 39 91q40 38 94 38q51 0 84 -33t33 -86q0 -52 -38 -90q-37 -37 -97 -37q-49 0 -82 33zM980 1149q-34 33 -34 84q0 53 39 91q40 38 94 38q50 0 84 -32q33 -32 33 -87q0 -53 -37 -90t-96 -37q-49 0 -83 33zM319 1012l115 -725l47 110l76 176
l195 439h194l119 -725q15 41 55 135l29 70l231 520h209l-456 -1012h-203l-119 727q-37 -90 -117 -262l-209 -465h-196l-174 1012h204z" />
    <glyph glyph-name="Ygrave" unicode="&#x1ef2;" horiz-adv-x="1193" 
d="M659 1591l-227 277h211l170 -277h-154zM379 1497l162 -440l43 -121q22 -52 45 -123q18 31 78 117l86 131l286 436h240l-610 -881l-86 -616h-205l86 616l-350 881h225z" />
    <glyph glyph-name="ygrave" unicode="&#x1ef3;" horiz-adv-x="1011" 
d="M500 1110l-228 276h211l170 -276h-153zM1057 1012l-674 -1440h-201l215 465l-303 975h207l213 -723l336 723h207z" />
    <glyph glyph-name="endash" unicode="&#x2013;" horiz-adv-x="1556" 
d="M1456 487l-1362 -2l23 177l1364 2z" />
    <glyph glyph-name="emdash" unicode="&#x2014;" horiz-adv-x="2050" 
d="M1950 487l-1856 -2l23 177l1859 2z" />
    <glyph glyph-name="quoteleft" unicode="&#x2018;" horiz-adv-x="540" 
d="M489 1236q23 -32 23 -77q0 -70 -45 -115t-115 -45q-68 0 -109 41q-42 40 -42 101q0 39 18 75q16 34 53 74l215 248l78 -51l-141 -207q41 -12 65 -44z" />
    <glyph glyph-name="quoteright" unicode="&#x2019;" horiz-adv-x="540" 
d="M511 1491q42 -41 42 -100q0 -67 -72 -150l-213 -248l-80 54l142 204q-41 12 -64 44q-24 31 -24 77q0 70 45 115t114 45q67 0 110 -41z" />
    <glyph glyph-name="quotesinglbase" unicode="&#x201a;" horiz-adv-x="542" 
d="M338 230q43 -42 43 -103q0 -71 -70 -145l-219 -248l-78 51l136 201q-38 13 -61 49q-23 35 -21 78q0 68 45 113q45 46 114 46q67 0 111 -42z" />
    <glyph glyph-name="quotedblleft" unicode="&#x201c;" horiz-adv-x="940" 
d="M563 1473l-141 -207q41 -12 65 -44q23 -32 23 -77q0 -70 -45 -115t-115 -45q-68 0 -109 41q-42 40 -42 100q0 71 71 150l215 248zM887 1222q24 -32 24 -77q0 -70 -46 -115q-47 -45 -115 -45q-67 0 -111 41q-43 40 -43 100q0 65 74 150l215 248l78 -51l-142 -207
q42 -14 66 -44z" />
    <glyph glyph-name="quotedblright" unicode="&#x201d;" horiz-adv-x="940" 
d="M512 1492q43 -42 43 -99q0 -67 -72 -150l-215 -248l-78 54l140 204q-41 12 -64 44q-24 31 -24 77q0 70 46 115t115 45q65 0 109 -42zM911 1492q43 -42 43 -99q0 -67 -71 -150l-215 -248l-80 54l141 204q-41 12 -64 44q-24 31 -24 77q0 70 46 115q47 45 116 45
q65 0 108 -42z" />
    <glyph glyph-name="quotedblbase" unicode="&#x201e;" horiz-adv-x="956" 
d="M338 230q43 -42 43 -103q0 -71 -70 -145l-219 -248l-78 51l136 201q-38 13 -61 49q-23 35 -21 78q0 68 45 113q45 46 114 46q67 0 111 -42zM752 230q43 -42 43 -103q0 -71 -70 -145l-219 -248l-78 51l135 201q-38 13 -60 49q-22 34 -22 78q0 68 45 113q45 46 115 46
q67 0 111 -42z" />
    <glyph glyph-name="dagger" unicode="&#x2020;" horiz-adv-x="737" 
d="M535 627h-132v549h-215v122h215v199h132v-199h215v-122h-215v-549z" />
    <glyph glyph-name="daggerdbl" unicode="&#x2021;" horiz-adv-x="716" 
d="M156 946h215v230h-215v122h215v199h129v-199h217v-122h-217v-230h217v-121h-217v-198h-129v198h-215v121z" />
    <glyph glyph-name="bullet" unicode="&#x2022;" horiz-adv-x="802" 
d="M239 249q-69 40 -109 109q-40 67 -40 150q0 87 44 163q43 73 119 120q75 45 165 45q87 0 155 -40q69 -41 107 -109q39 -69 39 -152q0 -87 -44 -163t-120 -119q-77 -44 -164 -44q-85 0 -152 40z" />
    <glyph glyph-name="ellipsis" unicode="&#x2026;" horiz-adv-x="1458" 
d="M65 11q-40 40 -40 104q0 67 48 114q48 45 115 45q61 0 103 -42q41 -43 41 -103q0 -68 -48 -113t-116 -45q-64 0 -103 40zM559 11q-41 41 -41 104q0 67 48 114q48 45 116 45q66 0 106 -40q39 -40 39 -105q0 -68 -46 -113q-47 -45 -113 -45q-69 0 -109 40zM1057 11
q-41 41 -41 104q0 67 48 114q48 45 118 45q62 0 102 -42q41 -43 41 -103q0 -68 -48 -113t-116 -45q-64 0 -104 40z" />
    <glyph glyph-name="perthousand" unicode="&#x2030;" horiz-adv-x="2162" 
d="M255 890q-73 88 -73 234q0 108 40 198q41 92 113 145q74 53 165 53q119 0 192 -88q72 -88 72 -234q0 -107 -40 -197q-41 -92 -111 -146q-72 -54 -167 -54q-117 0 -191 89zM92 88l1278 1409l100 -86l-1275 -1411zM565 1018q45 69 45 174q0 88 -31 134t-85 46
q-70 0 -114 -71q-44 -73 -44 -175q0 -85 31 -131q30 -47 84 -47q69 0 114 70zM871 69q-74 89 -74 234q0 105 41 198q40 91 114 144q73 53 164 53q119 0 192 -88q72 -89 72 -233q0 -107 -40 -197q-41 -93 -112 -146q-74 -54 -165 -54q-118 0 -192 89zM1546 69q-73 88 -73 234
q0 107 40 197q39 91 112 144q73 54 165 54q120 0 193 -88t73 -233q0 -107 -40 -197q-41 -93 -112 -146q-74 -54 -167 -54q-119 0 -191 89zM1182 198q45 68 45 173q0 87 -32 134q-31 46 -85 46q-70 0 -114 -71q-44 -73 -44 -175q0 -84 31 -130t84 -46q70 0 115 69zM1856 198
q45 68 45 173q0 87 -32 134q-31 46 -85 46q-70 0 -114 -71q-44 -73 -44 -175q0 -84 31 -130t84 -46q69 0 115 69z" />
    <glyph glyph-name="guilsinglleft" unicode="&#x2039;" horiz-adv-x="731" 
d="M481 1012h246l-405 -494l276 -465h-238l-282 479z" />
    <glyph glyph-name="guilsinglright" unicode="&#x203a;" horiz-adv-x="727" 
d="M414 545l-273 467h234l282 -477l-401 -482h-250z" />
    <glyph glyph-name="fraction" unicode="&#x2044;" horiz-adv-x="358" 
d="M-240 0h-139l1002 1454h141z" />
    <glyph glyph-name="uni2070" unicode="&#x2070;" horiz-adv-x="1058" 
d="M236 1321q63 142 176 225q112 82 252 82q174 0 279 -129q104 -128 106 -358q0 -175 -63 -317q-61 -142 -173 -225t-250 -83q-115 0 -204 57t-138 168q-49 110 -49 263q2 176 64 317zM411 764q55 -82 156 -82q91 0 159 61q69 61 105 168q37 105 37 234q0 155 -55 234
q-55 81 -156 81q-90 0 -158 -62q-70 -62 -107 -168q-38 -106 -38 -231q1 -152 57 -235z" />
    <glyph glyph-name="uni2074" unicode="&#x2074;" horiz-adv-x="1017" 
d="M150 895l485 709h201l-494 -711h320l49 362h168l-50 -362h152l-23 -162h-153l-27 -199h-168l27 199l-510 2z" />
    <glyph glyph-name="uni2075" unicode="&#x2075;" horiz-adv-x="925" 
d="M463 1440l-66 -221q73 45 174 45q143 0 232 -93q88 -91 88 -245q0 -118 -53 -213q-52 -93 -148 -148q-95 -53 -213 -53q-160 0 -250 96t-80 246l168 27q-2 -14 -2 -31q0 -80 46 -125q47 -45 126 -45q97 0 162 66q62 67 64 172q0 87 -47 140q-46 52 -129 52
q-61 0 -114 -30t-81 -81h-170l170 605h584l-23 -164h-438z" />
    <glyph glyph-name="uni2076" unicode="&#x2076;" horiz-adv-x="940" 
d="M740 1225q72 -40 118 -117q47 -79 47 -186q0 -118 -56 -210q-54 -89 -151 -140q-94 -48 -204 -48q-150 0 -248 90t-99 250q0 84 35 165q34 78 117 175l346 410h223l-299 -352q10 2 27 2q74 0 144 -39zM663 756q62 67 62 168q0 90 -48 140t-130 50q-95 0 -156 -66
q-61 -67 -61 -169q0 -88 48 -139q48 -50 128 -50q96 0 157 66z" />
    <glyph glyph-name="uni2077" unicode="&#x2077;" horiz-adv-x="884" 
d="M950 1604l-22 -158l-586 -914h-209l588 908h-490l23 164h696z" />
    <glyph glyph-name="uni2078" unicode="&#x2078;" horiz-adv-x="954" 
d="M897 1191q-49 -72 -127 -104q65 -28 103 -90t38 -143q0 -98 -54 -176q-55 -79 -150 -122q-97 -44 -213 -44q-159 0 -257 80q-96 79 -98 211q0 104 63 188q61 83 158 115q-51 28 -80 79q-30 49 -30 118q0 89 48 163t133 117t192 43q145 0 234 -77t89 -197q0 -88 -49 -161z
M469 1204q43 -37 113 -37q79 0 132 44q52 43 54 114q0 60 -44 98q-43 37 -116 37q-82 0 -132 -44t-50 -116q0 -59 43 -96zM671 730q63 53 64 132q0 75 -52 118q-53 44 -144 44q-98 0 -161 -51q-62 -51 -63 -135q0 -73 53 -117q52 -43 140 -43q102 0 163 52z" />
    <glyph glyph-name="uni2079" unicode="&#x2079;" horiz-adv-x="942" 
d="M860 1536q98 -90 98 -250q0 -88 -34 -166q-34 -80 -117 -174l-346 -409h-225l303 352q-14 -2 -29 -2q-74 0 -144 39q-72 40 -118 116q-47 79 -47 187q0 118 56 210q55 90 151 139q94 48 204 48q150 0 248 -90zM715 1103q61 67 61 169q0 88 -48 138t-128 50
q-96 0 -158 -66q-61 -67 -61 -169q0 -88 48 -139q48 -50 130 -50q95 0 156 67z" />
    <glyph glyph-name="uni2080" unicode="&#x2080;" horiz-adv-x="1058" 
d="M132 582q63 142 176 225q112 82 251 82q173 0 280 -129q105 -129 105 -359q0 -172 -62 -316q-63 -142 -173 -225q-112 -83 -250 -83q-115 0 -204 57t-138 168q-49 110 -49 262q0 175 64 318zM306 25q55 -82 157 -82q91 0 159 62q68 61 105 168q37 105 37 233
q0 155 -55 235q-56 80 -156 80q-90 0 -158 -62q-70 -64 -107 -168q-38 -108 -38 -231q0 -153 56 -235z" />
    <glyph glyph-name="uni2081" unicode="&#x2081;" horiz-adv-x="569" 
d="M530 866l-151 -1071h-164l111 776h-222l17 119q109 0 167 45q58 44 79 131h163z" />
    <glyph glyph-name="uni2082" unicode="&#x2082;" horiz-adv-x="899" 
d="M315 -39h418l-24 -164l-674 -2l20 144l443 419q67 62 96 116q27 52 27 108q0 73 -43 110t-115 37q-92 0 -144 -61q-53 -62 -57 -162l-164 18q4 102 51 186q47 83 130 132q82 49 198 49q143 0 231 -79q87 -80 87 -210q0 -111 -48 -192q-50 -84 -133 -162z" />
    <glyph glyph-name="uni2083" unicode="&#x2083;" horiz-adv-x="917" 
d="M803 713l-281 -254q113 -14 184 -94q70 -79 70 -205q0 -110 -52 -196q-53 -89 -143 -137q-92 -50 -208 -50q-154 0 -248 85t-90 220l168 39q-7 -82 42 -130q50 -48 134 -48q96 0 156 60q59 61 59 153q0 81 -50 131q-49 49 -132 49q-39 0 -84 -17l-33 140l268 243h-413
l24 164h649z" />
    <glyph glyph-name="uni2084" unicode="&#x2084;" horiz-adv-x="1017" 
d="M45 158l485 708h201l-493 -710h319l49 362h168l-49 -362h152l-23 -162h-154l-26 -199h-168l26 199l-509 2z" />
    <glyph glyph-name="uni2085" unicode="&#x2085;" horiz-adv-x="925" 
d="M358 702l-65 -221q73 45 174 45q142 0 231 -92q88 -91 88 -246q0 -118 -53 -213t-147 -147q-95 -53 -213 -53q-160 0 -250 96t-80 246l168 26q-2 -14 -2 -30q0 -80 46 -125q47 -45 126 -45q98 0 162 67q63 66 63 170q0 88 -47 141q-46 52 -129 52q-60 0 -113 -30t-81 -81
h-170l170 604h583l-22 -164h-439z" />
    <glyph glyph-name="uni2086" unicode="&#x2086;" horiz-adv-x="940" 
d="M636 477q72 -40 118 -116q47 -79 47 -187q0 -118 -56 -210q-57 -91 -151 -139t-205 -48q-151 0 -248 90q-98 90 -98 250q0 84 35 165q34 77 117 175l346 409h223l-299 -352q10 2 27 2q74 0 144 -39zM559 9q62 65 62 167q0 90 -48 141q-50 50 -131 50q-94 0 -155 -67
q-62 -68 -62 -169q0 -89 49 -138q48 -50 127 -50q95 0 158 66z" />
    <glyph glyph-name="uni2087" unicode="&#x2087;" horiz-adv-x="884" 
d="M846 866l-23 -157l-585 -914h-209l587 907h-489l23 164h696z" />
    <glyph glyph-name="uni2088" unicode="&#x2088;" horiz-adv-x="954" 
d="M793 454q-48 -72 -127 -104q67 -29 104 -90t37 -143q0 -98 -54 -176q-56 -79 -151 -122q-97 -44 -213 -44q-160 0 -257 79t-97 212q0 104 63 188q61 83 158 115q-50 28 -81 79q-30 50 -30 117q0 91 49 164q48 74 133 117t191 43q144 0 235 -77q89 -77 89 -198
q0 -89 -49 -160zM365 467q43 -37 112 -37q80 0 133 44q52 44 54 114q0 60 -44 98q-44 37 -116 37q-82 0 -132 -44t-50 -116q0 -59 43 -96zM567 -7q63 53 64 132q0 75 -52 118q-53 44 -145 44q-98 0 -160 -51q-63 -52 -63 -136q0 -74 52 -117q53 -42 140 -42q102 0 164 52z
" />
    <glyph glyph-name="uni2089" unicode="&#x2089;" horiz-adv-x="942" 
d="M756 795q98 -90 98 -250q0 -85 -35 -166q-35 -79 -117 -174l-346 -410h-225l303 352q-14 -2 -28 -2q-74 0 -145 39q-72 40 -118 117q-47 79 -47 186q0 119 57 210q55 90 150 140q95 48 205 48q149 0 248 -90zM611 362q61 65 61 168q0 88 -48 139q-50 50 -128 50
q-96 0 -158 -66q-62 -68 -62 -170q0 -89 49 -138q48 -50 130 -50q95 0 156 67z" />
    <glyph glyph-name="uni20A9" unicode="&#x20a9;" horiz-adv-x="1804" 
d="M1556 813h179l-17 -113h-198l-228 -700h-223l-45 700h-188l-242 -700h-225l-29 700h-201l15 113h182l-29 684h205l12 -684h183l237 684h184l43 -684h183l207 684h217zM1016 813l-23 342l-119 -342h142zM668 700h-142l6 -393zM1321 700h-143l24 -391z" />
    <glyph glyph-name="Euro" unicode="&#x20ac;" horiz-adv-x="1325" 
d="M908 185q87 43 141 120l129 -115q-84 -106 -208 -163q-123 -58 -270 -58q-229 0 -362 145q-132 143 -152 429h-116l20 141h94q1 55 15 154h-95l23 141h102q72 259 246 404q173 145 406 145q149 0 265 -60q115 -62 167 -163l-144 -115q-39 78 -113 122q-76 44 -173 44
q-163 0 -278 -100q-116 -101 -175 -277h524l-34 -141h-525q-15 -90 -16 -154h502l-35 -141h-463q28 -400 334 -402q103 0 191 44z" />
    <glyph glyph-name="uni20B9" unicode="&#x20b9;" horiz-adv-x="1296" 
d="M936 1343q86 -102 96 -253h246l-23 -156h-235q-41 -188 -195 -299q-155 -111 -391 -111h-104l409 -524h-247l-402 524l21 156h299q165 0 268 67q104 66 137 187h-663l20 156h653q-17 125 -101 189q-85 64 -208 64h-309l20 154h1108l-20 -154h-379z" />
    <glyph glyph-name="uni20BA" unicode="&#x20ba;" horiz-adv-x="1177" 
d="M963 302q-104 -149 -275 -228q-174 -80 -393 -80q-75 0 -125 6l104 743l-194 -65l16 123l195 65l16 107l-196 -66l18 123l195 66l57 401h197l-46 -330l381 127l-14 -120l-385 -130l-16 -106l383 127l-17 -123l-383 -129l-88 -618q220 11 350 132q132 122 154 320h190
q-23 -199 -124 -345z" />
    <glyph glyph-name="uni20BD" unicode="&#x20bd;" horiz-adv-x="1357" 
d="M72 418h125l18 145h-123l25 178h125l106 756h535q132 0 236 -53q102 -53 158 -149q56 -98 56 -226q0 -143 -68 -259q-70 -117 -196 -181q-128 -66 -293 -66h-358l-19 -145h396l-21 -154h-397l-37 -264h-203l39 264h-127zM770 741q160 0 255 89t95 229q0 119 -73 186
q-73 66 -199 66h-324l-80 -570h326z" />
    <glyph glyph-name="uni2113" unicode="&#x2113;" horiz-adv-x="1169" 
d="M797 179q60 51 82 126l157 -45q-39 -127 -145 -206t-238 -79q-121 0 -208 69q-86 68 -136 200q-125 -35 -246 -35v151q108 0 207 31q-18 109 -18 238q0 239 69 447q67 206 187 334q118 126 262 126q124 0 198 -96q72 -98 72 -258q0 -182 -74 -356q-76 -175 -208 -310
q-136 -139 -301 -217q56 -170 198 -170q81 0 142 50zM424 455q202 109 330 309q127 199 127 428q0 94 -31 143t-90 49q-86 0 -166 -101q-79 -100 -129 -277q-49 -175 -49 -388q0 -93 8 -163z" />
    <glyph glyph-name="uni2116" unicode="&#x2116;" horiz-adv-x="2607" 
d="M1595 1224q65 134 183 215q119 81 274 81q138 0 241 -61q102 -61 160 -175q56 -114 56 -258q0 -156 -63 -289q-64 -133 -183 -213t-276 -80q-138 0 -241 61q-105 61 -160 172q-56 112 -56 257q0 155 65 290zM344 1497h199l549 -1145l159 1145h201l-211 -1497h-201
l-544 1145l-162 -1145h-201zM1800 705q70 -87 189 -87q91 0 165 53q72 53 114 144t42 205q0 150 -69 237q-71 86 -189 86q-92 0 -166 -53q-75 -53 -115 -146q-42 -93 -42 -206q0 -147 71 -233zM2210 0h-594l14 176h596z" />
    <glyph glyph-name="trademark" unicode="&#x2122;" horiz-adv-x="1413" 
d="M504 1380l-80 -587h-133l80 587h-201l18 117h537l-18 -117h-203zM1487 1497l-101 -704h-120l45 317q1 6 8 66q7 51 16 79l-237 -458h-103l-110 456q-5 -67 -15 -143l-45 -317h-123l101 704h133l125 -565l287 565h139z" />
    <glyph glyph-name="estimated" unicode="&#x212e;" horiz-adv-x="1617" 
d="M223 1151q90 176 251 275q161 98 368 98q210 0 368 -85q159 -86 247 -244q89 -160 89 -378q2 -22 2 -55q0 -35 -2 -57h-1198v-388q85 -121 218 -186t302 -65q165 0 304 79q139 78 208 207l82 -30q-79 -157 -239 -249q-160 -91 -361 -91q-214 0 -381 96q-165 95 -257 271
q-91 175 -91 401q0 225 90 401zM348 782h985v430q-81 105 -204 167q-122 61 -273 61q-161 0 -294 -71q-131 -70 -214 -195v-392z" />
    <glyph glyph-name="oneeighth" unicode="&#x215b;" horiz-adv-x="1947" 
d="M426 1194h-193l15 104q97 0 146 40q50 41 71 116h141l-133 -946h-141zM1446 1454l-1004 -1454h-139l1002 1454h141zM1706 428q35 -56 35 -131q0 -138 -104 -227q-104 -88 -271 -88q-142 0 -227 70q-86 69 -86 184q0 95 52 168q53 74 134 102q-42 22 -68 66
q-26 43 -26 104q0 81 44 149q44 66 121 104q78 38 175 38q127 0 203 -63q75 -64 75 -167q0 -83 -43 -144q-44 -64 -110 -89q62 -21 96 -76zM1352 778q-47 -41 -47 -104q0 -51 38 -83t97 -32q73 0 120 41q46 40 46 105q0 53 -37 84q-37 30 -99 30q-71 0 -118 -41zM1526 176
q57 46 57 123q0 63 -45 99t-121 36q-87 0 -146 -47t-59 -123q0 -63 46 -99q45 -36 120 -36q89 0 148 47z" />
    <glyph glyph-name="threeeighths" unicode="&#x215c;" horiz-adv-x="2105" 
d="M819 664q-46 -82 -132 -127q-85 -45 -193 -45q-134 0 -210 75q-77 74 -73 195l149 35q-6 -73 36 -117q42 -43 116 -43q88 0 144 57q55 55 55 144q0 68 -43 108q-44 39 -113 39q-47 0 -82 -12l-31 121l236 215l-363 2l21 143h573l-18 -135l-250 -223q103 -8 165 -75
q60 -67 60 -173q0 -102 -47 -184zM1647 1454l-1004 -1454h-139l1001 1454h142zM1866 428q35 -56 35 -131q0 -138 -104 -227q-104 -88 -271 -88q-142 0 -227 70q-87 69 -87 184q0 94 53 168t134 102q-42 22 -68 66q-26 43 -26 104q0 81 44 149q44 66 121 104q78 38 175 38
q127 0 203 -63q75 -64 75 -167q0 -83 -43 -144q-44 -64 -111 -89q63 -22 97 -76zM1512 778q-48 -40 -48 -104q0 -51 38 -83t97 -32q73 0 120 41q46 40 46 105q0 53 -36 84q-37 30 -99 30q-71 0 -118 -41zM1686 176q57 46 57 123q0 63 -45 99t-121 36q-87 0 -146 -47
t-59 -123q0 -63 45 -99t121 -36q89 0 148 47z" />
    <glyph glyph-name="fiveeighths" unicode="&#x215d;" horiz-adv-x="2123" 
d="M1884 428q35 -56 35 -131q0 -138 -104 -227q-103 -88 -271 -88q-142 0 -227 69q-86 71 -86 185q0 94 52 167q54 75 134 103q-42 22 -68 65q-26 44 -26 105q0 81 44 148q43 67 121 105t175 38q127 0 203 -64q76 -63 76 -166q0 -82 -44 -144q-44 -63 -110 -89
q62 -21 96 -76zM1530 778q-47 -41 -47 -104q0 -51 38 -83t97 -32q73 0 120 41q46 40 46 105q0 53 -37 83q-37 31 -98 31q-72 0 -119 -41zM1704 176q57 46 57 123q0 63 -45 99t-121 36q-87 0 -146 -47q-58 -46 -58 -123q0 -63 45 -99t120 -36q90 0 148 47zM666 0h-140
l1002 1454h141zM489 1311l-57 -199q67 41 158 41q126 0 205 -77t77 -208q0 -106 -48 -193q-47 -86 -134 -136q-84 -48 -194 -50q-144 0 -223 82t-68 220l153 24q-2 -14 -2 -27q0 -69 41 -110t111 -41q86 0 143 60q56 59 58 153q0 76 -42 122t-114 46q-54 0 -100 -26
q-45 -25 -74 -70h-152l150 532h520l-23 -143h-385z" />
    <glyph glyph-name="seveneighths" unicode="&#x215e;" horiz-adv-x="1878" 
d="M215 508l520 803h-434l21 143h612l-21 -139l-516 -807h-182zM1397 1454l-1004 -1454h-139l1001 1454h142zM1639 428q34 -55 34 -131q0 -138 -104 -227q-104 -88 -271 -88q-142 0 -227 70q-86 69 -86 184q0 94 53 168t133 102q-42 22 -68 66q-26 43 -26 104q0 81 44 149
q44 66 121 104q78 38 175 38q127 0 203 -63q76 -64 76 -167q0 -83 -43 -144q-44 -64 -111 -89q63 -22 97 -76zM1284 778q-47 -41 -47 -104q0 -51 38 -83t97 -32q73 0 120 41q46 40 46 105q0 53 -37 84q-38 30 -98 30q-72 0 -119 -41zM1459 176q57 46 57 123q0 63 -45 99
q-47 36 -121 36q-87 0 -146 -47t-59 -123q0 -63 45 -99t121 -36q89 0 148 47z" />
    <glyph glyph-name="arrowleft" unicode="&#x2190;" horiz-adv-x="2052" 
d="M928 88l-86 -88l-619 623l619 618l86 -84l-473 -477h1400v-119h-1400z" />
    <glyph glyph-name="arrowup" unicode="&#x2191;" horiz-adv-x="1507" 
d="M813 1540l621 -620l-86 -86l-476 473v-1307h-118v1307l-475 -473l-89 86z" />
    <glyph glyph-name="arrowright" unicode="&#x2192;" horiz-adv-x="2050" 
d="M231 561v119h1399l-471 477l84 84l619 -618l-619 -623l-86 88l473 473h-1399z" />
    <glyph glyph-name="arrowdown" unicode="&#x2193;" horiz-adv-x="1507" 
d="M227 653l475 -471v1315h119v-1315l475 473l86 -86l-620 -620l-621 620z" />
    <glyph glyph-name="uni2196" unicode="&#x2196;" horiz-adv-x="1560" 
d="M403 1372l-2 -672h-120l2 875l876 4v-123h-672l943 -940l-87 -84z" />
    <glyph glyph-name="uni2197" unicode="&#x2197;" horiz-adv-x="1695" 
d="M74 92l1286 1284h-770v121h975v-971h-121v768l-1284 -1286z" />
    <glyph glyph-name="uni2198" unicode="&#x2198;" horiz-adv-x="1953" 
d="M774 121h770l-1286 1286l86 84l1284 -1286v768h121v-973l-975 2v119z" />
    <glyph glyph-name="uni2199" unicode="&#x2199;" horiz-adv-x="1695" 
d="M199 0v973h120v-768l1285 1286l86 -84l-1287 -1286h771v-119z" />
    <glyph glyph-name="uni21A9" unicode="&#x21a9;" horiz-adv-x="1548" 
d="M1386 1019q99 -97 99 -257t-99 -257q-100 -97 -268 -97h-678v-226l-350 287l350 285v-224h678q112 0 179 62q65 62 65 170q0 103 -65 168q-66 63 -179 63h-221v123h221q168 0 268 -97z" />
    <glyph glyph-name="uni21AA" unicode="&#x21aa;" horiz-adv-x="1634" 
d="M1180 182v226h-678q-166 0 -266 97q-101 98 -101 257q0 160 100 257q98 97 267 97h221v-123h-221q-116 0 -180 -63q-66 -64 -66 -168q0 -108 66 -170q65 -62 180 -62h678v224l352 -285z" />
    <glyph glyph-name="uni21AF" unicode="&#x21af;" horiz-adv-x="3272" 
d="M1595 543h465v-543h-166l-20 164h-14q0 -12 -27 -56q-27 -45 -94 -84q-67 -40 -183 -40q-124 0 -222 56q-96 55 -154 172q-58 115 -58 284q0 177 67 295q65 117 175 176q110 57 235 57q102 0 198 -39q97 -40 163 -121q69 -84 88 -202h-227q-18 74 -74 119q-58 44 -143 44
q-127 0 -191 -91q-65 -92 -65 -230t63 -229q61 -93 188 -93q90 0 151 46q60 47 75 122h-230v193zM2169 833q-33 33 -33 80q0 45 33 78t78 33q47 0 80 -33q32 -34 32 -78q0 -47 -33 -80q-34 -34 -79 -34t-78 34zM2451 833q-34 33 -34 80q0 45 33 78q32 33 79 33q48 0 79 -31
q32 -32 32 -80q0 -47 -33 -80q-33 -34 -78 -34t-78 34zM2707 981v43h168v-43h-63v-176h-49v176h-56zM3047 1024h88v-219h-53v186l-28 -186h-70l-33 186v-186h-49v219h92l23 -180zM927 884q124 -127 124 -380q0 -249 -124 -376q-125 -128 -341 -128h-396v1012h396
q216 0 341 -128zM747 248q84 62 84 256q0 136 -48 210q-48 72 -103 93q-57 20 -94 20h-131q-29 1 -61 13t-45 20q-19 12 -21 14l-17 -14l23 -22q9 -9 37 -41q30 -24 38 -57q7 -31 7 -56v-356q0 -34 -10 -58q-11 -28 -21 -40q-11 -16 -14 -17l-60 -61l17 -17q25 8 71 27
q44 17 70 24h117q75 0 161 62zM2568 684q34 0 72 -6v-182q-16 2 -37 2q-98 0 -155 -51q-58 -52 -58 -162v-285h-219v520q0 94 -14 158h221q7 -60 8 -82q49 88 182 88z" />
    <glyph glyph-name="partialdiff" unicode="&#x2202;" horiz-adv-x="1243" 
d="M1101 694q36 -92 36 -207q0 -155 -63 -270q-64 -117 -180 -180q-115 -64 -267 -64q-154 0 -268 65q-117 64 -181 181q-65 118 -65 273q0 152 59 272q59 117 167 182q106 64 249 64q43 0 86 -13l-344 500h250l407 -598q77 -111 114 -205zM844 255q82 86 82 241
q0 144 -83 236q-82 91 -218 91q-137 0 -219 -88t-82 -239q0 -150 83 -239t218 -89q137 0 219 87z" />
    <glyph glyph-name="emptyset" unicode="&#x2205;" horiz-adv-x="1792" 
d="M1590 1098q89 -164 89 -355q0 -206 -100 -376q-101 -173 -272 -273q-173 -102 -375 -102q-157 0 -295 59l-94 -172h-166l133 242q-153 103 -241 267q-89 166 -89 355q0 203 102 375q100 172 273 273q172 100 377 100q155 0 291 -59l94 172h164l-131 -240
q151 -102 240 -266zM431 483q62 -122 167 -196l535 979q-90 37 -201 37q-153 0 -284 -74q-130 -73 -204 -202q-75 -127 -75 -282q0 -140 62 -262zM1213 255q128 75 203 204t75 286q0 140 -61 258t-170 195l-533 -981q95 -37 205 -37q154 0 281 75z" />
    <glyph glyph-name="product" unicode="&#x220f;" horiz-adv-x="1439" 
d="M1446 1327h-256l-227 -1599h-191l225 1599l-323 -2l-225 -1597h-193l225 1597h-258l25 172h1222z" />
    <glyph glyph-name="minus" unicode="&#x2212;" horiz-adv-x="1130" 
d="M1022 668l-23 -150h-866l21 150h868z" />
    <glyph glyph-name="radical" unicode="&#x221a;" horiz-adv-x="1873" 
d="M1909 1499h-473l-830 -1634h-227l-258 872h223l174 -598l787 1561h632z" />
    <glyph glyph-name="infinity" unicode="&#x221e;" horiz-adv-x="1998" 
d="M337 215q-98 56 -150 155q-54 99 -54 224q0 126 54 226q53 100 150 156q98 56 222 56q144 0 250 -77q104 -79 201 -214q103 140 203 214q103 77 249 77q126 0 223 -57q98 -57 150 -157q53 -101 53 -224t-53 -221q-53 -99 -150 -156t-223 -57q-145 0 -249 77
q-108 78 -203 212q-95 -132 -200 -211q-105 -78 -251 -78q-125 0 -222 55zM730 410q78 57 173 184q-95 129 -171 186q-77 56 -165 56q-100 0 -163 -67q-64 -67 -64 -175q0 -110 64 -174q63 -66 163 -66q86 0 163 56zM1616 420q63 64 63 174q0 109 -64 176q-65 66 -163 66
q-87 0 -164 -56q-74 -55 -170 -186q95 -129 170 -184q77 -56 164 -56q100 0 164 66z" />
    <glyph glyph-name="integral" unicode="&#x222b;" horiz-adv-x="1067" 
d="M37 -47q61 -12 108 -12q87 0 134 47q45 46 63 137l221 1100q32 158 118 231q87 72 234 72q63 0 154 -19v-166q-47 11 -113 13q-91 0 -137 -41q-45 -41 -65 -146l-219 -1085q-33 -163 -119 -240q-86 -75 -228 -75q-60 0 -151 18v166z" />
    <glyph glyph-name="approxequal" unicode="&#x2248;" horiz-adv-x="1144" 
d="M975 692q0 -127 -64 -184q-65 -57 -153 -57q-52 0 -101 15q-47 14 -120 44q-58 26 -94 36q-39 11 -68 11q-44 0 -64 -29q-20 -31 -16 -75h-123v20q0 129 60 186q59 56 139 56q43 0 90 -14q43 -14 106 -42q58 -25 105 -40q39 -13 80 -13q100 0 100 109h123v-23z" />
    <glyph glyph-name="notequal" unicode="&#x2260;" horiz-adv-x="1275" 
d="M797 700l-133 -237h421l-22 -160h-490l-86 -153h-157l86 153h-258l22 160h324l133 237h-424l23 160h491l84 152h160l-84 -152h252l-21 -160h-321z" />
    <glyph glyph-name="lessequal" unicode="&#x2264;" horiz-adv-x="1218" 
d="M190 610l25 174l901 351l-24 -174l-703 -265l631 -256l-27 -174zM106 0l21 156h852l-23 -156h-850z" />
    <glyph glyph-name="greaterequal" unicode="&#x2265;" horiz-adv-x="1241" 
d="M184 444l701 256l-629 267l25 168l802 -351l-24 -174l-901 -344zM143 156h852l-22 -156h-852z" />
    <glyph glyph-name="filledbox" unicode="&#x25a0;" horiz-adv-x="1933" 
d="M1747 1499v-1497h-1497v1497h1497z" />
    <glyph glyph-name="H22073" unicode="&#x25a1;" horiz-adv-x="1935" 
d="M1749 1499v-1499h-1499v1499h1499zM381 131h1237v1237h-1237v-1237z" />
    <glyph glyph-name="triagup" unicode="&#x25b2;" horiz-adv-x="2011" 
d="M1825 0h-1784l891 1475z" />
    <glyph glyph-name="uni25B3" unicode="&#x25b3;" horiz-adv-x="2002" 
d="M928 1468l889 -1468h-1776zM1630 106l-702 1158l-701 -1158h1403z" />
    <glyph glyph-name="lozenge" unicode="&#x25ca;" horiz-adv-x="1325" 
d="M145 745l457 754h186l459 -754l-459 -745h-186zM694 1382l-383 -637l383 -626l387 626z" />
    <glyph glyph-name="circle" unicode="&#x25cb;" horiz-adv-x="1785" 
d="M540 84q-178 104 -282 282t-104 388q0 208 104 386q103 176 283 282q179 104 387 104t387 -104q178 -105 283 -282q104 -178 104 -386t-104 -387q-106 -180 -283 -283q-179 -104 -387 -104q-210 0 -388 104zM1252 196q147 87 234 236q87 148 87 322q0 176 -87 325
t-234 234q-149 86 -324 86t-323 -86q-148 -85 -235 -234t-87 -325t87 -323q87 -148 235 -235q147 -87 323 -87t324 87z" />
    <glyph glyph-name="H18533" unicode="&#x25cf;" horiz-adv-x="1802" 
d="M544 73q-179 105 -284 285q-106 178 -106 392t106 392q105 179 284 284q179 104 392 104t392 -104q179 -105 284 -284q104 -179 104 -392t-104 -392q-105 -180 -284 -285q-178 -106 -392 -106t-392 106z" />
    <glyph glyph-name="uni261E" unicode="&#x261e;" horiz-adv-x="2402" 
d="M2302 696q0 -56 -41 -91q-40 -34 -117 -34q-35 0 -95 12q-63 11 -140 27l-97 25q-40 12 -67 18q-32 7 -82 11q47 -58 47 -113q0 -38 -22 -72q-2 -2 -6 -7.5t-6 -8.5q-7 -7 -9 -14q-1 -7 0 -17q2 -7 18 -32q15 -27 15 -60q0 -59 -43 -93t-115 -34q-39 0 -72 9
q-34 9 -90 30q-62 25 -104 37q-128 43 -373 43q-108 0 -241 -10q-19 -1 -39.5 -2t-30.5 -2t-14 -1q-66 0 -132 27q-39 14 -53 14q-18 0 -28 -7q-15 -11 -25 -23q-27 -28 -52 -41q-28 -15 -87 -13v768l53 2q38 2 56 -4q22 -7 38 -16q34 -20 78 -20q19 0 41 2l57 6
q244 27 356 37q157 14 291 14q121 0 170 -13q46 -13 93 -40q34 -23 61 -33q65 -24 215 -70q153 -48 254 -73q57 -18 109 -30q37 -9 125 -26l40 -8q64 -13 64 -74zM1458 502q8 0 14 8q5 9 1 20q-44 110 -88 184q-50 79 -88 121q-37 41 -119 123q-20 20 -13 37h-65
q-175 0 -343 -19q-161 -18 -366 -50q10 -86 10 -226l-2 -159q0 -67 45 -98q45 -33 127 -33q127 0 224 70q95 68 127 173q7 31 15 43q8 11 30 11q17 0 28 -12q10 -15 17 -40q17 -47 37 -69q21 -24 57 -37q41 -15 139 -45q11 -1 19 -11q6 -10 6 -20t-8 -18q-9 -9 -21 -9l-16 5
q-2 0 -8 2.5t-19.5 7t-26.5 9.5q-53 18 -86 19h-6q-34 0 -32 -20q0 -11 14 -27q49 -49 180 -49q60 0 99 17q38 17 38 61q0 15 -6 41q-18 57 -65 134q-51 84 -102 152q-52 69 -60 76q-6 10 -6 17q0 10 10 19q11 8 25 8q16 0 28 -15q111 -149 150 -217q48 -84 88 -170
q6 -14 18 -14zM1345 924q-41 45 -65 58q-25 13 -59 13q114 -99 179 -198q62 -94 124 -217q17 -42 24 -52q22 -38 54 -36q16 0 26 10t10 28q0 15 -8 33q-2 14 -50 76q-49 63 -103 127q-102 123 -132 158zM356 684q0 87 -4 150q-5 70 -12 92q-6 18 -18 18q-6 0 -10 -7
q-5 -8 -5 -17q0 -167 1 -184q1 -18 1 -29q4 -15 4 -224q0 -13 3 -19t10 -5q12 0 18 20q12 41 12 205zM2146 629q69 0 92 47q-39 4 -63 12q-21 6 -55 25q-54 32 -135 55q-36 10 -124.5 35t-140.5 39q-176 48 -227 61l-8 2q-23 0 -23 -20q0 -11 8 -21q18 -25 80 -66
q59 -40 117 -67q33 -14 49 -14q9 0 23 8q9 7 13 19t9 18t15 6q8 0 16 -5q9 -6 16 -15q67 -76 263 -111q51 -8 75 -8zM2190 723q20 -7 40 -11q23 -5 29 -3q-1 5 -28 13q-25 7 -44 7q-13 0 3 -6zM991 398q8 5 8 12q0 14 -24 28q-25 13 -57 13q-40 0 -99 -25q-23 -11 -22 -23
q0 -4 7 -8t19 -4l144 2q16 0 24 5zM1615 296q23 21 23 46q0 17 -10 27t-29 10q-32 0 -70 -28q-40 -28 -40 -46q0 -9 20 -20t43 -11q40 0 63 22z" />
    <glyph glyph-name="uni262A" unicode="&#x262a;" horiz-adv-x="1650" 
d="M267 341q-109 169 -109 409t109 409q107 167 281 253q171 85 363 85q179 0 335 -73q155 -73 251 -203q-159 59 -305 59q-163 0 -288 -67t-196 -189t-71 -274q0 -154 71 -276t196 -189q127 -68 288 -68q146 0 305 59q-94 -129 -250 -202q-159 -74 -336 -74q-189 0 -363 86
q-173 86 -281 255zM1159 827l82 246l82 -246h258l-209 -153l80 -250l-211 154l-213 -154l82 250l-211 153h260z" />
    <glyph glyph-name="uni262E" unicode="&#x262e;" horiz-adv-x="1738" 
d="M522 84q-175 103 -275 277q-102 174 -102 378t103 376q102 172 275 276q173 102 378 102q204 0 379 -101q173 -102 277 -276q102 -174 102 -377q0 -205 -102 -379q-104 -174 -277 -276q-174 -102 -379 -102t-379 102zM844 784v596q-163 -17 -296 -105q-135 -89 -211 -230
q-77 -143 -77 -306q0 -147 57 -272zM1548 739q0 165 -76 305q-77 141 -210 229t-295 105v-594l522 -315q59 126 59 270zM844 643l-463 -287q82 -109 202 -178q119 -69 261 -84v549zM1226 181q119 69 199 177l-458 285v-547q140 15 259 85z" />
    <glyph glyph-name="uni2639" unicode="&#x2639;" horiz-adv-x="1337" 
d="M953 999q132 -76 209 -208q77 -133 77 -287t-78 -285t-209 -209q-130 -78 -284 -78q-156 0 -287 77q-132 77 -208 209q-77 133 -77 286q0 156 77 287q77 132 209 208q131 76 286 76q154 0 285 -76zM1102 338q31 78 31 166q0 124 -62 233q-63 107 -170 170
q-109 62 -233 62q-125 0 -232 -62q-108 -63 -170 -170q-63 -108 -63 -233q0 -172 116 -309q45 100 142 161q96 60 209 60q112 0 206 -60q95 -62 140 -159q54 60 86 141zM563 759q21 -38 21 -104q0 -64 -22 -102q-22 -39 -58 -39q-34 0 -57 39q-23 40 -23 102t23 103
q23 39 57 39q36 0 59 -38zM886 759q21 -38 21 -104q0 -63 -21 -102q-22 -39 -57 -39t-57 39q-22 38 -22 102q0 62 23 103q23 39 56 39q34 0 57 -38zM668 39q83 0 157 28q76 28 136 76q-45 77 -124 120q-80 44 -167 44q-92 0 -171 -45q-80 -45 -120 -121q129 -102 289 -102z
" />
    <glyph glyph-name="smileface" unicode="&#x263a;" horiz-adv-x="1337" 
d="M381 9q-132 77 -208 209q-77 133 -77 286q0 156 77 287q77 132 209 208q131 76 286 76q157 0 287 -76t207 -208q77 -133 77 -287q0 -153 -77 -286q-76 -132 -208 -209q-131 -77 -286 -77q-156 0 -287 77zM901 102q107 62 170 170q62 107 62 232q0 124 -62 233
q-63 107 -170 170q-109 62 -233 62q-125 0 -232 -62q-108 -63 -170 -170q-63 -108 -63 -233q0 -126 63 -232q62 -108 170 -170q106 -63 232 -63q125 0 233 63zM447 539q-23 40 -23 102q0 63 23 101t57 38q36 0 59 -36q21 -37 21 -103q0 -64 -22 -102q-22 -39 -58 -39
q-34 0 -57 39zM773 539q-23 40 -23 102q0 60 23 100q23 39 56 39q36 0 58 -37t22 -102q0 -64 -22 -102q-23 -39 -58 -39q-33 0 -56 39zM367 451q38 -75 124 -122q83 -46 179 -46q93 0 175 46q83 47 126 122l57 -45q-39 -102 -140 -167q-103 -65 -218 -65q-119 0 -220 65
q-102 65 -141 167z" />
    <glyph glyph-name="invsmileface" unicode="&#x263b;" horiz-adv-x="1302" 
d="M373 28q-127 73 -202 201q-75 127 -75 279q0 150 75 278q75 127 202 202t276 75q153 0 280 -75q128 -75 203 -203q74 -128 74 -277q0 -151 -74 -279q-75 -127 -203 -201q-127 -75 -280 -75q-149 0 -276 75zM548 540q21 38 21 101t-21 99q-22 36 -56 36q-32 0 -55 -38
t-23 -97q0 -60 23 -100q23 -39 55 -39q33 0 56 38zM866 541q21 39 21 100q0 59 -21 97q-23 38 -55 38q-35 0 -56 -37q-22 -37 -22 -98q0 -64 22 -101q21 -38 56 -38q32 0 55 39zM865 249q98 62 136 163l-53 43q-39 -72 -122 -117q-82 -45 -175 -45q-89 0 -172 45
q-82 45 -121 117l-55 -43q39 -98 138 -162q97 -64 210 -64q115 0 214 63z" />
    <glyph glyph-name="uni2713" unicode="&#x2713;" horiz-adv-x="1468" 
d="M1417 1004l-893 -840l-430 481l144 129l299 -338l751 709z" />
    <glyph glyph-name="uni2764" unicode="&#x2764;" horiz-adv-x="1286" 
d="M543 208q-74 63 -181 132q-84 52 -127 87q-48 39 -76 95q-30 56 -30 135q0 91 39 161q39 71 107 110t149 39q88 0 150 -45q60 -44 92 -121q28 79 91 123q61 43 148 43q126 0 212 -86q85 -85 85 -224q0 -81 -30 -136q-33 -59 -77 -94q-47 -37 -126 -87q-109 -70 -180 -132
q-72 -63 -123 -165q-52 102 -123 165z" />
    <glyph glyph-name="uni2776" unicode="&#x2776;" horiz-adv-x="1759" 
d="M518 62q-178 102 -280 280q-103 178 -103 393q0 218 103 396q102 178 280 280t393 102t394 -102q177 -101 281 -280q102 -179 102 -396q0 -215 -102 -393q-104 -179 -281 -280q-178 -103 -394 -103q-215 0 -393 103zM1004 362v750h-115q-6 -60 -42 -92q-35 -31 -114 -31
v-84h156v-543h115z" />
    <glyph glyph-name="uni2777" unicode="&#x2777;" horiz-adv-x="1759" 
d="M518 62q-178 102 -280 280q-103 178 -103 393q0 218 103 396q102 178 280 280t393 102t394 -102q177 -101 281 -280q102 -179 102 -396q0 -215 -102 -393q-104 -179 -281 -280q-178 -103 -394 -103q-215 0 -393 103zM1157 356v115h-287l179 199q47 52 74 101
q26 50 26 118q0 106 -65 169q-67 62 -177 62q-122 0 -186 -73q-66 -73 -55 -183l116 -12l-2 25q0 59 33 95t90 36q55 0 87 -33q32 -34 32 -86q0 -36 -13 -68t-51 -73l-270 -291l2 -103z" />
    <glyph glyph-name="uni2778" unicode="&#x2778;" horiz-adv-x="1759" 
d="M518 62q-178 102 -280 280q-103 178 -103 393q0 218 103 396q102 178 280 280t393 102t394 -102q177 -101 281 -280q102 -179 102 -396q0 -215 -102 -393q-104 -179 -281 -280q-178 -103 -394 -103q-215 0 -393 103zM1097 428q72 72 72 184q0 96 -54 159t-146 71l166 170
v106h-453v-114h289l-166 -170l37 -99q27 11 63 13q63 0 101 -35t38 -101q0 -62 -36 -99q-38 -38 -99 -38q-55 0 -93 33q-39 34 -40 90l-123 -29q10 -95 78 -154t176 -59q117 0 190 72z" />
    <glyph glyph-name="uni2779" unicode="&#x2779;" horiz-adv-x="1759" 
d="M518 62q-178 102 -280 280q-103 178 -103 393q0 218 103 396q102 178 280 280t393 102t394 -102q177 -101 281 -280q102 -179 102 -396q0 -215 -102 -393q-104 -179 -281 -280q-178 -103 -394 -103q-215 0 -393 103zM1096 362v140h108v114h-108v252h-119v-252h-219
l274 496h-143l-268 -496v-114h356v-140h119z" />
    <glyph glyph-name="uni277A" unicode="&#x277a;" horiz-adv-x="1759" 
d="M518 62q-178 102 -280 280q-103 178 -103 393q0 218 103 396q102 178 280 280t393 102t394 -102q177 -101 281 -280q102 -179 102 -396q0 -215 -102 -393q-104 -179 -281 -280q-178 -103 -394 -103q-215 0 -393 103zM1101 428q73 73 73 193q0 116 -68 189q-68 71 -178 71
q-87 0 -133 -41l26 164h307v114h-411l-60 -422h123q17 36 50 56q35 20 77 20q63 0 102 -42q38 -43 38 -112q0 -64 -39 -104q-39 -41 -99 -41q-58 0 -96 38q-37 37 -37 101l-125 -18q7 -110 78 -174q71 -66 182 -66q116 0 190 74z" />
    <glyph glyph-name="uni277B" unicode="&#x277b;" horiz-adv-x="1759" 
d="M518 62q-178 102 -280 280q-103 178 -103 393q0 218 103 396q102 178 280 280t393 102t394 -102q177 -101 281 -280q102 -179 102 -396q0 -215 -102 -393q-104 -179 -281 -280q-178 -103 -394 -103q-215 0 -393 103zM711 437q71 -72 188 -72t190 72q72 71 72 190
q0 110 -58 177q-59 68 -157 79h-14q-21 0 -37 -2l176 245h-156l-198 -288q-42 -66 -59 -109q-19 -45 -19 -104q0 -117 72 -188zM803 734q37 40 98 40t98 -39q37 -38 37 -106q0 -67 -37 -107q-38 -41 -100 -41q-61 0 -97 39t-36 107q0 67 37 107z" />
    <glyph glyph-name="uni277C" unicode="&#x277c;" horiz-adv-x="1759" 
d="M518 62q-178 102 -280 280q-103 178 -103 393q0 218 103 396q102 178 280 280t393 102t394 -102q177 -101 281 -280q102 -179 102 -396q0 -215 -102 -393q-104 -179 -281 -280q-178 -103 -394 -103q-215 0 -393 103zM852 360l319 637v113h-485v-115h342l-323 -635h147z
" />
    <glyph glyph-name="uni277D" unicode="&#x277d;" horiz-adv-x="1759" 
d="M518 62q-178 102 -280 280q-103 178 -103 393q0 218 103 396q102 178 280 280t393 102t394 -102q177 -101 281 -280q102 -179 102 -396q0 -215 -102 -393q-104 -179 -281 -280q-178 -103 -394 -103q-215 0 -393 103zM1108 418q74 63 74 164q0 68 -33 118q-34 51 -88 70
q44 18 69 61t25 99q0 90 -67 148q-68 57 -177 57t-175 -57q-66 -58 -66 -150q0 -55 26 -96q26 -42 68 -62q-53 -19 -89 -70q-34 -50 -34 -118q0 -100 76 -164t196 -64q122 0 195 64zM827 841q-32 27 -32 74q0 45 33 73q31 28 85 28q53 0 84 -27q31 -28 31 -74q0 -47 -31 -74
q-31 -28 -86 -28q-53 0 -84 28zM807 506q-39 33 -39 88q0 56 40 87q41 32 105 32q66 0 105 -33t39 -88q0 -53 -40 -86q-41 -33 -106 -33t-104 33z" />
    <glyph glyph-name="uni277E" unicode="&#x277e;" horiz-adv-x="1759" 
d="M518 62q-178 102 -280 280q-103 178 -103 393q0 218 103 396q102 178 280 280t393 102t394 -102q177 -101 281 -280q102 -179 102 -396q0 -215 -102 -393q-104 -179 -281 -280q-178 -103 -394 -103q-215 0 -393 103zM909 360l197 291q43 62 61 108q19 47 19 103
q0 119 -73 191q-74 71 -189 71q-117 0 -189 -73q-73 -73 -73 -197q0 -114 67 -182q66 -70 174 -70q11 0 25 2l-176 -244h157zM825 752q-37 38 -37 106q0 67 37 107q38 41 97 41q63 0 100 -39q37 -38 37 -107q0 -65 -38 -106t-99 -41q-60 0 -97 39z" />
    <glyph glyph-name="uni2780" unicode="&#x2780;" horiz-adv-x="1759" 
d="M1305 1411q177 -101 281 -280q102 -179 102 -396q0 -215 -102 -393q-104 -179 -281 -280q-178 -103 -394 -103q-215 0 -393 103q-178 102 -280 280q-103 178 -103 393q0 218 103 396q102 178 280 280t393 102t394 -102zM1250 160q148 85 233 238q84 152 84 337
q0 189 -84 340q-84 152 -233 239q-150 87 -339 87t-337 -87q-150 -87 -235 -238t-85 -341q0 -186 85 -337q87 -153 235 -238q149 -86 337 -86t339 86zM847 1020q36 32 42 92h115v-750h-115v543h-156v84q79 0 114 31z" />
    <glyph glyph-name="uni2781" unicode="&#x2781;" horiz-adv-x="1759" 
d="M1305 1411q177 -101 281 -280q102 -179 102 -396q0 -215 -102 -393q-104 -179 -281 -280q-178 -103 -394 -103q-215 0 -393 103q-178 102 -280 280q-103 178 -103 393q0 218 103 396q102 178 280 280t393 102t394 -102zM1250 160q148 85 233 238q84 152 84 337
q0 189 -84 340q-84 152 -233 239q-150 87 -339 87t-337 -87q-150 -87 -235 -238t-85 -341q0 -186 85 -337q87 -153 235 -238q149 -86 337 -86t339 86zM870 471h287v-115l-467 -2l-2 103l270 291q37 40 51 74q13 30 13 67q0 52 -32 86q-32 33 -87 33q-57 0 -90 -36t-33 -95
l2 -25l-116 12q-10 108 55 183q64 73 186 73q110 0 177 -62q65 -63 65 -169q0 -68 -26 -118q-27 -49 -74 -101z" />
    <glyph glyph-name="uni2782" unicode="&#x2782;" horiz-adv-x="1759" 
d="M1305 1411q177 -101 281 -280q102 -179 102 -396q0 -215 -102 -393q-104 -179 -281 -280q-178 -103 -394 -103q-215 0 -393 103q-178 102 -280 280q-103 178 -103 393q0 218 103 396q102 178 280 280t393 102t394 -102zM1250 160q148 85 233 238q84 152 84 337
q0 189 -84 340q-84 152 -233 239q-150 87 -339 87t-337 -87q-150 -87 -235 -238t-85 -341q0 -186 85 -337q87 -153 235 -238q149 -86 337 -86t339 86zM1116 772q53 -64 53 -160q0 -114 -72 -184q-73 -72 -190 -72q-108 0 -176 59t-78 154l123 29q1 -56 40 -90q38 -33 93 -33
q60 0 98 38q37 37 37 99q0 67 -37 101q-38 35 -102 35q-36 0 -63 -13l-37 99l166 170h-289v114h453v-106l-164 -170q92 -8 145 -70z" />
    <glyph glyph-name="uni2783" unicode="&#x2783;" horiz-adv-x="1759" 
d="M518 62q-178 102 -280 280q-103 178 -103 393q0 218 103 396q102 178 280 280t393 102t394 -102q177 -101 281 -280q102 -179 102 -396q0 -215 -102 -393q-104 -179 -281 -280q-178 -103 -394 -103q-215 0 -393 103zM1250 160q148 85 233 238q84 152 84 337
q0 189 -84 340q-84 152 -233 239q-150 87 -339 87t-337 -87q-150 -87 -235 -238t-85 -341q0 -186 85 -337q87 -153 235 -238q149 -86 337 -86t339 86zM621 616l268 496h143l-274 -496h219v252h119v-252h108v-114h-108v-140h-119v140h-356v114z" />
    <glyph glyph-name="uni2784" unicode="&#x2784;" horiz-adv-x="1759" 
d="M1305 1411q177 -101 281 -280q102 -179 102 -396q0 -215 -102 -393q-104 -179 -281 -280q-178 -103 -394 -103q-215 0 -393 103q-178 102 -280 280q-103 178 -103 393q0 218 103 396q102 178 280 280t393 102t394 -102zM1250 160q148 85 233 238q84 152 84 337
q0 189 -84 340q-84 152 -233 239q-150 87 -339 87t-337 -87q-150 -87 -235 -238t-85 -341q0 -186 85 -337q87 -153 235 -238q149 -86 337 -86t339 86zM1106 809q68 -73 68 -188q0 -120 -73 -193q-74 -74 -190 -74q-113 0 -182 66q-71 64 -78 174l125 18q0 -64 37 -101
q38 -38 96 -38t99 41q39 40 39 104q0 69 -38 112q-37 42 -102 42q-42 0 -76 -20q-34 -21 -51 -56h-123l60 422h411v-114h-307l-26 -164q46 41 133 41q110 0 178 -72z" />
    <glyph glyph-name="uni2785" unicode="&#x2785;" horiz-adv-x="1759" 
d="M1305 1411q177 -101 281 -280q102 -179 102 -396q0 -215 -102 -393q-104 -179 -281 -280q-178 -103 -394 -103q-215 0 -393 103q-178 102 -280 280q-103 178 -103 393q0 218 103 396q102 178 280 280t393 102t394 -102zM1250 160q148 85 233 238q84 152 84 337
q0 189 -84 340q-84 152 -233 239q-150 87 -339 87t-337 -87q-150 -87 -235 -238t-85 -341q0 -186 85 -337q87 -153 235 -238q149 -86 337 -86t339 86zM1090 805q65 -73 65 -189q0 -117 -73 -189q-73 -73 -191 -73q-117 0 -188 72q-72 72 -72 190q0 54 20 103q19 47 60 108
l198 291h154l-176 -244q13 2 31 3q106 0 172 -72zM991 514q37 40 37 107q0 69 -37 107q-38 38 -98 38t-98 -41q-37 -40 -37 -107q0 -69 37 -106q36 -39 96 -39q62 0 100 41z" />
    <glyph glyph-name="uni2786" unicode="&#x2786;" horiz-adv-x="1759" 
d="M1305 1411q177 -101 281 -280q102 -179 102 -396q0 -215 -102 -393q-104 -179 -281 -280q-178 -103 -394 -103q-215 0 -393 103q-178 102 -280 280q-103 178 -103 393q0 218 103 396q102 178 280 280t393 102t394 -102zM1250 160q148 85 233 238q84 152 84 337
q0 189 -84 340q-84 152 -233 239q-150 87 -339 87t-337 -87q-150 -87 -235 -238t-85 -341q0 -186 85 -337q87 -153 235 -238q149 -86 337 -86t339 86zM670 1112h487v-113l-319 -637h-150l324 633h-342v117z" />
    <glyph glyph-name="uni2787" unicode="&#x2787;" horiz-adv-x="1759" 
d="M1305 1411q177 -101 281 -280q102 -179 102 -396q0 -215 -102 -393q-104 -179 -281 -280q-178 -103 -394 -103q-215 0 -393 103q-178 102 -280 280q-103 178 -103 393q0 218 103 396q102 178 280 280t393 102t394 -102zM1250 160q148 85 233 238q84 152 84 337
q0 189 -84 340q-84 152 -233 239q-150 87 -339 87t-337 -87q-150 -87 -235 -238t-85 -341q0 -186 85 -337q87 -153 235 -238q149 -86 337 -86t339 86zM1149 700q33 -51 33 -118q0 -99 -74 -164q-73 -64 -195 -64t-196 64q-76 63 -76 164q0 69 34 118q36 51 89 70
q-41 18 -68 61q-26 41 -26 97q0 92 67 150q66 57 174 57q109 0 177 -57q67 -58 67 -148q0 -55 -25 -98q-26 -44 -69 -62q54 -19 88 -70zM828 989q-33 -29 -33 -74q0 -47 32 -74q31 -28 84 -28q54 0 85 28q32 27 32 74q0 45 -30 73q-31 28 -85 28q-53 0 -85 -27zM1017 506
q40 33 40 86q0 55 -39 88t-105 33q-65 0 -105 -32q-40 -31 -40 -87q0 -55 39 -88t104 -33t106 33z" />
    <glyph glyph-name="uni2788" unicode="&#x2788;" horiz-adv-x="1759" 
d="M1305 1411q177 -101 281 -280q102 -179 102 -396q0 -215 -102 -393q-104 -179 -281 -280q-178 -103 -394 -103q-215 0 -393 103q-178 102 -280 280q-103 178 -103 393q0 218 103 396q102 178 280 280t393 102t394 -102zM1250 160q148 85 233 238q84 152 84 337
q0 189 -84 340q-84 152 -233 239q-150 87 -339 87t-337 -87q-150 -87 -235 -238t-85 -341q0 -186 85 -337q87 -153 235 -238q149 -86 337 -86t339 86zM1113 1053q73 -72 73 -191q0 -56 -19 -103q-18 -44 -61 -108l-197 -291h-157l176 244q-14 -2 -25 -2q-109 0 -175 70
q-66 69 -66 182q0 124 73 197q72 73 189 73q115 0 189 -71zM1021 754q38 41 38 106q0 69 -37 107q-37 39 -100 39q-58 0 -96 -41t-38 -107q0 -69 37 -106q37 -39 97 -39q61 0 99 41z" />
    <glyph glyph-name="uni27F2" unicode="&#x27f2;" horiz-adv-x="1773" 
d="M253 1137q97 174 271 271q173 97 396 97q159 0 303 -56q141 -55 243 -157l158 156v-442h-444l170 174q-79 79 -193 123q-111 43 -237 43q-174 0 -311 -77q-138 -76 -215 -214q-77 -137 -77 -312q0 -173 77 -313q76 -138 214 -217q136 -78 312 -78q175 0 312 79
q139 80 215 219q77 140 75 317h164q2 -224 -95 -398q-98 -176 -273 -275q-175 -100 -398 -100q-221 0 -395 99q-174 96 -272 272q-97 173 -97 395q0 221 97 394z" />
    <glyph glyph-name="uniF8FF" unicode="&#xf8ff;" horiz-adv-x="1548" 
d="M927 1252q-55 -30 -98 -40q-14 -4 -24.5 -6.5t-15.5 -3.5t-5 0l-2 47q0 103 68 197q46 62 104 94q54 31 102 40q24 5 34.5 6t11.5 -1q0 -4 1 -9t1 -20q0 -125 -84 -227q-39 -48 -93 -77zM362 112q-97 112 -158 280q-63 170 -63 327q0 147 56 257q55 109 142 166
q88 56 183 56q71 0 162 -41q8 -1 42 -15q36 -14 67 -14q24 0 50 10q36 12 54 19q58 25 93 34q42 11 95 11q95 0 162 -34q68 -35 106 -76t38 -48q0 6 -48 -32q-49 -39 -87 -105q-39 -67 -39 -162q0 -106 47 -177q46 -71 107 -112q59 -41 59 -34q0 -13 -47 -124
q-48 -109 -125 -203q-78 -93 -181 -93q-46 0 -123 31q-36 14 -72 25q-32 8 -65 8q-37 0 -71 -9q-42 -13 -80 -28q-21 -7 -61 -19q-29 -10 -54 -10q-95 0 -189 112z" />
    <glyph glyph-name="A.salt" horiz-adv-x="1398" 
d="M1079 0l-73 317q-153 -66 -330 -65q-184 0 -328 72l-166 -324h-231l776 1497h227l355 -1497h-230zM692 438q138 0 275 54l-119 520q-24 120 -43 233q-9 -21 -107 -235l-264 -518q118 -54 258 -54z" />
    <glyph glyph-name="G.aalt" horiz-adv-x="1566" 
d="M831 799h662l-111 -801h-174l17 203q-79 -106 -215 -168q-138 -62 -297 -62q-181 0 -318 81t-210 234q-74 153 -74 363q0 252 102 453t289 316q186 114 424 114q164 0 290 -55q125 -55 208 -154q80 -97 106 -227l-199 -78q-22 140 -136 228q-114 87 -286 87
q-169 0 -302 -86q-131 -85 -205 -236q-74 -153 -74 -339q0 -235 116 -369q115 -133 322 -133q130 0 237 52q109 54 178 149q69 94 89 223l6 35h-467z" />
    <glyph glyph-name="Q.aalt" horiz-adv-x="1611" 
d="M1386 174h162l-24 -172h-520q-102 -31 -220 -31q-198 0 -350 90q-152 89 -234 252q-83 163 -83 379q0 233 97 426t273 304q176 110 396 110q199 0 350 -90t234 -254t83 -379q0 -198 -67 -362q-67 -166 -191 -279zM393 420q55 -118 158 -183t237 -65q156 0 280 82
q125 83 195 227q70 143 70 322q0 159 -57 277t-160 184q-104 65 -239 65q-155 0 -277 -82q-123 -82 -193 -226q-71 -145 -71 -323q0 -160 57 -278z" />
    <glyph glyph-name="R.aalt" horiz-adv-x="1327" 
d="M1243 817q-72 -121 -194 -186q47 -29 70 -82q21 -50 26 -143l14 -406h-211l-12 360q-1 73 -16 118q-15 41 -54 64q-39 21 -118 21h-383l-78 -563h-201l211 1497h580q204 0 322 -110q116 -111 116 -293q0 -156 -72 -277zM1014 834q92 90 92 237q0 112 -67 173t-193 61
h-377l-78 -562h381q151 0 242 91z" />
    <glyph glyph-name="S_N_I.dlig" horiz-adv-x="2240" 
d="M2005 1366h-1702v131h1702v-131zM874 190q-21 -4 -61 -4h-510v148h496v330h-357q-34 0 -56 5q-18 4 -36 17q-17 13 -28 45q-11 33 -11 68v372q0 33 14 59q13 24 31 38q36 23 99 22h508v-147h-488v-318h359q34 0 61 -5q23 -4 43 -25q17 -17 21 -41q4 -23 4 -60v-393
q0 -71 -45 -96q-21 -12 -44 -15zM1241 905v-731h-158v1114h158l330 -715v715h158v-1114h-158zM2005 1288v-1114h-154v1114h154zM303 129h1702v-129h-1702v129z" />
    <glyph glyph-name="a.salt" horiz-adv-x="1019" 
d="M851 960q95 -89 95 -245q0 -37 -6 -80l-88 -635h-174l12 143q-52 -79 -140 -126q-86 -46 -196 -46q-134 0 -216 74q-81 73 -81 203q0 102 54 182q53 80 148 124q96 44 216 44h164q123 0 123 125q0 84 -54 126q-56 42 -141 42q-99 0 -163 -52q-65 -52 -82 -139l-156 45
q37 149 150 226q112 76 268 76q172 0 267 -87zM622 209q78 74 95 190l6 54h-236q-121 0 -176 -49t-55 -128q0 -70 44 -105q44 -36 124 -36q118 0 198 74z" />
    <glyph glyph-name="ampersand.aalt" horiz-adv-x="1497" 
d="M1133 2l-70 123q-85 -78 -204 -117t-238 -39q-151 0 -263 57q-112 55 -175 160q-62 104 -62 238q0 136 65 249q65 112 177 182q113 71 253 87l-194 354l27 201h806l-26 -192l-576 -2l449 -824q55 126 61 285h193q-8 -267 -144 -481l156 -281h-235zM830 195q84 34 143 96
l-277 502q-170 -17 -267 -112q-97 -97 -97 -243q0 -136 87 -206q87 -72 228 -72q96 0 183 35z" />
    <glyph glyph-name="at.aalt" horiz-adv-x="1757" 
d="M1223 608q-6 -87 28 -124q33 -38 90 -38q112 0 179 109t67 291q0 180 -80 317t-224 212t-333 75q-204 0 -362 -89t-245 -252q-87 -164 -87 -376q0 -198 79 -353q80 -158 233 -247q153 -90 368 -90q109 0 237 25q131 24 250 82v-134q-116 -54 -243 -76q-128 -22 -246 -22
q-248 0 -435 102q-187 100 -291 288q-104 187 -104 431q0 248 106 438q105 189 297 294q191 104 439 104q233 0 412 -92q178 -91 276 -257q97 -164 97 -378q0 -155 -49 -272q-50 -119 -139 -184q-89 -66 -204 -66q-91 0 -146 40q-57 42 -73 97q-34 -60 -105 -98
q-70 -37 -153 -37q-84 0 -154 43q-72 44 -113 128q-42 86 -42 208q0 125 44 224q43 96 122 152q78 54 176 54q75 0 137 -32q61 -32 92 -81l25 90h111zM1044 536q60 82 60 222q0 120 -50 191q-50 69 -141 69q-101 0 -160 -84q-59 -85 -59 -225q0 -126 49 -190q48 -66 136 -66
q103 0 165 83z" />
    <glyph glyph-name="bracketleft.aalt" horiz-adv-x="661" 
d="M502 -166h-449l262 1864h451l-23 -166h-270l-215 -1532h270z" />
    <glyph glyph-name="bracketright.aalt" horiz-adv-x="661" 
d="M258 0l215 1532h-266l22 166h451l-262 -1864h-449l23 166h266z" />
    <glyph glyph-name="eight.dnom" horiz-adv-x="868" 
d="M713 428q35 -56 35 -131q0 -138 -104 -227q-104 -88 -271 -88q-142 0 -227 70q-87 69 -87 184q0 94 53 168t134 102q-42 22 -68 66q-26 43 -26 104q0 81 44 149q44 66 121 104q78 38 175 38q126 0 203 -63q75 -65 75 -167q0 -83 -43 -144q-44 -64 -111 -89q63 -22 97 -76
zM359 778q-48 -40 -48 -104q0 -51 38 -83t97 -32q73 0 120 41q46 40 46 105q0 53 -36 84q-38 30 -99 30q-71 0 -118 -41zM533 176q57 46 57 123q0 63 -45 99t-121 36q-87 0 -146 -47t-59 -123q0 -63 45 -99t121 -36q89 0 148 47z" />
    <glyph glyph-name="eight.numr" horiz-adv-x="868" 
d="M784 938q35 -56 35 -131q0 -138 -104 -227q-103 -88 -271 -88q-142 0 -227 69q-86 71 -86 184q0 95 52 168q54 75 134 103q-42 22 -68 65q-26 44 -26 105q0 81 44 148q43 67 121 105t175 38q127 0 203 -64q76 -63 76 -166q0 -83 -43 -144q-44 -62 -111 -89q62 -21 96 -76
zM430 1288q-47 -41 -47 -104q0 -51 38 -83t97 -32q73 0 120 41q46 40 46 104q0 53 -37 84t-98 31q-72 0 -119 -41zM604 686q56 46 58 123q0 63 -46 99q-45 36 -120 36q-88 0 -147 -47q-58 -46 -58 -123q0 -63 45 -99t121 -36q89 0 147 47z" />
    <glyph glyph-name="eight.tnum" horiz-adv-x="1302" 
d="M1108 662q61 -89 61 -216q0 -136 -73 -243q-74 -109 -204 -171q-131 -62 -296 -63q-152 0 -263 51q-112 51 -172 144q-59 91 -61 213q0 155 96 270q94 116 238 154q-82 39 -130 113q-50 77 -50 176q0 124 67 224q69 102 184 160q117 58 267 58q193 0 310 -102
q118 -102 118 -273q0 -124 -68 -225q-68 -99 -182 -148q96 -31 158 -122zM546 1264q-81 -72 -81 -181q0 -92 64 -149q65 -57 169 -57q128 0 210 71q81 72 81 182q0 92 -64 149q-65 56 -171 56q-126 1 -208 -71zM853 246q99 80 99 209q0 109 -79 175q-79 67 -209 66
q-150 0 -250 -76q-99 -76 -101 -208q0 -112 78 -180t213 -66q149 0 249 80z" />
    <glyph glyph-name="emdash.aalt" horiz-adv-x="2050" 
d="M1970 633h-1855l22 178h1860z" />
    <glyph glyph-name="endash.aalt" horiz-adv-x="1552" 
d="M1477 633h-1362l22 178h1364z" />
    <glyph glyph-name="exclamdown.aalt" horiz-adv-x="606" 
d="M547 1499q43 -44 43 -113q0 -72 -48 -119q-48 -48 -124 -48q-72 0 -116 45q-44 46 -44 110q0 74 49 122q50 48 125 48q72 0 115 -45zM446 1014l-108 -1002h-201l172 1002h137z" />
    <glyph glyph-name="f.aalt" horiz-adv-x="849" 
d="M596 1325l-45 -313h305l-25 -174h-305l-118 -838h-193l119 838h-225l24 174h225l68 485h498l-23 -172h-305z" />
    <glyph glyph-name="five.dnom" horiz-adv-x="849" 
d="M352 803l-57 -199q67 41 158 41q128 0 205 -76q77 -77 77 -209q0 -106 -48 -193q-47 -86 -134 -136q-85 -49 -195 -49q-143 0 -222 82q-79 80 -68 219l153 24q-2 -14 -2 -26q0 -70 41 -111t111 -41q86 0 143 61q57 60 57 152q0 76 -42 122t-113 46q-56 0 -100 -25
q-44 -24 -74 -71h-152l150 532h520l-23 -143h-385z" />
    <glyph glyph-name="five.numr" horiz-adv-x="849" 
d="M424 1311l-57 -199q67 41 157 41q126 0 205 -77q78 -76 78 -208q0 -106 -48 -193q-47 -86 -134 -136q-84 -48 -195 -50q-143 0 -222 82t-69 220l154 24q-2 -14 -2 -27q0 -69 41 -110t110 -41q86 0 144 60q57 60 57 153q0 76 -42 122t-114 46q-54 0 -100 -26
q-45 -25 -74 -70h-151l149 532h520l-22 -143h-385z" />
    <glyph glyph-name="five.tnum" horiz-adv-x="1308" 
d="M559 1305l-108 -375q53 39 123 60q69 22 147 22q123 0 221 -60q98 -59 155 -167q56 -109 56 -248q0 -162 -75 -291t-204 -201t-284 -72q-138 0 -241 58q-104 57 -162 163q-58 104 -58 246l205 35q-8 -142 65 -226q73 -85 201 -85q91 0 170 47q76 46 124 130q46 82 46 189
q0 137 -76 219q-77 81 -196 80q-89 0 -169 -44q-78 -43 -124 -121h-205l238 833h796l-26 -192h-619z" />
    <glyph glyph-name="four.dnom" horiz-adv-x="921" 
d="M70 317l430 629h174l-434 -629h282l45 322h148l-45 -322h135l-21 -141h-135l-24 -176h-148l25 176h-453z" />
    <glyph glyph-name="four.numr" horiz-adv-x="921" 
d="M141 825l430 629h174l-434 -629h283l45 322h147l-45 -322h136l-21 -141h-135l-25 -176h-147l24 176h-452z" />
    <glyph glyph-name="four.tnum" horiz-adv-x="1353" 
d="M113 483l704 1014h240l-703 -1014h488l71 529h209l-75 -529h213l-27 -192h-213l-41 -291h-207l43 291l-729 2z" />
    <glyph glyph-name="germandbls.aalt" horiz-adv-x="1155" 
d="M217 1061q33 224 169 348q137 125 339 125q177 0 283 -88t106 -236q0 -197 -215 -331l-125 -76q-57 -38 -83 -67q-23 -28 -23 -54q0 -29 17 -49q16 -21 65 -45l118 -64q170 -96 170 -264q0 -133 -95 -213t-249 -80q-144 0 -223 71q-78 70 -70 189l156 27q-2 -14 -2 -29
q0 -55 35 -82q34 -28 98 -28q72 0 116 36q44 35 44 97q0 51 -30 84q-31 35 -97 71l-115 64q-135 79 -135 203q0 132 160 229l131 82q80 51 116 104q35 53 35 113q0 83 -52 126q-53 44 -140 44q-123 0 -206 -81q-84 -82 -103 -222l-148 -1065h-196z" />
    <glyph glyph-name="glyph1" 
 />
    <glyph glyph-name="glyph2" horiz-adv-x="682" 
 />
    <glyph glyph-name="glyph444" horiz-adv-x="3162" 
d="M1528 526h450v-526h-159l-21 160h-14q0 -12 -25 -55q-26 -44 -91 -82q-66 -39 -177 -39q-186 0 -304 127t-118 370q0 170 65 286t170 171q104 55 228 55q99 0 191 -37q91 -38 159 -117q67 -80 86 -196h-221q-18 71 -72 115q-55 43 -139 43q-124 0 -185 -88
q-63 -89 -63 -224q0 -134 61 -223q60 -90 183 -90q86 0 146 45q60 46 73 119h-223v186zM2085 809q-33 33 -33 78q0 43 33 75q32 31 76 31q45 0 77 -30q31 -31 31 -76q0 -46 -31 -78q-32 -33 -77 -33q-43 0 -76 33zM2357 809q-33 33 -33 78t33 76q33 30 78 30t76 -30
q31 -31 31 -76q0 -46 -31 -78q-31 -33 -76 -33t-78 33zM2607 952v41h164v-41h-61v-170h-50v170h-53zM2937 993h86v-211h-51v181l-29 -181h-68l-30 181v-181h-49v211h90l22 -174zM879 859q120 -125 120 -370q0 -242 -120 -365q-121 -124 -332 -124h-383v983h383
q211 0 332 -124zM705 241q81 60 81 248q0 132 -47 203q-46 69 -100 91q-54 20 -92 20h-127q-33 1 -60 12q-27 10 -43 21q-17 11 -20 14l-16 -14q11 -11 21 -22q2 -3 15 -17t21 -23q31 -25 38 -56q7 -29 7 -54v-347q0 -34 -10 -57t-21 -37q-12 -15 -14 -16l-57 -60l16 -16
q3 3 23 17q17 11 49 22q29 10 65 10h113q76 0 158 61zM2472 664q39 0 70 -7v-176q-16 2 -37 2q-93 0 -149 -50t-56 -157v-276h-213v506q0 92 -14 151h215q7 -49 8 -77q45 84 176 84z" />
    <glyph glyph-name="glyph450" horiz-adv-x="897" 
d="M664 725q4 73 -41 119q-45 45 -127 45q-85 0 -134 -43q-51 -44 -51 -111q0 -51 32 -78q31 -28 93 -43l152 -41q104 -27 159 -96q54 -69 54 -166q0 -157 -115 -248q-116 -92 -295 -92q-171 0 -268 84q-98 84 -92 226l176 28q-5 -79 45 -129q49 -49 147 -49q91 0 146 42
t55 116q0 85 -102 117l-162 45q-225 66 -225 260q0 150 108 243q107 93 283 93q155 0 246 -77q90 -77 92 -206z" />
    <glyph glyph-name="glyph472" horiz-adv-x="2861" 
d="M2655 1304q-51 -52 -64 -145l-21 -147h297l-24 -170h-297l-117 -842h-195l117 842h-446l-74 -523q-4 -29 -4 -47q0 -68 34 -96q34 -29 101 -29q53 0 121 13l-23 -156q-38 -12 -85 -18q-48 -6 -87 -6q-125 0 -191 69q-67 67 -67 189q0 33 6 69l76 535h-199l-380 -842h-203
l-119 727q-37 -90 -117 -262l-209 -465h-196l-174 1012h204l115 -725l47 110l76 176l195 439h194l119 -725q15 41 55 135l29 70l231 520h355l39 270l194 16l-41 -286h449l22 162q51 354 389 354q78 0 150 -21l-23 -161q-75 8 -114 8q-95 0 -145 -50z" />
    <glyph glyph-name="glyph473" horiz-adv-x="4110" 
d="M4139 1012l-457 -1012h-202l-119 727q-37 -90 -117 -262l-209 -465h-196l-119 686l-310 -686h-202l-119 727q-37 -90 -117 -262l-209 -465h-196l-121 696l-313 -696h-203l-119 727q-37 -90 -117 -262l-209 -465h-196l-174 1012h204l115 -725l47 110l76 176l195 439h194
l119 -725q15 41 55 135l29 70l231 520h217l115 -725l47 110l76 176l195 439h194l119 -725q15 41 55 135l29 70l231 520h211l115 -725l47 110l76 176l194 439h195l119 -725q15 41 55 135l29 70l231 520h209z" />
    <glyph glyph-name="glyph513" horiz-adv-x="1028" 
d="M226 845q64 56 143 56q41 0 86 -14q41 -14 100 -39q53 -23 98 -37q39 -12 78 -12q96 0 111 108h108q-6 -133 -76 -191q-71 -59 -159 -59q-51 0 -96 16q-48 15 -111 42q-70 28 -91 34q-36 11 -65 11q-42 0 -65 -30q-24 -31 -25 -73h-108q8 131 72 188zM170 455
q63 57 143 57q44 0 86 -13q33 -10 103 -40q48 -22 96 -38q39 -13 78 -13q51 0 80 29q27 27 32 79h109q-6 -132 -77 -191q-73 -59 -161 -59q-48 0 -95 16q-48 15 -111 42q-70 28 -91 34q-36 11 -65 11q-43 0 -65 -30q-24 -31 -25 -75h-109q7 132 72 191z" />
    <glyph glyph-name="glyph514" horiz-adv-x="987" 
d="M182 679q65 56 144 56q40 0 81 -12q39 -12 105 -39q53 -23 98 -37q39 -12 78 -12q96 0 111 106h108q-6 -133 -76 -191t-159 -58q-48 0 -98 15t-111 42q-46 20 -91 35q-30 10 -63 10q-45 0 -66 -29t-26 -76h-106q6 134 71 190z" />
    <glyph glyph-name="greater.aalt" horiz-adv-x="1153" 
d="M176 420l619 301l-539 274l29 197l719 -383l-25 -174l-832 -416z" />
    <glyph glyph-name="hyphen.aalt" horiz-adv-x="1054" 
d="M979 633h-864l22 178h867z" />
    <glyph glyph-name="i.locl" horiz-adv-x="473" 
d="M248 1149q-33 33 -33 84q0 53 39 91q40 38 94 38q51 0 84 -33t33 -86q0 -52 -38 -90q-37 -37 -97 -37q-49 0 -82 33zM401 1012l-141 -1012h-190l141 1012h190z" />
    <glyph glyph-name="j.aalt" horiz-adv-x="505" 
d="M339 1306q-36 33 -36 87q0 59 40 99t101 40q54 0 89 -34q36 -34 36 -87q0 -61 -40 -100q-41 -39 -103 -39q-52 0 -87 34zM-266 -453l24 172h348l181 1293h194l-205 -1465h-542z" />
    <glyph glyph-name="l.salt" horiz-adv-x="563" 
d="M154 44q-52 58 -52 165q0 41 7 82l172 1222h192l-172 -1224q-4 -25 -4 -39q0 -92 88 -92l70 4l-23 -162q-65 -14 -123 -14q-104 0 -155 58z" />
    <glyph glyph-name="l.ss02" horiz-adv-x="602" 
d="M281 1513h194l-190 -1341h209l-21 -172h-405z" />
    <glyph glyph-name="less.aalt" horiz-adv-x="1153" 
d="M205 635l24 174l830 383l-29 -197l-616 -274l534 -301l-28 -201z" />
    <glyph glyph-name="n.aalt" horiz-adv-x="1087" 
d="M211 1012h825l-141 -1012h-197l119 840h-434l-119 -838h-194z" />
    <glyph glyph-name="nine.dnom" horiz-adv-x="849" 
d="M695 882q83 -81 83 -214q0 -85 -32 -155q-32 -66 -107 -157l-301 -356h-195l263 305h-9q-127 0 -205 81q-79 80 -79 212q0 164 101 265q100 100 261 100q137 0 220 -81zM568 503q55 59 55 150q0 76 -44 120t-116 44q-86 0 -140 -59q-55 -59 -55 -152q0 -76 44 -120
t114 -44q87 0 142 61z" />
    <glyph glyph-name="nine.numr" horiz-adv-x="849" 
d="M767 1390q83 -81 83 -214q0 -86 -33 -155t-106 -157l-301 -356h-195l262 305h-8q-127 0 -206 81q-79 80 -79 212q0 164 102 264q100 100 261 100q137 2 220 -80zM639 1011q55 59 55 150q0 76 -44 120t-115 44q-85 0 -141 -59q-54 -58 -54 -152q0 -76 44 -120t114 -44
q86 2 141 61z" />
    <glyph glyph-name="nine.tnum" horiz-adv-x="1284" 
d="M984 1469q110 -60 170 -170q60 -109 60 -248q0 -129 -51 -235q-49 -102 -164 -253l-440 -563h-264l403 510q-37 -8 -80 -8q-127 0 -228 59q-100 58 -159 167q-57 108 -57 245q0 157 73 282q74 128 199 201q128 74 285 74q144 -2 253 -61zM837 722q76 48 120 131t44 187
q0 133 -75 214q-76 81 -203 81q-91 0 -167 -45q-78 -46 -122 -127q-45 -83 -45 -186q0 -135 78 -219t199 -84q94 0 171 48z" />
    <glyph glyph-name="one.dnom" horiz-adv-x="522" 
d="M494 946l-134 -946h-141l94 686h-192l14 105q97 0 147 40q51 40 70 115h142z" />
    <glyph glyph-name="one.numr" horiz-adv-x="522" 
d="M565 1454l-133 -946h-141l94 686h-192l14 104q97 0 146 40q50 41 71 116h141z" />
    <glyph glyph-name="one.tnum" horiz-adv-x="1302" 
d="M1090 184l-25 -184h-956l26 184h361l133 938h-353l21 140q147 0 251 65t132 170h201l-185 -1313h394z" />
    <glyph glyph-name="parenleft.aalt" horiz-adv-x="587" 
d="M166 212q-47 185 -47 370q0 288 110 549q111 262 299 464h181q-389 -488 -390 -1040q0 -169 36 -344t104 -317h-160q-87 138 -133 318z" />
    <glyph glyph-name="parenright.aalt" horiz-adv-x="587" 
d="M231 380q103 255 103 556q0 166 -35 344q-35 176 -102 315h159q86 -136 134 -317q47 -183 47 -371q0 -287 -111 -548q-111 -262 -301 -465h-178q181 231 284 486z" />
    <glyph glyph-name="questiondown.aalt" horiz-adv-x="970" 
d="M763 1483q44 -44 44 -111q0 -74 -51 -123q-50 -49 -125 -49q-67 0 -111 44q-43 43 -43 112q0 74 51 122q50 48 121 48t114 -43zM698 1010q-1 -97 -62 -179q-65 -86 -194 -206q-21 -18 -76 -71q-62 -59 -88 -110q-26 -52 -26 -104q0 -94 57 -145q55 -52 148 -52
q117 0 188 74q70 73 70 180q0 19 -2 35l176 -22q8 -122 -46 -222q-56 -102 -158 -160q-102 -59 -241 -59q-171 0 -278 95t-107 255q0 104 51 194q49 88 164 189q14 12 84 75t108 120q39 59 40 109l2 30h190v-26z" />
    <glyph glyph-name="r.aalt" horiz-adv-x="702" 
d="M723 1012l-23 -172h-327l-121 -840h-193l142 1012h522z" />
    <glyph glyph-name="s.aalt" horiz-adv-x="946" 
d="M61 178h445q36 0 56 19q20 18 20 51q0 42 -39 76l-281 249q-59 56 -84 106q-26 50 -26 101q0 106 74 169q73 63 196 63h471l-33 -178h-409q-38 0 -60 -17q-22 -18 -22 -51q0 -24 10 -40q12 -19 37 -44l274 -244q60 -54 85 -102q26 -50 26 -105q0 -107 -73 -168
q-74 -63 -191 -63h-506z" />
    <glyph glyph-name="seven.dnom" horiz-adv-x="800" 
d="M772 946l-20 -139l-516 -807h-183l520 803h-434l21 143h612z" />
    <glyph glyph-name="seven.numr" horiz-adv-x="800" 
d="M844 1454l-21 -139l-516 -807h-182l520 803h-434l20 143h613z" />
    <glyph glyph-name="seven.tnum" horiz-adv-x="1243" 
d="M1227 1497l-29 -190l-821 -1307h-244l825 1305h-722l26 192h965z" />
    <glyph glyph-name="six.dnom" horiz-adv-x="849" 
d="M654 560q79 -80 79 -212q0 -109 -46 -191q-47 -83 -129 -128q-83 -45 -187 -45q-137 0 -221 81q-84 79 -84 214q0 86 33 155q31 68 108 156l301 356h194l-262 -305h6q128 0 208 -81zM524 189q54 58 54 151q0 76 -44 120q-46 44 -114 44q-86 0 -141 -60q-56 -62 -56 -151
q0 -77 43 -120q44 -44 115 -44q88 0 143 60z" />
    <glyph glyph-name="six.numr" horiz-adv-x="849" 
d="M726 1068q79 -80 79 -212q0 -109 -46 -191q-47 -83 -129 -128t-188 -45q-136 0 -221 80q-84 81 -84 214q0 86 33 155t109 157l301 356h194l-262 -305h6q128 0 208 -81zM595 696q54 58 54 152q0 76 -44 120t-113 44q-87 0 -142 -61q-55 -59 -55 -150q0 -77 43 -120
q44 -44 115 -44q88 0 142 59z" />
    <glyph glyph-name="six.tnum" horiz-adv-x="1282" 
d="M921 936q101 -59 158 -167q56 -107 58 -245q0 -157 -73 -282q-73 -126 -201 -200q-127 -73 -283 -73q-142 0 -251 61q-110 60 -170 168q-59 107 -61 244q0 122 53 236q54 116 164 258l439 561h260l-406 -510q42 8 84 8q128 0 229 -59zM755 209q77 45 122 126t45 185
q0 135 -78 219t-201 84q-93 0 -169 -48q-78 -49 -121 -131q-44 -83 -44 -187q0 -132 76 -212q77 -81 201 -81q92 0 169 45z" />
    <glyph glyph-name="t.aalt" horiz-adv-x="849" 
d="M520 838l-92 -666h295l-25 -172h-489l117 838h-234l23 174h235l39 276h195l-39 -276h295l-25 -174h-295z" />
    <glyph glyph-name="three.dnom" horiz-adv-x="831" 
d="M739 811l-250 -223q103 -8 165 -75q61 -67 61 -173q0 -101 -47 -184q-46 -82 -132 -127q-85 -45 -194 -45q-134 0 -210 75q-77 74 -73 195l150 35q-6 -73 36 -117q42 -43 115 -43q88 0 144 57q55 55 55 144q0 68 -43 108q-44 39 -113 39q-47 0 -81 -12l-31 121l235 215
l-362 2l20 143h574z" />
    <glyph glyph-name="three.numr" horiz-adv-x="831" 
d="M811 1319l-250 -223q103 -8 165 -75q60 -67 60 -173q0 -101 -47 -184q-46 -82 -132 -127q-85 -45 -193 -45q-133 0 -210 74q-77 76 -73 196l150 35q-6 -73 35 -117q42 -43 116 -43q87 0 143 56q54 54 56 145q0 68 -43 107q-43 40 -113 40q-47 0 -82 -12l-31 121l236 215
l-362 2l20 143h573z" />
    <glyph glyph-name="three.tnum" horiz-adv-x="1306" 
d="M1186 1311l-420 -383q171 -18 271 -132t102 -290q0 -150 -72 -272t-201 -191q-128 -70 -291 -70q-137 0 -241 53q-105 53 -163 148t-58 221l202 51q-6 -125 67 -200q73 -76 200 -76q97 0 174 43q78 43 123 120t45 173q0 123 -75 195q-74 73 -198 73q-67 0 -121 -16
l-38 164l413 381l-612 2l26 192h893z" />
    <glyph glyph-name="two.dnom" horiz-adv-x="806" 
d="M305 145h361l-21 -145h-588l19 127l391 369q62 58 88 105q25 46 25 97q0 58 -37 92q-38 35 -101 35q-82 0 -131 -55q-48 -54 -53 -143l-141 18q1 89 45 162q44 74 119 117q74 43 176 43q125 0 199 -68q73 -67 73 -182q0 -100 -40 -173t-118 -145z" />
    <glyph glyph-name="two.numr" horiz-adv-x="806" 
d="M377 653h360l-20 -145h-588l18 127l392 369q62 58 88 105q25 46 24 97q0 58 -37 92q-38 35 -100 35q-82 0 -131 -55q-48 -54 -53 -143l-142 18q2 89 45 162q44 74 119 117q76 43 176 43q125 0 199 -68t74 -182q0 -100 -40 -173t-118 -145z" />
    <glyph glyph-name="two.tnum" horiz-adv-x="1300" 
d="M455 197h606l-29 -197h-917l22 172l621 580q203 194 203 342q0 120 -67 184q-68 66 -179 65q-137 0 -220 -95q-83 -96 -79 -244l-197 22q1 140 65 256q60 113 178 182q116 68 265 68q199 0 321 -113t121 -305q0 -126 -61 -241q-62 -117 -201 -248z" />
    <glyph glyph-name="u.aalt" horiz-adv-x="1085" 
d="M406 1010l-119 -838h438l115 840h196l-141 -1012h-825l141 1010h195z" />
    <glyph glyph-name="y.aalt" horiz-adv-x="1093" 
d="M1141 1012l-576 -1012l-63 -453h-541l23 172h348l39 281l-275 1012h199l197 -766l426 766h223z" />
    <glyph glyph-name="zero.dnom" horiz-adv-x="952" 
d="M140 674q56 130 156 203t230 73q150 0 241 -109t91 -304q0 -163 -56 -293q-57 -129 -157 -202t-229 -73q-150 0 -241 109q-91 107 -91 303q0 163 56 293zM290 186q48 -73 138 -73q124 0 197 120q73 118 73 304q0 125 -48 196q-48 70 -136 70q-82 0 -143 -55
q-62 -56 -95 -152q-34 -95 -34 -215q0 -123 48 -195z" />
    <glyph glyph-name="zero.numr" horiz-adv-x="956" 
d="M274 1343q103 132 277 132q175 0 275 -132q100 -133 100 -358q0 -226 -104 -359q-105 -132 -279 -132q-171 0 -272 131t-101 356q0 228 104 362zM384 731q59 -92 163 -92q103 0 162 92q57 91 57 252q0 160 -57 253q-59 93 -162 93t-161 -94q-60 -95 -60 -252
q0 -161 58 -252z" />
    <glyph glyph-name="zero.tnum" horiz-adv-x="1327" 
d="M1024 1447q113 -83 173 -234t60 -355q0 -241 -79 -442q-79 -202 -226 -323q-147 -120 -336 -120q-155 0 -267 82q-113 83 -173 234q-61 150 -61 354q0 240 81 444q80 203 227 323q145 120 335 120q153 0 266 -83zM533 1243q-96 -88 -152 -245q-55 -155 -55 -349
q0 -174 43 -282l583 862q-77 104 -204 104q-119 0 -215 -90zM842 258q96 90 151 247q54 157 54 347q0 149 -35 260l-580 -856q76 -88 193 -88q119 0 217 90z" />
    </font>
</defs>
</svg>
