<?xml version="1.0" standalone="no"?>
<!DOCTYPE svg PUBLIC "-//W3C//DTD SVG 1.1//EN" "http://www.w3.org/Graphics/SVG/1.1/DTD/svg11.dtd" >
<svg xmlns="http://www.w3.org/2000/svg" xmlns:xlink="http://www.w3.org/1999/xlink" version="1.1">
<metadata>
Created by FontForge 20170731 at Sun Oct 29 18:41:32 2017
 By ,,,
Copyright (c) 2016 by Deni Anggara. All rights reserved.
</metadata>
<defs>
<font id="NeutrifStudio-Medium" horiz-adv-x="0" >
  <font-face 
    font-family="Neutrif Studio Medium"
    font-weight="500"
    font-stretch="normal"
    units-per-em="2048"
    panose-1="0 0 6 0 0 0 0 0 0 0"
    ascent="1638"
    descent="-410"
    x-height="1012"
    cap-height="1497"
    bbox="-1329 -565 4651 1968"
    underline-thickness="0"
    underline-position="0"
    unicode-range="U+000D-F8FF"
  />
<missing-glyph horiz-adv-x="1206" 
d="M1122 1497v-1497h-1038v1497h1038z" />
    <glyph glyph-name="f_f.liga" unicode="ff" horiz-adv-x="1607" 
d="M1288 1285q-43 -47 -43 -148v-125h305v-191h-305v-821h-221v821h-524v-821h-221v821h-238v191h238v143q0 180 98 278q97 97 268 97q39 0 84 -6q44 -6 76 -15v-182q-72 6 -109 6q-111 0 -153 -48q-43 -47 -43 -148v-125h524v143q0 181 99 278q97 97 268 97q39 0 84 -6
t75 -15v-182q-70 6 -108 6q-110 0 -154 -48z" />
    <glyph glyph-name="f_f_i.liga" unicode="ffi" horiz-adv-x="2140" 
d="M1780 1285q-41 43 -41 101q0 60 41 104q40 42 104 42t104 -42q40 -41 40 -104q0 -60 -40 -101q-40 -42 -104 -42t-104 42zM1993 0h-215v819h-432v2h-101v-821h-221v821h-524v-821h-221v821h-238v191h238v143q0 180 98 278q97 97 268 97q39 0 84 -6q44 -6 76 -15v-182
q-72 6 -109 6q-111 0 -153 -48q-43 -47 -43 -148v-125h524v143q0 181 99 278q97 97 268 97q39 0 84 -6t75 -15v-182q-70 6 -108 6q-110 0 -154 -48q-43 -47 -43 -148v-125h748v-1012z" />
    <glyph glyph-name="f_f_t.liga" unicode="fft" horiz-adv-x="2316" 
d="M1946 821v-485q0 -94 42 -134q41 -40 123 -40q52 0 119 14v-174q-98 -29 -188 -29q-151 0 -234 89q-82 88 -82 245v514h-481v-821h-221v821h-524v-821h-221v821h-238v191h238v143q0 180 98 278q97 97 268 97q39 0 84 -6q44 -6 76 -15v-182q-72 6 -109 6q-111 0 -153 -48
q-43 -47 -43 -148v-125h524v143q0 181 99 278q97 97 268 97q39 0 84 -6t75 -15v-182q-70 6 -108 6q-110 0 -154 -48q-43 -47 -43 -148v-125h481v278l220 25v-303h284v-191h-284z" />
    <glyph glyph-name="f_i.liga" unicode="fi" horiz-adv-x="1394" 
d="M1034 1285q-41 43 -41 101q0 60 41 104q40 42 105 42q63 0 103 -42q40 -41 40 -104q0 -60 -40 -101q-40 -42 -103 -42q-65 0 -105 42zM1247 0h-215v821h-532v-821h-221v821h-238v191h238v143q0 180 98 278q97 97 268 97q39 0 84 -6q44 -6 76 -15v-182q-72 6 -109 6
q-111 0 -153 -48q-43 -47 -43 -148v-125h747v-1012z" />
    <glyph glyph-name="f_l.liga" unicode="fl" horiz-adv-x="1351" 
d="M1229 1513v-1513h-215v821h-514v-821h-221v821h-238v191h238v143q0 180 98 278q97 97 268 97q39 0 84 -6q44 -6 76 -15v-182q-72 6 -109 6q-111 0 -153 -48q-43 -47 -43 -148v-125h514v501h215z" />
    <glyph glyph-name="t_i.liga" unicode="ti" horiz-adv-x="1361" 
d="M1002 1285q-41 43 -41 101q0 60 41 104q40 42 104 42q62 0 103 -42q40 -41 40 -104q0 -60 -40 -101q-41 -42 -103 -42q-64 0 -104 42zM1214 0h-215v821h-501v-485q0 -94 42 -134q41 -40 124 -40q53 0 118 14v-174q-98 -29 -188 -29q-152 0 -233 89q-82 88 -82 245v514
h-240v191h240v278l219 25v-303h716v-1012z" />
    <glyph glyph-name="t_t.liga" unicode="tt" horiz-adv-x="1556" 
d="M1184 821v-485q0 -94 42 -134q41 -40 124 -40q53 0 118 14v-174q-98 -29 -188 -29q-152 0 -233 89q-82 88 -82 245v514h-467v-485q0 -94 42 -134q41 -40 124 -40q53 0 118 14v-174q-98 -29 -188 -29q-152 0 -233 89q-82 88 -82 245v514h-240v191h240v278l219 25v-303h467
v278l219 25v-303h284v-191h-284z" />
    <glyph glyph-name="w_t_f.liga" unicode="wtf" horiz-adv-x="3008" 
d="M2689 1285q-43 -47 -43 -148v-125h305v-191h-305v-821h-221v821h-498v-485q0 -94 42 -134q41 -40 124 -40q52 0 119 14v-174q-98 -29 -189 -29q-152 0 -233 89q-82 88 -82 245v514h-240v13l-268 -834h-207l-149 479q-42 126 -64 223q-7 -44 -59 -221l-154 -481h-211
l-319 1012h235l142 -486q46 -173 53 -213q13 71 57 213l148 486h227l139 -475q31 -109 60 -224q35 143 59 224l146 475h405v278l219 25v-303h498v143q0 180 98 278q97 97 268 97q39 0 84 -6q44 -6 76 -15v-182q-71 6 -108 6q-111 0 -154 -48z" />
    <glyph glyph-name="w_w_w.liga" unicode="www" horiz-adv-x="4687" 
d="M3398 1012l141 -486q46 -173 53 -213q12 62 58 213l147 486h227l140 -475q33 -118 59 -224q35 143 59 224l146 475h223l-326 -1012h-206l-150 479q-44 130 -63 223q-8 -48 -60 -221l-153 -481h-211l-320 1012h236zM1835 1012l141 -486q45 -168 54 -213q14 71 57 213
l147 486h228l139 -475q33 -118 59 -224q30 121 60 224l145 475h223l-325 -1012h-207l-150 479q-44 130 -63 223q-7 -44 -59 -221l-154 -481h-211l-320 1012h236zM272 1012l142 -486q46 -173 53 -213q13 71 57 213l148 486h227l139 -475q31 -109 60 -224q35 143 59 224
l146 475h223l-326 -1012h-207l-149 479q-42 126 -64 223q-7 -44 -59 -221l-154 -481h-211l-319 1012h235z" />
    <glyph glyph-name=".notdef" horiz-adv-x="1206" 
d="M1122 1497v-1497h-1038v1497h1038z" />
    <glyph glyph-name=".null" 
 />
    <glyph glyph-name="nonmarkingreturn" horiz-adv-x="682" 
 />
    <glyph glyph-name="NULL" 
 />
    <glyph glyph-name="NULL" 
 />
    <glyph glyph-name="CR" unicode="&#xd;" horiz-adv-x="1656" 
d="M1466 1370v-932h-929v-260l-402 324l402 323v-260h802v805h127z" />
    <glyph glyph-name="CR" unicode="&#x21b5;" horiz-adv-x="1656" 
d="M1466 1370v-932h-929v-260l-402 324l402 323v-260h802v805h127z" />
    <glyph glyph-name="space" unicode=" " horiz-adv-x="509" 
 />
    <glyph glyph-name="exclam" unicode="!" horiz-adv-x="567" 
d="M199 510l-31 987h229l-28 -987h-170zM158 17q-49 50 -49 126t49 124q50 48 127 48q78 0 126 -49q48 -50 48 -123q0 -76 -48 -127q-49 -51 -126 -51q-78 0 -127 52z" />
    <glyph glyph-name="quotedbl" unicode="&#x22;" horiz-adv-x="845" 
d="M127 1511h203l-33 -641h-139zM514 1511h205l-33 -641h-139z" />
    <glyph glyph-name="numbersign" unicode="#" horiz-adv-x="1492" 
d="M86 539h203l82 417h-226l33 187h230l67 354h234l-70 -354l340 2l72 352h229l-70 -352h203l-33 -189h-206l-80 -415h227l-31 -189h-235l-70 -352h-229l69 352h-344l-67 -352h-234l72 352h-199zM864 541l80 415h-344l-80 -417z" />
    <glyph glyph-name="dollar" unicode="$" horiz-adv-x="1187" 
d="M982 592q81 -96 81 -225q0 -114 -59 -205q-60 -90 -166 -139q-104 -50 -244 -50q-33 0 -80 4l-37 -206h-104l41 229q-122 39 -198 131q-74 91 -91 221l207 29q2 -63 33 -111q30 -50 84 -75l65 360q-180 43 -264 135t-84 221q0 109 54 198q55 90 153 139q98 50 227 50
q27 0 45 -2l37 201h111l-39 -219q115 -31 188 -112q73 -82 86 -201l-203 -50q-5 61 -32 104q-28 43 -76 66l-64 -346l97 -20q151 -31 232 -127zM423 818q41 -40 128 -58l61 350h-16q-97 0 -156 -50t-59 -132q0 -70 42 -110zM778 212q66 50 66 138q0 133 -164 166l-64 14
l-67 -366q22 -2 49 -2q112 0 180 50z" />
    <glyph glyph-name="percent" unicode="%" horiz-adv-x="1585" 
d="M209 1417q78 99 211 99q132 0 212 -99q79 -100 79 -260q0 -159 -78 -260q-78 -100 -213 -100q-133 0 -211 100q-78 101 -78 260t78 260zM328 0l-123 90l1052 1407l123 -92zM329 1009q32 -53 91 -53t91 53t32 148q0 97 -31 149t-92 52q-59 0 -91 -53q-32 -55 -32 -148
q0 -95 32 -148zM953 602q80 98 212 98q133 0 211 -98t78 -260q0 -160 -78 -261t-211 -101t-212 102q-79 101 -79 260q0 163 79 260zM1074 193q31 -52 91 -52t91 52q32 52 32 149q0 95 -31 148q-32 53 -92 53q-61 0 -92 -52t-31 -149t32 -149z" />
    <glyph glyph-name="ampersand" unicode="&#x26;" horiz-adv-x="1579" 
d="M183 529q31 67 77 115q38 40 113 101l80 66l-60 61q-137 151 -137 308q0 158 105 253q104 95 276 95q171 0 274 -91t103 -245q0 -99 -46 -179q-46 -81 -139 -157l-71 -57l319 -342q66 113 66 264q0 31 -2 57l207 -33l2 -47q0 -116 -32 -221q-32 -104 -89 -184l268 -293
h-293l-119 129q-84 -76 -200 -120q-118 -44 -252 -44q-215 0 -349 107t-134 295q0 91 33 162zM500 1084q24 -45 71 -89l50 -51l61 49q115 91 115 187q0 65 -44 109q-43 42 -116 42t-116 -43q-44 -44 -44 -110q0 -51 23 -94zM467 225q79 -59 195 -59q86 0 160 33
q73 31 126 86l-362 377l-80 -60q-60 -45 -88 -93q-29 -50 -29 -114q0 -111 78 -170z" />
    <glyph glyph-name="quotesingle" unicode="'" horiz-adv-x="481" 
d="M139 1511h203l-31 -641h-139z" />
    <glyph glyph-name="parenleft" unicode="(" horiz-adv-x="655" 
d="M463 -457q-156 185 -246 453q-90 270 -90 561q0 283 87 552t249 462h192q-133 -180 -211 -450q-79 -267 -79 -562q0 -281 77 -554q76 -271 213 -462h-192z" />
    <glyph glyph-name="parenright" unicode=")" horiz-adv-x="655" 
d="M213 4q76 268 76 555q0 295 -79 562q-80 269 -210 450h190q164 -194 251 -462q87 -269 87 -552q0 -293 -90 -561t-248 -453h-190q136 190 213 461z" />
    <glyph glyph-name="asterisk" unicode="*" horiz-adv-x="876" 
d="M154 1337l131 -45q69 -26 104 -51q-18 47 -18 113v143h131v-143q0 -76 -15 -113q53 40 101 53l135 45l45 -127l-135 -45q-72 -23 -121 -20q27 -13 47 -32q19 -19 43 -52l86 -115l-108 -80l-80 115q-45 53 -62 109q-13 -44 -57 -109l-84 -115l-113 80l90 117q41 55 88 82
q-51 -2 -120 22l-133 41z" />
    <glyph glyph-name="plus" unicode="+" horiz-adv-x="1214" 
d="M1102 522h-406v-411h-178v411h-405v180h405v416h178v-416h406v-180z" />
    <glyph glyph-name="comma" unicode="," horiz-adv-x="518" 
d="M373 254q45 -45 45 -115q0 -74 -49 -141l-209 -303l-97 57l130 236q-51 14 -81 54q-30 41 -30 95q0 72 47 117t123 45t121 -45z" />
    <glyph glyph-name="hyphen" unicode="-" horiz-adv-x="1245" 
d="M1065 475h-885v162h885v-162z" />
    <glyph glyph-name="period" unicode="." horiz-adv-x="505" 
d="M122 16q-46 46 -46 121q0 72 46 118t122 46q75 0 121 -46q47 -47 47 -118q0 -74 -47 -121q-49 -47 -121 -47q-75 0 -122 47z" />
    <glyph glyph-name="slash" unicode="/" horiz-adv-x="1085" 
d="M229 0h-196l821 1516h199z" />
    <glyph glyph-name="zero" unicode="0" horiz-adv-x="1318" 
d="M163 1164q67 175 197 270q128 94 304 94q174 0 300 -93q126 -94 193 -268q66 -174 66 -413q0 -242 -70 -416q-71 -176 -198 -270q-128 -95 -302 -95q-173 0 -300 95q-126 95 -192 268q-67 173 -67 412q0 240 69 416zM419 345q85 -148 240 -148t241 149q85 148 85 406
t-85 406q-86 147 -241 147q-159 0 -241 -147q-84 -148 -84 -408q0 -259 85 -405z" />
    <glyph glyph-name="one" unicode="1" horiz-adv-x="806" 
d="M627 1497v-1497h-226v1094h-358v159q155 0 250 66q94 64 108 178h226z" />
    <glyph glyph-name="two" unicode="2" horiz-adv-x="1130" 
d="M434 221h598v-221h-942l-2 193l578 591q75 77 106 146q29 69 29 137q0 115 -69 182q-70 66 -187 66q-125 0 -193 -75q-69 -75 -69 -198q0 -25 2 -47l-217 27q-2 22 -2 49q0 128 59 234q58 103 170 165q111 60 260 60q144 0 254 -56q109 -57 168 -159q59 -104 59 -238
q0 -246 -194 -440z" />
    <glyph glyph-name="three" unicode="3" horiz-adv-x="1185" 
d="M989 803q109 -127 109 -322q0 -147 -65 -263q-66 -116 -186 -180q-118 -65 -274 -65q-211 0 -347 117q-135 116 -158 309l233 56q7 -121 85 -189q76 -69 192 -69q126 0 202 79q76 77 76 209q0 131 -78 203t-207 72q-73 0 -127 -19l-67 183l342 354h-592v219h901v-207
l-336 -346q188 -14 297 -141z" />
    <glyph glyph-name="four" unicode="4" horiz-adv-x="1257" 
d="M53 500l545 997h268l-557 -997l459 -2v514h227v-514h215v-215h-215v-283h-227v283h-715v217z" />
    <glyph glyph-name="five" unicode="5" horiz-adv-x="1179" 
d="M874 954q110 -64 172 -182q60 -117 60 -270q0 -159 -64 -278q-64 -120 -182 -186q-116 -67 -270 -67q-147 0 -261 60q-113 58 -181 167q-69 108 -76 248l235 39q1 -134 77 -213q75 -79 200 -79t205 83q79 82 79 222q0 146 -79 229q-79 84 -209 84q-87 0 -158 -41
q-69 -40 -103 -115h-233l119 842h817v-219h-621l-53 -344q46 40 116 62q69 22 152 22q146 0 258 -64z" />
    <glyph glyph-name="six" unicode="6" horiz-adv-x="1210" 
d="M905 949q110 -65 169 -179q59 -116 59 -264q0 -159 -66 -281q-66 -121 -184 -187q-118 -67 -273 -67q-152 0 -269 66q-117 64 -182 183t-65 272q0 114 37 201q39 91 119 220l373 584h288l-321 -491q34 6 59 6q146 0 256 -63zM816 280q77 83 77 218q0 143 -76 225t-203 82
q-125 0 -202 -86q-78 -85 -78 -221q0 -138 77 -220q77 -81 201 -81q127 0 204 83z" />
    <glyph glyph-name="seven" unicode="7" horiz-adv-x="1048" 
d="M1016 1497v-215l-664 -1282h-272l665 1278h-694v219h965z" />
    <glyph glyph-name="eight" unicode="8" horiz-adv-x="1257" 
d="M1099 659q66 -102 66 -237q0 -132 -67 -233q-67 -103 -189 -160q-120 -58 -280 -58q-162 0 -282 58q-122 57 -189 160q-68 103 -68 233q0 136 67 237q67 102 179 142q-86 39 -137 123q-52 83 -52 196q0 119 60 212q58 92 169 145q110 51 253 51q141 0 251 -51
q108 -52 170 -144q60 -91 60 -211q0 -114 -51 -196q-51 -84 -137 -125q109 -40 177 -142zM452 1250q-67 -58 -67 -154t67 -153q65 -58 175 -58q111 0 176 57t65 154q0 96 -64 154q-65 57 -175 57q-111 0 -177 -57zM845 264q83 66 83 178q0 113 -83 181q-82 67 -216 67
q-135 0 -217 -66q-82 -67 -82 -182q0 -113 81 -179t216 -66q136 0 218 67z" />
    <glyph glyph-name="nine" unicode="9" horiz-adv-x="1212" 
d="M870 1460q118 -65 182 -183t64 -271q0 -116 -38 -209q-39 -94 -117 -211l-398 -586h-293l346 487q-25 -4 -45 -4q-148 0 -258 64q-111 62 -173 178t-62 268q0 157 66 279q64 120 184 187q119 65 270 65q154 0 272 -64zM801 777q78 85 78 220q0 138 -77 221
q-76 82 -206 82q-123 0 -201 -83q-78 -84 -78 -220q0 -139 77 -222t202 -83q127 0 205 85z" />
    <glyph glyph-name="colon" unicode=":" horiz-adv-x="671" 
d="M226 787q-42 42 -42 110q0 66 42 108t110 42t110 -42q41 -43 41 -108t-42 -109q-42 -43 -109 -43q-68 0 -110 42zM226 11q-42 42 -42 110t41 109q40 40 111 40q67 0 110 -41q41 -41 41 -108q0 -66 -42 -109t-109 -43q-68 0 -110 42z" />
    <glyph glyph-name="semicolon" unicode=";" horiz-adv-x="649" 
d="M220 787q-42 42 -42 110q0 66 42 108t110 42t110 -42q41 -43 41 -108t-42 -109q-42 -43 -109 -43q-68 0 -110 42zM166 -217l108 199q-41 13 -68 52q-26 38 -26 89q0 67 42 107q41 40 110 40q67 0 110 -41q41 -41 41 -108q0 -63 -45 -127l-182 -264z" />
    <glyph glyph-name="less" unicode="&#x3c;" horiz-adv-x="1097" 
d="M156 442v172l786 404v-215l-571 -275l571 -292v-222z" />
    <glyph glyph-name="equal" unicode="=" horiz-adv-x="1239" 
d="M1055 864v-174h-871v174h871zM1055 473v-174h-871v174h871z" />
    <glyph glyph-name="greater" unicode="&#x3e;" horiz-adv-x="1097" 
d="M156 236l573 292l-573 275v215l786 -393v-193l-786 -418v222z" />
    <glyph glyph-name="question" unicode="?" horiz-adv-x="1101" 
d="M401 496q0 110 52 195q49 83 147 188q75 79 107 133q32 58 32 118q0 88 -54 141q-53 52 -144 52q-96 0 -153 -58q-58 -58 -58 -155q0 -35 8 -70l-207 27q-6 35 -6 66q0 106 52 197t149 146q96 54 225 54q185 0 298 -103q114 -103 114 -274q0 -97 -45 -186
q-48 -91 -146 -195q-18 -18 -59 -63q-49 -56 -73 -103q-26 -52 -26 -104v-29h-213v23zM394 28q-48 50 -48 126t48 124t126 48t126 -48q48 -50 48 -124q0 -76 -48 -126q-48 -51 -126 -51t-126 51z" />
    <glyph glyph-name="at" unicode="@" horiz-adv-x="1835" 
d="M1227 455q-6 -80 26 -115t86 -35q104 0 170 105q66 103 66 280q0 178 -78 315t-219 210q-140 73 -330 73q-204 0 -356 -88q-153 -88 -239 -247q-85 -160 -85 -369q0 -199 79 -353q80 -156 230 -242q150 -87 359 -87q106 0 238 23q128 24 247 81v-141q-113 -53 -240 -77
q-131 -24 -245 -24q-247 0 -435 101q-188 102 -291 289q-104 187 -104 430q0 249 106 439q105 191 295 297q189 105 437 105q234 0 412 -93q179 -93 276 -259t97 -379q0 -153 -50 -273q-51 -120 -140 -185q-89 -66 -204 -66q-85 0 -143 38q-56 37 -76 95q-34 -57 -102 -93
t-148 -36q-134 0 -223 101q-88 100 -88 284q0 124 43 219q44 96 120 150q77 53 177 53q79 0 139 -28t90 -74l25 82h117zM1038 389q58 79 58 213q0 121 -49 188q-49 66 -134 66q-96 0 -152 -80t-56 -217q0 -122 47 -186q46 -64 127 -64q100 0 159 80z" />
    <glyph glyph-name="A" unicode="A" horiz-adv-x="1404" 
d="M1004 305h-607l-106 -305h-264l551 1497h249l549 -1497h-266zM932 514l-144 410q-74 219 -86 276q-8 -33 -90 -276l-143 -410h463z" />
    <glyph glyph-name="B" unicode="B" horiz-adv-x="1275" 
d="M1067 112q-122 -112 -338 -112h-577v1495h550q209 -1 332 -115q121 -114 121 -301q0 -110 -46 -190q-47 -83 -126 -129q101 -50 153 -138q52 -89 52 -206q1 -193 -121 -304zM379 850h305q105 0 167 59q60 59 60 154q0 101 -63 159q-64 58 -168 58h-301v-430zM888 277
q62 59 62 157q0 102 -62 161q-62 58 -169 58h-340v-436h338q108 0 171 60z" />
    <glyph glyph-name="C" unicode="C" horiz-adv-x="1540" 
d="M428 67q-163 98 -251 274q-89 178 -89 407q0 231 90 408q91 178 253 275q163 97 372 97q159 0 292 -57q134 -59 227 -162q92 -104 130 -244l-225 -82q-39 147 -154 232t-270 85q-138 0 -245 -68q-106 -69 -165 -194q-59 -126 -59 -288q0 -163 59 -290t165 -194
q107 -69 245 -69q154 0 270 86q115 85 154 233l225 -82q-34 -136 -127 -242q-90 -105 -228 -164q-134 -59 -298 -59q-208 0 -371 98z" />
    <glyph glyph-name="D" unicode="D" horiz-adv-x="1404" 
d="M152 1497h460q219 0 378 -93t243 -262q84 -170 84 -392q0 -230 -86 -400t-245 -260t-374 -90h-460v1497zM598 217q223 0 351 146t128 387q0 160 -59 283q-60 121 -168 185q-109 64 -252 64h-217v-1065h217z" />
    <glyph glyph-name="E" unicode="E" horiz-adv-x="1069" 
d="M152 1497h839v-217h-612v-420h551v-205h-551v-438h612v-217h-839v1497z" />
    <glyph glyph-name="F" unicode="F" horiz-adv-x="1058" 
d="M152 1497h845v-217h-618v-440h520v-203h-520v-637h-227v1497z" />
    <glyph glyph-name="G" unicode="G" horiz-adv-x="1595" 
d="M1503 666q0 -208 -85 -365q-86 -159 -241 -245q-157 -87 -364 -87q-218 0 -382 97q-165 96 -254 272t-89 407q0 237 91 413q92 178 256 275t380 97q155 0 285 -54q133 -57 223 -154q93 -101 127 -228l-219 -88q-34 136 -149 219q-115 82 -275 82q-143 0 -250 -71
q-107 -70 -166 -197t-59 -291q0 -165 59 -292q58 -125 168 -196q109 -70 256 -70q128 0 228 52q100 51 160 147q59 96 63 223h-480v195h705q12 -55 12 -141z" />
    <glyph glyph-name="H" unicode="H" horiz-adv-x="1433" 
d="M1280 1497v-1497h-225v625h-676v-625h-227v1497h227v-655l676 -2v657h225z" />
    <glyph glyph-name="I" unicode="I" horiz-adv-x="526" 
d="M152 0v1497h223v-1497h-223z" />
    <glyph glyph-name="J" unicode="J" horiz-adv-x="1083" 
d="M51 500h223v-88q0 -103 56 -168q55 -64 164 -64q104 2 161 69q56 67 56 171v1077h227v-1077q0 -204 -120 -326q-120 -121 -320 -121q-210 0 -329 119q-118 118 -118 320v88z" />
    <glyph glyph-name="K" unicode="K" horiz-adv-x="1292" 
d="M152 1497h227v-821l594 821h284l-462 -635l473 -862h-275l-356 659l-258 -350v-311h-227v1499z" />
    <glyph glyph-name="L" unicode="L" horiz-adv-x="1060" 
d="M993 217v-217h-841v1497h229v-1280h612z" />
    <glyph glyph-name="M" unicode="M" horiz-adv-x="1693" 
d="M152 1497h229l467 -1210l465 1210l229 -2v-1495h-229v668q0 179 8 309l-365 -973h-219l-364 969q8 -123 8 -305v-668h-229v1497z" />
    <glyph glyph-name="N" unicode="N" horiz-adv-x="1433" 
d="M152 1497h227l676 -1104v1104h227v-1497h-225l-678 1102v-1102h-227v1497z" />
    <glyph glyph-name="O" unicode="O" horiz-adv-x="1662" 
d="M445 69q-168 100 -263 279q-94 178 -94 402q0 221 94 399t264 280q170 101 388 101q216 0 386 -101q168 -101 263 -280q94 -178 94 -399q0 -223 -94 -401q-95 -180 -264 -280q-169 -102 -388 -102q-217 0 -386 102zM1090 268q112 70 175 196q62 127 62 286t-62 286
q-64 126 -176 196q-115 71 -258 71q-144 0 -257 -71t-176 -197q-64 -125 -64 -285q0 -161 64 -286q62 -125 176 -196q113 -71 257 -71q146 0 259 71z" />
    <glyph glyph-name="P" unicode="P" horiz-adv-x="1304" 
d="M152 1497h581q146 0 259 -60q113 -62 174 -170q61 -109 61 -253q0 -143 -60 -254q-62 -111 -173 -172q-113 -62 -263 -62h-352v-526h-227v1497zM711 737q135 0 209 77q73 76 73 198q0 125 -73 197q-74 71 -209 71h-332v-543h332z" />
    <glyph glyph-name="Q" unicode="Q" horiz-adv-x="1662" 
d="M1529 457q-49 -140 -136 -242l161 -172l-153 -137l-164 174q-176 -113 -406 -113q-217 0 -386 102q-168 100 -263 279q-94 178 -94 402q0 221 94 399t264 280q170 101 388 101q216 0 386 -101q168 -101 263 -280q94 -178 94 -399q0 -156 -48 -293zM1073 258l-207 221
l152 139l207 -221q102 143 102 353q0 159 -62 286q-64 126 -176 196q-115 71 -258 71q-144 0 -257 -71t-176 -197q-64 -125 -64 -285q0 -161 64 -286q62 -125 176 -196q113 -71 257 -71q132 0 242 61z" />
    <glyph glyph-name="R" unicode="R" horiz-adv-x="1337" 
d="M1181 763q-67 -112 -188 -169l240 -594h-254l-207 543h-22h-371v-543h-227v1497h600q149 0 262 -60q111 -61 173 -169q60 -110 60 -248q0 -146 -66 -257zM379 745h354q135 0 209 77t74 196q0 122 -76 192t-207 70h-354v-535z" />
    <glyph glyph-name="S" unicode="S" horiz-adv-x="1226" 
d="M883 1081q-12 109 -88 172q-77 62 -195 62q-115 0 -184 -60q-70 -61 -70 -155q0 -86 57 -132q53 -45 166 -77l217 -55q182 -45 270 -153q87 -108 87 -259q0 -136 -64 -237q-63 -101 -184 -158q-116 -56 -274 -56q-159 0 -275 56q-120 56 -187 156q-69 101 -81 231l227 35
q5 -117 90 -189t226 -72q128 0 204 59q74 59 74 163q0 82 -49 130q-50 48 -141 72l-209 54q-205 51 -301 156q-97 103 -97 261q0 134 64 234q62 99 177 155q114 54 259 54q205 0 342 -104q136 -105 162 -285z" />
    <glyph glyph-name="T" unicode="T" horiz-adv-x="1183" 
d="M1130 1280h-425v-1280h-228v1280h-426v217h1079v-217z" />
    <glyph glyph-name="U" unicode="U" horiz-adv-x="1386" 
d="M135 1497h230v-932q0 -178 90 -277q90 -100 239 -100q152 0 241 102q89 101 89 275v932h227v-952q0 -172 -67 -302t-194 -201t-296 -71t-296 71t-194 201q-69 131 -69 302v952z" />
    <glyph glyph-name="V" unicode="V" horiz-adv-x="1378" 
d="M1354 1497l-551 -1497h-223l-555 1497h264l401 -1171l400 1171h264z" />
    <glyph glyph-name="W" unicode="W" horiz-adv-x="2041" 
d="M287 1497l264 -1104l354 1104h234l354 -1102l262 1102h252l-393 -1497h-228l-366 1108l-365 -1108h-225l-395 1497h252z" />
    <glyph glyph-name="X" unicode="X" horiz-adv-x="1349" 
d="M506 750l-453 747h291l332 -553l338 553h295l-467 -747l456 -750h-290l-332 551l-342 -551h-293z" />
    <glyph glyph-name="Y" unicode="Y" horiz-adv-x="1347" 
d="M289 1497l383 -668l389 668h260l-537 -905v-592h-223v592l-534 905h262z" />
    <glyph glyph-name="Z" unicode="Z" horiz-adv-x="1144" 
d="M78 211l706 1067h-696v217l979 2v-211l-711 -1069h691v-217h-969v211z" />
    <glyph glyph-name="bracketleft" unicode="[" horiz-adv-x="591" 
d="M592 -313h-465v2029h465v-186h-260v-1659h260v-184z" />
    <glyph glyph-name="backslash" unicode="\" horiz-adv-x="1085" 
d="M229 1516l824 -1516h-199l-821 1516h196z" />
    <glyph glyph-name="bracketright" unicode="]" horiz-adv-x="591" 
d="M262 -129v1659h-262v186h465v-2029h-465v184h262z" />
    <glyph glyph-name="asciicircum" unicode="^" horiz-adv-x="907" 
d="M455 1325l-131 -287h-191l244 459h153l244 -459h-192z" />
    <glyph glyph-name="underscore" unicode="_" horiz-adv-x="980" 
d="M0 -43l981 2v-178h-981v176z" />
    <glyph glyph-name="grave" unicode="`" horiz-adv-x="436" 
d="M207 1350l-199 288h232l139 -288h-172z" />
    <glyph glyph-name="a" unicode="a" horiz-adv-x="1069" 
d="M849 948q105 -101 105 -280v-668h-194l-12 129q-44 -77 -127 -120q-85 -44 -193 -44q-154 0 -248 85t-94 231q0 147 101 233t266 86h172q58 0 86 26q26 26 26 79q0 78 -51 119q-50 40 -143 40q-100 0 -163 -48t-73 -130l-188 51q26 151 142 230q116 80 290 80
q191 0 298 -99zM737 444h-237q-97 0 -146 -38q-49 -39 -49 -109q0 -72 51 -112q49 -40 138 -40q114 0 178 69q65 70 65 181v49z" />
    <glyph glyph-name="b" unicode="b" horiz-adv-x="1181" 
d="M968 898q115 -145 115 -394q0 -253 -118 -395q-119 -144 -320 -144q-102 0 -183 45q-82 46 -122 121l-10 -131h-197v1513h221v-602q46 64 121 98q78 35 172 35q205 0 321 -146zM793 248q63 94 63 260q0 167 -65 258q-66 90 -185 90q-122 0 -186 -91q-66 -91 -66 -261
q0 -175 68 -263q68 -87 184 -87q123 0 187 94z" />
    <glyph glyph-name="c" unicode="c" horiz-adv-x="1167" 
d="M346 36q-117 68 -182 191q-66 123 -66 279q0 159 67 281q67 123 184 191q119 69 267 69q171 0 296 -86q125 -87 165 -226l-190 -82q-25 85 -99 138q-75 51 -174 51q-132 0 -211 -91q-81 -91 -81 -245q0 -152 79 -243q78 -91 211 -91q97 0 173 50q75 49 102 136l194 -77
q-45 -143 -175 -228q-129 -86 -296 -86q-147 0 -264 69z" />
    <glyph glyph-name="d" unicode="d" horiz-adv-x="1181" 
d="M1047 1511v-1511h-195l-12 135q-38 -77 -122 -124q-82 -46 -183 -46q-206 0 -321 148q-116 148 -116 395q0 251 118 393q119 143 321 143q92 0 170 -35q74 -35 118 -98v600h222zM760 244q65 91 65 262q0 176 -66 263q-67 87 -184 87q-124 0 -188 -94q-65 -95 -65 -256
q0 -168 68 -260t185 -92q119 0 185 90z" />
    <glyph glyph-name="e" unicode="e" horiz-adv-x="1169" 
d="M782 203q80 50 107 129l180 -72q-44 -134 -173 -214q-130 -81 -298 -81q-148 0 -261 67q-115 66 -176 189q-63 123 -63 285t63 284q61 121 175 189q113 68 260 68q140 0 250 -60q108 -61 168 -171q59 -112 59 -255q0 -64 -14 -125h-744q1 -128 80 -205t205 -77
q103 0 182 49zM402 790q-78 -70 -87 -184h533q-1 113 -70 185q-69 69 -184 69q-116 0 -192 -70z" />
    <glyph glyph-name="f" unicode="f" horiz-adv-x="862" 
d="M543 1285q-43 -47 -43 -148v-125h305v-191h-305v-821h-221v821h-238v191h238v143q0 180 98 278q97 97 268 97q39 0 84 -6q44 -6 76 -15v-182q-72 6 -109 6q-110 0 -153 -48z" />
    <glyph glyph-name="g" unicode="g" horiz-adv-x="1183" 
d="M1051 1012v-998q0 -226 -135 -348q-136 -121 -353 -121q-192 0 -313 89q-121 90 -160 243l182 80q22 -105 98 -163q74 -56 185 -56q129 0 201 72q71 74 71 200v144q-40 -60 -114 -95q-72 -34 -172 -34q-207 0 -324 139q-117 140 -117 371q0 153 54 268q52 115 153 178
q99 63 230 63q104 0 183 -40t120 -113l6 121h205zM761 292q66 86 66 243t-66 239q-67 82 -183 82q-122 0 -186 -88q-66 -88 -66 -233q0 -152 67 -240q66 -88 185 -88q116 0 183 85z" />
    <glyph glyph-name="h" unicode="h" horiz-adv-x="1116" 
d="M900 938q93 -110 93 -291v-647h-221v604q0 121 -52 182q-52 60 -138 60q-111 0 -169 -73q-59 -74 -59 -191v-582h-221v1511h221v-600q45 67 120 101q76 35 165 35q168 0 261 -109z" />
    <glyph glyph-name="i" unicode="i" horiz-adv-x="514" 
d="M154 1285q-41 43 -41 101q0 60 41 104q40 42 104 42q62 0 103 -42q40 -41 40 -104q0 -59 -39 -101q-40 -42 -104 -42t-104 42zM367 1012v-1012h-215v1012h215z" />
    <glyph glyph-name="j" unicode="j" horiz-adv-x="522" 
d="M164 1274q-41 41 -41 106t41 108q41 42 104 42q62 0 103 -41q39 -41 39 -109q0 -66 -39 -106q-39 -41 -103 -41q-63 0 -104 41zM-121 -428v184q59 -10 101 -10q100 0 140 48q40 47 40 143v1075h221v-1088q0 -183 -95 -280q-97 -95 -263 -95q-70 0 -144 23z" />
    <glyph glyph-name="k" unicode="k" horiz-adv-x="1062" 
d="M692 627l334 -627h-252l-233 455l-187 -209v-246h-221v1513h221v-958l400 457h278z" />
    <glyph glyph-name="l" unicode="l" horiz-adv-x="471" 
d="M133 1513h215v-1513h-215v1513z" />
    <glyph glyph-name="m" unicode="m" horiz-adv-x="1646" 
d="M1433 953q93 -94 93 -265v-688h-221v651q0 197 -179 197q-86 0 -136 -59q-50 -61 -50 -160v-629h-223v639q0 109 -47 159t-129 50q-84 0 -135 -60q-52 -61 -52 -161v-627h-221v1014h197l10 -107q38 63 108 102q71 38 158 38q103 0 179 -47q75 -48 108 -130q34 81 110 130
q74 47 173 47q163 0 257 -94z" />
    <glyph glyph-name="n" unicode="n" horiz-adv-x="1116" 
d="M900 938q93 -110 93 -291v-647h-221v608q0 120 -52 179q-53 59 -138 59q-110 0 -169 -72q-59 -73 -59 -188v-586h-221v1012h199l8 -121q44 75 125 116q79 40 174 40q168 0 261 -109z" />
    <glyph glyph-name="o" unicode="o" horiz-adv-x="1232" 
d="M161 789q68 123 188 190q121 68 269 68q151 0 269 -69q120 -70 187 -191q67 -122 67 -281t-67 -281q-68 -123 -188 -191q-120 -69 -270 -69q-151 0 -268 68q-120 69 -187 190q-69 123 -69 283t69 283zM403 261q79 -93 213 -93q131 0 212 93t81 245q0 151 -80 245
q-81 93 -213 93q-134 0 -213 -93q-81 -95 -81 -247q0 -150 81 -243z" />
    <glyph glyph-name="p" unicode="p" horiz-adv-x="1183" 
d="M969 901q116 -148 116 -395q0 -166 -54 -288q-55 -123 -153 -187q-100 -66 -233 -66q-95 0 -173 38q-77 38 -118 106v-533h-221v1436h195l12 -131q44 79 123 122q80 44 184 44q205 0 322 -146zM793 248q63 94 63 260q0 170 -66 260q-68 90 -186 90q-120 0 -184 -90
q-66 -90 -66 -260q0 -176 68 -265t186 -89q121 0 185 94z" />
    <glyph glyph-name="q" unicode="q" horiz-adv-x="1181" 
d="M1055 1012v-1436h-224v533q-41 -69 -116 -106q-78 -38 -174 -38q-207 0 -325 147q-118 145 -118 392q0 253 121 398t328 145q98 0 177 -40q80 -41 120 -108v113h211zM767 245q64 91 64 263q0 176 -66 263q-67 87 -183 87q-124 0 -188 -93q-66 -93 -66 -257
q0 -167 68 -261q68 -93 186 -93q121 0 185 91z" />
    <glyph glyph-name="r" unicode="r" horiz-adv-x="729" 
d="M441 984q65 38 155 38q39 0 92 -10v-213q-53 10 -94 10q-115 0 -178 -66q-64 -67 -64 -188v-555h-219v1012h205l10 -131q28 66 93 103z" />
    <glyph glyph-name="s" unicode="s" horiz-adv-x="958" 
d="M655 719q-5 67 -50 107q-46 40 -126 40q-71 0 -112 -33q-41 -35 -41 -92q0 -45 32 -74q31 -30 101 -46l162 -41q129 -31 193 -109q63 -78 63 -186q0 -145 -107 -232q-107 -88 -287 -88q-175 0 -282 85q-108 85 -119 229l194 30q5 -75 59 -119q54 -45 146 -45q80 0 126 34
t46 93q0 88 -116 121l-162 45q-271 74 -273 291q0 142 104 231q104 87 267 87q158 0 258 -79q101 -80 111 -210z" />
    <glyph glyph-name="t" unicode="t" horiz-adv-x="870" 
d="M498 821v-485q0 -94 42 -134q41 -40 124 -40q53 0 118 14v-174q-98 -29 -188 -29q-152 0 -233 89q-82 88 -82 245v514h-240v191h240v278l219 25v-303h284v-191h-284z" />
    <glyph glyph-name="u" unicode="u" horiz-adv-x="1105" 
d="M971 1012v-1012h-207v129q-33 -77 -115 -120q-83 -44 -184 -44q-159 0 -250 103q-92 103 -92 270v674h219v-619q0 -113 54 -167q52 -54 139 -54q104 0 161 69q56 68 56 187v584h219z" />
    <glyph glyph-name="v" unicode="v" horiz-adv-x="1056" 
d="M268 1012l205 -580q43 -113 55 -172q14 57 33 108q5 13 11 28t9 23.5t5 12.5l211 580h237l-401 -1012h-213l-397 1012h245z" />
    <glyph glyph-name="w" unicode="w" horiz-adv-x="1562" 
d="M272 1012l142 -486q46 -173 53 -213q13 71 57 213l148 486h227l139 -475q31 -109 60 -224q35 143 59 224l146 475h223l-326 -1012h-207l-149 479q-42 126 -64 223q-7 -44 -59 -221l-154 -481h-211l-319 1012h235z" />
    <glyph glyph-name="x" unicode="x" horiz-adv-x="1017" 
d="M367 506l-330 506h258l90 -148l55 -98q27 -44 70 -123l219 369h248l-322 -506l326 -506h-254l-86 135q-79 125 -135 225l-217 -360h-246z" />
    <glyph glyph-name="y" unicode="y" horiz-adv-x="1079" 
d="M1057 1012l-615 -1436h-233l205 479l-391 957h239l262 -697l297 697h236z" />
    <glyph glyph-name="z" unicode="z" horiz-adv-x="921" 
d="M829 205v-205h-739v182l481 625h-477v205h733v-197l-469 -610h471z" />
    <glyph glyph-name="braceleft" unicode="{" horiz-adv-x="714" 
d="M399 694q125 -101 125 -293v-323q0 -116 44 -166q43 -49 147 -49v-176q-194 -6 -294 76q-102 83 -102 292v334q0 127 -64 173t-128 46v174q66 0 129 45t63 174v334q0 209 102 292q101 83 294 77v-176q-111 0 -151 -52t-40 -163v-324q0 -194 -125 -295z" />
    <glyph glyph-name="bar" unicode="|" horiz-adv-x="528" 
d="M156 1528h217v-1800h-217v1800z" />
    <glyph glyph-name="braceright" unicode="}" horiz-adv-x="714" 
d="M461 827q63 -45 127 -45v-174q-62 0 -126 -46q-65 -47 -65 -173v-334q0 -209 -102 -292q-101 -82 -295 -76v176q104 0 147 49t43 166v323q0 192 125 293q-125 101 -125 295v324q0 113 -39 164q-40 51 -151 51v176q192 6 295 -77q102 -83 102 -292v-334q0 -129 64 -174z
" />
    <glyph glyph-name="asciitilde" unicode="~" horiz-adv-x="1040" 
d="M163 693q62 63 152 63q45 0 93 -14q37 -12 112 -44q62 -27 102 -39t78 -12q52 0 78 30q25 29 25 81h129q10 -145 -57 -212t-164 -67q-54 0 -105 16q-56 16 -129 46q-59 25 -93 36q-36 11 -65 11q-47 0 -67 -32q-21 -32 -14 -75h-132q-6 148 57 212z" />
    <glyph glyph-name="exclamdown" unicode="&#xa1;" horiz-adv-x="567" 
d="M411 1089q48 -51 48 -126t-48 -125q-50 -50 -126 -50q-77 0 -127 50q-49 49 -49 125q0 77 49 126q50 50 127 50q76 0 126 -50zM397 -381h-229l31 987h170z" />
    <glyph glyph-name="cent" unicode="&#xa2;" horiz-adv-x="1355" 
d="M926 235q94 67 127 179l186 -66q-44 -170 -190 -273q-149 -104 -351 -104q-44 0 -88 6l-37 -206h-104l41 229q-182 62 -288 230q-107 170 -107 407q0 197 75 347q74 149 208 232q133 82 309 82h36l37 199h109l-39 -213q148 -33 251 -127q102 -93 140 -235l-188 -76
q-26 94 -86 157t-152 89l-168 -922q36 -4 64 -4q121 0 215 69zM386 362q58 -112 161 -161l162 903q-179 -2 -279 -129q-102 -127 -102 -340q0 -163 58 -273z" />
    <glyph glyph-name="sterling" unicode="&#xa3;" horiz-adv-x="1259" 
d="M1102 221v-221h-991v227q116 -6 195 55q79 60 79 181q0 67 -53 205h-205v163h135q-57 151 -57 265q0 204 141 319q140 115 369 115q97 0 186 -21q91 -23 154 -59l-47 -201q-83 43 -144 58q-63 16 -133 16q-135 0 -212 -59q-77 -60 -77 -181q0 -50 17 -107q20 -67 53 -145
h426l-20 -163h-351q37 -115 37 -211q0 -150 -86 -236h584z" />
    <glyph glyph-name="currency" unicode="&#xa4;" horiz-adv-x="1214" 
d="M256 406q-74 107 -74 245q0 143 74 250l-137 160l139 123l137 -158q39 28 93 41q58 14 118 14q133 0 215 -55l137 158l140 -123l-140 -158q74 -104 74 -252q0 -142 -74 -248l140 -157l-140 -121l-137 156q-81 -54 -215 -56q-131 0 -211 56l-139 -156l-139 121zM446 476
q62 -66 160 -66q100 0 164 67q64 65 64 178q0 111 -63 177q-65 65 -165 65q-99 0 -160 -64q-63 -65 -63 -178q0 -115 63 -179z" />
    <glyph glyph-name="yen" unicode="&#xa5;" horiz-adv-x="1374" 
d="M877 834h237v-166h-321v-138h321v-165h-321v-365h-213v365h-320v165h320v138h-320v166h236l-392 665h258l179 -336q23 -41 82 -157q37 -78 65 -125q34 72 150 293l178 325h254z" />
    <glyph glyph-name="brokenbar" unicode="&#xa6;" horiz-adv-x="854" 
d="M156 1528h217v-748h-217v748zM156 473h217v-745h-217v745z" />
    <glyph glyph-name="section" unicode="&#xa7;" horiz-adv-x="929" 
d="M823 270q0 -140 -100 -222q-101 -83 -260 -83t-250 79q-92 80 -98 206l182 43q1 -69 48 -110q46 -40 120 -40q71 0 109 34q38 35 38 91q0 50 -33 78q-36 30 -98 47l-137 35q-250 63 -250 274q0 88 48 152q48 65 130 84q-178 72 -178 250q0 144 99 226q98 83 256 83
q156 0 252 -78t102 -202l-182 -46q0 68 -47 110q-48 42 -121 42q-69 0 -110 -34q-42 -35 -42 -91q0 -50 35 -79q36 -30 100 -46l139 -37q126 -32 187 -106q61 -76 61 -172q0 -83 -46 -145q-46 -64 -128 -89q174 -74 174 -254zM562 644q38 35 38 87q0 59 -43 92t-111 33
q-62 0 -100 -34q-39 -34 -39 -91t45 -89q46 -32 113 -32q60 0 97 34z" />
    <glyph glyph-name="dieresis" unicode="&#xa8;" horiz-adv-x="847" 
d="M123 1385q-37 37 -37 98q0 56 38 94q37 37 97 37q59 0 97 -38t38 -93q0 -60 -37 -98q-37 -39 -98 -39t-98 39zM536 1385q-38 38 -38 98q0 55 38 93t97 38q61 0 98 -37t37 -94q0 -60 -37 -98q-37 -39 -98 -39q-59 0 -97 39z" />
    <glyph glyph-name="copyright" unicode="&#xa9;" horiz-adv-x="1685" 
d="M451 69q-178 104 -278 282q-101 179 -101 399q0 217 101 396q100 178 278 282q176 102 391 102q216 0 391 -102q177 -104 278 -281q101 -179 101 -395q0 -218 -101 -399q-101 -180 -278 -284q-174 -104 -391 -104t-391 104zM1166 184q143 84 224 233q80 149 80 335
q0 183 -80 332q-81 147 -224 231q-144 84 -324 84q-178 0 -322 -84q-145 -84 -226 -231q-81 -148 -81 -334t81 -334t225 -232q143 -84 323 -84t324 84zM660 383q-86 56 -132 152q-47 97 -47 215t47 214q47 95 134 149q86 54 198 54q126 0 218 -68q91 -69 118 -181l-145 -44
q-7 73 -61 119q-54 45 -132 45q-107 0 -165 -82q-60 -82 -60 -206q0 -127 60 -208q59 -81 165 -81q78 0 131 45t62 119l147 -29q-22 -120 -116 -194t-224 -74q-113 0 -198 55z" />
    <glyph glyph-name="ordfeminine" unicode="&#xaa;" horiz-adv-x="673" 
d="M521 1481q63 -61 63 -168v-412h-127v80q-26 -46 -74 -71q-50 -27 -115 -27q-86 0 -142 51t-56 139q0 91 58 143t163 52h104q56 0 58 59q0 51 -33 77q-34 26 -88 26q-58 0 -95 -30t-42 -77l-107 35q13 87 82 136q68 48 168 48q119 0 183 -61zM453 1169h-140
q-106 0 -106 -86q0 -39 26 -62q25 -24 74 -24q68 0 107 40q39 41 39 104v28z" />
    <glyph glyph-name="guillemotleft" unicode="&#xab;" horiz-adv-x="1273" 
d="M356 535l342 -482h-260l-344 482l344 477h260zM850 535l342 -482h-256l-344 482l344 477h256z" />
    <glyph glyph-name="logicalnot" unicode="&#xac;" horiz-adv-x="1206" 
d="M1053 264h-205v297h-709v201h914v-498z" />
    <glyph glyph-name="registered" unicode="&#xae;" horiz-adv-x="1228" 
d="M347 566q-119 64 -183 183q-66 117 -66 267t66 267q65 116 183 182q119 65 269 65q149 0 268 -65q117 -66 183 -183t66 -266q0 -151 -64 -267q-65 -119 -183 -183q-118 -66 -270 -66q-150 0 -269 66zM893 735q104 106 104 281q0 174 -105 281q-106 106 -276 106
q-171 0 -278 -107q-107 -109 -107 -280q0 -176 107 -281q106 -106 280 -106q170 0 275 106zM428 1272h225q73 0 125 -44q51 -44 51 -120q0 -52 -26 -92q-27 -39 -70 -55l103 -193h-134l-86 176h-69v-176h-119v504zM631 1030q39 0 61 19q21 18 21 51q0 72 -82 71h-84v-141h84
z" />
    <glyph glyph-name="macron" unicode="&#xaf;" horiz-adv-x="759" 
d="M680 1591v-164h-602v164h602z" />
    <glyph glyph-name="degree" unicode="&#xb0;" horiz-adv-x="737" 
d="M160 1021q-82 81 -82 214q0 131 82 212t209 81t209 -81q81 -81 81 -212q0 -133 -81 -214q-82 -81 -209 -81t-209 81zM471 1132q39 39 39 103q0 63 -40 102t-101 39q-59 0 -98 -40q-40 -40 -40 -101q0 -63 39 -103t101 -40q61 0 100 40z" />
    <glyph glyph-name="plusminus" unicode="&#xb1;" horiz-adv-x="1267" 
d="M1120 786v-170h-409v-311h-174v311h-406v170h406v312h174v-312h409zM131 170h989v-170h-989v170z" />
    <glyph glyph-name="uni00B2" unicode="&#xb2;" horiz-adv-x="886" 
d="M805 715v-178l-674 -5v158l377 408q52 57 71 100q19 44 19 90q0 78 -42 121t-116 43q-78 0 -123 -50t-45 -128q0 -19 2 -35l-178 23q-2 18 -2 45q0 91 42 164q41 72 121 116q79 43 187 43q163 0 257 -91t94 -245q0 -101 -37 -172q-39 -76 -107 -147l-235 -260h389z" />
    <glyph glyph-name="uni00B3" unicode="&#xb3;" horiz-adv-x="870" 
d="M727 1108q74 -91 74 -225q0 -106 -48 -190q-48 -85 -135 -132q-89 -47 -200 -47q-154 0 -254 84q-102 85 -115 225l195 43q5 -79 54 -122q50 -44 124 -44q82 0 131 52q49 50 49 135t-51 131q-52 47 -133 47q-54 0 -92 -18l-60 153l217 223l-395 2v181h662v-166l-222 -228
q125 -14 199 -104z" />
    <glyph glyph-name="acute" unicode="&#xb4;" horiz-adv-x="428" 
d="M238 1638h219l-191 -288h-160z" />
    <glyph glyph-name="paragraph" unicode="&#xb6;" horiz-adv-x="1386" 
d="M1108 -217h-178v1595h-283v-1595h-178v969q-176 0 -284 110q-109 109 -109 289q0 176 109 285q108 108 284 108h791v-166h-152v-1595z" />
    <glyph glyph-name="periodcentered" unicode="&#xb7;" horiz-adv-x="561" 
d="M142 367q-58 57 -58 141q0 83 58 138q58 56 141 56q79 0 137 -56q57 -56 57 -138q0 -84 -57 -141q-58 -58 -137 -58q-84 0 -141 58z" />
    <glyph glyph-name="cedilla" unicode="&#xb8;" horiz-adv-x="591" 
d="M338 -14l-31 -86q83 4 136 -35q51 -39 51 -113t-54 -119q-56 -45 -141 -45q-101 0 -154 46q-55 46 -55 118h129q2 -24 21 -37q19 -14 45 -14q25 0 42 15q17 17 17 42q0 28 -19 41q-19 15 -53 15q-25 0 -34 -4l-58 28l64 174z" />
    <glyph glyph-name="uni00B9" unicode="&#xb9;" horiz-adv-x="634" 
d="M76 1423q117 0 178 49q61 48 70 134h184v-1074h-184v760h-248v131z" />
    <glyph glyph-name="ordmasculine" unicode="&#xba;" horiz-adv-x="694" 
d="M145 1456q73 88 201 88q129 0 204 -89t75 -241q0 -153 -76 -239q-76 -88 -203 -88q-128 0 -201 88q-75 89 -75 239q0 154 75 242zM244 1063q37 -55 102 -55q67 0 104 55t37 151q0 98 -37 153q-38 54 -104 54t-102 -54q-37 -53 -37 -150q0 -99 37 -154z" />
    <glyph glyph-name="guillemotright" unicode="&#xbb;" horiz-adv-x="1273" 
d="M686 535l-342 -482h-262l344 482l-344 477h262zM1180 535l-342 -482h-258l344 482l-344 477h258z" />
    <glyph glyph-name="onequarter" unicode="&#xbc;" horiz-adv-x="1845" 
d="M1012 346l344 647h215l-357 -647h267v326h176v-326h141v-170h-141v-176h-176v176l-469 4v166zM487 -106h-153l915 1742h152zM471 1530v-993h-174v698h-231v123q110 0 165 46q57 46 66 126h174z" />
    <glyph glyph-name="onehalf" unicode="&#xbd;" horiz-adv-x="1873" 
d="M1821 174v-172l-625 -2v150l346 374q43 49 64 92q18 41 18 82q0 70 -39 109t-106 39q-69 0 -110 -45q-40 -44 -40 -119q0 -17 2 -31l-170 23q-2 18 -2 39q0 129 87 216t237 87q151 0 239 -86q88 -85 88 -230q0 -92 -33 -158q-35 -69 -98 -136l-211 -232h353zM494 -106
h-154l915 1742h152zM504 1530v-993h-174v698h-232v123q110 0 166 46q57 46 66 126h174z" />
    <glyph glyph-name="threequarters" unicode="&#xbe;" horiz-adv-x="2054" 
d="M1180 346l344 647h215l-357 -647h267v326h176v-326h141v-170h-141v-176h-176v176l-469 4v166zM659 -106h-153l915 1742h152zM668 1068q68 -84 67 -206q0 -154 -99 -249q-100 -95 -259 -95q-144 0 -236 79q-92 80 -104 212l186 37q1 -70 47 -111t113 -41q75 0 118 46
q44 47 44 124q0 75 -46 118q-47 44 -120 44q-42 0 -86 -16l-57 143l200 203l-364 2v172h614v-156l-199 -207q114 -17 181 -99z" />
    <glyph glyph-name="questiondown" unicode="&#xbf;" horiz-adv-x="1099" 
d="M690 1102q49 -50 49 -127q0 -74 -49 -122q-50 -48 -127 -48q-78 0 -126 48t-48 122q0 79 48 128q48 50 126 50q77 0 127 -51zM684 633q0 -81 -24 -142q-27 -66 -65 -113q-48 -59 -112 -128l-28 -31q-55 -61 -79 -108q-26 -50 -26 -107q0 -92 54 -145q52 -52 143 -52
q97 0 152 58t55 153q0 42 -9 76l207 -24q6 -37 6 -74q0 -106 -50 -198q-49 -90 -146 -145q-96 -54 -225 -54q-121 0 -215 48q-95 48 -146 135t-51 200q0 96 39 175q38 77 123 173l55 57q70 73 98 118q29 49 29 124v28h215v-24z" />
    <glyph glyph-name="Agrave" unicode="&#xc0;" horiz-adv-x="1404" 
d="M616 1622l-198 289h231l139 -289h-172zM1004 305h-607l-106 -305h-264l551 1497h249l549 -1497h-266zM932 514l-144 410q-74 219 -86 276q-8 -33 -90 -276l-143 -410h463z" />
    <glyph glyph-name="Aacute" unicode="&#xc1;" horiz-adv-x="1404" 
d="M754 1886h219l-191 -289h-159zM1004 305h-607l-106 -305h-264l551 1497h249l549 -1497h-266zM932 514l-144 410q-74 219 -86 276q-8 -33 -90 -276l-143 -410h463z" />
    <glyph glyph-name="Acircumflex" unicode="&#xc2;" horiz-adv-x="1404" 
d="M788 1597l-88 164l-88 -164h-192l192 295h176l193 -295h-193zM1004 305h-607l-106 -305h-264l551 1497h249l549 -1497h-266zM932 514l-144 410q-74 219 -86 276q-8 -33 -90 -276l-143 -410h463z" />
    <glyph glyph-name="Atilde" unicode="&#xc3;" horiz-adv-x="1404" 
d="M631 1878q27 -10 82 -41q24 -13 56 -28q24 -11 44 -11q59 0 59 62q0 16 -2 26h138q6 -33 6 -61q0 -90 -48 -141q-48 -52 -124 -52q-44 0 -78 15q-36 14 -80 39q-29 15 -50 24q-24 10 -44 10q-53 0 -53 -57q0 -8 4 -31h-138q-8 37 -8 74q0 85 46 134q47 50 120 50
q39 0 70 -12zM1004 305h-607l-106 -305h-264l551 1497h249l549 -1497h-266zM932 514l-144 410q-74 219 -86 276q-8 -33 -90 -276l-143 -410h463z" />
    <glyph glyph-name="Adieresis" unicode="&#xc4;" horiz-adv-x="1404" 
d="M397 1651q-37 38 -37 98q0 56 38 94q37 37 98 37q59 0 97 -38t38 -93q0 -58 -38 -98q-37 -39 -97 -39q-62 0 -99 39zM810 1651q-38 40 -38 98q0 55 38 93t97 38q61 0 98 -37t37 -94q0 -59 -36 -98q-38 -39 -99 -39q-59 0 -97 39zM1004 305h-607l-106 -305h-264l551 1497
h249l549 -1497h-266zM932 514l-144 410q-74 219 -86 276q-8 -33 -90 -276l-143 -410h463z" />
    <glyph glyph-name="Aring" unicode="&#xc5;" horiz-adv-x="1404" 
d="M1004 305h-607l-106 -305h-264l551 1497h10q-63 29 -102 87q-40 58 -40 138q0 113 76 180q76 66 183 66t180 -66q73 -67 73 -180q0 -80 -36 -138q-38 -59 -101 -87h6l549 -1497h-266zM625 1804q-33 -32 -33 -84q0 -50 33 -81q31 -33 80 -33q47 0 79 32q31 31 31 82
q0 52 -31 83q-32 32 -79 32q-49 0 -80 -31zM932 514l-144 410q-74 219 -86 276q-8 -33 -90 -276l-143 -410h463z" />
    <glyph glyph-name="AE" unicode="&#xc6;" horiz-adv-x="1804" 
d="M1135 1239v-395h530v-215h-530v-414h591v-215h-817v293h-460l-152 -293h-272l776 1454h925v-215h-591zM909 500v678l-352 -678h352z" />
    <glyph glyph-name="Ccedilla" unicode="&#xc7;" horiz-adv-x="1540" 
d="M1072 283q116 86 155 233l225 -82q-51 -202 -221 -330q-169 -127 -406 -135l-20 -55q83 4 135 -35q51 -39 51 -112q0 -74 -54 -119t-140 -45q-101 0 -154 46q-55 46 -55 118h129q2 -23 21 -38q19 -14 44 -14t43 15q17 17 17 43q0 28 -19 41q-20 14 -53 14q-24 0 -35 -4
l-57 29l43 120q-189 17 -331 118q-143 101 -223 272q-79 168 -79 385q0 231 90 408q91 178 253 275q163 97 372 97q159 0 292 -57q134 -59 227 -162q92 -104 130 -244l-225 -82q-39 147 -154 232t-270 85q-138 0 -245 -68q-106 -69 -165 -194q-59 -126 -59 -288
q0 -163 59 -290t165 -194q107 -69 245 -69q153 0 269 86z" />
    <glyph glyph-name="Egrave" unicode="&#xc8;" horiz-adv-x="1069" 
d="M487 1622l-198 289h231l139 -289h-172zM152 1497h839v-217h-612v-420h551v-205h-551v-438h612v-217h-839v1497z" />
    <glyph glyph-name="Eacute" unicode="&#xc9;" horiz-adv-x="1069" 
d="M625 1886h219l-191 -289h-159zM152 1497h839v-217h-612v-420h551v-205h-551v-438h612v-217h-839v1497z" />
    <glyph glyph-name="Ecircumflex" unicode="&#xca;" horiz-adv-x="1069" 
d="M659 1597l-88 164l-88 -164h-192l192 295h176l193 -295h-193zM152 1497h839v-217h-612v-420h551v-205h-551v-438h612v-217h-839v1497z" />
    <glyph glyph-name="Edieresis" unicode="&#xcb;" horiz-adv-x="1069" 
d="M268 1651q-37 38 -37 98q0 56 38 94q37 37 98 37q59 0 97 -38t38 -93q0 -58 -38 -98q-38 -39 -97 -39q-61 0 -99 39zM681 1651q-38 40 -38 98q0 55 38 93t97 38q61 0 98 -37t37 -94q0 -59 -36 -98q-37 -39 -99 -39q-60 0 -97 39zM152 1497h839v-217h-612v-420h551v-205
h-551v-438h612v-217h-839v1497z" />
    <glyph glyph-name="Igrave" unicode="&#xcc;" horiz-adv-x="526" 
d="M178 1622l-198 289h231l139 -289h-172zM152 0v1497h223v-1497h-223z" />
    <glyph glyph-name="Iacute" unicode="&#xcd;" horiz-adv-x="526" 
d="M315 1886h220l-191 -289h-160zM152 0v1497h223v-1497h-223z" />
    <glyph glyph-name="Icircumflex" unicode="&#xce;" horiz-adv-x="526" 
d="M350 1597l-88 164l-88 -164h-192l192 295h176l193 -295h-193zM152 0v1497h223v-1497h-223z" />
    <glyph glyph-name="Idieresis" unicode="&#xcf;" horiz-adv-x="526" 
d="M-41 1651q-37 38 -37 98q0 56 38 94q37 37 97 37q58 0 98 -38q38 -38 38 -93q0 -58 -38 -98q-37 -39 -98 -39t-98 39zM372 1651q-38 40 -38 98q0 55 38 93t97 38q61 0 98 -37t37 -94q0 -60 -37 -98q-37 -39 -98 -39q-59 0 -97 39zM152 0v1497h223v-1497h-223z" />
    <glyph glyph-name="Eth" unicode="&#xd0;" horiz-adv-x="1386" 
d="M990 1404q159 -93 243 -262q84 -170 84 -392q0 -230 -86 -400t-245 -260t-374 -90h-460v668h-142v192h142v637h460q219 0 378 -93zM949 363q128 146 128 387q0 160 -59 283q-60 121 -168 185q-109 64 -252 64h-217v-422h291v-192h-291v-451h217q223 0 351 146z" />
    <glyph glyph-name="Ntilde" unicode="&#xd1;" horiz-adv-x="1433" 
d="M645 1878q27 -10 82 -41q24 -13 56 -28q24 -11 44 -11q58 0 60 62q0 16 -2 26h137q6 -33 6 -61q0 -90 -48 -141q-48 -52 -124 -52q-44 0 -78 15q-36 14 -80 39q-29 15 -50 24q-24 10 -44 10q-53 0 -53 -57q0 -8 4 -31h-137q-8 37 -8 74q0 85 46 134q47 50 119 50
q39 0 70 -12zM152 1497h227l676 -1104v1104h227v-1497h-225l-678 1102v-1102h-227v1497z" />
    <glyph glyph-name="Ograve" unicode="&#xd2;" horiz-adv-x="1662" 
d="M745 1622l-198 289h231l140 -289h-173zM445 69q-168 100 -263 279q-94 178 -94 402q0 221 94 399t264 280q170 101 388 101q216 0 386 -101q168 -101 263 -280q94 -178 94 -399q0 -223 -94 -401q-95 -180 -264 -280q-169 -102 -388 -102q-217 0 -386 102zM1090 268
q112 70 175 196q62 127 62 286t-62 286q-64 126 -176 196q-115 71 -258 71q-144 0 -257 -71t-176 -197q-64 -125 -64 -285q0 -161 64 -286q62 -125 176 -196q113 -71 257 -71q146 0 259 71z" />
    <glyph glyph-name="Oacute" unicode="&#xd3;" horiz-adv-x="1662" 
d="M883 1886h219l-191 -289h-159zM445 69q-168 100 -263 279q-94 178 -94 402q0 221 94 399t264 280q170 101 388 101q216 0 386 -101q168 -101 263 -280q94 -178 94 -399q0 -223 -94 -401q-95 -180 -264 -280q-169 -102 -388 -102q-217 0 -386 102zM1090 268
q112 70 175 196q62 127 62 286t-62 286q-64 126 -176 196q-115 71 -258 71q-144 0 -257 -71t-176 -197q-64 -125 -64 -285q0 -161 64 -286q62 -125 176 -196q113 -71 257 -71q146 0 259 71z" />
    <glyph glyph-name="Ocircumflex" unicode="&#xd4;" horiz-adv-x="1662" 
d="M918 1597l-89 164l-88 -164h-192l192 295h177l192 -295h-192zM445 69q-168 100 -263 279q-94 178 -94 402q0 221 94 399t264 280q170 101 388 101q216 0 386 -101q168 -101 263 -280q94 -178 94 -399q0 -223 -94 -401q-95 -180 -264 -280q-169 -102 -388 -102
q-217 0 -386 102zM1090 268q112 70 175 196q62 127 62 286t-62 286q-64 126 -176 196q-115 71 -258 71q-144 0 -257 -71t-176 -197q-64 -125 -64 -285q0 -161 64 -286q62 -125 176 -196q113 -71 257 -71q146 0 259 71z" />
    <glyph glyph-name="Otilde" unicode="&#xd5;" horiz-adv-x="1662" 
d="M760 1878q27 -10 82 -41q24 -13 56 -28q24 -11 44 -11q59 0 59 62q0 16 -2 26h138q6 -33 6 -61q0 -90 -48 -141q-48 -52 -124 -52q-43 0 -78 15q-36 14 -80 39q-29 15 -50 24q-24 10 -44 10q-53 0 -53 -57q0 -8 4 -31h-138q-8 37 -8 74q0 85 46 134q47 50 120 50
q38 0 70 -12zM445 69q-168 100 -263 279q-94 178 -94 402q0 221 94 399t264 280q170 101 388 101q216 0 386 -101q168 -101 263 -280q94 -178 94 -399q0 -223 -94 -401q-95 -180 -264 -280q-169 -102 -388 -102q-217 0 -386 102zM1090 268q112 70 175 196q62 127 62 286
t-62 286q-64 126 -176 196q-115 71 -258 71q-144 0 -257 -71t-176 -197q-64 -125 -64 -285q0 -161 64 -286q62 -125 176 -196q113 -71 257 -71q146 0 259 71z" />
    <glyph glyph-name="Odieresis" unicode="&#xd6;" horiz-adv-x="1662" 
d="M526 1651q-37 38 -37 98q0 56 38 94q37 37 98 37q59 0 97 -38t38 -93q0 -58 -38 -98q-38 -39 -97 -39q-61 0 -99 39zM939 1651q-38 40 -38 98q0 55 38 93t97 38q61 0 98 -37t37 -94q0 -59 -36 -98q-37 -39 -99 -39q-60 0 -97 39zM445 69q-168 100 -263 279
q-94 178 -94 402q0 221 94 399t264 280q170 101 388 101q216 0 386 -101q168 -101 263 -280q94 -178 94 -399q0 -223 -94 -401q-95 -180 -264 -280q-169 -102 -388 -102q-217 0 -386 102zM1090 268q112 70 175 196q62 127 62 286t-62 286q-64 126 -176 196q-115 71 -258 71
q-144 0 -257 -71t-176 -197q-64 -125 -64 -285q0 -161 64 -286q62 -125 176 -196q113 -71 257 -71q146 0 259 71z" />
    <glyph glyph-name="multiply" unicode="&#xd7;" horiz-adv-x="1255" 
d="M743 594l289 -289l-127 -123l-287 287l-296 -295l-123 125l295 295l-287 287l125 123l286 -285l293 293l127 -123z" />
    <glyph glyph-name="Oslash" unicode="&#xd8;" horiz-adv-x="1662" 
d="M1519 1073q58 -147 58 -323q0 -223 -94 -401q-95 -180 -264 -280q-169 -102 -388 -102q-201 0 -364 90l-53 -75h-234l133 190q-107 101 -167 253q-58 147 -58 325q0 221 94 399t264 280q170 101 388 101q200 0 364 -90l51 73h234l-131 -188q109 -104 167 -252zM365 542
q30 -97 90 -167l608 872q-105 54 -232 56q-144 0 -257 -71t-176 -197q-64 -125 -64 -285q0 -115 31 -208zM1090 268q112 70 175 196q62 127 62 286q0 110 -30 204q-31 94 -87 168l-608 -870q101 -55 229 -55q146 0 259 71z" />
    <glyph glyph-name="Ugrave" unicode="&#xd9;" horiz-adv-x="1386" 
d="M610 1622l-198 289h231l139 -289h-172zM135 1497h230v-932q0 -178 90 -277q90 -100 239 -100q152 0 241 102q89 101 89 275v932h227v-952q0 -172 -67 -302t-194 -201t-296 -71t-296 71t-194 201q-69 131 -69 302v952z" />
    <glyph glyph-name="Uacute" unicode="&#xda;" horiz-adv-x="1386" 
d="M748 1886h219l-191 -289h-160zM135 1497h230v-932q0 -178 90 -277q90 -100 239 -100q152 0 241 102q89 101 89 275v932h227v-952q0 -172 -67 -302t-194 -201t-296 -71t-296 71t-194 201q-69 131 -69 302v952z" />
    <glyph glyph-name="Ucircumflex" unicode="&#xdb;" horiz-adv-x="1386" 
d="M782 1597l-88 164l-88 -164h-192l192 295h176l193 -295h-193zM135 1497h230v-932q0 -178 90 -277q90 -100 239 -100q152 0 241 102q89 101 89 275v932h227v-952q0 -172 -67 -302t-194 -201t-296 -71t-296 71t-194 201q-69 131 -69 302v952z" />
    <glyph glyph-name="Udieresis" unicode="&#xdc;" horiz-adv-x="1386" 
d="M391 1651q-37 38 -37 98q0 56 38 94q37 37 97 37q58 0 98 -38q38 -38 38 -93q0 -58 -38 -98q-37 -39 -98 -39t-98 39zM804 1651q-38 40 -38 98q0 55 38 93t97 38q61 0 98 -37t37 -94q0 -59 -36 -98q-38 -39 -99 -39q-59 0 -97 39zM135 1497h230v-932q0 -178 90 -277
q90 -100 239 -100q152 0 241 102q89 101 89 275v932h227v-952q0 -172 -67 -302t-194 -201t-296 -71t-296 71t-194 201q-69 131 -69 302v952z" />
    <glyph glyph-name="Yacute" unicode="&#xdd;" horiz-adv-x="1347" 
d="M725 1874h219l-190 -289h-160zM289 1497l383 -668l389 668h260l-537 -905v-592h-223v592l-534 905h262z" />
    <glyph glyph-name="Thorn" unicode="&#xde;" horiz-adv-x="1314" 
d="M993 1185q113 -62 173 -170q61 -109 61 -251t-60 -255q-61 -112 -173 -173q-113 -62 -263 -62h-352v-274h-227v1528h227v-283h354q147 0 260 -60zM920 562q73 76 73 198q0 125 -73 197q-74 71 -209 71h-332v-543h332q135 0 209 77z" />
    <glyph glyph-name="germandbls" unicode="&#xdf;" horiz-adv-x="1218" 
d="M1038 645q82 -107 82 -262q0 -125 -55 -219t-151 -145q-97 -52 -218 -52q-93 0 -162 25q-71 27 -114 67l96 142q55 -49 156 -49q102 0 166 70q63 69 63 181q0 123 -80 195q-79 72 -213 72h-94v168q108 0 182 65q72 65 72 168q0 91 -56 149q-58 56 -151 56
q-102 0 -156 -63q-55 -64 -55 -175v-1038h-217v999q0 159 61 262q60 103 158 150q99 47 209 47q124 0 221 -47q94 -46 147 -130q52 -82 52 -191q0 -110 -46 -181q-47 -74 -112 -114q132 -43 215 -150z" />
    <glyph glyph-name="agrave" unicode="&#xe0;" horiz-adv-x="1069" 
d="M451 1143l-199 289h231l140 -289h-172zM849 948q105 -101 105 -280v-668h-194l-12 129q-44 -77 -127 -120q-85 -44 -193 -44q-154 0 -248 85t-94 231q0 147 101 233t266 86h172q58 0 86 26q26 26 26 79q0 78 -51 119q-50 40 -143 40q-100 0 -163 -48t-73 -130l-188 51
q26 151 142 230q116 80 290 80q191 0 298 -99zM737 444h-237q-97 0 -146 -38q-49 -39 -49 -109q0 -72 51 -112q49 -40 138 -40q114 0 178 69q65 70 65 181v49z" />
    <glyph glyph-name="aacute" unicode="&#xe1;" horiz-adv-x="1069" 
d="M588 1407h219l-191 -289h-159zM849 948q105 -101 105 -280v-668h-194l-12 129q-44 -77 -127 -120q-85 -44 -193 -44q-154 0 -248 85t-94 231q0 147 101 233t266 86h172q58 0 86 26q26 26 26 79q0 78 -51 119q-50 40 -143 40q-100 0 -163 -48t-73 -130l-188 51
q26 151 142 230q116 80 290 80q191 0 298 -99zM737 444h-237q-97 0 -146 -38q-49 -39 -49 -109q0 -72 51 -112q49 -40 138 -40q114 0 178 69q65 70 65 181v49z" />
    <glyph glyph-name="acircumflex" unicode="&#xe2;" horiz-adv-x="1069" 
d="M623 1118l-88 164l-89 -164h-192l192 295h177l192 -295h-192zM849 948q105 -101 105 -280v-668h-194l-12 129q-44 -77 -127 -120q-85 -44 -193 -44q-154 0 -248 85t-94 231q0 147 101 233t266 86h172q58 0 86 26q26 26 26 79q0 78 -51 119q-50 40 -143 40
q-100 0 -163 -48t-73 -130l-188 51q26 151 142 230q116 80 290 80q191 0 298 -99zM737 444h-237q-97 0 -146 -38q-49 -39 -49 -109q0 -72 51 -112q49 -40 138 -40q114 0 178 69q65 70 65 181v49z" />
    <glyph glyph-name="atilde" unicode="&#xe3;" horiz-adv-x="1069" 
d="M465 1399q37 -16 82 -41q24 -13 56 -28q24 -11 44 -11q59 0 60 61q0 15 -2 27h137q6 -33 6 -61q0 -90 -48 -141q-48 -52 -124 -52q-44 0 -78 15q-33 13 -80 38q-37 20 -50 25q-24 10 -44 10q-53 0 -53 -57q0 -8 4 -31h-137q-7 34 -9 74q0 84 47 134t119 50q39 0 70 -12z
M849 948q105 -101 105 -280v-668h-194l-12 129q-44 -77 -127 -120q-85 -44 -193 -44q-154 0 -248 85t-94 231q0 147 101 233t266 86h172q58 0 86 26q26 26 26 79q0 78 -51 119q-50 40 -143 40q-100 0 -163 -48t-73 -130l-188 51q26 151 142 230q116 80 290 80q191 0 298 -99
zM737 444h-237q-97 0 -146 -38q-49 -39 -49 -109q0 -72 51 -112q49 -40 138 -40q114 0 178 69q65 70 65 181v49z" />
    <glyph glyph-name="adieresis" unicode="&#xe4;" horiz-adv-x="1069" 
d="M232 1172q-37 37 -37 98q0 56 38 94q37 37 97 37q59 0 97 -38t38 -93q0 -58 -38 -98q-37 -39 -97 -39q-62 0 -98 39zM644 1172q-38 38 -38 98q0 55 38 93t97 38q62 0 99 -37t37 -94q0 -60 -37 -98q-38 -39 -99 -39q-59 0 -97 39zM849 948q105 -101 105 -280v-668h-194
l-12 129q-44 -77 -127 -120q-85 -44 -193 -44q-154 0 -248 85t-94 231q0 147 101 233t266 86h172q58 0 86 26q26 26 26 79q0 78 -51 119q-50 40 -143 40q-100 0 -163 -48t-73 -130l-188 51q26 151 142 230q116 80 290 80q191 0 298 -99zM737 444h-237q-97 0 -146 -38
q-49 -39 -49 -109q0 -72 51 -112q49 -40 138 -40q114 0 178 69q65 70 65 181v49z" />
    <glyph glyph-name="aring" unicode="&#xe5;" horiz-adv-x="1071" 
d="M899 887q55 -88 55 -219v-668h-194l-12 129q-44 -77 -127 -120q-85 -44 -193 -44q-154 0 -248 85t-94 231q0 147 101 233t266 86h172q58 0 86 26q26 26 26 79q0 78 -51 119q-50 40 -143 40q-100 0 -163 -48t-73 -130l-188 51q18 103 81 173q62 71 160 106q-68 73 -67 174
q0 113 76 180q75 66 182 66t180 -66q74 -68 74 -180q0 -110 -66 -174q104 -40 160 -129zM471 1271q-33 -31 -33 -83q0 -49 33 -82t80 -33t79 32t32 83t-32 83t-79 32q-46 0 -80 -32zM737 444h-237q-97 0 -146 -38q-49 -39 -49 -109q0 -72 51 -112q49 -40 138 -40
q114 0 178 69q65 70 65 181v49z" />
    <glyph glyph-name="ae" unicode="&#xe6;" horiz-adv-x="1697" 
d="M1606 432h-672q1 -128 69 -202q66 -74 179 -74q88 0 155 45q66 45 93 125l172 -66q-40 -133 -155 -210t-269 -77q-132 0 -228 53q-99 53 -157 150q-45 -98 -141 -150q-96 -53 -218 -53q-151 0 -249 80q-97 79 -97 230q0 130 92 216q91 85 256 85h168q46 0 69 23
q21 23 21 71q0 78 -51 118q-50 40 -137 40q-92 0 -150 -45q-60 -47 -67 -121l-170 53q26 141 131 217q106 76 266 76q225 0 326 -137q122 137 329 137q203 0 319 -128t116 -335v-121zM1000 768q-61 -66 -66 -170h448q0 107 -58 171q-59 65 -161 65q-101 0 -163 -66zM694 424
h-217q-85 0 -128 -35q-42 -35 -42 -98t41 -99q40 -36 121 -36q104 0 165 58q60 58 60 157v53z" />
    <glyph glyph-name="ccedilla" unicode="&#xe7;" horiz-adv-x="1167" 
d="M912 56q-123 -84 -285 -89l-13 -37q83 4 136 -35q51 -37 51 -112q0 -74 -54 -119q-55 -45 -141 -45q-101 0 -154 46q-55 46 -55 118h129q2 -24 21 -37q19 -14 45 -14t42 15q17 15 17 42q0 28 -19 41q-20 14 -52 14q-24 0 -35 -4l-58 29l39 104q-128 18 -223 91
q-96 74 -150 187q-55 113 -55 255q0 159 67 281q67 123 184 191q119 69 267 69q171 0 296 -86q125 -87 165 -226l-190 -82q-25 85 -99 138q-75 51 -174 51q-132 0 -211 -91q-81 -91 -81 -245q0 -152 79 -243q78 -91 211 -91q97 0 173 50q75 49 102 136l194 -77
q-45 -140 -169 -225z" />
    <glyph glyph-name="egrave" unicode="&#xe8;" horiz-adv-x="1169" 
d="M504 1143l-199 289h232l139 -289h-172zM782 203q80 50 107 129l180 -72q-44 -134 -173 -214q-130 -81 -298 -81q-148 0 -261 67q-115 66 -176 189q-63 123 -63 285t63 284q61 121 175 189q113 68 260 68q140 0 250 -60q108 -61 168 -171q59 -112 59 -255q0 -64 -14 -125
h-744q1 -128 80 -205t205 -77q103 0 182 49zM402 790q-78 -70 -87 -184h533q-1 113 -70 185q-69 69 -184 69q-116 0 -192 -70z" />
    <glyph glyph-name="eacute" unicode="&#xe9;" horiz-adv-x="1169" 
d="M641 1407h219l-190 -289h-160zM782 203q80 50 107 129l180 -72q-44 -134 -173 -214q-130 -81 -298 -81q-148 0 -261 67q-115 66 -176 189q-63 123 -63 285t63 284q61 121 175 189q113 68 260 68q140 0 250 -60q108 -61 168 -171q59 -112 59 -255q0 -64 -14 -125h-744
q1 -128 80 -205t205 -77q103 0 182 49zM402 790q-78 -70 -87 -184h533q-1 113 -70 185q-69 69 -184 69q-116 0 -192 -70z" />
    <glyph glyph-name="ecircumflex" unicode="&#xea;" horiz-adv-x="1169" 
d="M676 1118l-88 164l-88 -164h-193l193 295h176l192 -295h-192zM782 203q80 50 107 129l180 -72q-44 -134 -173 -214q-130 -81 -298 -81q-148 0 -261 67q-115 66 -176 189q-63 123 -63 285t63 284q61 121 175 189q113 68 260 68q140 0 250 -60q108 -61 168 -171
q59 -112 59 -255q0 -64 -14 -125h-744q1 -128 80 -205t205 -77q103 0 182 49zM402 790q-78 -70 -87 -184h533q-1 113 -70 185q-69 69 -184 69q-116 0 -192 -70z" />
    <glyph glyph-name="edieresis" unicode="&#xeb;" horiz-adv-x="1169" 
d="M285 1172q-37 37 -37 98q0 56 38 94q37 37 97 37q59 0 97 -38t38 -93q0 -58 -38 -98q-37 -39 -97 -39q-61 0 -98 39zM697 1172q-38 38 -38 98q0 55 38 93t98 38q61 0 98 -37t37 -94q0 -60 -37 -98q-37 -39 -98 -39t-98 39zM782 203q80 50 107 129l180 -72
q-44 -134 -173 -214q-130 -81 -298 -81q-148 0 -261 67q-115 66 -176 189q-63 123 -63 285t63 284q61 121 175 189q113 68 260 68q140 0 250 -60q108 -61 168 -171q59 -112 59 -255q0 -64 -14 -125h-744q1 -128 80 -205t205 -77q103 0 182 49zM402 790q-78 -70 -87 -184h533
q-1 113 -70 185q-69 69 -184 69q-116 0 -192 -70z" />
    <glyph glyph-name="igrave" unicode="&#xec;" horiz-adv-x="485" 
d="M158 1128l-199 289h231l140 -289h-172zM350 1012v-1012h-215v1012h215z" />
    <glyph glyph-name="iacute" unicode="&#xed;" horiz-adv-x="485" 
d="M295 1393h219l-190 -289h-160zM350 1012v-1012h-215v1012h215z" />
    <glyph glyph-name="icircumflex" unicode="&#xee;" horiz-adv-x="485" 
d="M330 1104l-88 164l-88 -164h-193l193 295h176l192 -295h-192zM350 1012v-1012h-215v1012h215z" />
    <glyph glyph-name="idieresis" unicode="&#xef;" horiz-adv-x="485" 
d="M-62 1157q-36 39 -36 98q0 57 36 94q37 37 99 37q60 0 97 -37q38 -38 38 -94q0 -58 -38 -98q-37 -39 -97 -39q-61 0 -99 39zM351 1157q-38 40 -38 98q0 55 38 93t98 38q61 0 98 -36q37 -37 37 -95q0 -60 -37 -98q-37 -39 -98 -39t-98 39zM350 1012v-1012h-215v1012h215z
" />
    <glyph glyph-name="eth" unicode="&#xf0;" horiz-adv-x="1142" 
d="M983 750q39 -105 39 -244q0 -248 -121 -390q-122 -143 -330 -143q-209 0 -329 143q-121 142 -121 388q0 160 51 280q52 120 148 184q95 64 223 64q29 0 51 -2q29 -17 47 -45l-135 213l-299 -123v154l221 90l-123 192h230l73 -116l234 96v-154l-158 -65l162 -258
q99 -163 137 -264zM739 258q60 90 60 248q0 162 -60 250q-61 88 -168 88q-106 0 -166 -89q-61 -88 -61 -247q0 -163 61 -251q60 -89 166 -89q107 0 168 90z" />
    <glyph glyph-name="ntilde" unicode="&#xf1;" horiz-adv-x="1116" 
d="M500 1405q25 -10 82 -41q30 -16 55 -28q24 -11 45 -11q59 0 59 61q0 15 -2 27h138q6 -33 6 -61q0 -90 -48 -141q-49 -52 -124 -52q-43 0 -78 15q-33 13 -80 38q-37 20 -50 25q-24 10 -44 10q-53 0 -53 -57q0 -8 4 -31h-138q-8 37 -8 74q0 85 46 134q47 50 120 50
q38 0 70 -12zM900 938q93 -110 93 -291v-647h-221v608q0 120 -52 179q-53 59 -138 59q-110 0 -169 -72q-59 -73 -59 -188v-586h-221v1012h199l8 -121q44 75 125 116q79 40 174 40q168 0 261 -109z" />
    <glyph glyph-name="ograve" unicode="&#xf2;" horiz-adv-x="1232" 
d="M516 1143l-199 289h232l139 -289h-172zM161 789q68 123 188 190q121 68 269 68q151 0 269 -69q120 -70 187 -191q67 -122 67 -281t-67 -281q-68 -123 -188 -191q-120 -69 -270 -69q-151 0 -268 68q-120 69 -187 190q-69 123 -69 283t69 283zM403 261q79 -93 213 -93
q131 0 212 93t81 245q0 151 -80 245q-81 93 -213 93q-134 0 -213 -93q-81 -95 -81 -247q0 -150 81 -243z" />
    <glyph glyph-name="oacute" unicode="&#xf3;" horiz-adv-x="1232" 
d="M653 1407h219l-190 -289h-160zM161 789q68 123 188 190q121 68 269 68q151 0 269 -69q120 -70 187 -191q67 -122 67 -281t-67 -281q-68 -123 -188 -191q-120 -69 -270 -69q-151 0 -268 68q-120 69 -187 190q-69 123 -69 283t69 283zM403 261q79 -93 213 -93q131 0 212 93
t81 245q0 151 -80 245q-81 93 -213 93q-134 0 -213 -93q-81 -95 -81 -247q0 -150 81 -243z" />
    <glyph glyph-name="ocircumflex" unicode="&#xf4;" horiz-adv-x="1232" 
d="M688 1118l-88 164l-88 -164h-193l193 295h176l193 -295h-193zM161 789q68 123 188 190q121 68 269 68q151 0 269 -69q120 -70 187 -191q67 -122 67 -281t-67 -281q-68 -123 -188 -191q-120 -69 -270 -69q-151 0 -268 68q-120 69 -187 190q-69 123 -69 283t69 283z
M403 261q79 -93 213 -93q131 0 212 93t81 245q0 151 -80 245q-81 93 -213 93q-134 0 -213 -93q-81 -95 -81 -247q0 -150 81 -243z" />
    <glyph glyph-name="otilde" unicode="&#xf5;" horiz-adv-x="1232" 
d="M531 1399q39 -18 81 -41q24 -13 56 -28q24 -11 45 -11q59 0 59 61q0 15 -2 27h137q6 -33 6 -61q0 -90 -48 -141q-48 -52 -124 -52q-42 0 -77 15q-33 13 -80 38q-37 20 -50 25q-24 10 -45 10q-53 0 -53 -57q0 -8 4 -31h-137q-8 37 -8 74q0 85 46 134q47 50 120 50
q39 0 70 -12zM161 789q68 123 188 190q121 68 269 68q151 0 269 -69q120 -70 187 -191q67 -122 67 -281t-67 -281q-68 -123 -188 -191q-120 -69 -270 -69q-151 0 -268 68q-120 69 -187 190q-69 123 -69 283t69 283zM403 261q79 -93 213 -93q131 0 212 93t81 245
q0 151 -80 245q-81 93 -213 93q-134 0 -213 -93q-81 -95 -81 -247q0 -150 81 -243z" />
    <glyph glyph-name="odieresis" unicode="&#xf6;" horiz-adv-x="1232" 
d="M297 1172q-37 37 -37 98q0 56 38 94q37 37 97 37q59 0 97 -38t38 -93q0 -60 -37 -98q-37 -39 -98 -39t-98 39zM710 1172q-38 38 -38 98q0 55 38 93t97 38q61 0 98 -37t37 -94q0 -60 -37 -98q-37 -39 -98 -39q-59 0 -97 39zM161 789q68 123 188 190q121 68 269 68
q151 0 269 -69q120 -70 187 -191q67 -122 67 -281t-67 -281q-68 -123 -188 -191q-120 -69 -270 -69q-151 0 -268 68q-120 69 -187 190q-69 123 -69 283t69 283zM403 261q79 -93 213 -93q131 0 212 93t81 245q0 151 -80 245q-81 93 -213 93q-134 0 -213 -93q-81 -95 -81 -247
q0 -150 81 -243z" />
    <glyph glyph-name="divide" unicode="&#xf7;" horiz-adv-x="1140" 
d="M469 847q-43 42 -43 103q0 57 43 100q43 42 100 42q59 0 103 -42q43 -42 43 -100q0 -61 -43 -103q-44 -42 -103 -42q-57 0 -100 42zM1006 684v-184h-871v184h871zM469 137q-43 43 -43 101q0 59 43 101t100 42q60 0 104 -41q42 -40 42 -102q0 -57 -43 -100
q-44 -44 -103 -44q-57 0 -100 43z" />
    <glyph glyph-name="oslash" unicode="&#xf8;" horiz-adv-x="1232" 
d="M1099 735q42 -103 42 -229q0 -159 -67 -281q-68 -123 -188 -191q-120 -69 -270 -69q-138 0 -256 62l-45 -64h-168l101 146q-75 74 -115 174q-41 103 -41 223q0 160 69 283q68 123 188 190q121 68 269 68q130 0 248 -56l52 74h167l-106 -154q79 -74 120 -176zM379 293
l364 522q-58 29 -127 29q-134 0 -213 -93q-81 -95 -81 -247q0 -126 57 -211zM829 261q80 94 80 245q0 130 -61 219l-367 -526q58 -31 135 -31q132 0 213 93z" />
    <glyph glyph-name="ugrave" unicode="&#xf9;" horiz-adv-x="1105" 
d="M459 1128l-199 289h232l139 -289h-172zM971 1012v-1012h-207v129q-33 -77 -115 -120q-83 -44 -184 -44q-159 0 -250 103q-92 103 -92 270v674h219v-619q0 -113 54 -167q52 -54 139 -54q104 0 161 69q56 68 56 187v584h219z" />
    <glyph glyph-name="uacute" unicode="&#xfa;" horiz-adv-x="1105" 
d="M596 1393h219l-190 -289h-160zM971 1012v-1012h-207v129q-33 -77 -115 -120q-83 -44 -184 -44q-159 0 -250 103q-92 103 -92 270v674h219v-619q0 -113 54 -167q52 -54 139 -54q104 0 161 69q56 68 56 187v584h219z" />
    <glyph glyph-name="ucircumflex" unicode="&#xfb;" horiz-adv-x="1105" 
d="M631 1104l-88 164l-88 -164h-193l193 295h176l192 -295h-192zM971 1012v-1012h-207v129q-33 -77 -115 -120q-83 -44 -184 -44q-159 0 -250 103q-92 103 -92 270v674h219v-619q0 -113 54 -167q52 -54 139 -54q104 0 161 69q56 68 56 187v584h219z" />
    <glyph glyph-name="udieresis" unicode="&#xfc;" horiz-adv-x="1105" 
d="M240 1157q-37 38 -37 98q0 56 38 94q37 37 97 37t97 -37q38 -38 38 -94q0 -58 -38 -98q-37 -39 -97 -39q-62 0 -98 39zM652 1157q-38 40 -38 98q0 55 38 93t98 38t98 -36q37 -37 37 -95q0 -60 -37 -98q-38 -39 -98 -39t-98 39zM971 1012v-1012h-207v129
q-33 -77 -115 -120q-83 -44 -184 -44q-159 0 -250 103q-92 103 -92 270v674h219v-619q0 -113 54 -167q52 -54 139 -54q104 0 161 69q56 68 56 187v584h219z" />
    <glyph glyph-name="yacute" unicode="&#xfd;" horiz-adv-x="1079" 
d="M592 1393h219l-190 -289h-160zM1057 1012l-615 -1436h-233l205 479l-391 957h239l262 -697l297 697h236z" />
    <glyph glyph-name="thorn" unicode="&#xfe;" horiz-adv-x="1183" 
d="M969 901q116 -148 116 -395q0 -166 -54 -288q-55 -123 -153 -187q-100 -66 -233 -66q-95 0 -173 38q-77 38 -118 106v-533h-221v1952h221v-623q45 66 122 104q78 38 171 38q205 0 322 -146zM793 248q63 94 63 260q0 170 -66 260q-68 90 -186 90q-120 0 -184 -90
q-66 -90 -66 -260q0 -176 68 -265t186 -89q121 0 185 94z" />
    <glyph glyph-name="ydieresis" unicode="&#xff;" horiz-adv-x="1079" 
d="M236 1157q-37 38 -37 98q0 56 38 94q37 37 97 37t97 -37q38 -38 38 -94q0 -58 -38 -98q-37 -39 -97 -39q-62 0 -98 39zM648 1157q-38 40 -38 98q0 55 38 93t97 38q61 0 99 -36q37 -37 37 -95q0 -60 -37 -98q-38 -39 -99 -39q-59 0 -97 39zM1057 1012l-615 -1436h-233
l205 479l-391 957h239l262 -697l297 697h236z" />
    <glyph glyph-name="Amacron" unicode="&#x100;" horiz-adv-x="1404" 
d="M1004 1794v-164h-603v164h603zM1004 305h-607l-106 -305h-264l551 1497h249l549 -1497h-266zM932 514l-144 410q-74 219 -86 276q-8 -33 -90 -276l-143 -410h463z" />
    <glyph glyph-name="amacron" unicode="&#x101;" horiz-adv-x="1069" 
d="M838 1315v-164h-602v164h602zM849 948q105 -101 105 -280v-668h-194l-12 129q-44 -77 -127 -120q-85 -44 -193 -44q-154 0 -248 85t-94 231q0 147 101 233t266 86h172q58 0 86 26q26 26 26 79q0 78 -51 119q-50 40 -143 40q-100 0 -163 -48t-73 -130l-188 51
q26 151 142 230q116 80 290 80q191 0 298 -99zM737 444h-237q-97 0 -146 -38q-49 -39 -49 -109q0 -72 51 -112q49 -40 138 -40q114 0 178 69q65 70 65 181v49z" />
    <glyph glyph-name="Abreve" unicode="&#x102;" horiz-adv-x="1404" 
d="M1001 1892q1 -139 -80 -218q-82 -79 -219 -79q-135 0 -217 79t-79 218h161q-2 -68 34 -104q36 -37 101 -37q66 0 102 37q36 38 36 104h161zM1004 305h-607l-106 -305h-264l551 1497h249l549 -1497h-266zM932 514l-144 410q-74 219 -86 276q-8 -33 -90 -276l-143 -410h463
z" />
    <glyph glyph-name="abreve" unicode="&#x103;" horiz-adv-x="1069" 
d="M836 1413q1 -139 -81 -218t-218 -79q-135 0 -217 79q-81 79 -80 218h161q-2 -68 34 -104q36 -37 102 -37t102 37q35 38 35 104h162zM849 948q105 -101 105 -280v-668h-194l-12 129q-44 -77 -127 -120q-85 -44 -193 -44q-154 0 -248 85t-94 231q0 147 101 233t266 86h172
q58 0 86 26q26 26 26 79q0 78 -51 119q-50 40 -143 40q-100 0 -163 -48t-73 -130l-188 51q26 151 142 230q116 80 290 80q191 0 298 -99zM737 444h-237q-97 0 -146 -38q-49 -39 -49 -109q0 -72 51 -112q49 -40 138 -40q114 0 178 69q65 70 65 181v49z" />
    <glyph glyph-name="Aogonek" unicode="&#x104;" horiz-adv-x="1404" 
d="M1290 -207q39 0 70 19v-154q-60 -29 -129 -29q-85 0 -140 43q-57 44 -57 117q0 131 156 211h-80l-106 305h-607l-106 -305h-264l551 1497h249l549 -1497q-78 -34 -122 -73q-42 -37 -42 -72q0 -62 78 -62zM932 514l-144 410q-74 219 -86 276q-8 -33 -90 -276l-143 -410
h463z" />
    <glyph glyph-name="aogonek" unicode="&#x105;" horiz-adv-x="1069" 
d="M833 -73q-42 -37 -42 -72q0 -60 77 -62q39 0 70 19v-154q-60 -29 -129 -29q-85 0 -140 43q-57 44 -57 117q0 131 156 211h-8l-12 129q-44 -77 -127 -120q-85 -44 -193 -44q-154 0 -248 85t-94 231q0 147 101 233t266 86h172q58 0 86 26q26 26 26 79q0 78 -51 119
q-50 40 -143 40q-100 0 -163 -48t-73 -130l-188 51q26 151 142 230q116 80 290 80q193 0 298 -99q105 -101 105 -280v-668q-79 -34 -121 -73zM737 444h-237q-97 0 -146 -38q-49 -39 -49 -109q0 -72 51 -112q49 -40 138 -40q114 0 178 69q65 70 65 181v49z" />
    <glyph glyph-name="Cacute" unicode="&#x106;" horiz-adv-x="1540" 
d="M819 1898h219l-190 -288h-160zM428 67q-163 98 -251 274q-89 178 -89 407q0 231 90 408q91 178 253 275q163 97 372 97q159 0 292 -57q134 -59 227 -162q92 -104 130 -244l-225 -82q-39 147 -154 232t-270 85q-138 0 -245 -68q-106 -69 -165 -194q-59 -126 -59 -288
q0 -163 59 -290t165 -194q107 -69 245 -69q154 0 270 86q115 85 154 233l225 -82q-34 -136 -127 -242q-90 -105 -228 -164q-134 -59 -298 -59q-208 0 -371 98z" />
    <glyph glyph-name="cacute" unicode="&#x107;" horiz-adv-x="1167" 
d="M651 1407h219l-190 -289h-160zM346 36q-117 68 -182 191q-66 123 -66 279q0 159 67 281q67 123 184 191q119 69 267 69q171 0 296 -86q125 -87 165 -226l-190 -82q-25 85 -99 138q-75 51 -174 51q-132 0 -211 -91q-81 -91 -81 -245q0 -152 79 -243q78 -91 211 -91
q97 0 173 50q75 49 102 136l194 -77q-45 -143 -175 -228q-129 -86 -296 -86q-147 0 -264 69z" />
    <glyph glyph-name="Cdotaccent" unicode="&#x10a;" horiz-adv-x="1540" 
d="M669 1663q-38 40 -38 98t38 96q37 37 99 37q61 0 97 -36q36 -38 36 -97q0 -60 -37 -98q-38 -39 -96 -39q-62 0 -99 39zM428 67q-163 98 -251 274q-89 178 -89 407q0 231 90 408q91 178 253 275q163 97 372 97q159 0 292 -57q134 -59 227 -162q92 -104 130 -244l-225 -82
q-39 147 -154 232t-270 85q-138 0 -245 -68q-106 -69 -165 -194q-59 -126 -59 -288q0 -163 59 -290t165 -194q107 -69 245 -69q154 0 270 86q115 85 154 233l225 -82q-34 -136 -127 -242q-90 -105 -228 -164q-134 -59 -298 -59q-208 0 -371 98z" />
    <glyph glyph-name="cdotaccent" unicode="&#x10b;" horiz-adv-x="1167" 
d="M501 1172q-38 38 -38 98q0 58 38 96q37 37 99 37q61 0 97 -37q36 -38 36 -96q0 -60 -37 -98q-38 -39 -96 -39q-62 0 -99 39zM346 36q-117 68 -182 191q-66 123 -66 279q0 159 67 281q67 123 184 191q119 69 267 69q171 0 296 -86q125 -87 165 -226l-190 -82
q-25 85 -99 138q-75 51 -174 51q-132 0 -211 -91q-81 -91 -81 -245q0 -152 79 -243q78 -91 211 -91q97 0 173 50q75 49 102 136l194 -77q-45 -143 -175 -228q-129 -86 -296 -86q-147 0 -264 69z" />
    <glyph glyph-name="Ccaron" unicode="&#x10c;" horiz-adv-x="1540" 
d="M680 1905l88 -162l86 162h193l-191 -295h-178l-191 295h193zM428 67q-163 98 -251 274q-89 178 -89 407q0 231 90 408q91 178 253 275q163 97 372 97q159 0 292 -57q134 -59 227 -162q92 -104 130 -244l-225 -82q-39 147 -154 232t-270 85q-138 0 -245 -68
q-106 -69 -165 -194q-59 -126 -59 -288q0 -163 59 -290t165 -194q107 -69 245 -69q154 0 270 86q115 85 154 233l225 -82q-34 -136 -127 -242q-90 -105 -228 -164q-134 -59 -298 -59q-208 0 -371 98z" />
    <glyph glyph-name="ccaron" unicode="&#x10d;" horiz-adv-x="1167" 
d="M512 1413l88 -162l86 162h193l-191 -295h-178l-191 295h193zM346 36q-117 68 -182 191q-66 123 -66 279q0 159 67 281q67 123 184 191q119 69 267 69q171 0 296 -86q125 -87 165 -226l-190 -82q-25 85 -99 138q-75 51 -174 51q-132 0 -211 -91q-81 -91 -81 -245
q0 -152 79 -243q78 -91 211 -91q97 0 173 50q75 49 102 136l194 -77q-45 -143 -175 -228q-129 -86 -296 -86q-147 0 -264 69z" />
    <glyph glyph-name="Dcaron" unicode="&#x10e;" horiz-adv-x="1404" 
d="M481 1894l88 -161l86 161h193l-191 -295h-178l-190 295h192zM152 1497h460q219 0 378 -93t243 -262q84 -170 84 -392q0 -230 -86 -400t-245 -260t-374 -90h-460v1497zM598 217q223 0 351 146t128 387q0 160 -59 283q-60 121 -168 185q-109 64 -252 64h-217v-1065h217z
" />
    <glyph glyph-name="dcaron" unicode="&#x10f;" horiz-adv-x="1355" 
d="M825 1511h222v-1511h-195l-12 135q-38 -77 -122 -124q-82 -46 -183 -46q-206 0 -321 148q-116 148 -116 395q0 251 118 393q119 143 321 143q92 0 170 -35q74 -35 118 -98v600zM1370 1499l-59 -573h-131v573h190zM760 244q65 91 65 262q0 176 -66 263q-67 87 -184 87
q-124 0 -188 -94q-65 -95 -65 -256q0 -168 68 -260t185 -92q119 0 185 90z" />
    <glyph glyph-name="Dcroat" unicode="&#x110;" horiz-adv-x="1386" 
d="M990 1404q159 -93 243 -262q84 -170 84 -392q0 -230 -86 -400t-245 -260t-374 -90h-460v668h-142v192h142v637h460q219 0 378 -93zM949 363q128 146 128 387q0 160 -59 283q-60 121 -168 185q-109 64 -252 64h-217v-422h291v-192h-291v-451h217q223 0 351 146z" />
    <glyph glyph-name="dcroat" unicode="&#x111;" horiz-adv-x="1181" 
d="M1190 1169h-143v-1169h-195l-12 135q-38 -77 -122 -124q-82 -46 -183 -46q-206 0 -321 148q-116 148 -116 395q0 251 118 393q119 143 321 143q92 0 170 -35q74 -35 118 -98v258h-366v158h366v184h222v-184h143v-158zM760 244q65 91 65 262q0 176 -66 263q-67 87 -184 87
q-124 0 -188 -94q-65 -95 -65 -256q0 -168 68 -260t185 -92q119 0 185 90z" />
    <glyph glyph-name="Emacron" unicode="&#x112;" horiz-adv-x="1069" 
d="M874 1794v-164h-602v164h602zM152 1497h839v-217h-612v-420h551v-205h-551v-438h612v-217h-839v1497z" />
    <glyph glyph-name="emacron" unicode="&#x113;" horiz-adv-x="1169" 
d="M891 1315v-164h-602v164h602zM782 203q80 50 107 129l180 -72q-44 -134 -173 -214q-130 -81 -298 -81q-148 0 -261 67q-115 66 -176 189q-63 123 -63 285t63 284q61 121 175 189q113 68 260 68q140 0 250 -60q108 -61 168 -171q59 -112 59 -255q0 -64 -14 -125h-744
q1 -128 80 -205t205 -77q103 0 182 49zM402 790q-78 -70 -87 -184h533q-1 113 -70 185q-69 69 -184 69q-116 0 -192 -70z" />
    <glyph glyph-name="Edotaccent" unicode="&#x116;" horiz-adv-x="1069" 
d="M474 1651q-38 40 -38 98t38 96q37 37 99 37q61 0 98 -37q36 -37 36 -96q0 -60 -37 -98q-38 -39 -97 -39q-61 0 -99 39zM152 1497h839v-217h-612v-420h551v-205h-551v-438h612v-217h-839v1497z" />
    <glyph glyph-name="edotaccent" unicode="&#x117;" horiz-adv-x="1169" 
d="M491 1172q-38 38 -38 98q0 58 38 96q37 37 99 37q61 0 97 -37q36 -38 36 -96q0 -60 -37 -98q-38 -39 -96 -39q-62 0 -99 39zM782 203q80 50 107 129l180 -72q-44 -134 -173 -214q-130 -81 -298 -81q-148 0 -261 67q-115 66 -176 189q-63 123 -63 285t63 284
q61 121 175 189q113 68 260 68q140 0 250 -60q108 -61 168 -171q59 -112 59 -255q0 -64 -14 -125h-744q1 -128 80 -205t205 -77q103 0 182 49zM402 790q-78 -70 -87 -184h533q-1 113 -70 185q-69 69 -184 69q-116 0 -192 -70z" />
    <glyph glyph-name="Eogonek" unicode="&#x118;" horiz-adv-x="1069" 
d="M379 1280v-420h551v-205h-551v-438h612v-217q-78 -34 -122 -73q-42 -37 -42 -72q0 -61 78 -62q39 0 70 19v-154q-60 -29 -129 -29q-85 0 -140 43q-57 44 -57 117q0 131 156 211h-653v1497h839v-217h-612z" />
    <glyph glyph-name="eogonek" unicode="&#x119;" horiz-adv-x="1169" 
d="M782 203q80 50 107 129l180 -72q-39 -120 -147 -196q-111 -79 -254 -95q-113 -62 -113 -121q0 -61 78 -61q39 0 69 18v-153q-60 -29 -129 -29q-85 0 -140 43q-56 44 -56 117q0 115 121 190q-181 33 -291 176q-109 142 -109 357q0 162 63 284q61 121 175 189
q113 68 260 68q140 0 250 -60q108 -61 168 -171q59 -112 59 -255q0 -64 -14 -125h-744q1 -128 80 -205t205 -77q103 0 182 49zM402 790q-78 -70 -87 -184h533q-1 113 -70 185q-69 69 -184 69q-116 0 -192 -70z" />
    <glyph glyph-name="Ecaron" unicode="&#x11a;" horiz-adv-x="1069" 
d="M485 1892l88 -161l86 161h193l-190 -295h-179l-190 295h192zM152 1497h839v-217h-612v-420h551v-205h-551v-438h612v-217h-839v1497z" />
    <glyph glyph-name="ecaron" unicode="&#x11b;" horiz-adv-x="1169" 
d="M502 1413l88 -162l86 162h192l-190 -295h-178l-191 295h193zM782 203q80 50 107 129l180 -72q-44 -134 -173 -214q-130 -81 -298 -81q-148 0 -261 67q-115 66 -176 189q-63 123 -63 285t63 284q61 121 175 189q113 68 260 68q140 0 250 -60q108 -61 168 -171
q59 -112 59 -255q0 -64 -14 -125h-744q1 -128 80 -205t205 -77q103 0 182 49zM402 790q-78 -70 -87 -184h533q-1 113 -70 185q-69 69 -184 69q-116 0 -192 -70z" />
    <glyph glyph-name="Gbreve" unicode="&#x11e;" horiz-adv-x="1595" 
d="M561 1674q-81 79 -80 218h162q-2 -68 34 -104q36 -37 101 -37q66 0 102 37q35 38 35 104h162q1 -139 -81 -218t-218 -79q-135 0 -217 79zM1503 666q0 -208 -85 -365q-86 -159 -241 -245q-157 -87 -364 -87q-218 0 -382 97q-165 96 -254 272t-89 407q0 237 91 413
q92 178 256 275t380 97q155 0 285 -54q133 -57 223 -154q93 -101 127 -228l-219 -88q-34 136 -149 219q-115 82 -275 82q-143 0 -250 -71q-107 -70 -166 -197t-59 -291q0 -165 59 -292q58 -125 168 -196q109 -70 256 -70q128 0 228 52q100 51 160 147q59 96 63 223h-480v195
h705q12 -55 12 -141z" />
    <glyph glyph-name="gbreve" unicode="&#x11f;" horiz-adv-x="1187" 
d="M344 1238q-81 79 -80 218h162q-2 -68 34 -104q36 -37 101 -37q66 0 102 37q35 38 35 104h162q1 -139 -81 -218t-218 -79q-135 0 -217 79zM1051 1012v-998q0 -226 -135 -348q-136 -121 -353 -121q-192 0 -313 89q-121 90 -160 243l182 80q22 -105 98 -163q74 -56 185 -56
q129 0 201 72q71 74 71 200v144q-40 -60 -114 -95q-72 -34 -172 -34q-207 0 -324 139q-117 140 -117 371q0 153 54 268q52 115 153 178q99 63 230 63q104 0 183 -40t120 -113l6 121h205zM761 292q66 86 66 243t-66 239q-67 82 -183 82q-122 0 -186 -88q-66 -88 -66 -233
q0 -152 67 -240q66 -88 185 -88q116 0 183 85z" />
    <glyph glyph-name="Gdotaccent" unicode="&#x120;" horiz-adv-x="1595" 
d="M679 1651q-38 40 -38 98t38 96q37 37 99 37q61 0 97 -37t36 -96t-36 -98q-37 -39 -97 -39q-62 0 -99 39zM1503 666q0 -208 -85 -365q-86 -159 -241 -245q-157 -87 -364 -87q-218 0 -382 97q-165 96 -254 272t-89 407q0 237 91 413q92 178 256 275t380 97q155 0 285 -54
q133 -57 223 -154q93 -101 127 -228l-219 -88q-34 136 -149 219q-115 82 -275 82q-143 0 -250 -71q-107 -70 -166 -197t-59 -291q0 -165 59 -292q58 -125 168 -196q109 -70 256 -70q128 0 228 52q100 51 160 147q59 96 63 223h-480v195h705q12 -55 12 -141z" />
    <glyph glyph-name="gdotaccent" unicode="&#x121;" horiz-adv-x="1183" 
d="M437 1172q-38 38 -38 98q0 58 38 96q37 37 100 37q61 0 97 -37q36 -38 36 -96q0 -60 -37 -98q-37 -39 -96 -39q-63 0 -100 39zM1051 1012v-998q0 -226 -135 -348q-136 -121 -353 -121q-192 0 -313 89q-121 90 -160 243l182 80q22 -105 98 -163q74 -56 185 -56
q129 0 201 72q71 74 71 200v144q-40 -60 -114 -95q-72 -34 -172 -34q-207 0 -324 139q-117 140 -117 371q0 153 54 268q52 115 153 178q99 63 230 63q104 0 183 -40t120 -113l6 121h205zM761 292q66 86 66 243t-66 239q-67 82 -183 82q-122 0 -186 -88q-66 -88 -66 -233
q0 -152 67 -240q66 -88 185 -88q116 0 183 85z" />
    <glyph glyph-name="uni0122" unicode="&#x122;" horiz-adv-x="1595" 
d="M708 -156q43 41 109 41q62 0 105 -41q41 -41 41 -102q0 -49 -37 -104l-129 -203h-107l88 162q-51 11 -81 49q-31 38 -31 94q0 64 42 104zM1503 666q0 -208 -85 -365q-86 -159 -241 -245q-157 -87 -364 -87q-218 0 -382 97q-165 96 -254 272t-89 407q0 237 91 413
q92 178 256 275t380 97q155 0 285 -54q133 -57 223 -154q93 -101 127 -228l-219 -88q-34 136 -149 219q-115 82 -275 82q-143 0 -250 -71q-107 -70 -166 -197t-59 -291q0 -165 59 -292q58 -125 168 -196q109 -70 256 -70q128 0 228 52q100 51 160 147q59 96 63 223h-480v195
h705q12 -55 12 -141z" />
    <glyph glyph-name="uni0123" unicode="&#x123;" horiz-adv-x="1187" 
d="M645 1224q-40 -40 -108 -40q-63 0 -103 40q-41 41 -41 103q0 50 29 96l135 209h107l-89 -162q51 -10 81 -48t30 -95q0 -62 -41 -103zM1051 1012v-998q0 -226 -135 -348q-136 -121 -353 -121q-192 0 -313 89q-121 90 -160 243l182 80q22 -105 98 -163q74 -56 185 -56
q129 0 201 72q71 74 71 200v144q-40 -60 -114 -95q-72 -34 -172 -34q-207 0 -324 139q-117 140 -117 371q0 153 54 268q52 115 153 178q99 63 230 63q104 0 183 -40t120 -113l6 121h205zM761 292q66 86 66 243t-66 239q-67 82 -183 82q-122 0 -186 -88q-66 -88 -66 -233
q0 -152 67 -240q66 -88 185 -88q116 0 183 85z" />
    <glyph glyph-name="Hbar" unicode="&#x126;" horiz-adv-x="1439" 
d="M1386 1079h-104v-1079h-225v625h-676v-625h-227v1079h-86v166h86v252h227v-252h676v252h225v-252h104v-166zM1057 1079h-676v-237l676 -2v239z" />
    <glyph glyph-name="hbar" unicode="&#x127;" horiz-adv-x="1101" 
d="M900 938q93 -110 93 -291v-647h-221v604q0 121 -52 182q-52 60 -138 60q-111 0 -169 -73q-59 -74 -59 -191v-582h-221v1194h-110v158h110v159h221v-159h400v-158h-400v-283q45 67 120 101q76 35 165 35q168 0 261 -109z" />
    <glyph glyph-name="Imacron" unicode="&#x12a;" horiz-adv-x="526" 
d="M565 1794v-164h-602v164h602zM152 0v1497h223v-1497h-223z" />
    <glyph glyph-name="imacron" unicode="&#x12b;" horiz-adv-x="485" 
d="M545 1300v-163h-602v163h602zM350 1012v-1012h-215v1012h215z" />
    <glyph glyph-name="Iogonek" unicode="&#x12e;" horiz-adv-x="526" 
d="M253 -73q-42 -37 -42 -72q0 -61 78 -62q40 0 69 19v-154q-60 -29 -129 -29q-85 0 -140 43q-56 44 -56 117q0 131 155 211h-36v1497h223v-1497q-78 -34 -122 -73z" />
    <glyph glyph-name="iogonek" unicode="&#x12f;" horiz-adv-x="485" 
d="M144 1157q-38 40 -38 98q0 59 38 97q37 37 100 37q61 0 97 -37q36 -38 36 -97q0 -60 -37 -98q-38 -39 -96 -39q-63 0 -100 39zM230 -73q-42 -37 -42 -72q0 -61 78 -62q39 0 70 19v-154q-60 -29 -129 -29q-85 0 -140 43q-57 44 -57 117q0 131 156 211h-31v1012h215v-1012
h2q-78 -34 -122 -73z" />
    <glyph glyph-name="Idotaccent" unicode="&#x130;" horiz-adv-x="526" 
d="M165 1651q-38 40 -38 98t38 96q37 37 99 37q61 0 97 -37t36 -96t-36 -98q-37 -39 -97 -39q-62 0 -99 39zM152 0v1497h223v-1497h-223z" />
    <glyph glyph-name="dotlessi" unicode="&#x131;" horiz-adv-x="485" 
d="M350 1012v-1012h-215v1012h215z" />
    <glyph glyph-name="uni0136" unicode="&#x136;" horiz-adv-x="1292" 
d="M564 -123q43 41 110 41q63 0 104 -41t41 -102q0 -50 -37 -105l-129 -202h-106l88 161q-51 10 -82 49q-31 38 -31 95q0 63 42 104zM152 1497h227v-821l594 821h284l-462 -635l473 -862h-275l-356 659l-258 -350v-311h-227v1499z" />
    <glyph glyph-name="uni0137" unicode="&#x137;" horiz-adv-x="1062" 
d="M443 -123q43 41 110 41q63 0 104 -41t41 -102q0 -49 -36 -105l-130 -202h-106l88 161q-51 10 -82 49q-31 38 -31 95q0 63 42 104zM692 627l334 -627h-252l-233 455l-187 -209v-246h-221v1513h221v-958l400 457h278z" />
    <glyph glyph-name="Lacute" unicode="&#x139;" horiz-adv-x="1060" 
d="M348 1597h-160l131 289h220zM993 217v-217h-841v1497h229v-1280h612z" />
    <glyph glyph-name="lacute" unicode="&#x13a;" horiz-adv-x="471" 
d="M295 1878h219l-190 -289h-160zM133 1513h215v-1513h-215v1513z" />
    <glyph glyph-name="uni013B" unicode="&#x13b;" horiz-adv-x="1060" 
d="M456 -123q43 41 109 41q62 0 105 -41q41 -41 41 -102q0 -50 -37 -105l-129 -202h-107l88 161q-51 11 -81 49q-31 38 -31 95q0 63 42 104zM993 217v-217h-841v1497h229v-1280h612z" />
    <glyph glyph-name="uni013C" unicode="&#x13c;" horiz-adv-x="471" 
d="M134 -123q43 41 110 41q63 0 104 -41t41 -102q0 -50 -37 -105l-129 -202h-106l88 161q-51 10 -82 49q-31 38 -31 95q0 63 42 104zM133 1513h215v-1513h-215v1513z" />
    <glyph glyph-name="Lcaron" unicode="&#x13d;" horiz-adv-x="1048" 
d="M717 926h-129v573h188zM993 217v-217h-841v1497h229v-1280h612z" />
    <glyph glyph-name="lcaron" unicode="&#x13e;" horiz-adv-x="675" 
d="M133 1513h215v-1513h-215v1513zM690 1499l-59 -573h-131v573h190z" />
    <glyph glyph-name="Ldot" unicode="&#x13f;" horiz-adv-x="1034" 
d="M993 217v-217h-841v1497h229v-1280h612zM595 682q-42 40 -42 102q0 57 42 99q43 41 101 41q56 0 99 -41q41 -41 41 -99q0 -61 -41 -102t-99 -41t-101 41z" />
    <glyph glyph-name="ldot" unicode="&#x140;" horiz-adv-x="759" 
d="M133 1513h215v-1513h-215v1513zM515 600q-42 40 -42 102q0 59 42 101q43 41 101 41t101 -41q41 -41 41 -101q0 -61 -41 -102t-101 -41q-58 0 -101 41z" />
    <glyph glyph-name="Lslash" unicode="&#x141;" horiz-adv-x="1077" 
d="M1010 215v-215h-822v651l-174 -80v211l174 78v594h226v-491l315 143v-209l-315 -143v-539h596z" />
    <glyph glyph-name="lslash" unicode="&#x142;" horiz-adv-x="618" 
d="M563 885l-145 -72v-813h-215v709l-148 -72v188l148 72v616h215v-509l145 71v-190z" />
    <glyph glyph-name="Nacute" unicode="&#x143;" horiz-adv-x="1433" 
d="M768 1886h219l-190 -289h-160zM152 1497h227l676 -1104v1104h227v-1497h-225l-678 1102v-1102h-227v1497z" />
    <glyph glyph-name="nacute" unicode="&#x144;" horiz-adv-x="1116" 
d="M623 1413h219l-191 -289h-159zM900 938q93 -110 93 -291v-647h-221v608q0 120 -52 179q-53 59 -138 59q-110 0 -169 -72q-59 -73 -59 -188v-586h-221v1012h199l8 -121q44 75 125 116q79 40 174 40q168 0 261 -109z" />
    <glyph glyph-name="uni0145" unicode="&#x145;" horiz-adv-x="1433" 
d="M617 -123q43 41 110 41q63 0 104 -41t41 -102q0 -49 -36 -105l-129 -202h-107l88 161q-51 10 -82 49q-31 38 -31 95q0 63 42 104zM152 1497h227l676 -1104v1104h227v-1497h-225l-678 1102v-1102h-227v1497z" />
    <glyph glyph-name="uni0146" unicode="&#x146;" horiz-adv-x="1116" 
d="M470 -123q43 41 110 41q63 0 104 -41t41 -102q0 -50 -37 -105l-129 -202h-106l88 161q-51 10 -82 49q-31 38 -31 95q0 63 42 104zM900 938q93 -110 93 -291v-647h-221v608q0 120 -52 179q-53 59 -138 59q-110 0 -169 -72q-59 -73 -59 -188v-586h-221v1012h199l8 -121
q44 75 125 116q79 40 174 40q168 0 261 -109z" />
    <glyph glyph-name="Ncaron" unicode="&#x147;" horiz-adv-x="1433" 
d="M629 1892l88 -161l86 161h192l-190 -295h-178l-191 295h193zM152 1497h227l676 -1104v1104h227v-1497h-225l-678 1102v-1102h-227v1497z" />
    <glyph glyph-name="ncaron" unicode="&#x148;" horiz-adv-x="1116" 
d="M483 1419l88 -162l86 162h193l-191 -295h-178l-190 295h192zM900 938q93 -110 93 -291v-647h-221v608q0 120 -52 179q-53 59 -138 59q-110 0 -169 -72q-59 -73 -59 -188v-586h-221v1012h199l8 -121q44 75 125 116q79 40 174 40q168 0 261 -109z" />
    <glyph glyph-name="Eng" unicode="&#x14a;" horiz-adv-x="1392" 
d="M1247 1454v-1575q-6 -352 -358 -352q-72 0 -135 12v205q73 -12 110 -12q88 0 124 42t36 126v100l-653 1065v-1065h-226v1454h226l651 -1065v1065h225z" />
    <glyph glyph-name="eng" unicode="&#x14b;" horiz-adv-x="1128" 
d="M901 938q92 -110 92 -291v-749q0 -166 -97 -260q-98 -93 -261 -93q-71 0 -133 13v190q70 -8 106 -8q92 0 128 46t36 132v690q0 122 -52 180t-142 58q-106 0 -165 -72q-59 -73 -59 -188v-586h-221v1012h199l8 -121q44 75 125 116q79 40 176 40q169 0 260 -109z" />
    <glyph glyph-name="Omacron" unicode="&#x14c;" horiz-adv-x="1662" 
d="M1133 1794v-164h-603v164h603zM445 69q-168 100 -263 279q-94 178 -94 402q0 221 94 399t264 280q170 101 388 101q216 0 386 -101q168 -101 263 -280q94 -178 94 -399q0 -223 -94 -401q-95 -180 -264 -280q-169 -102 -388 -102q-217 0 -386 102zM1090 268
q112 70 175 196q62 127 62 286t-62 286q-64 126 -176 196q-115 71 -258 71q-144 0 -257 -71t-176 -197q-64 -125 -64 -285q0 -161 64 -286q62 -125 176 -196q113 -71 257 -71q146 0 259 71z" />
    <glyph glyph-name="omacron" unicode="&#x14d;" horiz-adv-x="1232" 
d="M903 1315v-164h-602v164h602zM161 789q68 123 188 190q121 68 269 68q151 0 269 -69q120 -70 187 -191q67 -122 67 -281t-67 -281q-68 -123 -188 -191q-120 -69 -270 -69q-151 0 -268 68q-120 69 -187 190q-69 123 -69 283t69 283zM403 261q79 -93 213 -93q131 0 212 93
t81 245q0 151 -80 245q-81 93 -213 93q-134 0 -213 -93q-81 -95 -81 -247q0 -150 81 -243z" />
    <glyph glyph-name="Ohungarumlaut" unicode="&#x150;" horiz-adv-x="1677" 
d="M768 1917h227l-209 -289h-196zM1118 1917h230l-256 -289h-197zM445 69q-168 100 -263 279q-94 178 -94 402q0 221 94 399t264 280q170 101 388 101q216 0 386 -101q168 -101 263 -280q94 -178 94 -399q0 -223 -94 -401q-95 -180 -264 -280q-169 -102 -388 -102
q-217 0 -386 102zM1090 268q112 70 175 196q62 127 62 286t-62 286q-64 126 -176 196q-115 71 -258 71q-144 0 -257 -71t-176 -197q-64 -125 -64 -285q0 -161 64 -286q62 -125 176 -196q113 -71 257 -71q146 0 259 71z" />
    <glyph glyph-name="ohungarumlaut" unicode="&#x151;" horiz-adv-x="1232" 
d="M532 1425h228l-209 -288h-197zM883 1425h229l-256 -288h-197zM161 789q68 123 188 190q121 68 269 68q151 0 269 -69q120 -70 187 -191q67 -122 67 -281t-67 -281q-68 -123 -188 -191q-120 -69 -270 -69q-151 0 -268 68q-120 69 -187 190q-69 123 -69 283t69 283z
M403 261q79 -93 213 -93q131 0 212 93t81 245q0 151 -80 245q-81 93 -213 93q-134 0 -213 -93q-81 -95 -81 -247q0 -150 81 -243z" />
    <glyph glyph-name="OE" unicode="&#x152;" horiz-adv-x="2260" 
d="M1571 1280v-420h551v-205h-549l-2 -14v-424h612v-217h-840v164q-97 -94 -228 -145q-129 -52 -284 -52q-217 0 -386 102q-168 100 -263 279q-94 178 -94 402q0 221 94 399t264 280q170 101 388 101q152 0 282 -51q132 -54 227 -146v164h840v-217h-612zM1090 268
q112 70 175 196q62 127 62 286t-62 286q-64 126 -176 196q-115 71 -258 71q-144 0 -257 -71t-176 -197q-64 -125 -64 -285q0 -161 64 -286q62 -125 176 -196q113 -71 257 -71q146 0 259 71z" />
    <glyph glyph-name="oe" unicode="&#x153;" horiz-adv-x="2035" 
d="M1624 201q80 50 107 129l180 -72q-44 -134 -173 -214q-131 -81 -298 -81q-131 0 -234 53q-106 52 -172 150q-70 -96 -178 -148q-106 -53 -240 -53q-151 0 -268 68q-120 69 -187 190q-69 123 -69 283t69 283q68 123 188 190q121 68 269 68q132 0 240 -52t178 -149
q65 93 170 146q103 52 232 52q140 0 250 -60q108 -60 168 -171q59 -112 59 -254q0 -64 -14 -125h-744q1 -128 80 -205t205 -77q103 0 182 49zM1243 788q-78 -71 -86 -184h533q-1 114 -71 185q-69 69 -183 69q-116 0 -193 -70zM829 261q80 94 80 245t-80 245q-81 93 -213 93
q-134 0 -213 -93q-81 -95 -81 -247q0 -150 81 -243q79 -93 213 -93q132 0 213 93z" />
    <glyph glyph-name="Racute" unicode="&#x154;" horiz-adv-x="1337" 
d="M717 1597h-160l131 289h219zM1181 763q-67 -112 -188 -169l240 -594h-254l-207 543h-22h-371v-543h-227v1497h600q149 0 262 -60q111 -61 173 -169q60 -110 60 -248q0 -146 -66 -257zM379 745h354q135 0 209 77t74 196q0 122 -76 192t-207 70h-354v-535z" />
    <glyph glyph-name="racute" unicode="&#x155;" horiz-adv-x="729" 
d="M387 1120h-160l131 289h220zM441 984q65 38 155 38q39 0 92 -10v-213q-53 10 -94 10q-115 0 -178 -66q-64 -67 -64 -188v-555h-219v1012h205l10 -131q28 66 93 103z" />
    <glyph glyph-name="uni0156" unicode="&#x156;" horiz-adv-x="1337" 
d="M531 -123q43 41 110 41q63 0 104 -41t41 -102q0 -49 -36 -105l-129 -202h-107l88 161q-51 10 -82 49q-31 38 -31 95q0 63 42 104zM1181 763q-67 -112 -188 -169l240 -594h-254l-207 543h-22h-371v-543h-227v1497h600q149 0 262 -60q111 -61 173 -169q60 -110 60 -248
q0 -146 -66 -257zM379 745h354q135 0 209 77t74 196q0 122 -76 192t-207 70h-354v-535z" />
    <glyph glyph-name="uni0157" unicode="&#x157;" horiz-adv-x="729" 
d="M142 -123q43 41 110 41q63 0 104 -41t41 -102q0 -50 -37 -105l-129 -202h-106l88 161q-51 10 -82 49q-31 38 -31 95q0 63 42 104zM441 984q65 38 155 38q39 0 92 -10v-213q-53 10 -94 10q-115 0 -178 -66q-64 -67 -64 -188v-555h-219v1012h205l10 -131q28 66 93 103z" />
    <glyph glyph-name="Rcaron" unicode="&#x158;" horiz-adv-x="1337" 
d="M549 1892l88 -161l86 161h192l-190 -295h-178l-191 295h193zM1181 763q-67 -112 -188 -169l240 -594h-254l-207 543h-22h-371v-543h-227v1497h600q149 0 262 -60q111 -61 173 -169q60 -110 60 -248q0 -146 -66 -257zM379 745h354q135 0 209 77t74 196q0 122 -76 192
t-207 70h-354v-535z" />
    <glyph glyph-name="rcaron" unicode="&#x159;" horiz-adv-x="729" 
d="M219 1415l88 -162l86 162h193l-191 -295h-178l-190 295h192zM441 984q65 38 155 38q39 0 92 -10v-213q-53 10 -94 10q-115 0 -178 -66q-64 -67 -64 -188v-555h-219v1012h205l10 -131q28 66 93 103z" />
    <glyph glyph-name="Sacute" unicode="&#x15a;" horiz-adv-x="1226" 
d="M655 1896h219l-190 -288h-160zM883 1081q-12 109 -88 172q-77 62 -195 62q-115 0 -184 -60q-70 -61 -70 -155q0 -86 57 -132q53 -45 166 -77l217 -55q182 -45 270 -153q87 -108 87 -259q0 -136 -64 -237q-63 -101 -184 -158q-116 -56 -274 -56q-159 0 -275 56
q-120 56 -187 156q-69 101 -81 231l227 35q5 -117 90 -189t226 -72q128 0 204 59q74 59 74 163q0 82 -49 130q-50 48 -141 72l-209 54q-205 51 -301 156q-97 103 -97 261q0 134 64 234q62 99 177 155q114 54 259 54q205 0 342 -104q136 -105 162 -285z" />
    <glyph glyph-name="sacute" unicode="&#x15b;" horiz-adv-x="958" 
d="M535 1407h219l-191 -289h-160zM655 719q-5 67 -50 107q-46 40 -126 40q-71 0 -112 -33q-41 -35 -41 -92q0 -45 32 -74q31 -30 101 -46l162 -41q129 -31 193 -109q63 -78 63 -186q0 -145 -107 -232q-107 -88 -287 -88q-175 0 -282 85q-108 85 -119 229l194 30
q5 -75 59 -119q54 -45 146 -45q80 0 126 34t46 93q0 88 -116 121l-162 45q-271 74 -273 291q0 142 104 231q104 87 267 87q158 0 258 -79q101 -80 111 -210z" />
    <glyph glyph-name="Scedilla" unicode="&#x15e;" horiz-adv-x="1226" 
d="M1017 113q-126 -121 -341 -138l-23 -63q83 4 136 -35q51 -39 51 -113t-54 -119q-56 -44 -141 -44q-101 0 -154 46q-55 46 -55 117h129q2 -24 21 -37q19 -14 45 -14q25 0 42 15q17 17 17 43q0 28 -19 41q-20 14 -53 14q-25 0 -34 -4l-58 28l45 125q-216 12 -346 132
q-131 120 -147 309l227 35q5 -117 90 -189t226 -72q128 0 204 59q74 59 74 163q0 82 -49 130q-50 48 -141 72l-209 54q-205 51 -301 156q-97 103 -97 261q0 134 64 234q62 99 177 155q114 54 259 54q205 0 342 -104q136 -105 162 -285l-223 -58q-12 109 -88 172
q-77 62 -195 62q-115 0 -184 -60q-70 -61 -70 -155q0 -86 57 -132q53 -45 166 -77l217 -55q182 -45 270 -153q87 -108 87 -259q0 -191 -126 -311z" />
    <glyph glyph-name="scedilla" unicode="&#x15f;" horiz-adv-x="958" 
d="M781 62q-96 -84 -259 -95l-16 -47q83 4 135 -35q51 -39 51 -112q0 -74 -54 -119t-140 -45q-101 0 -154 46q-55 46 -55 118h129q2 -23 21 -38q19 -14 44 -14t43 15q17 17 17 43q0 28 -19 41q-20 14 -53 14q-24 0 -35 -4l-57 29l41 110q-146 16 -238 99q-93 83 -100 211
l194 30q5 -75 59 -119q54 -45 146 -45q80 0 126 34t46 93q0 88 -116 121l-162 45q-271 74 -273 291q0 142 104 231q104 87 267 87q158 0 258 -79q101 -80 111 -210l-187 -39q-5 67 -50 107q-46 40 -126 40q-71 0 -112 -33q-41 -35 -41 -92q0 -45 32 -74q31 -30 101 -46
l162 -41q129 -31 193 -109q63 -78 63 -186q0 -137 -96 -223z" />
    <glyph glyph-name="Scaron" unicode="&#x160;" horiz-adv-x="1226" 
d="M516 1903l88 -162l86 162h193l-191 -295h-178l-190 295h192zM883 1081q-12 109 -88 172q-77 62 -195 62q-115 0 -184 -60q-70 -61 -70 -155q0 -86 57 -132q53 -45 166 -77l217 -55q182 -45 270 -153q87 -108 87 -259q0 -136 -64 -237q-63 -101 -184 -158
q-116 -56 -274 -56q-159 0 -275 56q-120 56 -187 156q-69 101 -81 231l227 35q5 -117 90 -189t226 -72q128 0 204 59q74 59 74 163q0 82 -49 130q-50 48 -141 72l-209 54q-205 51 -301 156q-97 103 -97 261q0 134 64 234q62 99 177 155q114 54 259 54q205 0 342 -104
q136 -105 162 -285z" />
    <glyph glyph-name="scaron" unicode="&#x161;" horiz-adv-x="958" 
d="M395 1413l88 -162l86 162h193l-191 -295h-178l-190 295h192zM655 719q-5 67 -50 107q-46 40 -126 40q-71 0 -112 -33q-41 -35 -41 -92q0 -45 32 -74q31 -30 101 -46l162 -41q129 -31 193 -109q63 -78 63 -186q0 -145 -107 -232q-107 -88 -287 -88q-175 0 -282 85
q-108 85 -119 229l194 30q5 -75 59 -119q54 -45 146 -45q80 0 126 34t46 93q0 88 -116 121l-162 45q-271 74 -273 291q0 142 104 231q104 87 267 87q158 0 258 -79q101 -80 111 -210z" />
    <glyph glyph-name="uni0162" unicode="&#x162;" horiz-adv-x="1183" 
d="M651 0l-26 -76q83 4 135 -35q51 -39 51 -112q0 -74 -54 -119q-55 -45 -141 -45q-101 0 -154 46q-54 47 -54 118h129q2 -23 20 -37q19 -14 45 -14q25 0 43 15q17 15 17 42q0 28 -19 41q-20 14 -53 14q-24 0 -35 -4l-57 29l49 137h-70v1280h-426v217h1079v-217h-425v-1280
h-54z" />
    <glyph glyph-name="uni0163" unicode="&#x163;" horiz-adv-x="870" 
d="M498 821v-485q0 -94 42 -134q41 -40 124 -40q53 0 118 14v-174q-98 -29 -186 -29l-21 -57q83 4 136 -35q51 -39 51 -112q0 -74 -54 -119q-56 -45 -141 -45q-101 0 -154 46q-55 46 -55 118h129q2 -23 21 -38q19 -14 45 -14q25 0 42 15q17 17 17 43q0 28 -19 41
q-20 14 -52 14q-24 0 -35 -4l-57 29l47 129q-105 27 -161 111q-56 83 -56 212v514h-240v191h240v278l219 25v-303h284v-191h-284z" />
    <glyph glyph-name="Tcaron" unicode="&#x164;" horiz-adv-x="1183" 
d="M504 1892l88 -161l86 161h192l-190 -295h-178l-191 295h193zM1130 1280h-425v-1280h-228v1280h-426v217h1079v-217z" />
    <glyph glyph-name="tcaron" unicode="&#x165;" horiz-adv-x="862" 
d="M735 1106h-129v391h191zM498 1012h284v-191h-284v-485q0 -94 42 -134q41 -40 124 -40q53 0 118 14v-174q-98 -29 -188 -29q-152 0 -233 89q-82 88 -82 245v514h-240v191h240v278l219 25v-303z" />
    <glyph glyph-name="Tbar" unicode="&#x166;" horiz-adv-x="1210" 
d="M705 1280v-432h417v-158h-417v-690h-228v690h-371v158h371v432h-426v217h1079v-217h-425z" />
    <glyph glyph-name="tbar" unicode="&#x167;" horiz-adv-x="886" 
d="M498 481v-145q0 -94 42 -134q41 -40 124 -40q53 0 118 14v-174q-98 -29 -188 -29q-152 0 -233 89q-82 88 -82 245v174h-242v191h242v149h-240v191h240v278l219 25v-303h284v-191h-284v-149h307v-191h-307z" />
    <glyph glyph-name="Umacron" unicode="&#x16a;" horiz-adv-x="1386" 
d="M997 1794v-164h-602v164h602zM135 1497h230v-932q0 -178 90 -277q90 -100 239 -100q152 0 241 102q89 101 89 275v932h227v-952q0 -172 -67 -302t-194 -201t-296 -71t-296 71t-194 201q-69 131 -69 302v952z" />
    <glyph glyph-name="umacron" unicode="&#x16b;" horiz-adv-x="1105" 
d="M846 1300v-163h-602v163h602zM971 1012v-1012h-207v129q-33 -77 -115 -120q-83 -44 -184 -44q-159 0 -250 103q-92 103 -92 270v674h219v-619q0 -113 54 -167q52 -54 139 -54q104 0 161 69q56 68 56 187v584h219z" />
    <glyph glyph-name="Uring" unicode="&#x16e;" horiz-adv-x="1386" 
d="M516 1902q76 66 182 66t180 -66q74 -68 74 -180q0 -115 -73 -182t-181 -67q-105 0 -182 68q-76 67 -76 181q0 113 76 180zM619 1639q31 -33 79 -33q47 0 79 32t32 82q0 51 -32 83t-79 32q-48 0 -79 -31q-33 -32 -33 -84q0 -50 33 -81zM135 1497h230v-932q0 -178 90 -277
q90 -100 239 -100q152 0 241 102q89 101 89 275v932h227v-952q0 -172 -67 -302t-194 -201t-296 -71t-296 71t-194 201q-69 131 -69 302v952z" />
    <glyph glyph-name="uring" unicode="&#x16f;" horiz-adv-x="1105" 
d="M365 1047q-76 67 -76 182q0 113 76 180q75 66 182 66t180 -67q74 -68 74 -179q0 -114 -74 -182t-180 -68t-182 68zM467 1310q-33 -32 -33 -83q0 -49 33 -82t80 -33t79 32q31 31 31 83t-31 83t-79 31t-80 -31zM971 1012v-1012h-207v129q-33 -77 -115 -120
q-83 -44 -184 -44q-159 0 -250 103q-92 103 -92 270v674h219v-619q0 -113 54 -167q52 -54 139 -54q104 0 161 69q56 68 56 187v584h219z" />
    <glyph glyph-name="Uhungarumlaut" unicode="&#x170;" horiz-adv-x="1386" 
d="M627 1905h227l-209 -289h-196zM977 1905h229l-256 -289h-196zM135 1497h230v-932q0 -178 90 -277q90 -100 239 -100q152 0 241 102q89 101 89 275v932h227v-952q0 -172 -67 -302t-194 -201t-296 -71t-296 71t-194 201q-69 131 -69 302v952z" />
    <glyph glyph-name="uhungarumlaut" unicode="&#x171;" horiz-adv-x="1105" 
d="M475 1411h227l-208 -289h-197zM825 1411h230l-256 -289h-197zM971 1012v-1012h-207v129q-33 -77 -115 -120q-83 -44 -184 -44q-159 0 -250 103q-92 103 -92 270v674h219v-619q0 -113 54 -167q52 -54 139 -54q104 0 161 69q56 68 56 187v584h219z" />
    <glyph glyph-name="Uogonek" unicode="&#x172;" horiz-adv-x="1386" 
d="M1251 1497v-952q0 -234 -121 -385t-337 -183q-76 -33 -116 -70q-40 -36 -40 -71q0 -61 78 -61q39 0 69 18v-153q-60 -29 -129 -29q-85 0 -140 43q-56 44 -56 117q0 127 145 206q-216 27 -343 179q-126 152 -126 389v952h230v-932q0 -178 90 -277q90 -100 239 -100
q152 0 241 102q89 101 89 275v932h227z" />
    <glyph glyph-name="uogonek" unicode="&#x173;" horiz-adv-x="1105" 
d="M889 -207q40 0 69 19v-154q-60 -29 -129 -29q-85 0 -140 43q-56 44 -56 117q0 131 155 211h-24v129q-33 -77 -115 -120q-83 -44 -184 -44q-159 0 -250 103q-92 103 -92 270v674h219v-619q0 -113 54 -167q52 -54 139 -54q104 0 161 69q56 68 56 187v584h219v-1012h4
q-78 -34 -122 -73q-42 -37 -42 -72q0 -62 78 -62z" />
    <glyph glyph-name="Wcircumflex" unicode="&#x174;" horiz-adv-x="2041" 
d="M1098 1597l-88 164l-88 -164h-193l193 295h176l192 -295h-192zM287 1497l264 -1104l354 1104h234l354 -1102l262 1102h252l-393 -1497h-228l-366 1108l-365 -1108h-225l-395 1497h252z" />
    <glyph glyph-name="wcircumflex" unicode="&#x175;" horiz-adv-x="1562" 
d="M872 1104l-88 164l-88 -164h-192l192 295h176l193 -295h-193zM272 1012l142 -486q46 -173 53 -213q13 71 57 213l148 486h227l139 -475q31 -109 60 -224q35 143 59 224l146 475h223l-326 -1012h-207l-149 479q-42 126 -64 223q-7 -44 -59 -221l-154 -481h-211l-319 1012
h235z" />
    <glyph glyph-name="Ycircumflex" unicode="&#x176;" horiz-adv-x="1347" 
d="M760 1585l-88 164l-88 -164h-193l193 295h176l192 -295h-192zM289 1497l383 -668l389 668h260l-537 -905v-592h-223v592l-534 905h262z" />
    <glyph glyph-name="ycircumflex" unicode="&#x177;" horiz-adv-x="1079" 
d="M627 1104l-88 164l-88 -164h-193l193 295h176l192 -295h-192zM1057 1012l-615 -1436h-233l205 479l-391 957h239l262 -697l297 697h236z" />
    <glyph glyph-name="Ydieresis" unicode="&#x178;" horiz-adv-x="1347" 
d="M369 1638q-37 38 -37 99q0 56 38 94q37 37 97 37q59 0 97 -38t38 -93q0 -58 -38 -98q-37 -40 -97 -40q-61 0 -98 39zM781 1638q-38 40 -38 99q0 55 38 93t98 38q61 0 98 -37t37 -94q0 -60 -37 -98q-37 -40 -98 -40t-98 39zM289 1497l383 -668l389 668h260l-537 -905v-592
h-223v592l-534 905h262z" />
    <glyph glyph-name="Zacute" unicode="&#x179;" horiz-adv-x="1144" 
d="M610 1886h219l-190 -289h-160zM78 211l706 1067h-696v217l979 2v-211l-711 -1069h691v-217h-969v211z" />
    <glyph glyph-name="zacute" unicode="&#x17a;" horiz-adv-x="921" 
d="M539 1104h-160l131 289h219zM829 205v-205h-739v182l481 625h-477v205h733v-197l-469 -610h471z" />
    <glyph glyph-name="Zdotaccent" unicode="&#x17b;" horiz-adv-x="1144" 
d="M460 1651q-38 40 -38 98t38 96q37 37 99 37q61 0 97 -37t36 -96q0 -60 -37 -98q-37 -39 -96 -39q-61 0 -99 39zM78 211l706 1067h-696v217l979 2v-211l-711 -1069h691v-217h-969v211z" />
    <glyph glyph-name="zdotaccent" unicode="&#x17c;" horiz-adv-x="921" 
d="M360 1157q-38 40 -38 98q0 59 38 97q37 37 99 37q61 0 97 -37q36 -38 36 -97q0 -60 -37 -98q-37 -39 -96 -39q-61 0 -99 39zM829 205v-205h-739v182l481 625h-477v205h733v-197l-469 -610h471z" />
    <glyph glyph-name="Zcaron" unicode="&#x17d;" horiz-adv-x="1144" 
d="M471 1892l88 -161l86 161h193l-191 -295h-178l-190 295h192zM78 211l706 1067h-696v217l979 2v-211l-711 -1069h691v-217h-969v211z" />
    <glyph glyph-name="zcaron" unicode="&#x17e;" horiz-adv-x="921" 
d="M371 1399l88 -162l86 162h192l-190 -295h-178l-191 295h193zM829 205v-205h-739v182l481 625h-477v205h733v-197l-469 -610h471z" />
    <glyph glyph-name="florin" unicode="&#x192;" horiz-adv-x="1267" 
d="M900 1296q-43 -40 -66 -145l-29 -143h309v-197h-352l-141 -711q-38 -174 -125 -253q-88 -78 -240 -78q-70 0 -162 18v186q4 0 33 -6t72 -6q93 0 139 46q47 47 65 136l140 668h-217v197h260l39 209q31 160 121 235q91 74 245 74q92 0 160 -17v-184q-56 12 -113 12
q-94 0 -138 -41z" />
    <glyph glyph-name="AEacute" unicode="&#x1fc;" horiz-adv-x="1804" 
d="M1303 1554h-160l131 289h219zM1135 1239v-395h530v-215h-530v-414h591v-215h-817v293h-460l-152 -293h-272l776 1454h925v-215h-591zM909 500v678l-352 -678h352z" />
    <glyph glyph-name="aeacute" unicode="&#x1fd;" horiz-adv-x="1697" 
d="M913 1087h-159l131 289h219zM1606 432h-672q1 -128 69 -202q66 -74 179 -74q88 0 155 45q66 45 93 125l172 -66q-40 -133 -155 -210t-269 -77q-132 0 -228 53q-99 53 -157 150q-45 -98 -141 -150q-96 -53 -218 -53q-151 0 -249 80q-97 79 -97 230q0 130 92 216
q91 85 256 85h168q46 0 69 23q21 23 21 71q0 78 -51 118q-50 40 -137 40q-92 0 -150 -45q-60 -47 -67 -121l-170 53q26 141 131 217q106 76 266 76q225 0 326 -137q122 137 329 137q203 0 319 -128t116 -335v-121zM1000 768q-61 -66 -66 -170h448q0 107 -58 171
q-59 65 -161 65q-101 0 -163 -66zM694 424h-217q-85 0 -128 -35q-42 -35 -42 -98t41 -99q40 -36 121 -36q104 0 165 58q60 58 60 157v53z" />
    <glyph glyph-name="uni0218" unicode="&#x218;" horiz-adv-x="1226" 
d="M531 -137q43 41 110 41q63 0 104 -41t41 -103q0 -48 -36 -104l-129 -203h-107l88 162q-51 10 -82 49q-31 38 -31 94q0 64 42 105zM883 1081q-12 109 -88 172q-77 62 -195 62q-115 0 -184 -60q-70 -61 -70 -155q0 -86 57 -132q53 -45 166 -77l217 -55q182 -45 270 -153
q87 -108 87 -259q0 -136 -64 -237q-63 -101 -184 -158q-116 -56 -274 -56q-159 0 -275 56q-120 56 -187 156q-69 101 -81 231l227 35q5 -117 90 -189t226 -72q128 0 204 59q74 59 74 163q0 82 -49 130q-50 48 -141 72l-209 54q-205 51 -301 156q-97 103 -97 261
q0 134 64 234q62 99 177 155q114 54 259 54q205 0 342 -104q136 -105 162 -285z" />
    <glyph glyph-name="uni0219" unicode="&#x219;" horiz-adv-x="958" 
d="M376 -131q43 41 109 41q62 0 105 -41q41 -41 41 -102q0 -50 -37 -105l-129 -203h-107l88 162q-51 11 -81 49q-31 38 -31 94q0 64 42 105zM655 719q-5 67 -50 107q-46 40 -126 40q-71 0 -112 -33q-41 -35 -41 -92q0 -45 32 -74q31 -30 101 -46l162 -41q129 -31 193 -109
q63 -78 63 -186q0 -145 -107 -232q-107 -88 -287 -88q-175 0 -282 85q-108 85 -119 229l194 30q5 -75 59 -119q54 -45 146 -45q80 0 126 34t46 93q0 88 -116 121l-162 45q-271 74 -273 291q0 142 104 231q104 87 267 87q158 0 258 -79q101 -80 111 -210z" />
    <glyph glyph-name="uni021A" unicode="&#x21a;" horiz-adv-x="1183" 
d="M495 -127q43 41 109 41q62 0 105 -41q41 -41 41 -102q0 -50 -37 -105l-129 -203h-107l88 162q-51 11 -81 49q-31 38 -31 95q0 63 42 104zM1130 1280h-425v-1280h-228v1280h-426v217h1079v-217z" />
    <glyph glyph-name="uni021B" unicode="&#x21b;" horiz-adv-x="870" 
d="M445 -135q43 41 110 41q63 0 104 -41t41 -103q0 -48 -36 -104l-129 -203h-107l88 162q-51 10 -82 49q-31 38 -31 94q0 64 42 105zM498 821v-485q0 -94 42 -134q41 -40 124 -40q53 0 118 14v-174q-98 -29 -188 -29q-152 0 -233 89q-82 88 -82 245v514h-240v191h240v278
l219 25v-303h284v-191h-284z" />
    <glyph glyph-name="circumflex" unicode="&#x2c6;" horiz-adv-x="813" 
d="M494 1356l-88 164l-89 -164h-192l192 295h177l192 -295h-192z" />
    <glyph glyph-name="caron" unicode="&#x2c7;" horiz-adv-x="813" 
d="M319 1651l89 -162l86 162h192l-190 -295h-179l-190 295h192z" />
    <glyph glyph-name="breve" unicode="&#x2d8;" horiz-adv-x="704" 
d="M653 1638q1 -139 -81 -218t-218 -79q-135 0 -217 79q-81 79 -80 218h162q-2 -68 34 -104q36 -37 101 -37q66 0 102 37q36 38 36 104h161z" />
    <glyph glyph-name="dotaccent" unicode="&#x2d9;" horiz-adv-x="473" 
d="M138 1385q-38 38 -38 98q0 58 38 96q37 37 100 37q61 0 97 -37t36 -96q0 -60 -37 -98q-38 -39 -96 -39q-62 0 -100 39z" />
    <glyph glyph-name="ring" unicode="&#x2da;" horiz-adv-x="624" 
d="M133 1658q77 66 182 66q107 0 180 -66q74 -68 74 -179q0 -115 -73 -182q-74 -68 -181 -68q-105 0 -182 68q-76 67 -76 182q0 112 76 179zM236 1395q31 -33 79 -33q47 0 79 32t32 83t-32 83q-31 31 -79 31t-79 -31q-33 -32 -33 -83t33 -82z" />
    <glyph glyph-name="ogonek" unicode="&#x2db;" horiz-adv-x="555" 
d="M297 -371q-85 0 -140 43q-57 44 -57 117q0 141 181 223l161 -12q-79 -34 -121 -73q-42 -37 -42 -72q0 -60 77 -62q39 0 70 19v-154q-60 -29 -129 -29z" />
    <glyph glyph-name="tilde" unicode="&#x2dc;" horiz-adv-x="798" 
d="M350 1612q37 -16 82 -41q24 -13 56 -28q24 -11 44 -11q59 0 60 61q0 15 -2 27h137q6 -33 6 -61q0 -90 -48 -141q-48 -52 -124 -52q-43 0 -77 15q-30 12 -81 38q-38 20 -50 25q-24 10 -44 10q-53 0 -53 -57q0 -8 4 -31h-137q-8 37 -8 74q0 85 46 134q47 50 120 50
q37 0 69 -12z" />
    <glyph glyph-name="hungarumlaut" unicode="&#x2dd;" horiz-adv-x="868" 
d="M266 1638h228l-209 -288h-197zM616 1638h230l-256 -288h-197z" />
    <glyph glyph-name="gravecomb" unicode="&#x300;" 
d="M-229 1350l-199 288h231l140 -288h-172z" />
    <glyph glyph-name="acutecomb" unicode="&#x301;" 
d="M-190 1638h219l-191 -288h-160z" />
    <glyph glyph-name="uni0302" unicode="&#x302;" 
d="M-319 1356l-89 164l-88 -164h-192l192 295h177l192 -295h-192z" />
    <glyph glyph-name="tildecomb" unicode="&#x303;" 
d="M-449 1612q37 -16 82 -41q30 -16 55 -28q24 -11 46 -11q59 0 59 61q0 15 -2 27h137q6 -33 6 -61q0 -90 -48 -141q-48 -52 -124 -52q-44 0 -78 15q-29 11 -79 38q-34 18 -51 25q-24 10 -43 10q-53 0 -54 -57q0 -8 4 -31h-137q-8 37 -8 74q0 85 46 134q47 50 120 50
q39 0 69 -12z" />
    <glyph glyph-name="uni0304" unicode="&#x304;" 
d="M-78 1591v-164h-602v164h602z" />
    <glyph glyph-name="uni0306" unicode="&#x306;" 
d="M-51 1638q1 -139 -81 -218t-218 -79q-135 0 -217 79q-81 79 -80 218h162q-2 -68 33 -104q36 -37 102 -37q67 0 101 37q36 38 36 104h162z" />
    <glyph glyph-name="uni0307" unicode="&#x307;" 
d="M-335 1385q-38 38 -38 98q0 58 38 96q37 37 99 37q61 0 97 -37q37 -37 37 -96q0 -60 -37 -98q-37 -39 -97 -39q-62 0 -99 39z" />
    <glyph glyph-name="uni0308" unicode="&#x308;" 
d="M-725 1385q-37 37 -37 98q0 56 38 94q37 37 97 37q59 0 97 -38t38 -93q0 -58 -38 -98q-38 -39 -97 -39q-61 0 -98 39zM-312 1385q-38 38 -38 98q0 55 38 93t97 38q61 0 98 -37t37 -94q0 -60 -37 -98q-38 -39 -98 -39q-59 0 -97 39z" />
    <glyph glyph-name="uni030A" unicode="&#x30a;" 
d="M-494 1658q76 66 183 66t180 -66q74 -68 74 -179q0 -114 -74 -182t-180 -68q-105 0 -182 68q-76 67 -76 182q0 111 75 179zM-391 1395q33 -33 80 -33q46 0 78 32t32 83t-32 83q-31 31 -78 31q-48 0 -80 -31q-33 -32 -33 -83t33 -82z" />
    <glyph glyph-name="uni030B" unicode="&#x30b;" 
d="M-600 1638h227l-209 -288h-196zM-250 1638h230l-256 -288h-197z" />
    <glyph glyph-name="uni030C" unicode="&#x30c;" 
d="M-494 1651l88 -162l87 162h192l-190 -295h-179l-190 295h192z" />
    <glyph glyph-name="uni0312" unicode="&#x312;" 
d="M4 1386q-40 -40 -108 -40q-64 0 -104 40q-40 39 -40 103q0 50 29 96l135 209h107l-89 -162q51 -10 81 -48t30 -95q0 -64 -41 -103z" />
    <glyph glyph-name="uni0326" unicode="&#x326;" 
d="M-396 -41q43 41 109 41q63 0 104 -41q42 -41 42 -102q0 -50 -37 -105l-129 -203h-107l88 162q-51 10 -82 49q-30 39 -30 95q0 63 42 104z" />
    <glyph glyph-name="uni0327" unicode="&#x327;" 
d="M-254 -14l-31 -86q83 4 135 -35t52 -113t-55 -119q-54 -45 -140 -45q-100 0 -155 46q-54 47 -54 118h129q2 -23 20 -37q20 -14 46 -14q25 0 42 15q17 17 17 42q0 27 -20 41q-20 15 -51 15q-24 0 -35 -4l-58 28l64 174z" />
    <glyph glyph-name="uni0328" unicode="&#x328;" 
d="M-258 -371q-85 0 -141 43q-56 44 -56 117q0 141 181 223l161 -12q-78 -34 -122 -73q-41 -38 -41 -72q0 -60 77 -62q39 0 70 19v-154q-60 -29 -129 -29z" />
    <glyph glyph-name="uni0335" unicode="&#x335;" 
d="M-16 694v-157h-732v157h732z" />
    <glyph glyph-name="uni0336" unicode="&#x336;" 
d="M-158 700v-170h-1171v170h1171z" />
    <glyph glyph-name="uni0337" unicode="&#x337;" 
d="M-188 1169h219l-883 -1239h-219z" />
    <glyph glyph-name="uni0338" unicode="&#x338;" 
d="M-401 1067h168l-771 -1102h-167z" />
    <glyph glyph-name="Theta" unicode="&#x398;" horiz-adv-x="1579" 
d="M424 71q-159 98 -248 276q-88 176 -88 405q0 227 89 403q88 175 250 275q161 98 370 98t371 -99q160 -101 249 -276q88 -175 88 -401q0 -228 -89 -406q-88 -178 -249 -276q-161 -99 -372 -99t-371 100zM1037 271q104 69 161 194q57 124 57 287q0 160 -57 285
q-57 124 -161 195q-106 71 -242 71q-135 0 -239 -71q-104 -70 -163 -196t-59 -284q0 -159 59 -286q59 -126 162 -195q103 -70 240 -70q138 0 242 70zM1030 831v-161h-479v161h479z" />
    <glyph glyph-name="uni03A9" unicode="&#x3a9;" horiz-adv-x="1830" 
d="M1702 242v-242h-672v250q179 73 276 220q95 146 95 321q0 137 -63 244q-64 106 -174 166q-112 59 -246 59q-136 0 -248 -59q-111 -60 -175 -166q-65 -107 -65 -247q0 -178 99 -323q98 -146 274 -215v-250h-672v242h297q-131 110 -203 258q-73 147 -73 319q0 198 98 361
q98 160 273 255q175 93 397 93q224 0 397 -94q174 -94 269 -256q95 -163 95 -357q0 -171 -71 -321q-72 -150 -207 -258h299z" />
    <glyph glyph-name="uni03BC" unicode="&#x3bc;" horiz-adv-x="1224" 
d="M723 7q-76 -40 -170 -40q-125 0 -205 78v-444h-209v1413h221v-617q0 -114 56 -181q56 -66 174 -66q109 0 167 70q58 68 58 186v608h223v-1014h-207v121q-31 -73 -108 -114z" />
    <glyph glyph-name="pi" unicode="&#x3c0;" horiz-adv-x="1245" 
d="M1006 -14q-118 0 -186 66q-68 65 -68 194v575h-281v-821h-221v821h-156v193h1065v-193h-186v-530q0 -59 30 -83q29 -24 84 -24q40 0 76 11v-187q-56 -22 -157 -22z" />
    <glyph glyph-name="uni04D9" unicode="&#x4d9;" horiz-adv-x="1169" 
d="M833 980q113 -68 176 -189q62 -124 62 -285q0 -162 -62 -284q-63 -122 -175 -189q-111 -68 -261 -68q-142 0 -249 61q-110 60 -168 171q-60 109 -60 254q0 65 15 124h743q-2 129 -80 206q-79 77 -205 77q-103 0 -182 -49q-81 -50 -106 -129l-181 72q44 134 173 214
q130 81 298 81q149 0 262 -67zM768 223q79 71 86 183h-532q1 -114 71 -184q67 -70 182 -70q114 0 193 71z" />
    <glyph glyph-name="uni0E3F" unicode="&#xe3f;" horiz-adv-x="1232" 
d="M1018 536q44 -75 45 -169q0 -171 -105 -269q-107 -98 -294 -98h-39v-229h-105v229h-350v1300h350v197h105v-197h8q192 -1 300 -100q107 -98 107 -268q0 -96 -39 -167q-42 -72 -112 -112q85 -43 129 -117zM371 735h149v373h-149v-373zM625 1108v-373h8q92 0 143 52
q51 51 51 135q0 87 -53 137q-52 49 -143 49h-6zM520 193v368h-149v-368h149zM798 243q52 49 52 134q0 86 -52 135t-141 49h-32v-368h26q94 0 147 50z" />
    <glyph glyph-name="Wgrave" unicode="&#x1e80;" horiz-adv-x="2041" 
d="M926 1622l-199 289h231l140 -289h-172zM287 1497l264 -1104l354 1104h234l354 -1102l262 1102h252l-393 -1497h-228l-366 1108l-365 -1108h-225l-395 1497h252z" />
    <glyph glyph-name="wgrave" unicode="&#x1e81;" horiz-adv-x="1562" 
d="M700 1128l-198 289h231l139 -289h-172zM272 1012l142 -486q46 -173 53 -213q13 71 57 213l148 486h227l139 -475q31 -109 60 -224q35 143 59 224l146 475h223l-326 -1012h-207l-149 479q-42 126 -64 223q-7 -44 -59 -221l-154 -481h-211l-319 1012h235z" />
    <glyph glyph-name="Wacute" unicode="&#x1e82;" horiz-adv-x="2041" 
d="M1063 1886h219l-190 -289h-160zM287 1497l264 -1104l354 1104h234l354 -1102l262 1102h252l-393 -1497h-228l-366 1108l-365 -1108h-225l-395 1497h252z" />
    <glyph glyph-name="wacute" unicode="&#x1e83;" horiz-adv-x="1562" 
d="M838 1393h219l-191 -289h-159zM272 1012l142 -486q46 -173 53 -213q13 71 57 213l148 486h227l139 -475q31 -109 60 -224q35 143 59 224l146 475h223l-326 -1012h-207l-149 479q-42 126 -64 223q-7 -44 -59 -221l-154 -481h-211l-319 1012h235z" />
    <glyph glyph-name="Wdieresis" unicode="&#x1e84;" horiz-adv-x="2041" 
d="M707 1651q-37 38 -37 98q0 56 38 94q37 37 97 37q59 0 97 -38t38 -93q0 -58 -38 -98q-38 -39 -97 -39q-62 0 -98 39zM1119 1651q-38 40 -38 98q0 55 38 93t98 38q61 0 98 -37t37 -94q0 -60 -37 -98q-37 -39 -98 -39t-98 39zM287 1497l264 -1104l354 1104h234l354 -1102
l262 1102h252l-393 -1497h-228l-366 1108l-365 -1108h-225l-395 1497h252z" />
    <glyph glyph-name="wdieresis" unicode="&#x1e85;" horiz-adv-x="1562" 
d="M481 1157q-37 38 -37 98q0 56 38 94q37 37 98 37q60 0 97 -37q38 -38 38 -94q0 -58 -38 -98q-37 -39 -97 -39q-62 0 -99 39zM894 1157q-38 40 -38 98q0 55 38 93t97 38q61 0 98 -36q37 -37 37 -95q0 -59 -36 -98q-38 -39 -99 -39q-59 0 -97 39zM272 1012l142 -486
q46 -173 53 -213q13 71 57 213l148 486h227l139 -475q31 -109 60 -224q35 143 59 224l146 475h223l-326 -1012h-207l-149 479q-42 126 -64 223q-7 -44 -59 -221l-154 -481h-211l-319 1012h235z" />
    <glyph glyph-name="Ygrave" unicode="&#x1ef2;" horiz-adv-x="1347" 
d="M588 1610l-199 288h232l139 -288h-172zM289 1497l383 -668l389 668h260l-537 -905v-592h-223v592l-534 905h262z" />
    <glyph glyph-name="ygrave" unicode="&#x1ef3;" horiz-adv-x="1079" 
d="M455 1128l-199 289h231l140 -289h-172zM1057 1012l-615 -1436h-233l205 479l-391 957h239l262 -697l297 697h236z" />
    <glyph glyph-name="endash" unicode="&#x2013;" horiz-adv-x="1728" 
d="M1548 475h-1368v162h1368v-162z" />
    <glyph glyph-name="emdash" unicode="&#x2014;" horiz-adv-x="2217" 
d="M2038 475h-1858v162h1858v-162z" />
    <glyph glyph-name="quoteleft" unicode="&#x2018;" horiz-adv-x="491" 
d="M374 1189q27 -37 27 -91q0 -70 -44 -114t-113 -44q-74 0 -120 43t-46 113q0 60 45 121l196 280l89 -51l-111 -207q48 -12 77 -50z" />
    <glyph glyph-name="quoteright" unicode="&#x2019;" horiz-adv-x="512" 
d="M381 1488q47 -44 47 -114q0 -58 -47 -125l-201 -291l-96 56l115 211q-52 12 -80 52q-29 41 -29 95q0 70 47 115q46 45 121 45q76 0 123 -44z" />
    <glyph glyph-name="quotesinglbase" unicode="&#x201a;" horiz-adv-x="538" 
d="M373 254q45 -45 45 -115q0 -74 -49 -141l-209 -303l-97 57l130 236q-51 14 -81 54q-30 41 -30 95q0 72 47 117t123 45t121 -45z" />
    <glyph glyph-name="quotedblleft" unicode="&#x201c;" horiz-adv-x="909" 
d="M416 1446l-113 -207q49 -12 78 -50t29 -91q0 -70 -45 -114q-47 -44 -115 -44q-74 0 -120 43t-46 113q0 60 45 121l195 282zM791 1189q28 -37 28 -91q0 -68 -46 -113q-47 -45 -114 -45q-77 0 -120 43q-45 44 -45 113q0 55 45 121l194 280l92 -51l-112 -207q49 -12 78 -50z
" />
    <glyph glyph-name="quotedblright" unicode="&#x201d;" horiz-adv-x="909" 
d="M371 1490q45 -42 45 -110q0 -57 -45 -123l-197 -282l-90 51l111 207q-48 12 -77 51q-28 38 -28 94q0 67 46 110q47 44 116 44q74 0 119 -42zM779 1489q46 -43 46 -109q0 -62 -43 -123l-196 -284l-92 53l110 207q-49 12 -76 51q-28 38 -28 94q0 67 46 110q47 44 116 44
q71 0 117 -43z" />
    <glyph glyph-name="quotedblbase" unicode="&#x201e;" horiz-adv-x="1077" 
d="M403 254q45 -44 46 -115q0 -73 -50 -141l-209 -303l-96 57l129 236q-51 14 -81 54q-30 41 -29 95q0 72 47 117q46 45 123 45q75 0 120 -45zM897 254q45 -45 45 -115q0 -74 -49 -141l-209 -303l-96 57l129 236q-51 14 -81 54t-30 95q0 72 47 117t123 45t121 -45z" />
    <glyph glyph-name="dagger" unicode="&#x2020;" horiz-adv-x="692" 
d="M418 623h-144v542h-215v133h215v199h144v-199h215v-133h-215v-542z" />
    <glyph glyph-name="daggerdbl" unicode="&#x2021;" horiz-adv-x="692" 
d="M59 954h215v211h-215v133h215v199h144v-199h215v-133h-215v-211h215v-133h-215v-198h-144v198h-215v133z" />
    <glyph glyph-name="bullet" unicode="&#x2022;" horiz-adv-x="794" 
d="M240 228q-72 42 -114 115t-42 159q0 84 42 156q42 71 114 113q71 42 157 42t158 -42t114 -113q42 -72 42 -156q0 -86 -42 -159t-114 -115t-158 -42q-87 0 -157 42z" />
    <glyph glyph-name="ellipsis" unicode="&#x2026;" horiz-adv-x="1601" 
d="M137 16q-47 47 -47 121q0 71 47 118q46 46 123 46q73 0 120 -46q48 -46 48 -118t-48 -120t-120 -48q-76 0 -123 47zM679 16q-46 46 -46 121q0 74 46 119q47 45 122 45q76 0 121 -45t45 -119q0 -75 -46 -121q-47 -47 -120 -47q-75 0 -122 47zM1221 18q-47 49 -47 119
q0 71 47 118q46 46 118 46q79 0 125 -45q47 -45 47 -119t-47 -121t-125 -47q-72 0 -118 49z" />
    <glyph glyph-name="perthousand" unicode="&#x2030;" horiz-adv-x="2236" 
d="M207 1417q78 99 209 99q132 0 212 -99q79 -100 79 -260q0 -159 -78 -260q-78 -100 -213 -100q-134 0 -210 100q-77 101 -77 260t78 260zM328 4l-123 92l1050 1397l123 -92zM326 1009q32 -53 90 -53q59 0 92 53t33 148q0 96 -32 149q-31 52 -93 52q-59 0 -91 -53
q-32 -55 -32 -148q0 -95 33 -148zM950 602q78 98 211 98q132 0 212 -98q79 -97 79 -260q0 -161 -79 -261q-80 -101 -212 -101q-133 0 -211 102t-78 260q0 162 78 260zM1611 602q80 98 212 98q133 0 211 -98q77 -98 77 -260q0 -160 -77 -261q-78 -101 -211 -101
q-132 0 -212 101q-79 100 -79 261q0 163 79 260zM1070 193q31 -52 91 -52t91 52q32 52 32 149q0 96 -30 149q-31 52 -93 52q-59 0 -91 -53q-32 -55 -32 -148q0 -97 32 -149zM1731 194q32 -53 92 -53q57 0 90 53q33 52 33 148q0 97 -31 149t-92 52t-93 -53q-32 -55 -32 -148
q0 -96 33 -148z" />
    <glyph glyph-name="minute" unicode="&#x2032;" horiz-adv-x="759" 
d="M399 1497h234l-305 -627h-201z" />
    <glyph glyph-name="second" unicode="&#x2033;" horiz-adv-x="1198" 
d="M399 1497h234l-305 -627h-201zM840 1497h233l-305 -627h-201z" />
    <glyph glyph-name="guilsinglleft" unicode="&#x2039;" horiz-adv-x="780" 
d="M356 535l342 -482h-260l-344 482l344 477h260z" />
    <glyph glyph-name="guilsinglright" unicode="&#x203a;" horiz-adv-x="780" 
d="M686 535l-342 -482h-262l344 482l-344 477h262z" />
    <glyph glyph-name="fraction" unicode="&#x2044;" horiz-adv-x="477" 
d="M-131 -106h-154l916 1742h151z" />
    <glyph glyph-name="uni2070" unicode="&#x2070;" horiz-adv-x="1038" 
d="M140 1367q56 128 155 194q100 67 231 67q199 0 314 -150q114 -152 114 -405q0 -174 -54 -300t-153 -192q-100 -67 -231 -67q-200 0 -316 150q-116 149 -116 403q0 173 56 300zM348 799q62 -99 172 -99q113 0 176 101q62 101 62 270q0 172 -63 271q-65 98 -175 98
q-113 0 -174 -100t-61 -271q0 -173 63 -270z" />
    <glyph glyph-name="uni2074" unicode="&#x2074;" horiz-adv-x="962" 
d="M72 907l377 699h223l-387 -701h293v352h186v-352h151v-180h-151v-193h-186v193l-506 2v180z" />
    <glyph glyph-name="uni2075" unicode="&#x2075;" horiz-adv-x="907" 
d="M744 1170q98 -104 98 -271q0 -173 -104 -279q-105 -106 -275 -106q-163 0 -267 93q-103 93 -114 251l197 27q2 -85 51 -134q50 -51 129 -51q82 0 133 55q51 54 51 140q0 92 -51 149q-51 56 -137 56q-60 0 -104 -28q-47 -29 -66 -77h-197l84 611h604v-181h-440l-31 -206
q64 53 180 53q160 0 259 -102z" />
    <glyph glyph-name="uni2076" unicode="&#x2076;" horiz-adv-x="905" 
d="M750 1162q94 -103 94 -269q0 -171 -105 -274q-107 -105 -276 -105q-171 0 -274 105q-105 103 -105 272q0 88 28 154q25 63 89 155l274 406h250l-246 -344q10 2 23 2q154 0 248 -102zM595 754q50 53 50 141q0 89 -50 144q-50 53 -130 53q-83 0 -132 -54q-50 -56 -50 -143
q0 -88 50 -141q49 -54 130 -54q83 0 132 54z" />
    <glyph glyph-name="uni2077" unicode="&#x2077;" horiz-adv-x="768" 
d="M737 1606v-174l-454 -900h-234l461 893h-479v181h706z" />
    <glyph glyph-name="uni2078" unicode="&#x2078;" horiz-adv-x="944" 
d="M819 1006q45 -72 45 -166q0 -145 -108 -235q-109 -91 -285 -91q-114 0 -204 41q-88 40 -138 116q-49 73 -49 171q0 92 45 164q45 71 121 102q-59 32 -93 88t-34 135q0 131 97 215q98 84 255 84q158 0 256 -83t98 -214q0 -78 -34 -136q-34 -57 -93 -89q76 -31 121 -102z
M359 1407q-42 -37 -42 -98t42 -99q42 -39 112 -39q69 0 112 38q42 37 42 100q0 61 -42 98q-41 37 -112 37t-112 -37zM611 743q53 45 53 117q0 73 -52 116q-53 44 -141 44q-86 0 -139 -44t-53 -116q0 -74 53 -118t139 -44t140 45z" />
    <glyph glyph-name="uni2079" unicode="&#x2079;" horiz-adv-x="917" 
d="M730 1521q104 -104 104 -272q0 -82 -29 -151q-30 -70 -90 -160l-277 -406h-245l245 342q-10 -2 -18 -2q-158 0 -252 102q-94 100 -94 263q0 175 105 282q103 105 276 105q171 0 275 -103zM585 1102q50 53 50 141q0 90 -50 143q-49 52 -132 52q-80 0 -130 -53
q-51 -54 -51 -142q0 -89 51 -142q49 -52 130 -52q82 0 132 53z" />
    <glyph glyph-name="uni2080" unicode="&#x2080;" horiz-adv-x="1038" 
d="M140 630q56 128 155 194q100 67 231 67q199 0 314 -150q114 -151 114 -405q0 -174 -54 -300q-54 -125 -153 -193q-101 -66 -231 -66q-200 0 -316 149q-116 151 -116 404q0 173 56 300zM348 62q62 -99 172 -99q114 0 176 101t62 270q0 172 -63 270q-65 98 -175 98
q-113 0 -174 -100t-61 -270q0 -172 63 -270z" />
    <glyph glyph-name="uni2081" unicode="&#x2081;" horiz-adv-x="614" 
d="M487 868v-1073h-184v760h-227v131q114 0 167 47t60 135h184z" />
    <glyph glyph-name="uni2082" unicode="&#x2082;" horiz-adv-x="886" 
d="M805 -23v-178l-674 -4v158l377 407q53 57 71 101q19 44 19 90q0 77 -42 121q-42 43 -116 43q-78 0 -123 -50q-45 -51 -45 -128q0 -19 2 -35l-178 22q-2 18 -2 45q0 91 42 164q42 74 121 117t187 43q163 0 257 -91t94 -245q0 -100 -37 -173q-38 -74 -107 -146l-235 -261
h389z" />
    <glyph glyph-name="uni2083" unicode="&#x2083;" horiz-adv-x="870" 
d="M727 371q74 -91 74 -226q0 -106 -48 -190q-48 -85 -135 -131q-89 -47 -200 -47q-154 0 -254 84q-102 85 -115 225l195 43q5 -79 54 -122q50 -44 124 -44q82 0 131 52q49 50 49 135q0 84 -51 131q-52 47 -133 47q-55 0 -92 -19l-60 154l217 223l-395 2v180h662v-166
l-222 -227q125 -14 199 -104z" />
    <glyph glyph-name="uni2084" unicode="&#x2084;" horiz-adv-x="962" 
d="M72 170l377 698h223l-387 -700h293v352h186v-352h151v-180h-151v-193h-186v193l-506 2v180z" />
    <glyph glyph-name="uni2085" unicode="&#x2085;" horiz-adv-x="907" 
d="M744 433q98 -104 98 -271q0 -173 -104 -280q-105 -105 -275 -105q-163 0 -267 93q-103 93 -114 251l197 26q2 -85 51 -134q50 -50 129 -50q82 0 133 55q51 54 51 140q0 93 -51 148q-51 56 -137 56q-59 0 -104 -27q-47 -29 -66 -77h-197l84 610h604v-180h-440l-31 -207
q63 53 180 54q160 0 259 -102z" />
    <glyph glyph-name="uni2086" unicode="&#x2086;" horiz-adv-x="905" 
d="M750 424q94 -101 94 -268q0 -170 -105 -275q-107 -104 -276 -104q-170 0 -274 104q-105 105 -105 273q0 88 28 154q25 63 89 155l274 405h250l-246 -344q10 2 23 2q154 0 248 -102zM595 17q50 53 50 141q0 90 -50 143t-130 53q-83 0 -132 -54q-50 -55 -50 -142
q0 -88 50 -141q49 -54 130 -54q83 0 132 54z" />
    <glyph glyph-name="uni2087" unicode="&#x2087;" horiz-adv-x="768" 
d="M737 868v-174l-454 -899h-234l461 893h-479v180h706z" />
    <glyph glyph-name="uni2088" unicode="&#x2088;" horiz-adv-x="944" 
d="M819 269q45 -72 45 -167q0 -145 -108 -235q-110 -90 -285 -90q-174 0 -282 90q-109 90 -109 237q0 92 45 164t121 103q-59 32 -93 88t-34 135q0 131 97 215q98 84 255 84q158 0 256 -83t98 -214q0 -78 -34 -136q-35 -59 -93 -89q76 -31 121 -102zM359 670
q-42 -38 -42 -99t42 -99q43 -38 112 -38t112 38q42 38 42 99t-42 99q-41 37 -112 37t-112 -37zM611 6q53 45 53 117q0 73 -52 116q-53 44 -141 44q-86 0 -139 -44t-53 -116q0 -74 53 -118t139 -44t140 45z" />
    <glyph glyph-name="uni2089" unicode="&#x2089;" horiz-adv-x="917" 
d="M730 784q104 -104 104 -272q0 -82 -29 -151q-30 -70 -90 -160l-277 -406h-245l245 342q-8 -2 -14 -2q-158 0 -254 100q-96 99 -96 265q0 176 105 282q103 105 276 105q171 0 275 -103zM585 365q50 53 50 141q0 89 -50 142q-49 52 -132 52q-80 0 -130 -53
q-51 -53 -51 -141q0 -90 51 -142q50 -53 130 -53q83 0 132 54z" />
    <glyph glyph-name="uni20A9" unicode="&#x20a9;" horiz-adv-x="1849" 
d="M1731 696h-197l-127 -696h-254l-141 696h-172l-142 -696h-254l-129 696h-196v117h176l-127 684h240l106 -684h168l139 684h207l139 -684h168l107 684h239l-125 -684h175v-117zM987 813l-61 301l-62 -301h123zM659 696h-127l56 -354zM1317 696h-127l72 -352z" />
    <glyph glyph-name="Euro" unicode="&#x20ac;" horiz-adv-x="1409" 
d="M996 200q76 41 120 109l156 -127q-73 -105 -191 -160q-120 -57 -262 -57q-226 0 -380 143q-155 143 -201 410h-101v154h84q-2 34 -2 78q0 37 2 67h-84v154h99q46 269 202 414q155 143 381 143q145 0 264 -57q119 -59 189 -160l-156 -125q-50 73 -126 110q-75 37 -169 37
q-303 0 -368 -362h495l-18 -154h-494q-2 -30 -2 -67q0 -44 2 -78h482l-17 -154h-448q70 -358 368 -358q99 0 175 40z" />
    <glyph glyph-name="uni20B9" unicode="&#x20b9;" horiz-adv-x="1298" 
d="M872 1325q71 -89 91 -233h243v-170h-245q-27 -183 -165 -292q-140 -110 -366 -110h-65l477 -520h-279l-471 520v172h285q308 0 352 230h-633v170h635q-44 233 -354 233h-285v172h1114v-172h-334z" />
    <glyph glyph-name="uni20BA" unicode="&#x20ba;" horiz-adv-x="1247" 
d="M1043 306q-86 -147 -252 -230q-165 -82 -398 -82q-53 0 -102 6v725l-185 -68v138l185 65v109l-185 -68v137l185 64v395h223v-315l346 123v-136l-346 -122v-107l344 121v-133l-344 -123v-598q189 11 293 121q103 109 111 319h212q0 -194 -87 -341z" />
    <glyph glyph-name="uni20BD" unicode="&#x20bd;" horiz-adv-x="1417" 
d="M111 420h127v131h-127v199h127v747h553q149 0 262 -60q113 -62 174 -167q61 -106 61 -242q0 -138 -61 -245q-61 -108 -174 -170t-262 -62h-326v-131h387v-172h-387v-248h-227v248h-127v172zM770 750q131 0 207 76q76 75 76 192q0 134 -76 201t-207 67h-305v-536h305z" />
    <glyph glyph-name="uni2113" unicode="&#x2113;" horiz-adv-x="1163" 
d="M775 193q56 50 77 118l178 -51q-39 -128 -146 -208q-107 -79 -243 -79q-119 0 -207 67q-88 66 -139 193q-113 -31 -234 -30v170q89 0 191 26q-17 99 -19 228q0 239 69 447q69 209 190 334q120 126 268 126q131 0 208 -98q76 -98 76 -269q0 -179 -74 -351
q-75 -172 -208 -306q-135 -136 -301 -215q56 -152 184 -152q74 0 130 50zM426 471q190 109 311 302q121 191 121 409q0 180 -110 180q-84 0 -160 -96q-75 -96 -122 -268q-46 -169 -46 -386q0 -75 6 -141z" />
    <glyph glyph-name="uni2116" unicode="&#x2116;" horiz-adv-x="2670" 
d="M1490 1264q70 123 189 190q119 68 269 68t269 -69q118 -69 186 -191q67 -122 67 -281t-67 -280q-67 -123 -188 -192q-120 -69 -269 -69t-268 68q-120 68 -188 190q-69 123 -69 283t69 283zM152 1497h227l676 -1104v1104h227v-1497h-225l-678 1102v-1102h-227v1497z
M1732 736q80 -93 214 -93q131 0 212 93q80 94 80 245t-80 245q-81 93 -212 93q-133 0 -214 -93t-81 -247q0 -150 81 -243zM2288 0h-617v162h617v-162z" />
    <glyph glyph-name="trademark" unicode="&#x2122;" horiz-adv-x="1470" 
d="M78 1497h543v-131h-199v-575h-150v575h-194v131zM1393 1497v-706h-138v286q0 111 9 154l-162 -432h-113l-166 432q6 -44 6 -154v-286h-135v706h150l198 -551l197 551h154z" />
    <glyph glyph-name="estimated" unicode="&#x212e;" horiz-adv-x="1658" 
d="M209 1157q90 176 252 275q163 98 368 98q210 0 370 -85q163 -87 250 -245q89 -161 89 -379q2 -22 2 -57q0 -33 -2 -57h-1204v-388q85 -121 220 -186t304 -65q167 0 306 79q138 77 206 207l82 -30q-78 -158 -238 -251q-158 -91 -360 -91q-218 0 -384 97q-169 99 -259 272
q-92 176 -92 403t90 403zM334 784h989v433q-82 109 -207 169t-272 60q-161 0 -294 -71q-131 -72 -216 -197v-394z" />
    <glyph glyph-name="oneeighth" unicode="&#x215b;" horiz-adv-x="1851" 
d="M1748 438q40 -65 40 -151q0 -135 -99 -220q-98 -85 -262 -85t-264 85t-100 222q0 83 41 150q40 67 110 96q-55 27 -85 77q-32 54 -31 125q0 124 90 200q91 77 239 77q145 0 237 -77q91 -76 91 -198q0 -71 -32 -126q-31 -53 -85 -81q70 -28 110 -94zM1325 804
q-37 -34 -37 -89t38 -88t99 -33q63 0 102 33q38 33 38 88q0 54 -38 89q-37 34 -104 34q-61 0 -98 -34zM1553 201q47 39 49 104q0 66 -49 105q-48 39 -130 39q-76 0 -124 -39t-48 -105q0 -63 48 -103q47 -40 126 -40q80 0 128 39zM467 -106h-154l916 1742h151zM485 1530v-993
h-174v698h-231v123q110 0 166 46q58 47 65 126h174z" />
    <glyph glyph-name="threeeighths" unicode="&#x215c;" horiz-adv-x="2045" 
d="M1953 438q40 -65 40 -151q0 -135 -100 -220q-98 -85 -261 -85q-164 0 -264 85t-100 222q0 83 41 150q40 67 110 96q-55 27 -85 77q-32 54 -31 125q0 124 90 200q91 77 239 77q145 0 237 -77q91 -76 91 -198q0 -71 -32 -126q-31 -53 -85 -81q70 -28 110 -94zM1530 804
q-37 -34 -37 -89t38 -88q37 -33 99 -33q63 0 102 33q38 34 37 88q0 55 -37 89t-104 34q-61 0 -98 -34zM1758 201q48 39 48 104q0 66 -48 105t-130 39q-76 0 -124 -39t-48 -105q0 -63 48 -103q47 -40 126 -40q80 0 128 39zM674 -106h-154l916 1742h151zM723 1068
q68 -83 68 -206q0 -155 -100 -249q-100 -95 -259 -95q-144 0 -235 79q-92 80 -105 212l187 37q1 -70 47 -111t112 -41q75 0 118 46q44 47 44 124q0 75 -46 118q-47 44 -120 44q-42 0 -86 -16l-57 143l201 203l-365 2v172h614v-156l-198 -207q113 -17 180 -99z" />
    <glyph glyph-name="fiveeighths" unicode="&#x215d;" horiz-adv-x="2035" 
d="M1940 438q40 -65 40 -151q0 -135 -99 -220q-98 -85 -261 -85q-164 0 -264 85q-99 85 -101 222q0 83 41 150q40 67 111 96q-55 27 -85 77q-32 53 -32 125q0 124 90 200q91 77 240 77q145 0 237 -77q91 -76 91 -198q0 -71 -32 -126q-31 -53 -85 -81q69 -28 109 -94z
M1518 804q-37 -34 -37 -89t38 -88q37 -33 99 -33q64 0 101 33q38 33 38 88q0 54 -38 89q-37 34 -103 34q-61 0 -98 -34zM1746 201q48 39 48 104q0 66 -48 105t-130 39q-76 0 -124 -39t-48 -105q0 -63 48 -103q47 -40 126 -40q80 0 128 39zM659 -106h-153l915 1742h152z
M711 1124q92 -95 92 -250q0 -161 -97 -258q-98 -98 -257 -98q-153 0 -247 87q-96 88 -106 233l185 26q1 -74 46 -122q43 -46 117 -46q75 0 121 49q47 50 47 127q0 81 -48 134q-48 51 -124 51q-53 0 -93 -25t-58 -69h-189l78 567h561v-172h-405l-27 -187q53 47 162 48
q151 -2 242 -95z" />
    <glyph glyph-name="seveneighths" unicode="&#x215e;" horiz-adv-x="1789" 
d="M1313 1636l-914 -1742h-153l913 1742h154zM117 510l438 788h-463v158h647v-151l-442 -795h-180zM1658 416q40 -64 40 -146q0 -127 -94 -206q-95 -80 -250 -80q-154 0 -249 80t-95 208q0 83 40 145q41 63 105 91q-51 26 -82 77q-31 52 -31 120q0 114 86 188q86 72 226 72
q138 0 224 -72q85 -72 85 -188q0 -70 -30 -121q-31 -52 -83 -76q67 -28 108 -92zM1254 772q-37 -33 -37 -88t37 -88q36 -33 98 -33q64 0 101 33q38 33 38 88t-37 88q-38 33 -100 33q-64 0 -100 -33zM1478 184q48 39 48 103q0 62 -47 103q-46 40 -125 40q-78 0 -125 -39
t-47 -104q0 -63 47 -102q46 -40 123 -40q78 0 126 39z" />
    <glyph glyph-name="arrowleft" unicode="&#x2190;" horiz-adv-x="1896" 
d="M834 92l-91 -92l-620 625l620 624l91 -88l-472 -473h1412v-127h-1412z" />
    <glyph glyph-name="arrowup" unicode="&#x2191;" horiz-adv-x="1495" 
d="M748 1540l624 -625l-90 -90l-471 471v-1296l-127 2v1294l-471 -471l-90 90z" />
    <glyph glyph-name="arrowright" unicode="&#x2192;" horiz-adv-x="1896" 
d="M123 561v127h1407l-469 473l92 88l621 -624l-621 -625l-92 92l469 469h-1407z" />
    <glyph glyph-name="arrowdown" unicode="&#x2193;" horiz-adv-x="1495" 
d="M213 662l471 -469v1302l127 2v-1304l471 471l90 -91l-624 -622l-625 622z" />
    <glyph glyph-name="uni2196" unicode="&#x2196;" horiz-adv-x="1404" 
d="M250 1362l-2 -666h-125l2 879l881 2v-127h-668l944 -944l-90 -86z" />
    <glyph glyph-name="uni2197" unicode="&#x2197;" horiz-adv-x="1736" 
d="M123 94l1276 1276h-760v125l975 2v-973h-127v760l-1274 -1278z" />
    <glyph glyph-name="uni2198" unicode="&#x2198;" horiz-adv-x="1736" 
d="M639 127h760l-1276 1278l90 86l1274 -1278v762h127v-973l-975 -2v127z" />
    <glyph glyph-name="uni2199" unicode="&#x2199;" horiz-adv-x="1736" 
d="M123 2v973h127v-762l1276 1278l88 -86l-1276 -1278h760v-127z" />
    <glyph glyph-name="uni21A9" unicode="&#x21a9;" horiz-adv-x="1744" 
d="M1477 1055q104 -101 104 -271q0 -166 -104 -267q-106 -101 -281 -101h-690v-236l-369 299l369 299v-235h690q120 0 190 65q68 65 68 176q0 110 -68 178q-69 66 -190 66h-217v127h217q177 0 281 -100z" />
    <glyph glyph-name="uni21AA" unicode="&#x21aa;" horiz-adv-x="1744" 
d="M1239 180v236h-690q-176 0 -280 101q-105 101 -105 267q0 170 105 271q103 100 280 100h217v-127h-217q-121 0 -189 -66q-69 -68 -69 -178q0 -112 69 -177q67 -64 189 -64h690v235l369 -299z" />
    <glyph glyph-name="uni21AF" unicode="&#x21af;" horiz-adv-x="3323" 
d="M1593 543h463v-543h-164l-20 162h-17q0 -12 -26 -56q-27 -45 -93 -84q-67 -40 -182 -40q-124 0 -221 57q-99 58 -154 173q-57 115 -57 284q0 177 67 295q66 118 174 175q107 56 234 56q101 0 198 -38q95 -38 164 -120q70 -83 89 -202h-227q-20 74 -76 118q-56 43 -143 43
q-127 0 -191 -90q-65 -91 -65 -229q0 -136 62 -231t189 -95q89 0 150 48t78 122h-232v195zM2168 833q-34 33 -34 80q0 45 33 77q34 32 80 32q45 0 77 -32q31 -31 31 -77q0 -48 -31 -80q-31 -34 -77 -34q-45 0 -79 34zM2449 833q-34 33 -34 80q0 45 33 77q32 32 79 32
q44 0 78 -32q33 -32 33 -77q0 -47 -33 -80q-33 -34 -78 -34t-78 34zM2705 979v43h168v-43h-63v-174h-51v174h-54zM3045 1022h88v-217h-55v184l-26 -184h-72l-31 184v-184h-51v217h92l25 -178zM925 884q124 -127 124 -380q0 -250 -124 -377t-343 -127h-394v1012h394
q218 0 343 -128zM744 245q85 61 85 259q0 195 -85 258q-86 63 -162 63h-131q-31 1 -61 14q-26 10 -44 21q-17 10 -20 14l-17 -16l22 -22q15 -16 36 -39q32 -26 40 -59q7 -31 7 -56v-356q0 -34 -10 -58q-9 -23 -22 -39q-10 -13 -15 -18l-58 -61l17 -15q7 2 30.5 10.5
t40.5 14.5q38 13 70 22h115q76 0 162 63zM2570 682q35 0 68 -6v-180q-16 2 -35 2q-98 0 -156 -52q-59 -53 -59 -163v-283h-219v520q0 98 -15 156h222q7 -49 8 -82q46 88 186 88z" />
    <glyph glyph-name="partialdiff" unicode="&#x2202;" horiz-adv-x="1263" 
d="M1112 702q37 -93 37 -210q0 -154 -64 -272q-65 -118 -183 -183q-118 -66 -271 -66q-154 0 -271 66q-118 64 -183 184q-66 119 -66 273q0 155 58 272q59 118 166 182q106 64 249 64q30 0 65 -6l-338 491h285l397 -584q81 -116 119 -211zM833 278q76 79 76 220
q0 135 -77 221q-78 86 -205 86q-125 0 -201 -82t-76 -225q0 -135 77 -218t202 -83q127 0 204 81z" />
    <glyph glyph-name="emptyset" unicode="&#x2205;" horiz-adv-x="1708" 
d="M1516 1093q88 -163 88 -350q0 -206 -100 -376q-100 -173 -273 -273q-173 -102 -375 -102q-152 0 -289 57l-92 -170h-178l133 244q-152 104 -239 267q-87 164 -87 353q0 201 102 373q100 172 273 273q172 100 377 100q147 0 285 -57l92 170h178l-133 -244
q151 -105 238 -265zM374 498q56 -112 156 -189l508 936q-84 31 -184 31q-148 0 -270 -70t-195 -193q-72 -121 -72 -270q0 -133 57 -245zM1124 276q123 71 195 193q72 123 72 274q0 131 -57 243q-58 111 -156 185l-508 -935q84 -31 184 -31q146 0 270 71z" />
    <glyph glyph-name="product" unicode="&#x220f;" horiz-adv-x="1294" 
d="M1274 1305h-258v-1577h-215v1577h-303v-1577h-217v1577h-263v192h1256v-192z" />
    <glyph glyph-name="minus" unicode="&#x2212;" horiz-adv-x="1181" 
d="M1028 678v-170h-876v170h876z" />
    <glyph glyph-name="radical" unicode="&#x221a;" horiz-adv-x="1775" 
d="M1737 1497h-510l-613 -1640h-243l-361 809h258l217 -506l582 1564h670v-227z" />
    <glyph glyph-name="infinity" unicode="&#x221e;" horiz-adv-x="1943" 
d="M298 202q-97 55 -154 157q-56 101 -56 229q0 130 56 234q55 102 154 160q98 58 228 58q142 0 249 -77q107 -78 198 -207q92 133 196 208q104 76 250 76q128 0 229 -59q99 -58 153 -161t54 -232q0 -126 -55 -226q-56 -102 -154 -159q-100 -58 -227 -58q-143 0 -249 76
q-108 78 -197 205q-89 -127 -197 -205q-107 -76 -252 -76q-127 0 -226 57zM691 419q72 52 163 171q-90 120 -160 173q-74 54 -157 54q-97 0 -155 -63q-60 -64 -60 -164q0 -98 60 -160q60 -63 155 -63q81 0 154 52zM1562 430q60 62 60 160q0 100 -60 164q-62 63 -155 63
q-86 0 -157 -53q-73 -53 -158 -174q86 -118 159 -170q73 -53 156 -53q93 0 155 63z" />
    <glyph glyph-name="integral" unicode="&#x222b;" horiz-adv-x="1202" 
d="M72 -27q4 0 33 -6t71 -6q92 0 138 46t67 136l219 1074q32 164 122 236q91 73 247 73q93 0 159 -17v-184q-56 12 -112 12q-91 0 -138 -41q-46 -40 -69 -145l-211 -1051q-34 -172 -124 -253q-88 -78 -241 -78q-69 0 -161 18v186z" />
    <glyph glyph-name="approxequal" unicode="&#x2248;" horiz-adv-x="1040" 
d="M163 843q61 64 152 64q45 0 93 -14q35 -11 112 -43q72 -31 105 -41q37 -12 75 -12q102 0 103 108h129q10 -145 -57 -211q-67 -67 -164 -67q-57 0 -108 16q-62 19 -126 47q-59 26 -93 36q-36 11 -65 11q-47 0 -67 -30q-21 -32 -14 -76h-132q-6 147 57 212zM163 467
q62 63 152 63q45 0 93 -14q35 -11 112 -43q72 -31 105 -41q37 -12 75 -12q101 0 103 110h129q11 -147 -57 -212q-67 -66 -164 -66q-54 0 -108 17q-59 18 -126 46q-59 25 -93 36q-36 11 -65 11q-48 0 -67 -31q-21 -32 -14 -75h-132q-6 147 57 211z" />
    <glyph glyph-name="notequal" unicode="&#x2260;" horiz-adv-x="1112" 
d="M702 690l-120 -217h430v-174h-527l-84 -149h-172l84 149h-213v174h312l120 217h-432v174h531l82 148h170l-82 -148h211v-174h-310z" />
    <glyph glyph-name="lessequal" unicode="&#x2264;" horiz-adv-x="1138" 
d="M137 614v213l864 336v-217l-632 -225l632 -225v-215zM137 0v195h864v-195h-864z" />
    <glyph glyph-name="greaterequal" unicode="&#x2265;" horiz-adv-x="1138" 
d="M137 496l633 225l-633 225v217l864 -336v-213l-864 -333v215zM137 195h864v-195h-864v195z" />
    <glyph glyph-name="filledbox" unicode="&#x25a0;" horiz-adv-x="1771" 
d="M1636 1505v-1503h-1503v1503h1503z" />
    <glyph glyph-name="H22073" unicode="&#x25a1;" horiz-adv-x="1773" 
d="M1638 1505v-1505h-1505v1505h1505zM268 135h1237v1237h-1237v-1237z" />
    <glyph glyph-name="triagup" unicode="&#x25b2;" horiz-adv-x="1961" 
d="M1872 0h-1782l889 1473z" />
    <glyph glyph-name="uni25B3" unicode="&#x25b3;" horiz-adv-x="1953" 
d="M975 1466l889 -1466h-1774zM1677 104l-702 1158l-701 -1158h1403z" />
    <glyph glyph-name="lozenge" unicode="&#x25ca;" horiz-adv-x="1300" 
d="M90 750l457 755h198l465 -755l-465 -750h-198zM647 1384l-381 -634l381 -627l385 627z" />
    <glyph glyph-name="circle" unicode="&#x25cb;" horiz-adv-x="1736" 
d="M477 84q-178 103 -282 284q-105 178 -105 390q0 210 105 389q103 178 282 283q179 104 389 104t391 -104q179 -105 285 -283q105 -178 105 -389q0 -210 -105 -389q-107 -179 -285 -284q-180 -105 -391 -105q-210 0 -389 104zM1190 202q147 87 234 235q87 147 87 321
t-87 323t-234 234q-149 86 -322 86q-175 0 -323 -86q-147 -85 -235 -233q-87 -148 -87 -324t87 -323q87 -149 235 -234q148 -86 323 -86q174 0 322 87z" />
    <glyph glyph-name="H18533" unicode="&#x25cf;" horiz-adv-x="1748" 
d="M482 75q-180 104 -286 287q-106 181 -106 396q0 214 106 392q106 180 286 284q181 104 392 104q212 0 394 -104q179 -104 286 -284q105 -178 105 -392t-105 -396q-107 -183 -286 -287q-181 -106 -394 -106t-392 106z" />
    <glyph glyph-name="uni261E" unicode="&#x261e;" horiz-adv-x="2455" 
d="M2288 698q0 -58 -40 -92q-41 -35 -116 -35q-36 0 -97 11q-102 18 -139 26q-58 12 -102 27q-34 12 -63 18q-32 7 -82 11q49 -58 49 -117q0 -38 -23 -70q-6 -9 -13 -18q-9 -11 -9 -21q0 -8 18 -37q17 -31 17 -63q0 -59 -43 -92t-115 -33q-42 0 -78 10q-40 11 -88 31
q-62 25 -100 35q-128 43 -373 43q-109 0 -240 -10q-45 -5 -86 -7q-67 0 -129 27q-39 14 -55 14q-18 0 -28 -7q-15 -11 -25 -23q-22 -25 -50 -39q-28 -15 -90 -13v768l56 2q37 1 55 -3q16 -4 39 -17q17 -11 32 -15q17 -5 42 -5q21 0 43 2l61 6q195 22 353 36q149 13 290 13
q119 0 168 -13q47 -12 94 -40q27 -19 62 -33q59 -21 217 -69q162 -50 252 -72q62 -21 122 -35q52 -13 152 -31q62 -14 62 -70zM1446 502q9 0 14 8t0 20q-62 157 -126 245q-69 93 -169 181q-23 20 -12 39h-63q-168 0 -328 -18q-153 -19 -383 -51q10 -86 10 -226l-2 -159
q0 -67 45 -98q45 -33 127 -33q128 0 225 70q97 68 127 173q0 1 1.5 4t3 7.5t2.5 9.5q4 17 13 25q10 8 23 8q17 0 28 -11q10 -13 17 -39q22 -58 52 -80q26 -21 120 -53l62 -20q26 -8 24 -31q0 -11 -7 -18q-8 -9 -19 -9q-4 0 -19 5q-30 13 -69 23q-49 12 -72 13h-6
q-31 0 -31 -16q0 -12 17 -29q51 -51 178 -51q59 0 98 17q37 16 37 63q0 15 -6 41q-18 56 -64 133q-60 97 -95 145q-48 67 -64 84q-6 10 -7 17q0 10 10 17q8 7 21 7q17 0 31 -14q105 -144 152 -220q40 -67 85 -165q8 -14 19 -14zM1331 923q-41 46 -64 58q-26 14 -59 14
q114 -99 179 -198q62 -97 120 -211q28 -54 29 -56q26 -39 55 -38q15 0 25 10t10 26q0 15 -8 33q-2 14 -42 65q-40 50 -69 87q-32 40 -43 51q-100 122 -133 159zM344 690q0 191 -14 236q-6 18 -19 18q-7 0 -11 -7q-5 -8 -5 -17q0 -167 1 -184q1 -18 1 -29q4 -17 4 -226
q0 -10 4 -17t10 -7q11 0 19 20q10 43 10 213zM2134 629q68 0 92 45q-42 5 -64 12q-18 6 -55 25q-59 32 -135 55q-41 13 -315 88q-44 12 -89 24t-64 17t-23 6q-6 2 -11 2q-20 0 -20 -20q0 -11 8 -21q22 -26 84 -66q61 -43 113 -65q36 -14 51 -14q7 0 20 8q8 7 14 18
q5 12 9 17q5 6 14 6q12 0 33 -21q71 -74 260 -108q56 -8 78 -8zM2175 723q20 -7 41 -11q25 -4 31 -3q-1 5 -29 13q-25 7 -45 7q-15 0 2 -6zM979 396q8 5 8 12q0 14 -24 29q-26 14 -58 14q-36 0 -98 -25q-19 -7 -21 -23q0 -14 29 -14l139 2q17 0 25 5zM1604 296q22 21 22 46
q0 17 -10 27t-29 10q-32 0 -70 -28q-40 -28 -40 -46q0 -9 20 -20t45 -11q40 0 62 22z" />
    <glyph glyph-name="uni262A" unicode="&#x262a;" horiz-adv-x="1767" 
d="M281 341q-109 169 -109 409t109 409q107 167 281 253q171 85 364 85q179 0 334 -73q155 -74 251 -203q-159 59 -305 59q-163 0 -288 -67q-128 -67 -198 -189q-71 -122 -71 -274q0 -154 71 -276q70 -121 197 -189q125 -68 287 -68q148 0 307 59q-94 -129 -250 -202
q-159 -74 -335 -74q-189 0 -363 86t-282 255zM1174 827l81 244l80 -244h260l-209 -155l80 -248l-211 154l-213 -154l82 248l-211 155h261z" />
    <glyph glyph-name="uni262E" unicode="&#x262e;" horiz-adv-x="1701" 
d="M464 74q-177 104 -281 281q-105 177 -105 386t105 387q104 178 282 281q179 104 387 104t386 -104q177 -103 282 -281q104 -179 104 -387t-104 -386q-105 -178 -282 -281q-177 -105 -386 -105q-211 0 -388 105zM780 797v577q-156 -18 -284 -107q-130 -89 -203 -228
q-74 -140 -74 -298q0 -131 51 -256zM1487 741q0 157 -74 297q-73 138 -202 227q-128 89 -283 107v-575l508 -310q51 129 51 254zM780 625l-434 -273q78 -98 191 -161q111 -64 243 -82v516zM1170 193q111 64 188 163l-430 269v-514q132 18 242 82z" />
    <glyph glyph-name="uni2639" unicode="&#x2639;" horiz-adv-x="1382" 
d="M977 1001q132 -76 211 -209q78 -133 78 -286q0 -156 -78 -288t-211 -210q-134 -78 -289 -78q-154 0 -286 78q-131 77 -208 209q-77 131 -77 287t77 287q77 132 209 209q133 77 285 77q156 0 289 -76zM1124 343q29 81 29 163q0 122 -63 229q-65 106 -170 168
q-107 62 -232 62t-229 -62q-106 -63 -167 -168q-63 -107 -63 -231q0 -84 30 -162q29 -76 83 -139q45 96 142 156q97 59 206 59q116 0 210 -58t138 -157q57 63 86 140zM586 762q22 -38 22 -105t-22 -105q-22 -40 -60 -40q-39 0 -60 40q-22 40 -22 105q0 67 22 105
q21 39 60 39q38 0 60 -39zM912 762q22 -38 22 -105q0 -65 -23 -105q-24 -40 -59 -40q-37 0 -59 40q-23 41 -23 105q0 63 23 104q22 40 59 40q38 0 60 -39zM688 43q80 0 155 27q74 25 136 75q-45 73 -123 117q-77 43 -166 43q-87 0 -166 -44q-76 -43 -118 -118
q121 -100 282 -100z" />
    <glyph glyph-name="smileface" unicode="&#x263a;" horiz-adv-x="1382" 
d="M401 8q-131 78 -207 210q-77 133 -77 288q0 153 77 286t207 209t287 76q159 0 290 -76t210 -208q78 -130 78 -287q0 -156 -78 -288t-210 -210t-290 -78q-156 0 -287 78zM921 108q107 62 170 168q62 106 62 230q0 122 -63 229q-65 106 -170 168q-107 62 -232 62
q-122 0 -228 -62q-106 -63 -168 -168q-63 -107 -63 -229q0 -125 63 -230q61 -106 167 -168q103 -63 229 -63q125 0 233 63zM467 537q-21 37 -21 106q0 64 22 101q21 38 58 38q38 0 60 -37t22 -102q0 -69 -22 -106q-22 -39 -60 -39q-40 0 -59 39zM793 537q-23 38 -23 106
q0 63 23 101t61 38q35 0 59 -38q23 -40 23 -101q0 -67 -22 -105q-22 -40 -60 -40t-61 39zM389 455q40 -75 125 -124q84 -48 176 -48q94 0 178 48q85 49 125 124l60 -52q-38 -103 -139 -167q-104 -66 -224 -66q-119 0 -221 66q-101 64 -139 167z" />
    <glyph glyph-name="invsmileface" unicode="&#x263b;" horiz-adv-x="1304" 
d="M370 21q-128 75 -204 204q-76 128 -76 283q0 153 76 281q76 129 205 205q129 75 278 75q153 0 284 -75q129 -76 206 -205q75 -131 75 -281q0 -154 -75 -283q-77 -130 -206 -204q-130 -76 -284 -76q-152 0 -279 76zM549 538q22 37 22 103q0 63 -21 100q-22 37 -58 37
t-59 -38t-23 -99q0 -63 24 -102q22 -39 58 -39q34 0 57 38zM868 539q23 40 23 102q0 61 -23 99q-24 38 -59 38q-34 0 -57 -38t-23 -99q0 -62 23 -102q22 -39 57 -39t59 39zM870 245q99 65 138 167l-62 47q-39 -73 -120 -120q-80 -46 -175 -46q-93 0 -173 46q-81 47 -120 120
l-59 -47q38 -103 137 -167q100 -65 215 -65q118 0 219 65z" />
    <glyph glyph-name="uni2713" unicode="&#x2713;" horiz-adv-x="1552" 
d="M1452 999l-907 -843l-443 501l160 144l297 -340l750 698z" />
    <glyph glyph-name="uni2764" unicode="&#x2764;" horiz-adv-x="1325" 
d="M541 225q-76 65 -181 131q-84 52 -127 87q-48 39 -76 95q-30 56 -30 136q0 137 85 222t210 85q88 0 150 -44q60 -43 92 -120q29 80 90 122q62 42 147 42q129 0 213 -85q84 -86 84 -222q0 -80 -29 -136q-30 -57 -76 -94q-52 -42 -126 -88q-109 -70 -180 -132
q-72 -62 -123 -165q-52 103 -123 166z" />
    <glyph glyph-name="uni2776" unicode="&#x2776;" horiz-adv-x="1806" 
d="M509 62q-177 102 -279 280q-103 178 -103 393q0 216 103 394q102 178 279 280t392 102q217 0 396 -102q178 -102 280 -280q102 -179 102 -394t-102 -393t-280 -280q-178 -103 -396 -103q-216 0 -392 103zM1008 362v748h-121q-6 -56 -57 -90q-53 -35 -134 -35v-84h191
v-539h121z" />
    <glyph glyph-name="uni2777" unicode="&#x2777;" horiz-adv-x="1806" 
d="M509 62q-177 102 -279 280q-103 178 -103 393q0 216 103 394q102 178 279 280t392 102q217 0 396 -102q178 -102 280 -280q102 -179 102 -394t-102 -393t-280 -280q-178 -103 -396 -103q-216 0 -392 103zM1149 354v121h-281l174 191q48 53 73 101q26 50 26 120
q0 105 -65 170q-66 63 -177 63q-113 0 -177 -63q-65 -65 -65 -162q0 -19 2 -33l117 -14l-2 24q0 56 32 93q32 36 89 36q54 0 85 -31q32 -32 32 -85q0 -67 -66 -137l-266 -287v-109z" />
    <glyph glyph-name="uni2778" unicode="&#x2778;" horiz-adv-x="1806" 
d="M509 62q-177 102 -279 280q-103 178 -103 393q0 216 103 394q102 178 279 280t392 102q217 0 396 -102q178 -102 280 -280q102 -179 102 -394t-102 -393t-280 -280q-178 -103 -396 -103q-216 0 -392 103zM1090 426q73 72 73 186q0 95 -53 159q-53 63 -143 71l159 166v108
h-456v-119h286l-161 -163l39 -101q30 10 63 10q61 0 98 -34t37 -97q0 -60 -37 -97q-38 -38 -96 -38q-53 0 -89 33q-37 33 -38 88l-129 -29q11 -97 79 -155q69 -60 175 -60q120 0 193 72z" />
    <glyph glyph-name="uni2779" unicode="&#x2779;" horiz-adv-x="1806" 
d="M509 62q-177 102 -279 280q-103 178 -103 393q0 216 103 394q102 178 279 280t392 102q217 0 396 -102q178 -102 280 -280q102 -179 102 -394t-102 -393t-280 -280q-178 -103 -396 -103q-216 0 -392 103zM1090 362v136h104v118l-104 2v250h-125v-250h-213l272 492h-147
l-267 -492v-118h355v-138h125z" />
    <glyph glyph-name="uni277A" unicode="&#x277a;" horiz-adv-x="1806" 
d="M509 62q-177 102 -279 280q-103 178 -103 393q0 216 103 394q102 178 279 280t392 102q217 0 396 -102q178 -102 280 -280q102 -179 102 -394t-102 -393t-280 -280q-178 -103 -396 -103q-216 0 -392 103zM1093 428q72 74 72 195q0 116 -67 187q-68 71 -180 71
q-84 0 -127 -39l22 155h307v119h-413l-60 -422h129q14 35 47 55q32 19 76 19q61 0 99 -41t38 -106q0 -64 -37 -102q-37 -40 -98 -40q-57 0 -93 37q-36 38 -36 96l-131 -18q7 -109 80 -174q72 -66 182 -66q116 0 190 74z" />
    <glyph glyph-name="uni277B" unicode="&#x277b;" horiz-adv-x="1806" 
d="M509 62q-177 102 -279 280q-103 178 -103 393q0 216 103 394q102 178 279 280t392 102q217 0 396 -102q178 -102 280 -280q102 -179 102 -394t-102 -393t-280 -280q-178 -103 -396 -103q-216 0 -392 103zM700 434q72 -72 189 -72q119 0 192 72q72 72 72 191
q0 111 -57 180q-58 69 -154 76q-10 2 -27 2q-16 0 -26 -2l176 243h-162l-194 -286q-41 -60 -62 -109q-20 -48 -20 -104q0 -119 73 -191zM796 731q34 39 95 39q59 0 95 -38t36 -103q0 -63 -37 -103q-38 -41 -96 -41q-59 0 -94 39q-35 40 -35 103q0 65 36 104z" />
    <glyph glyph-name="uni277C" unicode="&#x277c;" horiz-adv-x="1806" 
d="M509 62q-177 102 -279 280q-103 178 -103 393q0 216 103 394q102 178 279 280t392 102q217 0 396 -102q178 -102 280 -280q102 -179 102 -394t-102 -393t-280 -280q-178 -103 -396 -103q-216 0 -392 103zM844 360l321 633v117h-491v-121h340l-322 -629h152z" />
    <glyph glyph-name="uni277D" unicode="&#x277d;" horiz-adv-x="1806" 
d="M509 62q-177 102 -279 280q-103 178 -103 393q0 216 103 394q102 178 279 280t392 102q217 0 396 -102q178 -102 280 -280q102 -179 102 -394t-102 -393t-280 -280q-178 -103 -396 -103q-216 0 -392 103zM1101 418q75 63 75 164q0 67 -34 117q-35 52 -87 71q42 17 68 60
q24 42 24 98q0 92 -66 149q-68 56 -180 56q-109 0 -175 -57q-67 -58 -67 -150q0 -56 25 -96q26 -43 68 -60q-55 -19 -87 -70q-32 -52 -32 -118q0 -100 75 -164q73 -64 195 -64q124 0 198 64zM821 841q-30 27 -30 72q0 43 31 71q29 28 81 28q51 0 82 -28t31 -71
q0 -45 -31 -72q-31 -28 -84 -28q-52 0 -80 28zM802 511q-38 32 -38 85q0 51 38 83t101 32q62 0 102 -32q39 -31 39 -85q0 -51 -38 -83q-40 -32 -105 -32q-61 0 -99 32z" />
    <glyph glyph-name="uni277E" unicode="&#x277e;" horiz-adv-x="1806" 
d="M509 62q-177 102 -279 280q-103 178 -103 393q0 216 103 394q102 178 279 280t392 102q217 0 396 -102q178 -102 280 -280q102 -179 102 -394t-102 -393t-280 -280q-178 -103 -396 -103q-216 0 -392 103zM901 360l195 287q41 60 64 110q20 48 20 103q0 119 -73 191
q-74 71 -192 71q-117 0 -189 -73q-73 -73 -73 -197q0 -114 67 -182q66 -70 175 -70q8 0 18 2l-174 -242h162zM820 753q-36 38 -36 103q0 62 36 103q36 40 93 40q58 0 98 -38q38 -40 38 -103q0 -62 -38 -103q-37 -40 -98 -40q-57 0 -93 38z" />
    <glyph glyph-name="uni2780" unicode="&#x2780;" horiz-adv-x="1806" 
d="M1297 1409q178 -102 280 -280q102 -179 102 -394t-102 -393t-280 -280q-178 -103 -396 -103q-216 0 -392 103q-177 102 -279 280q-103 178 -103 393q0 216 103 394q102 178 279 280t392 102q217 0 396 -102zM1236 166q147 85 232 236q84 148 84 333t-84 337t-232 237
q-149 86 -335 86q-185 0 -333 -86q-147 -85 -232 -236q-84 -152 -84 -338q0 -185 84 -333q85 -151 232 -236q148 -86 333 -86q186 0 335 86zM830 1020q51 34 57 90h121v-748h-121v539h-191v84q81 0 134 35z" />
    <glyph glyph-name="uni2781" unicode="&#x2781;" horiz-adv-x="1806" 
d="M1297 1409q178 -102 280 -280q102 -179 102 -394t-102 -393t-280 -280q-178 -103 -396 -103q-216 0 -392 103q-177 102 -279 280q-103 178 -103 393q0 216 103 394q102 178 279 280t392 102q217 0 396 -102zM1236 166q147 85 232 236q84 148 84 333t-84 337t-232 237
q-149 86 -335 86q-185 0 -333 -86q-147 -85 -232 -236q-84 -152 -84 -338q0 -185 84 -333q85 -151 232 -236q148 -86 333 -86q186 0 335 86zM868 475h281v-121l-469 -2v109l266 287q66 72 66 137q0 53 -32 85q-31 31 -85 31q-57 0 -89 -35q-32 -37 -32 -94l2 -24l-117 14
q-2 14 -2 33q0 97 65 162q64 63 177 63q111 0 177 -63q65 -65 65 -170q0 -71 -25 -120t-74 -101z" />
    <glyph glyph-name="uni2782" unicode="&#x2782;" horiz-adv-x="1806" 
d="M1297 1409q178 -102 280 -280q102 -179 102 -394t-102 -393t-280 -280q-178 -103 -396 -103q-216 0 -392 103q-177 102 -279 280q-103 178 -103 393q0 216 103 394q102 178 279 280t392 102q217 0 396 -102zM1236 166q147 85 232 236q84 148 84 333t-84 337t-232 237
q-149 86 -335 86q-185 0 -333 -86q-147 -85 -232 -236q-84 -152 -84 -338q0 -185 84 -333q85 -151 232 -236q148 -86 333 -86q186 0 335 86zM1110 772q53 -64 53 -160q0 -116 -73 -186q-73 -72 -193 -72q-106 0 -175 60q-68 58 -79 155l129 29q1 -55 38 -87t89 -32
q59 0 96 37t37 96q0 62 -37 96q-38 35 -98 35q-42 0 -63 -10l-39 101l161 163h-286v119h456v-108l-159 -166q90 -7 143 -70z" />
    <glyph glyph-name="uni2783" unicode="&#x2783;" horiz-adv-x="1806" 
d="M509 62q-177 102 -279 280q-103 178 -103 393q0 216 103 394q102 178 279 280t392 102q217 0 396 -102q178 -102 280 -280q102 -179 102 -394t-102 -393t-280 -280q-178 -103 -396 -103q-216 0 -392 103zM1236 166q147 85 232 236q84 148 84 333t-84 337t-232 237
q-149 86 -335 86q-185 0 -333 -86q-147 -85 -232 -236q-84 -152 -84 -338q0 -185 84 -333q85 -151 232 -236q148 -86 333 -86q186 0 335 86zM610 618l267 492h147l-272 -492h213v250h125v-250l104 -2v-118h-104v-136h-125v138h-355v118z" />
    <glyph glyph-name="uni2784" unicode="&#x2784;" horiz-adv-x="1806" 
d="M1297 1409q178 -102 280 -280q102 -179 102 -394t-102 -393t-280 -280q-178 -103 -396 -103q-216 0 -392 103q-177 102 -279 280q-103 178 -103 393q0 216 103 394q102 178 279 280t392 102q217 0 396 -102zM1236 166q147 85 232 236q84 148 84 333t-84 337t-232 237
q-149 86 -335 86q-185 0 -333 -86q-147 -85 -232 -236q-84 -152 -84 -338q0 -185 84 -333q85 -151 232 -236q148 -86 333 -86q186 0 335 86zM1098 809q67 -71 67 -186q0 -121 -72 -195q-74 -74 -190 -74q-111 0 -182 66q-73 65 -80 174l131 18q0 -58 36 -96q36 -37 93 -37
q59 0 97 39q38 40 38 103q0 67 -37 107t-100 40q-44 0 -75 -19q-32 -19 -48 -55h-129l60 422h413v-119h-307l-22 -155q43 39 127 39q112 0 180 -72z" />
    <glyph glyph-name="uni2785" unicode="&#x2785;" horiz-adv-x="1806" 
d="M1297 1409q178 -102 280 -280q102 -179 102 -394t-102 -393t-280 -280q-178 -103 -396 -103q-216 0 -392 103q-177 102 -279 280q-103 178 -103 393q0 216 103 394q102 178 279 280t392 102q217 0 396 -102zM1236 166q147 85 232 236q84 148 84 333t-84 337t-232 237
q-149 86 -335 86q-185 0 -333 -86q-147 -85 -232 -236q-84 -152 -84 -338q0 -185 84 -333q85 -151 232 -236q148 -86 333 -86q186 0 335 86zM1082 805q65 -73 65 -189q0 -120 -73 -190q-74 -72 -191 -72t-188 72q-72 72 -72 190q0 56 20 105q21 51 59 108l195 287h162
l-174 -242l24 3q107 0 173 -72zM980 517q36 37 36 104t-36 104t-95 37t-95 -40t-36 -104q0 -63 35 -101t94 -38q61 0 97 38z" />
    <glyph glyph-name="uni2786" unicode="&#x2786;" horiz-adv-x="1806" 
d="M1297 1409q178 -102 280 -280q102 -179 102 -394t-102 -393t-280 -280q-178 -103 -396 -103q-216 0 -392 103q-177 102 -279 280q-103 178 -103 393q0 216 103 394q102 178 279 280t392 102q217 0 396 -102zM1236 166q147 85 232 236q84 148 84 333t-84 337t-232 237
q-149 86 -335 86q-185 0 -333 -86q-147 -85 -232 -236q-84 -152 -84 -338q0 -185 84 -333q85 -151 232 -236q148 -86 333 -86q186 0 335 86zM662 1110h487v-115l-318 -633h-153l319 629h-335v119z" />
    <glyph glyph-name="uni2787" unicode="&#x2787;" horiz-adv-x="1806" 
d="M1297 1409q178 -102 280 -280q102 -179 102 -394t-102 -393t-280 -280q-178 -103 -396 -103q-216 0 -392 103q-177 102 -279 280q-103 178 -103 393q0 216 103 394q102 178 279 280t392 102q217 0 396 -102zM1236 166q147 85 232 236q84 148 84 333t-84 337t-232 237
q-149 86 -335 86q-185 0 -333 -86q-147 -85 -232 -236q-84 -152 -84 -338q0 -185 84 -333q85 -151 232 -236q148 -86 333 -86q186 0 335 86zM1142 699q34 -52 34 -117q0 -100 -75 -164q-74 -64 -198 -64q-122 0 -195 64q-75 63 -75 164q0 68 32 118q32 51 87 70
q-42 17 -68 59q-25 40 -25 97q0 92 67 150q68 57 175 57q112 0 180 -56q66 -57 66 -149q0 -55 -24 -97q-25 -43 -68 -61q52 -19 87 -71zM822 984q-31 -28 -31 -71q0 -45 30 -72q28 -28 80 -28t83 28q32 27 32 72q0 43 -31 71t-82 28q-52 0 -81 -28zM1006 511q38 32 38 83
q0 53 -38 85q-40 32 -103 32t-101 -32t-38 -83q0 -53 38 -85t99 -32q65 0 105 32z" />
    <glyph glyph-name="uni2788" unicode="&#x2788;" horiz-adv-x="1806" 
d="M1297 1409q178 -102 280 -280q102 -179 102 -394t-102 -393t-280 -280q-178 -103 -396 -103q-216 0 -392 103q-177 102 -279 280q-103 178 -103 393q0 216 103 394q102 178 279 280t392 102q217 0 396 -102zM1236 166q147 85 232 236q84 148 84 333t-84 337t-232 237
q-149 86 -335 86q-185 0 -333 -86q-147 -85 -232 -236q-84 -152 -84 -338q0 -185 84 -333q85 -151 232 -236q148 -86 333 -86q186 0 335 86zM1107 1051q73 -72 73 -191q0 -55 -20 -103q-21 -46 -64 -110l-195 -287h-162l174 242q-10 -2 -18 -2q-109 0 -175 70
q-67 68 -67 182q0 124 73 197t189 73q118 0 192 -71zM1011 755q38 41 38 103t-38 102q-37 39 -98 39q-57 0 -93 -39q-36 -40 -36 -104q0 -66 36 -103q36 -38 93 -38q61 0 98 40z" />
    <glyph glyph-name="uni27F2" unicode="&#x27f2;" horiz-adv-x="1773" 
d="M220 1134q98 173 272 270q173 97 393 97q160 0 301 -54q139 -53 244 -155l159 164v-465h-465l176 180q-76 76 -185 118t-230 42q-169 0 -302 -75q-133 -76 -210 -210q-76 -134 -76 -305q0 -173 76 -307q77 -137 209 -212q134 -77 303 -77q174 0 309 78q136 79 209 217
q74 138 72 314h176q5 -225 -93 -402q-97 -177 -274 -277q-175 -100 -399 -100q-219 0 -393 99q-174 96 -272 272q-97 173 -97 395q0 221 97 393z" />
    <glyph glyph-name="uniF8FF" unicode="&#xf8ff;" horiz-adv-x="1513" 
d="M896 1251q-52 -29 -96 -39q-14 -4 -24 -6.5t-15 -3.5t-5 0t-2 21q-2 18 -2 30q0 100 67 191q49 62 105 94q55 31 101 40q24 5 34.5 6t11.5 -1q0 -5 1 -10t1 -23q0 -122 -84 -223q-40 -49 -93 -76zM332 112q-95 110 -157 280q-62 171 -62 327q0 147 55 256q56 108 142 165
q88 56 184 56q44 0 80 -10q43 -13 81 -29q7 -1 42 -15q36 -14 67 -14q24 0 51 10q36 12 53 19q58 25 93 34q42 11 96 11q93 0 161 -34q68 -35 106 -76t38 -48q0 6 -48 -32q-48 -39 -87 -105q-39 -67 -39 -162q0 -106 47 -177q46 -71 107 -112q59 -41 59 -34q0 -13 -47 -124
q-47 -110 -126 -203q-80 -93 -179 -93q-46 0 -123 31q-26 9 -76 25q-30 8 -64 8t-69 -9q-42 -13 -80 -28q-3 -1 -60 -19q-29 -10 -55 -10q-94 0 -190 112z" />
    <glyph glyph-name="A.salt" horiz-adv-x="1429" 
d="M1135 0l-109 297q-148 -59 -311 -59q-170 0 -314 61l-108 -299h-266l563 1497h250l563 -1497h-268zM715 451q133 0 241 43l-163 450q-18 51 -78 252q-29 -100 -80 -252l-164 -450q114 -43 244 -43z" />
    <glyph glyph-name="G.aalt" horiz-adv-x="1617" 
d="M1489 805v-805h-205l-8 186q-78 -105 -202 -160q-126 -57 -286 -57q-212 0 -369 97q-160 96 -245 270q-86 175 -86 401q0 230 92 412q91 180 259 281q166 100 384 100q243 0 421 -121q179 -122 239 -319l-221 -86q-40 139 -160 222q-119 83 -279 83q-145 0 -255 -72
q-110 -71 -172 -200t-62 -292q0 -161 60 -286q58 -124 169 -195q110 -71 258 -71q132 0 236 53q103 53 161 150q58 95 58 218h-469v191h682z" />
    <glyph glyph-name="Q.aalt" horiz-adv-x="1667" 
d="M1591 4l-649 -4q-56 -6 -111 -6q-217 0 -386 100q-168 98 -263 275q-94 175 -94 395q0 217 94 392q94 174 264 275q170 99 388 99q216 0 386 -99q169 -100 263 -275t94 -392q0 -172 -58 -316q-59 -148 -165 -251h20h219zM398 482q62 -123 176 -193q112 -70 257 -70
q146 0 258 70q114 70 176 193q62 126 62 282q0 154 -62 280q-62 122 -176 193q-113 70 -258 70t-257 -70q-114 -71 -176 -193q-64 -124 -64 -280q0 -158 64 -282z" />
    <glyph glyph-name="R.aalt" horiz-adv-x="1333" 
d="M1127 544q31 -57 44 -145l66 -399h-231l-58 344q-12 72 -32 117q-21 43 -63 66q-41 22 -120 22h-356v-549h-225v1497h606q148 0 257 -58q108 -58 169 -166q59 -109 59 -249q0 -134 -52 -235q-52 -103 -149 -164q53 -27 85 -81zM745 752q121 0 194 75q73 73 73 193
t-72 191q-72 69 -199 69h-364v-528h368z" />
    <glyph glyph-name="S_N_I.dlig" horiz-adv-x="2580" 
d="M2263 1505h-1948v144h1948v-144zM315 76v166h598v411h-411q-96 0 -135 41q-39 40 -39 117v438q0 74 44 112t120 38h608v-162h-588v-399h438q150 0 150 -154v-465q0 -76 -45 -109q-44 -34 -129 -34h-611zM1386 971v-908h-178v1334h181l409 -889v889h178v-1334h-180z
M2263 1397v-1334h-174v1334h174zM315 -6h1948v-141h-1948v141z" />
    <glyph glyph-name="a.salt" horiz-adv-x="1181" 
d="M1047 1012v-1012h-213v121q-40 -75 -122 -116q-80 -40 -177 -40q-206 0 -321 148q-116 148 -116 395q0 251 118 393q119 143 321 143q97 0 176 -38q77 -38 121 -107l8 113h205zM760 244q65 91 65 262q0 176 -66 263q-67 87 -184 87q-124 0 -188 -94q-65 -95 -65 -256
q0 -168 68 -260t185 -92q119 0 185 90z" />
    <glyph glyph-name="ampersand.aalt" horiz-adv-x="1560" 
d="M1200 0l-76 111q-162 -137 -426 -138q-166 0 -287 62q-125 62 -192 173q-69 111 -69 255q0 189 112 320q111 132 291 159l-225 330v225h831v-219h-553l533 -784q23 83 22 165q0 31 -8 119h207q8 -61 8 -125q0 -101 -23 -198q-24 -95 -65 -166l199 -289h-279zM477 263
q89 -79 250 -79q84 0 159 26q72 25 122 71l-344 497q-130 -14 -204 -93q-73 -79 -73 -198q0 -145 90 -224z" />
    <glyph glyph-name="at.aalt" horiz-adv-x="1855" 
d="M1235 606q-6 -80 27 -115q32 -36 88 -36q104 0 170 106q65 106 65 279q0 179 -77 315q-79 136 -220 209q-143 74 -330 74q-204 0 -356 -88q-153 -88 -238 -247q-85 -158 -85 -368q0 -199 79 -353q79 -156 229 -242q150 -87 359 -87q109 0 238 24q130 23 248 81v-142
q-112 -53 -242 -77q-133 -23 -244 -23q-248 0 -435 103q-186 101 -290 289q-104 187 -104 429q0 248 106 438q105 189 295 295q189 105 436 105q234 0 412 -93q179 -93 276 -259t97 -379q0 -153 -50 -271q-51 -118 -140 -183q-89 -66 -203 -66q-85 0 -143 38q-58 37 -77 95
q-38 -58 -104 -93q-68 -36 -148 -36q-133 0 -221 100t-88 281q0 126 43 221t120 151q76 54 177 54q75 0 137 -30q59 -30 93 -77l24 84h113zM1048 542q58 79 58 212q0 122 -49 187q-50 65 -133 65q-96 0 -152 -80q-57 -80 -57 -215q0 -123 47 -185q46 -63 127 -63
q101 0 159 79z" />
    <glyph glyph-name="braceleft.aalt" horiz-adv-x="782" 
d="M399 748q125 -101 125 -293v-271q0 -135 43 -187t148 -52v-178q-193 -6 -294 77q-102 84 -102 293v305q0 127 -63 172t-129 48v174q66 0 129 45t63 174v303q0 212 102 294q101 83 294 77v-179q-111 0 -151 -51q-40 -50 -40 -164v-295q0 -191 -125 -292z" />
    <glyph glyph-name="braceright.aalt" horiz-adv-x="792" 
d="M539 881q63 -45 127 -45v-174q-66 -1 -128 -47q-63 -47 -63 -173v-305q0 -209 -102 -293q-104 -84 -295 -77v178q106 0 149 48q43 47 43 167v295q0 189 123 293q-123 102 -123 292v295q0 114 -40 164q-41 51 -152 51v179q193 6 295 -78t102 -293v-303q0 -129 64 -174z
" />
    <glyph glyph-name="bracketleft.aalt" horiz-adv-x="720" 
d="M592 -186h-465v1902h465v-186h-260v-1530h260v-186z" />
    <glyph glyph-name="bracketright.aalt" horiz-adv-x="720" 
d="M389 0v1530h-262v186h465v-1902h-465v186h262z" />
    <glyph glyph-name="bullet.aalt" horiz-adv-x="856" 
d="M271 439q-72 42 -114 115q-42 74 -42 159q0 84 42 156q42 71 114 113q70 42 157 42q86 0 158 -42q71 -42 113 -113q42 -72 42 -156q0 -85 -42 -159q-41 -72 -113 -115q-72 -42 -158 -42t-157 42z" />
    <glyph glyph-name="eight.dnom" horiz-adv-x="856" 
d="M751 439q40 -65 40 -152q0 -135 -99 -220q-100 -85 -262 -85q-164 0 -264 85t-100 222q0 83 41 151q41 67 110 95q-54 26 -85 78q-32 53 -32 124q0 124 91 200q91 77 239 77q145 0 237 -77q91 -76 91 -198q0 -71 -32 -126q-31 -53 -85 -81q69 -28 110 -93zM328 804
q-37 -34 -37 -89t38 -88q37 -33 99 -33q64 0 101 33q38 32 38 88q0 55 -37 89t-104 34q-61 0 -98 -34zM556 201q48 39 48 104q0 66 -48 105t-130 39q-76 0 -124 -39t-48 -105q0 -63 48 -103q47 -40 126 -40q80 0 128 39z" />
    <glyph glyph-name="eight.numr" horiz-adv-x="856" 
d="M751 970q40 -67 40 -155q0 -133 -99 -216q-101 -83 -262 -83q-164 0 -264 84t-100 217q0 86 41 154q41 67 108 96q-52 27 -84 80q-31 52 -31 123q0 124 91 200q89 76 239 76q146 0 237 -76t91 -198q0 -73 -31 -125q-32 -54 -84 -82q67 -28 108 -95zM328 1337
q-37 -34 -37 -90q0 -52 38 -87q37 -34 99 -34q64 0 101 33q38 33 38 88t-37 89t-104 34q-60 0 -98 -33zM556 731q48 39 48 105t-48 107q-47 40 -130 40q-75 0 -124 -41q-48 -40 -48 -106t48 -105t126 -39q80 0 128 39z" />
    <glyph glyph-name="eight.tnum" horiz-adv-x="1312" 
d="M1128 659q66 -102 66 -237q0 -132 -67 -233q-67 -103 -189 -160q-120 -58 -281 -58t-281 58q-122 57 -189 160q-68 103 -68 233q0 136 67 237q67 102 179 142q-86 39 -137 123q-52 83 -52 196q0 119 60 212q58 92 169 145q109 51 252 51q141 0 251 -51q110 -53 171 -144
q60 -91 60 -211q0 -113 -51 -197q-52 -85 -138 -124q109 -40 178 -142zM481 1250q-67 -58 -67 -154t66 -153q64 -58 175 -58t177 57q65 57 65 154q0 95 -65 154q-66 57 -175 57q-110 0 -176 -57zM874 265q82 67 82 177q0 114 -82 181t-217 67t-217 -66q-82 -67 -82 -182
q0 -113 81 -179t216 -66q136 0 219 68z" />
    <glyph glyph-name="emdash.aalt" horiz-adv-x="2217" 
d="M2038 633h-1858v164h1858v-164z" />
    <glyph glyph-name="endash.aalt" horiz-adv-x="1728" 
d="M1548 633h-1366l-2 164h1368v-164z" />
    <glyph glyph-name="exclamdown.aalt" horiz-adv-x="555" 
d="M405 1462q48 -50 48 -125t-48 -125q-49 -49 -126 -49t-127 50t-50 124q0 76 49 125q48 49 128 49q77 0 126 -49zM403 -6h-251l30 987h189z" />
    <glyph glyph-name="f.aalt" horiz-adv-x="860" 
d="M508 1303v-291h305v-191h-305v-821h-221v821h-240v191h240v485h526v-194h-305z" />
    <glyph glyph-name="f_t.dlig" horiz-adv-x="1581" 
d="M1210 821v-485q0 -94 42 -134q41 -40 124 -40q51 0 119 14v-174q-98 -29 -188 -29q-151 0 -234 89q-82 88 -82 245v514h-491v-821h-221v821h-238v191h238v143q0 180 98 278q97 97 268 97q39 0 84 -6q44 -6 76 -15v-182q-72 6 -109 6q-111 0 -153 -48q-43 -47 -43 -148
v-125h491v278l219 25v-303h285v-191h-285z" />
    <glyph glyph-name="five.dnom" horiz-adv-x="825" 
d="M682 589q92 -95 92 -251q0 -161 -97 -258q-98 -98 -257 -98q-153 0 -247 88q-95 88 -105 231l184 27q1 -75 46 -123q44 -47 118 -47t121 51q47 52 47 129q0 82 -48 133q-50 51 -124 51q-52 0 -92 -25t-60 -69h-188l78 565h561v-172h-406l-26 -184q58 47 161 47
q150 0 242 -95z" />
    <glyph glyph-name="five.numr" horiz-adv-x="825" 
d="M682 1125q92 -95 92 -251q0 -161 -97 -258q-98 -98 -257 -98q-152 0 -247 87q-94 87 -105 233l184 26q1 -74 46 -122q43 -46 118 -46q74 0 121 50t47 126q0 81 -48 134q-50 51 -124 51q-52 0 -93 -24q-39 -25 -59 -70h-188l78 567h561v-172h-406l-26 -187q52 46 161 48
q151 0 242 -94z" />
    <glyph glyph-name="five.tnum" horiz-adv-x="1310" 
d="M940 954q111 -65 173 -182q61 -116 61 -270q0 -157 -65 -278q-64 -120 -182 -186q-118 -67 -272 -67q-145 0 -258 60q-114 59 -182 167q-69 108 -76 248l234 39q1 -130 79 -209q76 -79 197 -79q126 0 206 83q79 82 79 218q0 143 -79 228t-210 85q-87 0 -157 -41
q-69 -40 -103 -115h-233l118 842h817v-219h-618l-53 -344q46 40 113 62q66 22 153 22q148 0 258 -64z" />
    <glyph glyph-name="four.dnom" horiz-adv-x="878" 
d="M57 346l344 647h215l-356 -647h266v326h176v-326h142v-170h-142v-176h-176v176l-469 4v166z" />
    <glyph glyph-name="four.numr" horiz-adv-x="878" 
d="M57 883l344 647h215l-356 -647h266v323h176v-325h142v-166h-142v-178h-176v178h-469v168z" />
    <glyph glyph-name="four.tnum" horiz-adv-x="1351" 
d="M98 500l543 997h268l-555 -997h459v512h227v-512h215v-217h-215v-283h-227v283h-717z" />
    <glyph glyph-name="germandbls.aalt" horiz-adv-x="1204" 
d="M135 1036q0 155 62 267q62 111 170 167q109 56 245 56q124 0 222 -45q97 -45 149 -126q53 -82 53 -188q0 -97 -42 -161q-43 -68 -124 -125l-104 -74q-52 -40 -69 -62q-17 -23 -17 -47q0 -29 19 -47q17 -17 73 -49l113 -61q105 -62 157 -134q50 -71 50 -157
q0 -129 -93 -207q-95 -78 -237 -78q-146 0 -231 75q-87 75 -80 193l165 29q-4 -58 32 -95q36 -36 97 -36q59 0 98 30q38 29 38 83q0 46 -32 80q-33 33 -110 73l-112 60q-86 45 -128 103q-40 55 -40 126q0 66 31 115q30 49 96 96l106 76q65 46 94 90q27 43 27 96
q0 82 -55 131t-146 49q-122 0 -190 -78q-68 -80 -68 -217v-1044h-219v1036z" />
    <glyph glyph-name="glyph1" 
 />
    <glyph glyph-name="glyph2" horiz-adv-x="682" 
 />
    <glyph glyph-name="glyph446" horiz-adv-x="3158" 
d="M1528 526h452v-526h-159l-23 158h-14q0 -12 -25 -55q-26 -45 -90 -82q-65 -39 -176 -39q-185 0 -304 128q-118 127 -118 371q0 170 65 286t169 171q103 55 227 55q157 0 282 -88q125 -89 156 -262h-221q-18 72 -73 114q-56 42 -140 42q-122 0 -184 -87q-62 -88 -62 -223
q0 -133 60 -224q58 -91 182 -91q86 0 147 46q61 47 74 118h-225v188zM2086 810q-34 34 -34 77t33 75q32 31 76 31q45 0 77 -30q31 -31 31 -76q0 -46 -31 -78q-32 -33 -77 -33q-41 0 -75 34zM2357 809q-33 33 -33 78t33 76q33 30 78 30t76 -30q31 -31 31 -76q0 -46 -31 -78
q-31 -33 -76 -33t-78 33zM2607 952v41h164v-41h-59v-170h-52v170h-53zM2939 993h84v-211h-49v181l-29 -181h-70l-28 181v-181h-51v211h90l22 -174zM881 859q120 -125 120 -370q0 -242 -120 -365q-121 -124 -334 -124h-383v983h383q213 0 334 -124zM705 239q81 60 81 250
q0 189 -81 250q-83 62 -158 62h-127q-31 1 -59 13q-22 8 -43 22q-19 12 -21 14l-16 -14l57 -62q31 -25 38 -56q7 -29 7 -54v-349q0 -34 -10 -57t-21 -38q-11 -14 -14 -15l-57 -60l16 -14q5 5 23 16q19 11 49 21q29 10 65 10h113q76 0 158 61zM2474 664q37 0 68 -7v-176
q-16 2 -35 2q-95 0 -151 -51t-56 -158v-274h-211v506q0 92 -14 151h213q7 -49 8 -79q47 86 178 86z" />
    <glyph glyph-name="glyph521" horiz-adv-x="1026" 
d="M915 711q0 -11 -2 -23q6 -136 -59 -198q-67 -62 -158 -62q-53 0 -101 16q-54 16 -120 43q-54 24 -94 37q-39 11 -68 11q-45 0 -63 -31q-19 -30 -14 -74h-123v45q-6 139 54 200q60 60 142 60q46 0 88 -13q39 -12 113 -42q58 -24 105 -40q36 -13 77 -13q51 0 75 30
q24 29 24 80h122q2 -10 2 -26z" />
    <glyph glyph-name="glyph522" horiz-adv-x="987" 
d="M147 684q61 59 144 59q46 0 91 -13q47 -14 110 -40q72 -29 105 -38q38 -11 75 -11q98 0 98 109h125q7 -139 -58 -202q-67 -63 -159 -63q-53 0 -102 16q-47 13 -121 44q-55 22 -97 35q-33 10 -63 10q-45 0 -64 -30q-20 -31 -14 -73h-125q-6 139 55 197z" />
    <glyph glyph-name="greater.aalt" horiz-adv-x="1097" 
d="M156 428l573 293l-573 274v215l786 -393v-192l-786 -418v221z" />
    <glyph glyph-name="guillemotleft.aalt" horiz-adv-x="1267" 
d="M356 733l342 -483h-260l-344 483l344 477h260zM844 733l342 -483h-260l-344 483l344 477h260z" />
    <glyph glyph-name="guillemotright.aalt" horiz-adv-x="1267" 
d="M674 733l-342 -483h-262l344 483l-344 477h262zM1161 733l-342 -483h-262l344 483l-344 477h262z" />
    <glyph glyph-name="guilsinglleft.aalt" horiz-adv-x="780" 
d="M356 733l342 -483h-260l-344 483l344 477h260z" />
    <glyph glyph-name="guilsinglright.aalt" horiz-adv-x="780" 
d="M686 733l-342 -483h-262l344 483l-344 477h262z" />
    <glyph glyph-name="hyphen.aalt" horiz-adv-x="1245" 
d="M1065 633h-883l-2 164h885v-164z" />
    <glyph glyph-name="i.locl" horiz-adv-x="485" 
d="M144 1157q-38 40 -38 98q0 59 38 97q37 37 100 37q61 0 97 -37q36 -38 36 -97q0 -60 -37 -98q-38 -39 -96 -39q-63 0 -100 39zM350 1012v-1012h-215v1012h215z" />
    <glyph glyph-name="j.aalt" horiz-adv-x="563" 
d="M204 1274q-40 40 -40 106q0 67 40 108q41 42 103 42q63 0 104 -42q40 -41 40 -108q0 -66 -40 -106q-41 -41 -104 -41q-62 0 -103 41zM-147 -424v195h346v1241h219v-1436h-565z" />
    <glyph glyph-name="l.aalt" horiz-adv-x="575" 
d="M197 55q-64 70 -64 195v1263h217v-1228q0 -69 30 -98q31 -29 87 -29q12 0 21 -1q7 -1 30 1v-158q-48 -16 -129 -16q-129 0 -192 71z" />
    <glyph glyph-name="less.aalt" horiz-adv-x="1097" 
d="M156 625v192l786 393v-215l-573 -274l573 -293v-221z" />
    <glyph glyph-name="n.aalt" horiz-adv-x="1071" 
d="M123 1012h833v-1012h-221v831h-393v-831h-219v1012z" />
    <glyph glyph-name="nine.dnom" horiz-adv-x="833" 
d="M667 914q97 -97 97 -255q0 -77 -25 -139q-26 -64 -84 -149l-254 -371h-239l229 315q-6 -2 -12 -2q-145 0 -233 94q-89 94 -89 242q0 163 98 263q98 98 257 98q158 0 255 -96zM529 527q44 49 44 130q0 80 -44 127t-119 47q-72 0 -117 -48t-45 -126q0 -82 45 -130t117 -48
q75 0 119 48z" />
    <glyph glyph-name="nine.numr" horiz-adv-x="833" 
d="M667 1445q97 -94 97 -253q0 -78 -25 -138q-26 -64 -84 -149l-254 -373h-239l231 318q-8 -2 -14 -2q-145 0 -233 93q-89 94 -89 241q0 166 98 262q97 96 257 96q157 0 255 -95zM529 1062q44 49 44 128q0 80 -44 127t-119 47q-72 0 -117 -48t-45 -126q0 -80 45 -128
t117 -48q75 0 119 48z" />
    <glyph glyph-name="nine.tnum" horiz-adv-x="1286" 
d="M915 1460q118 -65 182 -183t64 -271q0 -118 -37 -210q-38 -96 -116 -212l-398 -584h-299l348 487q-23 -4 -36 -4q-151 0 -263 63q-113 61 -175 178q-62 116 -62 269q0 157 66 279q64 120 184 187q119 65 270 65q154 0 272 -64zM846 777q78 85 78 220q0 138 -77 221
q-76 82 -206 82q-123 0 -201 -83q-78 -84 -78 -220q0 -139 77 -222t202 -83q127 0 205 85z" />
    <glyph glyph-name="one.dnom" horiz-adv-x="561" 
d="M451 993v-993h-175v696h-210v127q107 0 154 43q49 44 56 127h175z" />
    <glyph glyph-name="one.numr" horiz-adv-x="581" 
d="M471 1530v-993h-174v698h-231v123q110 0 166 46q58 47 65 126h174z" />
    <glyph glyph-name="one.tnum" horiz-adv-x="1331" 
d="M1202 211v-213l-993 2v211h387v883h-387v159q161 0 268 67q107 66 119 177h229v-1286h377z" />
    <glyph glyph-name="parenleft.aalt" horiz-adv-x="667" 
d="M418 -104q-154 195 -220 408q-67 208 -67 441q0 481 287 846h186q-240 -400 -239 -846q0 -460 239 -849h-186z" />
    <glyph glyph-name="parenright.aalt" horiz-adv-x="667" 
d="M303 745q0 451 -240 846h187q287 -365 287 -846q0 -231 -65 -443q-66 -209 -222 -406h-187q240 382 240 849z" />
    <glyph glyph-name="periodcentered.aalt" horiz-adv-x="622" 
d="M172 578q-57 57 -57 141q0 83 57 138q58 56 141 56q79 0 138 -56q57 -55 57 -138q0 -84 -57 -141q-58 -58 -138 -58q-84 0 -141 58z" />
    <glyph glyph-name="questiondown.aalt" horiz-adv-x="1083" 
d="M692 1472q49 -50 49 -126q0 -75 -49 -124q-50 -51 -129 -51q-78 0 -126 50q-48 49 -48 125t48 126t126 50q79 0 129 -50zM686 1004q0 -86 -22 -146q-22 -61 -58 -108q-34 -45 -102 -117l-47 -51q-54 -58 -77 -102q-24 -46 -24 -101q0 -92 53 -142q53 -51 140 -51
q96 0 150 57q53 56 53 150q0 20 -9 74l209 -27q6 -43 6 -82q0 -112 -51 -201q-52 -90 -145 -139q-94 -51 -219 -51q-188 0 -303 109q-115 108 -115 284q0 102 39 177q40 77 121 161l47 50q76 76 108 126q31 49 31 125v27h215v-22z" />
    <glyph glyph-name="r.aalt" horiz-adv-x="716" 
d="M678 1012v-189h-322v-823h-219v1012h541z" />
    <glyph glyph-name="s.aalt" horiz-adv-x="940" 
d="M94 199h459q32 0 51 14q17 14 17 37q0 20 -10 36q-11 16 -36 29l-329 213q-87 52 -125 114q-37 59 -37 132q0 111 75 174q74 62 199 62h453l-16 -197h-406q-35 0 -52 -15q-18 -16 -18 -38q0 -36 52 -70l321 -207q91 -56 126 -113q36 -59 36 -130q0 -116 -72 -177
q-74 -63 -198 -63h-490v199z" />
    <glyph glyph-name="seven.dnom" horiz-adv-x="696" 
d="M674 993v-166l-418 -827h-221l422 821h-437v172h654z" />
    <glyph glyph-name="seven.numr" horiz-adv-x="696" 
d="M674 1530v-166l-418 -827h-221l422 821h-437v172h654z" />
    <glyph glyph-name="seven.tnum" horiz-adv-x="1241" 
d="M1102 1497v-215l-639 -1282h-281l649 1278h-694v219h965z" />
    <glyph glyph-name="six.dnom" horiz-adv-x="823" 
d="M687 584q87 -98 87 -250q0 -156 -97 -253t-255 -97t-255 96t-97 254q0 76 27 139q26 62 83 148l252 372h234l-224 -315q8 2 17 2q141 0 228 -96zM541 210q45 48 45 126q0 79 -44 128q-44 48 -118 48q-76 0 -122 -48q-46 -47 -46 -126q0 -82 45 -129t121 -47q74 0 119 48z
" />
    <glyph glyph-name="six.numr" horiz-adv-x="823" 
d="M687 1119q87 -95 87 -251q0 -157 -97 -251q-98 -95 -255 -95q-158 0 -255 96q-97 94 -97 250q0 82 25 142q24 60 81 145l254 375h236l-226 -318q10 2 19 2q141 0 228 -95zM541 746q45 50 45 128t-45 127q-45 48 -117 48q-76 0 -122 -48q-46 -49 -46 -129q0 -82 45 -129
t121 -47q74 0 119 50z" />
    <glyph glyph-name="six.tnum" horiz-adv-x="1284" 
d="M934 948q108 -64 168 -183q59 -120 59 -271q0 -154 -65 -273q-67 -120 -184 -184q-118 -66 -273 -66q-152 0 -269 66q-117 64 -182 183t-65 272q0 118 37 210q38 95 119 211l397 584h297l-350 -491q37 6 63 6q139 0 248 -64zM845 280q77 83 77 218q0 143 -76 225t-203 82
q-125 0 -203 -86q-78 -85 -78 -221q0 -138 77 -220q76 -81 202 -81q127 0 204 83z" />
    <glyph glyph-name="t.aalt" horiz-adv-x="890" 
d="M502 821v-626h284v-195h-505v821h-240v191h240v284h221v-284h284v-191h-284z" />
    <glyph glyph-name="three.dnom" horiz-adv-x="790" 
d="M668 533q67 -83 67 -209q0 -150 -99 -245q-100 -95 -259 -95q-144 0 -235 79q-93 78 -105 209l186 35q1 -67 47 -108t113 -41q72 0 117 48t45 124q0 74 -46 117q-47 42 -120 42q-46 0 -86 -14l-57 143l198 201l-362 2v172h614v-157l-201 -205q115 -15 183 -98z" />
    <glyph glyph-name="three.numr" horiz-adv-x="790" 
d="M668 1068q67 -82 67 -206q0 -154 -99 -249q-100 -95 -259 -95q-144 0 -235 79q-93 80 -105 212l186 37q1 -70 47 -111t113 -41q75 0 118 46q44 47 44 124q0 75 -46 118q-47 44 -120 44q-42 0 -86 -16l-57 143l200 203l-364 2v172h614v-156l-199 -207q114 -17 181 -99z
" />
    <glyph glyph-name="three.tnum" horiz-adv-x="1314" 
d="M1062 803q109 -127 109 -322q0 -147 -65 -263q-66 -116 -184 -180q-117 -65 -275 -65q-211 0 -347 117t-157 309l234 56q6 -121 83 -189q77 -69 191 -69q128 0 204 79q77 79 77 209q0 131 -79 203t-208 72q-71 0 -125 -19l-67 183l342 354h-594v219h903v-207l-336 -346
q184 -14 294 -141z" />
    <glyph glyph-name="two.dnom" horiz-adv-x="804" 
d="M739 174v-172l-624 -2v150l346 374q43 49 64 92q18 40 18 82q0 70 -39 109t-107 39q-70 0 -109 -45q-40 -44 -40 -119q0 -17 2 -31l-170 23q-2 18 -2 39q0 129 87 216t236 87q151 0 240 -86q88 -85 88 -230q0 -92 -33 -158q-35 -69 -98 -136l-211 -232h352z" />
    <glyph glyph-name="two.numr" horiz-adv-x="804" 
d="M739 709v-170l-624 -2v147l346 375q44 50 64 93q18 42 18 83q0 68 -39 107q-40 38 -107 38q-70 0 -109 -45q-40 -44 -40 -116q0 -17 2 -31l-170 22q-2 18 -2 39q0 129 87 215q88 86 236 86q152 0 240 -85t88 -226q0 -92 -35 -160q-34 -68 -96 -139l-213 -231h354z" />
    <glyph glyph-name="two.tnum" horiz-adv-x="1296" 
d="M526 221h594v-221h-942l-4 193l580 591q135 136 135 283q0 115 -69 182q-70 66 -187 66q-123 0 -192 -76q-70 -76 -70 -197q0 -25 2 -47l-217 27q-2 22 -2 49q0 128 59 234q58 103 170 165q111 60 260 60q144 0 254 -56q109 -57 168 -159q59 -104 59 -238
q0 -249 -194 -440z" />
    <glyph glyph-name="u.aalt" horiz-adv-x="1058" 
d="M336 1012v-832h393v832h221v-1012h-833v1012h219z" />
    <glyph glyph-name="y.aalt" horiz-adv-x="1105" 
d="M1083 1012l-432 -1012v-424h-565v195h348v229l-411 1012h241l279 -744l301 744h239z" />
    <glyph glyph-name="zero.dnom" horiz-adv-x="946" 
d="M181 860q110 137 298 137q187 0 293 -138q107 -139 107 -374q0 -161 -51 -276q-53 -118 -145 -179q-93 -63 -216 -63q-184 0 -290 139q-107 139 -107 373q0 245 111 381zM316 236q57 -91 157 -91q102 0 158 92q55 91 55 244q0 155 -56 247q-57 91 -157 91
q-104 0 -159 -91q-56 -92 -56 -247q0 -156 58 -245z" />
    <glyph glyph-name="zero.numr" horiz-adv-x="946" 
d="M182 1411q111 137 297 137q187 0 293 -138q107 -139 107 -374q0 -162 -51 -278q-52 -117 -145 -178q-94 -62 -216 -62q-184 0 -290 139q-107 139 -107 373q0 245 112 381zM314 787q57 -91 157 -91q104 0 161 92q56 92 56 244q0 156 -57 248q-59 92 -160 92
q-100 0 -157 -92q-58 -91 -58 -248q0 -156 58 -245z" />
    <glyph glyph-name="zero.tnum" horiz-adv-x="1318" 
d="M163 1164q67 175 197 270q128 94 304 94q174 0 301 -93q127 -94 194 -269q66 -175 66 -412q0 -242 -70 -416q-71 -176 -199 -270q-130 -95 -303 -95t-300 95q-126 95 -192 268q-67 173 -67 412q0 240 69 416zM393 393l447 840q-77 72 -181 72q-158 0 -241 -146
q-84 -147 -84 -407q0 -206 59 -359zM659 199q156 0 241 148q85 146 85 407q0 210 -61 354l-443 -840q69 -69 178 -69z" />
    </font>
</defs>
</svg>
